<?xml version="1.0" standalone="no"?>
<!DOCTYPE svg PUBLIC "-//W3C//DTD SVG 1.1//EN" "http://www.w3.org/Graphics/SVG/1.1/DTD/svg11.dtd" >
<svg xmlns="http://www.w3.org/2000/svg" xmlns:xlink="http://www.w3.org/1999/xlink" version="1.1">
<metadata>
Created by FontForge 20161013 at Fri Mar 20 11:12:46 2009
 By ,,,
Copyright 1990 as an unpublished work by Bitstream Inc.  All rights reserved.  Confidential.
</metadata>
<defs>
<font id="Gothic821CondensedBT-Regular" horiz-adv-x="500" >
  <font-face 
    font-family="Gothic 821CondensedBT-Regular"
    font-weight="700"
    font-stretch="normal"
    units-per-em="1000"
    panose-1="2 0 5 6 9 0 0 2 0 4"
    ascent="800"
    descent="-200"
    x-height="574"
    cap-height="720"
    bbox="-33 -236 1000 963"
    underline-thickness="113"
    underline-position="-216"
    unicode-range="U+0020-2122"
  />
<missing-glyph horiz-adv-x="223" 
 />
    <glyph glyph-name=".notdef" horiz-adv-x="223" 
 />
    <glyph glyph-name=".null" horiz-adv-x="0" 
 />
    <glyph glyph-name="nonmarkingreturn" horiz-adv-x="333" 
 />
    <glyph glyph-name="space" unicode=" " horiz-adv-x="223" 
 />
    <glyph glyph-name="exclam" unicode="!" horiz-adv-x="252" 
d="M206 31q0 -19 -8.5 -25t-28.5 -6h-89q-19 0 -26.5 7.5t-7.5 28.5v111q0 18 8.5 24.5t28.5 6.5h89q19 0 26.5 -7.5t7.5 -28.5v-111zM39 678q0 3 -0.5 7.5t-0.5 12.5q0 17 9 23.5t32 6.5h94q23 0 32.5 -6.5t9.5 -23.5v-7t-1 -13l-28 -419q-1 -13 -2.5 -20.5t-5.5 -11
t-10 -4.5t-16 -1h-51q-23 0 -28.5 6t-6.5 31z" />
    <glyph glyph-name="quotedbl" unicode="&#x22;" horiz-adv-x="331" 
d="M133 702v-273h-94v273h94zM292 702v-273h-94v273h94z" />
    <glyph glyph-name="numbersign" unicode="#" horiz-adv-x="769" 
d="M454 715l-71 -203h118l72 203h108l-72 -203h138l-36 -98h-137l-41 -118h142l-35 -98h-142l-72 -203h-108l72 203h-119l-73 -203h-107l71 203h-140l37 98h138l42 118h-146l36 98h145l72 203h108zM303 296h123l42 118h-122z" />
    <glyph glyph-name="dollar" unicode="$" horiz-adv-x="447" 
d="M29 155v4q0 26 10.5 38t36.5 12q12 0 20 -5.5t16 -11.5t18.5 -11.5t25.5 -5.5q35 0 50.5 9t15.5 31q0 13 -8 25.5t-22.5 25t-33.5 27.5t-40 35q-45 42 -66.5 84t-21.5 99q0 90 38.5 142t107.5 60v62q0 8 2 10t11 2h53q9 0 12 -3.5t3 -12.5v-52q14 1 25 1h21q22 0 36 -2
t21 -9t9.5 -19t2.5 -32v-71q0 -29 -7.5 -38.5t-29.5 -9.5q-19 0 -37 6t-38 6q-44 0 -44 -31q0 -15 9 -29t24.5 -29t36.5 -33t45 -42q40 -39 58 -77t18 -95q0 -90 -34.5 -139t-115.5 -67v-69q0 -9 -3 -12.5t-12 -3.5h-53q-9 0 -11 2t-2 10v67q-8 -1 -11.5 -1h-5.5
q-42 0 -73.5 8.5t-43.5 16.5q-8 6 -10 13t-2 21v9z" />
    <glyph glyph-name="percent" unicode="%" horiz-adv-x="656" 
d="M22 557q0 46 5 80t19 56t39 33t66 11q34 0 60 -11t41 -29q20 -25 23.5 -73t3.5 -126q0 -41 -6.5 -71.5t-21.5 -50t-40.5 -29t-64.5 -9.5q-65 0 -98 41q-19 24 -22.5 67.5t-3.5 110.5zM377 203q0 46 5 80t19 56t39 32.5t66 10.5q71 0 99.5 -37.5t28.5 -115.5v-81
q0 -42 -6 -73t-21 -51t-40.5 -30t-65.5 -10q-65 0 -98 41q-19 24 -22.5 67.5t-3.5 110.5zM113 5q-10 5 -10 20q0 7 6 18l363 683q9 17 21 17q5 0 10 -3l41 -20q8 -4 8 -16q0 -2 -7 -16l-359 -683q-11 -20 -24 -20q-2 0 -10 2zM173 616q0 26 -23 26t-23 -26v-158
q0 -27 23 -27t23 27v158zM528 261q0 26 -23 26t-23 -26v-158q0 -27 23 -27t23 27v158z" />
    <glyph glyph-name="ampersand" unicode="&#x26;" horiz-adv-x="523" 
d="M328 38q-45 -46 -119 -46q-42 0 -77.5 16t-61 45t-40 70t-14.5 92q0 66 28 115t89 97q-47 74 -47 133q0 36 12.5 66.5t35 53t54 35t70.5 12.5q69 0 111 -40.5t42 -106.5q0 -47 -26 -94.5t-77 -100.5l47 -100l7 4q3 22 3 27v10q0 35 4 49.5t25 14.5q8 0 15 -0.5t13 -0.5
q11 0 21 0.5t18 0.5q42 0 42 -33q0 -18 -4 -43t-12.5 -54t-21.5 -59t-32 -58l52 -97q7 -12 7 -19q0 -28 -31 -28q-13 0 -29 2t-36 2q-13 0 -22 -1.5t-14 -1.5q-18 0 -32 38zM195 301q-19 -16 -28.5 -36.5t-9.5 -43.5q0 -17 6 -32t15.5 -26.5t22 -18.5t25.5 -7q21 0 47 14z
M249 484q24 26 38 46t14 42t-11.5 34.5t-31.5 12.5q-21 0 -33 -12.5t-12 -35.5q0 -33 36 -87z" />
    <glyph glyph-name="quotesingle" unicode="'" horiz-adv-x="172" 
d="M133 702v-273h-94v273h94z" />
    <glyph glyph-name="parenleft" unicode="(" horiz-adv-x="287" 
d="M273 588q0 -12 -4 -19t-9.5 -12t-12 -9t-11.5 -11q-22 -29 -28 -76.5t-6 -116.5q0 -88 7 -145.5t23 -87.5q4 -9 11 -14t14 -10.5t11.5 -13t4.5 -21.5v-105q0 -35 -32 -35q-17 0 -36 6.5t-38 19t-36 30t-30 39.5q-37 62 -52 139.5t-15 176.5q0 100 16.5 176t45 128
t66 78.5t80.5 26.5q31 0 31 -32v-112z" />
    <glyph glyph-name="parenright" unicode=")" horiz-adv-x="287" 
d="M11 55q0 12 4 19t9.5 12t11.5 9t11 11q22 29 28.5 77t6.5 117q0 88 -7 145.5t-23 87.5q-5 9 -11.5 14t-13.5 10.5t-11.5 13t-4.5 21.5v105q0 34 31 34q34 0 74 -25t67 -70q37 -62 52 -139t15 -176q0 -100 -16.5 -176.5t-45 -128.5t-66 -78.5t-79.5 -26.5q-32 0 -32 32
v112z" />
    <glyph glyph-name="asterisk" unicode="*" 
d="M208 570q-1 47 -6.5 76.5t-5.5 44.5q0 40 50 40q56 0 56 -43q0 -15 -4 -43.5t-14 -72.5q50 29 75 45.5t31 16.5q7 0 15 -5.5t14.5 -14.5t10.5 -20t4 -23t-7 -20t-21 -14t-36.5 -12.5t-52.5 -15.5q28 -14 49 -24t35 -18t21.5 -15.5t7.5 -17.5q0 -11 -5.5 -22t-14 -20
t-18 -15t-17.5 -6t-30.5 18.5t-63.5 53.5q4 -38 10.5 -69t6.5 -57q0 -18 -10.5 -25t-37.5 -7q-48 0 -48 43q0 11 3.5 39.5t6.5 73.5q-41 -26 -65 -44t-38 -18q-6 0 -13.5 5.5t-13.5 14.5t-10.5 19.5t-4.5 20.5q0 19 11.5 29.5t28.5 10.5q4 0 23 7t55 16q-31 15 -53.5 23
t-37.5 15t-22.5 14t-7.5 19q0 11 5 22.5t13 20.5t17 15t17 6t29 -19t63 -48z" />
    <glyph glyph-name="plus" unicode="+" horiz-adv-x="833" 
d="M466 596v-249h243v-97h-243v-250h-99v250h-243v97h243v249h99z" />
    <glyph glyph-name="comma" unicode="," horiz-adv-x="222" 
d="M191 31q0 -14 -5 -21.5t-9 -15.5l-41 -73q-8 -14 -29 -14h-41q-18 0 -18 12q0 7 11.5 26t28.5 55h-16q-25 0 -33 6t-8 30v111q0 18 8.5 24.5t28.5 6.5h89q19 0 26.5 -7.5t7.5 -28.5v-111v0z" />
    <glyph glyph-name="hyphen" unicode="-" horiz-adv-x="278" 
d="M28 356h221v-132h-221v132z" />
    <glyph glyph-name="period" unicode="." horiz-adv-x="222" 
d="M191 31q0 -19 -8.5 -25t-28.5 -6h-89q-19 0 -26.5 7.5t-7.5 28.5v111q0 18 8.5 24.5t28.5 6.5h89q19 0 26.5 -7.5t7.5 -28.5v-111v0z" />
    <glyph glyph-name="slash" unicode="/" horiz-adv-x="278" 
d="M286 766q10 -4 10 -15q0 -2 -1 -6t-3 -10l-235 -808q-8 -24 -24 -24q-5 0 -7 1l-46 12q-5 2 -9 8t-4 13q0 5 3 16l239 808q6 20 22 20q5 0 7 -1l48 -14v0z" />
    <glyph glyph-name="zero" unicode="0" horiz-adv-x="447" 
d="M27 404q0 42 1 78.5t5 68t12 58.5t22 50q48 75 158 75q59 0 102.5 -26t64.5 -72q20 -42 23.5 -107.5t3.5 -159.5v-89q0 -66 -6 -118t-34 -95q-27 -42 -66 -60.5t-96 -18.5q-49 0 -87 19.5t-62 56.5q-15 24 -23.5 56.5t-12.5 74.5t-4.5 94t-0.5 115zM184 206q0 -54 37 -54
q20 0 27.5 14.5t7.5 46.5v294q0 35 -8 53t-28 18t-28 -16.5t-8 -49.5v-306z" />
    <glyph glyph-name="one" unicode="1" horiz-adv-x="447" 
d="M307 725q16 0 22 -9.5t6 -32.5v-622q0 -18 -1 -30t-5 -19t-13.5 -9.5t-25.5 -2.5h-93q-17 0 -21 10t-4 29q0 8 -1 25t-1 42q0 26 1 48.5t1 40.5q0 41 -1 77t-1 68q0 29 1 60.5t1 66.5v26.5t-1 27.5l-43 -59q-3 -4 -8.5 -7t-10.5 -3q-9 0 -22 11l-40 35q-14 12 -14 19
q0 11 10 22l154 186h110z" />
    <glyph glyph-name="two" unicode="2" horiz-adv-x="447" 
d="M38 110q0 19 6.5 32t17.5 23.5t24 21t27 26.5q67 78 100 153t33 132q0 42 -7.5 59.5t-30.5 17.5q-18 0 -24 -14.5t-6 -43.5v-33q0 -25 -4 -37.5t-26 -12.5h-76q-23 0 -28 13.5t-5 42.5v14q0 120 43 174.5t143 54.5q85 0 132.5 -56t47.5 -162q0 -87 -39 -171.5
t-117 -176.5h106q14 0 22.5 -1.5t13.5 -6.5t7 -15t2 -27v-83q0 -20 -11 -27t-33 -7h-287q-31 0 -31 35v75v0z" />
    <glyph glyph-name="three" unicode="3" horiz-adv-x="447" 
d="M69 191q10 16 28 16q10 0 18 -6t17 -13.5t20.5 -13.5t26.5 -6q26 0 41.5 18t15.5 50q0 78 -59 78q-4 0 -12.5 -0.5t-22.5 -0.5q-20 0 -25 8.5t-6 30.5l-3 80v2q0 32 41 32q3 0 5.5 -0.5t5.5 -0.5q32 0 51 16.5t19 40.5q0 23 -15 38t-38 15q-17 0 -26.5 -6.5t-16 -15
t-12 -15t-12.5 -6.5q-9 0 -14.5 4.5t-11.5 12.5l-50 58q-8 10 -8 24q0 22 49 58q61 43 137 43q40 0 73.5 -13t56.5 -37t36 -58t13 -75q0 -96 -72 -142q42 -17 65 -62t23 -113q0 -53 -16 -97.5t-44 -76.5t-66 -49.5t-83 -17.5t-80.5 14.5t-72.5 36.5q-18 11 -27.5 18.5
t-9.5 26.5q0 7 2.5 11.5t6.5 10.5z" />
    <glyph glyph-name="four" unicode="4" horiz-adv-x="447" 
d="M47 155q-19 0 -24.5 7t-5.5 30v81q0 10 7 25l111 248q22 49 41 89t38 72q8 13 14.5 15.5t23.5 2.5h90q25 0 25 -34v-384h35q19 0 19 -26v-93q0 -18 -6 -25.5t-22 -7.5h-26v-114q0 -28 -8.5 -34.5t-38.5 -6.5h-81q-26 0 -31 7.5t-5 30.5v117h-156zM211 487l-74 -179h74
v179z" />
    <glyph glyph-name="five" unicode="5" horiz-adv-x="447" 
d="M59 634q0 6 -0.5 13.5t-0.5 16.5q0 30 9.5 45.5t37.5 15.5h225q29 0 42 -5.5t13 -30.5v-85q0 -17 -8.5 -21t-26.5 -4h-128q-14 0 -18.5 -11.5t-4.5 -32.5q0 -15 4.5 -21t15.5 -6q3 0 9 0.5t17 0.5q81 0 123 -61t42 -182q0 -66 -16.5 -117.5t-45.5 -87t-69 -54.5t-87 -19
q-67 0 -141 47q-42 27 -42 51q0 8 11 27l42 76q7 12 14.5 18t19.5 6q11 0 18.5 -5t15.5 -15q9 -11 16.5 -20t28.5 -9q65 0 65 106q0 94 -72 94q-14 0 -24.5 -4t-18 -9.5t-13 -9.5t-10.5 -4q-14 0 -30 10t-16 24q0 5 1.5 13.5t1.5 21.5v228v0z" />
    <glyph glyph-name="six" unicode="6" horiz-adv-x="447" 
d="M207 465q34 21 76 21q68 0 105 -55q20 -29 24.5 -78t4.5 -122q0 -123 -46.5 -183t-146.5 -60q-197 0 -197 303q0 223 68 332t209 109q51 0 70.5 -12.5t19.5 -47.5v-74q0 -36 -29 -36q-7 0 -20.5 5t-33.5 5q-46 0 -74 -26t-33 -77zM226 340q-25 0 -29.5 -26.5t-4.5 -79.5
q0 -52 7 -74t30 -22q20 0 28 12.5t8 40.5v37q0 59 -5.5 85.5t-33.5 26.5z" />
    <glyph glyph-name="seven" unicode="7" horiz-adv-x="447" 
d="M124 0q-21 0 -30 9t-9 36q0 116 151 527h-153q-14 0 -21.5 2t-11 9.5t-4 23t-0.5 41.5t1 41.5t6 23.5t15 10t27 2h261q25 0 34.5 -3.5t9.5 -22.5q0 -8 1 -24.5t1 -43.5q0 -10 -10 -39t-25.5 -78.5t-34.5 -121.5t-38 -167q-14 -69 -16.5 -112.5t-2.5 -63.5v-14
q-3 -25 -12 -30t-24 -5h-115v0z" />
    <glyph glyph-name="eight" unicode="8" horiz-adv-x="447" 
d="M112 393q-39 32 -57 68t-18 82q0 88 54 138t149 50q39 0 72 -13.5t56 -37.5t36 -58t13 -75q0 -44 -18.5 -84.5t-53.5 -69.5v-4q84 -55 84 -177q0 -102 -56.5 -161.5t-156.5 -59.5q-44 0 -80.5 16t-62.5 44.5t-40.5 67.5t-14.5 85q0 127 92 183zM224 317
q-21 -16 -33.5 -42.5t-12.5 -55.5q0 -32 12 -48.5t33 -16.5q20 0 32.5 15t12.5 43q0 76 -44 105zM232 480q34 29 34 75q0 23 -11 35t-30 12q-20 0 -31 -12.5t-11 -35.5q0 -21 12.5 -40.5t36.5 -33.5z" />
    <glyph glyph-name="nine" unicode="9" horiz-adv-x="447" 
d="M237 254q-35 -22 -76 -22q-67 0 -105 56q-20 29 -24.5 78t-4.5 122q0 124 46.5 183t146.5 59q103 0 150 -78t47 -238q0 -214 -69.5 -320.5t-205.5 -106.5q-26 0 -44 2.5t-28.5 9t-15 18t-4.5 29.5v75q0 35 29 35q7 0 20.5 -5t33.5 -5q46 0 74 26.5t33 77.5zM217 380
q25 0 30.5 22.5t5.5 71.5q0 55 -7 79.5t-34 24.5q-35 0 -35 -52v-42q0 -53 6 -78.5t34 -25.5z" />
    <glyph glyph-name="colon" unicode=":" horiz-adv-x="252" 
d="M206 31q0 -19 -8.5 -25t-28.5 -6h-89q-19 0 -26.5 7.5t-7.5 28.5v111q0 18 8.5 24.5t28.5 6.5h89q19 0 26.5 -7.5t7.5 -28.5v-111zM206 352q0 -19 -8.5 -25t-28.5 -6h-89q-19 0 -26.5 7.5t-7.5 28.5v111q0 18 8.5 24.5t28.5 6.5h89q19 0 26.5 -7.5t7.5 -28.5v-111z" />
    <glyph glyph-name="semicolon" unicode=";" horiz-adv-x="252" 
d="M206 31q0 -14 -5 -21.5t-9 -15.5l-41 -73q-8 -14 -29 -14h-41q-18 0 -18 12q0 7 11.5 26t28.5 55h-16q-25 0 -33 6t-8 30v111q0 18 8.5 24.5t28.5 6.5h89q19 0 26.5 -7.5t7.5 -28.5v-111zM206 352q0 -19 -8.5 -25t-28.5 -6h-89q-19 0 -26.5 7.5t-7.5 28.5v111
q0 18 8.5 24.5t28.5 6.5h89q19 0 26.5 -7.5t7.5 -28.5v-111z" />
    <glyph glyph-name="less" unicode="&#x3c;" horiz-adv-x="833" 
d="M704 476l-436 -178l436 -178v-107l-575 237v97l575 236v-107z" />
    <glyph glyph-name="equal" unicode="=" horiz-adv-x="833" 
d="M709 452v-97h-585v97h585zM709 242v-97h-585v97h585z" />
    <glyph glyph-name="greater" unicode="&#x3e;" horiz-adv-x="833" 
d="M704 347v-97l-575 -237v107l437 178l-437 178v107z" />
    <glyph glyph-name="question" unicode="?" horiz-adv-x="324" 
d="M232 31q0 -19 -8.5 -25t-28.5 -6h-89q-19 0 -26.5 7.5t-7.5 28.5v111q0 18 8.5 24.5t28.5 6.5h89q19 0 26.5 -7.5t7.5 -28.5v-111zM110 222q-17 0 -24 24t-7 74q0 34 4.5 63.5t9.5 53.5t9.5 43t4.5 32q0 44 -30 44q-7 0 -13.5 -2.5t-13.5 -2.5q-18 0 -25.5 24.5
t-7.5 79.5q0 41 24.5 59.5t78.5 18.5q160 0 160 -149q0 -46 -16 -87t-36 -88q-11 -27 -16.5 -51t-5.5 -43q0 -17 2 -32t2 -28q0 -22 -9.5 -27.5t-29.5 -5.5h-61z" />
    <glyph glyph-name="at" unicode="@" horiz-adv-x="1000" 
d="M594 342q-12 81 -85 81q-27 0 -52 -16t-44 -44t-30.5 -65.5t-11.5 -80.5q0 -92 77 -92q39 0 73 29.5t47 81.5zM570 133q-27 -42 -62 -61t-83 -19q-78 0 -118 42.5t-40 123.5q0 59 18.5 109.5t50.5 87t75 57.5t92 21q78 0 115 -64l26 48h87l-72 -292q-3 -12 -3 -20
q0 -34 46 -34q18 0 38.5 9t40.5 28q85 79 85 206q0 57 -23 106t-65.5 85t-102.5 56.5t-133 20.5q-139 0 -236 -66q-83 -56 -127.5 -139t-44.5 -183q0 -75 26.5 -136t75 -103.5t117 -66t152.5 -23.5q80 0 155 24t140 69l40 -57q-151 -113 -333 -113q-96 0 -174 24t-138 70
q-151 117 -151 311q0 82 25.5 155.5t75.5 134.5q72 88 173 133.5t227 45.5q85 0 157 -22.5t124 -62.5q131 -101 131 -265q0 -81 -32 -149t-92 -116q-70 -56 -158 -56q-104 0 -105 81z" />
    <glyph glyph-name="A" unicode="A" horiz-adv-x="437" 
d="M37 244q4 17 4.5 37t4.5 41q28 144 41.5 222t15.5 92q8 46 15 65t29 19h123q14 0 23.5 -2t15.5 -10q8 -11 21 -76t39 -185q9 -42 17.5 -105.5t24.5 -149.5q9 -49 20 -87t11 -67q0 -17 -12.5 -27.5t-33.5 -10.5h-88q-10 0 -19 7t-11 16q-5 18 -5 36t-4 33q-5 19 -14 26.5
t-29 7.5q-28 0 -42.5 -8.5t-14.5 -22.5q0 -10 0.5 -18.5t0.5 -16.5q0 -33 -9 -46.5t-38 -13.5h-92q-21 0 -29.5 7t-8.5 22q0 14 4 31.5t9 38.5zM186 339q-2 -8 -2.5 -14t-1.5 -11t-1 -9q0 -9 10 -15t29 -6q21 0 28.5 7t7.5 21q0 5 -0.5 10.5t-1.5 11.5l-32 209l-8 -1z" />
    <glyph glyph-name="B" unicode="B" horiz-adv-x="456" 
d="M258 720q161 0 161 -173q0 -64 -14.5 -100t-52.5 -50q44 -18 60.5 -61t16.5 -118q0 -114 -48 -166t-151 -52h-138q-15 0 -27 1.5t-22 7.5q-9 5 -10.5 30t-1.5 72q0 41 2 77.5t2 70.5q0 46 -2 90.5t-2 86.5q0 40 1.5 86.5t1.5 101.5q0 15 -1.5 30t-1.5 30q0 38 65 38
q14 0 24.5 -1t18.5 -1h119zM186 189q0 -20 7.5 -30.5t25.5 -10.5q26 0 40.5 20.5t14.5 59.5q0 40 -13 58.5t-42 18.5q-33 0 -33 -33v-83zM189 477q0 -18 19 -18q60 0 60 64q0 26 -13.5 41.5t-34.5 15.5q-31 0 -31 -22v-81z" />
    <glyph glyph-name="C" unicode="C" horiz-adv-x="354" 
d="M21 371q0 96 11.5 163t40 108t78 59.5t125.5 18.5q32 0 44 -10.5t12 -42.5q0 -7 -0.5 -18t-0.5 -25q0 -8 1 -17t1 -20q0 -16 -4 -25.5t-16 -16.5q-5 -2 -11.5 -2.5t-14.5 -0.5t-17 -0.5t-18 -3.5q-19 -6 -30 -19t-16.5 -34.5t-7 -52.5t-1.5 -74q0 -48 2 -83.5t8.5 -59
t20 -35.5t37.5 -12q12 0 22 1t18 1q29 0 29 -41q0 -36 1 -55t1 -23q0 -32 -16 -43t-54 -11q-32 0 -59 3t-50 11t-42.5 23.5t-37.5 41.5q-35 50 -45.5 122.5t-10.5 172.5z" />
    <glyph glyph-name="D" unicode="D" horiz-adv-x="475" 
d="M229 719q64 0 106 -24.5t67 -74t34.5 -125.5t9.5 -178q0 -161 -44 -240t-141 -79q-10 0 -18 1t-14 1l-66 -1q-5 0 -25.5 -1t-58.5 -1q-18 0 -28 4t-14.5 14.5t-5.5 27.5t-1 44v9q0 14 1.5 87t1.5 208q0 132 -2.5 202.5t-2.5 81.5q0 24 13 34t42 10q9 0 25.5 -0.5
t41.5 -0.5l75 1h4zM188 216q0 -5 -0.5 -10t-0.5 -10q0 -26 8 -36.5t27 -10.5q18 0 28.5 8t15.5 25t6.5 45t1.5 67v62q0 54 -1 92t-7 62t-17.5 35t-32.5 11q-31 0 -31 -36q0 -24 1 -42t1 -30z" />
    <glyph glyph-name="E" unicode="E" horiz-adv-x="375" 
d="M33 646q0 4 -0.5 10t-0.5 15q0 18 4.5 27.5t13.5 14.5t23 6t34 1h156q3 0 7.5 -0.5t9.5 -0.5q2 0 6.5 0.5t12.5 0.5q31 0 42 -11t11 -41q0 -26 0.5 -41t0.5 -20q0 -30 -11 -39.5t-38 -9.5q-8 0 -17 0.5t-20 0.5h-46q-17 0 -23 -8.5t-6 -31.5v-13q0 -28 5 -39t30 -11
q13 0 30 1.5t38 1.5q36 0 44 -15t8 -52v-29q0 -67 -41 -67q-14 0 -33.5 2t-47.5 2q-22 0 -26 -8t-4 -26l-1 -59q0 -23 5.5 -30t28.5 -7q38 0 60 0.5t28 0.5q31 0 37.5 -16.5t6.5 -59.5q0 -27 -1 -45t-6 -29t-15.5 -16t-30.5 -5q-31 0 -72 2t-93 2q-16 0 -33.5 -2t-37.5 -2
q-22 0 -34 11t-12 31q0 24 3.5 53.5t3.5 65.5l1 485v0z" />
    <glyph glyph-name="F" unicode="F" horiz-adv-x="354" 
d="M30 625q0 10 -0.5 21.5t-0.5 25.5q0 27 9.5 37.5t34.5 10.5q7 0 13.5 -0.5t13.5 -0.5t13.5 0.5t14.5 0.5h141q11 0 19 0.5t13 0.5q26 0 36 -10.5t10 -41.5q0 -11 -1 -22.5t-1 -24.5q0 -23 -3 -35t-13 -17.5t-27.5 -6.5t-46.5 -1h-28q-12 0 -19.5 -1.5t-11 -7.5t-5 -17
t-1.5 -30t1 -29t6 -15t16.5 -6t32.5 -1h7q17 0 31.5 2t26.5 2q17 0 23 -10.5t6 -33.5q0 -10 -0.5 -19.5t-0.5 -19.5v-25q0 -31 -9 -44t-39 -13q-12 0 -27 1t-32 1q-25 0 -32.5 -9.5t-7.5 -41.5v-145q0 -24 1.5 -40.5t1.5 -24.5q0 -20 -9 -29t-30 -9q-14 0 -29 2t-32 2
q-11 0 -21 -1.5t-21 -1.5q-17 0 -20.5 8.5t-3.5 28.5v20q0 8 0.5 16t0.5 16v538z" />
    <glyph glyph-name="G" unicode="G" horiz-adv-x="463" 
d="M432 76q0 -22 -2 -35t-12 -21q-18 -14 -50 -23t-80 -9q-63 0 -113 24.5t-85.5 70t-54.5 111t-19 146.5q0 90 21 160.5t58.5 119t90.5 74.5t118 26q34 0 57 -3.5t37 -11.5t20 -22.5t6 -35.5q0 -54 -5 -79t-32 -25q-11 0 -27 5.5t-39 5.5q-69 0 -102 -46t-33 -141
q0 -100 17.5 -151.5t59.5 -51.5q20 0 25.5 14.5t5.5 40.5v56q0 16 -24 25q-17 7 -23.5 20t-6.5 36q0 36 2 57t9 32t21 14t37 3h58q38 0 51.5 -15t13.5 -56v-315v0z" />
    <glyph glyph-name="H" unicode="H" horiz-adv-x="456" 
d="M123 720q42 0 58 -8.5t16 -40.5v-7l-6 -158q0 -5 -0.5 -10t-0.5 -10q0 -23 7.5 -35.5t31.5 -12.5q23 0 31.5 16.5t8.5 51.5q0 34 -2.5 54t-2.5 27q0 14 2 26.5t2 26.5q0 11 -1 21t-1 18q0 28 15.5 34.5t50.5 6.5h47q26 0 36.5 -7.5t10.5 -30.5q0 -5 -1.5 -30t-1.5 -70
q0 -14 0.5 -39t0.5 -62q0 -45 -1 -117.5t-1 -174.5q0 -54 1.5 -87t1.5 -46q0 -56 -46 -56h-71q-25 0 -35.5 14.5t-10.5 43.5v88q0 29 4.5 53t4.5 44q0 34 -30 34q-32 0 -40 -15.5t-8 -46.5v-158q0 -18 -2.5 -29t-9 -17t-19 -8.5t-32.5 -2.5h-39q-32 0 -46 6t-14 39q0 7 1 36
t1 82q0 80 -1.5 156.5t-1.5 151.5q0 36 1 77t1 88v25q0 18 1.5 29.5t7.5 18t18 9t33 2.5h31z" />
    <glyph glyph-name="I" unicode="I" horiz-adv-x="227" 
d="M136 720q18 0 29.5 -1.5t19.5 -8.5q7 -7 8.5 -23t1.5 -43v-60q0 -144 -1.5 -247.5t-1.5 -167.5q0 -23 1 -50.5t1 -59.5q0 -21 -3 -32.5t-10.5 -17.5t-20 -7.5t-30.5 -1.5h-35q-23 0 -35.5 2t-19.5 9t-8.5 20t-1.5 35q0 26 2 151.5t2 351.5q0 48 -1 74.5t-1 31.5
q0 16 2.5 25t9.5 13.5t18 5.5t28 1h46v0z" />
    <glyph glyph-name="J" unicode="J" horiz-adv-x="280" 
d="M193 720q30 0 40 -10.5t10 -39.5q0 -7 -1 -39t-1 -91q0 -27 0.5 -66t0.5 -90v-196q0 -54 -5.5 -91.5t-19 -60.5t-37 -33t-59.5 -10q-39 0 -60.5 2t-32 9.5t-12.5 21.5t-2 38v13q0 46 4 63t24 19q13 2 21.5 3.5t11.5 10.5t3.5 35t0.5 70v81q0 87 -0.5 164.5t-0.5 148.5
q0 29 8 38.5t37 9.5h70v0z" />
    <glyph glyph-name="K" unicode="K" horiz-adv-x="435" 
d="M148 720q23 0 31 -9.5t8 -36.5v-7l-4 -195h15q26 104 40.5 161.5t19.5 68.5q7 18 35 18h92q22 0 31 -3t9 -16q0 -11 -5 -22.5t-11 -25.5l-85 -205q-3 -8 -5.5 -15.5t-2.5 -15.5q0 -9 13.5 -54t39.5 -126q29 -92 47.5 -145t18.5 -72q0 -20 -32 -20q-7 0 -18.5 1t-28.5 1
q-8 0 -17 -1t-20 -1q-18 0 -28.5 1t-16.5 6t-9.5 16t-8.5 31l-58 247h-13v-245q0 -30 -7 -43t-38 -13h-47q-20 0 -32 1t-19 7.5t-9 20t-2 38.5q0 15 0.5 84t0.5 194q0 146 -0.5 229.5t-0.5 103.5q0 28 12 35t46 7h59v0z" />
    <glyph glyph-name="L" unicode="L" horiz-adv-x="343" 
d="M94 0q-5 0 -11 -1t-14 -1q-14 0 -22 5.5t-12 17t-4.5 29.5t-0.5 42v10q0 74 1 155t1 172q0 49 -0.5 104.5t-0.5 118.5q0 38 5 53t28 15q3 0 14 -0.5t31 -0.5q17 0 30.5 1t22.5 1q14 0 19 -4q7 -5 8.5 -17.5t1.5 -31.5q0 -8 -0.5 -41t-0.5 -93q0 -152 0.5 -236t3.5 -101
q3 -18 11.5 -25t26.5 -7q8 0 18 1.5t21 1.5q28 0 36.5 -14t8.5 -47v-53q0 -55 -56 -55q-13 0 -23 0.5t-18 0.5h-125v0z" />
    <glyph glyph-name="M" unicode="M" horiz-adv-x="579" 
d="M34 525q0 18 1 42t1 54q0 17 -1.5 32t-1.5 29q0 24 11 31t40 7h93q13 0 22 -2t16 -8.5t12 -19.5t10 -34l48 -212h12l58 239q5 20 14 28.5t25 8.5h110q27 0 34 -14t7 -50q0 -32 -2 -82t-2 -118q0 -48 1 -124t1 -181q0 -42 1 -65t1 -28q0 -32 -6 -45t-25 -13h-90
q-21 0 -28.5 12t-7.5 40v192q0 48 -1 82t-3 56h-15q-41 -196 -75 -196q-20 0 -39.5 49.5t-51.5 146.5h-12v-292q0 -13 -1 -26.5t-1 -29.5q0 -11 -1.5 -17.5t-6.5 -10.5t-16 -5t-29 -1h-65q-37 0 -37 57v468v0z" />
    <glyph glyph-name="N" unicode="N" 
d="M31 646q0 37 7 55.5t40 18.5h91q18 0 25.5 -4.5t12.5 -21.5q5 -18 26 -96.5t66 -217.5h20l2 280q0 32 6 46t32 14h62q28 0 37.5 -7.5t9.5 -33.5q0 -4 -0.5 -9t-0.5 -13v-283q0 -22 -1.5 -47t-1.5 -54q0 -10 1 -57t1 -132q0 -41 -6 -62.5t-38 -21.5h-81q-15 0 -24 1.5
t-15 8t-10.5 18.5t-10.5 33l-81 279h-20v-279q0 -17 -1.5 -29t-6 -19t-14.5 -10t-26 -3h-51q-19 0 -29 3.5t-14.5 11t-5.5 20.5t-1 33v578z" />
    <glyph glyph-name="O" unicode="O" horiz-adv-x="505" 
d="M25 354q0 43 0.5 82t4.5 73.5t12 65t22 57.5q26 49 76.5 75t125.5 26q113 0 163 -68t50 -214v-32q0 -109 -3.5 -185t-23.5 -125q-23 -57 -77.5 -89t-135.5 -32q-63 0 -104 21.5t-65.5 66.5t-34.5 114t-10 164zM203 257q0 -51 8.5 -73.5t35.5 -22.5q20 0 31 9t16 28
t6 48.5t1 70.5v169q0 37 -13 57t-35 20q-30 0 -40 -26.5t-10 -80.5v-199z" />
    <glyph glyph-name="P" unicode="P" horiz-adv-x="495" 
d="M46 64q0 10 -0.5 30t-0.5 50q0 71 2 153.5t2 177.5q0 85 -2.5 133.5t-2.5 59.5q0 49 38 52q2 0 45.5 3t128.5 3q106 0 155.5 -64t49.5 -200q0 -65 -14.5 -116t-40.5 -86.5t-62 -54.5t-79 -19q-5 0 -9.5 0.5t-9.5 0.5q-27 0 -37.5 -8.5t-10.5 -33.5q0 -47 2 -73.5t2 -33.5
q0 -20 -8.5 -29t-28.5 -9q-8 0 -17.5 1.5t-20.5 1.5q-15 0 -28.5 -2.5t-25.5 -2.5q-28 0 -28 34q0 11 0.5 19t0.5 13zM193 516q0 -67 1.5 -105.5t3.5 -46.5t12 -14t27 -6q37 0 47.5 27t10.5 82q0 64 -12 93.5t-46 29.5q-44 0 -44 -60z" />
    <glyph glyph-name="Q" unicode="Q" horiz-adv-x="519" 
d="M391 32q-35 -26 -72.5 -35t-82.5 -9q-64 0 -107 26t-68 83q-21 48 -27.5 123t-6.5 184q0 85 12 147t40 102.5t73.5 60t112.5 19.5q111 0 161 -68.5t50 -213.5q0 -112 -2 -169t-2 -60q-3 -30 -8 -43.5t-5 -15.5q0 -4 22 -13q9 -3 15.5 -4.5t11.5 -3.5t7.5 -7t2.5 -16
q0 -13 -1 -23t-1 -18t1 -19t1 -25q0 -33 -32 -33q-20 0 -45 7.5t-50 23.5zM200 250q0 -46 6.5 -68t35.5 -22q8 0 25 5q-14 13 -21.5 22.5t-7.5 20.5t7.5 19.5t18.5 8.5q20 0 40 -20v270q0 77 -50 77q-33 0 -43.5 -25t-10.5 -82v-206z" />
    <glyph glyph-name="R" unicode="R" horiz-adv-x="514" 
d="M37 659q0 34 9 48.5t46 14.5q23 0 42.5 -1t35.5 -1q23 0 50.5 1.5t59.5 1.5q49 0 83.5 -13.5t56.5 -43t32 -77t10 -114.5q0 -92 -15 -146t-60 -77l91 -208q5 -12 5 -18q0 -28 -35 -28q-5 0 -10.5 1t-11.5 1h-85q-13 0 -20 3t-11.5 10t-8 16.5t-8.5 23.5l-77 199h-18v-211
q0 -20 -7.5 -30.5t-25.5 -10.5h-89q-28 0 -33.5 14.5t-5.5 50.5v594zM196 446q0 -22 0.5 -38t5 -26t14.5 -14.5t28 -4.5q26 0 41 18.5t15 48.5q0 36 -1.5 63t-7.5 44t-18 25.5t-34 8.5q-45 0 -45 -54q0 -11 1 -29t1 -42z" />
    <glyph glyph-name="S" unicode="S" horiz-adv-x="433" 
d="M32 134v4q0 27 10 39t35 12q7 0 14.5 -4t17.5 -8.5t23.5 -8.5t33.5 -4q51 0 51 44q0 17 -8 31t-22 27.5t-32 28.5t-38 34q-45 43 -64.5 87.5t-19.5 102.5q0 203 225 203q37 0 58 -2t31 -8.5t12 -19.5t2 -34v-73q0 -30 -6 -39.5t-29 -9.5q-19 0 -36.5 6.5t-36.5 6.5
q-46 0 -46 -40q0 -14 8.5 -27.5t24.5 -29t37.5 -35t47.5 -45.5q39 -39 54 -77.5t15 -89.5q0 -111 -51 -164t-162 -53q-49 0 -82 6.5t-47 13.5t-16.5 17t-2.5 26v7z" />
    <glyph glyph-name="T" unicode="T" horiz-adv-x="394" 
d="M269 108q0 -23 1.5 -39.5t1.5 -26.5q0 -23 -8 -32.5t-28 -9.5q-4 0 -10 0.5t-14 0.5q-13 0 -28.5 -1.5t-34.5 -1.5q-25 0 -35 9.5t-10 30.5q0 13 1 26t1 27v259q0 12 -1 24.5t-1 26.5q0 10 1.5 42t1.5 89q0 17 -8 19q-20 5 -40 3t-38 6q-13 5 -15.5 29.5t-2.5 74.5
q0 53 47 53q66 0 102 1t43 1q23 0 41.5 -1.5t34.5 -1.5q14 0 27.5 1t26.5 1q28 0 36.5 -8.5t8.5 -40.5v-12q0 -52 -4.5 -77.5t-30.5 -25.5h-33q-20 0 -27 -5.5t-7 -18.5v-17z" />
    <glyph glyph-name="U" unicode="U" horiz-adv-x="493" 
d="M28 649q0 36 5.5 53.5t32.5 17.5h82q31 0 37 -13t6 -42v-439q0 -69 53 -69q54 0 54 55v451q0 33 10 45t38 12h78q20 0 28 -13t8 -39v-436q0 -127 -55 -185.5t-176 -58.5q-115 0 -164 69q-26 35 -31.5 85t-5.5 121v386z" />
    <glyph glyph-name="V" unicode="V" horiz-adv-x="449" 
d="M233 201q17 236 26 362t24 146q9 12 36 12q23 0 43.5 -0.5t37.5 -0.5h9q20 0 30 -2.5t10 -15.5q0 -26 -21.5 -144.5t-58.5 -333.5q-10 -59 -15.5 -101t-11 -70t-14 -41t-25.5 -13q-6 0 -13.5 1.5t-15.5 1.5q-21 0 -35 -0.5t-21 -0.5q-9 0 -17.5 0.5t-17.5 0.5
q-10 0 -18 -0.5t-13 -0.5q-13 0 -20 8t-11.5 25.5t-8 45t-9.5 66.5q-13 81 -33 171.5t-37 196.5q-14 85 -23 130t-9 52q0 16 9.5 20.5t33.5 4.5h100q14 0 22 -3t11 -12q7 -22 18 -147.5t25 -357.5h13v0z" />
    <glyph glyph-name="W" unicode="W" horiz-adv-x="653" 
d="M217 303h12l44 169l-38 207q-1 5 -1.5 8.5t-0.5 5.5q0 12 8.5 20.5t21.5 8.5q22 0 36.5 -1t22.5 -1q10 0 20 1t20 1q22 0 28.5 -12t8.5 -45l28 -362h11l44 359v15q0 24 11.5 33t37.5 9q18 0 35.5 -1t34.5 -1q12 0 19.5 0.5t12.5 0.5q11 0 15.5 -4t4.5 -16q0 -7 -2.5 -21
t-7.5 -37l-108 -579q-6 -33 -12 -47.5t-32 -14.5q-8 0 -16 1.5t-17 1.5q-10 0 -18 -2t-16 -2q-29 0 -37.5 20t-16.5 63l-38 197h-11l-34 -228q-4 -26 -14 -38t-43 -12q-5 0 -11 0.5t-14 0.5t-16 -1t-17 -1q-19 0 -29 3.5t-15.5 13.5t-9 26t-7.5 42l-96 559q-4 22 -7 37
t-3 24q0 15 35 15q41 0 63.5 1t27.5 1q15 0 24 -4.5t13.5 -14t7 -25t4.5 -36.5z" />
    <glyph glyph-name="X" unicode="X" horiz-adv-x="449" 
d="M120 375q-49 152 -77.5 230.5t-28.5 90.5q0 11 7.5 17.5t21.5 6.5q19 0 32.5 -0.5t21.5 -0.5q11 0 23 0.5t27 0.5q33 0 40 -33l35 -161h11l31 164q6 31 34 31q12 0 27 -2.5t35 -2.5q15 0 26.5 1.5t21.5 1.5q26 0 26 -22q0 -8 -4.5 -18.5t-9.5 -25.5l-101 -278l119 -324
q4 -11 7 -20t3 -17q0 -9 -9 -12t-29 -3q-9 0 -22.5 1t-31.5 1q-23 0 -36 -1t-18 -1q-17 0 -23 8t-11 26l-46 172h-9l-38 -174q-4 -18 -13.5 -24.5t-27.5 -6.5q-11 0 -24 1.5t-28 1.5q-13 0 -27 -1t-29 -1q-17 0 -23 2t-6 14q0 9 9 35l114 323v0z" />
    <glyph glyph-name="Y" unicode="Y" horiz-adv-x="435" 
d="M218 451h8l32 203q4 26 9 41t16 19q18 6 108 6q48 0 48 -26q0 -10 -9 -38l-110 -334q-2 -5 -5 -13t-6 -20t-5.5 -28.5t-2.5 -40.5v-6l2 -138q0 -14 1 -24.5t1 -18.5q0 -20 -10 -26.5t-33 -6.5q-14 0 -25 0.5t-18 0.5q-22 0 -36 -1t-19 -1q-15 0 -21 6.5t-6 21.5q0 6 1 43
t1 108v77q0 18 -4.5 33t-9.5 31l-114 336q-8 24 -8 37q0 28 40 28q6 0 16.5 -1t26.5 -1q8 0 22 0.5t34 0.5q21 0 29 -10t11 -29z" />
    <glyph glyph-name="Z" unicode="Z" horiz-adv-x="407" 
d="M20 120q0 27 13.5 58t30.5 74q26 66 48.5 116.5t39.5 87t26.5 59t9.5 32.5q0 8 -12 10t-40 2q-29 0 -45.5 -1t-21.5 -1q-25 0 -33 13t-8 42q0 8 0.5 13t0.5 7q0 5 -0.5 17t-0.5 31q0 22 12.5 30t41.5 8h266q19 0 25 -6q7 -6 8.5 -20t1.5 -37v-34q0 -2 -2.5 -13t-8.5 -27
l-157 -384q-3 -8 -5.5 -13.5t-2.5 -10.5q0 -8 53 -8h27q27 0 44.5 2t25.5 2q12 0 20 -10t8 -26q0 -17 -1 -31.5t-1 -26.5q0 -5 0.5 -12t0.5 -17q0 -28 -8.5 -37.5t-28.5 -9.5q-41 0 -75.5 1.5t-63.5 1.5q-23 0 -48 -1.5t-53 -1.5h-22q-16 0 -25.5 -0.5t-11.5 -0.5
q-16 0 -22.5 9t-6.5 31z" />
    <glyph glyph-name="bracketleft" unicode="[" horiz-adv-x="287" 
d="M39 661q0 30 5 44.5t35 14.5h140q20 0 26.5 -10t6.5 -30v-73q0 -15 -5 -22t-19 -7q-3 0 -6 0.5t-7 0.5q-21 0 -21 -37v-450q0 -16 4.5 -22t16.5 -7q17 -1 27 -5t10 -21v-98q0 -14 -8 -17t-25 -3h-152q-21 0 -24.5 9.5t-3.5 32.5v700z" />
    <glyph glyph-name="backslash" unicode="\" horiz-adv-x="278" 
d="M34 780q2 1 7 1q16 0 22 -20l239 -808q3 -11 3 -16q0 -7 -4 -13t-9 -8l-46 -12q-2 -1 -7 -1q-17 0 -24 24l-235 808q-2 6 -3 10t-1 6q0 11 10 15l48 14v0z" />
    <glyph glyph-name="bracketright" unicode="]" horiz-adv-x="287" 
d="M245 -39q0 -23 -4 -32.5t-24 -9.5h-151q-17 0 -25.5 3t-8.5 17v98q0 17 10 21t27 5q12 1 16.5 7t4.5 22v450q0 37 -21 37q-4 0 -7 -0.5t-6 -0.5q-14 0 -19 7t-5 22v73q0 20 7 30t27 10h140q28 0 33.5 -13t5.5 -40v-706v0z" />
    <glyph glyph-name="asciicircum" unicode="^" horiz-adv-x="1000" 
d="M561 713l235 -274h-115l-181 181l-182 -181h-115l235 274h123z" />
    <glyph glyph-name="underscore" unicode="_" 
d="M500 -136v-100h-500v100h500z" />
    <glyph glyph-name="grave" unicode="`" 
d="M126 705q-4 3 -4 7q0 8 11 8h114q11 0 18.5 -3.5t9.5 -7.5l48 -84q2 -4 2 -5q0 -9 -10 -9h-71q-17 0 -25 8l-93 86v0z" />
    <glyph glyph-name="a" unicode="a" horiz-adv-x="413" 
d="M230 37q-17 -46 -76 -46q-29 0 -53 14t-41 40.5t-27 64.5t-10 85q0 50 10.5 89t29.5 66t44 41.5t55 14.5q21 0 36.5 -6.5t26.5 -6.5q14 0 14 19q0 22 -16 35t-45 13q-32 0 -54 -9t-35 -9q-14 0 -19 8t-5 25v50q0 13 2 22t14 14q15 7 50 14.5t80 7.5q48 0 80.5 -8
t51.5 -26t27 -46t8 -68v-383q0 -6 0.5 -10.5t0.5 -8.5q0 -24 -8.5 -28.5t-36.5 -4.5h-69q-10 0 -15.5 0.5t-8 4.5t-3.5 11t-1 21h-7zM163 172q0 -50 36 -50q22 0 29 13t7 44v60q0 26 -7 38.5t-26 12.5q-39 0 -39 -54v-64z" />
    <glyph glyph-name="b" unicode="b" horiz-adv-x="424" 
d="M38 679q0 17 0.5 26.5t4.5 14t12.5 5.5t23.5 1h63q16 0 24.5 -2.5t12.5 -8t4.5 -15.5t0.5 -25v-118q30 26 74 26q72 0 103.5 -72t31.5 -219q0 -149 -28.5 -223t-99.5 -74q-26 0 -46.5 9.5t-40.5 31.5q-3 -24 -9 -30t-28 -6h-60q-26 0 -35.5 8t-9.5 31q0 14 1 29t1 33v578
zM179 205q0 -59 36 -59q23 0 29 18.5t6 56.5v141q0 34 -6 50t-29 16q-25 0 -30.5 -19t-5.5 -56v-148z" />
    <glyph glyph-name="c" unicode="c" horiz-adv-x="285" 
d="M258 461q0 -29 -11 -33.5t-28 -6.5q-15 -2 -24 -10t-13 -23.5t-5 -39.5t-1 -57q0 -63 7 -91.5t36 -28.5h11q17 0 22.5 -7.5t5.5 -27.5v-104q0 -37 -44 -37q-55 0 -91.5 15t-58 48.5t-30.5 87.5t-9 131q0 83 8 141.5t29 95t58 53t94 16.5q25 0 34.5 -8.5t9.5 -31.5v-82z
" />
    <glyph glyph-name="d" unicode="d" horiz-adv-x="424" 
d="M238 675q0 15 1 25t5 15.5t13 8t24 2.5h63q15 0 23.5 -1t12 -5.5t4.5 -14t1 -26.5v-578q0 -17 1 -32.5t1 -29.5q0 -23 -10 -31t-36 -8h-59q-22 0 -28.5 6.5t-9.5 29.5q-20 -22 -40.5 -31.5t-46.5 -9.5q-71 0 -99 73.5t-28 223.5q0 147 31.5 219t103.5 72q43 0 73 -26v118
zM174 222q0 -39 6 -57.5t29 -18.5q36 0 36 60v149q0 38 -5.5 56.5t-30.5 18.5q-23 0 -29 -16t-6 -50v-142z" />
    <glyph glyph-name="e" unicode="e" horiz-adv-x="407" 
d="M375 55q0 -25 -10 -32q-14 -10 -49 -20.5t-77 -10.5q-118 0 -169 73t-51 228q0 148 43.5 218.5t144.5 70.5q102 0 152 -87q17 -31 20.5 -77t3.5 -109q0 -40 -6 -60t-31 -20h-161q-5 0 -10.5 -4t-5.5 -9q0 -38 20.5 -55.5t67.5 -17.5q16 0 28.5 4t22.5 9l18 9t14 4
q35 0 35 -37v-77zM220 346q17 0 21 7t4 25q0 37 -8.5 54.5t-34.5 17.5q-34 0 -34 -56q0 -26 3.5 -37t17.5 -11h31z" />
    <glyph glyph-name="f" unicode="f" horiz-adv-x="280" 
d="M259 620q0 -30 -25 -30q-5 0 -9.5 1t-8.5 1q-20 0 -20 -27q0 -5 0.5 -10.5t1.5 -12.5h38q23 0 23 -32v-73q0 -20 -8.5 -27t-31.5 -7h-14v-361q0 -25 -6 -34.5t-33 -9.5q-11 0 -20 1t-14 1q-10 0 -19 -1.5t-19 -1.5q-23 0 -27 11.5t-4 38.5v354q-5 -1 -13 -1
q-17 0 -20.5 9t-3.5 32v69q0 18 5.5 25.5t20.5 7.5q2 0 5 -0.5t6 -0.5v91q0 97 101 97h41q32 0 43 -5t11 -33v-72v0z" />
    <glyph glyph-name="g" unicode="g" horiz-adv-x="412" 
d="M375 93q0 -40 -5.5 -70t-32.5 -53q-31 -26 -72 -39.5t-86 -13.5q-44 0 -68 3t-36 12t-14.5 27t-2.5 48q0 26 8.5 39.5t22.5 13.5q6 0 13.5 -3.5t17 -7.5t21.5 -7.5t26 -3.5q36 0 51.5 14t15.5 47v10.5t-1 11.5q-35 -29 -76 -29q-60 0 -95 61.5t-35 178.5q0 251 137 251
q20 0 36 -9t34 -28v9q0 23 17 23q3 0 13 -0.5t27 -0.5q23 0 37 0.5t19 0.5q20 0 24 -10t4 -42v-433zM202 433q-24 0 -31 -23.5t-7 -74.5q0 -55 7.5 -80t33.5 -25q23 0 28 18t5 56q0 22 -1 43t-1 41q0 45 -34 45z" />
    <glyph glyph-name="h" unicode="h" horiz-adv-x="454" 
d="M327 0q-21 0 -33.5 2.5t-18.5 8.5t-8 17t-2 28v262q0 52 -5 79t-31 27q-43 0 -43 -74v-216q0 -24 2.5 -46.5t2.5 -43.5q0 -16 -3 -24.5t-9 -13t-15.5 -5.5t-23.5 -1h-67q-23 0 -30 11t-7 43v551q0 9 -1 24t-1 35q0 19 2 30.5t8.5 18t19 9t33.5 2.5h57q34 0 34 -20
q0 -2 -0.5 -4.5t-0.5 -5.5l3 -160l5 -1q38 50 98 50q66 0 93.5 -48.5t27.5 -146.5v-308q0 -42 -7.5 -61t-41.5 -19h-38v0z" />
    <glyph glyph-name="i" unicode="i" horiz-adv-x="229" 
d="M34 480q0 10 -0.5 21t-0.5 24q0 30 12 37.5t42 7.5h19q10 0 20 0.5t21 0.5q24 0 34 -5.5t10 -24.5v-494q0 -29 -5.5 -38.5t-31.5 -9.5q-13 0 -24 1t-19 1q-19 0 -31 -1t-18 -1q-20 0 -24 10.5t-4 34.5v436zM107 603q-27 0 -41.5 2t-21.5 9.5t-8.5 22t-1.5 39.5q0 32 7 43
t35 11q8 0 18.5 -0.5t22.5 -0.5q8 0 16 0.5t16 0.5q15 0 24 -2.5t13 -9t5 -19t1 -31.5q0 -23 -2.5 -36t-9 -19.5t-17.5 -8t-29 -1.5h-27z" />
    <glyph glyph-name="j" unicode="j" horiz-adv-x="245" 
d="M209 61q0 -40 -6.5 -67.5t-21.5 -44.5t-39.5 -24.5t-61.5 -7.5q-27 0 -43 3.5t-23.5 11t-9.5 20t-2 31.5q0 5 0.5 14.5t0.5 24.5q0 6 -0.5 14t-0.5 19q0 13 2.5 18.5t7.5 8t11.5 2.5t14.5 2q10 2 12 13.5t2 34.5v346q0 9 -0.5 20.5t-0.5 25.5q0 29 12 37t42 8
q2 0 7.5 -0.5t12.5 -0.5q10 0 19.5 0.5t20.5 0.5q24 0 34 -5.5t10 -24.5v-480zM122 603q-26 0 -40.5 2.5t-21 10t-7.5 22.5t-1 39q0 32 7.5 42.5t34.5 10.5q8 0 18.5 -0.5t22.5 -0.5q8 0 16 0.5t16 0.5q15 0 23.5 -2.5t13 -9t5.5 -19t1 -31.5q0 -23 -2.5 -35.5t-9 -19.5
t-17.5 -8.5t-28 -1.5h-31z" />
    <glyph glyph-name="k" unicode="k" horiz-adv-x="437" 
d="M41 639q0 9 -0.5 19.5t-0.5 23.5q0 31 11.5 39.5t41.5 8.5q2 0 7 -0.5t13 -0.5q9 0 19.5 0.5t23.5 0.5q17 0 24 -6t7 -22q0 -2 -0.5 -11.5t-0.5 -26.5v-287h13q31 58 42 104t20 72q5 14 13 17t25 3h34q42 0 59.5 -4.5t17.5 -30.5q0 -20 -22 -79t-65 -159l93 -254l4 -14
t2 -12q0 -15 -7.5 -17.5t-21.5 -2.5h-96q-20 0 -28 12t-16 38l-50 177h-17v-181q0 -28 -5 -37.5t-30 -9.5q-9 0 -18 1t-20 1q-15 0 -26 -1t-18 -1q-20 0 -24 11.5t-4 38.5v590v0z" />
    <glyph glyph-name="l" unicode="l" horiz-adv-x="229" 
d="M38 639q0 9 -0.5 19.5t-0.5 23.5q0 31 11.5 39.5t42.5 8.5q2 0 7 -0.5t13 -0.5q7 0 19 0.5t29 0.5t24 -7t7 -25v-652q0 -28 -5.5 -37.5t-30.5 -9.5q-9 0 -20 1t-23 1q-15 0 -25.5 -1t-18.5 -1q-21 0 -25 13.5t-4 43.5v583v0z" />
    <glyph glyph-name="m" unicode="m" horiz-adv-x="678" 
d="M195 533q20 26 43 37.5t53 11.5q38 0 65.5 -15t50.5 -48q25 33 51 48.5t61 15.5q66 0 93.5 -48.5t27.5 -146.5v-308q0 -42 -7.5 -61t-41.5 -19h-38q-21 0 -33.5 2.5t-18.5 8.5t-8 17t-2 28v262q0 52 -5 79t-31 27q-41 0 -41 -68v-276q0 -42 -7.5 -61t-41.5 -19h-38
q-21 0 -33.5 2.5t-18.5 8.5t-8 17t-2 28v262q0 52 -5 79t-31 27q-43 0 -43 -74v-216q0 -24 2.5 -46.5t2.5 -43.5q0 -16 -3 -24.5t-9 -13t-15.5 -5.5t-23.5 -1h-67q-23 0 -30 11t-7 43v403q0 9 -1 24t-1 35q0 19 2 30.5t8.5 18t19 9t33.5 2.5h57q22 0 29 -6.5t7 -28.5v-7
l5 -1v0z" />
    <glyph glyph-name="n" unicode="n" horiz-adv-x="451" 
d="M327 0q-21 0 -33.5 2.5t-18.5 8.5t-8 17t-2 28v262q0 52 -5 79t-31 27q-43 0 -43 -74v-216q0 -24 2.5 -46.5t2.5 -43.5q0 -16 -3 -24.5t-9 -13t-15.5 -5.5t-23.5 -1h-67q-23 0 -30 11t-7 43v403q0 9 -1 24t-1 35q0 19 2 30.5t8.5 18t19 9t33.5 2.5h57q22 0 29 -6.5
t7 -28.5v-7l5 -1q38 50 98 50q66 0 93.5 -48.5t27.5 -146.5v-308q0 -42 -7.5 -61t-41.5 -19h-38v0z" />
    <glyph glyph-name="o" unicode="o" horiz-adv-x="414" 
d="M28 290q0 81 5 135.5t28 86.5q27 40 62.5 55.5t86.5 15.5t85 -16t54 -49t28.5 -83t8.5 -118q0 -86 -3 -143.5t-19 -89.5q-24 -49 -63 -71t-98 -22q-53 0 -86.5 18t-53.5 55t-27.5 93.5t-7.5 132.5zM172 192q0 -46 33 -46q21 0 29.5 12t8.5 39v166q0 34 -6.5 49.5
t-32.5 15.5q-32 0 -32 -48v-188z" />
    <glyph glyph-name="p" unicode="p" horiz-adv-x="421" 
d="M38 515q0 3 -0.5 9t-0.5 14q0 21 8 28.5t36 7.5h60q21 0 28 -6.5t9 -29.5q21 22 41 31.5t46 9.5q71 0 99.5 -73t28.5 -222q0 -146 -31.5 -217.5t-103.5 -71.5q-45 0 -74 26v-58q0 -30 -6 -40.5t-36 -10.5h-63q-15 0 -23.5 1t-12.5 5.5t-4.5 14t-0.5 26.5v556zM178 222
q0 -39 5.5 -57.5t31.5 -18.5q23 0 28.5 16t5.5 50v142q0 39 -6 57.5t-29 18.5q-36 0 -36 -59v-149z" />
    <glyph glyph-name="q" unicode="q" horiz-adv-x="419" 
d="M237 21q-31 -26 -73 -26q-72 0 -103.5 71.5t-31.5 217.5q0 148 28.5 221.5t99.5 73.5q26 0 46 -10t41 -31q2 23 8.5 29.5t28.5 6.5h60q26 0 35.5 -8t9.5 -30q0 -15 -1 -31t-1 -32v-514q0 -17 -1 -26.5t-4.5 -14t-12 -5.5t-23.5 -1h-63q-16 0 -24.5 2.5t-12.5 8.5t-5 15.5
t-1 24.5v58zM173 213q0 -34 6 -49.5t29 -15.5q24 0 30 18.5t6 56.5v148q0 58 -36 58q-23 0 -29 -18.5t-6 -56.5v-141z" />
    <glyph glyph-name="r" unicode="r" horiz-adv-x="287" 
d="M72 0q-23 0 -30 10.5t-7 42.5v404q0 9 -1 23.5t-1 34.5q0 19 2 30.5t8.5 18t18.5 9t33 2.5h49q12 0 18.5 -2.5t9.5 -9t3.5 -18t0.5 -29.5l7 -1q11 35 25.5 53t27.5 18q19 0 25 -14t6 -43v-107q0 -14 -1 -22t-4 -11.5t-8 -5t-14 -2.5q-29 -5 -40.5 -19t-11.5 -46v-183
q0 -25 2 -46t2 -38q0 -33 -7.5 -41t-32.5 -8h-80v0z" />
    <glyph glyph-name="s" unicode="s" horiz-adv-x="333" 
d="M22 102v15q0 21 4.5 32.5t21.5 11.5q9 0 23.5 -5.5t36.5 -5.5q23 0 34.5 8t11.5 28q0 24 -18 39.5t-41 36.5q-37 35 -54.5 72.5t-17.5 83.5q0 38 12 69t33.5 52.5t50.5 33t64 11.5q29 0 49 -1t32.5 -6t18 -15t5.5 -28l1 -58q0 -42 -32 -42q-8 0 -18 2.5t-22 2.5
q-17 0 -26.5 -9.5t-9.5 -23.5q0 -17 19.5 -36.5t48.5 -51.5q32 -35 47 -70.5t15 -77.5q0 -85 -46 -132.5t-133 -47.5q-108 0 -108 40v7z" />
    <glyph glyph-name="t" unicode="t" horiz-adv-x="285" 
d="M53 401q-16 0 -25.5 2.5t-14.5 9t-6.5 18t-1.5 28.5q0 24 1 40.5t6 26t15.5 14t28.5 4.5h3v84q0 19 1 31t6 18.5t14.5 8.5t26.5 2h16q8 0 22 0.5t34 0.5q23 0 28 -12t5 -38v-94h7q28 0 37 -8.5t9 -33.5v-59q0 -15 -1.5 -23.5t-6.5 -13t-16 -6t-29 -1.5v-217q0 -23 18 -23
q20 0 25.5 -5.5t5.5 -33.5v-78q0 -26 -9.5 -35t-32.5 -9h-40q-35 0 -58.5 3t-37.5 16q-17 17 -20.5 47t-3.5 77v259h-6z" />
    <glyph glyph-name="u" unicode="u" horiz-adv-x="451" 
d="M119 574q21 0 33 -2t18.5 -8t8.5 -17t2 -28v-263q0 -52 5 -79t31 -27q43 0 43 74v216q0 23 -2.5 45.5t-2.5 44.5q0 31 11.5 37.5t39.5 6.5h67q23 0 30 -10.5t7 -42.5v-404q0 -10 1 -24.5t1 -34.5q0 -19 -2 -30.5t-8.5 -18t-19 -9t-33.5 -2.5h-57q-22 0 -29 6.5t-7 28.5v7
l-5 1q-37 -49 -98 -49q-66 0 -93.5 48.5t-27.5 145.5v308q0 21 1 36t6 25t15 14.5t27 4.5h38v0z" />
    <glyph glyph-name="v" unicode="v" horiz-adv-x="389" 
d="M116 574q28 0 33 -12.5t7 -40.5l32 -347h10l35 357q1 15 4.5 23.5t10.5 13t17.5 5.5t26.5 1h62q31 0 31 -28q0 -2 -17 -98t-55 -286q-12 -60 -18.5 -98t-14.5 -52q-5 -9 -16 -10.5t-29 -1.5h-92q-14 0 -22 1t-13 6t-8.5 15t-6.5 28q-44 235 -68.5 360t-24.5 143
q0 9 9.5 15t28.5 6h78z" />
    <glyph glyph-name="w" unicode="w" horiz-adv-x="569" 
d="M342 0q-21 0 -27 10t-9 37l-17 152h-15l-26 -175q-2 -17 -13 -20.5t-32 -3.5h-73q-17 0 -25 1.5t-12.5 7.5t-7 18.5t-6.5 33.5q-1 2 -11.5 73.5t-30.5 213.5q-27 196 -27 199q0 9 4.5 14.5t15.5 8t29.5 3t46.5 0.5h18q15 0 20 -8t8 -31l39 -321h17l26 129l-22 188
q-1 5 -1 13q0 31 35 31h66q14 0 21.5 -2.5t10.5 -9t3.5 -17t1.5 -26.5l17 -306h19l34 306q2 17 2.5 27.5t3.5 16.5t9.5 8.5t20.5 2.5h72q19 0 26.5 -5t7.5 -16q0 -2 -18 -132.5t-64 -382.5q-2 -14 -4 -21.5t-5.5 -11t-9.5 -4.5t-16 -1h-102v0z" />
    <glyph glyph-name="x" unicode="x" horiz-adv-x="417" 
d="M248 549q4 18 13.5 21.5t23.5 3.5h90q14 0 20.5 -4.5t6.5 -17.5q0 -9 -4 -20t-10 -25l-81 -196l87 -245q8 -24 8 -38q0 -29 -27 -29q-2 0 -4.5 0.5t-5.5 0.5h-76q-20 0 -31 9t-16 36l-27 138h-12l-30 -148q-5 -25 -18.5 -30t-39.5 -5h-84q-23 0 -23 22q0 9 3 18t8 20
l105 247l-101 217q-6 13 -6 29q0 14 9 17.5t29 3.5h93q28 0 32 -17l29 -140h10z" />
    <glyph glyph-name="y" unicode="y" horiz-adv-x="384" 
d="M22 37q0 37 24 37q11 0 17 -4.5t11 -4.5q20 0 20 15q0 11 -3 26l-83 417q-2 8 -3 14t-1 8q0 14 9.5 21.5t25.5 7.5h86q19 0 23 -9t6 -32l33 -357h18l28 370q2 17 9 22.5t26 5.5h73q40 0 40 -31q0 -10 -4 -26l-100 -471q-16 -73 -49.5 -105t-99.5 -32q-54 0 -80 9.5
t-26 32.5v86v0z" />
    <glyph glyph-name="z" unicode="z" horiz-adv-x="319" 
d="M67 256q26 69 45.5 109.5t19.5 57.5q0 10 -9 10q-2 0 -4 -0.5t-3 -0.5l-57 -1h-6q-24 0 -28.5 8t-4.5 32v10q0 20 -1 32t-1 14q0 31 12.5 40t44.5 9q21 0 51 -2t68 -2q35 0 55.5 2t25.5 2q17 0 21 -12.5t4 -36.5v-24q0 -41 -10 -61.5t-15 -34.5l-81 -215q-6 -17 -6 -23
q0 -8 11.5 -10t36.5 -2q17 0 28.5 2.5t19.5 2.5q15 0 19 -18.5t4 -57.5v-27q0 -31 -4 -45t-23 -14q-7 0 -28.5 2t-56.5 2q-66 0 -104.5 -3.5t-49.5 -3.5t-17.5 2.5t-9.5 10.5t-3.5 23t-0.5 40q0 32 4.5 43t6.5 16z" />
    <glyph glyph-name="braceleft" unicode="{" 
d="M431 619q-6 0 -12 0.5t-11 0.5q-27 0 -43.5 -5t-25.5 -16.5t-12 -30.5t-3 -46v-117q0 -33 -4 -57.5t-15.5 -41.5t-31 -28.5t-50.5 -18.5q31 -7 50.5 -18t31 -28.5t15.5 -41.5t4 -57v-118q0 -27 3 -46t12 -30t25.5 -16t43.5 -5q5 0 11 0.5t12 0.5v-102q-10 0 -19 -0.5
t-18 -0.5q-45 0 -78.5 5t-58.5 19q-35 20 -43 54.5t-8 87.5v123q0 66 -24.5 94.5t-84.5 28.5q-5 0 -10 -0.5t-10 -0.5v102q5 0 10 -0.5t10 -0.5q60 0 84.5 29t24.5 95v122q0 53 8 88t43 55q25 14 58.5 19t78.5 5q9 0 18 -0.5t19 -0.5v-102z" />
    <glyph glyph-name="bar" unicode="|" 
d="M301 764v-1000h-101v1000h101z" />
    <glyph glyph-name="braceright" unicode="}" 
d="M103 721q47 0 81.5 -5t59.5 -19q34 -20 42.5 -54.5t8.5 -87.5v-123q0 -66 24.5 -94.5t84.5 -28.5q5 0 10 0.5t10 0.5v-102h-18q-62 0 -86.5 -27.5t-24.5 -94.5v-123q0 -53 -8 -88t-43 -54q-25 -14 -58.5 -19t-78.5 -5q-9 0 -18 0.5t-19 0.5v102q6 0 12 -0.5t11 -0.5
q27 0 43.5 5t25.5 16t12 30t3 46v117q0 33 4 57.5t15 41.5t30.5 28.5t51.5 18.5q-31 7 -50.5 18.5t-31 28.5t-15.5 41.5t-4 57.5v118q0 27 -3 46t-12 30t-25.5 16t-43.5 5q-5 0 -11 -0.5t-12 -0.5v102h33z" />
    <glyph glyph-name="asciitilde" unicode="~" horiz-adv-x="833" 
d="M747 284q-49 -33 -94 -50t-91 -17q-45 0 -90 15q-52 17 -99 33t-98 16q-45 0 -90 -19.5t-98 -57.5v108q104 70 189 70q44 0 78 -9t66 -20q36 -12 71 -24t73 -12q45 0 88.5 19t94.5 56v-108z" />
    <glyph glyph-name="exclamdown" unicode="&#xa1;" horiz-adv-x="252" 
d="M46 690q0 18 8.5 24.5t28.5 6.5h89q19 0 26.5 -7.5t7.5 -28.5v-111q0 -19 -8.5 -25t-28.5 -6h-89q-19 0 -26.5 7t-7.5 28v112zM214 43q1 -8 1 -13v-7q0 -17 -9.5 -23.5t-32.5 -6.5h-94q-25 0 -33 7t-8 25v8.5t1 9.5l27 419q1 25 8 31t27 6h51q12 0 18.5 -1t9.5 -5
t4 -11.5t2 -19.5z" />
    <glyph glyph-name="cent" unicode="&#xa2;" horiz-adv-x="447" 
d="M210 640q0 8 2 10t11 2h53q9 0 12 -3.5t3 -12.5v-58q32 0 43.5 -6t11.5 -29v-82q0 -25 -11 -33t-36 -8h-15q-20 0 -31 -6t-16.5 -21t-6.5 -40t-1 -62q0 -35 1.5 -58t6.5 -37t16 -20t30 -6q7 0 15.5 1t18.5 1q17 0 23 -8t6 -28v-104q0 -36 -40 -36h-7t-8 1v-57
q0 -9 -3 -12.5t-12 -3.5h-53q-9 0 -11 2t-2 10v64q-74 10 -104 78t-30 200q0 70 6 122.5t21.5 89t41.5 57.5t65 28v65z" />
    <glyph glyph-name="sterling" unicode="&#xa3;" horiz-adv-x="447" 
d="M37 285q-11 0 -11 9v80q0 10 10 10h35q-29 85 -29 150q0 47 13 84t37 63t58 40t76 14q100 0 142.5 -57t42.5 -178v-7q0 -29 -4.5 -43t-29.5 -14h-78q-23 0 -27 11.5t-4 36.5v19q0 37 -4.5 55.5t-26.5 18.5q-19 0 -25.5 -21t-6.5 -63q0 -43 25 -109h113q16 0 16 -16v-68
q0 -15 -13 -15h-104q1 -11 1.5 -20t0.5 -17q0 -43 -19 -81h145q28 0 37 -8t9 -42v-83q0 -20 -11 -27t-34 -7h-319q-17 0 -17 21v73q0 14 6 21t15 16q18 18 24.5 36.5t6.5 51.5v32.5t-2 33.5h-48v0z" />
    <glyph glyph-name="currency" unicode="&#xa4;" horiz-adv-x="412" 
d="M375 93q0 -40 -5.5 -70t-32.5 -53q-31 -26 -72 -39.5t-86 -13.5q-44 0 -68 3t-36 12t-14.5 27t-2.5 48q0 26 8.5 39.5t22.5 13.5q6 0 13.5 -3.5t17 -7.5t21.5 -7.5t26 -3.5q36 0 51.5 14t15.5 47v10.5t-1 11.5q-35 -29 -76 -29q-60 0 -95 61.5t-35 178.5q0 251 137 251
q20 0 36 -9t34 -28v9q0 23 17 23q3 0 13 -0.5t27 -0.5q23 0 37 0.5t19 0.5q20 0 24 -10t4 -42v-433zM147 720q6 0 9 -4t5 -11q6 -17 17 -24t31 -7q22 0 28.5 8.5t15.5 27.5q2 4 6.5 7t8.5 3h51q10 0 10 -18q0 -42 -31.5 -67.5t-91.5 -25.5t-91.5 26.5t-31.5 64.5q0 20 14 20
h50zM202 433q-24 0 -31 -23.5t-7 -74.5q0 -55 7.5 -80t33.5 -25q23 0 28 18t5 56q0 22 -1 43t-1 41q0 45 -34 45z" />
    <glyph glyph-name="yen" unicode="&#xa5;" horiz-adv-x="447" 
d="M142 232q0 20 -1 36t-7 30h-74q-14 0 -20 2.5t-6 13.5v68q0 10 6 13t20 3h45l-92 261q-8 24 -8 37q0 16 9.5 22t30.5 6q8 0 21.5 -0.5t30.5 -0.5q20 0 32.5 0.5t20.5 0.5q32 0 36 -34l34 -271h11l32 247q3 19 6 30t8.5 17t14 8t21.5 2q9 0 19.5 -0.5t24.5 -0.5
q11 0 20.5 1t19.5 1q44 0 44 -24q0 -2 -2 -12.5t-7 -27.5l-87 -262h41q14 0 20 -3t6 -13v-68q0 -11 -6.5 -13.5t-19.5 -2.5h-69q-9 -24 -12 -44t-3 -40v-16l4 -121q1 -16 1.5 -26.5t0.5 -16.5q0 -34 -36 -34h-99q-17 0 -24.5 4.5t-7.5 24.5q0 3 0.5 12.5t0.5 26.5v164z" />
    <glyph glyph-name="section" unicode="&#xa7;" 
d="M100 44q0 8 8.5 14.5t23.5 6.5q12 0 29.5 -11t43.5 -11q20 0 31 9t11 22t-8 22.5t-22 18.5t-33.5 19.5t-41.5 26.5q-23 16 -40.5 31.5t-29 32.5t-17.5 37.5t-6 46.5q0 52 21.5 89t62.5 55q-25 27 -37.5 55t-12.5 60q0 76 52.5 119.5t153.5 43.5q67 0 91.5 -10.5
t24.5 -41.5v-2l-1 -79q0 -16 -9 -25.5t-20 -9.5q-7 0 -15 6t-17.5 12.5t-22.5 12.5t-29 6q-20 0 -33 -10.5t-13 -26.5q0 -23 26 -41t70 -49q26 -18 46 -33.5t34 -32t21.5 -37t7.5 -47.5q0 -42 -23 -77.5t-68 -58.5q53 -35 53 -115q0 -72 -49 -114.5t-140 -42.5
q-65 0 -94 6.5t-29 29.5v93zM193 326q0 -10 6.5 -20.5t16.5 -19.5t22.5 -15t24.5 -6q15 0 26 12t11 26q0 9 -6.5 20t-17 20t-23 15.5t-24.5 6.5q-14 0 -25 -11.5t-11 -27.5z" />
    <glyph glyph-name="dieresis" unicode="&#xa8;" 
d="M223 633q0 -11 -6 -14t-20 -3h-61q-12 0 -18 3.5t-6 15.5v62q0 11 6 14.5t20 3.5h61q13 0 18.5 -4t5.5 -16v-62zM388 633q0 -11 -6 -14t-20 -3h-62q-12 0 -17.5 3.5t-5.5 15.5v62q0 11 6 14.5t20 3.5h61q13 0 18.5 -4t5.5 -16v-62z" />
    <glyph glyph-name="copyright" unicode="&#xa9;" horiz-adv-x="833" 
d="M416 722q75 0 140.5 -27t118.5 -80q51 -51 78 -117t27 -140q0 -75 -27 -139t-78 -115q-54 -53 -120.5 -81t-138.5 -28t-137 27.5t-118 80.5q-52 52 -79.5 117.5t-27.5 137.5t27 138t80 120q51 52 115.5 79t139.5 27zM417 662q-63 0 -117 -22t-97 -66q-44 -45 -66.5 -100
t-22.5 -115q0 -61 22.5 -115.5t66.5 -98.5t99 -66.5t115 -22.5t115.5 22.5t100.5 67.5q43 42 65 96t22 117q0 62 -22.5 116.5t-65.5 97.5q-89 89 -215 89zM500 438q-4 35 -26 53.5t-58 18.5q-43 0 -69 -38.5t-26 -112.5q0 -72 25.5 -109.5t73.5 -37.5q35 0 56.5 20.5
t26.5 58.5h94q-2 -34 -15.5 -61.5t-37 -47t-56 -30.5t-71.5 -11q-91 0 -143.5 57t-52.5 158q0 51 14 91.5t40 69t62.5 44t80.5 15.5q37 0 68.5 -10t54 -28t36 -43.5t15.5 -56.5h-92z" />
    <glyph glyph-name="ordfeminine" unicode="&#xaa;" horiz-adv-x="310" 
d="M173 344q-14 -32 -57 -32t-71 38t-28 104q0 71 30 109.5t75 38.5q16 0 27.5 -4.5t19.5 -4.5q10 0 10 13q0 16 -12 25t-33 9q-24 0 -40.5 -6.5t-26.5 -6.5q-11 0 -14.5 6t-3.5 17v35q0 9 1.5 15.5t10.5 10.5q11 5 37 10t60 5q36 0 60.5 -5.5t39 -18t20.5 -32.5t6 -48v-281
q0 -17 -6 -20t-27 -3h-52q-15 0 -17.5 3.5t-3.5 22.5h-5zM122 438q0 -35 27 -35q17 0 22 9.5t5 30.5v42q0 19 -5 27.5t-19 8.5q-30 0 -30 -38v-45z" />
    <glyph glyph-name="guillemotleft" unicode="&#xab;" horiz-adv-x="440" 
d="M198 377q0 -7 -3 -14t-5 -9l-51 -54q-6 -6 -6 -10q0 -5 4 -9l49 -54q13 -15 13 -28v-123q0 -10 -10 -10q-5 0 -10 5l-134 133q-4 4 -6.5 10t-2.5 11v125q0 7 2.5 12.5t5.5 8.5l137 137q4 4 8 4t6.5 -3t2.5 -6v-126zM400 377q0 -7 -3 -14t-5 -9l-51 -54q-6 -6 -6 -10
q0 -5 4 -9l49 -54q13 -15 13 -28v-123q0 -10 -10 -10q-5 0 -10 5l-134 133q-4 4 -6.5 10t-2.5 11v125q0 7 2.5 12.5t5.5 8.5l137 137q4 4 8 4t6.5 -3t2.5 -6v-126z" />
    <glyph glyph-name="logicalnot" unicode="&#xac;" horiz-adv-x="833" 
d="M709 422v-245h-97v149h-488v96h585z" />
    <glyph glyph-name="registered" unicode="&#xae;" horiz-adv-x="833" 
d="M416 722q75 0 141.5 -27.5t119.5 -81.5q51 -51 77 -116.5t26 -138.5q0 -75 -27.5 -140.5t-79.5 -116.5q-54 -52 -120 -79t-137 -27q-73 0 -139 28t-119 82q-51 52 -77.5 117t-26.5 136q0 99 53 189q49 83 129.5 129t179.5 46zM417 662q-125 0 -211 -86
q-45 -45 -68.5 -101t-23.5 -116t22 -114.5t65 -97.5q44 -45 99.5 -68.5t115.5 -23.5t115 23t100 66q43 42 66 96t23 113q0 130 -86 218q-89 91 -217 91zM424 567q172 0 172 -116q0 -40 -23 -68t-65 -39l90 -180h-109l-77 165h-48v-165h-98v403h158zM364 388h48
q42 0 62.5 13.5t20.5 43.5q0 32 -21.5 46t-66.5 14h-43v-117z" />
    <glyph glyph-name="macron" unicode="&#xaf;" 
d="M355 706q12 0 18 -3t6 -13v-49q0 -9 -6.5 -11.5t-19.5 -2.5h-207q-12 0 -17.5 2.5t-5.5 13.5v49q0 9 6 11.5t20 2.5h206v0z" />
    <glyph glyph-name="degree" unicode="&#xb0;" horiz-adv-x="329" 
d="M165 715q31 0 58 -12t47 -32t31.5 -47t11.5 -58q0 -30 -11.5 -57t-32 -47.5t-47.5 -32t-58 -11.5t-57.5 11.5t-46.5 31.5t-31.5 47t-11.5 58t11.5 58t31.5 47.5t47 32t58 11.5zM165 652q-18 0 -33.5 -6.5t-27 -18t-18.5 -27t-7 -33.5q0 -36 25 -61t61 -25q18 0 33.5 7
t27 19t18 27.5t6.5 32.5q0 35 -25 60t-60 25z" />
    <glyph glyph-name="plusminus" unicode="&#xb1;" horiz-adv-x="833" 
d="M466 597v-159h243v-97h-243v-159h-99v159h-243v97h243v159h99zM709 96v-97h-585v97h585z" />
    <glyph glyph-name="acute" unicode="&#xb4;" 
d="M184 611q-10 0 -10 9q0 1 2 5l48 84q2 4 9.5 7.5t18.5 3.5h114q11 0 11 -8q0 -4 -4 -7l-92 -86q-4 -3 -10.5 -5.5t-15.5 -2.5h-71v0z" />
    <glyph glyph-name="mu" unicode="&#xb5;" horiz-adv-x="610" 
d="M241 533l-37 -212q-9 -50 -12 -83t-3 -48q0 -90 83 -90q26 0 45 11t33.5 33.5t24.5 56.5t18 81l44 251h141l-94 -533h-131l9 57q-20 -38 -45 -55.5t-60 -17.5q-64 0 -104 59l-44 -257h-140l131 747h141z" />
    <glyph glyph-name="paragraph" unicode="&#xb6;" 
d="M480 668h-55v-668h-74v668h-78v-668h-74v383q-42 1 -75 14.5t-56 35.5t-35.5 52.5t-12.5 66.5q0 37 13 68.5t38 54t60.5 35t79.5 12.5h269v-54z" />
    <glyph glyph-name="periodcentered" unicode="&#xb7;" horiz-adv-x="222" 
d="M111 438q32 0 54.5 -22.5t22.5 -54.5t-22.5 -54.5t-54.5 -22.5t-55 22.5t-23 54.5t23 54.5t55 22.5z" />
    <glyph glyph-name="cedilla" unicode="&#xb8;" 
d="M278 0q-1 -5 -1 -8.5v-6.5q0 -8 3 -11.5t9.5 -5t17.5 -2t27 -1.5q29 -3 46.5 -22t17.5 -46q0 -42 -36 -59.5t-110 -17.5q-34 0 -57.5 1.5t-37.5 6.5t-20.5 14.5t-6.5 24.5q0 19 16 19q12 0 39 -7t70 -7q37 0 37 22q0 24 -33 24h-6q-17 0 -25 3t-8 20l1 59h57v0z" />
    <glyph glyph-name="ordmasculine" unicode="&#xba;" horiz-adv-x="311" 
d="M21 521q0 57 4 94.5t21 60.5q20 28 47 39t65 11t63.5 -11t40.5 -34t21.5 -58t6.5 -83q0 -60 -2.5 -100t-14.5 -63q-18 -35 -47 -50t-74 -15q-39 0 -64.5 12.5t-40.5 38.5t-20.5 65.5t-5.5 92.5zM129 452q0 -32 25 -32q16 0 22 8.5t6 27.5v116q0 24 -4.5 35t-24.5 11
q-24 0 -24 -34v-132z" />
    <glyph glyph-name="guillemotright" unicode="&#xbb;" horiz-adv-x="440" 
d="M41 503q0 9 9 9q4 0 8 -4l137 -137q3 -3 5.5 -8.5t2.5 -12.5v-125q0 -5 -2.5 -11t-6.5 -10l-135 -133q-5 -5 -9 -5q-10 0 -10 10v123q0 13 13 28l49 54q4 4 4 9q0 4 -6 10l-51 54q-2 2 -5 9t-3 14v126zM239 503q0 9 9 9q4 0 8 -4l137 -137q3 -3 5.5 -8.5t2.5 -12.5v-125
q0 -5 -2.5 -11t-6.5 -10l-134 -133q-5 -5 -10 -5q-10 0 -10 10v123q0 13 13 28l49 54q4 4 4 9q0 4 -6 10l-51 54q-2 2 -5 9t-3 14v126z" />
    <glyph glyph-name="questiondown" unicode="&#xbf;" horiz-adv-x="324" 
d="M79 690q0 18 8.5 24.5t28.5 6.5h89q19 0 26 -7.5t7 -28.5v-111q0 -19 -8.5 -25t-28.5 -6h-89q-19 0 -26 7t-7 28v112zM201 499q17 0 24 -24t7 -74q0 -33 -4.5 -62.5t-9.5 -54t-9.5 -44.5t-4.5 -35q0 -20 8 -30t22 -10q7 0 13.5 2.5t13.5 2.5q18 0 25.5 -25t7.5 -80
q0 -42 -25.5 -59.5t-84.5 -17.5q-74 0 -114 38.5t-40 110.5q0 46 16.5 87t36.5 88q22 53 22 94q0 18 -2 33t-2 26q0 22 9.5 28t29.5 6h61z" />
    <glyph glyph-name="Agrave" unicode="&#xc0;" horiz-adv-x="437" 
d="M37 244q4 17 4.5 37t4.5 41q28 144 41.5 222t15.5 92q8 46 15 65t29 19h123q14 0 23.5 -2t15.5 -10q8 -11 21 -76t39 -185q9 -42 17.5 -105.5t24.5 -149.5q9 -49 20 -87t11 -67q0 -17 -12.5 -27.5t-33.5 -10.5h-88q-10 0 -19 7t-11 16q-5 18 -5 36t-4 33q-5 19 -14 26.5
t-29 7.5q-28 0 -42.5 -8.5t-14.5 -22.5q0 -10 0.5 -18.5t0.5 -16.5q0 -33 -9 -46.5t-38 -13.5h-92q-21 0 -29.5 7t-8.5 22q0 14 4 31.5t9 38.5zM186 339q-2 -8 -2.5 -14t-1.5 -11t-1 -9q0 -9 10 -15t29 -6q21 0 28.5 7t7.5 21q0 5 -0.5 10.5t-1.5 11.5l-32 209l-8 -1z
M94 854q-4 3 -4 7q0 8 11 8h114q11 0 18.5 -3.5t9.5 -7.5l48 -84q2 -4 2 -5q0 -9 -10 -9h-71q-17 0 -25 8z" />
    <glyph glyph-name="Aacute" unicode="&#xc1;" horiz-adv-x="437" 
d="M37 244q4 17 4.5 37t4.5 41q28 144 41.5 222t15.5 92q8 46 15 65t29 19h123q14 0 23.5 -2t15.5 -10q8 -11 21 -76t39 -185q9 -42 17.5 -105.5t24.5 -149.5q9 -49 20 -87t11 -67q0 -17 -12.5 -27.5t-33.5 -10.5h-88q-10 0 -19 7t-11 16q-5 18 -5 36t-4 33q-5 19 -14 26.5
t-29 7.5q-28 0 -42.5 -8.5t-14.5 -22.5q0 -10 0.5 -18.5t0.5 -16.5q0 -33 -9 -46.5t-38 -13.5h-92q-21 0 -29.5 7t-8.5 22q0 14 4 31.5t9 38.5zM186 339q-2 -8 -2.5 -14t-1.5 -11t-1 -9q0 -9 10 -15t29 -6q21 0 28.5 7t7.5 21q0 5 -0.5 10.5t-1.5 11.5l-32 209l-8 -1z
M152 760q-10 0 -10 9q0 1 2 5l48 84q2 4 9.5 7.5t18.5 3.5h114q11 0 11 -8q0 -4 -4 -7l-92 -86q-4 -3 -10.5 -5.5t-15.5 -2.5h-71z" />
    <glyph glyph-name="Acircumflex" unicode="&#xc2;" horiz-adv-x="437" 
d="M37 244q4 17 4.5 37t4.5 41q28 144 41.5 222t15.5 92q8 46 15 65t29 19h123q14 0 23.5 -2t15.5 -10q8 -11 21 -76t39 -185q9 -42 17.5 -105.5t24.5 -149.5q9 -49 20 -87t11 -67q0 -17 -12.5 -27.5t-33.5 -10.5h-88q-10 0 -19 7t-11 16q-5 18 -5 36t-4 33q-5 19 -14 26.5
t-29 7.5q-28 0 -42.5 -8.5t-14.5 -22.5q0 -10 0.5 -18.5t0.5 -16.5q0 -33 -9 -46.5t-38 -13.5h-92q-21 0 -29.5 7t-8.5 22q0 14 4 31.5t9 38.5zM186 339q-2 -8 -2.5 -14t-1.5 -11t-1 -9q0 -9 10 -15t29 -6q21 0 28.5 7t7.5 21q0 5 -0.5 10.5t-1.5 11.5l-32 209l-8 -1z
M157 858q8 11 25 11h73q16 0 25 -11l68 -84q2 -2 2 -5q0 -9 -9 -9h-66q-8 0 -14.5 2.5t-9.5 5.5l-26 28q-4 4 -7 4t-7 -4l-28 -28q-3 -3 -9.5 -5.5t-14.5 -2.5h-66q-9 0 -9 9q0 3 2 5z" />
    <glyph glyph-name="Atilde" unicode="&#xc3;" horiz-adv-x="437" 
d="M37 244q4 17 4.5 37t4.5 41q28 144 41.5 222t15.5 92q8 46 15 65t29 19h123q14 0 23.5 -2t15.5 -10q8 -11 21 -76t39 -185q9 -42 17.5 -105.5t24.5 -149.5q9 -49 20 -87t11 -67q0 -17 -12.5 -27.5t-33.5 -10.5h-88q-10 0 -19 7t-11 16q-5 18 -5 36t-4 33q-5 19 -14 26.5
t-29 7.5q-28 0 -42.5 -8.5t-14.5 -22.5q0 -10 0.5 -18.5t0.5 -16.5q0 -33 -9 -46.5t-38 -13.5h-92q-21 0 -29.5 7t-8.5 22q0 14 4 31.5t9 38.5zM186 339q-2 -8 -2.5 -14t-1.5 -11t-1 -9q0 -9 10 -15t29 -6q21 0 28.5 7t7.5 21q0 5 -0.5 10.5t-1.5 11.5l-32 209l-8 -1z
M352 864q13 0 13 -18q0 -32 -25 -56.5t-67 -24.5q-18 0 -33.5 5t-29 10.5t-25.5 10.5t-22 5q-13 0 -18.5 -5t-8 -11.5t-5 -11.5t-9.5 -5h-42q-9 0 -9 11q0 42 25 66t67 24q18 0 33.5 -5t29 -10.5t25 -10.5t22.5 -5q13 0 18 5t7.5 10.5t4.5 10.5t9 5h40z" />
    <glyph glyph-name="Adieresis" unicode="&#xc4;" horiz-adv-x="437" 
d="M37 244q4 17 4.5 37t4.5 41q28 144 41.5 222t15.5 92q8 46 15 65t29 19h123q14 0 23.5 -2t15.5 -10q8 -11 21 -76t39 -185q9 -42 17.5 -105.5t24.5 -149.5q9 -49 20 -87t11 -67q0 -17 -12.5 -27.5t-33.5 -10.5h-88q-10 0 -19 7t-11 16q-5 18 -5 36t-4 33q-5 19 -14 26.5
t-29 7.5q-28 0 -42.5 -8.5t-14.5 -22.5q0 -10 0.5 -18.5t0.5 -16.5q0 -33 -9 -46.5t-38 -13.5h-92q-21 0 -29.5 7t-8.5 22q0 14 4 31.5t9 38.5zM186 339q-2 -8 -2.5 -14t-1.5 -11t-1 -9q0 -9 10 -15t29 -6q21 0 28.5 7t7.5 21q0 5 -0.5 10.5t-1.5 11.5l-32 209l-8 -1z
M191 782q0 -11 -6 -14t-20 -3h-61q-12 0 -18 3.5t-6 15.5v62q0 11 6 14.5t20 3.5h61q13 0 18.5 -4t5.5 -16v-62zM356 782q0 -11 -6 -14t-20 -3h-62q-12 0 -17.5 3.5t-5.5 15.5v62q0 11 6 14.5t20 3.5h61q13 0 18.5 -4t5.5 -16v-62z" />
    <glyph glyph-name="Aring" unicode="&#xc5;" horiz-adv-x="437" 
d="M186 339q-2 -8 -2.5 -14t-1.5 -11t-1 -9q0 -9 10 -15t29 -6q21 0 28.5 7t7.5 21q0 5 -0.5 10.5t-1.5 11.5l-32 209l-8 -1zM37 244q4 17 4.5 37t4.5 41q28 144 41.5 222t15.5 92q8 46 15 65t29 19h123q14 0 23.5 -2t15.5 -10q8 -11 21 -76t39 -185q9 -42 17.5 -105.5
t24.5 -149.5q9 -49 20 -87t11 -67q0 -17 -12.5 -27.5t-33.5 -10.5h-88q-10 0 -19 7t-11 16q-5 18 -5 36t-4 33q-5 19 -14 26.5t-29 7.5q-28 0 -42.5 -8.5t-14.5 -22.5q0 -10 0.5 -18.5t0.5 -16.5q0 -33 -9 -46.5t-38 -13.5h-92q-21 0 -29.5 7t-8.5 22q0 14 4 31.5t9 38.5z
M111 858q0 22 8 41t22.5 33t33.5 22.5t41 8.5q21 0 40 -8.5t33.5 -22.5t22.5 -33t8 -41q0 -44 -30 -74t-74 -30q-45 0 -75 30t-30 74zM175 858q0 -17 12 -28t29 -11t28 11.5t11 27.5q0 17 -11 28.5t-28 11.5t-29 -11.5t-12 -28.5z" />
    <glyph glyph-name="AE" unicode="&#xc6;" horiz-adv-x="581" 
d="M124 665q3 14 4 24t5 16.5t12 9.5t23 3h330q28 0 39 -7.5t11 -36.5v-58q0 -59 -45 -59q-16 0 -49 2.5t-85 2.5q-8 0 -10 -1.5t-2 -5.5v-6l14 -90h134q36 0 36 -26v-92q0 -42 -48 -42q-5 0 -9.5 0.5t-8.5 0.5h-77l22 -126l104 -2q34 0 34 -50v-84q0 -22 -15 -30.5
t-46 -8.5q-29 0 -58 2t-59 2q-26 0 -44 -1.5t-29 -1.5q-21 0 -28 8t-8 28q-1 34 -1 57t-3.5 36.5t-13 19t-28.5 5.5q-32 0 -40.5 -9t-11.5 -36t-3 -47t-3 -33.5t-12 -20t-28 -6.5q-7 0 -18 0.5t-25 0.5q-21 0 -35 -1t-21 -1q-28 0 -28 34q0 14 5 29.5t9 33.5zM190 350
q-3 -20 -3 -32q0 -40 35 -40q17 0 26 9.5t9 26.5v9t-2 19l-23 209h-9z" />
    <glyph glyph-name="Ccedilla" unicode="&#xc7;" horiz-adv-x="354" 
d="M21 371q0 96 11.5 163t40 108t78 59.5t125.5 18.5q32 0 44 -10.5t12 -42.5q0 -7 -0.5 -18t-0.5 -25q0 -8 1 -17t1 -20q0 -16 -4 -25.5t-16 -16.5q-5 -2 -11.5 -2.5t-14.5 -0.5t-17 -0.5t-18 -3.5q-19 -6 -30 -19t-16.5 -34.5t-7 -52.5t-1.5 -74q0 -48 2 -83.5t8.5 -59
t20 -35.5t37.5 -12q12 0 22 1t18 1q29 0 29 -41q0 -36 1 -55t1 -23q0 -32 -16 -43t-54 -11h-14.5t-12.5 1v-8q0 -8 3 -11.5t9.5 -5t17.5 -2t27 -1.5q29 -3 46.5 -22t17.5 -46q0 -42 -36 -59.5t-110 -17.5q-34 0 -57.5 1.5t-37.5 6.5t-20.5 14.5t-6.5 24.5q0 19 16 19
q12 0 39 -7t70 -7q37 0 37 22q0 24 -33 24h-6q-17 0 -25 3t-8 20l1 57q-32 7 -57.5 24t-48.5 49q-35 50 -45.5 122.5t-10.5 172.5z" />
    <glyph glyph-name="Egrave" unicode="&#xc8;" horiz-adv-x="375" 
d="M33 646q0 4 -0.5 10t-0.5 15q0 18 4.5 27.5t13.5 14.5t23 6t34 1h156q3 0 7.5 -0.5t9.5 -0.5q2 0 6.5 0.5t12.5 0.5q31 0 42 -11t11 -41q0 -26 0.5 -41t0.5 -20q0 -30 -11 -39.5t-38 -9.5q-8 0 -17 0.5t-20 0.5h-46q-17 0 -23 -8.5t-6 -31.5v-13q0 -28 5 -39t30 -11
q13 0 30 1.5t38 1.5q36 0 44 -15t8 -52v-29q0 -67 -41 -67q-14 0 -33.5 2t-47.5 2q-22 0 -26 -8t-4 -26l-1 -59q0 -23 5.5 -30t28.5 -7q38 0 60 0.5t28 0.5q31 0 37.5 -16.5t6.5 -59.5q0 -27 -1 -45t-6 -29t-15.5 -16t-30.5 -5q-31 0 -72 2t-93 2q-16 0 -33.5 -2t-37.5 -2
q-22 0 -34 11t-12 31q0 24 3.5 53.5t3.5 65.5zM63 854q-4 3 -4 7q0 8 11 8h114q11 0 18.5 -3.5t9.5 -7.5l48 -84q2 -4 2 -5q0 -9 -10 -9h-71q-17 0 -25 8z" />
    <glyph glyph-name="Eacute" unicode="&#xc9;" horiz-adv-x="375" 
d="M33 646q0 4 -0.5 10t-0.5 15q0 18 4.5 27.5t13.5 14.5t23 6t34 1h156q3 0 7.5 -0.5t9.5 -0.5q2 0 6.5 0.5t12.5 0.5q31 0 42 -11t11 -41q0 -26 0.5 -41t0.5 -20q0 -30 -11 -39.5t-38 -9.5q-8 0 -17 0.5t-20 0.5h-46q-17 0 -23 -8.5t-6 -31.5v-13q0 -28 5 -39t30 -11
q13 0 30 1.5t38 1.5q36 0 44 -15t8 -52v-29q0 -67 -41 -67q-14 0 -33.5 2t-47.5 2q-22 0 -26 -8t-4 -26l-1 -59q0 -23 5.5 -30t28.5 -7q38 0 60 0.5t28 0.5q31 0 37.5 -16.5t6.5 -59.5q0 -27 -1 -45t-6 -29t-15.5 -16t-30.5 -5q-31 0 -72 2t-93 2q-16 0 -33.5 -2t-37.5 -2
q-22 0 -34 11t-12 31q0 24 3.5 53.5t3.5 65.5zM121 760q-10 0 -10 9q0 1 2 5l48 84q2 4 9.5 7.5t18.5 3.5h114q11 0 11 -8q0 -4 -4 -7l-92 -86q-4 -3 -10.5 -5.5t-15.5 -2.5h-71z" />
    <glyph glyph-name="Ecircumflex" unicode="&#xca;" horiz-adv-x="375" 
d="M33 646q0 4 -0.5 10t-0.5 15q0 18 4.5 27.5t13.5 14.5t23 6t34 1h156q3 0 7.5 -0.5t9.5 -0.5q2 0 6.5 0.5t12.5 0.5q31 0 42 -11t11 -41q0 -26 0.5 -41t0.5 -20q0 -30 -11 -39.5t-38 -9.5q-8 0 -17 0.5t-20 0.5h-46q-17 0 -23 -8.5t-6 -31.5v-13q0 -28 5 -39t30 -11
q13 0 30 1.5t38 1.5q36 0 44 -15t8 -52v-29q0 -67 -41 -67q-14 0 -33.5 2t-47.5 2q-22 0 -26 -8t-4 -26l-1 -59q0 -23 5.5 -30t28.5 -7q38 0 60 0.5t28 0.5q31 0 37.5 -16.5t6.5 -59.5q0 -27 -1 -45t-6 -29t-15.5 -16t-30.5 -5q-31 0 -72 2t-93 2q-16 0 -33.5 -2t-37.5 -2
q-22 0 -34 11t-12 31q0 24 3.5 53.5t3.5 65.5zM126 858q8 11 25 11h73q16 0 25 -11l68 -84q2 -2 2 -5q0 -9 -9 -9h-66q-8 0 -14.5 2.5t-9.5 5.5l-26 28q-4 4 -7 4t-7 -4l-28 -28q-3 -3 -9.5 -5.5t-14.5 -2.5h-66q-9 0 -9 9q0 3 2 5z" />
    <glyph glyph-name="Edieresis" unicode="&#xcb;" horiz-adv-x="375" 
d="M33 646q0 4 -0.5 10t-0.5 15q0 18 4.5 27.5t13.5 14.5t23 6t34 1h156q3 0 7.5 -0.5t9.5 -0.5q2 0 6.5 0.5t12.5 0.5q31 0 42 -11t11 -41q0 -26 0.5 -41t0.5 -20q0 -30 -11 -39.5t-38 -9.5q-8 0 -17 0.5t-20 0.5h-46q-17 0 -23 -8.5t-6 -31.5v-13q0 -28 5 -39t30 -11
q13 0 30 1.5t38 1.5q36 0 44 -15t8 -52v-29q0 -67 -41 -67q-14 0 -33.5 2t-47.5 2q-22 0 -26 -8t-4 -26l-1 -59q0 -23 5.5 -30t28.5 -7q38 0 60 0.5t28 0.5q31 0 37.5 -16.5t6.5 -59.5q0 -27 -1 -45t-6 -29t-15.5 -16t-30.5 -5q-31 0 -72 2t-93 2q-16 0 -33.5 -2t-37.5 -2
q-22 0 -34 11t-12 31q0 24 3.5 53.5t3.5 65.5zM325 782q0 -11 -6 -14t-20 -3h-62q-12 0 -17.5 3.5t-5.5 15.5v62q0 11 6 14.5t20 3.5h61q13 0 18.5 -4t5.5 -16v-62zM160 782q0 -11 -6 -14t-20 -3h-61q-12 0 -18 3.5t-6 15.5v62q0 11 6 14.5t20 3.5h61q13 0 18.5 -4t5.5 -16
v-62z" />
    <glyph glyph-name="Igrave" unicode="&#xcc;" horiz-adv-x="227" 
d="M136 720q18 0 29.5 -1.5t19.5 -8.5q7 -7 8.5 -23t1.5 -43v-60q0 -144 -1.5 -247.5t-1.5 -167.5q0 -23 1 -50.5t1 -59.5q0 -21 -3 -32.5t-10.5 -17.5t-20 -7.5t-30.5 -1.5h-35q-23 0 -35.5 2t-19.5 9t-8.5 20t-1.5 35q0 26 2 151.5t2 351.5q0 48 -1 74.5t-1 31.5
q0 16 2.5 25t9.5 13.5t18 5.5t28 1h46zM-11 854q-4 3 -4 7q0 8 11 8h114q11 0 18.5 -3.5t9.5 -7.5l48 -84q2 -4 2 -5q0 -9 -10 -9h-71q-17 0 -25 8z" />
    <glyph glyph-name="Iacute" unicode="&#xcd;" horiz-adv-x="227" 
d="M136 720q18 0 29.5 -1.5t19.5 -8.5q7 -7 8.5 -23t1.5 -43v-60q0 -144 -1.5 -247.5t-1.5 -167.5q0 -23 1 -50.5t1 -59.5q0 -21 -3 -32.5t-10.5 -17.5t-20 -7.5t-30.5 -1.5h-35q-23 0 -35.5 2t-19.5 9t-8.5 20t-1.5 35q0 26 2 151.5t2 351.5q0 48 -1 74.5t-1 31.5
q0 16 2.5 25t9.5 13.5t18 5.5t28 1h46zM47 760q-10 0 -10 9q0 1 2 5l48 84q2 4 9.5 7.5t18.5 3.5h114q11 0 11 -8q0 -4 -4 -7l-92 -86q-4 -3 -10.5 -5.5t-15.5 -2.5h-71z" />
    <glyph glyph-name="Icircumflex" unicode="&#xce;" horiz-adv-x="227" 
d="M136 720q18 0 29.5 -1.5t19.5 -8.5q7 -7 8.5 -23t1.5 -43v-60q0 -144 -1.5 -247.5t-1.5 -167.5q0 -23 1 -50.5t1 -59.5q0 -21 -3 -32.5t-10.5 -17.5t-20 -7.5t-30.5 -1.5h-35q-23 0 -35.5 2t-19.5 9t-8.5 20t-1.5 35q0 26 2 151.5t2 351.5q0 48 -1 74.5t-1 31.5
q0 16 2.5 25t9.5 13.5t18 5.5t28 1h46zM52 858q8 11 25 11h73q16 0 25 -11l68 -84q2 -2 2 -5q0 -9 -9 -9h-66q-8 0 -14.5 2.5t-9.5 5.5l-26 28q-4 4 -7 4t-7 -4l-28 -28q-3 -3 -9.5 -5.5t-14.5 -2.5h-66q-9 0 -9 9q0 3 2 5z" />
    <glyph glyph-name="Idieresis" unicode="&#xcf;" horiz-adv-x="227" 
d="M136 720q18 0 29.5 -1.5t19.5 -8.5q7 -7 8.5 -23t1.5 -43v-60q0 -144 -1.5 -247.5t-1.5 -167.5q0 -23 1 -50.5t1 -59.5q0 -21 -3 -32.5t-10.5 -17.5t-20 -7.5t-30.5 -1.5h-35q-23 0 -35.5 2t-19.5 9t-8.5 20t-1.5 35q0 26 2 151.5t2 351.5q0 48 -1 74.5t-1 31.5
q0 16 2.5 25t9.5 13.5t18 5.5t28 1h46zM251 782q0 -11 -6 -14t-20 -3h-62q-12 0 -17.5 3.5t-5.5 15.5v62q0 11 6 14.5t20 3.5h61q13 0 18.5 -4t5.5 -16v-62zM86 782q0 -11 -6 -14t-20 -3h-61q-12 0 -18 3.5t-6 15.5v62q0 11 6 14.5t20 3.5h61q13 0 18.5 -4t5.5 -16v-62z" />
    <glyph glyph-name="Ntilde" unicode="&#xd1;" 
d="M31 646q0 37 7 55.5t40 18.5h91q18 0 25.5 -4.5t12.5 -21.5q5 -18 26 -96.5t66 -217.5h20l2 280q0 32 6 46t32 14h62q28 0 37.5 -7.5t9.5 -33.5q0 -4 -0.5 -9t-0.5 -13v-283q0 -22 -1.5 -47t-1.5 -54q0 -10 1 -57t1 -132q0 -41 -6 -62.5t-38 -21.5h-81q-15 0 -24 1.5
t-15 8t-10.5 18.5t-10.5 33l-81 279h-20v-279q0 -17 -1.5 -29t-6 -19t-14.5 -10t-26 -3h-51q-19 0 -29 3.5t-14.5 11t-5.5 20.5t-1 33v578zM384 864q13 0 13 -18q0 -32 -25 -56.5t-67 -24.5q-18 0 -33.5 5t-29 10.5t-25.5 10.5t-22 5q-13 0 -18.5 -5t-8 -11.5t-5 -11.5
t-9.5 -5h-42q-9 0 -9 11q0 42 25 66t67 24q18 0 33.5 -5t29 -10.5t25 -10.5t22.5 -5q13 0 18 5t7.5 10.5t4.5 10.5t9 5h40z" />
    <glyph glyph-name="Ograve" unicode="&#xd2;" horiz-adv-x="505" 
d="M25 354q0 43 0.5 82t4.5 73.5t12 65t22 57.5q26 49 76.5 75t125.5 26q113 0 163 -68t50 -214v-32q0 -109 -3.5 -185t-23.5 -125q-23 -57 -77.5 -89t-135.5 -32q-63 0 -104 21.5t-65.5 66.5t-34.5 114t-10 164zM203 257q0 -51 8.5 -73.5t35.5 -22.5q20 0 31 9t16 28
t6 48.5t1 70.5v169q0 37 -13 57t-35 20q-30 0 -40 -26.5t-10 -80.5v-199zM128 854q-4 3 -4 7q0 8 11 8h114q11 0 18.5 -3.5t9.5 -7.5l48 -84q2 -4 2 -5q0 -9 -10 -9h-71q-17 0 -25 8z" />
    <glyph glyph-name="Oacute" unicode="&#xd3;" horiz-adv-x="505" 
d="M25 354q0 43 0.5 82t4.5 73.5t12 65t22 57.5q26 49 76.5 75t125.5 26q113 0 163 -68t50 -214v-32q0 -109 -3.5 -185t-23.5 -125q-23 -57 -77.5 -89t-135.5 -32q-63 0 -104 21.5t-65.5 66.5t-34.5 114t-10 164zM203 257q0 -51 8.5 -73.5t35.5 -22.5q20 0 31 9t16 28
t6 48.5t1 70.5v169q0 37 -13 57t-35 20q-30 0 -40 -26.5t-10 -80.5v-199zM186 760q-10 0 -10 9q0 1 2 5l48 84q2 4 9.5 7.5t18.5 3.5h114q11 0 11 -8q0 -4 -4 -7l-92 -86q-4 -3 -10.5 -5.5t-15.5 -2.5h-71z" />
    <glyph glyph-name="Ocircumflex" unicode="&#xd4;" horiz-adv-x="505" 
d="M25 354q0 43 0.5 82t4.5 73.5t12 65t22 57.5q26 49 76.5 75t125.5 26q113 0 163 -68t50 -214v-32q0 -109 -3.5 -185t-23.5 -125q-23 -57 -77.5 -89t-135.5 -32q-63 0 -104 21.5t-65.5 66.5t-34.5 114t-10 164zM203 257q0 -51 8.5 -73.5t35.5 -22.5q20 0 31 9t16 28
t6 48.5t1 70.5v169q0 37 -13 57t-35 20q-30 0 -40 -26.5t-10 -80.5v-199zM191 858q8 11 25 11h73q16 0 25 -11l68 -84q2 -2 2 -5q0 -9 -9 -9h-66q-8 0 -14.5 2.5t-9.5 5.5l-26 28q-4 4 -7 4t-7 -4l-28 -28q-3 -3 -9.5 -5.5t-14.5 -2.5h-66q-9 0 -9 9q0 3 2 5z" />
    <glyph glyph-name="Otilde" unicode="&#xd5;" horiz-adv-x="505" 
d="M25 354q0 43 0.5 82t4.5 73.5t12 65t22 57.5q26 49 76.5 75t125.5 26q113 0 163 -68t50 -214v-32q0 -109 -3.5 -185t-23.5 -125q-23 -57 -77.5 -89t-135.5 -32q-63 0 -104 21.5t-65.5 66.5t-34.5 114t-10 164zM203 257q0 -51 8.5 -73.5t35.5 -22.5q20 0 31 9t16 28
t6 48.5t1 70.5v169q0 37 -13 57t-35 20q-30 0 -40 -26.5t-10 -80.5v-199zM386 864q13 0 13 -18q0 -32 -25 -56.5t-67 -24.5q-18 0 -33.5 5t-29 10.5t-25.5 10.5t-22 5q-13 0 -18.5 -5t-8 -11.5t-5 -11.5t-9.5 -5h-42q-9 0 -9 11q0 42 25 66t67 24q18 0 33.5 -5t29 -10.5
t25 -10.5t22.5 -5q13 0 18 5t7.5 10.5t4.5 10.5t9 5h40z" />
    <glyph glyph-name="Odieresis" unicode="&#xd6;" horiz-adv-x="505" 
d="M25 354q0 43 0.5 82t4.5 73.5t12 65t22 57.5q26 49 76.5 75t125.5 26q113 0 163 -68t50 -214v-32q0 -109 -3.5 -185t-23.5 -125q-23 -57 -77.5 -89t-135.5 -32q-63 0 -104 21.5t-65.5 66.5t-34.5 114t-10 164zM203 257q0 -51 8.5 -73.5t35.5 -22.5q20 0 31 9t16 28
t6 48.5t1 70.5v169q0 37 -13 57t-35 20q-30 0 -40 -26.5t-10 -80.5v-199zM390 782q0 -11 -6 -14t-20 -3h-62q-12 0 -17.5 3.5t-5.5 15.5v62q0 11 6 14.5t20 3.5h61q13 0 18.5 -4t5.5 -16v-62zM225 782q0 -11 -6 -14t-20 -3h-61q-12 0 -18 3.5t-6 15.5v62q0 11 6 14.5t20 3.5
h61q13 0 18.5 -4t5.5 -16v-62z" />
    <glyph glyph-name="Oslash" unicode="&#xd8;" horiz-adv-x="505" 
d="M82 49q-23 29 -35 63.5t-18 75t-7 87.5t-1 101v14q0 90 11.5 155t39.5 106.5t75 61.5t119 20q57 0 96 -16l26 64q6 13 15 13q2 0 6 -2l39 -16q11 -5 11 -12q0 -1 -2 -7l-33 -82q28 -29 44 -84t16 -140v-56q0 -98 -4 -168.5t-23 -117.5q-23 -57 -80 -89.5t-139 -32.5
q-29 0 -52.5 3.5t-43.5 13.5l-35 -79q-5 -11 -13 -11q-1 0 -7 2l-39 17q-9 4 -9 15q0 4 1 6zM203 260q0 -49 8.5 -71t35.5 -22q20 0 31 9.5t16 29.5t6 50.5t1 73.5v153q0 35 -13 54.5t-35 19.5q-30 0 -40 -25t-10 -78v-194z" />
    <glyph glyph-name="Ugrave" unicode="&#xd9;" horiz-adv-x="493" 
d="M28 649q0 36 5.5 53.5t32.5 17.5h82q31 0 37 -13t6 -42v-439q0 -69 53 -69q54 0 54 55v451q0 33 10 45t38 12h78q20 0 28 -13t8 -39v-436q0 -127 -55 -185.5t-176 -58.5q-115 0 -164 69q-26 35 -31.5 85t-5.5 121v386zM122 854q-4 3 -4 7q0 8 11 8h114q11 0 18.5 -3.5
t9.5 -7.5l48 -84q2 -4 2 -5q0 -9 -10 -9h-71q-17 0 -25 8z" />
    <glyph glyph-name="Uacute" unicode="&#xda;" horiz-adv-x="493" 
d="M28 649q0 36 5.5 53.5t32.5 17.5h82q31 0 37 -13t6 -42v-439q0 -69 53 -69q54 0 54 55v451q0 33 10 45t38 12h78q20 0 28 -13t8 -39v-436q0 -127 -55 -185.5t-176 -58.5q-115 0 -164 69q-26 35 -31.5 85t-5.5 121v386zM180 760q-10 0 -10 9q0 1 2 5l48 84q2 4 9.5 7.5
t18.5 3.5h114q11 0 11 -8q0 -4 -4 -7l-92 -86q-4 -3 -10.5 -5.5t-15.5 -2.5h-71z" />
    <glyph glyph-name="Ucircumflex" unicode="&#xdb;" horiz-adv-x="493" 
d="M28 649q0 36 5.5 53.5t32.5 17.5h82q31 0 37 -13t6 -42v-439q0 -69 53 -69q54 0 54 55v451q0 33 10 45t38 12h78q20 0 28 -13t8 -39v-436q0 -127 -55 -185.5t-176 -58.5q-115 0 -164 69q-26 35 -31.5 85t-5.5 121v386zM185 858q8 11 25 11h73q16 0 25 -11l68 -84
q2 -2 2 -5q0 -9 -9 -9h-66q-8 0 -14.5 2.5t-9.5 5.5l-26 28q-4 4 -7 4t-7 -4l-28 -28q-3 -3 -9.5 -5.5t-14.5 -2.5h-66q-9 0 -9 9q0 3 2 5z" />
    <glyph glyph-name="Udieresis" unicode="&#xdc;" horiz-adv-x="493" 
d="M28 649q0 36 5.5 53.5t32.5 17.5h82q31 0 37 -13t6 -42v-439q0 -69 53 -69q54 0 54 55v451q0 33 10 45t38 12h78q20 0 28 -13t8 -39v-436q0 -127 -55 -185.5t-176 -58.5q-115 0 -164 69q-26 35 -31.5 85t-5.5 121v386zM384 782q0 -11 -6 -14t-20 -3h-62q-12 0 -17.5 3.5
t-5.5 15.5v62q0 11 6 14.5t20 3.5h61q13 0 18.5 -4t5.5 -16v-62zM219 782q0 -11 -6 -14t-20 -3h-61q-12 0 -18 3.5t-6 15.5v62q0 11 6 14.5t20 3.5h61q13 0 18.5 -4t5.5 -16v-62z" />
    <glyph glyph-name="germandbls" unicode="&#xdf;" horiz-adv-x="458" 
d="M31 537q0 39 5 71t31 64q52 61 162 61q83 0 130 -43t47 -110q0 -26 -6.5 -46t-14.5 -35.5t-14.5 -27t-6.5 -19.5q0 -11 10 -30.5t24 -50.5q19 -43 30 -86.5t11 -94.5q0 -91 -38 -141.5t-101 -50.5q-26 0 -42 3t-24.5 9.5t-11.5 18.5t-3 30v88q0 17 2.5 23t15.5 8
q15 2 22.5 7.5t7.5 25.5q0 17 -8.5 42t-20.5 60q-14 40 -20 69t-6 46q0 18 5 35.5t10.5 34l10.5 31.5t5 28q0 31 -29 31q-16 0 -22 -10t-6 -31v-508q0 -22 -8.5 -30t-42.5 -8h-79q-25 0 -25 47v489z" />
    <glyph glyph-name="agrave" unicode="&#xe0;" horiz-adv-x="413" 
d="M230 37q-17 -46 -76 -46q-29 0 -53 14t-41 40.5t-27 64.5t-10 85q0 50 10.5 89t29.5 66t44 41.5t55 14.5q21 0 36.5 -6.5t26.5 -6.5q14 0 14 19q0 22 -16 35t-45 13q-32 0 -54 -9t-35 -9q-14 0 -19 8t-5 25v50q0 13 2 22t14 14q15 7 50 14.5t80 7.5q48 0 80.5 -8
t51.5 -26t27 -46t8 -68v-383q0 -6 0.5 -10.5t0.5 -8.5q0 -24 -8.5 -28.5t-36.5 -4.5h-69q-10 0 -15.5 0.5t-8 4.5t-3.5 11t-1 21h-7zM83 705q-4 3 -4 7q0 8 11 8h114q11 0 18.5 -3.5t9.5 -7.5l48 -84q2 -4 2 -5q0 -9 -10 -9h-71q-17 0 -25 8zM163 172q0 -50 36 -50
q22 0 29 13t7 44v60q0 26 -7 38.5t-26 12.5q-39 0 -39 -54v-64z" />
    <glyph glyph-name="aacute" unicode="&#xe1;" horiz-adv-x="413" 
d="M230 37q-17 -46 -76 -46q-29 0 -53 14t-41 40.5t-27 64.5t-10 85q0 50 10.5 89t29.5 66t44 41.5t55 14.5q21 0 36.5 -6.5t26.5 -6.5q14 0 14 19q0 22 -16 35t-45 13q-32 0 -54 -9t-35 -9q-14 0 -19 8t-5 25v50q0 13 2 22t14 14q15 7 50 14.5t80 7.5q48 0 80.5 -8
t51.5 -26t27 -46t8 -68v-383q0 -6 0.5 -10.5t0.5 -8.5q0 -24 -8.5 -28.5t-36.5 -4.5h-69q-10 0 -15.5 0.5t-8 4.5t-3.5 11t-1 21h-7zM141 611q-10 0 -10 9q0 1 2 5l48 84q2 4 9.5 7.5t18.5 3.5h114q11 0 11 -8q0 -4 -4 -7l-92 -86q-4 -3 -10.5 -5.5t-15.5 -2.5h-71zM163 172
q0 -50 36 -50q22 0 29 13t7 44v60q0 26 -7 38.5t-26 12.5q-39 0 -39 -54v-64z" />
    <glyph glyph-name="acircumflex" unicode="&#xe2;" horiz-adv-x="413" 
d="M230 37q-17 -46 -76 -46q-29 0 -53 14t-41 40.5t-27 64.5t-10 85q0 50 10.5 89t29.5 66t44 41.5t55 14.5q21 0 36.5 -6.5t26.5 -6.5q14 0 14 19q0 22 -16 35t-45 13q-32 0 -54 -9t-35 -9q-14 0 -19 8t-5 25v50q0 13 2 22t14 14q15 7 50 14.5t80 7.5q48 0 80.5 -8
t51.5 -26t27 -46t8 -68v-383q0 -6 0.5 -10.5t0.5 -8.5q0 -24 -8.5 -28.5t-36.5 -4.5h-69q-10 0 -15.5 0.5t-8 4.5t-3.5 11t-1 21h-7zM146 709q8 11 25 11h73q16 0 25 -11l68 -84q2 -2 2 -5q0 -9 -9 -9h-66q-8 0 -14.5 2.5t-9.5 5.5l-26 28q-4 4 -7 4t-7 -4l-28 -28
q-3 -3 -9.5 -5.5t-14.5 -2.5h-66q-9 0 -9 9q0 3 2 5zM163 172q0 -50 36 -50q22 0 29 13t7 44v60q0 26 -7 38.5t-26 12.5q-39 0 -39 -54v-64z" />
    <glyph glyph-name="atilde" unicode="&#xe3;" horiz-adv-x="413" 
d="M230 37q-17 -46 -76 -46q-29 0 -53 14t-41 40.5t-27 64.5t-10 85q0 50 10.5 89t29.5 66t44 41.5t55 14.5q21 0 36.5 -6.5t26.5 -6.5q14 0 14 19q0 22 -16 35t-45 13q-32 0 -54 -9t-35 -9q-14 0 -19 8t-5 25v50q0 13 2 22t14 14q15 7 50 14.5t80 7.5q48 0 80.5 -8
t51.5 -26t27 -46t8 -68v-383q0 -6 0.5 -10.5t0.5 -8.5q0 -24 -8.5 -28.5t-36.5 -4.5h-69q-10 0 -15.5 0.5t-8 4.5t-3.5 11t-1 21h-7zM341 715q13 0 13 -18q0 -32 -25 -56.5t-67 -24.5q-18 0 -33.5 5t-29 10.5t-25.5 10.5t-22 5q-13 0 -18.5 -5t-8 -11.5t-5 -11.5t-9.5 -5
h-42q-9 0 -9 11q0 42 25 66t67 24q18 0 33.5 -5t29 -10.5t25 -10.5t22.5 -5q13 0 18 5t7.5 10.5t4.5 10.5t9 5h40zM163 172q0 -50 36 -50q22 0 29 13t7 44v60q0 26 -7 38.5t-26 12.5q-39 0 -39 -54v-64z" />
    <glyph glyph-name="adieresis" unicode="&#xe4;" horiz-adv-x="413" 
d="M230 37q-17 -46 -76 -46q-29 0 -53 14t-41 40.5t-27 64.5t-10 85q0 50 10.5 89t29.5 66t44 41.5t55 14.5q21 0 36.5 -6.5t26.5 -6.5q14 0 14 19q0 22 -16 35t-45 13q-32 0 -54 -9t-35 -9q-14 0 -19 8t-5 25v50q0 13 2 22t14 14q15 7 50 14.5t80 7.5q48 0 80.5 -8
t51.5 -26t27 -46t8 -68v-383q0 -6 0.5 -10.5t0.5 -8.5q0 -24 -8.5 -28.5t-36.5 -4.5h-69q-10 0 -15.5 0.5t-8 4.5t-3.5 11t-1 21h-7zM163 172q0 -50 36 -50q22 0 29 13t7 44v60q0 26 -7 38.5t-26 12.5q-39 0 -39 -54v-64zM345 633q0 -11 -6 -14t-20 -3h-62q-12 0 -17.5 3.5
t-5.5 15.5v62q0 11 6 14.5t20 3.5h61q13 0 18.5 -4t5.5 -16v-62zM180 633q0 -11 -6 -14t-20 -3h-61q-12 0 -18 3.5t-6 15.5v62q0 11 6 14.5t20 3.5h61q13 0 18.5 -4t5.5 -16v-62z" />
    <glyph glyph-name="aring" unicode="&#xe5;" horiz-adv-x="413" 
d="M230 37q-17 -46 -76 -46q-29 0 -53 14t-41 40.5t-27 64.5t-10 85q0 50 10.5 89t29.5 66t44 41.5t55 14.5q21 0 36.5 -6.5t26.5 -6.5q14 0 14 19q0 22 -16 35t-45 13q-32 0 -54 -9t-35 -9q-14 0 -19 8t-5 25v50q0 13 2 22t14 14q15 7 50 14.5t80 7.5q48 0 80.5 -8
t51.5 -26t27 -46t8 -68v-383q0 -6 0.5 -10.5t0.5 -8.5q0 -24 -8.5 -28.5t-36.5 -4.5h-69q-10 0 -15.5 0.5t-8 4.5t-3.5 11t-1 21h-7zM109 716q0 22 8 41t22.5 33t33.5 22t41 8q21 0 40 -8t33.5 -22t22.5 -33t8 -41t-8 -41t-22 -33.5t-33 -22.5t-41 -8t-41 8t-33.5 22.5
t-22.5 33.5t-8 41zM163 172q0 -50 36 -50q22 0 29 13t7 44v60q0 26 -7 38.5t-26 12.5q-39 0 -39 -54v-64zM173 716q0 -17 11.5 -28.5t28.5 -11.5t28.5 11.5t11.5 27.5q0 17 -11.5 28.5t-28.5 11.5t-28.5 -11t-11.5 -28z" />
    <glyph glyph-name="ae" unicode="&#xe6;" horiz-adv-x="618" 
d="M234 39q-21 -48 -80 -48q-29 0 -53 14t-41 40.5t-27 64.5t-10 85q0 50 10.5 89t29.5 66t44 41.5t55 14.5q21 0 36.5 -6.5t26.5 -6.5q14 0 14 19q0 22 -16 35t-45 13q-32 0 -54 -9t-35 -9q-14 0 -19 8t-5 25v50q0 13 2 22t14 14q16 8 50.5 15t79.5 7q32 0 60.5 -6
t54.5 -22q43 27 87 27q102 0 152 -87q17 -31 21 -77t4 -109q0 -40 -6 -60t-31 -20h-162q-5 0 -10.5 -4t-5.5 -9q0 -38 21 -55.5t68 -17.5q16 0 28.5 4t22 9t17.5 9t14 4q35 0 35 -37v-77q0 -29 -29 -45t-78 -16q-67 0 -89 45h-10q1 -5 1 -13q0 -20 -10.5 -23t-36.5 -3h-58
q-10 0 -15.5 0.5t-8.5 4.5t-3.5 11.5l-1.5 22.5h-8zM163 172q0 -50 36 -50q22 0 29 13t7 44v60q0 26 -7 38.5t-26 12.5q-39 0 -39 -54v-64zM427 346q17 0 20.5 7t3.5 25q0 37 -8.5 54.5t-34.5 17.5q-18 0 -25.5 -13.5t-7.5 -42.5q0 -26 3.5 -37t17.5 -11h31z" />
    <glyph glyph-name="ccedilla" unicode="&#xe7;" horiz-adv-x="285" 
d="M258 461q0 -29 -11 -33.5t-28 -6.5q-15 -2 -24 -10t-13 -23.5t-5 -39.5t-1 -57q0 -63 7 -91.5t36 -28.5h11q17 0 22.5 -7.5t5.5 -27.5v-104q0 -37 -44 -37q-8 0 -15 0.5t-14 0.5v-3q0 -8 3 -11.5t9.5 -5t17.5 -2t27 -1.5q29 -3 46.5 -22t17.5 -46q0 -42 -36 -59.5
t-110 -17.5q-34 0 -57.5 1.5t-37.5 6.5t-20.5 14.5t-6.5 24.5q0 19 16 19q12 0 39 -7t70 -7q37 0 37 22q0 24 -33 24h-6q-17 0 -25 3t-8 20l1 58q-59 22 -81.5 86.5t-22.5 183.5q0 83 8 141.5t29 95t58 53t94 16.5q25 0 34.5 -8.5t9.5 -31.5v-82z" />
    <glyph glyph-name="egrave" unicode="&#xe8;" horiz-adv-x="407" 
d="M375 55q0 -25 -10 -32q-14 -10 -49 -20.5t-77 -10.5q-118 0 -169 73t-51 228q0 148 43.5 218.5t144.5 70.5q102 0 152 -87q17 -31 20.5 -77t3.5 -109q0 -40 -6 -60t-31 -20h-161q-5 0 -10.5 -4t-5.5 -9q0 -38 20.5 -55.5t67.5 -17.5q16 0 28.5 4t22.5 9l18 9t14 4
q35 0 35 -37v-77zM220 346q17 0 21 7t4 25q0 37 -8.5 54.5t-34.5 17.5q-34 0 -34 -56q0 -26 3.5 -37t17.5 -11h31zM80 705q-4 3 -4 7q0 8 11 8h114q11 0 18.5 -3.5t9.5 -7.5l48 -84q2 -4 2 -5q0 -9 -10 -9h-71q-17 0 -25 8z" />
    <glyph glyph-name="eacute" unicode="&#xe9;" horiz-adv-x="407" 
d="M375 55q0 -25 -10 -32q-14 -10 -49 -20.5t-77 -10.5q-118 0 -169 73t-51 228q0 148 43.5 218.5t144.5 70.5q102 0 152 -87q17 -31 20.5 -77t3.5 -109q0 -40 -6 -60t-31 -20h-161q-5 0 -10.5 -4t-5.5 -9q0 -38 20.5 -55.5t67.5 -17.5q16 0 28.5 4t22.5 9l18 9t14 4
q35 0 35 -37v-77zM220 346q17 0 21 7t4 25q0 37 -8.5 54.5t-34.5 17.5q-34 0 -34 -56q0 -26 3.5 -37t17.5 -11h31zM138 611q-10 0 -10 9q0 1 2 5l48 84q2 4 9.5 7.5t18.5 3.5h114q11 0 11 -8q0 -4 -4 -7l-92 -86q-4 -3 -10.5 -5.5t-15.5 -2.5h-71z" />
    <glyph glyph-name="ecircumflex" unicode="&#xea;" horiz-adv-x="407" 
d="M375 55q0 -25 -10 -32q-14 -10 -49 -20.5t-77 -10.5q-118 0 -169 73t-51 228q0 148 43.5 218.5t144.5 70.5q102 0 152 -87q17 -31 20.5 -77t3.5 -109q0 -40 -6 -60t-31 -20h-161q-5 0 -10.5 -4t-5.5 -9q0 -38 20.5 -55.5t67.5 -17.5q16 0 28.5 4t22.5 9l18 9t14 4
q35 0 35 -37v-77zM220 346q17 0 21 7t4 25q0 37 -8.5 54.5t-34.5 17.5q-34 0 -34 -56q0 -26 3.5 -37t17.5 -11h31zM143 709q8 11 25 11h73q16 0 25 -11l68 -84q2 -2 2 -5q0 -9 -9 -9h-66q-8 0 -14.5 2.5t-9.5 5.5l-26 28q-4 4 -7 4t-7 -4l-28 -28q-3 -3 -9.5 -5.5
t-14.5 -2.5h-66q-9 0 -9 9q0 3 2 5z" />
    <glyph glyph-name="edieresis" unicode="&#xeb;" horiz-adv-x="407" 
d="M375 55q0 -25 -10 -32q-14 -10 -49 -20.5t-77 -10.5q-118 0 -169 73t-51 228q0 148 43.5 218.5t144.5 70.5q102 0 152 -87q17 -31 20.5 -77t3.5 -109q0 -40 -6 -60t-31 -20h-161q-5 0 -10.5 -4t-5.5 -9q0 -38 20.5 -55.5t67.5 -17.5q16 0 28.5 4t22.5 9l18 9t14 4
q35 0 35 -37v-77zM220 346q17 0 21 7t4 25q0 37 -8.5 54.5t-34.5 17.5q-34 0 -34 -56q0 -26 3.5 -37t17.5 -11h31zM177 633q0 -11 -6 -14t-20 -3h-61q-12 0 -18 3.5t-6 15.5v62q0 11 6 14.5t20 3.5h61q13 0 18.5 -4t5.5 -16v-62zM342 633q0 -11 -6 -14t-20 -3h-62
q-12 0 -17.5 3.5t-5.5 15.5v62q0 11 6 14.5t20 3.5h61q13 0 18.5 -4t5.5 -16v-62z" />
    <glyph glyph-name="igrave" unicode="&#xec;" horiz-adv-x="229" 
d="M34 480q0 10 -0.5 21t-0.5 24q0 30 12 37.5t42 7.5h19q10 0 20 0.5t21 0.5q24 0 34 -5.5t10 -24.5v-494q0 -29 -5.5 -38.5t-31.5 -9.5q-13 0 -24 1t-19 1q-19 0 -31 -1t-18 -1q-20 0 -24 10.5t-4 34.5v436zM-9 705q-4 3 -4 7q0 8 11 8h114q11 0 18.5 -3.5t9.5 -7.5
l48 -84q2 -4 2 -5q0 -9 -10 -9h-71q-17 0 -25 8z" />
    <glyph glyph-name="iacute" unicode="&#xed;" horiz-adv-x="229" 
d="M34 480q0 10 -0.5 21t-0.5 24q0 30 12 37.5t42 7.5h19q10 0 20 0.5t21 0.5q24 0 34 -5.5t10 -24.5v-494q0 -29 -5.5 -38.5t-31.5 -9.5q-13 0 -24 1t-19 1q-19 0 -31 -1t-18 -1q-20 0 -24 10.5t-4 34.5v436zM49 611q-10 0 -10 9q0 1 2 5l48 84q2 4 9.5 7.5t18.5 3.5h114
q11 0 11 -8q0 -4 -4 -7l-92 -86q-4 -3 -10.5 -5.5t-15.5 -2.5h-71z" />
    <glyph glyph-name="icircumflex" unicode="&#xee;" horiz-adv-x="229" 
d="M34 480q0 10 -0.5 21t-0.5 24q0 30 12 37.5t42 7.5h19q10 0 20 0.5t21 0.5q24 0 34 -5.5t10 -24.5v-494q0 -29 -5.5 -38.5t-31.5 -9.5q-13 0 -24 1t-19 1q-19 0 -31 -1t-18 -1q-20 0 -24 10.5t-4 34.5v436zM54 709q8 11 25 11h73q16 0 25 -11l68 -84q2 -2 2 -5
q0 -9 -9 -9h-66q-8 0 -14.5 2.5t-9.5 5.5l-26 28q-4 4 -7 4t-7 -4l-28 -28q-3 -3 -9.5 -5.5t-14.5 -2.5h-66q-9 0 -9 9q0 3 2 5z" />
    <glyph glyph-name="idieresis" unicode="&#xef;" horiz-adv-x="229" 
d="M34 480q0 10 -0.5 21t-0.5 24q0 30 12 37.5t42 7.5h19q10 0 20 0.5t21 0.5q24 0 34 -5.5t10 -24.5v-494q0 -29 -5.5 -38.5t-31.5 -9.5q-13 0 -24 1t-19 1q-19 0 -31 -1t-18 -1q-20 0 -24 10.5t-4 34.5v436zM253 633q0 -11 -6 -14t-20 -3h-62q-12 0 -17.5 3.5t-5.5 15.5
v62q0 11 6 14.5t20 3.5h61q13 0 18.5 -4t5.5 -16v-62zM88 633q0 -11 -6 -14t-20 -3h-61q-12 0 -18 3.5t-6 15.5v62q0 11 6 14.5t20 3.5h61q13 0 18.5 -4t5.5 -16v-62z" />
    <glyph glyph-name="ntilde" unicode="&#xf1;" horiz-adv-x="451" 
d="M327 0q-21 0 -33.5 2.5t-18.5 8.5t-8 17t-2 28v262q0 52 -5 79t-31 27q-43 0 -43 -74v-216q0 -24 2.5 -46.5t2.5 -43.5q0 -16 -3 -24.5t-9 -13t-15.5 -5.5t-23.5 -1h-67q-23 0 -30 11t-7 43v403q0 9 -1 24t-1 35q0 19 2 30.5t8.5 18t19 9t33.5 2.5h57q22 0 29 -6.5
t7 -28.5v-7l5 -1q38 50 98 50q66 0 93.5 -48.5t27.5 -146.5v-308q0 -42 -7.5 -61t-41.5 -19h-38zM360 715q13 0 13 -18q0 -32 -25 -56.5t-67 -24.5q-18 0 -33.5 5t-29 10.5t-25.5 10.5t-22 5q-13 0 -18.5 -5t-8 -11.5t-5 -11.5t-9.5 -5h-42q-9 0 -9 11q0 42 25 66t67 24
q18 0 33.5 -5t29 -10.5t25 -10.5t22.5 -5q13 0 18 5t7.5 10.5t4.5 10.5t9 5h40z" />
    <glyph glyph-name="ograve" unicode="&#xf2;" horiz-adv-x="414" 
d="M28 290q0 81 5 135.5t28 86.5q27 40 62.5 55.5t86.5 15.5t85 -16t54 -49t28.5 -83t8.5 -118q0 -86 -3 -143.5t-19 -89.5q-24 -49 -63 -71t-98 -22q-53 0 -86.5 18t-53.5 55t-27.5 93.5t-7.5 132.5zM172 192q0 -46 33 -46q21 0 29.5 12t8.5 39v166q0 34 -6.5 49.5
t-32.5 15.5q-32 0 -32 -48v-188zM83 705q-4 3 -4 7q0 8 11 8h114q11 0 18.5 -3.5t9.5 -7.5l48 -84q2 -4 2 -5q0 -9 -10 -9h-71q-17 0 -25 8z" />
    <glyph glyph-name="oacute" unicode="&#xf3;" horiz-adv-x="414" 
d="M28 290q0 81 5 135.5t28 86.5q27 40 62.5 55.5t86.5 15.5t85 -16t54 -49t28.5 -83t8.5 -118q0 -86 -3 -143.5t-19 -89.5q-24 -49 -63 -71t-98 -22q-53 0 -86.5 18t-53.5 55t-27.5 93.5t-7.5 132.5zM172 192q0 -46 33 -46q21 0 29.5 12t8.5 39v166q0 34 -6.5 49.5
t-32.5 15.5q-32 0 -32 -48v-188zM141 611q-10 0 -10 9q0 1 2 5l48 84q2 4 9.5 7.5t18.5 3.5h114q11 0 11 -8q0 -4 -4 -7l-92 -86q-4 -3 -10.5 -5.5t-15.5 -2.5h-71z" />
    <glyph glyph-name="ocircumflex" unicode="&#xf4;" horiz-adv-x="414" 
d="M28 290q0 81 5 135.5t28 86.5q27 40 62.5 55.5t86.5 15.5t85 -16t54 -49t28.5 -83t8.5 -118q0 -86 -3 -143.5t-19 -89.5q-24 -49 -63 -71t-98 -22q-53 0 -86.5 18t-53.5 55t-27.5 93.5t-7.5 132.5zM172 192q0 -46 33 -46q21 0 29.5 12t8.5 39v166q0 34 -6.5 49.5
t-32.5 15.5q-32 0 -32 -48v-188zM146 709q8 11 25 11h73q16 0 25 -11l68 -84q2 -2 2 -5q0 -9 -9 -9h-66q-8 0 -14.5 2.5t-9.5 5.5l-26 28q-4 4 -7 4t-7 -4l-28 -28q-3 -3 -9.5 -5.5t-14.5 -2.5h-66q-9 0 -9 9q0 3 2 5z" />
    <glyph glyph-name="otilde" unicode="&#xf5;" horiz-adv-x="414" 
d="M28 290q0 81 5 135.5t28 86.5q27 40 62.5 55.5t86.5 15.5t85 -16t54 -49t28.5 -83t8.5 -118q0 -86 -3 -143.5t-19 -89.5q-24 -49 -63 -71t-98 -22q-53 0 -86.5 18t-53.5 55t-27.5 93.5t-7.5 132.5zM172 192q0 -46 33 -46q21 0 29.5 12t8.5 39v166q0 34 -6.5 49.5
t-32.5 15.5q-32 0 -32 -48v-188zM341 715q13 0 13 -18q0 -32 -25 -56.5t-67 -24.5q-18 0 -33.5 5t-29 10.5t-25.5 10.5t-22 5q-13 0 -18.5 -5t-8 -11.5t-5 -11.5t-9.5 -5h-42q-9 0 -9 11q0 42 25 66t67 24q18 0 33.5 -5t29 -10.5t25 -10.5t22.5 -5q13 0 18 5t7.5 10.5
t4.5 10.5t9 5h40z" />
    <glyph glyph-name="odieresis" unicode="&#xf6;" horiz-adv-x="414" 
d="M28 290q0 81 5 135.5t28 86.5q27 40 62.5 55.5t86.5 15.5t85 -16t54 -49t28.5 -83t8.5 -118q0 -86 -3 -143.5t-19 -89.5q-24 -49 -63 -71t-98 -22q-53 0 -86.5 18t-53.5 55t-27.5 93.5t-7.5 132.5zM172 192q0 -46 33 -46q21 0 29.5 12t8.5 39v166q0 34 -6.5 49.5
t-32.5 15.5q-32 0 -32 -48v-188zM180 633q0 -11 -6 -14t-20 -3h-61q-12 0 -18 3.5t-6 15.5v62q0 11 6 14.5t20 3.5h61q13 0 18.5 -4t5.5 -16v-62zM345 633q0 -11 -6 -14t-20 -3h-62q-12 0 -17.5 3.5t-5.5 15.5v62q0 11 6 14.5t20 3.5h61q13 0 18.5 -4t5.5 -16v-62z" />
    <glyph glyph-name="divide" unicode="&#xf7;" horiz-adv-x="833" 
d="M417 564q30 0 52 -21.5t22 -52.5q0 -30 -21 -52t-53 -22q-31 0 -52.5 21.5t-21.5 52.5q0 32 22 53t52 21zM709 347v-97h-585v97h585zM417 180q30 0 52 -21.5t22 -52.5q0 -29 -21.5 -51t-52.5 -22t-52.5 21t-21.5 52q0 32 22 53t52 21z" />
    <glyph glyph-name="oslash" unicode="&#xf8;" horiz-adv-x="414" 
d="M172 192q0 -46 33 -46q21 0 29.5 12t8.5 39v166q0 34 -6.5 49.5t-32.5 15.5q-32 0 -32 -48v-188zM347 589q4 8 15 8q5 0 12 -2.5t13.5 -7t11 -10.5t4.5 -12q0 -9 -8 -23l-30 -50q13 -38 17 -81t4 -94q0 -86 -3 -143.5t-19 -89.5q-45 -94 -154 -94q-74 0 -117 38l-27 -45
q-2 -2 -7 -5t-10 -3q-9 0 -24.5 9.5t-15.5 26.5q0 5 2 9t6 10l35 56q-13 29 -18.5 79.5t-5.5 124.5q0 81 5 135.5t28 86.5q27 39 62 55t86 16q36 0 63.5 -8t50.5 -28z" />
    <glyph glyph-name="ugrave" unicode="&#xf9;" horiz-adv-x="451" 
d="M119 574q21 0 33 -2t18.5 -8t8.5 -17t2 -28v-263q0 -52 5 -79t31 -27q43 0 43 74v216q0 23 -2.5 45.5t-2.5 44.5q0 31 11.5 37.5t39.5 6.5h67q23 0 30 -10.5t7 -42.5v-404q0 -10 1 -24.5t1 -34.5q0 -19 -2 -30.5t-8.5 -18t-19 -9t-33.5 -2.5h-57q-22 0 -29 6.5t-7 28.5v7
l-5 1q-37 -49 -98 -49q-66 0 -93.5 48.5t-27.5 145.5v308q0 21 1 36t6 25t15 14.5t27 4.5h38zM102 705q-4 3 -4 7q0 8 11 8h114q11 0 18.5 -3.5t9.5 -7.5l48 -84q2 -4 2 -5q0 -9 -10 -9h-71q-17 0 -25 8z" />
    <glyph glyph-name="uacute" unicode="&#xfa;" horiz-adv-x="451" 
d="M119 574q21 0 33 -2t18.5 -8t8.5 -17t2 -28v-263q0 -52 5 -79t31 -27q43 0 43 74v216q0 23 -2.5 45.5t-2.5 44.5q0 31 11.5 37.5t39.5 6.5h67q23 0 30 -10.5t7 -42.5v-404q0 -10 1 -24.5t1 -34.5q0 -19 -2 -30.5t-8.5 -18t-19 -9t-33.5 -2.5h-57q-22 0 -29 6.5t-7 28.5v7
l-5 1q-37 -49 -98 -49q-66 0 -93.5 48.5t-27.5 145.5v308q0 21 1 36t6 25t15 14.5t27 4.5h38zM160 611q-10 0 -10 9q0 1 2 5l48 84q2 4 9.5 7.5t18.5 3.5h114q11 0 11 -8q0 -4 -4 -7l-92 -86q-4 -3 -10.5 -5.5t-15.5 -2.5h-71z" />
    <glyph glyph-name="ucircumflex" unicode="&#xfb;" horiz-adv-x="451" 
d="M119 574q21 0 33 -2t18.5 -8t8.5 -17t2 -28v-263q0 -52 5 -79t31 -27q43 0 43 74v216q0 23 -2.5 45.5t-2.5 44.5q0 31 11.5 37.5t39.5 6.5h67q23 0 30 -10.5t7 -42.5v-404q0 -10 1 -24.5t1 -34.5q0 -19 -2 -30.5t-8.5 -18t-19 -9t-33.5 -2.5h-57q-22 0 -29 6.5t-7 28.5v7
l-5 1q-37 -49 -98 -49q-66 0 -93.5 48.5t-27.5 145.5v308q0 21 1 36t6 25t15 14.5t27 4.5h38zM165 709q8 11 25 11h73q16 0 25 -11l68 -84q2 -2 2 -5q0 -9 -9 -9h-66q-8 0 -14.5 2.5t-9.5 5.5l-26 28q-4 4 -7 4t-7 -4l-28 -28q-3 -3 -9.5 -5.5t-14.5 -2.5h-66q-9 0 -9 9
q0 3 2 5z" />
    <glyph glyph-name="udieresis" unicode="&#xfc;" horiz-adv-x="451" 
d="M119 574q21 0 33 -2t18.5 -8t8.5 -17t2 -28v-263q0 -52 5 -79t31 -27q43 0 43 74v216q0 23 -2.5 45.5t-2.5 44.5q0 31 11.5 37.5t39.5 6.5h67q23 0 30 -10.5t7 -42.5v-404q0 -10 1 -24.5t1 -34.5q0 -19 -2 -30.5t-8.5 -18t-19 -9t-33.5 -2.5h-57q-22 0 -29 6.5t-7 28.5v7
l-5 1q-37 -49 -98 -49q-66 0 -93.5 48.5t-27.5 145.5v308q0 21 1 36t6 25t15 14.5t27 4.5h38zM364 633q0 -11 -6 -14t-20 -3h-62q-12 0 -17.5 3.5t-5.5 15.5v62q0 11 6 14.5t20 3.5h61q13 0 18.5 -4t5.5 -16v-62zM199 633q0 -11 -6 -14t-20 -3h-61q-12 0 -18 3.5t-6 15.5v62
q0 11 6 14.5t20 3.5h61q13 0 18.5 -4t5.5 -16v-62z" />
    <glyph glyph-name="ydieresis" unicode="&#xff;" horiz-adv-x="384" 
d="M22 37q0 37 24 37q11 0 17 -4.5t11 -4.5q20 0 20 15q0 11 -3 26l-83 417q-2 8 -3 14t-1 8q0 14 9.5 21.5t25.5 7.5h86q19 0 23 -9t6 -32l33 -357h18l28 370q2 17 9 22.5t26 5.5h73q40 0 40 -31q0 -10 -4 -26l-100 -471q-16 -73 -49.5 -105t-99.5 -32q-54 0 -80 9.5
t-26 32.5v86zM165 633q0 -11 -6 -14t-20 -3h-61q-12 0 -18 3.5t-6 15.5v62q0 11 6 14.5t20 3.5h61q13 0 18.5 -4t5.5 -16v-62zM330 633q0 -11 -6 -14t-20 -3h-62q-12 0 -17.5 3.5t-5.5 15.5v62q0 11 6 14.5t20 3.5h61q13 0 18.5 -4t5.5 -16v-62z" />
    <glyph glyph-name="Gbreve" unicode="&#x11e;" horiz-adv-x="463" 
d="M432 76q0 -22 -2 -35t-12 -21q-18 -14 -50 -23t-80 -9q-63 0 -113 24.5t-85.5 70t-54.5 111t-19 146.5q0 90 21 160.5t58.5 119t90.5 74.5t118 26q34 0 57 -3.5t37 -11.5t20 -22.5t6 -35.5q0 -54 -5 -79t-32 -25q-11 0 -27 5.5t-39 5.5q-69 0 -102 -46t-33 -141
q0 -100 17.5 -151.5t59.5 -51.5q20 0 25.5 14.5t5.5 40.5v56q0 16 -24 25q-17 7 -23.5 20t-6.5 36q0 36 2 57t9 32t21 14t37 3h58q38 0 51.5 -15t13.5 -56v-315zM203 870q6 0 9 -4t5 -11q6 -17 17 -24t31 -7q22 0 28.5 8.5t15.5 27.5q2 4 6.5 7t8.5 3h51q10 0 10 -18
q0 -42 -31.5 -67.5t-91.5 -25.5t-91.5 26.5t-31.5 64.5q0 20 14 20h50z" />
    <glyph glyph-name="gbreve" unicode="&#x11f;" horiz-adv-x="412" 
d="M375 93q0 -40 -5.5 -70t-32.5 -53q-31 -26 -72 -39.5t-86 -13.5q-44 0 -68 3t-36 12t-14.5 27t-2.5 48q0 26 8.5 39.5t22.5 13.5q6 0 13.5 -3.5t17 -7.5t21.5 -7.5t26 -3.5q36 0 51.5 14t15.5 47v10.5t-1 11.5q-35 -29 -76 -29q-60 0 -95 61.5t-35 178.5q0 251 137 251
q20 0 36 -9t34 -28v9q0 23 17 23q3 0 13 -0.5t27 -0.5q23 0 37 0.5t19 0.5q20 0 24 -10t4 -42v-433zM147 720q6 0 9 -4t5 -11q6 -17 17 -24t31 -7q22 0 28.5 8.5t15.5 27.5q2 4 6.5 7t8.5 3h51q10 0 10 -18q0 -42 -31.5 -67.5t-91.5 -25.5t-91.5 26.5t-31.5 64.5q0 20 14 20
h50zM202 433q-24 0 -31 -23.5t-7 -74.5q0 -55 7.5 -80t33.5 -25q23 0 28 18t5 56q0 22 -1 43t-1 41q0 45 -34 45z" />
    <glyph glyph-name="Idotaccent" unicode="&#x130;" horiz-adv-x="227" 
d="M136 720q18 0 29.5 -1.5t19.5 -8.5q7 -7 8.5 -23t1.5 -43v-60q0 -144 -1.5 -247.5t-1.5 -167.5q0 -23 1 -50.5t1 -59.5q0 -21 -3 -32.5t-10.5 -17.5t-20 -7.5t-30.5 -1.5h-35q-23 0 -35.5 2t-19.5 9t-8.5 20t-1.5 35q0 26 2 151.5t2 351.5q0 48 -1 74.5t-1 31.5
q0 16 2.5 25t9.5 13.5t18 5.5t28 1h46zM175 783q0 -11 -7 -14t-21 -3h-69q-14 0 -20 3.5t-6 15.5v62q0 11 7 14.5t22 3.5h68q14 0 20 -4t6 -16v-62z" />
    <glyph glyph-name="dotlessi" unicode="&#x131;" horiz-adv-x="229" 
d="M34 480q0 10 -0.5 21t-0.5 24q0 30 12 37.5t42 7.5h19q10 0 20 0.5t21 0.5q24 0 34 -5.5t10 -24.5v-494q0 -29 -5.5 -38.5t-31.5 -9.5q-13 0 -24 1t-19 1q-19 0 -31 -1t-18 -1q-20 0 -24 10.5t-4 34.5v436v0z" />
    <glyph glyph-name="OE" unicode="&#x152;" horiz-adv-x="630" 
d="M28 490q0 66 9 111.5t44 75.5q60 52 146 52q27 0 56 -3.5t59 -3.5q11 0 20.5 0.5t17.5 0.5h168q23 0 32 -9.5t9 -37.5v-64q0 -31 -13 -40.5t-47 -9.5h-76q-20 0 -23 -13.5t-3 -41.5q0 -26 4.5 -37t21.5 -11h5l80 6h9q23 0 32.5 -11.5t9.5 -38.5v-70q0 -44 -40 -44
q-5 0 -23 1t-51 1q-20 0 -29.5 -7.5t-9.5 -18.5v-67q0 -21 8.5 -29.5t27.5 -8.5q8 0 15.5 0.5t13.5 0.5h78q17 0 23.5 -13.5t6.5 -39.5v-78q0 -27 -15.5 -34.5t-52.5 -7.5h-190q-7 0 -12 0.5t-9 0.5q-23 0 -51 -6.5t-64 -6.5q-187 0 -187 231v271zM196 233q0 -42 6 -60
t32 -18q20 0 26.5 13.5t6.5 43.5v282q0 41 -8.5 61t-28.5 20q-23 0 -28.5 -19t-5.5 -57v-266z" />
    <glyph glyph-name="oe" unicode="&#x153;" horiz-adv-x="618" 
d="M172 192q0 -46 33 -46q21 0 29.5 12t8.5 39v166q0 34 -6.5 49.5t-32.5 15.5q-32 0 -32 -48v-188zM318 556q43 26 100 26q101 0 151 -87q17 -31 21 -77t4 -109q0 -40 -6 -60t-31 -20h-161q-5 0 -10.5 -4t-5.5 -9q0 -38 20.5 -55.5t67.5 -17.5q16 0 28.5 4t22.5 9l18 9
t14 4q35 0 35 -37v-77q0 -25 -10 -32q-14 -11 -49.5 -21t-82.5 -10q-72 0 -121 34q-26 -20 -55.5 -27.5t-64.5 -7.5q-53 0 -86.5 18t-53.5 55t-27.5 93.5t-7.5 132.5q0 75 4 122.5t14 70.5q20 48 59.5 74t93.5 26q35 0 64 -5.5t55 -21.5zM431 346q17 0 20.5 7t3.5 25
q0 37 -8.5 54.5t-34.5 17.5q-18 0 -25.5 -13.5t-7.5 -42.5q0 -26 3.5 -37t17.5 -11h31z" />
    <glyph glyph-name="Scedilla" unicode="&#x15e;" horiz-adv-x="433" 
d="M32 134v4q0 27 10 39t35 12q7 0 14.5 -4t17.5 -8.5t23.5 -8.5t33.5 -4q51 0 51 44q0 17 -8 31t-22 27.5t-32 28.5t-38 34q-45 43 -64.5 87.5t-19.5 102.5q0 203 225 203q37 0 58 -2t31 -8.5t12 -19.5t2 -34v-73q0 -30 -6 -39.5t-29 -9.5q-19 0 -36.5 6.5t-36.5 6.5
q-46 0 -46 -40q0 -14 8.5 -27.5t24.5 -29t37.5 -35t47.5 -45.5q39 -39 54 -77.5t15 -89.5q0 -103 -44.5 -156t-139.5 -60v-4q0 -8 3 -11.5t9.5 -5t17.5 -2t27 -1.5q29 -3 46.5 -22t17.5 -46q0 -42 -36 -59.5t-110 -17.5q-34 0 -57.5 1.5t-37.5 6.5t-20.5 14.5t-6.5 24.5
q0 19 16 19q12 0 39 -7t70 -7q37 0 37 22q0 24 -33 24h-6q-17 0 -25 3t-8 20l1 48q-38 2 -64 7.5t-38 11.5q-14 7 -16.5 17t-2.5 26v7z" />
    <glyph glyph-name="scedilla" unicode="&#x15f;" horiz-adv-x="333" 
d="M22 102v15q0 21 4.5 32.5t21.5 11.5q9 0 23.5 -5.5t36.5 -5.5q23 0 34.5 8t11.5 28q0 24 -18 39.5t-41 36.5q-37 35 -54.5 72.5t-17.5 83.5q0 38 12 69t33.5 52.5t50.5 33t64 11.5q29 0 49 -1t32.5 -6t18 -15t5.5 -28l1 -58q0 -42 -32 -42q-8 0 -18 2.5t-22 2.5
q-17 0 -26.5 -9.5t-9.5 -23.5q0 -17 19.5 -36.5t48.5 -51.5q32 -35 47 -70.5t15 -77.5q0 -78 -39 -124t-112 -54v-7q0 -8 3 -11.5t9.5 -5t17.5 -2t27 -1.5q29 -3 46.5 -22t17.5 -46q0 -42 -36 -59.5t-110 -17.5q-34 0 -57.5 1.5t-37.5 6.5t-20.5 14.5t-6.5 24.5q0 19 16 19
q12 0 39 -7t70 -7q37 0 37 22q0 24 -33 24h-6q-17 0 -25 3t-8 20l1 50q-80 4 -80 39v7z" />
    <glyph glyph-name="Ydieresis" unicode="&#x178;" horiz-adv-x="435" 
d="M218 451h8l32 203q4 26 9 41t16 19q18 6 108 6q48 0 48 -26q0 -10 -9 -38l-110 -334q-2 -5 -5 -13t-6 -20t-5.5 -28.5t-2.5 -40.5v-6l2 -138q0 -14 1 -24.5t1 -18.5q0 -20 -10 -26.5t-33 -6.5q-14 0 -25 0.5t-18 0.5q-22 0 -36 -1t-19 -1q-15 0 -21 6.5t-6 21.5q0 6 1 43
t1 108v77q0 18 -4.5 33t-9.5 31l-114 336q-8 24 -8 37q0 28 40 28q6 0 16.5 -1t26.5 -1q8 0 22 0.5t34 0.5q21 0 29 -10t11 -29zM355 782q0 -11 -6 -14t-20 -3h-62q-12 0 -17.5 3.5t-5.5 15.5v62q0 11 6 14.5t20 3.5h61q13 0 18.5 -4t5.5 -16v-62zM190 782q0 -11 -6 -14
t-20 -3h-61q-12 0 -18 3.5t-6 15.5v62q0 11 6 14.5t20 3.5h61q13 0 18.5 -4t5.5 -16v-62z" />
    <glyph glyph-name="florin" unicode="&#x192;" horiz-adv-x="447" 
d="M56 354q-16 0 -16 16v71q0 13 13 13h85v83q0 54 8.5 91.5t29.5 61t55.5 34t86.5 10.5h22q35 0 50.5 -3.5t15.5 -22.5v-93q0 -13 -4 -17.5t-12 -5t-20.5 -0.5t-29.5 -3q-15 -3 -23.5 -9t-12 -16.5t-4.5 -27t-1 -40.5v-42h92q15 0 15 -16v-71q0 -13 -12 -13h-95v-247
q0 -73 -16 -117t-55 -64q-26 -14 -63.5 -16.5t-88.5 -2.5q-21 0 -30.5 2.5t-9.5 16.5v99q0 17 6.5 22.5t29.5 5.5q21 0 34 2.5t20 11t9.5 24t2.5 41.5v222h-82v0z" />
    <glyph glyph-name="circumflex" unicode="&#x2c6;" 
d="M189 709q8 11 25 11h73q16 0 25 -11l68 -84q2 -2 2 -5q0 -9 -9 -9h-66q-8 0 -14.5 2.5t-9.5 5.5l-26 28q-4 4 -7 4t-7 -4l-28 -28q-3 -3 -9.5 -5.5t-14.5 -2.5h-66q-9 0 -9 9q0 3 2 5l71 84v0z" />
    <glyph glyph-name="caron" unicode="&#x2c7;" 
d="M118 705q-2 2 -2 5q0 10 9 10h66q16 0 24 -8l28 -29q3 -3 7 -3t7 3l26 29q8 8 24 8h66q9 0 9 -10q0 -3 -2 -5l-68 -84q-8 -10 -25 -10h-73q-16 0 -25 10z" />
    <glyph glyph-name="breve" unicode="&#x2d8;" 
d="M191 720q6 0 9 -4t5 -11q6 -17 17 -24t31 -7q22 0 28.5 8.5t15.5 27.5q2 4 6.5 7t8.5 3h51q10 0 10 -18q0 -42 -31.5 -67.5t-91.5 -25.5t-91.5 26.5t-31.5 64.5q0 20 14 20h50z" />
    <glyph glyph-name="dotaccent" unicode="&#x2d9;" 
d="M311 633q0 -11 -7 -14t-21 -3h-69q-14 0 -20 3.5t-6 15.5v62q0 11 7 14.5t22 3.5h68q14 0 20 -4t6 -16v-62v0z" />
    <glyph glyph-name="ring" unicode="&#x2da;" 
d="M145 716q0 22 8 41t22.5 33t33.5 22t41 8q21 0 40.5 -8t33.5 -22t22.5 -33t8.5 -41t-8.5 -41t-22.5 -33.5t-33 -22.5t-41 -8t-41 8t-33.5 22.5t-22.5 33.5t-8 41zM210 716q0 -17 11.5 -28.5t28.5 -11.5t28.5 11.5t11.5 27.5q0 17 -11.5 28.5t-28.5 11.5t-28.5 -11
t-11.5 -28z" />
    <glyph glyph-name="ogonek" unicode="&#x2db;" 
d="M329 0q-34 -37 -34 -79q0 -20 6.5 -29t6.5 -11q0 -8 -2.5 -9.5t-8.5 -1.5h-84q-16 0 -22.5 7.5t-6.5 31.5q0 23 15 47t45 44h85v0z" />
    <glyph glyph-name="tilde" unicode="&#x2dc;" 
d="M384 715q13 0 13 -18q0 -32 -25 -56.5t-67 -24.5q-18 0 -33.5 5t-29 10.5t-25.5 10.5t-22 5q-13 0 -18.5 -5t-8 -11.5t-5 -11.5t-9.5 -5h-42q-9 0 -9 11q0 42 25 66t67 24q18 0 33.5 -5t29 -10.5t25 -10.5t22.5 -5q13 0 18 5t7.5 10.5t4.5 10.5t9 5h40v0z" />
    <glyph glyph-name="hungarumlaut" unicode="&#x2dd;" 
d="M201 619q-3 -3 -8 -5.5t-13 -2.5h-59q-8 0 -8 8q0 4 1 6l40 84q5 11 24 11h94q9 0 9 -8q0 -3 -3 -7zM374 619q-3 -3 -8 -5.5t-13 -2.5h-59q-8 0 -8 8q0 4 1 6l41 84q5 11 23 11h94q10 0 10 -8q0 -1 -4 -7z" />
    <glyph glyph-name="endash" unicode="&#x2013;" 
d="M0 344h500v-113h-500v113z" />
    <glyph glyph-name="emdash" unicode="&#x2014;" horiz-adv-x="1000" 
d="M0 344h1000v-113h-1000v113z" />
    <glyph glyph-name="quoteleft" unicode="&#x2018;" horiz-adv-x="222" 
d="M31 597q0 14 5 22t9 15l41 73q8 14 29 14h41q18 0 18 -12q0 -7 -11.5 -26t-28.5 -55h14q26 0 34.5 -6.5t8.5 -29.5v-111q0 -19 -8.5 -25t-28.5 -6h-89q-19 0 -26.5 7.5t-7.5 28.5v111v0z" />
    <glyph glyph-name="quoteright" unicode="&#x2019;" horiz-adv-x="222" 
d="M191 568q0 -14 -5 -22t-9 -15l-41 -73q-8 -14 -29 -14h-41q-18 0 -18 12q0 7 11.5 26t28.5 55h-16q-25 0 -33 6t-8 30v111q0 18 8.5 24.5t28.5 6.5h89q19 0 26.5 -7.5t7.5 -28.5v-111v0z" />
    <glyph glyph-name="quotesinglbase" unicode="&#x201a;" horiz-adv-x="222" 
d="M191 31q0 -14 -5 -21.5t-9 -15.5l-41 -73q-8 -14 -29 -14h-41q-18 0 -18 12q0 7 11.5 26t28.5 55h-16q-25 0 -33 6t-8 30v111q0 18 8.5 24.5t28.5 6.5h89q19 0 26.5 -7.5t7.5 -28.5v-111v0z" />
    <glyph glyph-name="quotedblleft" unicode="&#x201c;" horiz-adv-x="424" 
d="M31 597q0 14 5 22t9 15l41 73q8 14 29 14h41q18 0 18 -12q0 -7 -11.5 -26t-28.5 -55h14q26 0 34.5 -6.5t8.5 -29.5v-111q0 -19 -8.5 -25t-28.5 -6h-89q-19 0 -26.5 7.5t-7.5 28.5v111zM234 597q0 14 4.5 22t8.5 15l41 73q8 14 29 14h42q18 0 18 -12q0 -7 -11.5 -26
t-28.5 -55h14q26 0 34 -6.5t8 -29.5v-111q0 -19 -8.5 -25t-28.5 -6h-89q-19 0 -26 7.5t-7 28.5v111z" />
    <glyph glyph-name="quotedblright" unicode="&#x201d;" horiz-adv-x="424" 
d="M191 568q0 -14 -5 -22t-9 -15l-41 -73q-8 -14 -29 -14h-41q-18 0 -18 12q0 7 11.5 26t28.5 55h-16q-25 0 -33 6t-8 30v111q0 18 8.5 24.5t28.5 6.5h89q19 0 26.5 -7.5t7.5 -28.5v-111zM393 568q0 -14 -5 -21.5t-9 -15.5l-41 -73q-8 -14 -28 -14h-42q-18 0 -18 12
q0 7 11.5 26t28.5 55h-16q-25 0 -32.5 6t-7.5 30v111q0 18 8.5 24.5t28.5 6.5h88q19 0 26.5 -7.5t7.5 -28.5v-111z" />
    <glyph glyph-name="quotedblbase" unicode="&#x201e;" horiz-adv-x="424" 
d="M191 31q0 -14 -5 -21.5t-9 -15.5l-41 -73q-8 -14 -29 -14h-41q-18 0 -18 12q0 7 11.5 26t28.5 55h-16q-25 0 -33 6t-8 30v111q0 18 8.5 24.5t28.5 6.5h89q19 0 26.5 -7.5t7.5 -28.5v-111zM393 31q0 -14 -5 -21.5t-9 -15.5l-41 -73q-8 -14 -28 -14h-42q-18 0 -18 12
q0 7 11.5 26t28.5 55h-16q-25 0 -32.5 6t-7.5 30v111q0 18 8.5 24.5t28.5 6.5h88q19 0 26.5 -7.5t7.5 -28.5v-111z" />
    <glyph glyph-name="dagger" unicode="&#x2020;" 
d="M283 720q22 0 34 -11t12 -26v-158h79q17 0 25.5 -4t8.5 -24v-88q0 -20 -3 -29.5t-17 -9.5h-93v-422q0 -20 -6.5 -28t-31.5 -8h-85q-24 0 -29.5 6.5t-5.5 29.5v422h-86q-20 0 -23.5 6.5t-3.5 32.5v88q0 17 4.5 22.5t27.5 5.5h81v158q0 37 43 37h69v0z" />
    <glyph glyph-name="daggerdbl" unicode="&#x2021;" 
d="M283 720q22 0 34 -11t12 -26v-137h79q17 0 25.5 -4t8.5 -24v-88q0 -20 -3 -29.5t-17 -9.5h-93v-148h79q17 0 25.5 -4t8.5 -24v-88q0 -20 -3 -29.5t-17 -9.5h-93v-140q0 -20 -6.5 -28t-31.5 -8h-85q-24 0 -29.5 6.5t-5.5 29.5v140h-86q-20 0 -23.5 6.5t-3.5 32.5v88
q0 17 4.5 22.5t27.5 5.5h81v148h-86q-20 0 -23.5 6.5t-3.5 32.5v88q0 17 4.5 22.5t27.5 5.5h81v137q0 37 43 37h69v0z" />
    <glyph glyph-name="bullet" unicode="&#x2022;" horiz-adv-x="590" 
d="M150 372q0 30 11.5 56t31 45.5t46 31t56.5 11.5t56 -11.5t45.5 -31t31 -45.5t11.5 -56t-11.5 -56t-31 -46t-46 -31.5t-56.5 -11.5t-56.5 11.5t-46 31t-30.5 46t-11 56.5z" />
    <glyph glyph-name="ellipsis" unicode="&#x2026;" horiz-adv-x="1000" 
d="M247 31q0 -19 -8.5 -25t-28.5 -6h-89q-19 0 -26.5 7.5t-7.5 28.5v111q0 18 8.5 24.5t28.5 6.5h89q19 0 26.5 -7.5t7.5 -28.5v-111zM580 31q0 -19 -8.5 -25t-28.5 -6h-89q-19 0 -26.5 7.5t-7.5 28.5v111q0 18 8.5 24.5t28.5 6.5h89q19 0 26.5 -7.5t7.5 -28.5v-111zM914 31
q0 -19 -8.5 -25t-28.5 -6h-89q-19 0 -26.5 7.5t-7.5 28.5v111q0 18 8.5 24.5t28.5 6.5h89q19 0 26.5 -7.5t7.5 -28.5v-111z" />
    <glyph glyph-name="perthousand" unicode="&#x2030;" horiz-adv-x="956" 
d="M22 557q0 46 5 80t19 56t39 33t66 11q34 0 60 -11t41 -29q20 -25 23.5 -73t3.5 -126q0 -41 -6.5 -71.5t-21.5 -50t-40.5 -29t-64.5 -9.5q-65 0 -98 41q-19 24 -22.5 67.5t-3.5 110.5zM377 203q0 46 5 80t19 56t39 32.5t66 10.5q71 0 99.5 -37.5t28.5 -115.5v-81
q0 -42 -6 -73t-21 -51t-40.5 -30t-65.5 -10q-65 0 -98 41q-19 24 -22.5 67.5t-3.5 110.5zM676 203q0 46 5 80t19 56t39 32.5t66 10.5q71 0 99.5 -37.5t28.5 -115.5v-81q0 -42 -6 -73t-21 -51t-40.5 -30t-65.5 -10q-65 0 -98 41q-19 24 -22.5 67.5t-3.5 110.5zM113 5
q-10 5 -10 20q0 7 6 18l363 683q9 17 21 17q5 0 10 -3l41 -20q8 -4 8 -16q0 -2 -7 -16l-359 -683q-11 -20 -24 -20q-2 0 -10 2zM173 616q0 26 -23 26t-23 -26v-158q0 -27 23 -27t23 27v158zM528 261q0 26 -23 26t-23 -26v-158q0 -27 23 -27t23 27v158zM827 261q0 26 -23 26
t-23 -26v-158q0 -27 23 -27t23 27v158z" />
    <glyph glyph-name="guilsinglleft" unicode="&#x2039;" horiz-adv-x="227" 
d="M136 720q18 0 29.5 -1.5t19.5 -8.5q7 -7 8.5 -23t1.5 -43v-60q0 -144 -1.5 -247.5t-1.5 -167.5q0 -23 1 -50.5t1 -59.5q0 -21 -3 -32.5t-10.5 -17.5t-20 -7.5t-30.5 -1.5h-35q-23 0 -35.5 2t-19.5 9t-8.5 20t-1.5 35q0 26 2 151.5t2 351.5q0 48 -1 74.5t-1 31.5
q0 16 2.5 25t9.5 13.5t18 5.5t28 1h46zM175 783q0 -11 -7 -14t-21 -3h-69q-14 0 -20 3.5t-6 15.5v62q0 11 7 14.5t22 3.5h68q14 0 20 -4t6 -16v-62z" />
    <glyph glyph-name="guilsinglright" unicode="&#x203a;" horiz-adv-x="229" 
d="M34 480q0 10 -0.5 21t-0.5 24q0 30 12 37.5t42 7.5h19q10 0 20 0.5t21 0.5q24 0 34 -5.5t10 -24.5v-494q0 -29 -5.5 -38.5t-31.5 -9.5q-13 0 -24 1t-19 1q-19 0 -31 -1t-18 -1q-20 0 -24 10.5t-4 34.5v436v0z" />
    <glyph glyph-name="fraction" unicode="&#x2044;" horiz-adv-x="463" 
d="M432 76q0 -22 -2 -35t-12 -21q-18 -14 -50 -23t-80 -9q-63 0 -113 24.5t-85.5 70t-54.5 111t-19 146.5q0 90 21 160.5t58.5 119t90.5 74.5t118 26q34 0 57 -3.5t37 -11.5t20 -22.5t6 -35.5q0 -54 -5 -79t-32 -25q-11 0 -27 5.5t-39 5.5q-69 0 -102 -46t-33 -141
q0 -100 17.5 -151.5t59.5 -51.5q20 0 25.5 14.5t5.5 40.5v56q0 16 -24 25q-17 7 -23.5 20t-6.5 36q0 36 2 57t9 32t21 14t37 3h58q38 0 51.5 -15t13.5 -56v-315zM203 870q6 0 9 -4t5 -11q6 -17 17 -24t31 -7q22 0 28.5 8.5t15.5 27.5q2 4 6.5 7t8.5 3h51q10 0 10 -18
q0 -42 -31.5 -67.5t-91.5 -25.5t-91.5 26.5t-31.5 64.5q0 20 14 20h50z" />
    <glyph glyph-name="Euro" unicode="&#x20ac;" horiz-adv-x="412" 
d="M375 93q0 -40 -5.5 -70t-32.5 -53q-31 -26 -72 -39.5t-86 -13.5q-44 0 -68 3t-36 12t-14.5 27t-2.5 48q0 26 8.5 39.5t22.5 13.5q6 0 13.5 -3.5t17 -7.5t21.5 -7.5t26 -3.5q36 0 51.5 14t15.5 47v10.5t-1 11.5q-35 -29 -76 -29q-60 0 -95 61.5t-35 178.5q0 251 137 251
q20 0 36 -9t34 -28v9q0 23 17 23q3 0 13 -0.5t27 -0.5q23 0 37 0.5t19 0.5q20 0 24 -10t4 -42v-433zM147 720q6 0 9 -4t5 -11q6 -17 17 -24t31 -7q22 0 28.5 8.5t15.5 27.5q2 4 6.5 7t8.5 3h51q10 0 10 -18q0 -42 -31.5 -67.5t-91.5 -25.5t-91.5 26.5t-31.5 64.5q0 20 14 20
h50zM202 433q-24 0 -31 -23.5t-7 -74.5q0 -55 7.5 -80t33.5 -25q23 0 28 18t5 56q0 22 -1 43t-1 41q0 45 -34 45z" />
    <glyph glyph-name="trademark" unicode="&#x2122;" horiz-adv-x="833" 
d="M338 714v-55h-82v-212h-73v212h-82v55h237zM488 714l62 -162l60 162h96v-267h-66v200l-75 -200h-30l-77 200v-200h-66v267h96z" />
    </font>
</defs>
</svg>
