
<svg version="1.1"
	 xmlns="http://www.w3.org/2000/svg" xmlns:xlink="http://www.w3.org/1999/xlink" xmlns:a="http://ns.adobe.com/AdobeSVGViewerExtensions/3.0/"
	 x="0px" y="0px" width="110px" height="110px" viewBox="-29.864 -13.413 110 110" enable-background="new -29.864 -13.413 110 110"
	 xml:space="preserve">
<defs>
</defs>
<path fill="none" stroke="#B3B3B3" stroke-miterlimit="10" d="M43.588,18.985V37.47h1.263l-1.894,3.271l-1.894-3.271h1.262V18.985
	h-1.262l1.894-3.272l1.894,3.272H43.588z M30.024,47.298v1.263H14.025v-1.263l-3.271,1.894l3.271,1.894v-1.262h16.037v1.262
	l3.271-1.894l-3.271-1.894H30.024z M49.132,53.914H38.07v12.299L49.132,53.914z M49.771,0.5H0.5v66.532h35.707v-12.92
	c0-1.03,0.824-1.854,1.855-1.854h11.709l0,0V0.5z M22.372,14.025c0.077,0,0.193,0.039,0.271,0.039h20.945
	c0.36,0,0.631-0.271,0.631-0.632c0-0.36-0.271-0.631-0.631-0.631H22.656c-0.31,0-0.593,0.271-0.593,0.67
	c0,0.154,0.077,0.31,0.154,0.399L22.372,14.025z M7.945,26.366H3.218l18.407-12.611l18.408,12.611h-5.05v15.998h8.669
	c0.36,0,0.631,0.271,0.631,0.632c0,0.36-0.271,0.631-0.631,0.631h-8.669v6.145c0,0.36-0.271,0.631-0.632,0.631
	c-0.36,0-0.631-0.271-0.631-0.631v-6.145h-2.447V31.325h-6.145v12.302H9.208v8.669c0,0.361-0.271,0.631-0.632,0.631
	c-0.36,0-0.631-0.27-0.631-0.631V26.366z M14.025,37.482h7.406v-6.157h-7.406V37.482z"/>
</svg>
