
<svg version="1.1"
	 xmlns="http://www.w3.org/2000/svg" xmlns:xlink="http://www.w3.org/1999/xlink" xmlns:a="http://ns.adobe.com/AdobeSVGViewerExtensions/3.0/"
	 x="0px" y="0px" width="110px" height="110px" viewBox="-5.49 -23.881 110 110" enable-background="new -5.49 -23.881 110 110"
	 xml:space="preserve">
<defs>
</defs>
<path fill="none" stroke="#B3B3B3" stroke-miterlimit="10" d="M71.207,20.586v-8.645l2.863,0.338V5.8L39.49,0.507L0.5,7.929v7.575
	l3.613-0.502v21.05L14.6,36.049v19.647l49.779,6.034l8.807-1.069V35.446l15.643,0.049v23.269l7.27-0.883V27.139l2.422,0.119v-4.607
	L71.207,20.586z M67.684,14.935v7.581l-10.418,0.193v-8.834L67.684,14.935z M9.529,16.172l23.645-2.999v16.879L9.529,30.836V16.172z
	 M19.242,51.231V36.049h9.748v16.066L19.242,51.231z M31.467,52.282V36.043h8.02v-0.027h3.258v17.288L31.467,52.282z M45.121,53.62
	V36.019l13.129,0.003v18.796L45.121,53.62z"/>
</svg>
