
<svg version="1.1"
	 xmlns="http://www.w3.org/2000/svg" xmlns:xlink="http://www.w3.org/1999/xlink" xmlns:a="http://ns.adobe.com/AdobeSVGViewerExtensions/3.0/"
	 x="0px" y="0px" width="110px" height="110px" viewBox="-19.621 -8.338 110 110" enable-background="new -19.621 -8.338 110 110"
	 xml:space="preserve">
<defs>
</defs>
<path fill="none" stroke="#B3B3B3" stroke-miterlimit="10" d="M62.045,47.612h-2.617v-2.617h2.617v-2.617h-17.57l-7.811-6.796
	c0.059-0.12,0.111-0.244,0.16-0.373c0.564-1.486,0.516-2.806,1.652-2.883c1.283-0.086,1.223-1.955-0.619-1.901
	c-0.684,0.021-1.471,0.286-2.333,1.563c-0.318,0.47-0.586,1.159-1.029,1.706l-0.887-0.772c-0.328-0.285-0.817-0.285-1.145,0
	l-1.229,1.069c-0.676-0.625-0.969-1.7-0.969-2.879c0-1.335,0.736-2.937,2.07-2.937s2.281,0.268,2.281,0.268v-6.132h-0.873V0.5
	h-1.744v21.812h-0.873v4.041c-2.617,0.163-3.558,2.181-3.558,5.072c0,1.669,0.312,3.408,1.347,4.583l-7.32,6.37H5.188v2.617h1.746
	v2.617H5.188v2.618h56.857V47.612z M30.388,37.042c0.592,0.242,1.293,0.386,2.139,0.386c1.401,0,2.322-0.206,2.961-0.558l6.33,5.508
	H24.255L30.388,37.042z M0.5,85.242h21.231v7.582H0.5V85.242z M24.764,85.242h21.231v7.582H24.764V85.242z M12.632,74.625h21.23
	v7.584h-21.23V74.625z M0.5,64.009h21.231v7.584H0.5V64.009z M24.764,64.009h21.231v7.584H24.764V64.009z M12.632,53.394h21.23
	v7.582h-21.23V53.394z M36.895,74.625h21.23v7.584h-21.23V74.625z M36.895,53.394h21.23v7.582h-21.23V53.394z M49.028,85.242h21.23
	v7.582h-21.23V85.242z M49.028,64.009h21.23v7.584h-21.23V64.009z"/>
</svg>
