
<svg version="1.1"
	 xmlns="http://www.w3.org/2000/svg" xmlns:xlink="http://www.w3.org/1999/xlink" xmlns:a="http://ns.adobe.com/AdobeSVGViewerExtensions/3.0/"
	 x="0px" y="0px" width="110px" height="110px" viewBox="-20.385 -32.551 110 110" enable-background="new -20.385 -32.551 110 110"
	 xml:space="preserve">
<defs>
</defs>
<path fill-rule="evenodd" clip-rule="evenodd" fill="none" stroke="#B3B3B3" stroke-miterlimit="10" d="M8.219,24.62
	c-1.755,0.971-3.772,2.262-5.395,3.405c-2.89,2.033-3.123,3.011-0.482,7.028c2.101,3.193,5.125,5.993,9.562,8.11
	c2.749,1.315,3.946,1.321,7.513,1.168c17.627-0.755,35.695-3.902,46.914-10.786c1.209-0.742,3.729-2.479,1.53-4.936
	c-0.159-0.179-0.323-0.353-0.491-0.522c-0.004,0.558-0.021,1.117-0.05,1.678l-0.067,1.304l-1.164,0.59
	c-3.658,1.854-7.92,3.149-11.897,4.097c-0.15,0.036-0.3,0.071-0.45,0.107l0.13,0.689l-7.28,1.309l0.031-0.646
	c-2.482,0.371-4.98,0.638-7.467,0.803c-1.227,0.082-2.458,0.139-3.695,0.166l0.082,0.656l-7.727-0.086l0.082-0.786
	c-0.407-0.036-0.813-0.073-1.219-0.118l-0.13-0.013l-0.126-0.029c-7.209-1.614-13.582-5.109-17.853-11.245
	C7.94,25.657,8.08,25.042,8.219,24.62L8.219,24.62z M10.421,25.276C13.543-9.6,66.983-7.215,65.069,29.647
	c-2.99,1.517-7.094,2.911-11.753,3.999l-1.227-6.445l-5.03,0.635l-0.331,7.081c-3.752,0.579-7.676,0.941-11.541,1.018l-0.875-7.197
	l-5.483,0.186l-0.7,6.802c-0.407-0.033-0.813-0.071-1.215-0.113c-1.501-0.337-2.883-0.74-4.153-1.197
	C24.063,18.78,31.037,8.062,48.228,4.907C31.258,6.114,21.24,15.25,18.175,32.317C14.365,30.136,11.966,27.5,10.421,25.276z"/>
</svg>
