<svg xmlns="http://www.w3.org/2000/svg" viewBox="0 0 1350.08 43.89"><title>line1</title><polygon points="675.1 0.66 633.26 29.93 591.1 0.34 591.1 0.33 591.1 0.33 591.09 0.33 591.05 0.36 549.26 29.6 510.15 2.15 508.6 0.66 508.31 0.86 507.09 0 500.48 6.34 466.76 29.93 424.6 0.34 424.6 0.33 424.6 0.33 424.59 0.33 424.55 0.36 382.76 29.6 340.59 0 335.63 4.75 299.64 29.93 257.49 0.34 257.48 0.33 257.48 0.33 257.48 0.33 257.44 0.36 215.65 29.6 176.53 2.15 174.98 0.66 174.7 0.86 173.48 0 166.86 6.34 133.14 29.93 90.99 0.34 90.98 0.33 90.98 0.33 90.97 0.33 90.94 0.36 49.14 29.6 6.97 0 0 6.68 49.15 43.56 90.97 12.24 133.15 43.89 174.66 12.81 215.65 43.56 257.48 12.24 299.65 43.89 341.47 12.58 382.76 43.56 424.59 12.24 466.76 43.89 508.28 12.81 549.26 43.56 591.09 12.24 633.26 43.89 682.08 7.34 675.1 0.66" style="fill:#e4474c"/><polygon points="1343.1 0.66 1301.26 29.93 1259.1 0.34 1259.1 0.33 1259.1 0.33 1259.09 0.33 1259.05 0.36 1217.26 29.6 1178.15 2.15 1176.6 0.66 1176.32 0.86 1175.09 0 1168.47 6.34 1134.76 29.93 1092.6 0.34 1092.6 0.33 1092.6 0.33 1092.59 0.33 1092.55 0.36 1050.76 29.6 1008.59 0 1003.63 4.75 967.64 29.93 925.49 0.34 925.48 0.33 925.48 0.33 925.48 0.33 925.44 0.36 883.64 29.6 844.53 2.15 842.98 0.66 842.7 0.86 841.48 0 834.86 6.34 801.14 29.93 758.99 0.34 758.98 0.33 758.98 0.33 758.97 0.33 758.94 0.36 717.14 29.6 674.97 0 668 6.68 717.14 43.56 758.97 12.24 801.14 43.89 842.66 12.81 883.65 43.56 925.48 12.24 967.65 43.89 1009.47 12.58 1050.76 43.56 1092.59 12.24 1134.76 43.89 1176.28 12.81 1217.26 43.56 1259.09 12.24 1301.26 43.89 1350.08 7.34 1343.1 0.66" style="fill:#e4474c"/></svg>