<?xml version="1.0" standalone="no"?>
<!DOCTYPE svg PUBLIC "-//W3C//DTD SVG 1.1//EN" "http://www.w3.org/Graphics/SVG/1.1/DTD/svg11.dtd" >
<svg>
<metadata>
Created by FontForge 20120731 at Wed Aug 20 17:23:26 2014
 By World Wide Web Server
Part of the Neutraface 2 collection from House Industries.
</metadata>
<defs>
<font id="Neutraface2Text-Bold" horiz-adv-x="500" >
  <font-face 
    font-family="Neutraface 2 Text Bold"
    font-weight="700"
    font-stretch="normal"
    units-per-em="1000"
    panose-1="2 11 8 3 2 2 2 2 1 2"
    ascent="780"
    descent="-220"
    x-height="426"
    cap-height="680"
    bbox="-73 -283 1343 981"
    underline-thickness="20"
    underline-position="-113"
    stemh="115"
    stemv="135"
    unicode-range="U+0020-FB04"
  />
<missing-glyph 
 />
    <glyph glyph-name="fi" unicode="fi" horiz-adv-x="583" 
d="M458 497c-46 0 -86 35 -86 85c0 49 40 84 86 84s85 -35 85 -84c0 -50 -39 -85 -85 -85zM102 0v314h-71v112h71v143c0 110 53 166 157 166c53 0 83 -14 112 -39l-63 -95c-8 7 -20 13 -36 13c-21 0 -35 -13 -35 -43v-145h288v-426h-135v314h-153v-314h-135z" />
    <glyph glyph-name="fl" unicode="fl" horiz-adv-x="583" 
d="M102 0v314h-71v112h71v143c0 110 52 166 151 166c45 0 78 -13 104 -37l-56 -97c-7 6 -19 13 -33 13c-19 0 -31 -14 -31 -43v-145h101v-112h-101v-314h-135zM390 0v722h135v-722h-135z" />
    <glyph glyph-name="ff" unicode="ff" horiz-adv-x="670" 
d="M102 0v314h-71v112h71v123c0 110 53 166 152 166c48 0 81 -14 111 -40l-56 -97c-7 8 -19 16 -37 16c-21 0 -35 -13 -35 -43v-125h153v143c0 110 52 166 157 166c60 0 100 -18 131 -54l-73 -90c-10 12 -22 23 -43 23c-22 0 -37 -12 -37 -43v-145h115v-112h-115v-314h-135
v314h-153v-314h-135z" />
    <glyph glyph-name="ffi" unicode="ffi" horiz-adv-x="871" 
d="M746 497c-46 0 -86 35 -86 85c0 49 40 84 86 84s85 -35 85 -84c0 -50 -39 -85 -85 -85zM102 0v314h-71v112h71v123c0 110 53 166 152 166c48 0 81 -14 111 -40l-56 -97c-7 8 -19 16 -37 16c-21 0 -35 -13 -35 -43v-125h153v143c0 110 53 166 157 166c53 0 83 -14 112 -39
l-63 -95c-8 7 -20 13 -36 13c-21 0 -35 -13 -35 -43v-145h288v-426h-135v314h-153v-314h-135v314h-153v-314h-135z" />
    <glyph glyph-name="ffl" unicode="ffl" horiz-adv-x="871" 
d="M102 0v314h-71v112h71v123c0 110 53 166 152 166c48 0 81 -14 111 -40l-56 -97c-7 8 -19 16 -37 16c-21 0 -35 -13 -35 -43v-125h153v143c0 110 52 166 151 166c45 0 78 -13 104 -37l-56 -97c-7 6 -19 13 -33 13c-19 0 -31 -14 -31 -43v-145h101v-112h-101v-314h-135v314
h-153v-314h-135zM678 0v722h135v-722h-135z" />
    <glyph glyph-name="f_b" unicode="fb" horiz-adv-x="888" 
d="M102 0v314h-71v112h71v143c0 110 52 166 151 166c45 0 78 -13 104 -37l-56 -97c-7 6 -19 13 -33 13c-19 0 -31 -14 -31 -43v-145h101v-112h-101v-314h-135zM656 -9c-65 0 -110 26 -134 71l3 -62h-135v722h135v-356c28 42 69 69 134 69c104 0 190 -90 190 -221
s-89 -223 -193 -223zM617 109c57 0 93 38 93 105c0 63 -36 102 -93 102c-58 0 -96 -39 -96 -102c0 -67 38 -105 96 -105z" />
    <glyph glyph-name="f_f_b" unicode="ffb" horiz-adv-x="1176" 
d="M102 0v314h-71v112h71v123c0 110 53 166 152 166c48 0 81 -14 111 -40l-56 -97c-7 8 -19 16 -37 16c-21 0 -35 -13 -35 -43v-125h153v143c0 110 52 166 151 166c45 0 78 -13 104 -37l-56 -97c-7 6 -19 13 -33 13c-19 0 -31 -14 -31 -43v-145h101v-112h-101v-314h-135v314
h-153v-314h-135zM944 -9c-65 0 -110 26 -134 71l3 -62h-135v722h135v-356c28 42 69 69 134 69c104 0 190 -90 190 -221s-89 -223 -193 -223zM905 109c57 0 93 38 93 105c0 63 -36 102 -93 102c-58 0 -96 -39 -96 -102c0 -67 38 -105 96 -105z" />
    <glyph glyph-name="f_f_f" unicode="fff" horiz-adv-x="958" 
d="M678 314h-153v-314h-135v314h-153v-314h-135v314h-71v112h71v123c0 110 53 166 152 166c48 0 81 -14 111 -40l-56 -97c-7 8 -19 16 -37 16c-21 0 -35 -13 -35 -43v-125h153v133c0 110 53 166 152 166c48 0 81 -14 111 -40l-56 -97c-7 8 -19 16 -37 16
c-21 0 -35 -13 -35 -43v-135h153v143c0 110 52 166 157 166c60 0 100 -18 131 -54l-73 -90c-10 12 -22 23 -43 23c-22 0 -37 -12 -37 -43v-145h115v-112h-115v-314h-135v314z" />
    <glyph glyph-name="f_f_f_i" unicode="fffi" horiz-adv-x="1159" 
d="M1034 497c-46 0 -86 35 -86 85c0 49 40 84 86 84s85 -35 85 -84c0 -50 -39 -85 -85 -85zM390 314h-153v-314h-135v314h-71v112h71v123c0 110 53 166 152 166c48 0 81 -14 111 -40l-56 -97c-7 8 -19 16 -37 16c-21 0 -35 -13 -35 -43v-125h153v133c0 110 53 166 152 166
c48 0 81 -14 111 -40l-56 -97c-7 8 -19 16 -37 16c-21 0 -35 -13 -35 -43v-135h153v143c0 110 53 166 157 166c53 0 83 -14 112 -39l-63 -95c-8 7 -20 13 -36 13c-21 0 -35 -13 -35 -43v-145h288v-426h-135v314h-153v-314h-135v314h-153v-314h-135v314z" />
    <glyph glyph-name="f_f_f_l" unicode="fffl" horiz-adv-x="1159" 
d="M390 314h-153v-314h-135v314h-71v112h71v123c0 110 53 166 152 166c48 0 81 -14 111 -40l-56 -97c-7 8 -19 16 -37 16c-21 0 -35 -13 -35 -43v-125h153v133c0 110 53 166 152 166c48 0 81 -14 111 -40l-56 -97c-7 8 -19 16 -37 16c-21 0 -35 -13 -35 -43v-135h153v143
c0 110 52 166 151 166c45 0 78 -13 104 -37l-56 -97c-7 6 -19 13 -33 13c-19 0 -31 -14 -31 -43v-145h101v-112h-101v-314h-135v314h-153v-314h-135v314zM966 0v722h135v-722h-135z" />
    <glyph glyph-name="f_f_h" unicode="ffh" horiz-adv-x="1155" 
d="M102 0v314h-71v112h71v123c0 110 53 166 152 166c48 0 81 -14 111 -40l-56 -97c-7 8 -19 16 -37 16c-21 0 -35 -13 -35 -43v-125h153v143c0 110 52 166 151 166c45 0 78 -13 104 -37l-56 -97c-7 6 -19 13 -33 13c-19 0 -31 -14 -31 -43v-145h101v-112h-101v-314h-135v314
h-153v-314h-135zM678 0v722h135v-363c26 49 73 76 132 76c93 0 160 -68 160 -189v-246h-135v237c0 48 -23 75 -71 75c-54 0 -86 -30 -86 -84v-228h-135z" />
    <glyph glyph-name="f_f_iacute" unicode="ff&#xed;" horiz-adv-x="871" 
d="M690 500l52 188h154l-104 -188h-102zM102 0v314h-71v112h71v123c0 110 53 166 152 166c48 0 81 -14 111 -40l-56 -97c-7 8 -19 16 -37 16c-21 0 -35 -13 -35 -43v-125h153v143c0 110 53 166 157 166c53 0 83 -14 112 -39l-63 -95c-8 7 -20 13 -36 13
c-21 0 -35 -13 -35 -43v-145h288v-426h-135v314h-153v-314h-135v314h-153v-314h-135z" />
    <glyph glyph-name="f_f_icircumflex" unicode="ff&#xee;" horiz-adv-x="871" 
d="M580 500l159 216h11l159 -216h-108l-56 65l-57 -65h-108zM102 0v314h-71v112h71v123c0 110 53 166 152 166c48 0 81 -14 111 -40l-56 -97c-7 8 -19 16 -37 16c-21 0 -35 -13 -35 -43v-125h153v143c0 110 53 166 157 166c53 0 83 -14 112 -39l-63 -95c-8 7 -20 13 -36 13
c-21 0 -35 -13 -35 -43v-145h288v-426h-135v314h-153v-314h-135v314h-153v-314h-135z" />
    <glyph glyph-name="f_f_idieresis" unicode="ff&#xef;" horiz-adv-x="871" 
d="M851 481c-40 0 -75 32 -75 72s35 72 75 72c38 0 72 -32 72 -72s-34 -72 -72 -72zM667 481c-37 0 -72 32 -72 72s35 72 72 72c40 0 75 -32 75 -72s-35 -72 -75 -72zM102 0v314h-71v112h71v123c0 110 53 166 152 166c48 0 81 -14 111 -40l-56 -97c-7 8 -19 16 -37 16
c-21 0 -35 -13 -35 -43v-125h153v143c0 110 53 166 157 166c41 0 73 -8 104 -32l-67 -96c-6 5 -13 7 -24 7c-21 0 -35 -13 -35 -43v-145h288v-426h-135v314h-153v-314h-135v314h-153v-314h-135z" />
    <glyph glyph-name="f_f_j" unicode="ffj" horiz-adv-x="871" 
d="M746 497c-46 0 -86 35 -86 85c0 49 40 84 86 84s85 -35 85 -84c0 -50 -39 -85 -85 -85zM660 -222c-50 0 -93 26 -113 51l67 80c11 -10 22 -16 33 -16c21 0 31 12 31 34v387h-153v-314h-135v314h-153v-314h-135v314h-71v112h71v123c0 110 53 166 152 166
c48 0 81 -14 111 -40l-56 -97c-7 8 -19 16 -37 16c-21 0 -35 -13 -35 -43v-125h153v143c0 110 53 166 157 166c53 0 83 -14 112 -39l-63 -95c-8 7 -20 13 -36 13c-21 0 -35 -13 -35 -43v-145h288v-494c0 -98 -53 -154 -153 -154z" />
    <glyph glyph-name="f_f_k" unicode="ffk" horiz-adv-x="1119" 
d="M102 0v314h-71v112h71v123c0 110 53 166 152 166c48 0 81 -14 111 -40l-56 -97c-7 8 -19 16 -37 16c-21 0 -35 -13 -35 -43v-125h153v143c0 110 52 166 151 166c45 0 78 -13 104 -37l-56 -97c-7 6 -19 13 -33 13c-19 0 -31 -14 -31 -43v-145h101v-112h-101v-314h-135v314
h-153v-314h-135zM813 123v-123h-135v722h135v-368c0 -32 -3 -65 -7 -92l140 164h150l-151 -174l167 -252h-157l-106 161z" />
    <glyph glyph-name="f_f_t" unicode="fft" horiz-adv-x="966" 
d="M826 -11c-86 0 -148 43 -148 171v154h-153v-314h-135v314h-153v-314h-135v314h-71v112h71v123c0 110 53 166 152 166c48 0 81 -14 111 -40l-56 -97c-7 8 -19 16 -37 16c-21 0 -35 -13 -35 -43v-125h153v143c0 110 53 166 157 166c53 0 83 -14 112 -39l-63 -95
c-8 7 -20 13 -36 13c-21 0 -35 -13 -35 -43v-145h153v152h134v-152h109v-112h-109v-158c0 -43 14 -52 35 -52c22 0 38 12 47 18l51 -94c-21 -17 -57 -39 -119 -39z" />
    <glyph glyph-name="f_h" unicode="fh" horiz-adv-x="867" 
d="M102 0v314h-71v112h71v143c0 110 52 166 151 166c45 0 78 -13 104 -37l-56 -97c-7 6 -19 13 -33 13c-19 0 -31 -14 -31 -43v-145h101v-112h-101v-314h-135zM390 0v722h135v-363c26 49 73 76 132 76c93 0 160 -68 160 -189v-246h-135v237c0 48 -23 75 -71 75
c-54 0 -86 -30 -86 -84v-228h-135z" />
    <glyph glyph-name="f_iacute" unicode="f&#xed;" horiz-adv-x="583" 
d="M402 500l52 188h154l-104 -188h-102zM102 0v314h-71v112h71v143c0 110 53 166 157 166c53 0 83 -14 112 -39l-63 -95c-8 7 -20 13 -36 13c-21 0 -35 -13 -35 -43v-145h288v-426h-135v314h-153v-314h-135z" />
    <glyph glyph-name="f_icircumflex" unicode="f&#xee;" horiz-adv-x="583" 
d="M292 500l159 216h11l159 -216h-108l-56 65l-57 -65h-108zM102 0v314h-71v112h71v143c0 110 53 166 157 166c53 0 83 -14 112 -39l-63 -95c-8 7 -20 13 -36 13c-21 0 -35 -13 -35 -43v-145h288v-426h-135v314h-153v-314h-135z" />
    <glyph glyph-name="f_idieresis" unicode="f&#xef;" horiz-adv-x="583" 
d="M563 481c-40 0 -75 32 -75 72s35 72 75 72c38 0 72 -32 72 -72s-34 -72 -72 -72zM379 481c-37 0 -72 32 -72 72s35 72 72 72c40 0 75 -32 75 -72s-35 -72 -75 -72zM102 0v314h-71v112h71v143c0 110 53 166 157 166c41 0 73 -8 104 -32l-67 -96c-6 5 -13 7 -24 7
c-21 0 -35 -13 -35 -43v-145h288v-426h-135v314h-153v-314h-135z" />
    <glyph glyph-name="f_j" unicode="fj" horiz-adv-x="583" 
d="M458 497c-46 0 -86 35 -86 85c0 49 40 84 86 84s85 -35 85 -84c0 -50 -39 -85 -85 -85zM372 -222c-50 0 -93 26 -113 51l67 80c11 -10 22 -16 33 -16c21 0 31 12 31 34v387h-153v-314h-135v314h-71v112h71v143c0 110 53 166 157 166c53 0 83 -14 112 -39l-63 -95
c-8 7 -20 13 -36 13c-21 0 -35 -13 -35 -43v-145h288v-494c0 -98 -53 -154 -153 -154z" />
    <glyph glyph-name="f_k" unicode="fk" horiz-adv-x="831" 
d="M102 0v314h-71v112h71v143c0 110 52 166 151 166c45 0 78 -13 104 -37l-56 -97c-7 6 -19 13 -33 13c-19 0 -31 -14 -31 -43v-145h101v-112h-101v-314h-135zM525 123v-123h-135v722h135v-368c0 -32 -3 -65 -7 -92l140 164h150l-151 -174l167 -252h-157l-106 161z" />
    <glyph glyph-name="f_t" unicode="ft" horiz-adv-x="678" 
d="M538 -11c-86 0 -148 43 -148 171v154h-153v-314h-135v314h-71v112h71v143c0 110 53 166 157 166c53 0 83 -14 112 -39l-63 -95c-8 7 -20 13 -36 13c-21 0 -35 -13 -35 -43v-145h153v152h134v-152h109v-112h-109v-158c0 -43 14 -52 35 -52c22 0 38 12 47 18l51 -94
c-21 -17 -57 -39 -119 -39z" />
    <glyph glyph-name=".notdef" 
 />
    <glyph glyph-name="space" unicode=" " horiz-adv-x="221" 
 />
    <glyph glyph-name="exclam" unicode="!" horiz-adv-x="283" 
d="M88 231l-22 449h151l-22 -449h-107zM142 -6c-46 0 -85 35 -85 85c0 49 39 84 85 84c45 0 84 -35 84 -84c0 -50 -39 -85 -84 -85z" />
    <glyph glyph-name="quotedbl" unicode="&#x22;" horiz-adv-x="408" 
d="M243 433l-16 247h145l-15 -247h-114zM51 433l-15 247h144l-15 -247h-114z" />
    <glyph glyph-name="numbersign" unicode="#" horiz-adv-x="526" 
d="M61 142l25 101h-54v102h79l19 75h-54v102h79l25 97h105l-25 -97h75l25 97h105l-24 -97h53v-102h-78l-19 -75h53v-102h-79l-25 -101h-105l25 101h-75l-25 -101h-105zM217 345h75l19 75h-75z" />
    <glyph glyph-name="dollar" unicode="$" horiz-adv-x="502" 
d="M218 -7c-117 10 -177 70 -204 122l99 56c19 -33 47 -64 105 -73v115c-127 30 -174 88 -174 163s53 147 174 154v101h67v-103c76 -12 126 -53 153 -88l-87 -66c-10 16 -31 38 -66 49v-100c122 -28 186 -84 186 -168c0 -98 -59 -156 -186 -163v-108h-67v109zM285 96
c50 6 61 25 61 45c0 22 -10 43 -61 57v-102zM218 429c-39 -4 -52 -21 -52 -42c0 -22 7 -36 52 -48v90z" />
    <glyph glyph-name="percent" unicode="%" horiz-adv-x="855" 
d="M189 217c-90 0 -164 65 -164 157c0 91 74 157 164 157c89 0 163 -66 163 -157c0 -92 -74 -157 -163 -157zM196 0l330 522h133l-330 -522h-133zM667 -9c-90 0 -164 65 -164 157c0 91 74 157 164 157c89 0 163 -66 163 -157c0 -92 -74 -157 -163 -157zM189 318
c26 0 52 21 52 56s-26 56 -52 56s-52 -21 -52 -56s26 -56 52 -56zM667 92c26 0 52 21 52 56s-26 56 -52 56s-52 -21 -52 -56s26 -56 52 -56z" />
    <glyph glyph-name="ampersand" unicode="&#x26;" horiz-adv-x="695" 
d="M378 367l107 -133c15 35 24 77 24 127h126c0 -91 -25 -169 -67 -230l106 -131h-165l-34 42c-51 -33 -111 -51 -175 -51c-169 0 -264 84 -264 200c0 98 50 148 157 201c-34 46 -47 89 -47 135c0 88 67 161 180 161c108 0 176 -63 176 -158c0 -65 -38 -118 -124 -163z
M312 448c50 28 68 52 68 83s-21 49 -52 49s-54 -21 -54 -51c0 -35 17 -54 36 -78zM399 136l-143 177c-59 -32 -74 -67 -74 -111c0 -57 36 -90 118 -90c36 0 69 8 99 24z" />
    <glyph glyph-name="quoteright" unicode="&#x2019;" horiz-adv-x="242" 
d="M47 420l38 114c-24 11 -45 38 -45 73c0 46 38 80 80 80c44 0 82 -34 82 -79c0 -31 -12 -55 -30 -86l-60 -102h-65z" />
    <glyph glyph-name="parenleft" unicode="(" horiz-adv-x="344" 
d="M238 -137c-88 85 -189 219 -189 428c0 208 101 343 189 428l81 -65c-80 -97 -128 -204 -128 -363c0 -158 48 -266 128 -363z" />
    <glyph glyph-name="parenright" unicode=")" horiz-adv-x="344" 
d="M106 -137l-81 65c80 97 128 204 128 363c0 158 -48 266 -128 363l81 65c88 -85 189 -219 189 -428c0 -208 -101 -343 -189 -428z" />
    <glyph glyph-name="asterisk" unicode="*" horiz-adv-x="425" 
d="M153 360l29 111l-82 -82l-58 100l113 31l-113 31l58 100l82 -82l-29 111h118l-29 -111l82 82l59 -100l-116 -31l116 -31l-59 -100l-82 82l29 -111h-118z" />
    <glyph glyph-name="plus" unicode="+" horiz-adv-x="411" 
d="M145 97v110h-106v118h106v110h121v-110h106v-118h-106v-110h-121z" />
    <glyph glyph-name="comma" unicode="," horiz-adv-x="249" 
d="M52 -115l38 120c-30 14 -50 40 -50 76c0 47 39 82 85 82c45 0 84 -35 84 -84c0 -33 -15 -58 -30 -85l-59 -109h-68z" />
    <glyph glyph-name="hyphen" unicode="-" horiz-adv-x="302" 
d="M36 182v120h230v-120h-230z" />
    <glyph glyph-name="period" unicode="." horiz-adv-x="249" 
d="M125 -6c-46 0 -85 35 -85 85c0 49 39 84 85 84c45 0 84 -35 84 -84c0 -50 -39 -85 -84 -85z" />
    <glyph glyph-name="slash" unicode="/" horiz-adv-x="404" 
d="M-16 -128l279 850h132l-279 -850h-132z" />
    <glyph glyph-name="zero" unicode="0" horiz-adv-x="625" 
d="M312 -9c-144 0 -277 113 -277 271c0 159 133 269 277 269c145 0 278 -110 278 -269c0 -158 -133 -271 -278 -271zM312 111c76 0 135 58 135 151s-59 149 -135 149c-75 0 -134 -56 -134 -149s59 -151 134 -151z" />
    <glyph glyph-name="one" unicode="1" horiz-adv-x="331" 
d="M126 0v410h-100v112h237v-522h-137z" />
    <glyph glyph-name="two" unicode="2" horiz-adv-x="481" 
d="M21 0v12l199 211c57 60 84 86 84 129c0 34 -25 57 -63 57c-46 0 -72 -36 -87 -80l-126 34c24 107 109 168 212 168c140 0 204 -83 204 -170c0 -64 -44 -124 -105 -189l-15 -16c-18 -19 -56 -44 -60 -46c2 0 51 5 69 5h116v-115h-428z" />
    <glyph glyph-name="three" unicode="3" horiz-adv-x="524" 
d="M250 -103c-127 0 -197 65 -234 140l117 61c22 -57 62 -81 117 -81s98 38 98 103s-55 94 -118 94c-44 0 -68 -9 -88 -20l-10 12l121 170c16 22 36 39 36 39s-32 -5 -61 -5h-159v112h412v-11l-129 -177c-14 -19 -27 -30 -27 -30c84 -17 166 -77 166 -187
c0 -111 -79 -220 -241 -220z" />
    <glyph glyph-name="four" unicode="4" horiz-adv-x="554" 
d="M450 104h69v-104h-69v-94h-136v94h-289v92l411 436h14v-424zM314 104v88c0 22 5 62 5 62s-16 -22 -34 -41l-72 -76c-19 -20 -41 -36 -41 -36s24 3 52 3h90z" />
    <glyph glyph-name="five" unicode="5" horiz-adv-x="507" 
d="M240 -103c-123 0 -196 64 -224 132l118 59c15 -39 44 -71 104 -71c58 0 92 38 92 89c0 55 -36 89 -105 89c-60 0 -106 -25 -136 -49l-12 5v371h363v-112h-251v-116c13 8 46 15 76 15c126 0 209 -89 209 -204c0 -112 -75 -208 -234 -208z" />
    <glyph glyph-name="six" unicode="6" horiz-adv-x="532" 
d="M267 -9c-126 0 -232 84 -232 208c0 75 31 135 84 208l146 202h152l-123 -169c-20 -27 -54 -55 -61 -60c21 10 44 16 73 16c107 0 191 -74 191 -194c0 -131 -103 -211 -230 -211zM266 110c59 0 93 44 93 92s-34 92 -93 92s-93 -44 -93 -92s34 -92 93 -92z" />
    <glyph glyph-name="seven" unicode="7" horiz-adv-x="486" 
d="M58 -94l221 504h-250v112h431v-11l-263 -605h-139z" />
    <glyph glyph-name="eight" unicode="8" horiz-adv-x="540" 
d="M270 -10c-131 0 -232 77 -232 192c0 69 40 122 106 150c-49 25 -74 66 -74 118c0 92 69 168 201 168c134 0 200 -76 200 -168c0 -52 -24 -94 -73 -119c65 -28 104 -80 104 -149c0 -115 -99 -192 -232 -192zM270 111c56 0 95 30 95 82c0 53 -39 86 -95 86s-95 -33 -95 -86
c0 -52 39 -82 95 -82zM270 382c37 0 63 24 63 63c0 41 -26 63 -63 63s-66 -22 -66 -63c0 -39 29 -63 66 -63z" />
    <glyph glyph-name="nine" unicode="9" horiz-adv-x="532" 
d="M114 -94l124 176c20 29 52 53 60 59c-21 -10 -38 -16 -66 -16c-110 0 -197 75 -197 195c0 131 103 211 230 211c126 0 232 -77 232 -208c0 -75 -30 -131 -84 -208l-147 -209h-152zM266 228c59 0 93 44 93 92s-34 92 -93 92s-93 -44 -93 -92s34 -92 93 -92z" />
    <glyph glyph-name="colon" unicode=":" horiz-adv-x="259" 
d="M130 224c-46 0 -85 35 -85 85c0 49 39 84 85 84c45 0 84 -35 84 -84c0 -50 -39 -85 -84 -85zM130 -6c-46 0 -85 35 -85 85c0 49 39 84 85 84c45 0 84 -35 84 -84c0 -50 -39 -85 -84 -85z" />
    <glyph glyph-name="semicolon" unicode=";" horiz-adv-x="259" 
d="M130 224c-46 0 -85 35 -85 85c0 49 39 84 85 84c45 0 84 -35 84 -84c0 -50 -39 -85 -84 -85zM57 -115l38 120c-30 14 -50 40 -50 76c0 47 39 82 85 82c45 0 84 -35 84 -84c0 -33 -15 -58 -30 -85l-59 -109h-68z" />
    <glyph glyph-name="less" unicode="&#x3c;" horiz-adv-x="358" 
d="M321 72l-298 167v10l298 165v-117l-107 -54l107 -54v-117z" />
    <glyph glyph-name="equal" unicode="=" horiz-adv-x="405" 
d="M36 279v115h333v-115h-333zM36 115v115h333v-115h-333z" />
    <glyph glyph-name="greater" unicode="&#x3e;" horiz-adv-x="358" 
d="M37 72v117l107 54l-107 54v117l298 -167v-10z" />
    <glyph glyph-name="question" unicode="?" horiz-adv-x="513" 
d="M174 231v159h46c82 0 112 45 112 95c0 42 -32 84 -84 84c-55 0 -82 -25 -106 -65l-108 63c36 79 109 122 214 122c143 0 222 -99 222 -204c0 -107 -60 -179 -170 -195v-59h-126zM236 -6c-46 0 -85 35 -85 85c0 49 39 84 85 84c45 0 84 -35 84 -84c0 -50 -39 -85 -84 -85z
" />
    <glyph glyph-name="at" unicode="@" horiz-adv-x="925" 
d="M477 -207c-250 0 -438 151 -438 404c0 247 204 411 432 411c248 0 415 -148 415 -372c0 -156 -67 -241 -185 -241c-66 0 -115 19 -139 77c-29 -57 -78 -81 -136 -81c-98 0 -175 81 -175 199c0 117 76 201 173 201c56 0 88 -24 108 -60l-2 50h130v-225
c0 -44 13 -63 46 -63c42 0 66 41 66 141c0 189 -117 272 -301 272c-183 0 -309 -122 -309 -308c0 -185 110 -303 313 -303c55 0 111 11 159 28l42 -94c-63 -25 -119 -36 -199 -36zM464 100c40 0 69 40 69 90s-29 90 -69 90c-46 0 -75 -36 -75 -90s29 -90 75 -90z" />
    <glyph glyph-name="A" unicode="A" horiz-adv-x="664" 
d="M21 0l299 686h12l311 -686h-147l-38 92h-264l-38 -92h-135zM241 209h167l-43 103c-19 45 -39 114 -41 121c-1 -3 -21 -74 -40 -121z" />
    <glyph glyph-name="B" unicode="B" horiz-adv-x="605" 
d="M71 0v680h259c138 0 208 -79 208 -182c0 -66 -40 -123 -104 -139c80 -20 133 -69 133 -164c0 -111 -81 -195 -221 -195h-275zM211 123h129c51 0 86 34 86 85c0 50 -36 84 -94 84h-121v-169zM211 411h102c57 0 87 27 87 73s-25 73 -80 73h-109v-146z" />
    <glyph glyph-name="C" unicode="C" horiz-adv-x="715" 
d="M398 -9c-195 0 -350 148 -350 349s155 348 350 348c123 0 211 -44 272 -139l-107 -76c-32 52 -87 89 -165 89c-123 0 -206 -95 -206 -222s83 -224 206 -224c88 0 137 42 175 100l109 -75c-59 -92 -153 -150 -284 -150z" />
    <glyph glyph-name="D" unicode="D" horiz-adv-x="685" 
d="M71 0v680h209c209 0 358 -139 358 -340s-148 -340 -358 -340h-209zM211 123h62c151 0 220 90 220 217s-69 217 -220 217h-62v-434z" />
    <glyph glyph-name="E" unicode="E" horiz-adv-x="594" 
d="M71 0v680h450v-123h-310v-156h273v-120h-273v-158h324v-123h-464z" />
    <glyph glyph-name="F" unicode="F" horiz-adv-x="556" 
d="M71 0v680h438v-123h-298v-177h271v-125h-271v-255h-140z" />
    <glyph glyph-name="G" unicode="G" horiz-adv-x="739" 
d="M417 -9c-222 0 -369 148 -369 349s142 348 347 348c111 0 191 -30 247 -94l-95 -94c-34 35 -73 62 -152 62c-123 0 -203 -95 -203 -222s82 -224 225 -224c44 0 98 8 133 25v110h-164v123h292v-304c-39 -32 -137 -79 -261 -79z" />
    <glyph glyph-name="H" unicode="H" horiz-adv-x="713" 
d="M71 0v680h140v-288h291v288h140v-680h-140v267h-291v-267h-140z" />
    <glyph glyph-name="I" unicode="I" horiz-adv-x="287" 
d="M74 0v680h140v-680h-140z" />
    <glyph glyph-name="J" unicode="J" horiz-adv-x="496" 
d="M223 -9c-112 0 -177 58 -210 128l114 69c22 -39 42 -72 90 -72c46 0 75 18 75 88v476h140v-478c0 -145 -85 -211 -209 -211z" />
    <glyph glyph-name="K" unicode="K" horiz-adv-x="645" 
d="M71 0v680h140v-225c0 -33 -5 -80 -9 -114c16 36 36 75 60 106l182 233h159l-232 -298l256 -382h-169l-181 277l-66 -79v-198h-140z" />
    <glyph glyph-name="L" unicode="L" horiz-adv-x="561" 
d="M71 0v680h140v-557h308v-123h-448z" />
    <glyph glyph-name="M" unicode="M" horiz-adv-x="830" 
d="M71 0v687h11l335 -368l330 368h12v-687h-135v255c0 46 5 119 5 119s-41 -60 -73 -96l-135 -151h-13l-135 151c-32 36 -73 96 -73 96s5 -73 5 -119v-255h-134z" />
    <glyph glyph-name="N" unicode="N" horiz-adv-x="701" 
d="M616 -6l-343 322c-34 32 -81 93 -81 93s10 -75 10 -124v-285h-131v686h14l343 -322c33 -31 80 -93 80 -93s-9 77 -9 124v285h131v-686h-14z" />
    <glyph glyph-name="O" unicode="O" horiz-adv-x="800" 
d="M400 -9c-196 0 -352 148 -352 349s156 349 352 349s352 -148 352 -349s-156 -349 -352 -349zM400 116c124 0 208 97 208 224s-84 224 -208 224s-208 -97 -208 -224s84 -224 208 -224z" />
    <glyph glyph-name="P" unicode="P" horiz-adv-x="601" 
d="M71 0v680h239c139 0 253 -69 253 -228s-115 -229 -253 -229h-99v-223h-140zM211 346h95c69 0 113 31 113 106c0 76 -46 105 -113 105h-95v-211z" />
    <glyph glyph-name="Q" unicode="Q" horiz-adv-x="800" 
d="M656 96l95 -109l-93 -77l-101 116c-47 -22 -100 -35 -157 -35c-196 0 -352 148 -352 349s156 349 352 349s352 -148 352 -349c0 -97 -36 -182 -96 -244zM469 126l-81 93l94 77l86 -99c26 37 40 86 40 143c0 127 -84 224 -208 224s-208 -97 -208 -224s84 -224 208 -224
c25 0 48 3 69 10z" />
    <glyph glyph-name="R" unicode="R" horiz-adv-x="629" 
d="M71 0v680h252c139 0 253 -65 253 -224c0 -103 -54 -168 -133 -199l155 -257h-160l-138 236h-89v-236h-140zM211 354h108c69 0 113 27 113 102c0 76 -46 101 -113 101h-108v-203z" />
    <glyph glyph-name="S" unicode="S" horiz-adv-x="537" 
d="M267 -9c-130 0 -214 62 -255 143l114 66c30 -49 69 -85 138 -85c58 0 95 29 95 69c0 48 -38 65 -102 93l-35 15c-101 43 -168 97 -168 211c0 105 80 185 205 185c89 0 153 -31 199 -112l-109 -70c-24 43 -50 60 -90 60c-41 0 -67 -26 -67 -60c0 -42 26 -59 86 -85l35 -15
c119 -51 186 -103 186 -220c0 -126 -99 -195 -232 -195z" />
    <glyph glyph-name="T" unicode="T" horiz-adv-x="592" 
d="M226 0v557h-194v123h528v-123h-194v-557h-140z" />
    <glyph glyph-name="U" unicode="U" horiz-adv-x="686" 
d="M344 -9c-157 0 -276 83 -276 255v434h140v-426c0 -99 43 -137 136 -137c92 0 134 38 134 137v426h140v-434c0 -172 -119 -255 -274 -255z" />
    <glyph glyph-name="V" unicode="V" horiz-adv-x="664" 
d="M331 -6l-310 686h150l117 -262c24 -55 50 -145 53 -154c1 5 26 96 52 154l114 262h136l-298 -686h-14z" />
    <glyph glyph-name="W" unicode="W" horiz-adv-x="958" 
d="M273 -6l-251 686h148l99 -273c16 -45 34 -116 36 -123c1 4 20 78 42 123l131 279h14l133 -279c21 -44 40 -116 42 -123c1 4 19 77 36 123l98 273h136l-247 -686h-14l-153 328c-17 36 -36 94 -38 100c-1 -3 -22 -63 -39 -100l-159 -328h-14z" />
    <glyph glyph-name="X" unicode="X" horiz-adv-x="660" 
d="M27 0l222 374l-185 306h159l69 -117c19 -33 42 -87 45 -93c1 3 19 59 39 93l66 117h149l-182 -307l226 -373h-160l-107 181c-20 33 -45 90 -47 95c-1 -3 -22 -60 -42 -95l-105 -181h-147z" />
    <glyph glyph-name="Y" unicode="Y" horiz-adv-x="637" 
d="M256 0v249l-236 431h157l96 -185c25 -48 55 -128 55 -128s28 78 53 128l92 185h144l-220 -421v-259h-141z" />
    <glyph glyph-name="Z" unicode="Z" horiz-adv-x="590" 
d="M27 0v12l312 545h-257v123h473v-12l-311 -545h294v-123h-511z" />
    <glyph glyph-name="bracketleft" unicode="[" horiz-adv-x="337" 
d="M60 -128v850h247v-114h-112v-622h112v-114h-247z" />
    <glyph glyph-name="backslash" unicode="\" horiz-adv-x="404" 
d="M288 -128l-279 850h132l279 -850h-132z" />
    <glyph glyph-name="bracketright" unicode="]" horiz-adv-x="337" 
d="M30 -128v114h112v622h-112v114h247v-850h-247z" />
    <glyph glyph-name="asciicircum" unicode="^" horiz-adv-x="439" 
d="M54 447l160 240h11l160 -240h-108l-58 71l-57 -71h-108z" />
    <glyph glyph-name="underscore" unicode="_" horiz-adv-x="283" 
d="M-2 -128v120h287v-120h-287z" />
    <glyph glyph-name="quoteleft" unicode="&#x2018;" horiz-adv-x="242" 
d="M122 413c-44 0 -82 34 -82 79c0 31 12 55 30 86l60 102h65l-38 -114c24 -11 45 -38 45 -73c0 -46 -38 -80 -80 -80z" />
    <glyph glyph-name="a" unicode="a" horiz-adv-x="488" 
d="M304 253c-2 49 -26 71 -71 71c-51 0 -78 -22 -97 -39l-75 80c40 39 85 70 185 70c109 0 192 -59 192 -193v-242h-134l3 59c-32 -49 -69 -68 -126 -68c-78 0 -150 35 -150 134c0 91 69 128 174 128h99zM304 173h-92c-34 0 -49 -15 -49 -39s20 -38 58 -38c55 0 83 24 83 60
v17z" />
    <glyph glyph-name="b" unicode="b" horiz-adv-x="551" 
d="M319 -9c-65 0 -110 26 -134 71l3 -62h-135v722h135v-356c28 42 69 69 134 69c104 0 190 -90 190 -221s-89 -223 -193 -223zM280 109c57 0 93 38 93 105c0 63 -36 102 -93 102c-58 0 -96 -39 -96 -102c0 -67 38 -105 96 -105z" />
    <glyph glyph-name="c" unicode="c" horiz-adv-x="477" 
d="M271 -9c-133 0 -233 92 -233 223c0 129 100 221 233 221c85 0 136 -31 179 -85l-96 -78c-16 26 -49 45 -83 45c-61 0 -95 -43 -95 -103c0 -62 34 -106 95 -106c43 0 66 20 86 40l91 -80c-42 -47 -92 -77 -177 -77z" />
    <glyph glyph-name="d" unicode="d" horiz-adv-x="551" 
d="M232 -9c-104 0 -193 92 -193 223s88 221 191 221c68 0 106 -27 133 -69v356h135v-722h-135l3 62c-24 -45 -69 -71 -134 -71zM271 109c58 0 96 38 96 105c0 63 -38 102 -96 102c-57 0 -93 -39 -93 -102c0 -67 36 -105 93 -105z" />
    <glyph glyph-name="e" unicode="e" horiz-adv-x="538" 
d="M176 172c13 -44 49 -69 110 -69c49 0 86 19 107 34l77 -83c-41 -36 -93 -63 -182 -63c-152 0 -250 92 -250 223c0 129 103 221 235 221c153 0 236 -114 226 -263h-323zM174 250h189c-6 47 -36 75 -89 75s-89 -24 -100 -75z" />
    <glyph glyph-name="f" unicode="f" horiz-adv-x="382" 
d="M102 0v314h-71v112h71v143c0 110 52 166 157 166c60 0 100 -18 131 -54l-73 -90c-10 12 -22 23 -43 23c-22 0 -37 -12 -37 -43v-145h115v-112h-115v-314h-135z" />
    <glyph glyph-name="g" unicode="g" horiz-adv-x="552" 
d="M269 -222c-113 0 -179 40 -227 105l95 74c30 -37 65 -66 126 -66c62 0 101 37 101 115v51c-23 -39 -67 -66 -132 -66c-104 0 -193 92 -193 223s88 221 191 221c68 0 112 -30 137 -75l-3 66h135v-425c0 -162 -106 -223 -230 -223zM271 109c58 0 96 38 96 105
c0 63 -38 102 -96 102c-57 0 -93 -39 -93 -102c0 -67 36 -105 93 -105z" />
    <glyph glyph-name="h" unicode="h" horiz-adv-x="530" 
d="M53 0v722h135v-363c26 49 73 76 132 76c93 0 160 -68 160 -189v-246h-135v237c0 48 -23 75 -71 75c-54 0 -86 -30 -86 -84v-228h-135z" />
    <glyph glyph-name="i" unicode="i" horiz-adv-x="251" 
d="M126 497c-46 0 -86 35 -86 85c0 49 40 84 86 84s85 -35 85 -84c0 -50 -39 -85 -85 -85zM58 0v426h135v-426h-135z" />
    <glyph glyph-name="j" unicode="j" horiz-adv-x="250" 
d="M126 497c-46 0 -86 35 -86 85c0 49 40 84 86 84s85 -35 85 -84c0 -50 -39 -85 -85 -85zM40 -222c-50 0 -93 26 -113 51l67 80c11 -10 22 -16 33 -16c21 0 31 12 31 34v499h135v-494c0 -98 -53 -154 -153 -154z" />
    <glyph glyph-name="k" unicode="k" horiz-adv-x="494" 
d="M188 123v-123h-135v722h135v-368c0 -32 -3 -65 -7 -92l140 164h150l-151 -174l167 -252h-157l-106 161z" />
    <glyph glyph-name="l" unicode="l" horiz-adv-x="246" 
d="M56 0v722h134v-722h-134z" />
    <glyph glyph-name="m" unicode="m" horiz-adv-x="790" 
d="M53 0v426h135l-3 -66c30 52 70 75 121 75c55 0 94 -23 120 -73c35 44 82 73 145 73c107 0 169 -71 169 -188v-247h-134v235c0 50 -16 77 -67 77c-52 0 -75 -26 -75 -84v-228h-134v235c0 50 -15 77 -66 77c-52 0 -76 -26 -76 -84v-228h-135z" />
    <glyph glyph-name="n" unicode="n" horiz-adv-x="530" 
d="M53 0v426h135l-3 -70c26 51 76 79 135 79c93 0 160 -68 160 -189v-246h-135v237c0 48 -23 75 -71 75c-54 0 -86 -30 -86 -84v-228h-135z" />
    <glyph glyph-name="o" unicode="o" horiz-adv-x="545" 
d="M273 -9c-132 0 -235 92 -235 221c0 130 103 223 235 223s234 -93 234 -223c0 -129 -102 -221 -234 -221zM273 105c60 0 96 44 96 107c0 64 -36 107 -96 107s-97 -43 -97 -107c0 -63 37 -107 97 -107z" />
    <glyph glyph-name="p" unicode="p" horiz-adv-x="551" 
d="M53 -212v638h135l-3 -66c26 46 71 75 137 75c103 0 190 -90 190 -221s-89 -223 -193 -223c-65 0 -109 27 -131 66v-269h-135zM280 109c57 0 93 38 93 105c0 63 -36 102 -93 102c-58 0 -96 -39 -96 -102c0 -67 38 -105 96 -105z" />
    <glyph glyph-name="q" unicode="q" horiz-adv-x="552" 
d="M364 -212v269c-23 -39 -67 -66 -132 -66c-104 0 -193 92 -193 223s88 221 191 221c68 0 112 -30 137 -75l-3 66h135v-638h-135zM271 109c58 0 96 38 96 105c0 63 -38 102 -96 102c-57 0 -93 -39 -93 -102c0 -67 36 -105 93 -105z" />
    <glyph glyph-name="r" unicode="r" horiz-adv-x="392" 
d="M53 0v426h135l-2 -77c31 70 81 86 125 86c28 0 49 -8 66 -17l-43 -123c-17 8 -33 13 -52 13c-61 0 -94 -28 -94 -119v-189h-135z" />
    <glyph glyph-name="s" unicode="s" horiz-adv-x="421" 
d="M216 -9c-99 0 -157 37 -194 81l79 70c29 -28 66 -45 106 -45c44 0 58 8 58 26c0 23 -27 23 -96 41c-58 15 -123 47 -123 136c0 96 74 135 165 135c70 0 120 -23 155 -59l-72 -77c-20 17 -50 32 -82 32c-31 0 -46 -8 -46 -25c0 -24 27 -27 85 -40c62 -14 140 -43 140 -133
c0 -78 -41 -142 -175 -142z" />
    <glyph glyph-name="t" unicode="t" horiz-adv-x="382" 
d="M242 -11c-86 0 -148 43 -148 171v154h-63v112h63v152h134v-152h109v-112h-109v-158c0 -43 14 -52 35 -52c22 0 38 12 47 18l51 -94c-21 -17 -57 -39 -119 -39z" />
    <glyph glyph-name="u" unicode="u" horiz-adv-x="528" 
d="M209 -9c-93 0 -159 68 -159 189v246h135v-237c0 -48 23 -76 71 -76c54 0 84 31 84 85v228h135v-426h-135l3 70c-26 -51 -75 -79 -134 -79z" />
    <glyph glyph-name="v" unicode="v" horiz-adv-x="490" 
d="M240 -9l-231 435h149l60 -127c18 -40 33 -103 35 -112c1 6 15 71 33 112l58 127h137l-228 -435h-13z" />
    <glyph glyph-name="w" unicode="w" horiz-adv-x="689" 
d="M206 -11l-197 437h149l49 -121c15 -36 31 -95 31 -95s16 60 35 95l70 132h10l74 -132c18 -33 35 -89 37 -95c1 3 16 61 31 95l50 121h135l-199 -437h-12l-92 171c-16 28 -28 77 -30 84c-2 -5 -16 -56 -32 -84l-98 -171h-11z" />
    <glyph glyph-name="x" unicode="x" horiz-adv-x="511" 
d="M16 0l164 223l-143 203h159l35 -53c14 -22 30 -62 32 -66c1 2 16 43 31 66l34 53h144l-141 -192l164 -234h-160l-49 73c-17 25 -37 71 -39 75c-1 -2 -22 -49 -39 -75l-48 -73h-144z" />
    <glyph glyph-name="y" unicode="y" horiz-adv-x="490" 
d="M67 -212l111 252l-169 386h149l61 -164c15 -40 30 -110 30 -110s13 71 29 110l66 164h137l-279 -638h-135z" />
    <glyph glyph-name="z" unicode="z" horiz-adv-x="442" 
d="M23 0v11l185 306h-162v109h368v-11l-189 -306h173v-109h-375z" />
    <glyph glyph-name="braceleft" unicode="{" horiz-adv-x="414" 
d="M299 -128c-81 0 -158 31 -158 144v156c0 47 -18 66 -57 66h-58v114h58c39 0 57 19 57 66v160c0 113 77 144 158 144h85v-114h-73c-28 0 -34 -12 -34 -34v-173c0 -72 -39 -97 -93 -106c54 -9 93 -34 93 -106v-169c0 -22 6 -34 34 -34h73v-114h-85z" />
    <glyph glyph-name="bar" unicode="|" horiz-adv-x="278" 
d="M74 -128v850h130v-850h-130z" />
    <glyph glyph-name="braceright" unicode="}" horiz-adv-x="414" 
d="M30 -128v114h73c28 0 34 12 34 34v169c0 72 39 97 93 106c-54 9 -93 34 -93 106v173c0 22 -6 34 -34 34h-73v114h85c81 0 158 -31 158 -144v-160c0 -47 18 -66 57 -66h58v-114h-58c-39 0 -57 -19 -57 -66v-156c0 -113 -77 -144 -158 -144h-85z" />
    <glyph glyph-name="asciitilde" unicode="~" horiz-adv-x="408" 
d="M124 205l-91 9c5 94 52 140 111 140c27 0 47 -10 63 -20c23 -14 34 -25 48 -25c18 0 26 15 29 45l91 -9c-5 -94 -51 -140 -111 -140c-26 0 -47 10 -63 20c-23 14 -33 25 -48 25c-17 0 -26 -15 -29 -45z" />
    <glyph glyph-name="exclamdown" unicode="&#xa1;" horiz-adv-x="283" 
d="M141 686c46 0 85 -35 85 -85c0 -49 -39 -84 -85 -84c-45 0 -84 35 -84 84c0 50 39 85 84 85zM195 449l22 -449h-151l22 449h107z" />
    <glyph glyph-name="cent" unicode="&#xa2;" horiz-adv-x="483" 
d="M237 -7c-115 15 -199 102 -199 221c0 118 83 205 199 219v108h67v-108c66 -6 111 -35 150 -83l-94 -76c-11 18 -31 34 -56 41v-207c26 7 42 21 59 38l89 -78c-37 -42 -82 -69 -148 -75v-109h-67v109zM237 315c-40 -13 -64 -50 -64 -101c0 -52 24 -91 64 -105v206z" />
    <glyph glyph-name="sterling" unicode="&#xa3;" horiz-adv-x="579" 
d="M174 245h-97v102h51c-11 28 -19 57 -19 86c0 103 76 185 217 185c94 0 165 -44 202 -121l-111 -66c-22 46 -47 67 -91 67c-48 0 -81 -24 -81 -73c0 -25 7 -51 17 -78h155v-102h-117c11 -33 19 -68 19 -105v-9c27 -13 54 -23 83 -23c34 0 59 15 81 39l79 -81
c-36 -49 -92 -75 -154 -75c-58 0 -102 23 -138 49c-31 -29 -73 -49 -120 -49c-80 0 -131 46 -131 110s52 102 114 102c22 0 43 -4 62 -10c-5 17 -13 35 -21 52zM198 100c-18 14 -34 23 -52 23c-19 0 -32 -11 -32 -26s13 -26 33 -26c24 0 42 12 51 29z" />
    <glyph glyph-name="fraction" unicode="&#x2044;" horiz-adv-x="452" 
d="M-42 0l402 680h134l-402 -680h-134z" />
    <glyph glyph-name="yen" unicode="&#xa5;" horiz-adv-x="572" 
d="M217 0v106h-169v86h168l-32 56h-136v86h87l-111 188h150l78 -146c24 -46 39 -103 39 -103s16 58 40 103l79 146h138l-112 -188h87v-86h-136l-32 -56h168v-86h-169v-106h-137z" />
    <glyph glyph-name="florin" unicode="&#x192;" horiz-adv-x="408" 
d="M48 -212l45 393h-60v108h72l19 161c13 116 72 168 167 168c64 0 100 -24 127 -61l-80 -77c-10 16 -21 24 -39 24c-23 0 -38 -12 -42 -43l-20 -172h106v-108h-118l-45 -393h-132z" />
    <glyph glyph-name="section" unicode="&#xa7;" horiz-adv-x="525" 
d="M118 379c-19 25 -29 54 -29 89c0 89 74 150 172 150c90 0 141 -35 177 -102l-107 -52c-15 27 -32 46 -64 46c-37 0 -51 -18 -51 -37c0 -21 9 -35 37 -45l103 -38c93 -34 141 -82 141 -151c0 -59 -36 -96 -85 -118c16 -22 25 -48 25 -83c0 -88 -68 -141 -184 -141
c-99 0 -174 51 -197 107l105 55c15 -30 40 -53 85 -53c37 0 56 12 56 30c0 16 -8 27 -38 38l-94 36c-97 37 -142 83 -142 157c0 56 41 93 90 112zM344 173c19 9 29 22 29 42c0 27 -15 44 -52 58l-103 39c-14 5 -28 11 -40 18c-17 -8 -26 -22 -26 -42c0 -27 12 -45 49 -59
l97 -36c16 -6 32 -13 46 -20z" />
    <glyph glyph-name="quotesingle" unicode="'" horiz-adv-x="216" 
d="M51 433l-15 247h144l-15 -247h-114z" />
    <glyph glyph-name="quotedblleft" unicode="&#x201c;" horiz-adv-x="459" 
d="M339 413c-44 0 -82 34 -82 79c0 31 12 55 30 86l60 102h65l-38 -114c24 -11 45 -38 45 -73c0 -46 -38 -80 -80 -80zM122 413c-44 0 -82 34 -82 79c0 31 12 55 30 86l60 102h65l-38 -114c24 -11 45 -38 45 -73c0 -46 -38 -80 -80 -80z" />
    <glyph glyph-name="guillemotleft" unicode="&#xab;" horiz-adv-x="504" 
d="M342 32l-95 168v8l95 165h130l-98 -169l98 -172h-130zM127 32l-95 168v8l95 165h130l-98 -169l98 -172h-130z" />
    <glyph glyph-name="guilsinglleft" unicode="&#x2039;" horiz-adv-x="289" 
d="M127 32l-95 168v8l95 165h130l-98 -169l98 -172h-130z" />
    <glyph glyph-name="guilsinglright" unicode="&#x203a;" horiz-adv-x="289" 
d="M32 32l98 169l-98 172h130l95 -168v-8l-95 -165h-130z" />
    <glyph glyph-name="endash" unicode="&#x2013;" horiz-adv-x="406" 
d="M30 167v120h346v-120h-346z" />
    <glyph glyph-name="dagger" unicode="&#x2020;" horiz-adv-x="362" 
d="M120 241v231h-89v111h89v97h122v-97h89v-111h-89v-231h-122z" />
    <glyph glyph-name="daggerdbl" unicode="&#x2021;" horiz-adv-x="362" 
d="M120 241v97h-89v99h89v47h-89v99h89v97h122v-97h89v-99h-89v-47h89v-99h-89v-97h-122z" />
    <glyph glyph-name="periodcentered" unicode="&#xb7;" horiz-adv-x="249" 
d="M125 173c-46 0 -85 35 -85 85c0 49 39 84 85 84c45 0 84 -35 84 -84c0 -50 -39 -85 -84 -85z" />
    <glyph glyph-name="paragraph" unicode="&#xb6;" horiz-adv-x="668" 
d="M265 0v243h-3c-158 0 -230 98 -230 215c0 115 82 222 240 222h325v-680h-133v563h-66v-563h-133z" />
    <glyph glyph-name="bullet" unicode="&#x2022;" horiz-adv-x="277" 
d="M138 170c-57 0 -107 47 -107 108c0 62 50 108 107 108s108 -46 108 -108c0 -61 -51 -108 -108 -108z" />
    <glyph glyph-name="quotesinglbase" unicode="&#x201a;" horiz-adv-x="242" 
d="M47 -102l38 114c-24 11 -45 38 -45 73c0 46 38 80 80 80c44 0 82 -34 82 -79c0 -31 -12 -55 -30 -86l-60 -102h-65z" />
    <glyph glyph-name="quotedblbase" unicode="&#x201e;" horiz-adv-x="459" 
d="M264 -102l38 114c-24 11 -45 38 -45 73c0 46 38 80 80 80c44 0 82 -34 82 -79c0 -31 -12 -55 -30 -86l-60 -102h-65zM47 -102l38 114c-24 11 -45 38 -45 73c0 46 38 80 80 80c44 0 82 -34 82 -79c0 -31 -12 -55 -30 -86l-60 -102h-65z" />
    <glyph glyph-name="quotedblright" unicode="&#x201d;" horiz-adv-x="459" 
d="M264 420l38 114c-24 11 -45 38 -45 73c0 46 38 80 80 80c44 0 82 -34 82 -79c0 -31 -12 -55 -30 -86l-60 -102h-65zM47 420l38 114c-24 11 -45 38 -45 73c0 46 38 80 80 80c44 0 82 -34 82 -79c0 -31 -12 -55 -30 -86l-60 -102h-65z" />
    <glyph glyph-name="guillemotright" unicode="&#xbb;" horiz-adv-x="504" 
d="M247 32l98 169l-98 172h130l95 -168v-8l-95 -165h-130zM32 32l98 169l-98 172h130l95 -168v-8l-95 -165h-130z" />
    <glyph glyph-name="ellipsis" unicode="&#x2026;" horiz-adv-x="739" 
d="M615 -6c-46 0 -85 35 -85 85c0 49 39 84 85 84c45 0 84 -35 84 -84c0 -50 -39 -85 -84 -85zM370 -6c-46 0 -85 35 -85 85c0 49 39 84 85 84c45 0 84 -35 84 -84c0 -50 -39 -85 -84 -85zM125 -6c-46 0 -85 35 -85 85c0 49 39 84 85 84c45 0 84 -35 84 -84
c0 -50 -39 -85 -84 -85z" />
    <glyph glyph-name="perthousand" unicode="&#x2030;" horiz-adv-x="1224" 
d="M189 217c-90 0 -164 65 -164 157c0 91 74 157 164 157c89 0 163 -66 163 -157c0 -92 -74 -157 -163 -157zM196 0l330 522h133l-330 -522h-133zM1036 -9c-90 0 -164 65 -164 157c0 91 74 157 164 157c89 0 163 -66 163 -157c0 -92 -74 -157 -163 -157zM667 -9
c-90 0 -164 65 -164 157c0 91 74 157 164 157c89 0 163 -66 163 -157c0 -92 -74 -157 -163 -157zM189 318c26 0 52 21 52 56s-26 56 -52 56s-52 -21 -52 -56s26 -56 52 -56zM1036 92c26 0 52 21 52 56s-26 56 -52 56s-52 -21 -52 -56s26 -56 52 -56zM667 92
c26 0 52 21 52 56s-26 56 -52 56s-52 -21 -52 -56s26 -56 52 -56z" />
    <glyph glyph-name="questiondown" unicode="&#xbf;" horiz-adv-x="513" 
d="M277 686c46 0 85 -35 85 -85c0 -49 -39 -84 -85 -84c-45 0 -84 35 -84 84c0 50 39 85 84 85zM339 449v-159h-46c-82 0 -112 -45 -112 -95c0 -42 32 -84 84 -84c55 0 82 25 106 65l108 -63c-36 -79 -109 -122 -214 -122c-143 0 -222 99 -222 204c0 107 60 179 170 195v59
h126z" />
    <glyph glyph-name="grave" unicode="`" 
d="M198 500l-104 188h154l52 -188h-102z" />
    <glyph glyph-name="acute" unicode="&#xb4;" 
d="M200 500l52 188h154l-104 -188h-102z" />
    <glyph glyph-name="circumflex" unicode="&#x2c6;" 
d="M85 500l159 216h11l159 -216h-108l-56 65l-57 -65h-108z" />
    <glyph glyph-name="tilde" unicode="&#x2dc;" 
d="M170 506l-91 9c5 94 52 140 111 140c27 0 47 -10 63 -20c23 -14 34 -25 48 -25c18 0 26 15 29 45l91 -9c-5 -94 -51 -140 -111 -140c-26 0 -47 10 -63 20c-23 14 -33 25 -48 25c-17 0 -26 -15 -29 -45z" />
    <glyph glyph-name="macron" unicode="&#xaf;" 
d="M118 516v99h264v-99h-264z" />
    <glyph glyph-name="breve" unicode="&#x2d8;" 
d="M250 500c-96 0 -154 60 -162 140l103 15c5 -34 22 -57 59 -57s54 23 59 57l103 -15c-8 -80 -66 -140 -162 -140z" />
    <glyph glyph-name="dotaccent" unicode="&#x2d9;" 
d="M250 497c-46 0 -86 35 -86 85c0 49 40 84 86 84s85 -35 85 -84c0 -50 -39 -85 -85 -85z" />
    <glyph glyph-name="dieresis" unicode="&#xa8;" 
d="M354 506c-39 0 -76 34 -76 76s37 76 76 76c40 0 76 -34 76 -76s-36 -76 -76 -76zM146 506c-39 0 -76 34 -76 76s37 76 76 76c40 0 76 -34 76 -76s-36 -76 -76 -76z" />
    <glyph glyph-name="ring" unicode="&#x2da;" 
d="M250 474c-73 0 -129 55 -129 119c0 65 56 119 129 119s129 -54 129 -119c0 -64 -56 -119 -129 -119zM250 548c24 0 43 16 43 45s-19 45 -43 45s-43 -16 -43 -45s19 -45 43 -45z" />
    <glyph glyph-name="cedilla" unicode="&#xb8;" 
d="M259 -240c-62 0 -98 26 -118 60l64 39c8 -15 20 -28 43 -28c19 0 36 11 36 34s-17 34 -41 34h-34v101h69v-39c46 -9 89 -42 89 -104c0 -60 -54 -97 -108 -97z" />
    <glyph glyph-name="hungarumlaut" unicode="&#x2dd;" 
d="M292 500l51 188h140l-89 -188h-102zM107 500l51 188h140l-89 -188h-102z" />
    <glyph glyph-name="ogonek" unicode="&#x2db;" 
d="M243 -240c-57 0 -107 33 -107 101c0 34 17 65 40 94l35 45h79l-41 -69c-20 -34 -26 -45 -26 -68c0 -18 11 -29 28 -29c21 0 32 12 41 26l66 -38c-23 -40 -55 -62 -115 -62z" />
    <glyph glyph-name="caron" unicode="&#x2c7;" 
d="M245 481l-159 216h108l56 -65l57 65h108l-159 -216h-11z" />
    <glyph glyph-name="emdash" unicode="&#x2014;" horiz-adv-x="657" 
d="M30 167v120h597v-120h-597z" />
    <glyph glyph-name="AE" unicode="&#xc6;" horiz-adv-x="990" 
d="M15 0l467 680h435v-123h-310v-156h273v-120h-273v-158h324v-123h-464v94h-242l-62 -94h-148zM306 212h161v180c0 36 8 85 9 94c-3 -7 -22 -54 -42 -84z" />
    <glyph glyph-name="ordfeminine" unicode="&#xaa;" horiz-adv-x="428" 
d="M260 376c-2 39 -22 55 -57 55c-44 0 -65 -18 -81 -33l-73 69c30 30 74 64 169 64c88 0 164 -49 164 -162v-207h-122l3 45c-23 -34 -58 -54 -103 -54c-70 0 -129 36 -129 113c0 75 62 110 146 110h83zM260 304h-72c-26 0 -36 -13 -36 -29c0 -14 12 -28 41 -28
c48 0 67 22 67 47v10z" />
    <glyph glyph-name="Lslash" unicode="&#x141;" horiz-adv-x="571" 
d="M81 0v217l-74 -25v122l74 25v341h140v-292l180 62v-122l-180 -62v-143h308v-123h-448z" />
    <glyph glyph-name="Oslash" unicode="&#xd8;" horiz-adv-x="800" 
d="M114 -10l-78 77l74 70c-39 57 -62 126 -62 203c0 201 156 349 352 349c81 0 155 -25 214 -69l72 69l78 -77l-74 -70c39 -56 62 -125 62 -202c0 -201 -156 -349 -352 -349c-80 0 -154 25 -213 68c-38 -36 -73 -69 -73 -69zM212 235l307 294c-32 23 -73 36 -119 36
c-124 0 -209 -98 -209 -225c0 -39 7 -74 21 -105zM400 115c124 0 209 98 209 225c0 38 -7 74 -20 104l-308 -294c33 -23 73 -35 119 -35z" />
    <glyph glyph-name="OE" unicode="&#x152;" horiz-adv-x="997" 
d="M405 0c-209 0 -358 139 -358 340s148 340 358 340h519v-123h-310v-156h273v-120h-273v-158h324v-123h-533zM412 123h62v434h-62c-151 0 -220 -90 -220 -217s69 -217 220 -217z" />
    <glyph glyph-name="ordmasculine" unicode="&#xba;" horiz-adv-x="479" 
d="M240 152c-112 0 -201 80 -201 190c0 108 89 189 201 189c111 0 200 -81 200 -189c0 -110 -89 -190 -200 -190zM240 255c46 0 75 34 75 87c0 51 -29 85 -75 85c-47 0 -74 -34 -74 -85c0 -53 27 -87 74 -87z" />
    <glyph glyph-name="ae" unicode="&#xe6;" horiz-adv-x="804" 
d="M304 251c-2 51 -25 73 -71 73c-51 0 -78 -22 -97 -39l-75 80c40 39 85 70 185 70c60 0 107 -20 137 -62c37 39 90 62 156 62c153 0 236 -116 226 -263h-323c13 -44 49 -69 110 -69c49 0 86 19 107 34l77 -83c-41 -36 -93 -63 -182 -63c-81 0 -141 26 -179 71
c-34 -45 -89 -71 -168 -71c-102 0 -176 37 -176 134c0 91 69 126 174 126h99zM440 251h189c-5 43 -34 74 -89 74c-52 0 -89 -24 -100 -74zM304 172h-92c-33 0 -49 -13 -49 -38c0 -24 20 -38 58 -38c55 0 83 24 83 60v16z" />
    <glyph glyph-name="dotlessi" unicode="&#x131;" horiz-adv-x="251" 
d="M58 0v426h135v-426h-135z" />
    <glyph glyph-name="lslash" unicode="&#x142;" horiz-adv-x="286" 
d="M76 0v207l-68 -38v130l68 38v385h134v-310l73 41v-130l-73 -41v-282h-134z" />
    <glyph glyph-name="oslash" unicode="&#xf8;" horiz-adv-x="545" 
d="M473 328c22 -33 34 -73 34 -116c0 -129 -102 -221 -234 -221c-55 0 -106 17 -146 47l-61 -52l-52 62l58 48c-22 34 -34 73 -34 116c0 130 103 223 235 223c54 0 105 -17 145 -47l61 52l52 -63zM172 181l154 130c-15 8 -33 13 -53 13c-63 0 -104 -45 -104 -112
c0 -11 1 -21 3 -31zM373 244l-155 -130c15 -9 34 -14 55 -14c63 0 103 46 103 112c0 11 -1 22 -3 32z" />
    <glyph glyph-name="oe" unicode="&#x153;" horiz-adv-x="867" 
d="M505 172c13 -44 49 -69 110 -69c49 0 86 19 107 34l77 -83c-41 -36 -93 -63 -182 -63c-82 0 -141 28 -179 74c-34 -46 -90 -74 -165 -74c-132 0 -235 92 -235 221c0 130 103 223 235 223c74 0 129 -27 164 -73c35 46 91 73 165 73c153 0 235 -115 226 -263h-323zM503 250
h189c-6 47 -36 75 -89 75s-89 -24 -100 -75zM273 105c60 0 96 44 96 107c0 64 -36 107 -96 107s-97 -43 -97 -107c0 -63 37 -107 97 -107z" />
    <glyph glyph-name="germandbls" unicode="&#xdf;" horiz-adv-x="582" 
d="M327 -6c-40 0 -72 6 -87 11l15 111c15 -5 27 -8 48 -8c68 0 103 36 103 106c0 87 -58 120 -145 117v106c48 6 86 30 86 99c0 62 -28 88 -77 88s-82 -34 -82 -103v-521h-135v517c0 142 91 218 217 218c133 0 206 -78 206 -193c0 -67 -30 -112 -78 -139
c88 -26 146 -89 146 -193c0 -127 -77 -216 -217 -216z" />
    <glyph glyph-name="trademark" unicode="&#x2122;" horiz-adv-x="711" 
d="M341 378v306h10l147 -147l147 147h10v-306h-90v123l-62 -71h-9l-63 71v-123h-90zM116 378v228h-81v74h254v-74h-81v-228h-92z" />
    <glyph glyph-name="Eth" unicode="&#xd0;" horiz-adv-x="685" 
d="M71 0v278h-59v121h59v281h209c209 0 358 -139 358 -340s-148 -340 -358 -340h-209zM211 123h62c151 0 220 90 220 217s-69 217 -220 217h-62v-158h151v-121h-151v-155z" />
    <glyph glyph-name="Thorn" unicode="&#xde;" horiz-adv-x="601" 
d="M71 0v680h140v-108h99c139 0 253 -69 253 -228s-115 -229 -253 -229h-99v-115h-140zM211 238h95c69 0 113 31 113 106c0 76 -46 105 -113 105h-95v-211z" />
    <glyph glyph-name="divide" unicode="&#xf7;" horiz-adv-x="411" 
d="M372 207h-333v118h333v-118zM206 360c-44 0 -81 34 -81 81s37 80 81 80c43 0 80 -33 80 -80s-37 -81 -80 -81zM206 11c-44 0 -81 34 -81 81s37 80 81 80c43 0 80 -33 80 -80s-37 -81 -80 -81z" />
    <glyph glyph-name="degree" unicode="&#xb0;" horiz-adv-x="332" 
d="M166 268c-76 0 -140 59 -140 132c0 75 64 131 140 131c77 0 140 -56 140 -131c0 -73 -63 -132 -140 -132zM166 348c29 0 50 21 50 52s-21 51 -50 51s-50 -20 -50 -51s21 -52 50 -52z" />
    <glyph glyph-name="thorn" unicode="&#xfe;" horiz-adv-x="555" 
d="M57 -212v934h135v-356c28 42 69 69 134 69c104 0 190 -90 190 -221s-89 -223 -193 -223c-65 0 -109 27 -131 66v-269h-135zM284 109c57 0 93 38 93 105c0 63 -36 102 -93 102c-58 0 -96 -39 -96 -102c0 -67 38 -105 96 -105z" />
    <glyph glyph-name="registered" unicode="&#xae;" horiz-adv-x="503" 
d="M166 363v217h95c58 0 90 -33 90 -75c0 -31 -14 -54 -38 -66l41 -76h-69l-33 66h-20v-66h-66zM250 253c-122 0 -221 91 -221 218c0 128 99 218 221 218c123 0 224 -90 224 -218c0 -127 -101 -218 -224 -218zM250 301c98 0 171 64 171 168c0 109 -73 172 -171 172
c-97 0 -168 -63 -168 -172c0 -104 71 -168 168 -168zM232 477h31c12 0 23 7 23 25c0 16 -11 21 -23 21h-31v-46z" />
    <glyph glyph-name="minus" unicode="&#x2212;" horiz-adv-x="411" 
d="M372 207h-333v118h333v-118z" />
    <glyph glyph-name="eth" unicode="&#xf0;" horiz-adv-x="545" 
d="M266 528l-57 -55l-62 61l61 59c-21 21 -43 41 -67 61l70 85c26 -20 54 -41 81 -66l56 54l62 -61l-56 -53c84 -91 153 -212 153 -369c0 -170 -102 -253 -234 -253s-235 92 -235 221c0 131 105 223 211 223c37 0 65 -7 88 -24c-14 37 -39 77 -71 117zM273 105
c60 0 96 44 96 107c0 64 -36 107 -96 107s-97 -43 -97 -107c0 -63 37 -107 97 -107z" />
    <glyph glyph-name="multiply" unicode="&#xd7;" horiz-adv-x="408" 
d="M204 184l-89 -89l-82 82l89 89l-89 89l82 82l89 -89l89 89l82 -82l-89 -89l89 -89l-82 -82z" />
    <glyph glyph-name="copyright" unicode="&#xa9;" horiz-adv-x="594" 
d="M299 -5c-144 0 -270 113 -270 268s126 268 270 268c142 0 266 -113 266 -268s-124 -268 -266 -268zM299 54c111 0 204 82 204 209s-93 209 -204 209c-114 0 -208 -82 -208 -209s94 -209 208 -209zM304 116c-90 0 -154 61 -154 147c0 87 64 149 150 149
c61 0 100 -28 124 -54l-71 -66c-11 14 -26 22 -44 22c-30 0 -45 -20 -45 -51c0 -28 16 -51 47 -51c23 0 36 11 43 21l72 -63c-24 -28 -61 -54 -122 -54z" />
    <glyph glyph-name="Aacute" unicode="&#xc1;" horiz-adv-x="664" 
d="M21 0l299 686h12l311 -686h-147l-38 92h-264l-38 -92h-135zM275 738l52 188h154l-104 -188h-102zM241 209h167l-43 103c-19 45 -39 114 -41 121c-1 -3 -21 -74 -40 -121z" />
    <glyph glyph-name="Acircumflex" unicode="&#xc2;" horiz-adv-x="664" 
d="M21 0l299 686h12l311 -686h-147l-38 92h-264l-38 -92h-135zM160 738l159 216h11l159 -216h-108l-56 65l-57 -65h-108zM241 209h167l-43 103c-19 45 -39 114 -41 121c-1 -3 -21 -74 -40 -121z" />
    <glyph glyph-name="Adieresis" unicode="&#xc4;" horiz-adv-x="664" 
d="M21 0l299 686h12l311 -686h-147l-38 92h-264l-38 -92h-135zM222 739c-39 0 -76 34 -76 76s37 76 76 76c40 0 76 -34 76 -76s-36 -76 -76 -76zM430 739c-39 0 -76 34 -76 76s37 76 76 76c40 0 76 -34 76 -76s-36 -76 -76 -76zM241 209h167l-43 103c-19 45 -39 114 -41 121
c-1 -3 -21 -74 -40 -121z" />
    <glyph glyph-name="Agrave" unicode="&#xc0;" horiz-adv-x="664" 
d="M21 0l299 686h12l311 -686h-147l-38 92h-264l-38 -92h-135zM277 738l-104 188h154l52 -188h-102zM241 209h167l-43 103c-19 45 -39 114 -41 121c-1 -3 -21 -74 -40 -121z" />
    <glyph glyph-name="Aring" unicode="&#xc5;" horiz-adv-x="664" 
d="M21 0l299 686h12l311 -686h-147l-38 92h-264l-38 -92h-135zM326 732c-73 0 -129 55 -129 119c0 65 56 119 129 119s129 -54 129 -119c0 -64 -56 -119 -129 -119zM241 209h167l-43 103c-19 45 -39 114 -41 121c-1 -3 -21 -74 -40 -121zM326 806c24 0 43 16 43 45
s-19 45 -43 45s-43 -16 -43 -45s19 -45 43 -45z" />
    <glyph glyph-name="Atilde" unicode="&#xc3;" horiz-adv-x="664" 
d="M21 0l299 686h12l311 -686h-147l-38 92h-264l-38 -92h-135zM230 742l-96 9c6 94 58 140 123 140c30 0 55 -9 72 -19c26 -14 36 -26 57 -26c20 0 28 15 32 45l96 -9c-6 -94 -57 -140 -123 -140c-29 0 -57 9 -74 19c-26 14 -38 26 -55 26c-18 0 -28 -15 -32 -45zM241 209
h167l-43 103c-19 45 -39 114 -41 121c-1 -3 -21 -74 -40 -121z" />
    <glyph glyph-name="Ccedilla" unicode="&#xc7;" horiz-adv-x="726" 
d="M377 -240c-62 0 -98 26 -118 60l64 39c8 -15 20 -28 43 -28c19 0 36 11 36 34s-17 34 -41 34h-34v99c-161 31 -279 166 -279 342c0 201 155 348 350 348c123 0 211 -44 272 -139l-107 -76c-32 52 -87 89 -165 89c-123 0 -206 -95 -206 -222s83 -224 206 -224
c88 0 137 42 175 100l109 -75c-59 -92 -153 -150 -284 -150h-2v-30c46 -9 89 -42 89 -104c0 -60 -54 -97 -108 -97z" />
    <glyph glyph-name="Eacute" unicode="&#xc9;" horiz-adv-x="594" 
d="M71 0v680h450v-123h-310v-156h273v-120h-273v-158h324v-123h-464zM251 738l52 188h154l-104 -188h-102z" />
    <glyph glyph-name="Ecircumflex" unicode="&#xca;" horiz-adv-x="594" 
d="M71 0v680h450v-123h-310v-156h273v-120h-273v-158h324v-123h-464zM136 738l159 216h11l159 -216h-108l-56 65l-57 -65h-108z" />
    <glyph glyph-name="Edieresis" unicode="&#xcb;" horiz-adv-x="594" 
d="M71 0v680h450v-123h-310v-156h273v-120h-273v-158h324v-123h-464zM406 739c-39 0 -76 34 -76 76s37 76 76 76c40 0 76 -34 76 -76s-36 -76 -76 -76zM198 739c-39 0 -76 34 -76 76s37 76 76 76c40 0 76 -34 76 -76s-36 -76 -76 -76z" />
    <glyph glyph-name="Egrave" unicode="&#xc8;" horiz-adv-x="594" 
d="M71 0v680h450v-123h-310v-156h273v-120h-273v-158h324v-123h-464zM253 738l-104 188h154l52 -188h-102z" />
    <glyph glyph-name="Iacute" unicode="&#xcd;" horiz-adv-x="287" 
d="M74 0v680h140v-680h-140zM93 738l52 188h154l-104 -188h-102z" />
    <glyph glyph-name="Icircumflex" unicode="&#xce;" horiz-adv-x="287" 
d="M74 0v680h140v-680h-140zM-22 738l159 216h11l159 -216h-108l-56 65l-57 -65h-108z" />
    <glyph glyph-name="Idieresis" unicode="&#xcf;" horiz-adv-x="287" 
d="M74 0v680h140v-680h-140zM248 739c-39 0 -76 34 -76 76s37 76 76 76c40 0 76 -34 76 -76s-36 -76 -76 -76zM40 739c-39 0 -76 34 -76 76s37 76 76 76c40 0 76 -34 76 -76s-36 -76 -76 -76z" />
    <glyph glyph-name="Igrave" unicode="&#xcc;" horiz-adv-x="287" 
d="M74 0v680h140v-680h-140zM95 738l-104 188h154l52 -188h-102z" />
    <glyph glyph-name="Ntilde" unicode="&#xd1;" horiz-adv-x="701" 
d="M260 742l-96 9c6 94 58 140 123 140c30 0 55 -9 72 -19c26 -14 36 -26 57 -26c20 0 28 15 32 45l96 -9c-6 -94 -57 -140 -123 -140c-29 0 -57 9 -74 19c-26 14 -38 26 -55 26c-18 0 -28 -15 -32 -45zM616 -6l-343 322c-34 32 -81 93 -81 93s10 -75 10 -124v-285h-131v686
h14l343 -322c33 -31 80 -93 80 -93s-9 77 -9 124v285h131v-686h-14z" />
    <glyph glyph-name="Oacute" unicode="&#xd3;" horiz-adv-x="800" 
d="M400 -9c-196 0 -352 148 -352 349s156 349 352 349s352 -148 352 -349s-156 -349 -352 -349zM400 116c124 0 208 97 208 224s-84 224 -208 224s-208 -97 -208 -224s84 -224 208 -224zM349 738l52 188h154l-104 -188h-102z" />
    <glyph glyph-name="Ocircumflex" unicode="&#xd4;" horiz-adv-x="800" 
d="M400 -9c-196 0 -352 148 -352 349s156 349 352 349s352 -148 352 -349s-156 -349 -352 -349zM400 116c124 0 208 97 208 224s-84 224 -208 224s-208 -97 -208 -224s84 -224 208 -224zM234 738l159 216h11l159 -216h-108l-56 65l-57 -65h-108z" />
    <glyph glyph-name="Odieresis" unicode="&#xd6;" horiz-adv-x="800" 
d="M400 -9c-196 0 -352 148 -352 349s156 349 352 349s352 -148 352 -349s-156 -349 -352 -349zM400 116c124 0 208 97 208 224s-84 224 -208 224s-208 -97 -208 -224s84 -224 208 -224zM504 739c-39 0 -76 34 -76 76s37 76 76 76c40 0 76 -34 76 -76s-36 -76 -76 -76z
M296 739c-39 0 -76 34 -76 76s37 76 76 76c40 0 76 -34 76 -76s-36 -76 -76 -76z" />
    <glyph glyph-name="Ograve" unicode="&#xd2;" horiz-adv-x="800" 
d="M400 -9c-196 0 -352 148 -352 349s156 349 352 349s352 -148 352 -349s-156 -349 -352 -349zM400 116c124 0 208 97 208 224s-84 224 -208 224s-208 -97 -208 -224s84 -224 208 -224zM351 738l-104 188h154l52 -188h-102z" />
    <glyph glyph-name="Otilde" unicode="&#xd5;" horiz-adv-x="800" 
d="M306 742l-96 9c6 94 58 140 123 140c30 0 55 -9 72 -19c26 -14 36 -26 57 -26c20 0 28 15 32 45l96 -9c-6 -94 -57 -140 -123 -140c-29 0 -57 9 -74 19c-26 14 -38 26 -55 26c-18 0 -28 -15 -32 -45zM400 -9c-196 0 -352 148 -352 349s156 349 352 349s352 -148 352 -349
s-156 -349 -352 -349zM400 116c124 0 208 97 208 224s-84 224 -208 224s-208 -97 -208 -224s84 -224 208 -224z" />
    <glyph glyph-name="Scaron" unicode="&#x160;" horiz-adv-x="537" 
d="M267 -9c-130 0 -214 62 -255 143l114 66c30 -49 69 -85 138 -85c58 0 95 29 95 69c0 48 -38 65 -102 93l-35 15c-101 43 -168 97 -168 211c0 105 80 185 205 185c89 0 153 -31 199 -112l-109 -70c-24 43 -50 60 -90 60c-41 0 -67 -26 -67 -60c0 -42 26 -59 86 -85l35 -15
c119 -51 186 -103 186 -220c0 -126 -99 -195 -232 -195zM250 729l-159 216h108l56 -65l57 65h108l-159 -216h-11z" />
    <glyph glyph-name="Uacute" unicode="&#xda;" horiz-adv-x="686" 
d="M344 -9c-157 0 -276 83 -276 255v434h140v-426c0 -99 43 -137 136 -137c92 0 134 38 134 137v426h140v-434c0 -172 -119 -255 -274 -255zM292 738l52 188h154l-104 -188h-102z" />
    <glyph glyph-name="Ucircumflex" unicode="&#xdb;" horiz-adv-x="686" 
d="M344 -9c-157 0 -276 83 -276 255v434h140v-426c0 -99 43 -137 136 -137c92 0 134 38 134 137v426h140v-434c0 -172 -119 -255 -274 -255zM177 738l159 216h11l159 -216h-108l-56 65l-57 -65h-108z" />
    <glyph glyph-name="Udieresis" unicode="&#xdc;" horiz-adv-x="686" 
d="M344 -9c-157 0 -276 83 -276 255v434h140v-426c0 -99 43 -137 136 -137c92 0 134 38 134 137v426h140v-434c0 -172 -119 -255 -274 -255zM447 739c-39 0 -76 34 -76 76s37 76 76 76c40 0 76 -34 76 -76s-36 -76 -76 -76zM239 739c-39 0 -76 34 -76 76s37 76 76 76
c40 0 76 -34 76 -76s-36 -76 -76 -76z" />
    <glyph glyph-name="Ugrave" unicode="&#xd9;" horiz-adv-x="686" 
d="M344 -9c-157 0 -276 83 -276 255v434h140v-426c0 -99 43 -137 136 -137c92 0 134 38 134 137v426h140v-434c0 -172 -119 -255 -274 -255zM294 738l-104 188h154l52 -188h-102z" />
    <glyph glyph-name="Yacute" unicode="&#xdd;" horiz-adv-x="637" 
d="M256 0v249l-236 431h157l96 -185c23 -46 52 -120 55 -128c1 4 28 79 53 128l92 185h144l-220 -421v-259h-141zM277 738l52 188h154l-104 -188h-102z" />
    <glyph glyph-name="Ydieresis" unicode="&#x178;" horiz-adv-x="637" 
d="M256 0v249l-236 431h157l96 -185c23 -46 52 -120 55 -128c1 4 28 79 53 128l92 185h144l-220 -421v-259h-141zM224 739c-39 0 -76 34 -76 76s37 76 76 76c40 0 76 -34 76 -76s-36 -76 -76 -76zM432 739c-39 0 -76 34 -76 76s37 76 76 76c40 0 76 -34 76 -76
s-36 -76 -76 -76z" />
    <glyph glyph-name="Zcaron" unicode="&#x17d;" horiz-adv-x="590" 
d="M27 0v12l312 545h-257v123h473v-12l-311 -545h294v-123h-511zM300 729l-159 216h108l56 -65l57 65h108l-159 -216h-11z" />
    <glyph glyph-name="aacute" unicode="&#xe1;" horiz-adv-x="488" 
d="M304 253c-2 49 -26 71 -71 71c-51 0 -78 -22 -97 -39l-75 80c40 39 85 70 185 70c109 0 192 -59 192 -193v-242h-134l3 59c-32 -49 -69 -68 -126 -68c-78 0 -150 35 -150 134c0 91 69 128 174 128h99zM304 173h-92c-34 0 -49 -15 -49 -39s20 -38 58 -38c55 0 83 24 83 60
v17zM196 500l52 188h154l-104 -188h-102z" />
    <glyph glyph-name="acircumflex" unicode="&#xe2;" horiz-adv-x="488" 
d="M304 253c-2 49 -26 71 -71 71c-51 0 -78 -22 -97 -39l-75 80c40 39 85 70 185 70c109 0 192 -59 192 -193v-242h-134l3 59c-32 -49 -69 -68 -126 -68c-78 0 -150 35 -150 134c0 91 69 128 174 128h99zM304 173h-92c-34 0 -49 -15 -49 -39s20 -38 58 -38c55 0 83 24 83 60
v17zM81 500l159 216h11l159 -216h-108l-56 65l-57 -65h-108z" />
    <glyph glyph-name="adieresis" unicode="&#xe4;" horiz-adv-x="488" 
d="M304 253c-2 49 -26 71 -71 71c-51 0 -78 -22 -97 -39l-75 80c40 39 85 70 185 70c109 0 192 -59 192 -193v-242h-134l3 59c-32 -49 -69 -68 -126 -68c-78 0 -150 35 -150 134c0 91 69 128 174 128h99zM304 173h-92c-34 0 -49 -15 -49 -39s20 -38 58 -38c55 0 83 24 83 60
v17zM351 506c-39 0 -76 34 -76 76s37 76 76 76c40 0 76 -34 76 -76s-36 -76 -76 -76zM143 506c-39 0 -76 34 -76 76s37 76 76 76c40 0 76 -34 76 -76s-36 -76 -76 -76z" />
    <glyph glyph-name="agrave" unicode="&#xe0;" horiz-adv-x="488" 
d="M304 253c-2 49 -26 71 -71 71c-51 0 -78 -22 -97 -39l-75 80c40 39 85 70 185 70c109 0 192 -59 192 -193v-242h-134l3 59c-32 -49 -69 -68 -126 -68c-78 0 -150 35 -150 134c0 91 69 128 174 128h99zM304 173h-92c-34 0 -49 -15 -49 -39s20 -38 58 -38c55 0 83 24 83 60
v17zM198 500l-104 188h154l52 -188h-102z" />
    <glyph glyph-name="aring" unicode="&#xe5;" horiz-adv-x="488" 
d="M304 253c-2 49 -26 71 -71 71c-51 0 -78 -22 -97 -39l-75 80c40 39 85 70 185 70c109 0 192 -59 192 -193v-242h-134l3 59c-32 -49 -69 -68 -126 -68c-78 0 -150 35 -150 134c0 91 69 128 174 128h99zM304 173h-92c-34 0 -49 -15 -49 -39s20 -38 58 -38c55 0 83 24 83 60
v17zM247 474c-73 0 -129 55 -129 119c0 65 56 119 129 119s129 -54 129 -119c0 -64 -56 -119 -129 -119zM247 548c24 0 43 16 43 45s-19 45 -43 45s-43 -16 -43 -45s19 -45 43 -45z" />
    <glyph glyph-name="atilde" unicode="&#xe3;" horiz-adv-x="488" 
d="M304 253c-2 49 -26 71 -71 71c-51 0 -78 -22 -97 -39l-75 80c40 39 85 70 185 70c109 0 192 -59 192 -193v-242h-134l3 59c-32 -49 -69 -68 -126 -68c-78 0 -150 35 -150 134c0 91 69 128 174 128h99zM304 173h-92c-34 0 -49 -15 -49 -39s20 -38 58 -38c55 0 83 24 83 60
v17zM167 506l-91 9c5 94 52 140 111 140c27 0 47 -10 63 -20c23 -14 34 -25 48 -25c18 0 26 15 29 45l91 -9c-5 -94 -51 -140 -111 -140c-26 0 -47 10 -63 20c-23 14 -33 25 -48 25c-17 0 -26 -15 -29 -45z" />
    <glyph glyph-name="ccedilla" unicode="&#xe7;" horiz-adv-x="479" 
d="M245 -240c-62 0 -98 26 -118 60l64 39c8 -15 20 -28 43 -28c19 0 36 11 36 34s-17 34 -41 34h-34v102c-94 28 -157 108 -157 213c0 129 100 221 233 221c85 0 136 -31 179 -85l-96 -78c-16 26 -49 45 -83 45c-61 0 -95 -43 -95 -103c0 -62 34 -106 95 -106
c43 0 66 20 86 40l91 -80c-42 -47 -92 -77 -177 -77h-7v-30c46 -9 89 -42 89 -104c0 -60 -54 -97 -108 -97z" />
    <glyph glyph-name="eacute" unicode="&#xe9;" horiz-adv-x="538" 
d="M176 172c13 -44 49 -69 110 -69c49 0 86 19 107 34l77 -83c-41 -36 -93 -63 -182 -63c-152 0 -250 92 -250 223c0 129 103 221 235 221c153 0 236 -114 226 -263h-323zM174 250h189c-6 47 -36 75 -89 75s-89 -24 -100 -75zM218 500l52 188h154l-104 -188h-102z" />
    <glyph glyph-name="ecircumflex" unicode="&#xea;" horiz-adv-x="538" 
d="M176 172c13 -44 49 -69 110 -69c49 0 86 19 107 34l77 -83c-41 -36 -93 -63 -182 -63c-152 0 -250 92 -250 223c0 129 103 221 235 221c153 0 236 -114 226 -263h-323zM174 250h189c-6 47 -36 75 -89 75s-89 -24 -100 -75zM103 500l159 216h11l159 -216h-108l-56 65
l-57 -65h-108z" />
    <glyph glyph-name="edieresis" unicode="&#xeb;" horiz-adv-x="538" 
d="M176 172c13 -44 49 -69 110 -69c49 0 86 19 107 34l77 -83c-41 -36 -93 -63 -182 -63c-152 0 -250 92 -250 223c0 129 103 221 235 221c153 0 236 -114 226 -263h-323zM174 250h189c-6 47 -36 75 -89 75s-89 -24 -100 -75zM373 506c-39 0 -76 34 -76 76s37 76 76 76
c40 0 76 -34 76 -76s-36 -76 -76 -76zM165 506c-39 0 -76 34 -76 76s37 76 76 76c40 0 76 -34 76 -76s-36 -76 -76 -76z" />
    <glyph glyph-name="egrave" unicode="&#xe8;" horiz-adv-x="538" 
d="M176 172c13 -44 49 -69 110 -69c49 0 86 19 107 34l77 -83c-41 -36 -93 -63 -182 -63c-152 0 -250 92 -250 223c0 129 103 221 235 221c153 0 236 -114 226 -263h-323zM174 250h189c-6 47 -36 75 -89 75s-89 -24 -100 -75zM220 500l-104 188h154l52 -188h-102z" />
    <glyph glyph-name="iacute" unicode="&#xed;" horiz-adv-x="251" 
d="M58 0v426h135v-426h-135zM74 500l52 188h154l-104 -188h-102z" />
    <glyph glyph-name="icircumflex" unicode="&#xee;" horiz-adv-x="251" 
d="M58 0v426h135v-426h-135zM-41 500l159 216h11l159 -216h-108l-56 65l-57 -65h-108z" />
    <glyph glyph-name="idieresis" unicode="&#xef;" horiz-adv-x="251" 
d="M58 0v426h135v-426h-135zM222 506c-39 0 -76 34 -76 76s37 76 76 76c40 0 76 -34 76 -76s-36 -76 -76 -76zM28 506c-39 0 -76 34 -76 76s37 76 76 76c40 0 76 -34 76 -76s-36 -76 -76 -76z" />
    <glyph glyph-name="igrave" unicode="&#xec;" horiz-adv-x="251" 
d="M58 0v426h135v-426h-135zM76 500l-104 188h154l52 -188h-102z" />
    <glyph glyph-name="ntilde" unicode="&#xf1;" horiz-adv-x="530" 
d="M53 0v426h135l-3 -70c26 51 76 79 135 79c93 0 160 -68 160 -189v-246h-135v237c0 48 -23 75 -71 75c-54 0 -86 -30 -86 -84v-228h-135zM181 506l-91 9c5 94 52 140 111 140c27 0 47 -10 63 -20c23 -14 34 -25 48 -25c18 0 26 15 29 45l91 -9c-5 -94 -51 -140 -111 -140
c-26 0 -47 10 -63 20c-23 14 -33 25 -48 25c-17 0 -26 -15 -29 -45z" />
    <glyph glyph-name="oacute" unicode="&#xf3;" horiz-adv-x="545" 
d="M273 -9c-132 0 -235 92 -235 221c0 130 103 223 235 223s234 -93 234 -223c0 -129 -102 -221 -234 -221zM273 105c60 0 96 44 96 107c0 64 -36 107 -96 107s-97 -43 -97 -107c0 -63 37 -107 97 -107zM221 500l52 188h154l-104 -188h-102z" />
    <glyph glyph-name="ocircumflex" unicode="&#xf4;" horiz-adv-x="545" 
d="M273 -9c-132 0 -235 92 -235 221c0 130 103 223 235 223s234 -93 234 -223c0 -129 -102 -221 -234 -221zM273 105c60 0 96 44 96 107c0 64 -36 107 -96 107s-97 -43 -97 -107c0 -63 37 -107 97 -107zM106 500l159 216h11l159 -216h-108l-56 65l-57 -65h-108z" />
    <glyph glyph-name="odieresis" unicode="&#xf6;" horiz-adv-x="545" 
d="M273 -9c-132 0 -235 92 -235 221c0 130 103 223 235 223s234 -93 234 -223c0 -129 -102 -221 -234 -221zM273 105c60 0 96 44 96 107c0 64 -36 107 -96 107s-97 -43 -97 -107c0 -63 37 -107 97 -107zM376 506c-39 0 -76 34 -76 76s37 76 76 76c40 0 76 -34 76 -76
s-36 -76 -76 -76zM168 506c-39 0 -76 34 -76 76s37 76 76 76c40 0 76 -34 76 -76s-36 -76 -76 -76z" />
    <glyph glyph-name="ograve" unicode="&#xf2;" horiz-adv-x="545" 
d="M273 -9c-132 0 -235 92 -235 221c0 130 103 223 235 223s234 -93 234 -223c0 -129 -102 -221 -234 -221zM273 105c60 0 96 44 96 107c0 64 -36 107 -96 107s-97 -43 -97 -107c0 -63 37 -107 97 -107zM223 500l-104 188h154l52 -188h-102z" />
    <glyph glyph-name="otilde" unicode="&#xf5;" horiz-adv-x="545" 
d="M273 -9c-132 0 -235 92 -235 221c0 130 103 223 235 223s234 -93 234 -223c0 -129 -102 -221 -234 -221zM273 105c60 0 96 44 96 107c0 64 -36 107 -96 107s-97 -43 -97 -107c0 -63 37 -107 97 -107zM192 506l-91 9c5 94 52 140 111 140c27 0 47 -10 63 -20
c23 -14 34 -25 48 -25c18 0 26 15 29 45l91 -9c-5 -94 -51 -140 -111 -140c-26 0 -47 10 -63 20c-23 14 -33 25 -48 25c-17 0 -26 -15 -29 -45z" />
    <glyph glyph-name="scaron" unicode="&#x161;" horiz-adv-x="421" 
d="M216 -9c-99 0 -157 37 -194 81l79 70c29 -28 66 -45 106 -45c44 0 58 8 58 26c0 23 -27 23 -96 41c-58 15 -123 47 -123 136c0 96 74 135 165 135c70 0 120 -23 155 -59l-72 -77c-20 17 -50 32 -82 32c-31 0 -46 -8 -46 -25c0 -24 27 -27 85 -40c62 -14 140 -43 140 -133
c0 -78 -41 -142 -175 -142zM204 481l-159 216h108l56 -65l57 65h108l-159 -216h-11z" />
    <glyph glyph-name="uacute" unicode="&#xfa;" horiz-adv-x="528" 
d="M209 -9c-93 0 -159 68 -159 189v246h135v-237c0 -48 23 -76 71 -76c54 0 84 31 84 85v228h135v-426h-135l3 70c-26 -51 -75 -79 -134 -79zM214 500l52 188h154l-104 -188h-102z" />
    <glyph glyph-name="ucircumflex" unicode="&#xfb;" horiz-adv-x="528" 
d="M209 -9c-93 0 -159 68 -159 189v246h135v-237c0 -48 23 -76 71 -76c54 0 84 31 84 85v228h135v-426h-135l3 70c-26 -51 -75 -79 -134 -79zM99 500l159 216h11l159 -216h-108l-56 65l-57 -65h-108z" />
    <glyph glyph-name="udieresis" unicode="&#xfc;" horiz-adv-x="528" 
d="M209 -9c-93 0 -159 68 -159 189v246h135v-237c0 -48 23 -76 71 -76c54 0 84 31 84 85v228h135v-426h-135l3 70c-26 -51 -75 -79 -134 -79zM369 506c-39 0 -76 34 -76 76s37 76 76 76c40 0 76 -34 76 -76s-36 -76 -76 -76zM161 506c-39 0 -76 34 -76 76s37 76 76 76
c40 0 76 -34 76 -76s-36 -76 -76 -76z" />
    <glyph glyph-name="ugrave" unicode="&#xf9;" horiz-adv-x="528" 
d="M209 -9c-93 0 -159 68 -159 189v246h135v-237c0 -48 23 -76 71 -76c54 0 84 31 84 85v228h135v-426h-135l3 70c-26 -51 -75 -79 -134 -79zM216 500l-104 188h154l52 -188h-102z" />
    <glyph glyph-name="yacute" unicode="&#xfd;" horiz-adv-x="490" 
d="M67 -212l111 252l-169 386h149l61 -164c14 -37 28 -100 30 -109c1 6 14 72 29 109l66 164h137l-279 -638h-135zM202 500l52 188h154l-104 -188h-102z" />
    <glyph glyph-name="ydieresis" unicode="&#xff;" horiz-adv-x="490" 
d="M67 -212l111 252l-169 386h149l61 -164c15 -40 30 -110 30 -110s13 71 29 110l66 164h137l-279 -638h-135zM357 506c-39 0 -76 34 -76 76s37 76 76 76c40 0 76 -34 76 -76s-36 -76 -76 -76zM149 506c-39 0 -76 34 -76 76s37 76 76 76c40 0 76 -34 76 -76s-36 -76 -76 -76
z" />
    <glyph glyph-name="zcaron" unicode="&#x17e;" horiz-adv-x="442" 
d="M23 0v11l185 306h-162v109h368v-11l-189 -306h173v-109h-375zM218 481l-159 216h108l56 -65l57 65h108l-159 -216h-11z" />
    <glyph glyph-name="summation" unicode="&#x2211;" horiz-adv-x="625" 
d="M42 0v12l247 329l-251 327v12h523v-123h-195c-34 0 -86 3 -86 3s32 -32 56 -64l110 -149v-12l-114 -153c-22 -29 -55 -60 -58 -63c2 0 51 4 87 4h214v-123h-533z" />
    <glyph glyph-name="uni00A0" unicode="&#xa0;" horiz-adv-x="182" 
 />
    <glyph glyph-name="Euro" unicode="&#x20ac;" horiz-adv-x="598" 
d="M84 283h-58v86h78c41 97 135 162 250 162c92 0 152 -26 204 -90l-93 -78c-29 37 -62 53 -111 53c-44 0 -81 -17 -105 -47h125v-86h-157c-1 -7 -1 -14 -1 -21s0 -14 1 -21h157v-86h-125c25 -31 61 -48 105 -48c61 0 93 26 116 61l99 -74c-52 -73 -114 -103 -215 -103
c-113 0 -209 67 -250 164h-78v86h58c-1 7 -1 14 -1 21s0 14 1 21z" />
    <glyph glyph-name="space_uni0326" 
d="M183 -283l31 97c-22 11 -41 36 -41 69c0 44 36 76 76 76c41 0 78 -32 78 -75c0 -31 -10 -56 -26 -82l-52 -85h-66z" />
    <glyph glyph-name="uni0237" unicode="&#x237;" horiz-adv-x="250" 
d="M40 -222c-50 0 -93 26 -113 51l67 80c11 -10 22 -16 33 -16c21 0 31 12 31 34v499h135v-494c0 -98 -53 -154 -153 -154z" />
    <glyph glyph-name="Dcroat" unicode="&#x110;" horiz-adv-x="685" 
d="M71 0v278h-59v121h59v281h209c209 0 358 -139 358 -340s-148 -340 -358 -340h-209zM211 123h62c151 0 220 90 220 217s-69 217 -220 217h-62v-158h151v-121h-151v-155z" />
    <glyph glyph-name="dcroat" unicode="&#x111;" horiz-adv-x="551" 
d="M363 488h-123v112h123v122h135v-122h64v-112h-64v-488h-135l3 62c-24 -45 -69 -71 -134 -71c-104 0 -193 92 -193 223s88 221 191 221c68 0 106 -27 133 -69v122zM271 109c58 0 96 38 96 105c0 63 -38 102 -96 102c-57 0 -93 -39 -93 -102c0 -67 36 -105 93 -105z" />
    <glyph glyph-name="Abreve" unicode="&#x102;" horiz-adv-x="664" 
d="M21 0l299 686h12l311 -686h-147l-38 92h-264l-38 -92h-135zM326 737c-96 0 -154 60 -162 140l103 15c5 -34 22 -57 59 -57s54 23 59 57l103 -15c-8 -80 -66 -140 -162 -140zM241 209h167l-43 103c-19 45 -39 114 -41 121c-1 -3 -21 -74 -40 -121z" />
    <glyph glyph-name="Amacron" unicode="&#x100;" horiz-adv-x="664" 
d="M21 0l299 686h12l311 -686h-147l-38 92h-264l-38 -92h-135zM194 749v99h264v-99h-264zM241 209h167l-43 103c-19 45 -39 114 -41 121c-1 -3 -21 -74 -40 -121z" />
    <glyph glyph-name="Aogonek" unicode="&#x104;" horiz-adv-x="664" 
d="M580 -240c-57 0 -107 33 -107 101c0 34 17 65 40 94l35 45h-52l-38 92h-264l-38 -92h-135l299 686h12l304 -671l-50 -84c-20 -33 -26 -45 -26 -68c0 -18 11 -29 28 -29c21 0 32 12 41 26l66 -38c-23 -40 -55 -62 -115 -62zM241 209h167l-43 103c-19 45 -39 114 -41 121
c-1 -3 -21 -74 -40 -121z" />
    <glyph glyph-name="Cacute" unicode="&#x106;" horiz-adv-x="715" 
d="M398 -9c-195 0 -350 148 -350 349s155 348 350 348c123 0 211 -44 272 -139l-107 -76c-32 52 -87 89 -165 89c-123 0 -206 -95 -206 -222s83 -224 206 -224c88 0 137 42 175 100l109 -75c-59 -92 -153 -150 -284 -150zM330 738l52 188h154l-104 -188h-102z" />
    <glyph glyph-name="Ccaron" unicode="&#x10c;" horiz-adv-x="715" 
d="M398 -9c-195 0 -350 148 -350 349s155 348 350 348c123 0 211 -44 272 -139l-107 -76c-32 52 -87 89 -165 89c-123 0 -206 -95 -206 -222s83 -224 206 -224c88 0 137 42 175 100l109 -75c-59 -92 -153 -150 -284 -150zM374 729l-159 216h108l56 -65l57 65h108l-159 -216
h-11z" />
    <glyph glyph-name="Ccircumflex" unicode="&#x108;" horiz-adv-x="715" 
d="M398 -9c-195 0 -350 148 -350 349s155 348 350 348c123 0 211 -44 272 -139l-107 -76c-32 52 -87 89 -165 89c-123 0 -206 -95 -206 -222s83 -224 206 -224c88 0 137 42 175 100l109 -75c-59 -92 -153 -150 -284 -150zM215 738l159 216h11l159 -216h-108l-56 65l-57 -65
h-108z" />
    <glyph glyph-name="Cdotaccent" unicode="&#x10a;" horiz-adv-x="715" 
d="M398 -9c-195 0 -350 148 -350 349s155 348 350 348c123 0 211 -44 272 -139l-107 -76c-32 52 -87 89 -165 89c-123 0 -206 -95 -206 -222s83 -224 206 -224c88 0 137 42 175 100l109 -75c-59 -92 -153 -150 -284 -150zM382 730c-46 0 -86 35 -86 85c0 49 40 84 86 84
s85 -35 85 -84c0 -50 -39 -85 -85 -85z" />
    <glyph glyph-name="Dcaron" unicode="&#x10e;" horiz-adv-x="685" 
d="M71 0v680h209c209 0 358 -139 358 -340s-148 -340 -358 -340h-209zM211 123h62c151 0 220 90 220 217s-69 217 -220 217h-62v-434zM286 729l-159 216h108l56 -65l57 65h108l-159 -216h-11z" />
    <glyph glyph-name="Ecaron" unicode="&#x11a;" horiz-adv-x="594" 
d="M71 0v680h450v-123h-310v-156h273v-120h-273v-158h324v-123h-464zM295 729l-159 216h108l56 -65l57 65h108l-159 -216h-11z" />
    <glyph glyph-name="Edotaccent" unicode="&#x116;" horiz-adv-x="594" 
d="M71 0v680h450v-123h-310v-156h273v-120h-273v-158h324v-123h-464zM303 730c-46 0 -86 35 -86 85c0 49 40 84 86 84s85 -35 85 -84c0 -50 -39 -85 -85 -85z" />
    <glyph glyph-name="Emacron" unicode="&#x112;" horiz-adv-x="594" 
d="M71 0v680h450v-123h-310v-156h273v-120h-273v-158h324v-123h-464zM170 749v99h264v-99h-264z" />
    <glyph glyph-name="Eogonek" unicode="&#x118;" horiz-adv-x="594" 
d="M417 -240c-57 0 -107 33 -107 101c0 34 17 65 40 94l35 45h-314v680h450v-123h-310v-156h273v-120h-273v-158h324v-123h-71l-41 -69c-20 -34 -26 -45 -26 -68c0 -18 11 -29 28 -29c21 0 32 12 41 26l66 -38c-23 -40 -55 -62 -115 -62z" />
    <glyph glyph-name="Gbreve" unicode="&#x11e;" horiz-adv-x="739" 
d="M417 -9c-222 0 -369 148 -369 349s142 348 347 348c111 0 191 -30 247 -94l-95 -94c-34 35 -73 62 -152 62c-123 0 -203 -95 -203 -222s82 -224 225 -224c44 0 98 8 133 25v110h-164v123h292v-304c-39 -32 -137 -79 -261 -79zM379 737c-96 0 -154 60 -162 140l103 15
c5 -34 22 -57 59 -57s54 23 59 57l103 -15c-8 -80 -66 -140 -162 -140z" />
    <glyph glyph-name="Gcircumflex" unicode="&#x11c;" horiz-adv-x="739" 
d="M417 -9c-222 0 -369 148 -369 349s142 348 347 348c111 0 191 -30 247 -94l-95 -94c-34 35 -73 62 -152 62c-123 0 -203 -95 -203 -222s82 -224 225 -224c44 0 98 8 133 25v110h-164v123h292v-304c-39 -32 -137 -79 -261 -79zM213 738l159 216h11l159 -216h-108l-56 65
l-57 -65h-108z" />
    <glyph glyph-name="Gcommaaccent" unicode="&#x122;" horiz-adv-x="739" 
d="M417 -9c-222 0 -369 148 -369 349s142 348 347 348c111 0 191 -30 247 -94l-95 -94c-34 35 -73 62 -152 62c-123 0 -203 -95 -203 -222s82 -224 225 -224c44 0 98 8 133 25v110h-164v123h292v-304c-39 -32 -137 -79 -261 -79zM312 -283l31 97c-22 11 -41 36 -41 69
c0 44 36 76 76 76c41 0 78 -32 78 -75c0 -31 -10 -56 -26 -82l-52 -85h-66z" />
    <glyph glyph-name="Gdotaccent" unicode="&#x120;" horiz-adv-x="739" 
d="M417 -9c-222 0 -369 148 -369 349s142 348 347 348c111 0 191 -30 247 -94l-95 -94c-34 35 -73 62 -152 62c-123 0 -203 -95 -203 -222s82 -224 225 -224c44 0 98 8 133 25v110h-164v123h292v-304c-39 -32 -137 -79 -261 -79zM380 730c-46 0 -86 35 -86 85
c0 49 40 84 86 84s85 -35 85 -84c0 -50 -39 -85 -85 -85z" />
    <glyph glyph-name="Hbar" unicode="&#x126;" horiz-adv-x="713" 
d="M1 463v95h70v122h140v-122h291v122h140v-122h70v-95h-70v-463h-140v267h-291v-267h-140v463h-70zM211 392h291v71h-291v-71z" />
    <glyph glyph-name="Hcircumflex" unicode="&#x124;" horiz-adv-x="713" 
d="M71 0v680h140v-288h291v288h140v-680h-140v267h-291v-267h-140zM190 738l159 216h11l159 -216h-108l-56 65l-57 -65h-108z" />
    <glyph glyph-name="Idotaccent" unicode="&#x130;" horiz-adv-x="287" 
d="M74 0v680h140v-680h-140zM145 730c-46 0 -86 35 -86 85c0 49 40 84 86 84s85 -35 85 -84c0 -50 -39 -85 -85 -85z" />
    <glyph glyph-name="Imacron" unicode="&#x12a;" horiz-adv-x="287" 
d="M74 0v680h140v-680h-140zM12 749v99h264v-99h-264z" />
    <glyph glyph-name="Iogonek" unicode="&#x12e;" horiz-adv-x="287" 
d="M116 0h-42v680h140v-648l-60 -101c-21 -36 -26 -45 -26 -68c0 -18 11 -29 28 -29c21 0 32 12 41 26l66 -38c-23 -40 -55 -62 -115 -62c-57 0 -107 33 -107 101c0 34 17 65 40 94z" />
    <glyph glyph-name="Jcircumflex" unicode="&#x134;" horiz-adv-x="496" 
d="M223 -9c-112 0 -177 58 -210 128l114 69c22 -39 42 -72 90 -72c46 0 75 18 75 88v476h140v-478c0 -145 -85 -211 -209 -211zM194 738l159 216h11l159 -216h-108l-56 65l-57 -65h-108z" />
    <glyph glyph-name="Kcommaaccent" unicode="&#x136;" horiz-adv-x="645" 
d="M71 0v680h140v-225c0 -33 -5 -80 -9 -114c16 36 36 75 60 106l182 233h159l-232 -298l256 -382h-169l-181 277l-66 -79v-198h-140zM263 -283l31 97c-22 11 -41 36 -41 69c0 44 36 76 76 76c41 0 78 -32 78 -75c0 -31 -10 -56 -26 -82l-52 -85h-66z" />
    <glyph glyph-name="Lacute" unicode="&#x139;" horiz-adv-x="561" 
d="M71 0v680h140v-557h308v-123h-448zM87 738l52 188h154l-104 -188h-102z" />
    <glyph glyph-name="Lcaron" unicode="&#x13d;" horiz-adv-x="561" 
d="M324 420l38 114c-24 11 -45 38 -45 73c0 46 38 80 80 80c44 0 82 -34 82 -79c0 -31 -12 -55 -30 -86l-60 -102h-65zM71 0v680h140v-557h308v-123h-448z" />
    <glyph glyph-name="Lcommaaccent" unicode="&#x13b;" horiz-adv-x="561" 
d="M71 0v680h140v-557h308v-123h-448zM218 -283l31 97c-22 11 -41 36 -41 69c0 44 36 76 76 76c41 0 78 -32 78 -75c0 -31 -10 -56 -26 -82l-52 -85h-66z" />
    <glyph glyph-name="Nacute" unicode="&#x143;" horiz-adv-x="701" 
d="M616 -6l-343 322c-34 32 -81 93 -81 93s10 -75 10 -124v-285h-131v686h14l343 -322c33 -31 80 -93 80 -93s-9 77 -9 124v285h131v-686h-14zM296 738l52 188h154l-104 -188h-102z" />
    <glyph glyph-name="Ncaron" unicode="&#x147;" horiz-adv-x="701" 
d="M616 -6l-343 322c-34 32 -81 93 -81 93s10 -75 10 -124v-285h-131v686h14l343 -322c33 -31 80 -93 80 -93s-9 77 -9 124v285h131v-686h-14zM339 729l-159 216h108l56 -65l57 65h108l-159 -216h-11z" />
    <glyph glyph-name="Ncommaaccent" unicode="&#x145;" horiz-adv-x="701" 
d="M616 -6l-343 322c-34 32 -81 93 -81 93s10 -75 10 -124v-285h-131v686h14l343 -322c33 -31 80 -93 80 -93s-9 77 -9 124v285h131v-686h-14zM308 -283l31 97c-22 11 -41 36 -41 69c0 44 36 76 76 76c41 0 78 -32 78 -75c0 -31 -10 -56 -26 -82l-52 -85h-66z" />
    <glyph glyph-name="Ohungarumlaut" unicode="&#x150;" horiz-adv-x="800" 
d="M400 -9c-196 0 -352 148 -352 349s156 349 352 349s352 -148 352 -349s-156 -349 -352 -349zM400 116c124 0 208 97 208 224s-84 224 -208 224s-208 -97 -208 -224s84 -224 208 -224zM441 758l51 188h140l-89 -188h-102zM256 758l51 188h140l-89 -188h-102z" />
    <glyph glyph-name="Omacron" unicode="&#x14c;" horiz-adv-x="800" 
d="M400 -9c-196 0 -352 148 -352 349s156 349 352 349s352 -148 352 -349s-156 -349 -352 -349zM400 116c124 0 208 97 208 224s-84 224 -208 224s-208 -97 -208 -224s84 -224 208 -224zM268 749v99h264v-99h-264z" />
    <glyph glyph-name="Racute" unicode="&#x154;" horiz-adv-x="629" 
d="M71 0v680h252c139 0 253 -65 253 -224c0 -103 -54 -168 -133 -199l155 -257h-160l-138 236h-89v-236h-140zM211 354h108c69 0 113 27 113 102c0 76 -46 101 -113 101h-108v-203zM251 738l52 188h154l-104 -188h-102z" />
    <glyph glyph-name="Rcaron" unicode="&#x158;" horiz-adv-x="629" 
d="M71 0v680h252c139 0 253 -65 253 -224c0 -103 -54 -168 -133 -199l155 -257h-160l-138 236h-89v-236h-140zM211 354h108c69 0 113 27 113 102c0 76 -46 101 -113 101h-108v-203zM295 729l-159 216h108l56 -65l57 65h108l-159 -216h-11z" />
    <glyph glyph-name="Rcommaaccent" unicode="&#x156;" horiz-adv-x="629" 
d="M71 0v680h252c139 0 253 -65 253 -224c0 -103 -54 -168 -133 -199l155 -257h-160l-138 236h-89v-236h-140zM211 354h108c69 0 113 27 113 102c0 76 -46 101 -113 101h-108v-203zM256 -283l31 97c-22 11 -41 36 -41 69c0 44 36 76 76 76c41 0 78 -32 78 -75
c0 -31 -10 -56 -26 -82l-52 -85h-66z" />
    <glyph glyph-name="Sacute" unicode="&#x15a;" horiz-adv-x="537" 
d="M267 -9c-130 0 -214 62 -255 143l114 66c30 -49 69 -85 138 -85c58 0 95 29 95 69c0 48 -38 65 -102 93l-35 15c-101 43 -168 97 -168 211c0 105 80 185 205 185c89 0 153 -31 199 -112l-109 -70c-24 43 -50 60 -90 60c-41 0 -67 -26 -67 -60c0 -42 26 -59 86 -85l35 -15
c119 -51 186 -103 186 -220c0 -126 -99 -195 -232 -195zM202 738l52 188h154l-104 -188h-102z" />
    <glyph glyph-name="Scedilla" unicode="&#x15e;" horiz-adv-x="537" 
d="M269 -240c-62 0 -98 26 -118 60l64 39c8 -15 20 -28 43 -28c19 0 36 11 36 34s-17 34 -41 34h-34v95c-103 13 -172 69 -207 140l114 66c30 -49 69 -85 138 -85c58 0 95 29 95 69c0 48 -38 65 -102 93l-35 15c-101 43 -168 97 -168 211c0 105 80 185 205 185
c89 0 153 -31 199 -112l-109 -70c-24 43 -50 60 -90 60c-41 0 -67 -26 -67 -60c0 -42 26 -59 86 -85l35 -15c119 -51 186 -103 186 -220c0 -120 -89 -187 -211 -194v-31c46 -9 89 -42 89 -104c0 -60 -54 -97 -108 -97z" />
    <glyph glyph-name="Scircumflex" unicode="&#x15c;" horiz-adv-x="537" 
d="M267 -9c-130 0 -214 62 -255 143l114 66c30 -49 69 -85 138 -85c58 0 95 29 95 69c0 48 -38 65 -102 93l-35 15c-101 43 -168 97 -168 211c0 105 80 185 205 185c89 0 153 -31 199 -112l-109 -70c-24 43 -50 60 -90 60c-41 0 -67 -26 -67 -60c0 -42 26 -59 86 -85l35 -15
c119 -51 186 -103 186 -220c0 -126 -99 -195 -232 -195zM91 738l159 216h11l159 -216h-108l-56 65l-57 -65h-108z" />
    <glyph glyph-name="Scommaaccent" unicode="&#x218;" horiz-adv-x="537" 
d="M267 -9c-130 0 -214 62 -255 143l114 66c30 -49 69 -85 138 -85c58 0 95 29 95 69c0 48 -38 65 -102 93l-35 15c-101 43 -168 97 -168 211c0 105 80 185 205 185c89 0 153 -31 199 -112l-109 -70c-24 43 -50 60 -90 60c-41 0 -67 -26 -67 -60c0 -42 26 -59 86 -85l35 -15
c119 -51 186 -103 186 -220c0 -126 -99 -195 -232 -195zM190 -283l31 97c-22 11 -41 36 -41 69c0 44 36 76 76 76c41 0 78 -32 78 -75c0 -31 -10 -56 -26 -82l-52 -85h-66z" />
    <glyph glyph-name="Tcaron" unicode="&#x164;" horiz-adv-x="592" 
d="M226 0v557h-194v123h528v-123h-194v-557h-140zM289 729l-159 216h108l56 -65l57 65h108l-159 -216h-11z" />
    <glyph glyph-name="uni021A" unicode="&#x21a;" horiz-adv-x="592" 
d="M226 0v557h-194v123h528v-123h-194v-557h-39v-39c46 -9 89 -42 89 -104c0 -60 -54 -97 -108 -97c-62 0 -98 26 -118 60l64 39c8 -15 20 -28 43 -28c19 0 36 11 36 34s-17 34 -41 34h-34v101h-32z" />
    <glyph glyph-name="Tcommaaccent" unicode="&#x162;" horiz-adv-x="592" 
d="M226 0v557h-194v123h528v-123h-194v-557h-140zM229 -283l31 97c-22 11 -41 36 -41 69c0 44 36 76 76 76c41 0 78 -32 78 -75c0 -31 -10 -56 -26 -82l-52 -85h-66z" />
    <glyph glyph-name="Ubreve" unicode="&#x16c;" horiz-adv-x="686" 
d="M344 -9c-157 0 -276 83 -276 255v434h140v-426c0 -99 43 -137 136 -137c92 0 134 38 134 137v426h140v-434c0 -172 -119 -255 -274 -255zM343 737c-96 0 -154 60 -162 140l103 15c5 -34 22 -57 59 -57s54 23 59 57l103 -15c-8 -80 -66 -140 -162 -140z" />
    <glyph glyph-name="Uhungarumlaut" unicode="&#x170;" horiz-adv-x="686" 
d="M344 -9c-157 0 -276 83 -276 255v434h140v-426c0 -99 43 -137 136 -137c92 0 134 38 134 137v426h140v-434c0 -172 -119 -255 -274 -255zM384 758l51 188h140l-89 -188h-102zM199 758l51 188h140l-89 -188h-102z" />
    <glyph glyph-name="Umacron" unicode="&#x16a;" horiz-adv-x="686" 
d="M344 -9c-157 0 -276 83 -276 255v434h140v-426c0 -99 43 -137 136 -137c92 0 134 38 134 137v426h140v-434c0 -172 -119 -255 -274 -255zM211 749v99h264v-99h-264z" />
    <glyph glyph-name="Uogonek" unicode="&#x172;" horiz-adv-x="686" 
d="M316 -8c-143 9 -248 92 -248 254v434h140v-426c0 -99 43 -137 136 -137c92 0 134 38 134 137v426h140v-434c0 -151 -92 -234 -220 -251l-38 -64c-20 -34 -26 -45 -26 -68c0 -18 11 -29 28 -29c21 0 32 12 41 26l66 -38c-23 -40 -55 -62 -115 -62c-57 0 -107 33 -107 101
c0 34 17 65 40 94z" />
    <glyph glyph-name="Uring" unicode="&#x16e;" horiz-adv-x="686" 
d="M344 -9c-157 0 -276 83 -276 255v434h140v-426c0 -99 43 -137 136 -137c92 0 134 38 134 137v426h140v-434c0 -172 -119 -255 -274 -255zM343 702c-73 0 -129 55 -129 119c0 65 56 119 129 119s129 -54 129 -119c0 -64 -56 -119 -129 -119zM343 776c24 0 43 16 43 45
s-19 45 -43 45s-43 -16 -43 -45s19 -45 43 -45z" />
    <glyph glyph-name="Zacute" unicode="&#x179;" horiz-adv-x="590" 
d="M27 0v12l312 545h-257v123h473v-12l-311 -545h294v-123h-511zM256 738l52 188h154l-104 -188h-102z" />
    <glyph glyph-name="Zdotaccent" unicode="&#x17b;" horiz-adv-x="590" 
d="M27 0v12l312 545h-257v123h473v-12l-311 -545h294v-123h-511zM308 730c-46 0 -86 35 -86 85c0 49 40 84 86 84s85 -35 85 -84c0 -50 -39 -85 -85 -85z" />
    <glyph glyph-name="abreve" unicode="&#x103;" horiz-adv-x="488" 
d="M304 253c-2 49 -26 71 -71 71c-51 0 -78 -22 -97 -39l-75 80c40 39 85 70 185 70c109 0 192 -59 192 -193v-242h-134l3 59c-32 -49 -69 -68 -126 -68c-78 0 -150 35 -150 134c0 91 69 128 174 128h99zM304 173h-92c-34 0 -49 -15 -49 -39s20 -38 58 -38c55 0 83 24 83 60
v17zM247 500c-96 0 -154 60 -162 140l103 15c5 -34 22 -57 59 -57s54 23 59 57l103 -15c-8 -80 -66 -140 -162 -140z" />
    <glyph glyph-name="amacron" unicode="&#x101;" horiz-adv-x="488" 
d="M304 253c-2 49 -26 71 -71 71c-51 0 -78 -22 -97 -39l-75 80c40 39 85 70 185 70c109 0 192 -59 192 -193v-242h-134l3 59c-32 -49 -69 -68 -126 -68c-78 0 -150 35 -150 134c0 91 69 128 174 128h99zM304 173h-92c-34 0 -49 -15 -49 -39s20 -38 58 -38c55 0 83 24 83 60
v17zM115 516v99h264v-99h-264z" />
    <glyph glyph-name="aogonek" unicode="&#x105;" horiz-adv-x="488" 
d="M438 32l-60 -101c-21 -35 -26 -45 -26 -68c0 -18 11 -29 28 -29c21 0 32 12 41 26l66 -38c-23 -40 -55 -62 -115 -62c-57 0 -107 33 -107 101c0 34 17 65 40 94l35 45h-36l3 59c-32 -49 -69 -68 -126 -68c-78 0 -150 35 -150 134c0 91 69 128 174 128h99
c-2 49 -26 71 -71 71c-51 0 -78 -22 -97 -39l-75 80c40 39 85 70 185 70c109 0 192 -59 192 -193v-210zM304 173h-92c-34 0 -49 -15 -49 -39s20 -38 58 -38c55 0 83 24 83 60v17z" />
    <glyph glyph-name="cacute" unicode="&#x107;" horiz-adv-x="477" 
d="M271 -9c-133 0 -233 92 -233 223c0 129 100 221 233 221c85 0 136 -31 179 -85l-96 -78c-16 26 -49 45 -83 45c-61 0 -95 -43 -95 -103c0 -62 34 -106 95 -106c43 0 66 20 86 40l91 -80c-42 -47 -92 -77 -177 -77zM205 500l52 188h154l-104 -188h-102z" />
    <glyph glyph-name="ccaron" unicode="&#x10d;" horiz-adv-x="477" 
d="M271 -9c-133 0 -233 92 -233 223c0 129 100 221 233 221c85 0 136 -31 179 -85l-96 -78c-16 26 -49 45 -83 45c-61 0 -95 -43 -95 -103c0 -62 34 -106 95 -106c43 0 66 20 86 40l91 -80c-42 -47 -92 -77 -177 -77zM249 481l-159 216h108l56 -65l57 65h108l-159 -216h-11z
" />
    <glyph glyph-name="ccircumflex" unicode="&#x109;" horiz-adv-x="477" 
d="M271 -9c-133 0 -233 92 -233 223c0 129 100 221 233 221c85 0 136 -31 179 -85l-96 -78c-16 26 -49 45 -83 45c-61 0 -95 -43 -95 -103c0 -62 34 -106 95 -106c43 0 66 20 86 40l91 -80c-42 -47 -92 -77 -177 -77zM90 500l159 216h11l159 -216h-108l-56 65l-57 -65h-108z
" />
    <glyph glyph-name="cdotaccent" unicode="&#x10b;" horiz-adv-x="477" 
d="M271 -9c-133 0 -233 92 -233 223c0 129 100 221 233 221c85 0 136 -31 179 -85l-96 -78c-16 26 -49 45 -83 45c-61 0 -95 -43 -95 -103c0 -62 34 -106 95 -106c43 0 66 20 86 40l91 -80c-42 -47 -92 -77 -177 -77zM257 497c-46 0 -86 35 -86 85c0 49 40 84 86 84
s85 -35 85 -84c0 -50 -39 -85 -85 -85z" />
    <glyph glyph-name="dcaron" unicode="&#x10f;" horiz-adv-x="693" 
d="M551 420l38 114c-24 11 -45 38 -45 73c0 46 38 80 80 80c44 0 82 -34 82 -79c0 -31 -12 -55 -30 -86l-60 -102h-65zM232 -9c-104 0 -193 92 -193 223s88 221 191 221c68 0 106 -27 133 -69v356h135v-722h-135l3 62c-24 -45 -69 -71 -134 -71zM271 109c58 0 96 38 96 105
c0 63 -38 102 -96 102c-57 0 -93 -39 -93 -102c0 -67 36 -105 93 -105z" />
    <glyph glyph-name="ecaron" unicode="&#x11b;" horiz-adv-x="538" 
d="M176 172c13 -44 49 -69 110 -69c49 0 86 19 107 34l77 -83c-41 -36 -93 -63 -182 -63c-152 0 -250 92 -250 223c0 129 103 221 235 221c153 0 236 -114 226 -263h-323zM174 250h189c-6 47 -36 75 -89 75s-89 -24 -100 -75zM262 481l-159 216h108l56 -65l57 65h108
l-159 -216h-11z" />
    <glyph glyph-name="edotaccent" unicode="&#x117;" horiz-adv-x="538" 
d="M176 172c13 -44 49 -69 110 -69c49 0 86 19 107 34l77 -83c-41 -36 -93 -63 -182 -63c-152 0 -250 92 -250 223c0 129 103 221 235 221c153 0 236 -114 226 -263h-323zM174 250h189c-6 47 -36 75 -89 75s-89 -24 -100 -75zM270 497c-46 0 -86 35 -86 85c0 49 40 84 86 84
s85 -35 85 -84c0 -50 -39 -85 -85 -85z" />
    <glyph glyph-name="emacron" unicode="&#x113;" horiz-adv-x="538" 
d="M176 172c13 -44 49 -69 110 -69c49 0 86 19 107 34l77 -83c-41 -36 -93 -63 -182 -63c-152 0 -250 92 -250 223c0 129 103 221 235 221c153 0 236 -114 226 -263h-323zM174 250h189c-6 47 -36 75 -89 75s-89 -24 -100 -75zM137 516v99h264v-99h-264z" />
    <glyph glyph-name="eogonek" unicode="&#x119;" horiz-adv-x="538" 
d="M355 -240c-57 0 -107 33 -107 101c0 34 17 65 40 94l30 39c-11 -2 -20 -3 -30 -3c-150 0 -250 92 -250 223c0 129 103 221 235 221c153 0 236 -114 226 -263h-323c13 -44 49 -69 110 -69c49 0 86 19 107 34l77 -83c-41 -34 -76 -68 -109 -123c-21 -34 -26 -45 -26 -68
c0 -18 11 -29 28 -29c21 0 32 12 41 26l66 -38c-23 -40 -55 -62 -115 -62zM174 250h189c-6 47 -36 75 -89 75s-89 -24 -100 -75z" />
    <glyph glyph-name="gbreve" unicode="&#x11f;" horiz-adv-x="552" 
d="M269 -222c-113 0 -179 40 -227 105l95 74c30 -37 65 -66 126 -66c62 0 101 37 101 115v51c-23 -39 -67 -66 -132 -66c-104 0 -193 92 -193 223s88 221 191 221c68 0 112 -30 137 -75l-3 66h135v-425c0 -162 -106 -223 -230 -223zM271 109c58 0 96 38 96 105
c0 63 -38 102 -96 102c-57 0 -93 -39 -93 -102c0 -67 36 -105 93 -105zM277 500c-96 0 -154 60 -162 140l103 15c5 -34 22 -57 59 -57s54 23 59 57l103 -15c-8 -80 -66 -140 -162 -140z" />
    <glyph glyph-name="gcircumflex" unicode="&#x11d;" horiz-adv-x="552" 
d="M269 -222c-113 0 -179 40 -227 105l95 74c30 -37 65 -66 126 -66c62 0 101 37 101 115v51c-23 -39 -67 -66 -132 -66c-104 0 -193 92 -193 223s88 221 191 221c68 0 112 -30 137 -75l-3 66h135v-425c0 -162 -106 -223 -230 -223zM271 109c58 0 96 38 96 105
c0 63 -38 102 -96 102c-57 0 -93 -39 -93 -102c0 -67 36 -105 93 -105zM111 500l159 216h11l159 -216h-108l-56 65l-57 -65h-108z" />
    <glyph glyph-name="gcommaaccent" unicode="&#x123;" horiz-adv-x="552" 
d="M269 -222c-113 0 -179 40 -227 105l95 74c30 -37 65 -66 126 -66c62 0 101 37 101 115v51c-23 -39 -67 -66 -132 -66c-104 0 -193 92 -193 223s88 221 191 221c68 0 112 -30 137 -75l-3 66h135v-425c0 -162 -106 -223 -230 -223zM271 109c58 0 96 38 96 105
c0 63 -38 102 -96 102c-57 0 -93 -39 -93 -102c0 -67 36 -105 93 -105zM344 738l-31 -97c22 -11 41 -36 41 -69c0 -44 -36 -76 -76 -76c-41 0 -78 32 -78 75c0 31 10 56 26 82l52 85h66z" />
    <glyph glyph-name="gdotaccent" unicode="&#x121;" horiz-adv-x="552" 
d="M269 -222c-113 0 -179 40 -227 105l95 74c30 -37 65 -66 126 -66c62 0 101 37 101 115v51c-23 -39 -67 -66 -132 -66c-104 0 -193 92 -193 223s88 221 191 221c68 0 112 -30 137 -75l-3 66h135v-425c0 -162 -106 -223 -230 -223zM271 109c58 0 96 38 96 105
c0 63 -38 102 -96 102c-57 0 -93 -39 -93 -102c0 -67 36 -105 93 -105zM278 497c-46 0 -86 35 -86 85c0 49 40 84 86 84s85 -35 85 -84c0 -50 -39 -85 -85 -85z" />
    <glyph glyph-name="hbar" unicode="&#x127;" horiz-adv-x="530" 
d="M-11 488v112h64v122h135v-122h123v-112h-123v-129c26 49 73 76 132 76c93 0 160 -68 160 -189v-246h-135v237c0 48 -23 75 -71 75c-54 0 -86 -30 -86 -84v-228h-135v488h-64z" />
    <glyph glyph-name="hcircumflex" unicode="&#x125;" horiz-adv-x="530" 
d="M53 0v722h135v-363c26 49 73 76 132 76c93 0 160 -68 160 -189v-246h-135v237c0 48 -23 75 -71 75c-54 0 -86 -30 -86 -84v-228h-135zM98 765l159 216h11l159 -216h-108l-56 65l-57 -65h-108z" />
    <glyph glyph-name="idotaccent" horiz-adv-x="251" 
d="M126 497c-46 0 -86 35 -86 85c0 49 40 84 86 84s85 -35 85 -84c0 -50 -39 -85 -85 -85zM58 0v426h135v-426h-135z" />
    <glyph glyph-name="imacron" unicode="&#x12b;" horiz-adv-x="251" 
d="M58 0v426h135v-426h-135zM13 516v99h224v-99h-224z" />
    <glyph glyph-name="iogonek" unicode="&#x12f;" horiz-adv-x="251" 
d="M126 497c-46 0 -86 35 -86 85c0 49 40 84 86 84s85 -35 85 -84c0 -50 -39 -85 -85 -85zM99 0h-41v426h135v-401l-56 -94c-20 -34 -26 -45 -26 -68c0 -18 11 -29 28 -29c21 0 32 12 41 26l66 -38c-23 -40 -55 -62 -115 -62c-57 0 -107 33 -107 101c0 34 17 65 40 94z" />
    <glyph glyph-name="jcircumflex" unicode="&#x135;" horiz-adv-x="250" 
d="M40 -222c-50 0 -93 26 -113 51l67 80c11 -10 22 -16 33 -16c21 0 31 12 31 34v499h135v-494c0 -98 -53 -154 -153 -154zM-43 500l159 216h11l159 -216h-108l-56 65l-57 -65h-108z" />
    <glyph glyph-name="kcommaaccent" unicode="&#x137;" horiz-adv-x="494" 
d="M188 123v-123h-135v722h135v-368c0 -32 -3 -65 -7 -92l140 164h150l-151 -174l167 -252h-157l-106 161zM173 -283l31 97c-22 11 -41 36 -41 69c0 44 36 76 76 76c41 0 78 -32 78 -75c0 -31 -10 -56 -26 -82l-52 -85h-66z" />
    <glyph glyph-name="lacute" unicode="&#x13a;" horiz-adv-x="246" 
d="M56 0v722h134v-722h-134zM72 765l52 188h154l-104 -188h-102z" />
    <glyph glyph-name="lcaron" unicode="&#x13e;" horiz-adv-x="385" 
d="M243 420l38 114c-24 11 -45 38 -45 73c0 46 38 80 80 80c44 0 82 -34 82 -79c0 -31 -12 -55 -30 -86l-60 -102h-65zM56 0v722h134v-722h-134z" />
    <glyph glyph-name="lcommaaccent" unicode="&#x13c;" horiz-adv-x="246" 
d="M56 0v722h134v-722h-134zM56 -283l31 97c-22 11 -41 36 -41 69c0 44 36 76 76 76c41 0 78 -32 78 -75c0 -31 -10 -56 -26 -82l-52 -85h-66z" />
    <glyph glyph-name="nacute" unicode="&#x144;" horiz-adv-x="530" 
d="M53 0v426h135l-3 -70c26 51 76 79 135 79c93 0 160 -68 160 -189v-246h-135v237c0 48 -23 75 -71 75c-54 0 -86 -30 -86 -84v-228h-135zM210 500l52 188h154l-104 -188h-102z" />
    <glyph glyph-name="ncaron" unicode="&#x148;" horiz-adv-x="530" 
d="M53 0v426h135l-3 -70c26 51 76 79 135 79c93 0 160 -68 160 -189v-246h-135v237c0 48 -23 75 -71 75c-54 0 -86 -30 -86 -84v-228h-135zM254 481l-159 216h108l56 -65l57 65h108l-159 -216h-11z" />
    <glyph glyph-name="ncommaaccent" unicode="&#x146;" horiz-adv-x="530" 
d="M53 0v426h135l-3 -70c26 51 76 79 135 79c93 0 160 -68 160 -189v-246h-135v237c0 48 -23 75 -71 75c-54 0 -86 -30 -86 -84v-228h-135zM194 -283l31 97c-22 11 -41 36 -41 69c0 44 36 76 76 76c41 0 78 -32 78 -75c0 -31 -10 -56 -26 -82l-52 -85h-66z" />
    <glyph glyph-name="ohungarumlaut" unicode="&#x151;" horiz-adv-x="545" 
d="M273 -9c-132 0 -235 92 -235 221c0 130 103 223 235 223s234 -93 234 -223c0 -129 -102 -221 -234 -221zM273 105c60 0 96 44 96 107c0 64 -36 107 -96 107s-97 -43 -97 -107c0 -63 37 -107 97 -107zM313 500l51 188h140l-89 -188h-102zM128 500l51 188h140l-89 -188
h-102z" />
    <glyph glyph-name="omacron" unicode="&#x14d;" horiz-adv-x="545" 
d="M273 -9c-132 0 -235 92 -235 221c0 130 103 223 235 223s234 -93 234 -223c0 -129 -102 -221 -234 -221zM273 105c60 0 96 44 96 107c0 64 -36 107 -96 107s-97 -43 -97 -107c0 -63 37 -107 97 -107zM140 516v99h264v-99h-264z" />
    <glyph glyph-name="racute" unicode="&#x155;" horiz-adv-x="392" 
d="M53 0v426h135l-2 -77c31 70 81 86 125 86c28 0 49 -8 66 -17l-43 -123c-17 8 -33 13 -52 13c-61 0 -94 -28 -94 -119v-189h-135zM164 500l52 188h154l-104 -188h-102z" />
    <glyph glyph-name="rcaron" unicode="&#x159;" horiz-adv-x="392" 
d="M53 0v426h135l-2 -77c31 70 81 86 125 86c28 0 49 -8 66 -17l-43 -123c-17 8 -33 13 -52 13c-61 0 -94 -28 -94 -119v-189h-135zM208 481l-159 216h108l56 -65l57 65h108l-159 -216h-11z" />
    <glyph glyph-name="rcommaaccent" unicode="&#x157;" horiz-adv-x="392" 
d="M53 0v426h135l-2 -77c31 70 81 86 125 86c28 0 49 -8 66 -17l-43 -123c-17 8 -33 13 -52 13c-61 0 -94 -28 -94 -119v-189h-135zM56 -283l31 97c-22 11 -41 36 -41 69c0 44 36 76 76 76c41 0 78 -32 78 -75c0 -31 -10 -56 -26 -82l-52 -85h-66z" />
    <glyph glyph-name="sacute" unicode="&#x15b;" horiz-adv-x="421" 
d="M216 -9c-99 0 -157 37 -194 81l79 70c29 -28 66 -45 106 -45c44 0 58 8 58 26c0 23 -27 23 -96 41c-58 15 -123 47 -123 136c0 96 74 135 165 135c70 0 120 -23 155 -59l-72 -77c-20 17 -50 32 -82 32c-31 0 -46 -8 -46 -25c0 -24 27 -27 85 -40c62 -14 140 -43 140 -133
c0 -78 -41 -142 -175 -142zM160 500l52 188h154l-104 -188h-102z" />
    <glyph glyph-name="scedilla" unicode="&#x15f;" horiz-adv-x="421" 
d="M215 -240c-62 0 -98 26 -118 60l64 39c8 -15 20 -28 43 -28c19 0 36 11 36 34s-17 34 -41 34h-34v96c-69 10 -113 41 -143 77l79 70c29 -28 66 -45 106 -45c44 0 58 8 58 26c0 23 -27 23 -96 41c-58 15 -123 47 -123 136c0 96 74 135 165 135c70 0 120 -23 155 -59
l-72 -77c-20 17 -50 32 -82 32c-31 0 -46 -8 -46 -25c0 -24 27 -27 85 -40c62 -14 140 -43 140 -133c0 -75 -37 -136 -157 -141v-31c46 -9 89 -42 89 -104c0 -60 -54 -97 -108 -97z" />
    <glyph glyph-name="scircumflex" unicode="&#x15d;" horiz-adv-x="421" 
d="M216 -9c-99 0 -157 37 -194 81l79 70c29 -28 66 -45 106 -45c44 0 58 8 58 26c0 23 -27 23 -96 41c-58 15 -123 47 -123 136c0 96 74 135 165 135c70 0 120 -23 155 -59l-72 -77c-20 17 -50 32 -82 32c-31 0 -46 -8 -46 -25c0 -24 27 -27 85 -40c62 -14 140 -43 140 -133
c0 -78 -41 -142 -175 -142zM45 500l159 216h11l159 -216h-108l-56 65l-57 -65h-108z" />
    <glyph glyph-name="scommaaccent" unicode="&#x219;" horiz-adv-x="421" 
d="M216 -9c-99 0 -157 37 -194 81l79 70c29 -28 66 -45 106 -45c44 0 58 8 58 26c0 23 -27 23 -96 41c-58 15 -123 47 -123 136c0 96 74 135 165 135c70 0 120 -23 155 -59l-72 -77c-20 17 -50 32 -82 32c-31 0 -46 -8 -46 -25c0 -24 27 -27 85 -40c62 -14 140 -43 140 -133
c0 -78 -41 -142 -175 -142zM144 -283l31 97c-22 11 -41 36 -41 69c0 44 36 76 76 76c41 0 78 -32 78 -75c0 -31 -10 -56 -26 -82l-52 -85h-66z" />
    <glyph glyph-name="tcaron" unicode="&#x165;" horiz-adv-x="505" 
d="M363 420l38 114c-24 11 -45 38 -45 73c0 46 38 80 80 80c44 0 82 -34 82 -79c0 -31 -12 -55 -30 -86l-60 -102h-65zM242 -11c-86 0 -148 43 -148 171v154h-63v112h63v152h134v-152h109v-112h-109v-158c0 -43 14 -52 35 -52c22 0 38 12 47 18l51 -94
c-21 -17 -57 -39 -119 -39z" />
    <glyph glyph-name="uni021B" unicode="&#x21b;" horiz-adv-x="382" 
d="M242 -11h-2v-28c46 -9 89 -42 89 -104c0 -60 -54 -97 -108 -97c-62 0 -98 26 -118 60l64 39c8 -15 20 -28 43 -28c19 0 36 11 36 34s-17 34 -41 34h-34v103c-47 21 -77 69 -77 158v154h-63v112h63v152h134v-152h109v-112h-109v-158c0 -43 14 -52 35 -52c22 0 38 12 47 18
l51 -94c-21 -17 -57 -39 -119 -39z" />
    <glyph glyph-name="tcommaaccent" unicode="&#x163;" horiz-adv-x="382" 
d="M242 -11c-86 0 -148 43 -148 171v154h-63v112h63v152h134v-152h109v-112h-109v-158c0 -43 14 -52 35 -52c22 0 38 12 47 18l51 -94c-21 -17 -57 -39 -119 -39zM142 -283l31 97c-22 11 -41 36 -41 69c0 44 36 76 76 76c41 0 78 -32 78 -75c0 -31 -10 -56 -26 -82l-52 -85
h-66z" />
    <glyph glyph-name="ubreve" unicode="&#x16d;" horiz-adv-x="528" 
d="M209 -9c-93 0 -159 68 -159 189v246h135v-237c0 -48 23 -76 71 -76c54 0 84 31 84 85v228h135v-426h-135l3 70c-26 -51 -75 -79 -134 -79zM265 500c-96 0 -154 60 -162 140l103 15c5 -34 22 -57 59 -57s54 23 59 57l103 -15c-8 -80 -66 -140 -162 -140z" />
    <glyph glyph-name="uhungarumlaut" unicode="&#x171;" horiz-adv-x="528" 
d="M209 -9c-93 0 -159 68 -159 189v246h135v-237c0 -48 23 -76 71 -76c54 0 84 31 84 85v228h135v-426h-135l3 70c-26 -51 -75 -79 -134 -79zM306 500l51 188h140l-89 -188h-102zM121 500l51 188h140l-89 -188h-102z" />
    <glyph glyph-name="umacron" unicode="&#x16b;" horiz-adv-x="528" 
d="M209 -9c-93 0 -159 68 -159 189v246h135v-237c0 -48 23 -76 71 -76c54 0 84 31 84 85v228h135v-426h-135l3 70c-26 -51 -75 -79 -134 -79zM133 516v99h264v-99h-264z" />
    <glyph glyph-name="uogonek" unicode="&#x173;" horiz-adv-x="528" 
d="M340 0l3 70c-26 -51 -75 -79 -134 -79c-93 0 -159 68 -159 189v246h135v-237c0 -48 23 -76 71 -76c54 0 84 31 84 85v228h135v-394l-60 -101c-20 -34 -26 -45 -26 -68c0 -18 11 -29 28 -29c21 0 32 12 41 26l66 -38c-23 -40 -55 -62 -115 -62c-57 0 -107 33 -107 101
c0 34 17 65 40 94l35 45h-37z" />
    <glyph glyph-name="uring" unicode="&#x16f;" horiz-adv-x="528" 
d="M209 -9c-93 0 -159 68 -159 189v246h135v-237c0 -48 23 -76 71 -76c54 0 84 31 84 85v228h135v-426h-135l3 70c-26 -51 -75 -79 -134 -79zM265 474c-73 0 -129 55 -129 119c0 65 56 119 129 119s129 -54 129 -119c0 -64 -56 -119 -129 -119zM265 548c24 0 43 16 43 45
s-19 45 -43 45s-43 -16 -43 -45s19 -45 43 -45z" />
    <glyph glyph-name="zacute" unicode="&#x17a;" horiz-adv-x="442" 
d="M23 0v11l185 306h-162v109h368v-11l-189 -306h173v-109h-375zM174 500l52 188h154l-104 -188h-102z" />
    <glyph glyph-name="zdotaccent" unicode="&#x17c;" horiz-adv-x="442" 
d="M23 0v11l185 306h-162v109h368v-11l-189 -306h173v-109h-375zM226 497c-46 0 -86 35 -86 85c0 49 40 84 86 84s85 -35 85 -84c0 -50 -39 -85 -85 -85z" />
    <glyph glyph-name="space.lining" horiz-adv-x="221" 
 />
    <glyph glyph-name="dollar.lining" horiz-adv-x="550" 
d="M244 -8c-106 8 -185 62 -227 140l113 65c30 -48 58 -78 114 -85v172c-120 42 -194 103 -194 219c0 99 76 175 194 184v86h67v-88c75 -9 133 -43 173 -110l-108 -69c-17 31 -39 48 -65 57v-155c123 -45 203 -101 203 -218c0 -127 -87 -187 -203 -197v-109h-67v108z
M244 567c-38 -7 -56 -33 -56 -59c0 -40 16 -59 56 -76v135zM311 116c40 10 63 35 63 69c0 38 -26 59 -63 75v-144z" />
    <glyph glyph-name="cent.lining" horiz-adv-x="483" 
d="M237 -7c-115 15 -199 102 -199 221c0 118 83 205 199 219v108h67v-108c66 -6 111 -35 150 -83l-94 -76c-11 18 -31 34 -56 41v-207c26 7 42 21 59 38l89 -78c-37 -42 -82 -69 -148 -75v-109h-67v109zM237 315c-40 -13 -64 -50 -64 -101c0 -52 24 -91 64 -105v206z" />
    <glyph glyph-name="Euro.lining" horiz-adv-x="664" 
d="M381 -9c-128 0 -242 79 -283 228h-72v96h58c-1 7 -1 15 -1 25c0 6 0 16 1 23h-58v96h72c38 145 150 229 281 229c115 0 193 -45 245 -146l-121 -66c-28 59 -61 89 -125 89c-63 0 -110 -39 -135 -106h196v-96h-214c-1 -7 -1 -17 -1 -23c0 -10 0 -17 1 -25h214v-96h-195
c28 -70 77 -106 137 -106c68 0 105 38 135 101l121 -62c-51 -111 -134 -161 -256 -161z" />
    <glyph glyph-name="sterling.lining" horiz-adv-x="644" 
d="M194 273h-106v96h57c-16 35 -28 73 -28 114c0 120 92 205 233 205c115 0 181 -54 220 -130l-113 -60c-22 43 -53 71 -107 71c-53 0 -91 -25 -91 -86c0 -40 14 -76 31 -114h201v-96h-162c9 -27 15 -56 15 -88c0 -17 -2 -34 -6 -50c29 -15 59 -27 96 -27c43 0 70 20 96 50
l85 -80c-54 -65 -96 -87 -181 -87c-65 0 -110 25 -145 54c-35 -34 -85 -54 -143 -54c-73 0 -127 46 -127 113s54 115 127 115c27 0 51 -5 72 -14c-4 22 -12 45 -24 68zM210 116c-18 13 -36 22 -57 22c-27 0 -41 -13 -41 -32s16 -32 40 -32c27 0 47 14 58 42z" />
    <glyph glyph-name="yen.lining" horiz-adv-x="659" 
d="M267 0v123h-202v96h202v30l-16 28h-186v96h134l-168 307h157l98 -187c25 -48 55 -128 55 -128s28 78 53 128l90 187h144l-157 -307h139v-96h-188l-14 -27v-31h202v-96h-202v-123h-141z" />
    <glyph glyph-name="florin.lining" horiz-adv-x="410" 
d="M50 -212l49 428h-66v108h78l23 196c13 116 72 168 167 168c64 0 101 -24 128 -61l-81 -77c-10 16 -21 24 -39 24c-23 0 -38 -12 -42 -43l-24 -207h105v-108h-117l-49 -428h-132z" />
    <glyph glyph-name="zero.lining" horiz-adv-x="678" 
d="M339 -9c-151 0 -299 107 -299 349s148 349 299 349s299 -107 299 -349s-148 -349 -299 -349zM339 115c88 0 153 70 153 225s-65 225 -153 225s-153 -70 -153 -225s65 -225 153 -225z" />
    <glyph glyph-name="one.lining" horiz-adv-x="366" 
d="M153 0v555h-122v125h263v-680h-141z" />
    <glyph glyph-name="two.lining" horiz-adv-x="565" 
d="M8 0v12l280 292c72 75 94 121 94 166c0 48 -29 89 -91 89c-61 0 -101 -45 -121 -112l-142 28c28 123 119 213 264 213c144 0 233 -91 233 -217c0 -75 -35 -142 -114 -225l-84 -88c-19 -19 -48 -39 -48 -39s31 4 56 4h186v-123h-513z" />
    <glyph glyph-name="three.lining" horiz-adv-x="567" 
d="M275 -9c-126 0 -230 67 -271 160l120 62c24 -47 67 -95 145 -95c73 0 121 46 121 113c0 68 -52 111 -140 111c-48 0 -80 -10 -98 -17l-7 11l138 185c14 18 34 39 34 39s-30 -3 -54 -3h-196v123h462v-12l-133 -180c-23 -31 -44 -49 -44 -49c97 -22 181 -93 181 -215
c0 -153 -115 -233 -258 -233z" />
    <glyph glyph-name="four.lining" horiz-adv-x="648" 
d="M380 0v99h-342v106l471 489h12v-480h89v-115h-89v-99h-141zM248 254c-24 -25 -51 -45 -56 -49c5 1 37 9 69 9h119v127c0 31 7 67 7 67s-21 -31 -47 -58z" />
    <glyph glyph-name="five.lining" horiz-adv-x="581" 
d="M281 -9c-131 0 -226 66 -268 152l120 62c23 -43 62 -87 148 -87c74 0 119 44 119 108c0 70 -54 104 -139 104c-78 0 -130 -31 -170 -63l-12 6v407h417v-123h-295v-128c25 12 52 18 95 18c148 0 250 -88 250 -219c0 -150 -108 -237 -265 -237z" />
    <glyph glyph-name="six.lining" horiz-adv-x="598" 
d="M299 -9c-154 0 -263 106 -263 237c0 65 27 127 67 187l179 265h158l-100 -148c-28 -42 -75 -82 -75 -82c18 7 50 12 69 12c126 0 228 -92 228 -228c0 -134 -106 -243 -263 -243zM298 117c77 0 119 55 119 117c0 63 -40 120 -119 120c-74 0 -119 -55 -119 -120
c0 -62 45 -117 119 -117z" />
    <glyph glyph-name="seven.lining" horiz-adv-x="572" 
d="M88 0l264 555h-327v125h532v-12l-320 -668h-149z" />
    <glyph glyph-name="eight.lining" horiz-adv-x="581" 
d="M291 -9c-157 0 -254 92 -254 218c0 77 42 136 117 167c-43 28 -71 72 -71 132c0 104 97 180 210 180s210 -76 210 -180c0 -61 -29 -105 -73 -133c73 -32 114 -91 114 -166c0 -126 -97 -218 -253 -218zM291 115c67 0 111 41 111 101s-44 100 -111 100
c-68 0 -111 -40 -111 -100s43 -101 111 -101zM293 424c42 0 74 31 74 71c0 42 -32 70 -74 70s-74 -28 -74 -70c0 -40 32 -71 74 -71z" />
    <glyph glyph-name="nine.lining" horiz-adv-x="598" 
d="M161 0l103 153c28 42 62 76 62 76c-17 -8 -48 -12 -64 -12c-127 0 -226 93 -226 229c0 134 106 243 263 243c154 0 263 -106 263 -237c0 -65 -27 -127 -67 -187l-179 -265h-155zM299 326c74 0 119 55 119 120c0 62 -45 117 -119 117c-77 0 -119 -55 -119 -117
c0 -63 40 -120 119 -120z" />
    <glyph glyph-name="percent.lining" horiz-adv-x="947" 
d="M216 322c-100 0 -188 78 -188 183c0 106 88 183 188 183s189 -77 189 -183c0 -105 -89 -183 -189 -183zM194 0l425 680h134l-425 -680h-134zM730 -9c-100 0 -188 78 -188 183c0 106 88 183 188 183s189 -77 189 -183c0 -105 -89 -183 -189 -183zM216 428
c40 0 70 33 70 77c0 46 -30 77 -70 77s-69 -31 -69 -77c0 -44 29 -77 69 -77zM730 97c40 0 70 33 70 77c0 46 -30 77 -70 77s-69 -31 -69 -77c0 -44 29 -77 69 -77z" />
    <glyph glyph-name="perthousand.lining" horiz-adv-x="1371" 
d="M216 322c-100 0 -188 78 -188 183c0 106 88 183 188 183s189 -77 189 -183c0 -105 -89 -183 -189 -183zM194 0l425 680h134l-425 -680h-134zM1154 -9c-100 0 -188 78 -188 183c0 106 88 183 188 183s189 -77 189 -183c0 -105 -89 -183 -189 -183zM730 -9
c-100 0 -188 78 -188 183c0 106 88 183 188 183s189 -77 189 -183c0 -105 -89 -183 -189 -183zM216 428c40 0 70 33 70 77c0 46 -30 77 -70 77s-69 -31 -69 -77c0 -44 29 -77 69 -77zM1154 97c40 0 70 33 70 77c0 46 -30 77 -70 77s-69 -31 -69 -77c0 -44 29 -77 69 -77z
M730 97c40 0 70 33 70 77c0 46 -30 77 -70 77s-69 -31 -69 -77c0 -44 29 -77 69 -77z" />
    <glyph glyph-name="plus.lining" horiz-adv-x="451" 
d="M165 127v130h-126v118h126v130h121v-130h126v-118h-126v-130h-121z" />
    <glyph glyph-name="minus.lining" horiz-adv-x="451" 
d="M412 257h-373v118h373v-118z" />
    <glyph glyph-name="multiply.lining" horiz-adv-x="441" 
d="M220 227l-110 -110l-78 78l110 110l-111 111l78 78l111 -111l112 112l78 -78l-112 -112l111 -111l-78 -78z" />
    <glyph glyph-name="divide.lining" horiz-adv-x="451" 
d="M412 257h-373v118h373v-118zM226 421c-46 0 -84 35 -84 85c0 49 38 84 84 84c45 0 84 -35 84 -84c0 -50 -39 -85 -84 -85zM226 42c-46 0 -84 35 -84 85c0 49 38 84 84 84c45 0 84 -35 84 -84c0 -50 -39 -85 -84 -85z" />
    <glyph glyph-name="equal.lining" horiz-adv-x="445" 
d="M36 328v115h373v-115h-373zM36 153v115h373v-115h-373z" />
    <glyph glyph-name="less.lining" horiz-adv-x="398" 
d="M361 122l-338 187v10l338 185v-117l-147 -74l147 -74v-117z" />
    <glyph glyph-name="greater.lining" horiz-adv-x="398" 
d="M37 122v117l147 74l-147 74v117l338 -187v-10z" />
    <glyph glyph-name="degree.lining" horiz-adv-x="374" 
d="M187 393c-86 0 -157 66 -157 148c0 84 71 147 157 147s157 -63 157 -147c0 -82 -71 -148 -157 -148zM187 480c35 0 59 25 59 61s-24 60 -59 60s-59 -24 -59 -60s24 -61 59 -61z" />
    <glyph glyph-name="period.lining" horiz-adv-x="249" 
d="M125 -6c-46 0 -85 35 -85 85c0 49 39 84 85 84c45 0 84 -35 84 -84c0 -50 -39 -85 -84 -85z" />
    <glyph glyph-name="comma.lining" horiz-adv-x="249" 
d="M52 -115l38 120c-30 14 -50 40 -50 76c0 47 39 82 85 82c45 0 84 -35 84 -84c0 -33 -15 -58 -30 -85l-59 -109h-68z" />
    <glyph glyph-name="colon.lining" horiz-adv-x="259" 
d="M130 224c-46 0 -85 35 -85 85c0 49 39 84 85 84c45 0 84 -35 84 -84c0 -50 -39 -85 -84 -85zM130 -6c-46 0 -85 35 -85 85c0 49 39 84 85 84c45 0 84 -35 84 -84c0 -50 -39 -85 -84 -85z" />
    <glyph glyph-name="semicolon.lining" horiz-adv-x="259" 
d="M130 224c-46 0 -85 35 -85 85c0 49 39 84 85 84c45 0 84 -35 84 -84c0 -50 -39 -85 -84 -85zM57 -115l38 120c-30 14 -50 40 -50 76c0 47 39 82 85 82c45 0 84 -35 84 -84c0 -33 -15 -58 -30 -85l-59 -109h-68z" />
    <glyph glyph-name="parenleft.lining" horiz-adv-x="344" 
d="M238 -137c-88 85 -189 219 -189 428c0 208 101 343 189 428l81 -65c-80 -97 -128 -204 -128 -363c0 -158 48 -266 128 -363z" />
    <glyph glyph-name="parenright.lining" horiz-adv-x="344" 
d="M106 -137l-81 65c80 97 128 204 128 363c0 158 -48 266 -128 363l81 65c88 -85 189 -219 189 -428c0 -208 -101 -343 -189 -428z" />
    <glyph glyph-name="bracketleft.lining" horiz-adv-x="337" 
d="M60 -128v850h247v-114h-112v-622h112v-114h-247z" />
    <glyph glyph-name="bracketright.lining" horiz-adv-x="337" 
d="M30 -128v114h112v622h-112v114h247v-850h-247z" />
    <glyph glyph-name="braceleft.lining" horiz-adv-x="414" 
d="M299 -128c-81 0 -158 31 -158 144v156c0 47 -18 66 -57 66h-58v114h58c39 0 57 19 57 66v160c0 113 77 144 158 144h85v-114h-73c-28 0 -34 -12 -34 -34v-173c0 -72 -39 -97 -93 -106c54 -9 93 -34 93 -106v-169c0 -22 6 -34 34 -34h73v-114h-85z" />
    <glyph glyph-name="braceright.lining" horiz-adv-x="414" 
d="M30 -128v114h73c28 0 34 12 34 34v169c0 72 39 97 93 106c-54 9 -93 34 -93 106v173c0 22 -6 34 -34 34h-73v114h85c81 0 158 -31 158 -144v-160c0 -47 18 -66 57 -66h58v-114h-58c-39 0 -57 -19 -57 -66v-156c0 -113 -77 -144 -158 -144h-85z" />
    <glyph glyph-name="section.lining" horiz-adv-x="575" 
d="M274 -180c-112 0 -191 52 -232 112l106 76c24 -35 62 -66 119 -66c58 0 75 22 75 41c0 23 -16 35 -68 60l-111 52c-88 41 -130 88 -130 162c0 80 48 114 99 132c-27 32 -42 70 -42 117c0 99 73 182 203 182c99 0 153 -44 192 -101l-110 -74c-28 43 -52 54 -82 54
c-41 0 -58 -28 -58 -53c0 -27 10 -45 53 -65l111 -51c99 -46 143 -97 143 -176c0 -67 -38 -107 -95 -132c27 -32 40 -69 40 -110c0 -97 -79 -160 -213 -160zM372 151c23 11 35 27 35 50c0 36 -23 49 -66 69l-111 51l-24 12c-20 -8 -38 -22 -38 -49c0 -30 17 -43 52 -59
l111 -52c15 -7 29 -14 41 -22z" />
    <glyph glyph-name="numbersign.lining" horiz-adv-x="526" 
d="M61 203l25 101h-54v102h79l19 75h-54v102h79l25 97h105l-25 -97h75l25 97h105l-24 -97h53v-102h-78l-19 -75h53v-102h-79l-25 -101h-105l25 101h-75l-25 -101h-105zM217 406h75l19 75h-75z" />
    <glyph glyph-name="space.tab" horiz-adv-x="200" 
 />
    <glyph glyph-name="dollar.tab" horiz-adv-x="520" 
d="M227 -7c-109 9 -163 61 -196 122l99 56c23 -40 47 -66 97 -74v118c-125 37 -169 87 -169 167c0 78 55 140 169 148v101h67v-103c67 -10 111 -44 145 -88l-87 -66c-15 23 -32 41 -58 50v-101c109 -33 178 -87 178 -175c0 -101 -61 -150 -178 -156v-108h-67v109zM294 97
c41 5 53 20 53 44s-8 39 -53 54v-98zM227 429c-36 -5 -47 -19 -47 -38c0 -24 10 -36 47 -49v87z" />
    <glyph glyph-name="cent.tab" horiz-adv-x="520" 
d="M255 -7c-115 15 -199 102 -199 221c0 117 84 204 199 219v108h67v-108c67 -6 112 -36 150 -83l-94 -76c-11 19 -32 34 -56 41v-207c27 7 44 23 59 38l89 -78c-37 -41 -81 -69 -148 -76v-108h-67v109zM255 315c-42 -14 -64 -52 -64 -101c0 -51 22 -90 64 -104v205z" />
    <glyph glyph-name="Euro.tab" horiz-adv-x="520" 
d="M67 283h-46v86h64c36 97 120 162 226 162c89 0 148 -32 193 -96l-94 -74c-26 37 -52 56 -99 56c-39 0 -68 -17 -86 -48h111v-86h-133c-1 -7 -1 -14 -1 -21s0 -14 1 -21h133v-86h-113c17 -32 45 -49 88 -49c52 0 78 28 99 62l102 -64c-39 -67 -98 -113 -199 -113
c-106 0 -192 67 -228 164h-64v86h46c-1 7 -1 14 -1 21s0 14 1 21z" />
    <glyph glyph-name="sterling.tab" horiz-adv-x="520" 
d="M149 245h-94v102h50c-11 29 -19 59 -19 88c0 102 69 183 202 183c95 0 153 -41 189 -114l-111 -63c-20 40 -38 57 -78 57c-39 0 -66 -24 -66 -73c0 -25 7 -51 16 -78h127v-102h-91c11 -33 18 -67 18 -104c0 -4 0 -8 -1 -12c23 -12 47 -21 73 -21c34 0 49 9 71 33l79 -81
c-36 -49 -82 -69 -144 -69c-53 0 -92 21 -124 45c-27 -27 -66 -45 -110 -45c-84 0 -132 46 -132 110s50 102 110 102c20 0 38 -3 55 -9c-5 17 -12 34 -20 51zM175 102c-16 14 -31 23 -48 23c-18 0 -30 -11 -30 -28s13 -28 31 -28c24 0 39 14 47 33z" />
    <glyph glyph-name="yen.tab" horiz-adv-x="520" 
d="M35 96v86h156v7l-25 49h-131v86h86l-103 198h150l67 -144c20 -40 28 -86 30 -95c1 6 10 54 31 95l68 144h138l-103 -198h85v-86h-130l-26 -50v-6h156v-86h-156v-96h-137v96h-156z" />
    <glyph glyph-name="florin.tab" horiz-adv-x="520" 
d="M149 181h-86v108h99l17 152c13 116 77 177 176 177c68 0 120 -28 152 -81l-90 -69c-12 21 -27 36 -55 36c-24 0 -46 -14 -51 -60l-17 -155h124v-108h-137c1 0 -44 -393 -44 -393h-132s45 393 44 393z" />
    <glyph glyph-name="zero.tab" horiz-adv-x="520" 
d="M260 -9c-132 0 -232 107 -232 271c0 165 100 269 232 269c133 0 232 -104 232 -269c0 -164 -99 -271 -232 -271zM260 111c57 0 89 54 89 151s-32 149 -89 149c-56 0 -89 -52 -89 -149s33 -151 89 -151z" />
    <glyph glyph-name="one.tab" horiz-adv-x="520" 
d="M201 112v298h-108v112h245v-410h107v-112h-360v112h116z" />
    <glyph glyph-name="two.tab" horiz-adv-x="520" 
d="M35 0v12l199 211c57 60 84 86 84 129c0 34 -25 57 -63 57c-46 0 -72 -36 -87 -80l-126 34c24 107 109 168 212 168c140 0 204 -83 204 -170c0 -64 -44 -124 -105 -189l-15 -16c-18 -19 -56 -44 -60 -46c2 0 51 5 69 5h116v-115h-428z" />
    <glyph glyph-name="three.tab" horiz-adv-x="520" 
d="M244 -103c-127 0 -196 68 -227 140l118 59c21 -54 55 -79 109 -79c55 0 91 38 91 103c0 66 -57 94 -119 94c-43 0 -61 -8 -80 -18l-10 12l120 168c15 22 33 39 33 39s-31 -5 -61 -5h-146v112h402v-11l-126 -171c-13 -19 -28 -31 -30 -33c81 -15 160 -80 160 -190
c0 -106 -72 -220 -234 -220z" />
    <glyph glyph-name="four.tab" horiz-adv-x="520" 
d="M431 101h66v-101h-66v-94h-134v94h-275v89l395 439h14v-427zM301 97v98c0 21 4 59 5 61c-1 -1 -15 -25 -32 -44l-72 -80c-19 -21 -43 -38 -43 -38s25 3 52 3h90z" />
    <glyph glyph-name="five.tab" horiz-adv-x="520" 
d="M250 -103c-123 0 -196 64 -224 132l118 59c15 -39 44 -71 104 -71c58 0 92 38 92 89c0 55 -36 89 -105 89c-60 0 -103 -25 -133 -49l-12 5v371h350v-112h-238v-116c13 8 43 15 73 15c126 0 209 -89 209 -204c0 -112 -75 -208 -234 -208z" />
    <glyph glyph-name="six.tab" horiz-adv-x="520" 
d="M262 -9c-118 0 -218 75 -218 199c0 72 27 130 77 200l155 219h152l-132 -187c-18 -25 -55 -51 -65 -58c19 10 36 17 62 17c103 0 186 -72 186 -188c0 -125 -98 -202 -217 -202zM261 108c54 0 84 40 84 85s-30 86 -84 86c-53 0 -83 -41 -83 -86s30 -85 83 -85z" />
    <glyph glyph-name="seven.tab" horiz-adv-x="520" 
d="M73 -94l221 504h-250v112h435v-11l-263 -605h-143z" />
    <glyph glyph-name="eight.tab" horiz-adv-x="520" 
d="M261 -10c-131 0 -225 77 -225 192c0 69 39 121 102 149c-48 25 -73 67 -73 119c0 92 65 168 197 168c134 0 196 -76 196 -168c0 -52 -25 -94 -73 -119c63 -28 100 -80 100 -149c0 -115 -91 -192 -224 -192zM261 110c54 0 87 31 87 83c0 53 -33 86 -87 86s-88 -33 -88 -86
c0 -52 34 -83 88 -83zM261 382c37 0 62 24 62 63c0 41 -25 63 -62 63s-65 -22 -65 -63c0 -39 28 -63 65 -63z" />
    <glyph glyph-name="nine.tab" horiz-adv-x="520" 
d="M87 -94l137 194c18 25 55 51 65 57c-20 -10 -37 -16 -62 -16c-103 0 -186 72 -186 188c0 125 98 202 217 202c118 0 218 -75 218 -199c0 -72 -27 -130 -77 -200l-160 -226h-152zM259 243c53 0 83 41 83 86s-30 85 -83 85c-54 0 -84 -40 -84 -85s30 -86 84 -86z" />
    <glyph glyph-name="percent.tab" horiz-adv-x="750" 
d="M160 217c-83 0 -146 65 -146 157c0 91 63 157 146 157c82 0 145 -66 145 -157c0 -92 -63 -157 -145 -157zM143 0l330 522h133l-330 -522h-133zM591 -9c-83 0 -146 65 -146 157c0 91 63 157 146 157c82 0 145 -66 145 -157c0 -92 -63 -157 -145 -157zM160 314
c26 0 40 23 40 60s-14 60 -40 60s-40 -23 -40 -60s14 -60 40 -60zM591 88c26 0 40 23 40 60s-14 60 -40 60s-40 -23 -40 -60s14 -60 40 -60z" />
    <glyph glyph-name="perthousand.tab" horiz-adv-x="1100" 
d="M167 217c-83 0 -146 65 -146 157c0 91 63 157 146 157c82 0 145 -66 145 -157c0 -92 -63 -157 -145 -157zM154 0l330 522h133l-330 -522h-133zM934 -9c-83 0 -146 65 -146 157c0 91 63 157 146 157c82 0 145 -66 145 -157c0 -92 -63 -157 -145 -157zM606 -9
c-83 0 -146 65 -146 157c0 91 63 157 146 157c82 0 145 -66 145 -157c0 -92 -63 -157 -145 -157zM167 314c26 0 40 23 40 60s-14 60 -40 60s-40 -23 -40 -60s14 -60 40 -60zM934 88c26 0 40 23 40 60s-14 60 -40 60s-40 -23 -40 -60s14 -60 40 -60zM606 88c26 0 40 23 40 60
s-14 60 -40 60s-40 -23 -40 -60s14 -60 40 -60z" />
    <glyph glyph-name="plus.tab" horiz-adv-x="520" 
d="M320 207v-130h-121v130h-126v118h126v130h121v-130h126v-118h-126z" />
    <glyph glyph-name="minus.tab" horiz-adv-x="520" 
d="M73 207v118h374v-118h-374z" />
    <glyph glyph-name="multiply.tab" horiz-adv-x="520" 
d="M260 184l-105 -105l-82 82l105 105l-105 105l82 82l105 -105l105 105l82 -82l-105 -105l105 -105l-82 -82z" />
    <glyph glyph-name="divide.tab" horiz-adv-x="520" 
d="M260 360c-44 0 -81 34 -81 81s37 80 81 80c43 0 80 -33 80 -80s-37 -81 -80 -81zM73 207v118h373v-118h-373zM260 11c-44 0 -81 34 -81 81s37 80 81 80c43 0 80 -33 80 -80s-37 -81 -80 -81z" />
    <glyph glyph-name="equal.tab" horiz-adv-x="520" 
d="M70 279v115h380v-115h-380zM70 115v115h380v-115h-380z" />
    <glyph glyph-name="less.tab" horiz-adv-x="520" 
d="M417 52l-348 187v10l348 185v-117l-147 -74l147 -74v-117z" />
    <glyph glyph-name="greater.tab" horiz-adv-x="520" 
d="M103 52v117l147 74l-147 74v117l348 -187v-10z" />
    <glyph glyph-name="degree.tab" horiz-adv-x="350" 
d="M175 268c-76 0 -140 59 -140 132c0 75 64 131 140 131c77 0 140 -56 140 -131c0 -73 -63 -132 -140 -132zM175 348c29 0 50 21 50 52s-21 51 -50 51s-50 -20 -50 -51s21 -52 50 -52z" />
    <glyph glyph-name="period.tab" horiz-adv-x="200" 
d="M100 -6c-44 0 -81 34 -81 81s37 80 81 80c43 0 80 -33 80 -80s-37 -81 -80 -81z" />
    <glyph glyph-name="comma.tab" horiz-adv-x="200" 
d="M29 -115l38 120c-29 13 -48 38 -48 72c0 45 37 78 81 78c43 0 80 -33 80 -80c0 -31 -15 -55 -29 -81l-58 -109h-64z" />
    <glyph glyph-name="colon.tab" horiz-adv-x="200" 
d="M100 228c-44 0 -81 33 -81 81c0 46 37 80 81 80c43 0 80 -34 80 -80c0 -48 -37 -81 -80 -81zM100 -6c-44 0 -81 34 -81 81s37 80 81 80c43 0 80 -33 80 -80s-37 -81 -80 -81z" />
    <glyph glyph-name="semicolon.tab" horiz-adv-x="200" 
d="M100 228c-44 0 -81 33 -81 81c0 46 37 80 81 80c43 0 80 -34 80 -80c0 -48 -37 -81 -80 -81zM29 -115l38 120c-29 13 -48 38 -48 72c0 45 37 78 81 78c43 0 80 -33 80 -80c0 -31 -15 -55 -29 -81l-58 -109h-64z" />
    <glyph glyph-name="parenleft.tab" horiz-adv-x="300" 
d="M201 -134c-82 91 -167 216 -167 425c0 208 85 334 167 425l83 -59c-73 -102 -108 -207 -108 -366c0 -158 35 -264 108 -366z" />
    <glyph glyph-name="parenright.tab" horiz-adv-x="300" 
d="M99 -134l-83 59c73 102 108 208 108 366c0 159 -35 264 -108 366l83 59c82 -91 167 -217 167 -425c0 -209 -85 -334 -167 -425z" />
    <glyph glyph-name="bracketleft.tab" horiz-adv-x="300" 
d="M41 -128v850h237v-114h-102v-622h102v-114h-237z" />
    <glyph glyph-name="bracketright.tab" horiz-adv-x="300" 
d="M21 -128v114h102v622h-102v114h237v-850h-237z" />
    <glyph glyph-name="braceleft.tab" horiz-adv-x="300" 
d="M232 -128c-81 0 -158 31 -158 144v156c0 47 -18 66 -57 66h-18v114h18c39 0 57 19 57 66v160c0 113 77 144 158 144h47v-114h-35c-28 0 -34 -12 -34 -34v-173c0 -72 -39 -97 -93 -106c54 -9 93 -34 93 -106v-169c0 -22 6 -34 34 -34h35v-114h-47z" />
    <glyph glyph-name="braceright.tab" horiz-adv-x="300" 
d="M21 -128v114h35c28 0 34 12 34 34v169c0 72 39 97 93 106c-54 9 -93 34 -93 106v173c0 22 -6 34 -34 34h-35v114h47c81 0 158 -31 158 -144v-160c0 -47 18 -66 57 -66h18v-114h-18c-39 0 -57 -19 -57 -66v-156c0 -113 -77 -144 -158 -144h-47z" />
    <glyph glyph-name="section.tab" horiz-adv-x="520" 
d="M253 -103c-99 0 -174 51 -197 107l105 55c15 -30 40 -53 85 -53c37 0 56 12 56 30c0 16 -8 27 -38 38l-94 36c-99 38 -142 83 -142 157c0 58 42 94 91 112c-19 24 -30 54 -30 89c0 89 74 150 172 150c90 0 141 -35 177 -102l-107 -52c-15 27 -32 46 -64 46
c-37 0 -51 -18 -51 -37c0 -21 9 -35 37 -45l103 -38c93 -34 141 -82 141 -151c0 -59 -35 -95 -85 -118c16 -22 25 -48 25 -83c0 -88 -68 -141 -184 -141zM344 173c19 9 29 22 29 42c0 27 -15 44 -52 58l-103 39c-14 5 -28 11 -40 18c-17 -8 -26 -22 -26 -42
c0 -27 11 -45 49 -59l97 -36c16 -6 32 -13 46 -20z" />
    <glyph glyph-name="numbersign.tab" horiz-adv-x="520" 
d="M127 416h-54v106h80l24 97h109l-24 -97h68l24 97h108l-24 -97h53v-106h-79l-17 -67h52v-106h-79l-25 -101h-108l25 101h-69l-25 -101h-108l25 101h-54v106h81zM304 416h-69l-17 -67h69z" />
    <glyph glyph-name="space.tablining" horiz-adv-x="200" 
 />
    <glyph glyph-name="dollar.tablining" horiz-adv-x="580" 
d="M257 -8c-117 8 -187 68 -227 140l113 65c27 -43 51 -78 114 -85v173c-120 42 -194 103 -194 217c0 93 69 176 194 185v86h67v-88c86 -10 139 -52 173 -110l-108 -69c-12 23 -31 46 -65 57v-155c116 -41 203 -100 203 -218c0 -116 -71 -187 -203 -197v-109h-67v108z
M324 115c51 11 63 42 63 70c0 31 -16 53 -63 74v-144zM257 567c-41 -8 -56 -38 -56 -60c0 -32 7 -52 56 -74v134z" />
    <glyph glyph-name="cent.tablining" horiz-adv-x="580" 
d="M280 -7c-115 15 -199 102 -199 221c0 117 84 204 199 219v108h67v-108c67 -6 112 -36 150 -83l-94 -76c-11 19 -32 34 -56 41v-207c27 7 44 23 59 38l89 -78c-37 -41 -81 -69 -148 -76v-108h-67v109zM280 315c-42 -14 -64 -52 -64 -101c0 -51 22 -90 64 -104v205z" />
    <glyph glyph-name="Euro.tablining" horiz-adv-x="580" 
d="M329 -9c-113 0 -217 71 -253 228h-62v96h51c-1 7 -1 15 -1 25c0 6 0 15 1 23h-51v96h62c34 152 135 229 252 229c109 0 184 -49 227 -156l-121 -57c-25 64 -56 91 -108 91s-89 -39 -107 -107h142v-96h-155c-1 -8 -1 -17 -1 -23c0 -10 0 -17 1 -25h155v-96h-141
c20 -72 61 -106 108 -106c52 0 86 32 113 100l124 -53c-48 -123 -127 -169 -236 -169z" />
    <glyph glyph-name="sterling.tablining" horiz-adv-x="580" 
d="M172 273h-103v96h58c-15 35 -26 73 -26 114c0 120 83 205 220 205c104 0 163 -48 196 -118l-112 -59c-20 43 -42 58 -84 58c-45 0 -78 -27 -78 -86c0 -39 12 -76 26 -114h176v-96h-143c8 -28 13 -57 13 -88c0 -17 -2 -33 -5 -49c25 -16 51 -28 82 -28c43 0 71 25 92 48
l86 -81c-45 -55 -96 -84 -170 -84c-58 0 -100 25 -135 55c-31 -35 -76 -55 -129 -55c-67 0 -127 46 -127 113s52 115 123 115c23 0 43 -4 62 -11c-4 21 -12 43 -22 65zM189 117c-16 13 -32 21 -50 21c-23 0 -37 -14 -37 -32s16 -32 36 -32c25 0 42 13 51 43z" />
    <glyph glyph-name="yen.tablining" horiz-adv-x="580" 
d="M45 123v96h178v33l-12 25h-166v96h123l-145 307h150l85 -197c20 -47 34 -113 36 -122c1 5 17 75 37 122l85 197h140l-144 -307h123v-96h-165l-12 -25v-33h177v-96h-177v-123h-135v123h-178z" />
    <glyph glyph-name="florin.tablining" horiz-adv-x="580" 
d="M184 216h-86v108h98l22 187c13 116 77 177 176 177c68 0 120 -28 152 -81l-90 -69c-12 21 -27 36 -55 36c-24 0 -46 -14 -51 -60l-22 -190h125v-108h-137l-49 -428h-132z" />
    <glyph glyph-name="zero.tablining" horiz-adv-x="580" 
d="M290 -9c-147 0 -259 116 -259 349s112 349 259 349s259 -116 259 -349s-112 -349 -259 -349zM290 115c78 0 113 90 113 225s-35 225 -113 225s-113 -90 -113 -225s35 -225 113 -225z" />
    <glyph glyph-name="one.tablining" horiz-adv-x="580" 
d="M260 0v555h-162v125h303v-680h-141z" />
    <glyph glyph-name="two.tablining" horiz-adv-x="580" 
d="M13 0v12l273 291c68 73 91 122 91 167c0 48 -26 89 -88 89c-61 0 -93 -42 -113 -110l-140 28c28 125 109 211 254 211c144 0 230 -91 230 -217c0 -75 -35 -144 -111 -226l-81 -87c-19 -20 -49 -39 -49 -39s31 4 56 4h181v-123h-503z" />
    <glyph glyph-name="three.tablining" horiz-adv-x="580" 
d="M281 -9c-131 0 -221 63 -264 157l120 62c26 -50 61 -92 138 -92c73 0 118 44 118 112s-51 112 -140 112c-47 0 -80 -10 -98 -17l-7 11l135 185c14 18 34 39 34 39s-30 -3 -54 -3h-182v123h447v-12l-130 -180c-23 -31 -42 -48 -42 -48c106 -26 180 -95 180 -217
c0 -153 -112 -232 -255 -232z" />
    <glyph glyph-name="four.tablining" horiz-adv-x="580" 
d="M476 214h83v-115h-83v-99h-139v99h-308v102l435 493h12v-480zM337 214v114c0 31 7 68 7 68s-20 -33 -41 -56l-74 -82c-26 -28 -54 -50 -54 -50s38 6 74 6h88z" />
    <glyph glyph-name="five.tablining" horiz-adv-x="580" 
d="M274 -9c-121 0 -211 64 -250 148l120 62c21 -45 57 -85 130 -85c68 0 112 40 112 110c0 71 -55 104 -126 104c-74 0 -116 -30 -154 -61l-12 5v406h381v-123h-259v-126c19 9 48 16 83 16c142 0 233 -89 233 -219c0 -149 -108 -237 -258 -237z" />
    <glyph glyph-name="six.tablining" horiz-adv-x="580" 
d="M290 -9c-149 0 -250 103 -250 230c0 63 22 126 60 183l184 276h158l-114 -174c-23 -35 -58 -65 -63 -69c17 8 40 12 53 12c127 0 222 -90 222 -222c0 -130 -97 -236 -250 -236zM290 115c69 0 108 52 108 112c0 61 -39 114 -108 114s-108 -51 -108 -114
c0 -60 39 -112 108 -112z" />
    <glyph glyph-name="seven.tablining" horiz-adv-x="580" 
d="M107 0l242 555h-302v125h499v-12l-290 -668h-149z" />
    <glyph glyph-name="eight.tablining" horiz-adv-x="580" 
d="M290 -9c-157 0 -253 92 -253 218c0 76 42 135 116 167c-44 28 -71 72 -71 132c0 104 97 180 210 180s210 -76 210 -180c0 -61 -29 -105 -73 -133c72 -32 113 -91 113 -166c0 -126 -96 -218 -252 -218zM290 115c70 0 110 40 110 100s-40 99 -110 99
c-71 0 -110 -39 -110 -99s39 -100 110 -100zM292 426c42 0 74 30 74 70c0 42 -32 69 -74 69s-74 -27 -74 -69c0 -40 32 -70 74 -70z" />
    <glyph glyph-name="nine.tablining" horiz-adv-x="580" 
d="M133 0l121 173c23 33 56 64 61 68c-17 -7 -41 -11 -54 -11c-127 0 -221 90 -221 222c0 130 97 236 250 236c149 0 250 -103 250 -230c0 -63 -22 -126 -63 -185l-189 -273h-155zM290 338c69 0 107 51 107 114c0 60 -38 112 -107 112s-107 -52 -107 -112
c0 -61 38 -114 107 -114z" />
    <glyph glyph-name="percent.tablining" horiz-adv-x="800" 
d="M181 322c-90 0 -163 74 -163 183c0 110 73 183 163 183s163 -73 163 -183c0 -109 -73 -183 -163 -183zM120 0l428 680h131l-428 -680h-131zM619 -9c-90 0 -163 74 -163 183c0 110 73 183 163 183s163 -73 163 -183c0 -109 -73 -183 -163 -183zM181 424c34 0 50 35 50 81
c0 48 -16 81 -50 81s-50 -33 -50 -81c0 -46 16 -81 50 -81zM619 93c34 0 50 35 50 81c0 48 -16 81 -50 81s-50 -33 -50 -81c0 -46 16 -81 50 -81z" />
    <glyph glyph-name="perthousand.tablining" horiz-adv-x="1160" 
d="M181 322c-90 0 -163 74 -163 183c0 110 73 183 163 183s163 -73 163 -183c0 -109 -73 -183 -163 -183zM120 0l428 680h131l-428 -680h-131zM979 -9c-90 0 -163 74 -163 183c0 110 73 183 163 183s163 -73 163 -183c0 -109 -73 -183 -163 -183zM619 -9
c-90 0 -163 74 -163 183c0 110 73 183 163 183s163 -73 163 -183c0 -109 -73 -183 -163 -183zM181 424c34 0 50 35 50 81c0 48 -16 81 -50 81s-50 -33 -50 -81c0 -46 16 -81 50 -81zM979 93c34 0 50 35 50 81c0 48 -16 81 -50 81s-50 -33 -50 -81c0 -46 16 -81 50 -81z
M619 93c34 0 50 35 50 81c0 48 -16 81 -50 81s-50 -33 -50 -81c0 -46 16 -81 50 -81z" />
    <glyph glyph-name="plus.tablining" horiz-adv-x="580" 
d="M350 257v-150h-121v150h-146v118h146v150h121v-150h146v-118h-146z" />
    <glyph glyph-name="minus.tablining" horiz-adv-x="580" 
d="M83 257v118h413v-118h-413z" />
    <glyph glyph-name="multiply.tablining" horiz-adv-x="580" 
d="M290 227l-110 -110l-78 78l110 110l-111 111l78 78l111 -111l112 112l78 -78l-112 -112l111 -111l-78 -78z" />
    <glyph glyph-name="divide.tablining" horiz-adv-x="580" 
d="M290 421c-46 0 -84 35 -84 85c0 49 38 84 84 84c45 0 84 -35 84 -84c0 -50 -39 -85 -84 -85zM83 257v118h413v-118h-413zM290 42c-46 0 -84 35 -84 85c0 49 38 84 84 84c45 0 84 -35 84 -84c0 -50 -39 -85 -84 -85z" />
    <glyph glyph-name="equal.tablining" horiz-adv-x="580" 
d="M83 328v115h413v-115h-413zM83 153v115h413v-115h-413z" />
    <glyph glyph-name="less.tablining" horiz-adv-x="580" 
d="M471 107l-388 202v10l388 200v-117l-181 -89l181 -89v-117z" />
    <glyph glyph-name="greater.tablining" horiz-adv-x="580" 
d="M109 107v117l181 89l-181 89v117l388 -200v-10z" />
    <glyph glyph-name="degree.tablining" horiz-adv-x="400" 
d="M200 393c-86 0 -157 66 -157 148c0 84 71 147 157 147s157 -63 157 -147c0 -82 -71 -148 -157 -148zM200 480c35 0 59 25 59 61s-24 60 -59 60s-59 -24 -59 -60s24 -61 59 -61z" />
    <glyph glyph-name="period.tablining" horiz-adv-x="200" 
d="M100 -6c-44 0 -81 34 -81 81s37 80 81 80c43 0 80 -33 80 -80s-37 -81 -80 -81z" />
    <glyph glyph-name="comma.tablining" horiz-adv-x="200" 
d="M29 -115l38 120c-29 13 -48 38 -48 72c0 45 37 78 81 78c43 0 80 -33 80 -80c0 -31 -15 -55 -29 -81l-58 -109h-64z" />
    <glyph glyph-name="colon.tablining" horiz-adv-x="200" 
d="M100 228c-44 0 -81 33 -81 81c0 46 37 80 81 80c43 0 80 -34 80 -80c0 -48 -37 -81 -80 -81zM100 -6c-44 0 -81 34 -81 81s37 80 81 80c43 0 80 -33 80 -80s-37 -81 -80 -81z" />
    <glyph glyph-name="semicolon.tablining" horiz-adv-x="200" 
d="M100 228c-44 0 -81 33 -81 81c0 46 37 80 81 80c43 0 80 -34 80 -80c0 -48 -37 -81 -80 -81zM29 -115l38 120c-29 13 -48 38 -48 72c0 45 37 78 81 78c43 0 80 -33 80 -80c0 -31 -15 -55 -29 -81l-58 -109h-64z" />
    <glyph glyph-name="parenleft.tablining" horiz-adv-x="300" 
d="M201 -134c-82 91 -167 216 -167 425c0 208 85 334 167 425l83 -59c-73 -102 -108 -207 -108 -366c0 -158 35 -264 108 -366z" />
    <glyph glyph-name="parenright.tablining" horiz-adv-x="300" 
d="M99 -134l-83 59c73 102 108 208 108 366c0 159 -35 264 -108 366l83 59c82 -91 167 -217 167 -425c0 -209 -85 -334 -167 -425z" />
    <glyph glyph-name="bracketleft.tablining" horiz-adv-x="300" 
d="M41 -128v850h237v-114h-102v-622h102v-114h-237z" />
    <glyph glyph-name="bracketright.tablining" horiz-adv-x="300" 
d="M21 -128v114h102v622h-102v114h237v-850h-237z" />
    <glyph glyph-name="braceleft.tablining" horiz-adv-x="300" 
d="M232 -128c-81 0 -158 31 -158 144v156c0 47 -18 66 -57 66h-18v114h18c39 0 57 19 57 66v160c0 113 77 144 158 144h47v-114h-35c-28 0 -34 -12 -34 -34v-173c0 -72 -39 -97 -93 -106c54 -9 93 -34 93 -106v-169c0 -22 6 -34 34 -34h35v-114h-47z" />
    <glyph glyph-name="braceright.tablining" horiz-adv-x="300" 
d="M21 -128v114h35c28 0 34 12 34 34v169c0 72 39 97 93 106c-54 9 -93 34 -93 106v173c0 22 -6 34 -34 34h-35v114h47c81 0 158 -31 158 -144v-160c0 -47 18 -66 57 -66h18v-114h-18c-39 0 -57 -19 -57 -66v-156c0 -113 -77 -144 -158 -144h-47z" />
    <glyph glyph-name="section.tablining" horiz-adv-x="580" 
d="M132 389c-27 32 -42 70 -42 117c0 99 73 182 203 182c99 0 153 -44 192 -101l-110 -74c-28 43 -52 54 -82 54c-41 0 -58 -28 -58 -53c0 -27 10 -45 53 -65l111 -51c99 -46 143 -97 143 -176c0 -67 -38 -107 -95 -132c27 -32 40 -69 40 -110c0 -97 -79 -160 -213 -160
c-112 0 -191 52 -232 112l106 76c24 -35 62 -66 119 -66c58 0 75 22 75 41c0 23 -16 35 -68 60l-111 52c-88 41 -130 88 -130 162c0 80 48 114 99 132zM372 151c23 11 35 27 35 50c0 36 -23 49 -66 69l-111 51l-24 12c-20 -8 -38 -22 -38 -49c0 -30 17 -43 52 -59l111 -52
c15 -7 29 -14 41 -22z" />
    <glyph glyph-name="numbersign.tablining" horiz-adv-x="580" 
d="M155 477h-65v106h91l24 97h109l-24 -97h72l24 97h108l-24 -97h64v-106h-90l-17 -67h63v-106h-90l-25 -101h-108l25 101h-73l-25 -101h-108l25 101h-65v106h92zM336 477h-73l-17 -67h73z" />
    <glyph glyph-name="zero.numerator" horiz-adv-x="520" 
d="M260 194c-126 0 -229 96 -229 247c0 152 103 247 229 247s229 -95 229 -247c0 -151 -103 -247 -229 -247zM260 306c59 0 98 46 98 135s-39 135 -98 135s-98 -46 -98 -135s39 -135 98 -135z" />
    <glyph glyph-name="one.numerator" horiz-adv-x="313" 
d="M124 203v364h-99v113h226v-477h-127z" />
    <glyph glyph-name="two.numerator" horiz-adv-x="445" 
d="M13 203v12l208 212c43 44 53 70 53 98c0 29 -23 49 -57 49c-37 0 -63 -21 -82 -65l-114 40c32 86 99 139 197 139c114 0 184 -65 184 -161c0 -50 -29 -100 -78 -151l-24 -25c-20 -21 -56 -42 -60 -44c2 0 44 5 72 5h87v-109h-386z" />
    <glyph glyph-name="three.numerator" horiz-adv-x="433" 
d="M207 195c-102 0 -166 44 -196 117l111 51c13 -32 37 -55 84 -55c40 0 68 24 68 63c0 41 -25 64 -72 64c-33 0 -52 -4 -67 -9l-7 13l65 93c8 11 40 45 40 45s-44 -5 -61 -5h-110v108h342v-11l-83 -118c-17 -23 -35 -36 -38 -37c67 -13 121 -66 121 -150
c0 -113 -94 -169 -197 -169z" />
    <glyph glyph-name="four.numerator" horiz-adv-x="477" 
d="M267 203v58h-234v98l347 329h10v-331h62v-96h-62v-58h-123zM155 353c0 0 41 4 71 4h41v44c0 28 4 65 4 65s-25 -34 -47 -54l-18 -17c-24 -22 -51 -42 -51 -42z" />
    <glyph glyph-name="five.numerator" horiz-adv-x="448" 
d="M216 195c-99 0 -167 39 -204 113l106 55c14 -31 42 -53 89 -53c44 0 75 20 75 53c0 39 -35 59 -86 59c-57 0 -88 -15 -120 -34l-12 7v285h302v-109h-194v-61c16 5 37 9 60 9c108 0 181 -54 181 -158c0 -99 -74 -166 -197 -166z" />
    <glyph glyph-name="six.numerator" horiz-adv-x="454" 
d="M228 195c-118 0 -198 76 -198 169c0 48 19 91 55 141l125 175h139l-65 -92c-25 -35 -61 -58 -68 -62c10 3 24 5 34 5c102 0 178 -63 178 -161c0 -95 -77 -175 -200 -175zM229 299c47 0 73 33 73 70s-26 70 -73 70s-73 -33 -73 -70s26 -70 73 -70z" />
    <glyph glyph-name="seven.numerator" horiz-adv-x="435" 
d="M69 203l175 364h-213v113h390v-11l-222 -466h-130z" />
    <glyph glyph-name="eight.numerator" horiz-adv-x="447" 
d="M224 195c-110 0 -195 60 -195 151c0 54 34 95 88 117c-38 21 -59 54 -59 94c0 73 59 131 166 131c110 0 165 -58 165 -131c0 -40 -19 -73 -57 -94c53 -23 86 -63 86 -117c0 -91 -82 -151 -194 -151zM224 299c41 0 70 23 70 59c0 39 -29 62 -70 62c-43 0 -71 -23 -71 -62
c0 -36 28 -59 71 -59zM226 505c28 0 48 18 48 46c0 29 -23 45 -51 45c-29 0 -49 -16 -49 -45c0 -28 23 -46 52 -46z" />
    <glyph glyph-name="nine.numerator" horiz-adv-x="454" 
d="M101 203l72 93c26 34 58 56 64 60c-10 -3 -24 -4 -33 -4c-102 0 -178 63 -178 161c0 95 77 175 200 175c118 0 198 -76 198 -169c0 -48 -17 -92 -56 -143l-129 -173h-138zM225 444c47 0 73 34 73 70s-26 70 -73 70s-73 -34 -73 -70s26 -70 73 -70z" />
    <glyph glyph-name="zero.denominator" horiz-adv-x="520" 
d="M260 -7c-126 0 -229 96 -229 247c0 152 103 247 229 247s229 -95 229 -247c0 -151 -103 -247 -229 -247zM260 105c59 0 98 46 98 135s-39 135 -98 135s-98 -46 -98 -135s39 -135 98 -135z" />
    <glyph glyph-name="one.denominator" horiz-adv-x="313" 
d="M124 0v364h-99v113h226v-477h-127z" />
    <glyph glyph-name="two.denominator" horiz-adv-x="445" 
d="M13 0v12l208 212c43 44 53 70 53 98c0 29 -23 49 -57 49c-37 0 -63 -21 -82 -65l-114 40c32 86 99 139 197 139c114 0 184 -65 184 -161c0 -50 -29 -100 -78 -151l-24 -25c-20 -21 -56 -42 -60 -44c2 0 44 5 72 5h87v-109h-386z" />
    <glyph glyph-name="three.denominator" horiz-adv-x="433" 
d="M207 -8c-102 0 -166 44 -196 117l111 51c13 -32 37 -55 84 -55c40 0 68 24 68 63c0 41 -25 64 -72 64c-33 0 -52 -4 -67 -9l-7 13l65 93c8 11 40 45 40 45s-44 -5 -61 -5h-110v108h342v-11l-83 -118c-17 -23 -35 -36 -38 -37c67 -13 121 -66 121 -150
c0 -113 -94 -169 -197 -169z" />
    <glyph glyph-name="four.denominator" horiz-adv-x="477" 
d="M267 0v58h-234v98l347 329h10v-331h62v-96h-62v-58h-123zM155 150c0 0 41 4 71 4h41v44c0 28 4 65 4 65s-25 -34 -47 -54l-18 -17c-24 -22 -51 -42 -51 -42z" />
    <glyph glyph-name="five.denominator" horiz-adv-x="448" 
d="M216 -8c-99 0 -167 39 -204 113l106 55c14 -31 42 -53 89 -53c44 0 75 20 75 53c0 39 -35 59 -86 59c-57 0 -88 -15 -120 -34l-12 7v285h302v-109h-194v-61c16 5 37 9 60 9c108 0 181 -54 181 -158c0 -99 -74 -166 -197 -166z" />
    <glyph glyph-name="six.denominator" horiz-adv-x="454" 
d="M228 -8c-118 0 -198 76 -198 169c0 48 19 91 55 141l125 175h139l-65 -92c-25 -35 -61 -58 -68 -62c10 3 24 5 34 5c102 0 178 -63 178 -161c0 -95 -77 -175 -200 -175zM229 96c47 0 73 33 73 70s-26 70 -73 70s-73 -33 -73 -70s26 -70 73 -70z" />
    <glyph glyph-name="seven.denominator" horiz-adv-x="435" 
d="M69 0l175 364h-213v113h390v-11l-222 -466h-130z" />
    <glyph glyph-name="eight.denominator" horiz-adv-x="447" 
d="M224 -8c-110 0 -195 60 -195 151c0 54 34 95 88 117c-38 21 -59 54 -59 94c0 73 59 131 166 131c110 0 165 -58 165 -131c0 -40 -19 -73 -57 -94c53 -23 86 -63 86 -117c0 -91 -82 -151 -194 -151zM224 96c41 0 70 23 70 59c0 39 -29 62 -70 62c-43 0 -71 -23 -71 -62
c0 -36 28 -59 71 -59zM226 302c28 0 48 18 48 46c0 29 -23 45 -51 45c-29 0 -49 -16 -49 -45c0 -28 23 -46 52 -46z" />
    <glyph glyph-name="nine.denominator" horiz-adv-x="454" 
d="M101 0l72 93c26 34 58 56 64 60c-10 -3 -24 -4 -33 -4c-102 0 -178 63 -178 161c0 95 77 175 200 175c118 0 198 -76 198 -169c0 -48 -17 -92 -56 -143l-129 -173h-138zM225 241c47 0 73 34 73 70s-26 70 -73 70s-73 -34 -73 -70s26 -70 73 -70z" />
    <glyph glyph-name="zero.subscript" horiz-adv-x="446" 
d="M223 -257c-107 0 -195 82 -195 210c0 129 88 210 195 210s195 -81 195 -210c0 -128 -88 -210 -195 -210zM223 -162c50 0 83 39 83 115s-33 115 -83 115s-83 -39 -83 -115s33 -115 83 -115z" />
    <glyph glyph-name="one.subscript" horiz-adv-x="265" 
d="M105 -250v309h-84v96h192v-405h-108z" />
    <glyph glyph-name="two.subscript" horiz-adv-x="378" 
d="M11 -250v10l177 180c37 37 45 60 45 84c0 25 -20 41 -49 41c-31 0 -53 -18 -69 -55l-97 34c27 73 84 118 167 118c97 0 157 -55 157 -137c0 -43 -25 -85 -67 -128l-20 -21c-18 -19 -51 -38 -51 -38s37 5 61 5h74v-93h-328z" />
    <glyph glyph-name="three.subscript" horiz-adv-x="367" 
d="M176 -257c-87 0 -141 38 -167 100l95 43c11 -27 31 -47 71 -47c34 0 58 21 58 54c0 35 -21 54 -61 54c-28 0 -44 -3 -57 -7l-6 11l55 79c7 9 34 38 34 38s-38 -4 -52 -4h-93v91h290v-9l-70 -100c-14 -20 -29 -31 -32 -32c57 -11 102 -56 102 -127
c0 -96 -79 -144 -167 -144z" />
    <glyph glyph-name="four.subscript" horiz-adv-x="405" 
d="M227 -250v49h-199v84l295 279h9v-281h52v-82h-52v-49h-105zM132 -122c0 0 34 3 60 3h35v37c0 24 3 56 3 56s-21 -29 -40 -46l-15 -15c-20 -19 -43 -35 -43 -35z" />
    <glyph glyph-name="five.subscript" horiz-adv-x="380" 
d="M184 -257c-84 0 -143 33 -174 96l90 47c12 -26 36 -45 76 -45c37 0 64 17 64 45c0 33 -30 50 -73 50c-48 0 -75 -13 -102 -29l-11 6v242h257v-92h-165v-52c14 4 31 8 51 8c92 0 154 -47 154 -135c0 -84 -62 -141 -167 -141z" />
    <glyph glyph-name="six.subscript" horiz-adv-x="385" 
d="M193 -257c-100 0 -168 65 -168 144c0 41 15 77 46 120l107 148h118l-56 -78c-21 -30 -52 -49 -57 -52c9 3 20 4 29 4c87 0 151 -54 151 -137c0 -81 -65 -149 -170 -149zM194 -168c40 0 62 28 62 59s-22 60 -62 60s-62 -29 -62 -60s22 -59 62 -59z" />
    <glyph glyph-name="seven.subscript" horiz-adv-x="369" 
d="M59 -250l148 309h-181v96h332v-9l-189 -396h-110z" />
    <glyph glyph-name="eight.subscript" horiz-adv-x="381" 
d="M191 -257c-94 0 -166 51 -166 128c0 47 29 82 74 101c-32 18 -49 45 -49 79c0 62 50 111 141 111c93 0 140 -49 140 -111c0 -34 -17 -62 -48 -80c45 -19 73 -53 73 -100c0 -77 -70 -128 -165 -128zM191 -169c35 0 59 20 59 50c0 34 -24 53 -59 53c-37 0 -61 -19 -61 -53
c0 -30 24 -50 61 -50zM192 6c24 0 41 16 41 40s-19 38 -43 38c-25 0 -42 -14 -42 -38s20 -40 44 -40z" />
    <glyph glyph-name="nine.subscript" horiz-adv-x="385" 
d="M86 -250l61 79c22 29 50 48 55 52c-9 -3 -21 -4 -29 -4c-87 0 -151 54 -151 137c0 81 65 148 170 148c100 0 168 -64 168 -143c0 -41 -14 -79 -47 -122l-110 -147h-117zM191 -45c40 0 62 28 62 59s-22 60 -62 60s-62 -29 -62 -60s22 -59 62 -59z" />
    <glyph glyph-name="zero.superscript" horiz-adv-x="446" 
d="M223 268c-107 0 -195 82 -195 210c0 129 88 210 195 210s195 -81 195 -210c0 -128 -88 -210 -195 -210zM223 363c50 0 83 39 83 115s-33 115 -83 115s-83 -39 -83 -115s33 -115 83 -115z" />
    <glyph glyph-name="one.superscript" horiz-adv-x="265" 
d="M105 275v309h-84v96h192v-405h-108z" />
    <glyph glyph-name="two.superscript" horiz-adv-x="378" 
d="M11 275v10l177 180c37 37 45 59 45 83c0 25 -20 42 -49 42c-31 0 -53 -18 -69 -55l-97 34c27 73 84 118 167 118c97 0 157 -55 157 -137c0 -43 -25 -85 -67 -128l-20 -22c-18 -19 -51 -37 -51 -37s37 4 61 4h74v-92h-328z" />
    <glyph glyph-name="three.superscript" horiz-adv-x="367" 
d="M176 268c-87 0 -141 37 -167 99l95 44c11 -27 31 -47 71 -47c34 0 58 20 58 53c0 35 -21 55 -61 55c-28 0 -44 -4 -57 -8l-6 11l55 79c7 9 34 38 34 38s-38 -4 -52 -4h-93v92h290v-9l-70 -101c-14 -20 -29 -30 -32 -31c57 -11 102 -57 102 -128c0 -96 -79 -143 -167 -143
z" />
    <glyph glyph-name="four.superscript" horiz-adv-x="405" 
d="M227 275v49h-199v83l295 280h9v-282h52v-81h-52v-49h-105zM132 402c0 0 34 3 60 3h35v38c0 24 3 55 3 55s-21 -29 -40 -46l-15 -14c-20 -19 -43 -36 -43 -36z" />
    <glyph glyph-name="five.superscript" horiz-adv-x="380" 
d="M184 268c-84 0 -143 33 -174 96l90 47c12 -26 36 -45 76 -45c37 0 64 17 64 45c0 33 -30 50 -73 50c-48 0 -75 -13 -102 -29l-11 6v242h257v-93h-165v-51c14 4 31 7 51 7c92 0 154 -46 154 -134c0 -84 -62 -141 -167 -141z" />
    <glyph glyph-name="six.superscript" horiz-adv-x="385" 
d="M193 268c-100 0 -168 64 -168 143c0 41 15 77 46 120l107 149h118l-56 -78c-21 -30 -52 -50 -57 -53c9 3 20 4 29 4c87 0 151 -53 151 -136c0 -81 -65 -149 -170 -149zM194 356c40 0 62 29 62 60s-22 59 -62 59s-62 -28 -62 -59s22 -60 62 -60z" />
    <glyph glyph-name="seven.superscript" horiz-adv-x="369" 
d="M59 275l148 309h-181v96h332v-9l-189 -396h-110z" />
    <glyph glyph-name="eight.superscript" horiz-adv-x="381" 
d="M191 268c-94 0 -166 51 -166 128c0 46 29 81 74 100c-32 18 -49 46 -49 80c0 62 50 111 141 111c93 0 140 -49 140 -111c0 -34 -17 -62 -48 -80c45 -19 73 -54 73 -100c0 -77 -70 -128 -165 -128zM191 356c35 0 59 20 59 50c0 34 -24 53 -59 53c-37 0 -61 -19 -61 -53
c0 -30 24 -50 61 -50zM192 531c24 0 41 16 41 40s-19 38 -43 38c-25 0 -42 -14 -42 -38s20 -40 44 -40z" />
    <glyph glyph-name="nine.superscript" horiz-adv-x="385" 
d="M86 275l61 79c22 29 50 47 55 50c-9 -2 -21 -3 -29 -3c-87 0 -151 54 -151 137c0 81 65 149 170 149c100 0 168 -65 168 -144c0 -41 -14 -78 -47 -121l-110 -147h-117zM191 479c40 0 62 29 62 60s-22 59 -62 59s-62 -28 -62 -59s22 -60 62 -60z" />
    <glyph glyph-name="G.alt" horiz-adv-x="782" 
d="M402 -9c-205 0 -354 148 -354 349s156 348 352 348c119 0 212 -42 276 -141l-110 -78c-36 58 -89 93 -166 93c-124 0 -208 -95 -208 -222s84 -225 209 -225c104 0 172 58 188 127h-170v122h318c11 -225 -107 -373 -335 -373z" />
    <glyph glyph-name="M.alt" horiz-adv-x="843" 
d="M68 0l55 687h14l238 -321c22 -30 49 -74 49 -74s27 45 48 74l234 321h14l55 -687h-139l-18 241c-3 45 -6 121 -6 121s-35 -66 -63 -103l-123 -165h-12l-124 164c-28 37 -67 103 -67 103s-2 -76 -5 -121l-18 -240h-132z" />
    <glyph glyph-name="Q.alt1" horiz-adv-x="800" 
d="M464 -3v-151h-128v151c-165 28 -288 164 -288 343c0 201 156 348 352 348s352 -147 352 -348c0 -179 -123 -315 -288 -343zM336 118v118h128v-118c88 26 144 109 144 222c0 127 -84 222 -208 222s-208 -95 -208 -222c0 -113 56 -196 144 -222z" />
    <glyph glyph-name="Q.alt2" horiz-adv-x="800" 
d="M475 13c27 -26 55 -44 97 -44c37 0 64 22 80 43l91 -79c-38 -53 -89 -86 -170 -86c-100 0 -165 67 -226 123c-35 32 -66 60 -105 60c-49 0 -80 -32 -105 -68l-93 78c23 36 53 61 88 76c-52 58 -84 135 -84 225c0 201 156 348 352 348s352 -147 352 -348
c0 -175 -118 -299 -277 -328zM400 122c124 0 208 92 208 219s-84 223 -208 223s-208 -96 -208 -223s84 -219 208 -219z" />
    <glyph glyph-name="a.alt" horiz-adv-x="544" 
d="M227 -9c-102 0 -188 92 -188 223c0 129 83 221 190 221c64 0 106 -27 130 -73l-2 64h134v-426h-134l2 65c-22 -43 -67 -74 -132 -74zM268 109c58 0 91 40 91 105c0 63 -33 102 -91 102c-57 0 -89 -39 -89 -102c0 -65 32 -105 89 -105z" />
    <glyph glyph-name="g.alt" horiz-adv-x="492" 
d="M308 427h164v-96h-63c10 -15 15 -33 15 -52c0 -91 -70 -158 -179 -158c-34 0 -63 5 -87 17c-7 -6 -11 -15 -11 -26c0 -20 13 -33 44 -34l105 -5c116 -6 182 -54 182 -137c0 -90 -66 -158 -235 -158c-153 0 -229 59 -229 140c0 46 30 76 78 94c-35 19 -51 47 -51 86
c0 38 21 67 59 84c-24 26 -38 60 -38 97c0 91 74 156 183 156c23 0 44 -3 63 -8zM243 219c41 0 63 24 63 60c0 34 -22 57 -63 57s-63 -23 -63 -57c0 -36 22 -60 63 -60zM157 -32c-8 -9 -12 -20 -12 -33c0 -34 24 -56 98 -56c79 0 97 21 97 47c0 24 -16 32 -71 35z" />
    <glyph glyph-name="u.alt" horiz-adv-x="517" 
d="M253 -11c-135 0 -203 78 -203 203v234h135v-231c0 -58 20 -89 73 -89c54 0 74 31 74 89v231h135v-234c0 -125 -78 -203 -214 -203z" />
    <glyph glyph-name="Gbreve.alt" horiz-adv-x="782" 
d="M402 -9c-205 0 -354 148 -354 349s156 348 352 348c119 0 212 -42 276 -141l-110 -78c-36 58 -89 93 -166 93c-124 0 -208 -95 -208 -222s84 -225 209 -225c104 0 172 58 188 127h-170v122h318c11 -225 -107 -373 -335 -373zM394 737c-96 0 -154 60 -162 140l103 15
c5 -34 22 -57 59 -57s54 23 59 57l103 -15c-8 -80 -66 -140 -162 -140z" />
    <glyph glyph-name="Gcircumflex.alt" horiz-adv-x="782" 
d="M402 -9c-205 0 -354 148 -354 349s156 348 352 348c119 0 212 -42 276 -141l-110 -78c-36 58 -89 93 -166 93c-124 0 -208 -95 -208 -222s84 -225 209 -225c104 0 172 58 188 127h-170v122h318c11 -225 -107 -373 -335 -373zM228 738l159 216h11l159 -216h-108l-56 65
l-57 -65h-108z" />
    <glyph glyph-name="Gcommaaccent.alt" horiz-adv-x="782" 
d="M402 -9c-205 0 -354 148 -354 349s156 348 352 348c119 0 212 -42 276 -141l-110 -78c-36 58 -89 93 -166 93c-124 0 -208 -95 -208 -222s84 -225 209 -225c104 0 172 58 188 127h-170v122h318c11 -225 -107 -373 -335 -373zM327 -283l31 97c-22 11 -41 36 -41 69
c0 44 36 76 76 76c41 0 78 -32 78 -75c0 -31 -10 -56 -26 -82l-52 -85h-66z" />
    <glyph glyph-name="Gdotaccent.alt" horiz-adv-x="782" 
d="M402 -9c-205 0 -354 148 -354 349s156 348 352 348c119 0 212 -42 276 -141l-110 -78c-36 58 -89 93 -166 93c-124 0 -208 -95 -208 -222s84 -225 209 -225c104 0 172 58 188 127h-170v122h318c11 -225 -107 -373 -335 -373zM395 730c-46 0 -86 35 -86 85
c0 49 40 84 86 84s85 -35 85 -84c0 -50 -39 -85 -85 -85z" />
    <glyph glyph-name="aacute.alt" horiz-adv-x="544" 
d="M227 -9c-102 0 -188 92 -188 223c0 129 83 221 190 221c64 0 106 -27 130 -73l-2 64h134v-426h-134l2 65c-22 -43 -67 -74 -132 -74zM268 109c58 0 91 40 91 105c0 63 -33 102 -91 102c-57 0 -89 -39 -89 -102c0 -65 32 -105 89 -105zM234 500l52 188h154l-104 -188h-102
z" />
    <glyph glyph-name="abreve.alt" horiz-adv-x="544" 
d="M227 -9c-102 0 -188 92 -188 223c0 129 83 221 190 221c64 0 106 -27 130 -73l-2 64h134v-426h-134l2 65c-22 -43 -67 -74 -132 -74zM268 109c58 0 91 40 91 105c0 63 -33 102 -91 102c-57 0 -89 -39 -89 -102c0 -65 32 -105 89 -105zM285 500c-96 0 -154 60 -162 140
l103 15c5 -34 22 -57 59 -57s54 23 59 57l103 -15c-8 -80 -66 -140 -162 -140z" />
    <glyph glyph-name="acircumflex.alt" horiz-adv-x="544" 
d="M227 -9c-102 0 -188 92 -188 223c0 129 83 221 190 221c64 0 106 -27 130 -73l-2 64h134v-426h-134l2 65c-22 -43 -67 -74 -132 -74zM268 109c58 0 91 40 91 105c0 63 -33 102 -91 102c-57 0 -89 -39 -89 -102c0 -65 32 -105 89 -105zM119 500l159 216h11l159 -216h-108
l-56 65l-57 -65h-108z" />
    <glyph glyph-name="adieresis.alt" horiz-adv-x="544" 
d="M227 -9c-102 0 -188 92 -188 223c0 129 83 221 190 221c64 0 106 -27 130 -73l-2 64h134v-426h-134l2 65c-22 -43 -67 -74 -132 -74zM268 109c58 0 91 40 91 105c0 63 -33 102 -91 102c-57 0 -89 -39 -89 -102c0 -65 32 -105 89 -105zM389 506c-39 0 -76 34 -76 76
s37 76 76 76c40 0 76 -34 76 -76s-36 -76 -76 -76zM181 506c-39 0 -76 34 -76 76s37 76 76 76c40 0 76 -34 76 -76s-36 -76 -76 -76z" />
    <glyph glyph-name="agrave.alt" horiz-adv-x="544" 
d="M227 -9c-102 0 -188 92 -188 223c0 129 83 221 190 221c64 0 106 -27 130 -73l-2 64h134v-426h-134l2 65c-22 -43 -67 -74 -132 -74zM268 109c58 0 91 40 91 105c0 63 -33 102 -91 102c-57 0 -89 -39 -89 -102c0 -65 32 -105 89 -105zM236 500l-104 188h154l52 -188h-102
z" />
    <glyph glyph-name="amacron.alt" horiz-adv-x="544" 
d="M227 -9c-102 0 -188 92 -188 223c0 129 83 221 190 221c64 0 106 -27 130 -73l-2 64h134v-426h-134l2 65c-22 -43 -67 -74 -132 -74zM268 109c58 0 91 40 91 105c0 63 -33 102 -91 102c-57 0 -89 -39 -89 -102c0 -65 32 -105 89 -105zM153 516v99h264v-99h-264z" />
    <glyph glyph-name="aogonek.alt" horiz-adv-x="544" 
d="M491 32l-60 -101c-20 -33 -26 -45 -26 -68c0 -18 11 -29 28 -29c21 0 32 12 41 26l66 -38c-23 -40 -55 -62 -115 -62c-57 0 -107 33 -107 101c0 34 17 65 40 94l35 45h-36l2 65c-22 -43 -67 -74 -132 -74c-102 0 -188 92 -188 223c0 129 83 221 190 221
c64 0 106 -27 130 -73l-2 64h134v-394zM268 109c58 0 91 40 91 105c0 63 -33 102 -91 102c-57 0 -89 -39 -89 -102c0 -65 32 -105 89 -105z" />
    <glyph glyph-name="aring.alt" horiz-adv-x="544" 
d="M227 -9c-102 0 -188 92 -188 223c0 129 83 221 190 221c64 0 106 -27 130 -73l-2 64h134v-426h-134l2 65c-22 -43 -67 -74 -132 -74zM268 109c58 0 91 40 91 105c0 63 -33 102 -91 102c-57 0 -89 -39 -89 -102c0 -65 32 -105 89 -105zM285 474c-73 0 -129 55 -129 119
c0 65 56 119 129 119s129 -54 129 -119c0 -64 -56 -119 -129 -119zM285 548c24 0 43 16 43 45s-19 45 -43 45s-43 -16 -43 -45s19 -45 43 -45z" />
    <glyph glyph-name="atilde.alt" horiz-adv-x="544" 
d="M227 -9c-102 0 -188 92 -188 223c0 129 83 221 190 221c64 0 106 -27 130 -73l-2 64h134v-426h-134l2 65c-22 -43 -67 -74 -132 -74zM268 109c58 0 91 40 91 105c0 63 -33 102 -91 102c-57 0 -89 -39 -89 -102c0 -65 32 -105 89 -105zM205 506l-91 9c5 94 52 140 111 140
c27 0 47 -10 63 -20c23 -14 34 -25 48 -25c18 0 26 15 29 45l91 -9c-5 -94 -51 -140 -111 -140c-26 0 -47 10 -63 20c-23 14 -33 25 -48 25c-17 0 -26 -15 -29 -45z" />
    <glyph glyph-name="gbreve.alt" horiz-adv-x="492" 
d="M308 427h164v-96h-63c10 -15 15 -33 15 -52c0 -91 -70 -158 -179 -158c-34 0 -63 5 -87 17c-7 -6 -11 -15 -11 -26c0 -20 13 -33 44 -34l105 -5c116 -6 182 -54 182 -137c0 -90 -66 -158 -235 -158c-153 0 -229 59 -229 140c0 46 30 76 78 94c-35 19 -51 47 -51 86
c0 38 21 67 59 84c-24 26 -38 60 -38 97c0 91 74 156 183 156c23 0 44 -3 63 -8zM243 219c41 0 63 24 63 60c0 34 -22 57 -63 57s-63 -23 -63 -57c0 -36 22 -60 63 -60zM157 -32c-8 -9 -12 -20 -12 -33c0 -34 24 -56 98 -56c79 0 97 21 97 47c0 24 -16 32 -71 35zM256 500
c-96 0 -154 60 -162 140l103 15c5 -34 22 -57 59 -57s54 23 59 57l103 -15c-8 -80 -66 -140 -162 -140z" />
    <glyph glyph-name="gcircumflex.alt" horiz-adv-x="492" 
d="M308 427h164v-96h-63c10 -15 15 -33 15 -52c0 -91 -70 -158 -179 -158c-34 0 -63 5 -87 17c-7 -6 -11 -15 -11 -26c0 -20 13 -33 44 -34l105 -5c116 -6 182 -54 182 -137c0 -90 -66 -158 -235 -158c-153 0 -229 59 -229 140c0 46 30 76 78 94c-35 19 -51 47 -51 86
c0 38 21 67 59 84c-24 26 -38 60 -38 97c0 91 74 156 183 156c23 0 44 -3 63 -8zM243 219c41 0 63 24 63 60c0 34 -22 57 -63 57s-63 -23 -63 -57c0 -36 22 -60 63 -60zM157 -32c-8 -9 -12 -20 -12 -33c0 -34 24 -56 98 -56c79 0 97 21 97 47c0 24 -16 32 -71 35zM90 500
l159 216h11l159 -216h-108l-56 65l-57 -65h-108z" />
    <glyph glyph-name="gcommaaccent.alt" horiz-adv-x="492" 
d="M308 427h164v-96h-63c10 -15 15 -33 15 -52c0 -91 -70 -158 -179 -158c-34 0 -63 5 -87 17c-7 -6 -11 -15 -11 -26c0 -20 13 -33 44 -34l105 -5c116 -6 182 -54 182 -137c0 -90 -66 -158 -235 -158c-153 0 -229 59 -229 140c0 46 30 76 78 94c-35 19 -51 47 -51 86
c0 38 21 67 59 84c-24 26 -38 60 -38 97c0 91 74 156 183 156c23 0 44 -3 63 -8zM243 219c41 0 63 24 63 60c0 34 -22 57 -63 57s-63 -23 -63 -57c0 -36 22 -60 63 -60zM157 -32c-8 -9 -12 -20 -12 -33c0 -34 24 -56 98 -56c79 0 97 21 97 47c0 24 -16 32 -71 35zM323 738
l-31 -97c22 -11 41 -36 41 -69c0 -44 -36 -76 -76 -76c-41 0 -78 32 -78 75c0 31 10 56 26 82l52 85h66z" />
    <glyph glyph-name="gdotaccent.alt" horiz-adv-x="492" 
d="M308 427h164v-96h-63c10 -15 15 -33 15 -52c0 -91 -70 -158 -179 -158c-34 0 -63 5 -87 17c-7 -6 -11 -15 -11 -26c0 -20 13 -33 44 -34l105 -5c116 -6 182 -54 182 -137c0 -90 -66 -158 -235 -158c-153 0 -229 59 -229 140c0 46 30 76 78 94c-35 19 -51 47 -51 86
c0 38 21 67 59 84c-24 26 -38 60 -38 97c0 91 74 156 183 156c23 0 44 -3 63 -8zM243 219c41 0 63 24 63 60c0 34 -22 57 -63 57s-63 -23 -63 -57c0 -36 22 -60 63 -60zM157 -32c-8 -9 -12 -20 -12 -33c0 -34 24 -56 98 -56c79 0 97 21 97 47c0 24 -16 32 -71 35zM257 497
c-46 0 -86 35 -86 85c0 49 40 84 86 84s85 -35 85 -84c0 -50 -39 -85 -85 -85z" />
    <glyph glyph-name="uacute.alt" horiz-adv-x="517" 
d="M253 -11c-135 0 -203 78 -203 203v234h135v-231c0 -58 20 -89 73 -89c54 0 74 31 74 89v231h135v-234c0 -125 -78 -203 -214 -203zM207 500l52 188h154l-104 -188h-102z" />
    <glyph glyph-name="ubreve.alt" horiz-adv-x="517" 
d="M253 -11c-135 0 -203 78 -203 203v234h135v-231c0 -58 20 -89 73 -89c54 0 74 31 74 89v231h135v-234c0 -125 -78 -203 -214 -203zM258 500c-96 0 -154 60 -162 140l103 15c5 -34 22 -57 59 -57s54 23 59 57l103 -15c-8 -80 -66 -140 -162 -140z" />
    <glyph glyph-name="ucircumflex.alt" horiz-adv-x="517" 
d="M253 -11c-135 0 -203 78 -203 203v234h135v-231c0 -58 20 -89 73 -89c54 0 74 31 74 89v231h135v-234c0 -125 -78 -203 -214 -203zM92 500l159 216h11l159 -216h-108l-56 65l-57 -65h-108z" />
    <glyph glyph-name="udieresis.alt" horiz-adv-x="517" 
d="M253 -11c-135 0 -203 78 -203 203v234h135v-231c0 -58 20 -89 73 -89c54 0 74 31 74 89v231h135v-234c0 -125 -78 -203 -214 -203zM362 506c-39 0 -76 34 -76 76s37 76 76 76c40 0 76 -34 76 -76s-36 -76 -76 -76zM154 506c-39 0 -76 34 -76 76s37 76 76 76
c40 0 76 -34 76 -76s-36 -76 -76 -76z" />
    <glyph glyph-name="ugrave.alt" horiz-adv-x="517" 
d="M253 -11c-135 0 -203 78 -203 203v234h135v-231c0 -58 20 -89 73 -89c54 0 74 31 74 89v231h135v-234c0 -125 -78 -203 -214 -203zM209 500l-104 188h154l52 -188h-102z" />
    <glyph glyph-name="uhungarumlaut.alt" horiz-adv-x="517" 
d="M253 -11c-135 0 -203 78 -203 203v234h135v-231c0 -58 20 -89 73 -89c54 0 74 31 74 89v231h135v-234c0 -125 -78 -203 -214 -203zM299 500l51 188h140l-89 -188h-102zM114 500l51 188h140l-89 -188h-102z" />
    <glyph glyph-name="umacron.alt" horiz-adv-x="517" 
d="M253 -11c-135 0 -203 78 -203 203v234h135v-231c0 -58 20 -89 73 -89c54 0 74 31 74 89v231h135v-234c0 -125 -78 -203 -214 -203zM126 516v99h264v-99h-264z" />
    <glyph glyph-name="uogonek.alt" horiz-adv-x="517" 
d="M234 -10c-122 7 -184 83 -184 202v234h135v-231c0 -58 20 -89 73 -89c54 0 74 31 74 89v231h135v-234c0 -103 -53 -174 -148 -196l-39 -65c-20 -34 -26 -45 -26 -68c0 -18 11 -29 28 -29c21 0 32 12 41 26l66 -38c-23 -40 -55 -62 -115 -62c-57 0 -107 33 -107 101
c0 34 17 65 40 94z" />
    <glyph glyph-name="uring.alt" horiz-adv-x="517" 
d="M253 -11c-135 0 -203 78 -203 203v234h135v-231c0 -58 20 -89 73 -89c54 0 74 31 74 89v231h135v-234c0 -125 -78 -203 -214 -203zM258 474c-73 0 -129 55 -129 119c0 65 56 119 129 119s129 -54 129 -119c0 -64 -56 -119 -129 -119zM258 548c24 0 43 16 43 45
s-19 45 -43 45s-43 -16 -43 -45s19 -45 43 -45z" />
    <glyph glyph-name="f_b.alt" horiz-adv-x="888" 
d="M656 -9c-65 0 -110 26 -134 71l3 -62h-135v526c0 68 -35 88 -77 88s-76 -23 -76 -88v-100h99v-112h-99v-314h-135v314h-71v112h71v96c0 138 94 213 211 213s212 -68 212 -202v-167c28 42 69 69 134 69c104 0 190 -90 190 -221s-89 -223 -193 -223zM617 109
c57 0 93 38 93 105c0 63 -36 102 -93 102c-58 0 -96 -39 -96 -102c0 -67 38 -105 96 -105z" />
    <glyph glyph-name="f_f_b.alt" horiz-adv-x="1176" 
d="M525 426h99v-112h-99v-314h-135v314h-153v-314h-135v314h-71v112h71v123c0 110 53 166 152 166c48 0 81 -14 111 -40l-56 -97c-7 8 -19 16 -37 16c-21 0 -35 -13 -35 -43v-125h153v96c0 138 94 213 211 213s212 -68 212 -202v-167c28 42 69 69 134 69
c104 0 190 -90 190 -221s-89 -223 -193 -223c-65 0 -110 26 -134 71l3 -62h-135v526c0 68 -35 88 -77 88s-76 -23 -76 -88v-100zM905 109c57 0 93 38 93 105c0 63 -36 102 -93 102c-58 0 -96 -39 -96 -102c0 -67 38 -105 96 -105z" />
    <glyph glyph-name="f_f_f_l.alt" horiz-adv-x="1159" 
d="M390 314h-153v-314h-135v314h-71v112h71v123c0 110 53 166 152 166c48 0 81 -14 111 -40l-56 -97c-7 8 -19 16 -37 16c-21 0 -35 -13 -35 -43v-125h153v133c0 110 53 166 152 166c48 0 81 -14 111 -40l-56 -97c-7 8 -19 16 -37 16c-21 0 -35 -13 -35 -43v-135h153v96
c0 138 94 213 211 213s212 -68 212 -202v-533h-135v526c0 68 -35 88 -77 88s-76 -23 -76 -88v-100h99v-112h-99v-314h-135v314h-153v-314h-135v314z" />
    <glyph glyph-name="f_f_h.alt" horiz-adv-x="1155" 
d="M390 426v96c0 138 94 213 211 213s212 -68 212 -202v-174c26 49 73 76 132 76c93 0 160 -68 160 -189v-246h-135v237c0 48 -23 75 -71 75c-54 0 -86 -30 -86 -84v-228h-135v526c0 68 -35 88 -77 88s-76 -23 -76 -88v-100h99v-112h-99v-314h-135v314h-153v-314h-135v314
h-71v112h71v123c0 110 53 166 152 166c48 0 81 -14 111 -40l-56 -97c-7 8 -19 16 -37 16c-21 0 -35 -13 -35 -43v-125h153z" />
    <glyph glyph-name="f_f_k.alt" horiz-adv-x="1119" 
d="M390 426v96c0 138 94 213 211 213s212 -68 212 -202v-179c0 -32 -3 -65 -7 -92l140 164h150l-151 -174l167 -252h-157l-106 161l-36 -38v-123h-135v526c0 68 -35 88 -77 88s-76 -23 -76 -88v-100h99v-112h-99v-314h-135v314h-153v-314h-135v314h-71v112h71v123
c0 110 53 166 152 166c48 0 81 -14 111 -40l-56 -97c-7 8 -19 16 -37 16c-21 0 -35 -13 -35 -43v-125h153z" />
    <glyph glyph-name="ffl.alt" horiz-adv-x="871" 
d="M102 0v314h-71v112h71v123c0 110 53 166 152 166c48 0 81 -14 111 -40l-56 -97c-7 8 -19 16 -37 16c-21 0 -35 -13 -35 -43v-125h153v96c0 138 94 213 211 213s212 -68 212 -202v-533h-135v526c0 68 -35 88 -77 88s-76 -23 -76 -88v-100h99v-112h-99v-314h-135v314h-153
v-314h-135z" />
    <glyph glyph-name="f_h.alt" horiz-adv-x="867" 
d="M102 0v314h-71v112h71v96c0 138 94 213 211 213s212 -68 212 -202v-174c26 49 73 76 132 76c93 0 160 -68 160 -189v-246h-135v237c0 48 -23 75 -71 75c-54 0 -86 -30 -86 -84v-228h-135v526c0 68 -35 88 -77 88s-76 -23 -76 -88v-100h99v-112h-99v-314h-135z" />
    <glyph glyph-name="f_k.alt" horiz-adv-x="831" 
d="M525 123v-123h-135v526c0 68 -35 88 -77 88s-76 -23 -76 -88v-100h99v-112h-99v-314h-135v314h-71v112h71v96c0 138 94 213 211 213s212 -68 212 -202v-179c0 -32 -3 -65 -7 -92l140 164h150l-151 -174l167 -252h-157l-106 161z" />
    <glyph glyph-name="fl.alt" horiz-adv-x="583" 
d="M102 0v314h-71v112h71v96c0 138 94 213 211 213s212 -68 212 -202v-533h-135v526c0 68 -35 88 -77 88s-76 -23 -76 -88v-100h99v-112h-99v-314h-135z" />
    <glyph glyph-name="space.up" horiz-adv-x="221" 
 />
    <glyph glyph-name="hyphen.up" horiz-adv-x="322" 
d="M36 212v120h250v-120h-250z" />
    <glyph glyph-name="endash.up" horiz-adv-x="476" 
d="M40 212v120h396v-120h-396z" />
    <glyph glyph-name="emdash.up" horiz-adv-x="757" 
d="M40 212v120h677v-120h-677z" />
    <glyph glyph-name="guilsinglleft.up" horiz-adv-x="289" 
d="M127 92l-95 168v8l95 165h130l-98 -169l98 -172h-130z" />
    <glyph glyph-name="guilsinglright.up" horiz-adv-x="289" 
d="M32 92l98 169l-98 172h130l95 -168v-8l-95 -165h-130z" />
    <glyph glyph-name="guillemotleft.up" horiz-adv-x="504" 
d="M342 92l-95 168v8l95 165h130l-98 -169l98 -172h-130zM127 92l-95 168v8l95 165h130l-98 -169l98 -172h-130z" />
    <glyph glyph-name="guillemotright.up" horiz-adv-x="504" 
d="M247 92l98 169l-98 172h130l95 -168v-8l-95 -165h-130zM32 92l98 169l-98 172h130l95 -168v-8l-95 -165h-130z" />
    <glyph glyph-name="at.up" horiz-adv-x="925" 
d="M477 -127c-250 0 -438 151 -438 404c0 247 204 411 432 411c248 0 415 -148 415 -372c0 -156 -67 -241 -185 -241c-66 0 -115 19 -139 77c-29 -57 -78 -81 -136 -81c-98 0 -175 81 -175 199c0 117 76 201 173 201c56 0 88 -24 108 -60l-2 50h130v-225
c0 -44 13 -63 46 -63c42 0 66 41 66 141c0 189 -117 272 -301 272c-183 0 -309 -122 -309 -308c0 -185 110 -303 313 -303c55 0 111 11 159 28l42 -94c-63 -25 -119 -36 -199 -36zM464 180c40 0 69 40 69 90s-29 90 -69 90c-46 0 -75 -36 -75 -90s29 -90 75 -90z" />
    <glyph glyph-name="A.sc" horiz-adv-x="540" 
d="M19 0l245 528h11l246 -528h-141l-25 59h-179l-25 -59h-132zM213 151h109l-15 34c-23 50 -39 104 -40 109c-1 -3 -17 -58 -39 -109z" />
    <glyph glyph-name="B.sc" horiz-adv-x="505" 
d="M56 0v522h219c106 0 165 -63 165 -135c0 -53 -26 -90 -74 -108c64 -19 100 -63 100 -133c0 -93 -72 -146 -180 -146h-230zM187 111h91c33 0 55 23 55 54s-22 55 -55 55h-91v-109zM187 320h77c27 0 46 17 46 47c0 29 -19 45 -46 45h-77v-92z" />
    <glyph glyph-name="C.sc" horiz-adv-x="588" 
d="M318 -9c-170 0 -275 117 -275 270c0 155 110 270 271 270c104 0 176 -41 223 -114l-108 -72c-23 37 -56 66 -115 66c-82 0 -132 -63 -132 -150c0 -86 50 -150 135 -150c65 0 105 31 126 74l110 -63c-39 -79 -121 -131 -235 -131z" />
    <glyph glyph-name="D.sc" horiz-adv-x="559" 
d="M56 0v522h188c154 0 272 -100 272 -261c0 -159 -117 -261 -272 -261h-188zM192 118h45c97 0 140 55 140 143c0 87 -43 143 -140 143h-45v-286z" />
    <glyph glyph-name="E.sc" horiz-adv-x="480" 
d="M56 0v522h371v-117h-235v-87h196v-111h-196v-90h245v-117h-381z" />
    <glyph glyph-name="F.sc" horiz-adv-x="459" 
d="M56 0v522h363v-119h-227v-117h203v-119h-203v-167h-136z" />
    <glyph glyph-name="G.sc" horiz-adv-x="585" 
d="M331 -9c-179 0 -288 114 -288 270c0 161 121 270 275 270c106 0 161 -37 200 -78l-87 -90c-21 24 -52 48 -113 48c-86 0 -136 -67 -136 -150c0 -84 38 -155 149 -155c31 0 61 6 81 14v60h-106v109h230v-246c-33 -23 -109 -52 -205 -52z" />
    <glyph glyph-name="H.sc" horiz-adv-x="577" 
d="M56 0v522h136v-203h193v203h136v-522h-136v198h-193v-198h-136z" />
    <glyph glyph-name="I.sc" horiz-adv-x="252" 
d="M58 0v522h136v-522h-136z" />
    <glyph glyph-name="J.sc" horiz-adv-x="424" 
d="M191 -9c-95 0 -150 49 -178 111l110 62c19 -35 31 -55 65 -55c30 0 47 17 47 58v355h136v-359c0 -123 -77 -172 -180 -172z" />
    <glyph glyph-name="K.sc" horiz-adv-x="546" 
d="M56 0v522h136v-127c0 -43 -7 -102 -11 -131c17 32 47 87 72 120l108 138h149l-179 -224l203 -298h-161l-135 203l-46 -53v-150h-136z" />
    <glyph glyph-name="L.sc" horiz-adv-x="462" 
d="M56 0v522h136v-404h230v-118h-366z" />
    <glyph glyph-name="M.sc" horiz-adv-x="655" 
d="M56 0v529h10l264 -280l259 280h10v-529h-131v159c0 42 6 99 7 101c-2 -2 -34 -51 -68 -88l-74 -81h-10l-76 81c-34 36 -64 84 -67 88c0 -2 7 -59 7 -101v-159h-131z" />
    <glyph glyph-name="N.sc" horiz-adv-x="556" 
d="M489 -8l-243 210c-39 34 -75 78 -75 78s10 -67 10 -110v-170h-125v529h11l241 -208c40 -35 72 -75 75 -79c-1 2 -8 68 -8 111v169h125v-530h-11z" />
    <glyph glyph-name="O.sc" horiz-adv-x="648" 
d="M324 -9c-153 0 -281 112 -281 270c0 160 128 270 281 270s281 -110 281 -270c0 -158 -128 -270 -281 -270zM324 111c84 0 142 60 142 150c0 88 -58 150 -142 150s-142 -62 -142 -150c0 -90 58 -150 142 -150z" />
    <glyph glyph-name="P.sc" horiz-adv-x="505" 
d="M56 0v522h198c127 0 216 -55 216 -184c0 -128 -89 -185 -216 -185h-62v-153h-136zM192 268h59c55 0 79 27 79 70s-27 68 -79 68h-59v-138z" />
    <glyph glyph-name="Q.sc" horiz-adv-x="648" 
d="M508 -77l-75 88c-34 -13 -70 -20 -109 -20c-153 0 -281 112 -281 270c0 160 128 270 281 270s281 -110 281 -270c0 -76 -29 -141 -77 -188l68 -79zM324 107c9 0 17 1 26 2l-56 65l88 71l63 -74c14 24 21 54 21 90c0 88 -58 150 -142 150s-142 -62 -142 -150
c0 -90 58 -154 142 -154z" />
    <glyph glyph-name="R.sc" horiz-adv-x="521" 
d="M56 0v522h203c127 0 216 -55 216 -184c0 -77 -38 -127 -98 -153l115 -185h-153l-98 164h-49v-164h-136zM192 271h64c55 0 79 24 79 67s-27 68 -79 68h-64v-135z" />
    <glyph glyph-name="S.sc" horiz-adv-x="459" 
d="M230 -9c-106 0 -183 51 -217 121l106 62c22 -38 55 -68 109 -68c37 0 64 14 64 38c0 25 -19 36 -71 57l-22 9c-86 35 -144 77 -144 170c0 91 70 151 171 151c75 0 127 -22 170 -90l-103 -59c-18 29 -37 37 -63 37c-27 0 -45 -14 -45 -37c0 -28 23 -38 54 -51l22 -9
c96 -39 166 -78 166 -177c0 -97 -74 -154 -197 -154z" />
    <glyph glyph-name="T.sc" horiz-adv-x="505" 
d="M184 0v404h-148v118h433v-118h-148v-404h-137z" />
    <glyph glyph-name="U.sc" horiz-adv-x="556" 
d="M279 -9c-134 0 -226 74 -226 215v316h136v-314c0 -64 28 -96 89 -96s89 31 89 96v314h136v-316c0 -141 -94 -215 -224 -215z" />
    <glyph glyph-name="V.sc" horiz-adv-x="542" 
d="M266 -7l-249 529h150l67 -152c25 -59 41 -123 43 -130c1 4 16 70 43 130l67 152h138l-247 -529h-12z" />
    <glyph glyph-name="W.sc" horiz-adv-x="750" 
d="M220 -7l-203 529h146l59 -161c17 -48 31 -106 33 -114c1 6 15 64 39 115l79 166h11l82 -166c28 -57 41 -116 41 -116s14 61 33 115l58 161h135l-200 -529h-12l-101 199c-22 43 -40 102 -41 108c-1 -3 -18 -63 -41 -108l-106 -199h-12z" />
    <glyph glyph-name="X.sc" horiz-adv-x="567" 
d="M20 0l178 289l-147 233h152l43 -73c24 -41 37 -89 38 -93c1 3 17 54 39 93l41 73h145l-145 -234l183 -288h-154l-65 104c-29 45 -48 99 -50 104c-1 -3 -21 -58 -48 -104l-63 -104h-147z" />
    <glyph glyph-name="Y.sc" horiz-adv-x="521" 
d="M196 0v191l-181 331h155l50 -100c26 -51 46 -124 48 -131c1 4 21 81 47 131l47 100h144l-174 -329v-193h-136z" />
    <glyph glyph-name="Z.sc" horiz-adv-x="496" 
d="M32 0v11l223 394h-184v117h391v-11l-223 -394h207v-117h-414z" />
    <glyph glyph-name="Oslash.sc" horiz-adv-x="648" 
d="M558 415c29 -42 47 -95 47 -154c0 -158 -128 -270 -281 -270c-63 0 -122 19 -169 52l-58 -53l-62 65l56 52c-30 42 -48 95 -48 154c0 160 128 270 281 270c63 0 123 -19 170 -52l57 52l62 -65zM189 197l213 197c-22 14 -48 21 -78 21c-87 0 -146 -63 -146 -154
c0 -24 4 -45 11 -64zM459 324l-213 -197c22 -13 48 -20 78 -20c87 0 146 61 146 154c0 23 -4 44 -11 63z" />
    <glyph glyph-name="AE.sc" horiz-adv-x="795" 
d="M14 0l374 522h354v-117h-235v-87h196v-111h-196v-90h245v-117h-377v62h-173l-44 -62h-144zM273 164h102v81c0 36 7 86 8 95c-3 -7 -26 -57 -45 -84z" />
    <glyph glyph-name="OE.sc" horiz-adv-x="791" 
d="M315 0c-154 0 -272 100 -272 261c0 159 117 261 272 261h423v-117h-235v-87h196v-111h-196v-90h245v-117h-433zM322 118h45v286h-45c-97 0 -140 -55 -140 -143c0 -87 43 -143 140 -143z" />
    <glyph glyph-name="Eth.sc" horiz-adv-x="559" 
d="M56 0v203h-38v113h38v206h188c154 0 272 -100 272 -261c0 -159 -117 -261 -272 -261h-188zM192 118h45c97 0 140 55 140 143c0 87 -43 143 -140 143h-45v-88h103v-113h-103v-85z" />
    <glyph glyph-name="Dcroat.sc" horiz-adv-x="559" 
d="M56 0v203h-38v113h38v206h188c154 0 272 -100 272 -261c0 -159 -117 -261 -272 -261h-188zM192 118h45c97 0 140 55 140 143c0 87 -43 143 -140 143h-45v-88h103v-113h-103v-85z" />
    <glyph glyph-name="dotlessi.sc" horiz-adv-x="252" 
d="M58 0v522h136v-522h-136z" />
    <glyph glyph-name="Aacute.sc" horiz-adv-x="540" 
d="M19 0l245 528h11l246 -528h-141l-25 59h-179l-25 -59h-132zM219 585l52 188h154l-104 -188h-102zM213 151h109l-15 34c-23 50 -39 104 -40 109c-1 -3 -17 -58 -39 -109z" />
    <glyph glyph-name="Abreve.sc" horiz-adv-x="540" 
d="M19 0l245 528h11l246 -528h-141l-25 59h-179l-25 -59h-132zM270 580c-96 0 -154 60 -162 140l103 15c5 -34 22 -57 59 -57s54 23 59 57l103 -15c-8 -80 -66 -140 -162 -140zM213 151h109l-15 34c-23 50 -39 104 -40 109c-1 -3 -17 -58 -39 -109z" />
    <glyph glyph-name="Acircumflex.sc" horiz-adv-x="540" 
d="M19 0l245 528h11l246 -528h-141l-25 59h-179l-25 -59h-132zM104 575l159 216h11l159 -216h-108l-56 65l-57 -65h-108zM213 151h109l-15 34c-23 50 -39 104 -40 109c-1 -3 -17 -58 -39 -109z" />
    <glyph glyph-name="Adieresis.sc" horiz-adv-x="540" 
d="M19 0l245 528h11l246 -528h-141l-25 59h-179l-25 -59h-132zM166 581c-39 0 -76 34 -76 76s37 76 76 76c40 0 76 -34 76 -76s-36 -76 -76 -76zM374 581c-39 0 -76 34 -76 76s37 76 76 76c40 0 76 -34 76 -76s-36 -76 -76 -76zM213 151h109l-15 34c-23 50 -39 104 -40 109
c-1 -3 -17 -58 -39 -109z" />
    <glyph glyph-name="Agrave.sc" horiz-adv-x="540" 
d="M19 0l245 528h11l246 -528h-141l-25 59h-179l-25 -59h-132zM221 585l-104 188h154l52 -188h-102zM213 151h109l-15 34c-23 50 -39 104 -40 109c-1 -3 -17 -58 -39 -109z" />
    <glyph glyph-name="Amacron.sc" horiz-adv-x="540" 
d="M19 0l245 528h11l246 -528h-141l-25 59h-179l-25 -59h-132zM138 601v99h264v-99h-264zM213 151h109l-15 34c-23 50 -39 104 -40 109c-1 -3 -17 -58 -39 -109z" />
    <glyph glyph-name="Aogonek.sc" horiz-adv-x="540" 
d="M449 -240c-57 0 -107 33 -107 101c0 34 17 65 40 94l35 45h-37l-25 59h-179l-25 -59h-132l245 528h11l235 -504l-55 -93c-20 -34 -26 -45 -26 -68c0 -18 11 -29 28 -29c21 0 32 12 41 26l66 -38c-23 -40 -55 -62 -115 -62zM213 151h109l-15 34c-23 50 -39 104 -40 109
c-1 -3 -17 -58 -39 -109z" />
    <glyph glyph-name="Aring.sc" horiz-adv-x="540" 
d="M19 0l245 528h11l246 -528h-141l-25 59h-179l-25 -59h-132zM270 559c-73 0 -129 55 -129 119c0 65 56 119 129 119s129 -54 129 -119c0 -64 -56 -119 -129 -119zM213 151h109l-15 34c-23 50 -39 104 -40 109c-1 -3 -17 -58 -39 -109zM270 633c24 0 43 16 43 45
s-19 45 -43 45s-43 -16 -43 -45s19 -45 43 -45z" />
    <glyph glyph-name="Atilde.sc" horiz-adv-x="540" 
d="M19 0l245 528h11l246 -528h-141l-25 59h-179l-25 -59h-132zM190 591l-91 9c5 94 52 140 111 140c27 0 47 -10 63 -20c23 -14 34 -25 48 -25c18 0 26 15 29 45l91 -9c-5 -94 -51 -140 -111 -140c-26 0 -47 10 -63 20c-23 14 -33 25 -48 25c-17 0 -26 -15 -29 -45zM213 151
h109l-15 34c-23 50 -39 104 -40 109c-1 -3 -17 -58 -39 -109z" />
    <glyph glyph-name="Cacute.sc" horiz-adv-x="588" 
d="M318 -9c-170 0 -275 117 -275 270c0 155 110 270 271 270c104 0 176 -41 223 -114l-108 -72c-23 37 -56 66 -115 66c-82 0 -132 -63 -132 -150c0 -86 50 -150 135 -150c65 0 105 31 126 74l110 -63c-39 -79 -121 -131 -235 -131zM254 585l52 188h154l-104 -188h-102z" />
    <glyph glyph-name="Ccaron.sc" horiz-adv-x="588" 
d="M318 -9c-170 0 -275 117 -275 270c0 155 110 270 271 270c104 0 176 -41 223 -114l-108 -72c-23 37 -56 66 -115 66c-82 0 -132 -63 -132 -150c0 -86 50 -150 135 -150c65 0 105 31 126 74l110 -63c-39 -79 -121 -131 -235 -131zM298 566l-159 216h108l56 -65l57 65h108
l-159 -216h-11z" />
    <glyph glyph-name="Ccedilla.sc" horiz-adv-x="588" 
d="M294 -240c-62 0 -98 26 -118 60l64 39c8 -15 20 -28 43 -28c19 0 36 11 36 34s-17 34 -41 34h-34v100c-126 29 -201 132 -201 262c0 155 110 270 271 270c104 0 176 -41 223 -114l-108 -72c-23 37 -56 66 -115 66c-82 0 -132 -63 -132 -150c0 -86 50 -150 135 -150
c65 0 105 31 126 74l110 -63c-39 -79 -121 -131 -235 -131h-5v-30c46 -9 89 -42 89 -104c0 -60 -54 -97 -108 -97z" />
    <glyph glyph-name="Ccircumflex.sc" horiz-adv-x="588" 
d="M318 -9c-170 0 -275 117 -275 270c0 155 110 270 271 270c104 0 176 -41 223 -114l-108 -72c-23 37 -56 66 -115 66c-82 0 -132 -63 -132 -150c0 -86 50 -150 135 -150c65 0 105 31 126 74l110 -63c-39 -79 -121 -131 -235 -131zM139 575l159 216h11l159 -216h-108
l-56 65l-57 -65h-108z" />
    <glyph glyph-name="Cdotaccent.sc" horiz-adv-x="588" 
d="M318 -9c-170 0 -275 117 -275 270c0 155 110 270 271 270c104 0 176 -41 223 -114l-108 -72c-23 37 -56 66 -115 66c-82 0 -132 -63 -132 -150c0 -86 50 -150 135 -150c65 0 105 31 126 74l110 -63c-39 -79 -121 -131 -235 -131zM306 572c-46 0 -86 35 -86 85
c0 49 40 84 86 84s85 -35 85 -84c0 -50 -39 -85 -85 -85z" />
    <glyph glyph-name="Dcaron.sc" horiz-adv-x="559" 
d="M56 0v522h188c154 0 272 -100 272 -261c0 -159 -117 -261 -272 -261h-188zM192 118h45c97 0 140 55 140 143c0 87 -43 143 -140 143h-45v-286zM244 566l-159 216h108l56 -65l57 65h108l-159 -216h-11z" />
    <glyph glyph-name="Eacute.sc" horiz-adv-x="480" 
d="M56 0v522h371v-117h-235v-87h196v-111h-196v-90h245v-117h-381zM195 585l52 188h154l-104 -188h-102z" />
    <glyph glyph-name="Ecaron.sc" horiz-adv-x="480" 
d="M56 0v522h371v-117h-235v-87h196v-111h-196v-90h245v-117h-381zM239 566l-159 216h108l56 -65l57 65h108l-159 -216h-11z" />
    <glyph glyph-name="Ecircumflex.sc" horiz-adv-x="480" 
d="M56 0v522h371v-117h-235v-87h196v-111h-196v-90h245v-117h-381zM80 575l159 216h11l159 -216h-108l-56 65l-57 -65h-108z" />
    <glyph glyph-name="Edieresis.sc" horiz-adv-x="480" 
d="M56 0v522h371v-117h-235v-87h196v-111h-196v-90h245v-117h-381zM350 581c-39 0 -76 34 -76 76s37 76 76 76c40 0 76 -34 76 -76s-36 -76 -76 -76zM142 581c-39 0 -76 34 -76 76s37 76 76 76c40 0 76 -34 76 -76s-36 -76 -76 -76z" />
    <glyph glyph-name="Edotaccent.sc" horiz-adv-x="480" 
d="M56 0v522h371v-117h-235v-87h196v-111h-196v-90h245v-117h-381zM247 572c-46 0 -86 35 -86 85c0 49 40 84 86 84s85 -35 85 -84c0 -50 -39 -85 -85 -85z" />
    <glyph glyph-name="Egrave.sc" horiz-adv-x="480" 
d="M56 0v522h371v-117h-235v-87h196v-111h-196v-90h245v-117h-381zM197 585l-104 188h154l52 -188h-102z" />
    <glyph glyph-name="Emacron.sc" horiz-adv-x="480" 
d="M56 0v522h371v-117h-235v-87h196v-111h-196v-90h245v-117h-381zM114 601v99h264v-99h-264z" />
    <glyph glyph-name="Eogonek.sc" horiz-adv-x="480" 
d="M338 -240c-57 0 -107 33 -107 101c0 34 17 65 40 94l35 45h-250v522h371v-117h-235v-87h196v-111h-196v-90h245v-117h-52l-41 -69c-20 -34 -26 -45 -26 -68c0 -18 11 -29 28 -29c21 0 32 12 41 26l66 -38c-23 -40 -55 -62 -115 -62z" />
    <glyph glyph-name="Gbreve.sc" horiz-adv-x="585" 
d="M331 -9c-179 0 -288 114 -288 270c0 161 121 270 275 270c106 0 161 -37 200 -78l-87 -90c-21 24 -52 48 -113 48c-86 0 -136 -67 -136 -150c0 -84 38 -155 149 -155c31 0 61 6 81 14v60h-106v109h230v-246c-33 -23 -109 -52 -205 -52zM301 580c-96 0 -154 60 -162 140
l103 15c5 -34 22 -57 59 -57s54 23 59 57l103 -15c-8 -80 -66 -140 -162 -140z" />
    <glyph glyph-name="Gcircumflex.sc" horiz-adv-x="585" 
d="M331 -9c-179 0 -288 114 -288 270c0 161 121 270 275 270c106 0 161 -37 200 -78l-87 -90c-21 24 -52 48 -113 48c-86 0 -136 -67 -136 -150c0 -84 38 -155 149 -155c31 0 61 6 81 14v60h-106v109h230v-246c-33 -23 -109 -52 -205 -52zM135 575l159 216h11l159 -216h-108
l-56 65l-57 -65h-108z" />
    <glyph glyph-name="Gcommaaccent.sc" horiz-adv-x="585" 
d="M331 -9c-179 0 -288 114 -288 270c0 161 121 270 275 270c106 0 161 -37 200 -78l-87 -90c-21 24 -52 48 -113 48c-86 0 -136 -67 -136 -150c0 -84 38 -155 149 -155c31 0 61 6 81 14v60h-106v109h230v-246c-33 -23 -109 -52 -205 -52zM234 -283l31 97
c-22 11 -41 36 -41 69c0 44 36 76 76 76c41 0 78 -32 78 -75c0 -31 -10 -56 -26 -82l-52 -85h-66z" />
    <glyph glyph-name="Gdotaccent.sc" horiz-adv-x="585" 
d="M331 -9c-179 0 -288 114 -288 270c0 161 121 270 275 270c106 0 161 -37 200 -78l-87 -90c-21 24 -52 48 -113 48c-86 0 -136 -67 -136 -150c0 -84 38 -155 149 -155c31 0 61 6 81 14v60h-106v109h230v-246c-33 -23 -109 -52 -205 -52zM302 582c-46 0 -86 35 -86 85
c0 49 40 84 86 84s85 -35 85 -84c0 -50 -39 -85 -85 -85z" />
    <glyph glyph-name="Hbar.sc" horiz-adv-x="577" 
d="M1 359v87h55v76h136v-76h193v76h136v-76h55v-87h-55v-359h-136v198h-193v-198h-136v359h-55zM192 312h193v47h-193v-47z" />
    <glyph glyph-name="Hcircumflex.sc" horiz-adv-x="577" 
d="M56 0v522h136v-203h193v203h136v-522h-136v198h-193v-198h-136zM122 575l159 216h11l159 -216h-108l-56 65l-57 -65h-108z" />
    <glyph glyph-name="Iacute.sc" horiz-adv-x="252" 
d="M58 0v522h136v-522h-136zM75 585l52 188h154l-104 -188h-102z" />
    <glyph glyph-name="Icircumflex.sc" horiz-adv-x="252" 
d="M58 0v522h136v-522h-136zM-40 575l159 216h11l159 -216h-108l-56 65l-57 -65h-108z" />
    <glyph glyph-name="Idieresis.sc" horiz-adv-x="252" 
d="M58 0v522h136v-522h-136zM226 581c-39 0 -76 34 -76 76s37 76 76 76c40 0 76 -34 76 -76s-36 -76 -76 -76zM26 581c-39 0 -76 34 -76 76s37 76 76 76c40 0 76 -34 76 -76s-36 -76 -76 -76z" />
    <glyph glyph-name="Idotaccent.sc" horiz-adv-x="252" 
d="M58 0v522h136v-522h-136zM126 572c-46 0 -86 35 -86 85c0 49 40 84 86 84s85 -35 85 -84c0 -50 -39 -85 -85 -85z" />
    <glyph glyph-name="Igrave.sc" horiz-adv-x="252" 
d="M58 0v522h136v-522h-136zM77 585l-104 188h154l52 -188h-102z" />
    <glyph glyph-name="Imacron.sc" horiz-adv-x="252" 
d="M58 0v522h136v-522h-136zM4 601v99h244v-99h-244z" />
    <glyph glyph-name="Iogonek.sc" horiz-adv-x="252" 
d="M93 0h-35v522h136v-485l-63 -106c-20 -34 -26 -45 -26 -68c0 -18 11 -29 28 -29c21 0 32 12 41 26l66 -38c-23 -40 -55 -62 -115 -62c-57 0 -107 33 -107 101c0 34 17 65 40 94z" />
    <glyph glyph-name="Jcircumflex.sc" horiz-adv-x="424" 
d="M191 -9c-95 0 -150 49 -178 111l110 62c19 -35 31 -55 65 -55c30 0 47 17 47 58v355h136v-359c0 -123 -77 -172 -180 -172zM136 575l159 216h11l159 -216h-108l-56 65l-57 -65h-108z" />
    <glyph glyph-name="Kcommaaccent.sc" horiz-adv-x="546" 
d="M56 0v522h136v-127c0 -43 -7 -102 -11 -131c17 32 47 87 72 120l108 138h149l-179 -224l203 -298h-161l-135 203l-46 -53v-150h-136zM206 -283l31 97c-22 11 -41 36 -41 69c0 44 36 76 76 76c41 0 78 -32 78 -75c0 -31 -10 -56 -26 -82l-52 -85h-66z" />
    <glyph glyph-name="Lacute.sc" horiz-adv-x="462" 
d="M56 0v522h136v-404h230v-118h-366zM77 585l52 188h154l-104 -188h-102z" />
    <glyph glyph-name="Lcaron.sc" horiz-adv-x="462" 
d="M287 264l38 114c-24 11 -45 38 -45 73c0 46 38 80 80 80c44 0 82 -34 82 -79c0 -31 -12 -55 -30 -86l-60 -102h-65zM56 0v522h136v-404h230v-118h-366z" />
    <glyph glyph-name="Lcommaaccent.sc" horiz-adv-x="462" 
d="M56 0v522h136v-404h230v-118h-366zM164 -283l31 97c-22 11 -41 36 -41 69c0 44 36 76 76 76c41 0 78 -32 78 -75c0 -31 -10 -56 -26 -82l-52 -85h-66z" />
    <glyph glyph-name="Lslash.sc" horiz-adv-x="475" 
d="M66 0v156l-56 -24v113l56 24v253h136v-195l128 55v-113l-128 -55v-96h230v-118h-366z" />
    <glyph glyph-name="Nacute.sc" horiz-adv-x="556" 
d="M489 -8l-243 210c-39 34 -75 78 -75 78s10 -67 10 -110v-170h-125v529h11l241 -208c40 -35 72 -75 75 -79c-1 2 -8 68 -8 111v169h125v-530h-11zM225 585l52 188h154l-104 -188h-102z" />
    <glyph glyph-name="Ncaron.sc" horiz-adv-x="556" 
d="M489 -8l-243 210c-39 34 -75 78 -75 78s10 -67 10 -110v-170h-125v529h11l241 -208c40 -35 72 -75 75 -79c-1 2 -8 68 -8 111v169h125v-530h-11zM269 566l-159 216h108l56 -65l57 65h108l-159 -216h-11z" />
    <glyph glyph-name="Ncommaaccent.sc" horiz-adv-x="556" 
d="M489 -8l-243 210c-39 34 -75 78 -75 78s10 -67 10 -110v-170h-125v529h11l241 -208c40 -35 72 -75 75 -79c-1 2 -8 68 -8 111v169h125v-530h-11zM226 -283l31 97c-22 11 -41 36 -41 69c0 44 36 76 76 76c41 0 78 -32 78 -75c0 -31 -10 -56 -26 -82l-52 -85h-66z" />
    <glyph glyph-name="Ntilde.sc" horiz-adv-x="556" 
d="M489 -8l-243 210c-39 34 -75 78 -75 78s10 -67 10 -110v-170h-125v529h11l241 -208c40 -35 72 -75 75 -79c-1 2 -8 68 -8 111v169h125v-530h-11zM196 591l-91 9c5 94 52 140 111 140c27 0 47 -10 63 -20c23 -14 34 -25 48 -25c18 0 26 15 29 45l91 -9
c-5 -94 -51 -140 -111 -140c-26 0 -47 10 -63 20c-23 14 -33 25 -48 25c-17 0 -26 -15 -29 -45z" />
    <glyph glyph-name="Oacute.sc" horiz-adv-x="648" 
d="M324 -9c-153 0 -281 112 -281 270c0 160 128 270 281 270s281 -110 281 -270c0 -158 -128 -270 -281 -270zM324 111c84 0 142 60 142 150c0 88 -58 150 -142 150s-142 -62 -142 -150c0 -90 58 -150 142 -150zM273 585l52 188h154l-104 -188h-102z" />
    <glyph glyph-name="Ocircumflex.sc" horiz-adv-x="648" 
d="M324 -9c-153 0 -281 112 -281 270c0 160 128 270 281 270s281 -110 281 -270c0 -158 -128 -270 -281 -270zM324 111c84 0 142 60 142 150c0 88 -58 150 -142 150s-142 -62 -142 -150c0 -90 58 -150 142 -150zM158 575l159 216h11l159 -216h-108l-56 65l-57 -65h-108z" />
    <glyph glyph-name="Odieresis.sc" horiz-adv-x="648" 
d="M324 -9c-153 0 -281 112 -281 270c0 160 128 270 281 270s281 -110 281 -270c0 -158 -128 -270 -281 -270zM324 111c84 0 142 60 142 150c0 88 -58 150 -142 150s-142 -62 -142 -150c0 -90 58 -150 142 -150zM428 581c-39 0 -76 34 -76 76s37 76 76 76
c40 0 76 -34 76 -76s-36 -76 -76 -76zM220 581c-39 0 -76 34 -76 76s37 76 76 76c40 0 76 -34 76 -76s-36 -76 -76 -76z" />
    <glyph glyph-name="Ograve.sc" horiz-adv-x="648" 
d="M324 -9c-153 0 -281 112 -281 270c0 160 128 270 281 270s281 -110 281 -270c0 -158 -128 -270 -281 -270zM324 111c84 0 142 60 142 150c0 88 -58 150 -142 150s-142 -62 -142 -150c0 -90 58 -150 142 -150zM275 585l-104 188h154l52 -188h-102z" />
    <glyph glyph-name="Ohungarumlaut.sc" horiz-adv-x="648" 
d="M324 -9c-153 0 -281 112 -281 270c0 160 128 270 281 270s281 -110 281 -270c0 -158 -128 -270 -281 -270zM324 111c84 0 142 60 142 150c0 88 -58 150 -142 150s-142 -62 -142 -150c0 -90 58 -150 142 -150zM365 585l51 188h140l-89 -188h-102zM180 585l51 188h140
l-89 -188h-102z" />
    <glyph glyph-name="Omacron.sc" horiz-adv-x="648" 
d="M324 -9c-153 0 -281 112 -281 270c0 160 128 270 281 270s281 -110 281 -270c0 -158 -128 -270 -281 -270zM324 111c84 0 142 60 142 150c0 88 -58 150 -142 150s-142 -62 -142 -150c0 -90 58 -150 142 -150zM192 601v99h264v-99h-264z" />
    <glyph glyph-name="Otilde.sc" horiz-adv-x="648" 
d="M324 -9c-153 0 -281 112 -281 270c0 160 128 270 281 270s281 -110 281 -270c0 -158 -128 -270 -281 -270zM324 111c84 0 142 60 142 150c0 88 -58 150 -142 150s-142 -62 -142 -150c0 -90 58 -150 142 -150zM244 591l-91 9c5 94 52 140 111 140c27 0 47 -10 63 -20
c23 -14 34 -25 48 -25c18 0 26 15 29 45l91 -9c-5 -94 -51 -140 -111 -140c-26 0 -47 10 -63 20c-23 14 -33 25 -48 25c-17 0 -26 -15 -29 -45z" />
    <glyph glyph-name="Racute.sc" horiz-adv-x="521" 
d="M56 0v522h203c127 0 216 -55 216 -184c0 -77 -38 -127 -98 -153l115 -185h-153l-98 164h-49v-164h-136zM192 271h64c55 0 79 24 79 67s-27 68 -79 68h-64v-135zM191 585l52 188h154l-104 -188h-102z" />
    <glyph glyph-name="Rcaron.sc" horiz-adv-x="521" 
d="M56 0v522h203c127 0 216 -55 216 -184c0 -77 -38 -127 -98 -153l115 -185h-153l-98 164h-49v-164h-136zM192 271h64c55 0 79 24 79 67s-27 68 -79 68h-64v-135zM235 566l-159 216h108l56 -65l57 65h108l-159 -216h-11z" />
    <glyph glyph-name="Rcommaaccent.sc" horiz-adv-x="521" 
d="M56 0v522h203c127 0 216 -55 216 -184c0 -77 -38 -127 -98 -153l115 -185h-153l-98 164h-49v-164h-136zM192 271h64c55 0 79 24 79 67s-27 68 -79 68h-64v-135zM194 -283l31 97c-22 11 -41 36 -41 69c0 44 36 76 76 76c41 0 78 -32 78 -75c0 -31 -10 -56 -26 -82l-52 -85
h-66z" />
    <glyph glyph-name="Sacute.sc" horiz-adv-x="459" 
d="M230 -9c-106 0 -183 51 -217 121l106 62c22 -38 55 -68 109 -68c37 0 64 14 64 38c0 25 -19 36 -71 57l-22 9c-86 35 -144 77 -144 170c0 91 70 151 171 151c75 0 127 -22 170 -90l-103 -59c-18 29 -37 37 -63 37c-27 0 -45 -14 -45 -37c0 -28 23 -38 54 -51l22 -9
c96 -39 166 -78 166 -177c0 -97 -74 -154 -197 -154zM176 585l52 188h154l-104 -188h-102z" />
    <glyph glyph-name="Scaron.sc" horiz-adv-x="459" 
d="M230 -9c-106 0 -183 51 -217 121l106 62c22 -38 55 -68 109 -68c37 0 64 14 64 38c0 25 -19 36 -71 57l-22 9c-86 35 -144 77 -144 170c0 91 70 151 171 151c75 0 127 -22 170 -90l-103 -59c-18 29 -37 37 -63 37c-27 0 -45 -14 -45 -37c0 -28 23 -38 54 -51l22 -9
c96 -39 166 -78 166 -177c0 -97 -74 -154 -197 -154zM220 566l-159 216h108l56 -65l57 65h108l-159 -216h-11z" />
    <glyph glyph-name="Scedilla.sc" horiz-adv-x="459" 
d="M239 -240c-62 0 -98 26 -118 60l64 39c8 -15 20 -28 43 -28c19 0 36 11 36 34s-17 34 -41 34h-34v95c-85 11 -147 57 -176 118l106 62c22 -38 55 -68 109 -68c37 0 64 14 64 38c0 25 -19 36 -71 57l-22 9c-86 35 -144 77 -144 170c0 91 70 151 171 151
c75 0 127 -22 170 -90l-103 -59c-18 29 -37 37 -63 37c-27 0 -45 -14 -45 -37c0 -28 23 -38 54 -51l22 -9c96 -39 166 -78 166 -177c0 -90 -63 -145 -169 -153v-31c46 -9 89 -42 89 -104c0 -60 -54 -97 -108 -97z" />
    <glyph glyph-name="Scircumflex.sc" horiz-adv-x="459" 
d="M230 -9c-106 0 -183 51 -217 121l106 62c22 -38 55 -68 109 -68c37 0 64 14 64 38c0 25 -19 36 -71 57l-22 9c-86 35 -144 77 -144 170c0 91 70 151 171 151c75 0 127 -22 170 -90l-103 -59c-18 29 -37 37 -63 37c-27 0 -45 -14 -45 -37c0 -28 23 -38 54 -51l22 -9
c96 -39 166 -78 166 -177c0 -97 -74 -154 -197 -154zM61 575l159 216h11l159 -216h-108l-56 65l-57 -65h-108z" />
    <glyph glyph-name="Scommaaccent.sc" horiz-adv-x="459" 
d="M230 -9c-106 0 -183 51 -217 121l106 62c22 -38 55 -68 109 -68c37 0 64 14 64 38c0 25 -19 36 -71 57l-22 9c-86 35 -144 77 -144 170c0 91 70 151 171 151c75 0 127 -22 170 -90l-103 -59c-18 29 -37 37 -63 37c-27 0 -45 -14 -45 -37c0 -28 23 -38 54 -51l22 -9
c96 -39 166 -78 166 -177c0 -97 -74 -154 -197 -154zM160 -283l31 97c-22 11 -41 36 -41 69c0 44 36 76 76 76c41 0 78 -32 78 -75c0 -31 -10 -56 -26 -82l-52 -85h-66z" />
    <glyph glyph-name="Tcaron.sc" horiz-adv-x="505" 
d="M184 0v404h-148v118h433v-118h-148v-404h-137zM245 566l-159 216h108l56 -65l57 65h108l-159 -216h-11z" />
    <glyph glyph-name="uni021A.sc" horiz-adv-x="505" 
d="M184 0v404h-148v118h433v-118h-148v-404h-38v-39c46 -9 89 -42 89 -104c0 -60 -54 -97 -108 -97c-62 0 -98 26 -118 60l64 39c8 -15 20 -28 43 -28c19 0 36 11 36 34s-17 34 -41 34h-34v101h-30z" />
    <glyph glyph-name="Tcommaaccent.sc" horiz-adv-x="505" 
d="M184 0v404h-148v118h433v-118h-148v-404h-137zM185 -283l31 97c-22 11 -41 36 -41 69c0 44 36 76 76 76c41 0 78 -32 78 -75c0 -31 -10 -56 -26 -82l-52 -85h-66z" />
    <glyph glyph-name="Thorn.sc" horiz-adv-x="505" 
d="M56 0v522h136v-72h62c127 0 216 -54 216 -181c0 -126 -89 -182 -216 -182h-62v-87h-136zM192 202h59c55 0 79 26 79 67s-27 65 -79 65h-59v-132z" />
    <glyph glyph-name="Uacute.sc" horiz-adv-x="556" 
d="M279 -9c-134 0 -226 74 -226 215v316h136v-314c0 -64 28 -96 89 -96s89 31 89 96v314h136v-316c0 -141 -94 -215 -224 -215zM227 585l52 188h154l-104 -188h-102z" />
    <glyph glyph-name="Ubreve.sc" horiz-adv-x="556" 
d="M279 -9c-134 0 -226 74 -226 215v316h136v-314c0 -64 28 -96 89 -96s89 31 89 96v314h136v-316c0 -141 -94 -215 -224 -215zM278 580c-96 0 -154 60 -162 140l103 15c5 -34 22 -57 59 -57s54 23 59 57l103 -15c-8 -80 -66 -140 -162 -140z" />
    <glyph glyph-name="Ucircumflex.sc" horiz-adv-x="556" 
d="M279 -9c-134 0 -226 74 -226 215v316h136v-314c0 -64 28 -96 89 -96s89 31 89 96v314h136v-316c0 -141 -94 -215 -224 -215zM112 575l159 216h11l159 -216h-108l-56 65l-57 -65h-108z" />
    <glyph glyph-name="Udieresis.sc" horiz-adv-x="556" 
d="M279 -9c-134 0 -226 74 -226 215v316h136v-314c0 -64 28 -96 89 -96s89 31 89 96v314h136v-316c0 -141 -94 -215 -224 -215zM382 581c-39 0 -76 34 -76 76s37 76 76 76c40 0 76 -34 76 -76s-36 -76 -76 -76zM174 581c-39 0 -76 34 -76 76s37 76 76 76c40 0 76 -34 76 -76
s-36 -76 -76 -76z" />
    <glyph glyph-name="Ugrave.sc" horiz-adv-x="556" 
d="M279 -9c-134 0 -226 74 -226 215v316h136v-314c0 -64 28 -96 89 -96s89 31 89 96v314h136v-316c0 -141 -94 -215 -224 -215zM229 585l-104 188h154l52 -188h-102z" />
    <glyph glyph-name="Uhungarumlaut.sc" horiz-adv-x="556" 
d="M279 -9c-134 0 -226 74 -226 215v316h136v-314c0 -64 28 -96 89 -96s89 31 89 96v314h136v-316c0 -141 -94 -215 -224 -215zM319 585l51 188h140l-89 -188h-102zM134 585l51 188h140l-89 -188h-102z" />
    <glyph glyph-name="Umacron.sc" horiz-adv-x="556" 
d="M279 -9c-134 0 -226 74 -226 215v316h136v-314c0 -64 28 -96 89 -96s89 31 89 96v314h136v-316c0 -141 -94 -215 -224 -215zM146 601v99h264v-99h-264z" />
    <glyph glyph-name="Uogonek.sc" horiz-adv-x="556" 
d="M248 -8c-117 11 -195 84 -195 214v316h136v-314c0 -64 28 -96 89 -96s89 31 89 96v314h136v-316c0 -122 -70 -193 -173 -211l-38 -64c-20 -34 -26 -45 -26 -68c0 -18 11 -29 28 -29c21 0 32 12 41 26l66 -38c-23 -40 -55 -62 -115 -62c-57 0 -107 33 -107 101
c0 34 17 65 40 94z" />
    <glyph glyph-name="Uring.sc" horiz-adv-x="556" 
d="M279 -9c-134 0 -226 74 -226 215v316h136v-314c0 -64 28 -96 89 -96s89 31 89 96v314h136v-316c0 -141 -94 -215 -224 -215zM278 549c-73 0 -129 55 -129 119c0 65 56 119 129 119s129 -54 129 -119c0 -64 -56 -119 -129 -119zM278 623c24 0 43 16 43 45s-19 45 -43 45
s-43 -16 -43 -45s19 -45 43 -45z" />
    <glyph glyph-name="Yacute.sc" horiz-adv-x="521" 
d="M196 0v191l-181 331h155l50 -100c28 -53 48 -131 48 -131s21 80 47 131l47 100h144l-174 -329v-193h-136zM218 585l52 188h154l-104 -188h-102z" />
    <glyph glyph-name="Ydieresis.sc" horiz-adv-x="521" 
d="M196 0v191l-181 331h155l50 -100c26 -51 46 -124 48 -131c1 4 21 81 47 131l47 100h144l-174 -329v-193h-136zM165 581c-39 0 -76 34 -76 76s37 76 76 76c40 0 76 -34 76 -76s-36 -76 -76 -76zM373 581c-39 0 -76 34 -76 76s37 76 76 76c40 0 76 -34 76 -76
s-36 -76 -76 -76z" />
    <glyph glyph-name="Zacute.sc" horiz-adv-x="496" 
d="M32 0v11l223 394h-184v117h391v-11l-223 -394h207v-117h-414zM208 585l52 188h154l-104 -188h-102z" />
    <glyph glyph-name="Zcaron.sc" horiz-adv-x="496" 
d="M32 0v11l223 394h-184v117h391v-11l-223 -394h207v-117h-414zM252 566l-159 216h108l56 -65l57 65h108l-159 -216h-11z" />
    <glyph glyph-name="Zdotaccent.sc" horiz-adv-x="496" 
d="M32 0v11l223 394h-184v117h391v-11l-223 -394h207v-117h-414zM260 572c-46 0 -86 35 -86 85c0 49 40 84 86 84s85 -35 85 -84c0 -50 -39 -85 -85 -85z" />
    <glyph glyph-name="space.sc" horiz-adv-x="221" 
 />
    <glyph glyph-name="dollar.sc" horiz-adv-x="502" 
d="M218 -7c-117 10 -177 70 -204 122l99 56c19 -33 47 -64 105 -73v115c-127 30 -174 88 -174 163s53 147 174 154v101h67v-103c76 -12 126 -53 153 -88l-87 -66c-10 16 -31 38 -66 49v-100c122 -28 186 -84 186 -168c0 -98 -59 -156 -186 -163v-108h-67v109zM285 96
c50 6 61 25 61 45c0 22 -10 43 -61 57v-102zM218 429c-39 -4 -52 -21 -52 -42c0 -22 7 -36 52 -48v90z" />
    <glyph glyph-name="cent.sc" horiz-adv-x="444" 
d="M221 -116v109c-106 14 -185 92 -185 198c0 107 79 186 185 199v100h67v-100c64 -8 107 -37 134 -73l-87 -75c-12 18 -26 30 -47 36v-174c25 6 40 19 53 33l84 -77c-32 -35 -73 -61 -137 -67v-109h-67zM221 107v169c-32 -12 -52 -43 -52 -85c0 -43 19 -72 52 -84z" />
    <glyph glyph-name="Euro.sc" horiz-adv-x="532" 
d="M317 -9c-112 0 -195 67 -228 169h-64v81h49c-1 11 -1 32 -1 35h-48v81h61c33 105 118 174 230 174c93 0 151 -36 192 -98l-98 -74c-22 33 -47 56 -93 56c-44 0 -73 -22 -90 -58h122v-81h-139c0 -4 0 -25 1 -35h138v-81h-120c16 -34 45 -53 89 -53c50 0 80 33 99 66
l104 -63c-37 -69 -97 -119 -204 -119z" />
    <glyph glyph-name="sterling.sc" horiz-adv-x="539" 
d="M170 213h-96v88h51c-9 23 -15 47 -15 73c0 90 65 157 184 157c104 0 154 -47 187 -99l-108 -65c-18 33 -40 48 -71 48s-53 -18 -53 -53c0 -19 8 -39 17 -61h149v-88h-113c6 -19 9 -39 9 -61c0 -9 -1 -18 -2 -27c22 -8 44 -13 67 -13c29 0 56 15 75 38l81 -87
c-41 -53 -82 -72 -150 -72c-50 0 -88 20 -120 43c-30 -27 -71 -43 -123 -43c-67 0 -112 40 -112 96s42 96 105 96c19 0 36 -3 54 -8c-4 13 -10 25 -16 38zM184 94c-14 9 -28 15 -43 15c-19 0 -28 -10 -28 -22s9 -22 28 -22s34 10 43 29z" />
    <glyph glyph-name="yen.sc" horiz-adv-x="557" 
d="M212 0v73h-152v87h152v11l-13 24h-139v87h91c1 0 -131 240 -131 240h153l61 -124c26 -53 48 -139 48 -139s26 88 52 139l62 124h141l-130 -240h93v-87h-140l-12 -23v-12h152v-87h-152v-73h-136z" />
    <glyph glyph-name="florin.sc" horiz-adv-x="418" 
d="M61 -94l32 280h-60v103h72l8 74c13 116 72 168 167 168c64 0 100 -24 127 -61l-80 -77c-10 16 -21 24 -39 24c-23 0 -38 -12 -42 -43l-10 -85h96v-103h-108l-31 -280h-132z" />
    <glyph glyph-name="zero.sc" horiz-adv-x="572" 
d="M286 -9c-138 0 -249 109 -249 270c0 162 111 270 249 270s249 -108 249 -270c0 -161 -111 -270 -249 -270zM286 111c67 0 108 53 108 150s-41 150 -108 150s-108 -53 -108 -150s41 -150 108 -150z" />
    <glyph glyph-name="one.sc" horiz-adv-x="339" 
d="M141 0v404h-105v118h241v-522h-136z" />
    <glyph glyph-name="two.sc" horiz-adv-x="471" 
d="M12 0v11l212 220c49 51 71 86 71 122c0 32 -21 55 -60 55c-37 0 -65 -25 -85 -75l-123 34c27 102 104 164 213 164c118 0 194 -71 194 -172c0 -59 -35 -115 -93 -176l-32 -34c-16 -17 -47 -37 -47 -37s32 4 57 4h115v-116h-422z" />
    <glyph glyph-name="three.sc" horiz-adv-x="488" 
d="M239 -9c-111 0 -188 54 -221 132l116 54c17 -38 44 -65 100 -65c48 0 78 30 78 70s-30 74 -89 74c-35 0 -62 -8 -77 -14l-6 9l73 108c14 20 48 52 48 52s-52 -7 -78 -7h-120v118h384v-11l-84 -123c-20 -29 -46 -45 -46 -45c75 -16 135 -76 135 -170
c0 -122 -102 -182 -213 -182z" />
    <glyph glyph-name="four.sc" horiz-adv-x="531" 
d="M282 0v65h-248v105l374 357h11v-355h74v-107h-74v-65h-137zM156 162c0 0 35 5 65 5h66v51c0 32 4 71 5 73c-2 -2 -27 -37 -48 -56l-36 -33c-23 -21 -52 -40 -52 -40z" />
    <glyph glyph-name="five.sc" horiz-adv-x="477" 
d="M233 -9c-114 0 -185 63 -215 119l113 62c18 -33 48 -60 95 -60c44 0 76 26 76 65c0 43 -33 69 -97 69c-52 0 -101 -20 -131 -40l-8 4v312h335v-117h-220v-67c14 6 38 9 57 9c128 0 203 -67 203 -173c0 -111 -83 -183 -208 -183z" />
    <glyph glyph-name="six.sc" horiz-adv-x="501" 
d="M252 -9c-125 0 -213 86 -213 193c0 52 19 94 55 148l129 190h153l-74 -107c-20 -28 -52 -55 -56 -59c10 3 26 5 35 5c102 0 185 -70 185 -178c0 -105 -86 -192 -214 -192zM251 110c54 0 76 38 76 75c0 40 -21 75 -76 75c-49 0 -77 -34 -77 -75c0 -37 28 -75 77 -75z" />
    <glyph glyph-name="seven.sc" horiz-adv-x="487" 
d="M74 0l195 404h-231v118h427v-11l-245 -511h-146z" />
    <glyph glyph-name="eight.sc" horiz-adv-x="492" 
d="M247 -9c-121 0 -214 66 -214 165c0 59 35 103 93 128c-42 23 -64 59 -64 102c0 80 64 145 185 145c123 0 184 -65 184 -145c0 -44 -21 -79 -63 -102c57 -25 91 -69 91 -128c0 -99 -90 -165 -212 -165zM247 107c45 0 76 24 76 64c0 42 -31 68 -76 68
c-47 0 -78 -26 -78 -68c0 -40 31 -64 78 -64zM249 330c30 0 53 19 53 50c0 32 -26 49 -56 49c-32 0 -55 -17 -55 -49c0 -31 26 -50 58 -50z" />
    <glyph glyph-name="nine.sc" horiz-adv-x="503" 
d="M114 0l83 107c21 30 52 55 57 58c-9 -3 -24 -4 -32 -4c-102 0 -187 70 -187 178c0 105 88 192 216 192c125 0 213 -86 213 -193c0 -52 -23 -105 -60 -154l-139 -184h-151zM252 262c49 0 77 34 77 75c0 37 -28 75 -77 75c-54 0 -78 -38 -78 -75c0 -40 23 -75 78 -75z" />
    <glyph glyph-name="percent.sc" horiz-adv-x="855" 
d="M189 217c-90 0 -164 65 -164 157c0 91 74 157 164 157c89 0 163 -66 163 -157c0 -92 -74 -157 -163 -157zM196 0l330 522h133l-330 -522h-133zM667 -9c-90 0 -164 65 -164 157c0 91 74 157 164 157c89 0 163 -66 163 -157c0 -92 -74 -157 -163 -157zM189 318
c26 0 52 21 52 56s-26 56 -52 56s-52 -21 -52 -56s26 -56 52 -56zM667 92c26 0 52 21 52 56s-26 56 -52 56s-52 -21 -52 -56s26 -56 52 -56z" />
    <glyph glyph-name="perthousand.sc" horiz-adv-x="1224" 
d="M189 217c-90 0 -164 65 -164 157c0 91 74 157 164 157c89 0 163 -66 163 -157c0 -92 -74 -157 -163 -157zM196 0l330 522h133l-330 -522h-133zM1036 -9c-90 0 -164 65 -164 157c0 91 74 157 164 157c89 0 163 -66 163 -157c0 -92 -74 -157 -163 -157zM667 -9
c-90 0 -164 65 -164 157c0 91 74 157 164 157c89 0 163 -66 163 -157c0 -92 -74 -157 -163 -157zM189 318c26 0 52 21 52 56s-26 56 -52 56s-52 -21 -52 -56s26 -56 52 -56zM1036 92c26 0 52 21 52 56s-26 56 -52 56s-52 -21 -52 -56s26 -56 52 -56zM667 92
c26 0 52 21 52 56s-26 56 -52 56s-52 -21 -52 -56s26 -56 52 -56z" />
    <glyph glyph-name="plus.sc" horiz-adv-x="411" 
d="M145 97v110h-106v118h106v110h121v-110h106v-118h-106v-110h-121z" />
    <glyph glyph-name="minus.sc" horiz-adv-x="411" 
d="M372 207h-333v118h333v-118z" />
    <glyph glyph-name="multiply.sc" horiz-adv-x="408" 
d="M204 184l-89 -89l-82 82l89 89l-89 89l82 82l89 -89l89 89l82 -82l-89 -89l89 -89l-82 -82z" />
    <glyph glyph-name="divide.sc" horiz-adv-x="411" 
d="M372 207h-333v118h333v-118zM206 360c-44 0 -81 34 -81 81s37 80 81 80c43 0 80 -33 80 -80s-37 -81 -80 -81zM206 11c-44 0 -81 34 -81 81s37 80 81 80c43 0 80 -33 80 -80s-37 -81 -80 -81z" />
    <glyph glyph-name="equal.sc" horiz-adv-x="405" 
d="M36 279v115h333v-115h-333zM36 115v115h333v-115h-333z" />
    <glyph glyph-name="less.sc" horiz-adv-x="358" 
d="M321 72l-298 167v10l298 165v-117l-107 -54l107 -54v-117z" />
    <glyph glyph-name="greater.sc" horiz-adv-x="358" 
d="M37 72v117l107 54l-107 54v117l298 -167v-10z" />
    <glyph glyph-name="degree.sc" horiz-adv-x="332" 
d="M166 268c-76 0 -140 59 -140 132c0 75 64 131 140 131c77 0 140 -56 140 -131c0 -73 -63 -132 -140 -132zM166 348c29 0 50 21 50 52s-21 51 -50 51s-50 -20 -50 -51s21 -52 50 -52z" />
    <glyph glyph-name="period.sc" horiz-adv-x="249" 
d="M125 -6c-46 0 -85 35 -85 85c0 49 39 84 85 84c45 0 84 -35 84 -84c0 -50 -39 -85 -84 -85z" />
    <glyph glyph-name="comma.sc" horiz-adv-x="249" 
d="M52 -115l38 120c-30 14 -50 40 -50 76c0 47 39 82 85 82c45 0 84 -35 84 -84c0 -33 -15 -58 -30 -85l-59 -109h-68z" />
    <glyph glyph-name="colon.sc" horiz-adv-x="259" 
d="M130 224c-46 0 -85 35 -85 85c0 49 39 84 85 84c45 0 84 -35 84 -84c0 -50 -39 -85 -84 -85zM130 -6c-46 0 -85 35 -85 85c0 49 39 84 85 84c45 0 84 -35 84 -84c0 -50 -39 -85 -84 -85z" />
    <glyph glyph-name="semicolon.sc" horiz-adv-x="259" 
d="M130 224c-46 0 -85 35 -85 85c0 49 39 84 85 84c45 0 84 -35 84 -84c0 -50 -39 -85 -84 -85zM57 -115l38 120c-30 14 -50 40 -50 76c0 47 39 82 85 82c45 0 84 -35 84 -84c0 -33 -15 -58 -30 -85l-59 -109h-68z" />
    <glyph glyph-name="parenleft.sc" horiz-adv-x="344" 
d="M238 -67c-88 85 -189 204 -189 403c0 198 101 318 189 403l81 -65c-80 -97 -128 -193 -128 -338c0 -144 48 -241 128 -338z" />
    <glyph glyph-name="parenright.sc" horiz-adv-x="344" 
d="M106 -67l-81 65c80 97 128 194 128 338c0 145 -48 241 -128 338l81 65c88 -85 189 -205 189 -403c0 -199 -101 -318 -189 -403z" />
    <glyph glyph-name="bracketleft.sc" horiz-adv-x="337" 
d="M60 -62v794h247v-114h-112v-566h112v-114h-247z" />
    <glyph glyph-name="bracketright.sc" horiz-adv-x="337" 
d="M30 -62v114h112v566h-112v114h247v-794h-247z" />
    <glyph glyph-name="braceleft.sc" horiz-adv-x="414" 
d="M299 -62c-81 0 -158 31 -158 144v125c0 47 -18 66 -57 66h-58v114h58c39 0 57 19 57 66v135c0 113 77 144 158 144h85v-114h-73c-28 0 -34 -12 -34 -34v-148c0 -72 -39 -97 -93 -106c54 -9 93 -34 93 -106v-138c0 -22 6 -34 34 -34h73v-114h-85z" />
    <glyph glyph-name="braceright.sc" horiz-adv-x="414" 
d="M30 -62v114h73c28 0 34 12 34 34v138c0 72 39 97 93 106c-54 9 -93 34 -93 106v148c0 22 -6 34 -34 34h-73v114h85c81 0 158 -31 158 -144v-135c0 -47 18 -66 57 -66h58v-114h-58c-39 0 -57 -19 -57 -66v-125c0 -113 -77 -144 -158 -144h-85z" />
    <glyph glyph-name="slash.sc" horiz-adv-x="404" 
d="M-16 -128l279 850h132l-279 -850h-132z" />
    <glyph glyph-name="section.sc" horiz-adv-x="486" 
d="M108 290c-28 26 -42 60 -42 100c0 82 71 141 176 141c99 0 144 -44 168 -78l-99 -65c-13 19 -35 34 -67 34c-33 0 -42 -16 -42 -30s5 -23 28 -32l121 -46c68 -26 104 -70 104 -133c0 -41 -31 -74 -72 -94c25 -23 42 -53 42 -89c0 -94 -76 -145 -187 -145
c-104 0 -174 42 -207 91l102 71c17 -22 46 -52 97 -52c41 0 54 14 54 29c0 13 -7 22 -27 30l-125 48c-62 24 -100 63 -100 117s35 87 76 103zM301 133c21 6 30 17 30 35c0 16 -11 29 -35 38l-117 45c-18 -6 -27 -18 -27 -32c0 -19 9 -32 36 -42z" />
    <glyph glyph-name="numbersign.sc" horiz-adv-x="526" 
d="M61 142l25 101h-54v102h79l19 75h-54v102h79l25 97h105l-25 -97h75l25 97h105l-24 -97h53v-102h-78l-19 -75h53v-102h-79l-25 -101h-105l25 101h-75l-25 -101h-105zM217 345h75l19 75h-75z" />
    <glyph glyph-name="summation.sc" horiz-adv-x="510" 
d="M29 0v11l196 251l-199 249v11h427v-117h-128c-29 0 -67 4 -67 4s27 -28 45 -52l67 -90v-9l-70 -95c-19 -25 -45 -50 -45 -50s37 4 67 4h143v-117h-436z" />
    <glyph glyph-name="G.scalt" horiz-adv-x="621" 
d="M321 -9c-151 0 -278 110 -278 270c0 157 125 270 279 270c100 0 172 -36 221 -109l-107 -73c-24 39 -60 62 -116 62c-81 0 -138 -64 -138 -150c0 -87 56 -152 139 -152c59 0 110 23 126 76h-113v108h249c16 -178 -83 -302 -262 -302z" />
    <glyph glyph-name="M.scalt" horiz-adv-x="653" 
d="M47 0l46 527h11l180 -217c20 -23 42 -62 42 -62s24 38 44 62l179 217h11l46 -527h-132l-11 148c-4 51 -4 100 -4 101c-1 -2 -22 -45 -55 -85l-73 -88h-10l-74 87c-34 39 -58 82 -60 86c0 -1 3 -52 -1 -103l-11 -146h-128z" />
    <glyph glyph-name="Q.scalt1" horiz-adv-x="648" 
d="M384 -1v-112h-120v112c-125 24 -221 125 -221 262c0 160 128 270 281 270s281 -110 281 -270c0 -137 -96 -238 -221 -262zM264 117v85h120v-85c51 21 82 72 82 144c0 88 -58 150 -142 150s-142 -62 -142 -150c0 -72 31 -123 82 -144z" />
    <glyph glyph-name="Q.scalt2" horiz-adv-x="648" 
d="M397 0c19 -16 39 -27 64 -27c32 0 52 15 68 33l82 -80c-36 -49 -83 -71 -148 -71c-82 0 -142 50 -203 113c-31 32 -53 46 -87 46c-40 0 -63 -30 -77 -48l-84 82c14 19 35 44 79 59c-30 42 -48 95 -48 154c0 160 128 270 281 270s281 -110 281 -270
c0 -132 -90 -232 -208 -261zM324 111c84 0 142 60 142 150c0 88 -58 150 -142 150s-142 -62 -142 -150c0 -90 58 -150 142 -150z" />
    <glyph glyph-name="Gbreve.scalt" horiz-adv-x="621" 
d="M321 -9c-151 0 -278 110 -278 270c0 157 125 270 279 270c100 0 172 -36 221 -109l-107 -73c-24 39 -60 62 -116 62c-81 0 -138 -64 -138 -150c0 -87 56 -152 139 -152c59 0 110 23 126 76h-113v108h249c16 -178 -83 -302 -262 -302zM311 580c-96 0 -154 60 -162 140
l103 15c5 -34 22 -57 59 -57s54 23 59 57l103 -15c-8 -80 -66 -140 -162 -140z" />
    <glyph glyph-name="Gcircumflex.scalt" horiz-adv-x="621" 
d="M321 -9c-151 0 -278 110 -278 270c0 157 125 270 279 270c100 0 172 -36 221 -109l-107 -73c-24 39 -60 62 -116 62c-81 0 -138 -64 -138 -150c0 -87 56 -152 139 -152c59 0 110 23 126 76h-113v108h249c16 -178 -83 -302 -262 -302zM145 575l159 216h11l159 -216h-108
l-56 65l-57 -65h-108z" />
    <glyph glyph-name="Gcommaaccent.scalt" horiz-adv-x="621" 
d="M321 -9c-151 0 -278 110 -278 270c0 157 125 270 279 270c100 0 172 -36 221 -109l-107 -73c-24 39 -60 62 -116 62c-81 0 -138 -64 -138 -150c0 -87 56 -152 139 -152c59 0 110 23 126 76h-113v108h249c16 -178 -83 -302 -262 -302zM244 -283l31 97
c-22 11 -41 36 -41 69c0 44 36 76 76 76c41 0 78 -32 78 -75c0 -31 -10 -56 -26 -82l-52 -85h-66z" />
    <glyph glyph-name="Gdotaccent.scalt" horiz-adv-x="621" 
d="M321 -9c-151 0 -278 110 -278 270c0 157 125 270 279 270c100 0 172 -36 221 -109l-107 -73c-24 39 -60 62 -116 62c-81 0 -138 -64 -138 -150c0 -87 56 -152 139 -152c59 0 110 23 126 76h-113v108h249c16 -178 -83 -302 -262 -302zM312 582c-46 0 -86 35 -86 85
c0 49 40 84 86 84s85 -35 85 -84c0 -50 -39 -85 -85 -85z" />
    <glyph glyph-name="space.sctab" horiz-adv-x="200" 
 />
    <glyph glyph-name="dollar.sctab" 
d="M218 -7c-107 9 -159 61 -192 122l99 56c23 -40 45 -66 93 -74v117c-123 38 -165 88 -165 168c0 78 53 140 165 148v101h67v-103c67 -10 111 -44 144 -88l-87 -66c-15 22 -32 40 -57 49v-100c107 -33 172 -87 172 -175c0 -100 -61 -149 -172 -156v-108h-67v109zM285 97
c35 6 47 21 47 44s-9 39 -47 53v-97zM218 429c-32 -5 -43 -19 -43 -38c0 -24 10 -37 43 -49v87z" />
    <glyph glyph-name="cent.sctab" 
d="M316 -7v-109h-67v109c-106 14 -185 92 -185 198c0 107 79 186 185 199v100h67v-100c64 -8 107 -37 134 -73l-87 -75c-12 18 -26 30 -47 36v-174c25 6 40 19 53 33l84 -77c-32 -35 -73 -61 -137 -67zM249 107v169c-32 -12 -52 -43 -52 -85c0 -43 19 -72 52 -84z" />
    <glyph glyph-name="Euro.sctab" 
d="M301 -9c-108 0 -189 66 -221 169h-60v81h45v35h-45v81h57c31 106 112 174 221 174c88 0 144 -34 184 -93l-93 -71c-23 34 -46 50 -89 50s-70 -22 -85 -60h116v-81h-130v-35h130v-81h-115c15 -35 42 -54 86 -54c43 0 70 28 89 61l102 -62c-36 -65 -90 -114 -192 -114z" />
    <glyph glyph-name="sterling.sctab" 
d="M152 213h-93v88h48c-9 23 -15 47 -15 73c0 90 65 157 186 157c104 0 157 -45 183 -97l-108 -65c-16 32 -37 46 -68 46c-32 0 -50 -18 -50 -53c0 -19 7 -39 15 -61h134v-88h-101c5 -19 8 -39 8 -61c0 -9 -1 -19 -2 -28c19 -7 39 -12 60 -12c29 0 44 9 62 29l81 -87
c-37 -45 -74 -63 -133 -63c-48 0 -84 20 -116 44c-28 -27 -66 -44 -112 -44c-68 0 -114 40 -114 96s39 96 100 96c18 0 34 -3 50 -7c-4 13 -9 25 -15 37zM168 96c-13 9 -26 14 -40 14c-17 0 -27 -7 -27 -20s10 -26 27 -26c18 0 32 10 40 32z" />
    <glyph glyph-name="yen.sctab" 
d="M38 73v87h145v21l-7 14h-138v87h94l-121 240h153l60 -134c20 -46 29 -101 30 -108c1 5 11 61 32 108l61 134h141l-119 -240h95v-87h-138l-7 -14v-21h145v-87h-145v-73h-136v73h-145z" />
    <glyph glyph-name="florin.sctab" 
d="M137 186h-77v103h88l8 65c13 116 77 177 176 177c68 0 120 -28 152 -81l-90 -69c-12 21 -27 36 -55 36c-24 0 -46 -14 -51 -60l-8 -68h115v-103h-127l-31 -280h-132z" />
    <glyph glyph-name="zero.sctab" 
d="M250 -9c-132 0 -224 107 -224 271c0 165 92 269 224 269c133 0 224 -104 224 -269c0 -164 -91 -271 -224 -271zM250 111c55 0 81 54 81 151s-26 149 -81 149c-54 0 -81 -52 -81 -149s27 -151 81 -151z" />
    <glyph glyph-name="one.sctab" 
d="M191 112v298h-108v112h245v-410h107v-112h-360v112h116z" />
    <glyph glyph-name="two.sctab" 
d="M22 0v11l210 220c48 50 68 86 68 122c0 32 -18 55 -57 55c-37 0 -63 -25 -83 -75l-123 34c27 102 102 164 211 164c118 0 191 -71 191 -172c0 -59 -34 -117 -90 -176l-32 -34c-16 -17 -47 -37 -47 -37s32 4 57 4h112v-116h-417z" />
    <glyph glyph-name="three.sctab" 
d="M244 -9c-111 0 -182 49 -217 132l116 54c16 -35 39 -65 96 -65c49 0 77 29 77 70s-29 74 -86 74c-32 0 -59 -7 -74 -13l-6 9l72 107c15 22 48 52 48 52s-50 -7 -76 -7h-118v118h380v-11l-84 -123c-20 -29 -46 -45 -46 -45c76 -19 130 -76 130 -170
c0 -122 -97 -182 -212 -182z" />
    <glyph glyph-name="four.sctab" 
d="M401 172h64v-107h-64v-65h-130v65h-244v105l363 357h11v-355zM277 166v59c0 29 5 63 5 63s-25 -32 -42 -48l-46 -43c-20 -19 -49 -36 -49 -36s33 5 60 5h72z" />
    <glyph glyph-name="five.sctab" 
d="M246 -9c-114 0 -185 63 -215 119l113 62c18 -33 48 -60 95 -60c44 0 76 26 76 65c0 43 -33 69 -97 69c-52 0 -101 -19 -131 -39l-8 4v311h334v-117h-219v-67c14 6 38 9 57 9c128 0 203 -67 203 -173c0 -111 -83 -183 -208 -183z" />
    <glyph glyph-name="six.sctab" 
d="M249 -9c-125 0 -213 86 -213 193c0 52 19 94 55 148l129 190h153l-74 -107c-20 -28 -52 -55 -56 -59c10 3 26 5 35 5c102 0 185 -70 185 -178c0 -105 -86 -192 -214 -192zM248 110c54 0 76 38 76 75c0 40 -21 75 -76 75c-49 0 -77 -34 -77 -75c0 -37 28 -75 77 -75z" />
    <glyph glyph-name="seven.sctab" 
d="M79 0l192 404h-230v118h427v-11l-241 -511h-148z" />
    <glyph glyph-name="eight.sctab" 
d="M250 -9c-116 0 -208 66 -208 165c0 59 35 103 91 128c-42 23 -64 59 -64 102c0 80 65 145 181 145c118 0 180 -65 180 -145c0 -44 -21 -80 -63 -102c55 -25 89 -70 89 -128c0 -99 -89 -165 -206 -165zM250 107c41 0 70 24 70 64c0 42 -29 68 -70 68
c-43 0 -72 -26 -72 -68c0 -40 29 -64 72 -64zM252 330c28 0 49 18 49 49c0 32 -24 50 -52 50c-30 0 -51 -18 -51 -50c0 -31 24 -49 54 -49z" />
    <glyph glyph-name="nine.sctab" 
d="M114 0l83 107c21 30 52 55 57 58c-9 -3 -24 -4 -32 -4c-102 0 -187 70 -187 178c0 105 88 192 216 192c125 0 213 -86 213 -193c0 -52 -23 -105 -60 -154l-139 -184h-151zM252 262c49 0 77 34 77 75c0 37 -28 75 -77 75c-54 0 -78 -38 -78 -75c0 -40 23 -75 78 -75z" />
    <glyph glyph-name="percent.sctab" horiz-adv-x="750" 
d="M160 217c-83 0 -146 65 -146 157c0 91 63 157 146 157c82 0 145 -66 145 -157c0 -92 -63 -157 -145 -157zM143 0l330 522h133l-330 -522h-133zM591 -9c-83 0 -146 65 -146 157c0 91 63 157 146 157c82 0 145 -66 145 -157c0 -92 -63 -157 -145 -157zM160 314
c26 0 40 23 40 60s-14 60 -40 60s-40 -23 -40 -60s14 -60 40 -60zM591 88c26 0 40 23 40 60s-14 60 -40 60s-40 -23 -40 -60s14 -60 40 -60z" />
    <glyph glyph-name="perthousand.sctab" horiz-adv-x="1100" 
d="M167 217c-83 0 -146 65 -146 157c0 91 63 157 146 157c82 0 145 -66 145 -157c0 -92 -63 -157 -145 -157zM154 0l330 522h133l-330 -522h-133zM934 -9c-83 0 -146 65 -146 157c0 91 63 157 146 157c82 0 145 -66 145 -157c0 -92 -63 -157 -145 -157zM606 -9
c-83 0 -146 65 -146 157c0 91 63 157 146 157c82 0 145 -66 145 -157c0 -92 -63 -157 -145 -157zM167 314c26 0 40 23 40 60s-14 60 -40 60s-40 -23 -40 -60s14 -60 40 -60zM934 88c26 0 40 23 40 60s-14 60 -40 60s-40 -23 -40 -60s14 -60 40 -60zM606 88c26 0 40 23 40 60
s-14 60 -40 60s-40 -23 -40 -60s14 -60 40 -60z" />
    <glyph glyph-name="plus.sctab" 
d="M310 207v-130h-121v130h-126v118h126v130h121v-130h126v-118h-126z" />
    <glyph glyph-name="minus.sctab" 
d="M63 207v118h374v-118h-374z" />
    <glyph glyph-name="multiply.sctab" 
d="M250 184l-105 -105l-82 82l105 105l-105 105l82 82l105 -105l105 105l82 -82l-105 -105l105 -105l-82 -82z" />
    <glyph glyph-name="divide.sctab" 
d="M250 360c-44 0 -81 34 -81 81s37 80 81 80c43 0 80 -33 80 -80s-37 -81 -80 -81zM63 207v118h373v-118h-373zM250 11c-44 0 -81 34 -81 81s37 80 81 80c43 0 80 -33 80 -80s-37 -81 -80 -81z" />
    <glyph glyph-name="equal.sctab" 
d="M60 279v115h380v-115h-380zM60 115v115h380v-115h-380z" />
    <glyph glyph-name="less.sctab" 
d="M407 52l-348 187v10l348 185v-117l-147 -74l147 -74v-117z" />
    <glyph glyph-name="greater.sctab" 
d="M93 52v117l147 74l-147 74v117l348 -187v-10z" />
    <glyph glyph-name="degree.sctab" horiz-adv-x="332" 
d="M166 268c-76 0 -140 59 -140 132c0 75 64 131 140 131c77 0 140 -56 140 -131c0 -73 -63 -132 -140 -132zM166 348c29 0 50 21 50 52s-21 51 -50 51s-50 -20 -50 -51s21 -52 50 -52z" />
    <glyph glyph-name="period.sctab" horiz-adv-x="200" 
d="M100 -6c-44 0 -81 34 -81 81s37 80 81 80c43 0 80 -33 80 -80s-37 -81 -80 -81z" />
    <glyph glyph-name="comma.sctab" horiz-adv-x="200" 
d="M29 -115l38 120c-29 13 -48 38 -48 72c0 45 37 78 81 78c43 0 80 -33 80 -80c0 -31 -15 -55 -29 -81l-58 -109h-64z" />
    <glyph glyph-name="colon.sctab" horiz-adv-x="200" 
d="M100 228c-44 0 -81 33 -81 81c0 46 37 80 81 80c43 0 80 -34 80 -80c0 -48 -37 -81 -80 -81zM100 -6c-44 0 -81 34 -81 81s37 80 81 80c43 0 80 -33 80 -80s-37 -81 -80 -81z" />
    <glyph glyph-name="semicolon.sctab" horiz-adv-x="200" 
d="M100 228c-44 0 -81 33 -81 81c0 46 37 80 81 80c43 0 80 -34 80 -80c0 -48 -37 -81 -80 -81zM29 -115l38 120c-29 13 -48 38 -48 72c0 45 37 78 81 78c43 0 80 -33 80 -80c0 -31 -15 -55 -29 -81l-58 -109h-64z" />
    <glyph glyph-name="parenleft.sctab" horiz-adv-x="300" 
d="M196 -66c-85 88 -169 203 -169 402c0 198 84 314 169 402l83 -63c-76 -99 -110 -194 -110 -339c0 -144 34 -240 110 -339z" />
    <glyph glyph-name="parenright.sctab" horiz-adv-x="300" 
d="M104 -66l-83 63c76 99 110 195 110 339c0 145 -34 240 -110 339l83 63c85 -88 169 -204 169 -402c0 -199 -84 -314 -169 -402z" />
    <glyph glyph-name="bracketleft.sctab" horiz-adv-x="300" 
d="M41 -62v794h237v-114h-102v-566h102v-114h-237z" />
    <glyph glyph-name="bracketright.sctab" horiz-adv-x="300" 
d="M21 -62v114h102v566h-102v114h237v-794h-237z" />
    <glyph glyph-name="braceleft.sctab" horiz-adv-x="300" 
d="M232 -62c-81 0 -158 31 -158 144v125c0 47 -18 66 -57 66h-18v114h18c39 0 57 19 57 66v135c0 113 77 144 158 144h47v-114h-35c-28 0 -34 -12 -34 -34v-148c0 -72 -39 -97 -93 -106c54 -9 93 -34 93 -106v-138c0 -22 6 -34 34 -34h35v-114h-47z" />
    <glyph glyph-name="braceright.sctab" horiz-adv-x="300" 
d="M21 -62v114h35c28 0 34 12 34 34v138c0 72 39 97 93 106c-54 9 -93 34 -93 106v148c0 22 -6 34 -34 34h-35v114h47c81 0 158 -31 158 -144v-135c0 -47 18 -66 57 -66h18v-114h-18c-39 0 -57 -19 -57 -66v-125c0 -113 -77 -144 -158 -144h-47z" />
    </font>
</defs>
</svg>
