<?xml version="1.0" standalone="no"?>
<!DOCTYPE svg PUBLIC "-//W3C//DTD SVG 1.1//EN" "http://www.w3.org/Graphics/SVG/1.1/DTD/svg11.dtd" >
<svg>
<metadata>
Created by FontForge 20120731 at Wed Aug 20 17:30:05 2014
 By World Wide Web Server
Part of the Neutraface 2 collection from House Industries.
</metadata>
<defs>
<font id="Neutraface2Text-Book" horiz-adv-x="500" >
  <font-face 
    font-family="Neutraface 2 Text Book"
    font-weight="400"
    font-stretch="normal"
    units-per-em="1000"
    panose-1="2 11 5 3 2 2 2 2 1 2"
    ascent="780"
    descent="-220"
    x-height="414"
    cap-height="680"
    bbox="-57 -257 1174 963"
    underline-thickness="20"
    underline-position="-113"
    stemh="60"
    stemv="70"
    unicode-range="U+0020-FB04"
  />
<missing-glyph horiz-adv-x="237" 
 />
    <glyph glyph-name="fi" unicode="fi" horiz-adv-x="503" 
d="M392 534c-26 0 -50 20 -50 49s24 50 50 50s50 -21 50 -50s-24 -49 -50 -49zM101 0v355h-67v59h67v188c0 93 47 133 116 133c50 0 81 -21 100 -45l-44 -42c-14 15 -27 24 -51 24c-30 0 -51 -16 -51 -70v-188h256v-414h-70v355h-186v-355h-70z" />
    <glyph glyph-name="fl" unicode="fl" horiz-adv-x="507" 
d="M101 0v355h-67v59h67v188c0 93 47 133 113 133c49 0 76 -19 96 -41l-44 -44c-11 13 -24 22 -46 22c-30 0 -49 -16 -49 -70v-188h106v-59h-106v-355h-70zM357 0v722h70v-722h-70z" />
    <glyph glyph-name="ff" unicode="ff" horiz-adv-x="572" 
d="M101 0v355h-67v59h67v168c0 93 47 133 114 133c49 0 81 -17 102 -44l-45 -44c-12 15 -26 25 -50 25c-30 0 -51 -16 -51 -70v-168h186v188c0 93 47 133 115 133c51 0 84 -20 105 -51l-46 -41c-13 17 -25 29 -53 29c-30 0 -51 -17 -51 -70v-188h111v-59h-111v-355h-70v355
h-186v-355h-70z" />
    <glyph glyph-name="ffi" unicode="ffi" horiz-adv-x="759" 
d="M648 534c-26 0 -50 20 -50 49s24 50 50 50s50 -21 50 -50s-24 -49 -50 -49zM101 0v355h-67v59h67v168c0 93 47 133 114 133c49 0 81 -17 102 -44l-45 -44c-12 15 -26 25 -50 25c-30 0 -51 -16 -51 -70v-168h186v188c0 93 47 133 116 133c50 0 81 -21 100 -45l-44 -42
c-14 15 -27 24 -51 24c-30 0 -51 -16 -51 -70v-188h256v-414h-70v355h-186v-355h-70v355h-186v-355h-70z" />
    <glyph glyph-name="ffl" unicode="ffl" horiz-adv-x="763" 
d="M101 0v355h-67v59h67v168c0 93 47 133 114 133c49 0 81 -17 102 -44l-45 -44c-12 15 -26 25 -50 25c-30 0 -51 -16 -51 -70v-168h186v188c0 93 47 133 113 133c49 0 76 -19 96 -41l-44 -44c-11 13 -24 22 -46 22c-30 0 -49 -16 -49 -70v-188h107v-59h-107v-355h-70v355
h-186v-355h-70zM613 0v722h70v-722h-70z" />
    <glyph glyph-name="f_b" unicode="fb" horiz-adv-x="834" 
d="M101 0v355h-67v59h67v188c0 93 47 133 113 133c49 0 76 -19 96 -41l-44 -44c-11 13 -24 22 -46 22c-30 0 -49 -16 -49 -70v-188h106v-59h-106v-355h-70zM587 -8c-75 0 -135 40 -162 97l2 -89h-70v722h70v-393c29 55 83 94 161 94c112 0 198 -92 198 -215
c0 -124 -87 -216 -199 -216zM571 53c87 0 142 65 142 155c0 89 -55 153 -142 153c-89 0 -147 -64 -147 -153c0 -90 58 -155 147 -155z" />
    <glyph glyph-name="f_f_b" unicode="ffb" horiz-adv-x="1090" 
d="M101 0v355h-67v59h67v168c0 93 47 133 114 133c49 0 81 -17 102 -44l-45 -44c-12 15 -26 25 -50 25c-30 0 -51 -16 -51 -70v-168h186v188c0 93 47 133 113 133c49 0 76 -19 96 -41l-44 -44c-11 13 -24 22 -46 22c-30 0 -49 -16 -49 -70v-188h107v-59h-107v-355h-70v355
h-186v-355h-70zM843 -8c-75 0 -135 40 -162 97l2 -89h-70v722h70v-393c29 55 83 94 161 94c112 0 198 -92 198 -215c0 -124 -86 -216 -199 -216zM827 53c87 0 142 65 142 155c0 89 -55 153 -142 153c-89 0 -147 -64 -147 -153c0 -90 58 -155 147 -155z" />
    <glyph glyph-name="f_f_f" unicode="fff" horiz-adv-x="829" 
d="M613 355h-186v-355h-70v355h-186v-355h-70v355h-67v59h67v168c0 93 47 133 114 133c49 0 81 -17 102 -44l-45 -44c-12 15 -26 25 -50 25c-30 0 -51 -16 -51 -70v-168h186v178c0 93 47 133 114 133c49 0 81 -17 102 -44l-45 -44c-12 15 -26 25 -50 25
c-30 0 -51 -16 -51 -70v-178h186v188c0 93 47 133 115 133c51 0 84 -20 105 -51l-46 -41c-13 17 -25 29 -53 29c-30 0 -51 -17 -51 -70v-188h111v-59h-111v-355h-70v355z" />
    <glyph glyph-name="f_f_f_i" unicode="fffi" horiz-adv-x="1015" 
d="M904 534c-26 0 -50 20 -50 49s24 50 50 50s50 -21 50 -50s-24 -49 -50 -49zM357 355h-186v-355h-70v355h-67v59h67v168c0 93 47 133 114 133c49 0 81 -17 102 -44l-45 -44c-12 15 -26 25 -50 25c-30 0 -51 -16 -51 -70v-168h186v178c0 93 47 133 114 133
c49 0 81 -17 102 -44l-45 -44c-12 15 -26 25 -50 25c-30 0 -51 -16 -51 -70v-178h186v188c0 93 47 133 116 133c50 0 81 -21 100 -45l-44 -42c-14 15 -27 24 -51 24c-30 0 -51 -16 -51 -70v-188h256v-414h-70v355h-186v-355h-70v355h-186v-355h-70v355z" />
    <glyph glyph-name="f_f_f_l" unicode="fffl" horiz-adv-x="1019" 
d="M357 355h-186v-355h-70v355h-67v59h67v168c0 93 47 133 114 133c49 0 81 -17 102 -44l-45 -44c-12 15 -26 25 -50 25c-30 0 -51 -16 -51 -70v-168h186v178c0 93 47 133 114 133c49 0 81 -17 102 -44l-45 -44c-12 15 -26 25 -50 25c-30 0 -51 -16 -51 -70v-178h186v188
c0 93 47 133 113 133c49 0 76 -19 96 -41l-44 -44c-11 13 -24 22 -46 22c-30 0 -49 -16 -49 -70v-188h107v-59h-107v-355h-70v355h-186v-355h-70v355zM869 0v722h70v-722h-70z" />
    <glyph glyph-name="f_f_h" unicode="ffh" horiz-adv-x="1055" 
d="M101 0v355h-67v59h67v168c0 93 47 133 114 133c49 0 81 -17 102 -44l-45 -44c-12 15 -26 25 -50 25c-30 0 -51 -16 -51 -70v-168h186v188c0 93 47 133 113 133c49 0 76 -19 96 -41l-44 -44c-11 13 -24 22 -46 22c-30 0 -49 -16 -49 -70v-188h107v-59h-107v-355h-70v355
h-186v-355h-70zM613 0v722h70v-389c27 55 80 90 148 90c91 0 154 -63 154 -171v-252h-69v244c0 73 -34 115 -103 115c-77 0 -130 -49 -130 -131v-228h-70z" />
    <glyph glyph-name="f_f_iacute" unicode="ff&#xed;" horiz-adv-x="759" 
d="M619 498l67 193h81l-93 -193h-55zM101 0v355h-67v59h67v168c0 93 47 133 114 133c49 0 81 -17 102 -44l-45 -44c-12 15 -26 25 -50 25c-30 0 -51 -16 -51 -70v-168h186v188c0 93 47 133 116 133c50 0 81 -21 100 -45l-44 -42c-14 15 -27 24 -51 24c-30 0 -51 -16 -51 -70
v-188h256v-414h-70v355h-186v-355h-70v355h-186v-355h-70z" />
    <glyph glyph-name="f_f_icircumflex" unicode="ff&#xee;" horiz-adv-x="759" 
d="M515 503l127 193h10l128 -193h-59l-73 102l-75 -102h-58zM101 0v355h-67v59h67v168c0 93 47 133 114 133c49 0 81 -17 102 -44l-45 -44c-12 15 -26 25 -50 25c-30 0 -51 -16 -51 -70v-168h186v188c0 93 47 133 116 133c50 0 81 -21 100 -45l-44 -42c-14 15 -27 24 -51 24
c-30 0 -51 -16 -51 -70v-188h256v-414h-70v355h-186v-355h-70v355h-186v-355h-70z" />
    <glyph glyph-name="f_f_idieresis" unicode="ff&#xef;" horiz-adv-x="759" 
d="M733 534c-24 0 -45 20 -45 45s21 45 45 45s45 -20 45 -45s-21 -45 -45 -45zM586 534c-23 0 -45 20 -45 45s22 45 45 45c24 0 46 -20 46 -45s-22 -45 -46 -45zM101 0v355h-67v59h67v168c0 93 47 133 114 133c49 0 81 -17 102 -44l-45 -44c-12 15 -26 25 -50 25
c-30 0 -51 -16 -51 -70v-168h186v188c0 93 47 133 116 133c50 0 81 -21 100 -45l-44 -42c-14 15 -27 24 -51 24c-30 0 -51 -16 -51 -70v-188h256v-414h-70v355h-186v-355h-70v355h-186v-355h-70z" />
    <glyph glyph-name="f_f_j" unicode="ffj" horiz-adv-x="759" 
d="M648 534c-26 0 -50 20 -50 49s24 50 50 50s50 -21 50 -50s-24 -49 -50 -49zM572 -222c-44 0 -73 20 -92 41l39 42c13 -12 25 -23 48 -23c28 0 46 17 46 63v454h-186v-355h-70v355h-186v-355h-70v355h-67v59h67v168c0 93 47 133 114 133c49 0 81 -17 102 -44l-45 -44
c-12 15 -26 25 -50 25c-30 0 -51 -16 -51 -70v-168h186v188c0 93 47 133 116 133c50 0 81 -21 100 -45l-44 -42c-14 15 -27 24 -51 24c-30 0 -51 -16 -51 -70v-188h256v-512c0 -82 -45 -124 -111 -124z" />
    <glyph glyph-name="f_f_k" unicode="ffk" horiz-adv-x="1003" 
d="M101 0v355h-67v59h67v168c0 93 47 133 114 133c49 0 81 -17 102 -44l-45 -44c-12 15 -26 25 -50 25c-30 0 -51 -16 -51 -70v-168h186v188c0 93 47 133 113 133c49 0 76 -19 96 -41l-44 -44c-11 13 -24 22 -46 22c-30 0 -49 -16 -49 -70v-188h107v-59h-107v-355h-70v355
h-186v-355h-70zM683 126v-126h-70v722h70v-463c0 -21 -2 -42 -4 -58l196 213h81l-159 -174l184 -240h-83l-150 194z" />
    <glyph glyph-name="f_f_t" unicode="fft" horiz-adv-x="851" 
d="M724 -9c-63 0 -111 36 -111 134v230h-186v-355h-70v355h-186v-355h-70v355h-67v59h67v168c0 93 47 133 114 133c49 0 81 -17 102 -44l-45 -44c-12 15 -26 25 -50 25c-30 0 -51 -16 -51 -70v-168h186v188c0 93 47 133 116 133c50 0 81 -21 100 -45l-44 -42
c-14 15 -27 24 -51 24c-30 0 -51 -16 -51 -70v-188h186v142h69v-142h116v-59h-116v-231c0 -55 19 -72 49 -72c28 0 43 12 56 24l38 -44c-18 -19 -50 -41 -101 -41z" />
    <glyph glyph-name="f_h" unicode="fh" horiz-adv-x="799" 
d="M101 0v355h-67v59h67v188c0 93 47 133 113 133c49 0 76 -19 96 -41l-44 -44c-11 13 -24 22 -46 22c-30 0 -49 -16 -49 -70v-188h106v-59h-106v-355h-70zM357 0v722h70v-389c27 55 80 90 148 90c91 0 154 -63 154 -171v-252h-69v244c0 73 -34 115 -103 115
c-78 0 -130 -49 -130 -131v-228h-70z" />
    <glyph glyph-name="f_iacute" unicode="f&#xed;" horiz-adv-x="503" 
d="M363 498l67 193h81l-93 -193h-55zM101 0v355h-67v59h67v188c0 93 47 133 116 133c50 0 81 -21 100 -45l-44 -42c-14 15 -27 24 -51 24c-30 0 -51 -16 -51 -70v-188h256v-414h-70v355h-186v-355h-70z" />
    <glyph glyph-name="f_icircumflex" unicode="f&#xee;" horiz-adv-x="503" 
d="M259 503l127 193h10l128 -193h-59l-73 102l-75 -102h-58zM101 0v355h-67v59h67v188c0 93 47 133 116 133c50 0 81 -21 100 -45l-44 -42c-14 15 -27 24 -51 24c-30 0 -51 -16 -51 -70v-188h256v-414h-70v355h-186v-355h-70z" />
    <glyph glyph-name="f_idieresis" unicode="f&#xef;" horiz-adv-x="503" 
d="M477 534c-24 0 -45 20 -45 45s21 45 45 45s45 -20 45 -45s-21 -45 -45 -45zM330 534c-23 0 -45 20 -45 45s22 45 45 45c24 0 46 -20 46 -45s-22 -45 -46 -45zM101 0v355h-67v59h67v188c0 93 47 133 116 133c50 0 81 -21 100 -45l-44 -42c-14 15 -27 24 -51 24
c-30 0 -51 -16 -51 -70v-188h256v-414h-70v355h-186v-355h-70z" />
    <glyph glyph-name="f_j" unicode="fj" horiz-adv-x="503" 
d="M392 534c-26 0 -50 20 -50 49s24 50 50 50s50 -21 50 -50s-24 -49 -50 -49zM316 -222c-44 0 -73 20 -92 41l39 42c13 -12 25 -23 48 -23c28 0 46 17 46 63v454h-186v-355h-70v355h-67v59h67v188c0 93 47 133 116 133c50 0 81 -21 100 -45l-44 -42c-14 15 -27 24 -51 24
c-30 0 -51 -16 -51 -70v-188h256v-512c0 -82 -45 -124 -111 -124z" />
    <glyph glyph-name="f_k" unicode="fk" horiz-adv-x="747" 
d="M101 0v355h-67v59h67v188c0 93 47 133 113 133c49 0 76 -19 96 -41l-44 -44c-11 13 -24 22 -46 22c-30 0 -49 -16 -49 -70v-188h106v-59h-106v-355h-70zM427 126v-126h-70v722h70v-463c0 -21 -2 -42 -4 -58l196 213h81l-159 -174l184 -240h-83l-150 194z" />
    <glyph glyph-name="f_t" unicode="ft" horiz-adv-x="595" 
d="M468 -9c-63 0 -111 36 -111 134v230h-186v-355h-70v355h-67v59h67v188c0 93 47 133 116 133c50 0 81 -21 100 -45l-44 -42c-14 15 -27 24 -51 24c-30 0 -51 -16 -51 -70v-188h186v142h69v-142h115v-59h-115v-231c0 -55 19 -72 49 -72c28 0 43 12 56 24l38 -44
c-18 -19 -50 -41 -101 -41z" />
    <glyph glyph-name=".notdef" horiz-adv-x="237" 
 />
    <glyph glyph-name="space" unicode=" " horiz-adv-x="237" 
 />
    <glyph glyph-name="exclam" unicode="!" horiz-adv-x="244" 
d="M95 190l-12 490h78l-12 -490h-54zM122 -7c-28 0 -53 23 -53 53c0 31 25 54 53 54s53 -23 53 -54c0 -30 -25 -53 -53 -53z" />
    <glyph glyph-name="quotedbl" unicode="&#x22;" horiz-adv-x="283" 
d="M178 470l-9 210h74l-8 -210h-57zM48 470l-8 210h74l-8 -210h-58z" />
    <glyph glyph-name="numbersign" unicode="#" horiz-adv-x="461" 
d="M68 176l28 108h-67v56h80l27 108h-72v56h86l27 109h58l-27 -109h99l28 109h58l-27 -109h66v-56h-80l-27 -108h71v-56h-86l-26 -108h-59l27 108h-99l-26 -108h-59zM167 340h100l27 108h-99z" />
    <glyph glyph-name="dollar" unicode="$" horiz-adv-x="436" 
d="M191 -6c-89 9 -149 60 -173 110l54 29c22 -40 60 -74 119 -83v187c-97 27 -146 69 -146 144c0 70 57 124 146 130v106h51v-107c67 -10 113 -49 135 -87l-50 -32c-16 28 -42 54 -85 63v-166l6 -2c105 -31 156 -75 156 -152c0 -82 -58 -135 -162 -141v-112h-51v113z
M191 456c-50 -5 -80 -29 -80 -72c0 -42 22 -62 80 -80v152zM242 49c64 5 95 36 95 80c0 48 -24 71 -95 92v-172z" />
    <glyph glyph-name="percent" unicode="%" horiz-adv-x="766" 
d="M178 218c-80 0 -150 61 -150 147c0 85 70 147 150 147c79 0 149 -62 149 -147c0 -86 -70 -147 -149 -147zM191 0l315 504h70l-315 -504h-70zM589 -8c-80 0 -149 61 -149 146s69 147 149 147s149 -62 149 -147s-69 -146 -149 -146zM178 273c48 0 88 37 88 92
c0 56 -40 92 -88 92s-89 -36 -89 -92c0 -55 41 -92 89 -92zM589 46c48 0 88 37 88 92s-40 92 -88 92s-88 -37 -88 -92s40 -92 88 -92z" />
    <glyph glyph-name="ampersand" unicode="&#x26;" horiz-adv-x="654" 
d="M316 385l150 -182c19 46 29 101 29 165h69c0 -88 -19 -162 -51 -222l120 -146h-87l-73 88c-55 -62 -130 -96 -214 -96c-132 0 -216 73 -216 185c0 113 76 166 175 220l-12 15c-37 46 -55 91 -55 136c0 79 57 140 146 140c87 0 144 -60 144 -139c0 -69 -49 -120 -125 -164
zM279 430c58 34 96 69 96 119c0 48 -32 79 -77 79c-47 0 -78 -30 -78 -79c0 -36 15 -66 40 -96zM430 140l-176 213c-81 -44 -136 -88 -136 -172c0 -78 52 -125 141 -125c69 0 129 29 171 84z" />
    <glyph glyph-name="quoteright" unicode="&#x2019;" horiz-adv-x="199" 
d="M46 482l34 104c-18 6 -33 25 -33 48c0 30 25 53 52 53c28 0 53 -23 53 -52c0 -14 -6 -26 -13 -41l-56 -112h-37z" />
    <glyph glyph-name="parenleft" unicode="(" horiz-adv-x="288" 
d="M216 -136c-85 87 -172 223 -172 427c0 203 87 340 172 427l44 -36c-78 -91 -143 -211 -143 -391s65 -300 143 -391z" />
    <glyph glyph-name="parenright" unicode=")" horiz-adv-x="288" 
d="M71 -136l-43 36c78 91 142 211 142 391s-64 300 -142 391l43 36c85 -87 173 -223 173 -427c0 -203 -88 -340 -173 -427z" />
    <glyph glyph-name="asterisk" unicode="*" horiz-adv-x="394" 
d="M165 375l15 125l-98 -73l-31 54l117 47l-117 47l31 54l98 -72l-15 123h63l-15 -123l99 72l31 -54l-118 -47l117 -47l-30 -54l-99 73l15 -125h-63z" />
    <glyph glyph-name="plus" unicode="+" horiz-adv-x="373" 
d="M154 96v125h-115v62h115v125h64v-125h116v-62h-116v-125h-64z" />
    <glyph glyph-name="comma" unicode="," horiz-adv-x="202" 
d="M44 -112l39 111c-21 7 -36 25 -36 49c0 30 26 54 54 54c29 0 54 -24 54 -54c0 -14 -6 -29 -12 -40l-60 -120h-39z" />
    <glyph glyph-name="hyphen" unicode="-" horiz-adv-x="286" 
d="M46 200v63h193v-63h-193z" />
    <glyph glyph-name="period" unicode="." horiz-adv-x="202" 
d="M101 -7c-28 0 -54 24 -54 55s26 54 54 54c29 0 54 -23 54 -54s-25 -55 -54 -55z" />
    <glyph glyph-name="slash" unicode="/" horiz-adv-x="428" 
d="M15 -128l300 850h70l-300 -850h-70z" />
    <glyph glyph-name="zero" unicode="0" horiz-adv-x="611" 
d="M305 -8c-141 0 -264 111 -264 260c0 152 123 260 264 260c142 0 265 -108 265 -260c0 -149 -123 -260 -265 -260zM305 55c107 0 192 83 192 197c0 117 -85 197 -192 197s-190 -80 -190 -197c0 -114 83 -197 190 -197z" />
    <glyph glyph-name="one" unicode="1" horiz-adv-x="284" 
d="M135 0v444h-111v60h182v-504h-71z" />
    <glyph glyph-name="two" unicode="2" horiz-adv-x="471" 
d="M29 0v9l203 185c67 61 106 105 106 161c0 62 -41 93 -98 93c-61 0 -103 -36 -125 -102l-64 18c24 92 96 148 188 148c106 0 171 -62 171 -154c0 -69 -50 -130 -122 -196l-76 -69c-18 -17 -52 -35 -52 -35s37 3 56 3h207v-61h-394z" />
    <glyph glyph-name="three" unicode="3" horiz-adv-x="493" 
d="M238 -103c-103 0 -180 51 -216 130l61 31c29 -63 82 -98 155 -98c77 0 142 48 142 139c0 87 -61 129 -152 129c-37 0 -64 -8 -85 -18l-7 10l161 195c13 17 30 33 30 33s-25 -4 -48 -4h-206v60h364v-7l-156 -188c-13 -17 -29 -28 -32 -29c114 0 205 -68 205 -182
c0 -120 -91 -201 -216 -201z" />
    <glyph glyph-name="four" unicode="4" horiz-adv-x="522" 
d="M413 80h75v-59h-75v-115h-70v115h-322v34l382 459h10v-434zM343 80v227c0 21 3 53 3 53s-16 -24 -30 -42l-166 -205c-15 -18 -36 -36 -36 -36s26 3 48 3h181z" />
    <glyph glyph-name="five" unicode="5" horiz-adv-x="485" 
d="M231 -103c-100 0 -169 48 -200 109l59 32c26 -46 69 -78 141 -78c85 0 141 54 141 136c0 83 -47 134 -142 134c-68 0 -112 -27 -143 -53l-9 3v324h335v-60h-274v-181c22 15 59 28 106 28c122 0 201 -81 201 -196c0 -114 -86 -198 -215 -198z" />
    <glyph glyph-name="six" unicode="6" horiz-adv-x="508" 
d="M255 -8c-120 0 -213 82 -213 201c0 59 27 110 65 166l170 251h79l-137 -203c-16 -21 -48 -52 -48 -52c26 21 60 36 100 36c111 0 195 -81 195 -197c0 -117 -90 -202 -211 -202zM254 54c83 0 141 60 141 140c0 83 -53 140 -141 140c-86 0 -141 -64 -141 -140
c0 -80 54 -140 141 -140z" />
    <glyph glyph-name="seven" unicode="7" horiz-adv-x="451" 
d="M76 -94l252 538h-295v60h390v-9l-275 -589h-72z" />
    <glyph glyph-name="eight" unicode="8" horiz-adv-x="520" 
d="M260 -9c-129 0 -219 77 -219 186c0 80 53 139 131 162c-54 21 -88 65 -88 125c0 88 72 154 176 154c106 0 177 -66 177 -154c0 -60 -34 -104 -88 -126c78 -23 131 -81 131 -161c0 -109 -89 -186 -220 -186zM260 55c88 0 148 49 148 126s-60 128 -148 128
s-148 -51 -148 -128s59 -126 148 -126zM260 366c63 0 106 39 106 97c0 57 -44 96 -106 96c-63 0 -106 -39 -106 -96c0 -58 42 -97 106 -97z" />
    <glyph glyph-name="nine" unicode="9" horiz-adv-x="514" 
d="M171 -94l128 191c12 18 31 36 40 44c-26 -20 -63 -32 -96 -32c-115 0 -201 81 -201 199c0 116 93 204 215 204c121 0 215 -82 215 -203c0 -61 -27 -110 -66 -169l-156 -234h-79zM256 165c88 0 144 66 144 143c0 80 -57 141 -143 141c-85 0 -144 -59 -144 -141
c0 -84 56 -143 143 -143z" />
    <glyph glyph-name="colon" unicode=":" horiz-adv-x="212" 
d="M106 217c-28 0 -54 24 -54 55s26 54 54 54c29 0 54 -23 54 -54s-25 -55 -54 -55zM106 -7c-28 0 -54 24 -54 55s26 54 54 54c29 0 54 -23 54 -54s-25 -55 -54 -55z" />
    <glyph glyph-name="semicolon" unicode=";" horiz-adv-x="212" 
d="M106 217c-28 0 -54 24 -54 55s26 54 54 54c29 0 54 -23 54 -54s-25 -55 -54 -55zM49 -112l39 111c-21 7 -36 25 -36 49c0 30 26 54 54 54c29 0 54 -24 54 -54c0 -14 -6 -29 -12 -40l-60 -120h-39z" />
    <glyph glyph-name="less" unicode="&#x3c;" horiz-adv-x="356" 
d="M307 94l-271 145v10l271 143v-64l-168 -84l168 -85v-65z" />
    <glyph glyph-name="equal" unicode="=" horiz-adv-x="371" 
d="M42 282v61h287v-61h-287zM42 152v62h287v-62h-287z" />
    <glyph glyph-name="greater" unicode="&#x3e;" horiz-adv-x="356" 
d="M49 94v64l168 84l-168 85v65l271 -145v-10z" />
    <glyph glyph-name="question" unicode="?" horiz-adv-x="469" 
d="M174 187v176h33c89 0 140 60 140 134c0 79 -51 128 -125 128c-67 0 -107 -28 -137 -88l-58 30c33 79 104 121 195 121c118 0 197 -77 197 -191c0 -106 -73 -181 -179 -189v-121h-66zM206 -7c-28 0 -53 23 -53 53c0 31 25 54 53 54s53 -23 53 -54c0 -30 -25 -53 -53 -53z
" />
    <glyph glyph-name="at" unicode="@" horiz-adv-x="886" 
d="M448 -206c-223 0 -399 157 -399 395c0 230 182 397 398 397c226 0 390 -159 390 -369c0 -154 -66 -223 -155 -223c-63 0 -105 31 -116 94c-29 -65 -79 -96 -144 -96c-99 0 -175 80 -175 191s76 194 174 194c65 0 109 -36 133 -86l-2 76h69v-231c0 -57 16 -88 63 -88
c52 0 91 49 91 168c0 181 -126 314 -328 314c-196 0 -332 -149 -332 -341c0 -194 130 -340 333 -340c59 0 116 14 164 40l26 -50c-56 -31 -118 -45 -190 -45zM436 50c67 0 118 59 118 133s-51 135 -118 135c-70 0 -118 -60 -118 -135s48 -133 118 -133z" />
    <glyph glyph-name="A" unicode="A" horiz-adv-x="655" 
d="M194 215h262l-105 260c-13 32 -26 79 -26 81c-1 -2 -14 -49 -27 -80zM37 0l282 687h12l288 -687h-76l-62 153h-312l-61 -153h-71z" />
    <glyph glyph-name="B" unicode="B" horiz-adv-x="602" 
d="M93 0v680h225c132 0 195 -76 195 -173c0 -70 -30 -123 -99 -145c85 -19 133 -75 133 -171c0 -110 -66 -191 -211 -191h-243zM165 64h166c103 0 143 54 143 131c0 82 -48 131 -147 131h-162v-262zM165 389h157c85 0 119 47 119 113s-36 114 -129 114h-147v-227z" />
    <glyph glyph-name="C" unicode="C" horiz-adv-x="726" 
d="M403 -8c-193 0 -349 143 -349 348s156 348 349 348c120 0 212 -45 270 -132l-55 -40c-44 65 -117 107 -215 107c-159 0 -274 -121 -274 -283s115 -283 274 -283c99 0 175 43 224 114l56 -39c-60 -88 -158 -140 -280 -140z" />
    <glyph glyph-name="D" unicode="D" horiz-adv-x="680" 
d="M93 0v680h165c227 0 368 -134 368 -340s-140 -340 -368 -340h-165zM165 65h88c201 0 297 113 297 275s-96 275 -297 275h-88v-550z" />
    <glyph glyph-name="E" unicode="E" horiz-adv-x="580" 
d="M93 0v680h414v-64h-342v-243h305v-63h-305v-246h356v-64h-428z" />
    <glyph glyph-name="F" unicode="F" horiz-adv-x="556" 
d="M93 0v680h409v-64h-337v-260h306v-65h-306v-291h-72z" />
    <glyph glyph-name="G" unicode="G" horiz-adv-x="743" 
d="M410 -8c-203 0 -356 143 -356 348s152 348 350 348c98 0 181 -28 237 -88l-49 -49c-44 46 -104 72 -188 72c-160 0 -275 -121 -275 -283s116 -283 281 -283c93 0 159 28 201 62v143h-202v64h270v-240c-50 -49 -141 -94 -269 -94z" />
    <glyph glyph-name="H" unicode="H" horiz-adv-x="693" 
d="M93 0v680h72v-317h364v317h72v-680h-72v298h-364v-298h-72z" />
    <glyph glyph-name="I" unicode="I" horiz-adv-x="265" 
d="M96 0v680h73v-680h-73z" />
    <glyph glyph-name="J" unicode="J" horiz-adv-x="483" 
d="M209 -8c-91 0 -145 45 -176 102l59 37c26 -45 61 -74 114 -74c67 0 112 37 112 124v499h73v-501c0 -125 -77 -187 -182 -187z" />
    <glyph glyph-name="K" unicode="K" horiz-adv-x="607" 
d="M93 0v680h72v-305c0 -31 -3 -68 -5 -89c14 28 34 60 47 77l260 317h82l-247 -304l275 -376h-88l-234 323l-90 -107v-216h-72z" />
    <glyph glyph-name="L" unicode="L" horiz-adv-x="527" 
d="M93 0v680h72v-616h321v-64h-393z" />
    <glyph glyph-name="M" unicode="M" horiz-adv-x="837" 
d="M93 0v688h10l316 -395l314 395h11v-688h-70v449c0 30 3 75 3 77c-2 -2 -27 -44 -48 -70l-206 -260h-12l-203 260c-21 25 -47 66 -49 70c0 -1 4 -47 4 -77v-449h-70z" />
    <glyph glyph-name="N" unicode="N" horiz-adv-x="713" 
d="M608 -7l-406 480c-18 21 -44 57 -47 62c0 -5 6 -49 6 -76v-459h-68v687h12l406 -480c18 -22 44 -59 47 -63c0 2 -5 48 -5 77v459h67v-687h-12z" />
    <glyph glyph-name="O" unicode="O" horiz-adv-x="807" 
d="M403 -8c-193 0 -349 143 -349 348s156 348 349 348c194 0 350 -143 350 -348s-156 -348 -350 -348zM403 57c159 0 275 121 275 283s-116 283 -275 283c-158 0 -274 -121 -274 -283s116 -283 274 -283z" />
    <glyph glyph-name="P" unicode="P" horiz-adv-x="582" 
d="M93 0v680h199c145 0 242 -70 242 -211c0 -138 -96 -211 -242 -211h-127v-258h-72zM165 322h123c114 0 172 50 172 147c0 98 -58 147 -172 147h-123v-294z" />
    <glyph glyph-name="Q" unicode="Q" horiz-adv-x="807" 
d="M651 89l103 -110l-50 -42l-104 112c-56 -36 -124 -57 -197 -57c-193 0 -349 143 -349 348s156 348 349 348c194 0 350 -143 350 -348c0 -102 -39 -189 -102 -251zM554 99l-103 112l49 42l104 -113c47 50 74 120 74 200c0 162 -116 283 -275 283
c-158 0 -274 -121 -274 -283s116 -283 274 -283c58 0 109 15 151 42z" />
    <glyph glyph-name="R" unicode="R" horiz-adv-x="607" 
d="M93 0v680h204c142 0 242 -67 242 -208c0 -100 -55 -165 -143 -192l166 -280h-85l-156 268c-10 -1 -21 -1 -32 -1h-124v-267h-72zM165 329h128c111 0 171 47 171 143c0 98 -61 144 -171 144h-128v-287z" />
    <glyph glyph-name="S" unicode="S" horiz-adv-x="531" 
d="M266 -8c-130 0 -201 66 -237 138l60 32c32 -57 79 -106 175 -106c79 0 141 44 141 116c0 69 -43 104 -128 142l-54 25c-97 44 -150 91 -150 186c0 98 77 163 179 163c91 0 148 -42 184 -102l-58 -36c-26 42 -62 74 -126 74c-67 0 -108 -39 -108 -97
c0 -60 32 -87 108 -122l54 -25c113 -50 171 -106 171 -208c0 -112 -89 -180 -211 -180z" />
    <glyph glyph-name="T" unicode="T" horiz-adv-x="556" 
d="M242 0v616h-209v64h490v-64h-209v-616h-72z" />
    <glyph glyph-name="U" unicode="U" horiz-adv-x="662" 
d="M331 -8c-139 0 -244 81 -244 240v448h72v-443c0 -121 66 -181 172 -181c105 0 172 60 172 181v443h72v-448c0 -159 -106 -240 -244 -240z" />
    <glyph glyph-name="V" unicode="V" horiz-adv-x="656" 
d="M324 -7l-287 687h78l187 -461c14 -34 29 -92 29 -92s15 58 29 92l186 461h73l-283 -687h-12z" />
    <glyph glyph-name="W" unicode="W" horiz-adv-x="953" 
d="M260 -7l-225 687h77l143 -453c8 -29 18 -70 19 -74c1 4 11 46 22 74l177 460h12l177 -460c10 -28 21 -70 22 -74c1 4 10 46 19 74l142 453h73l-224 -687h-12l-183 484c-11 26 -19 63 -20 66c-1 -3 -11 -40 -21 -66l-186 -484h-12z" />
    <glyph glyph-name="X" unicode="X" horiz-adv-x="635" 
d="M43 0l233 370l-196 310h82l135 -212c11 -18 22 -47 22 -47s10 30 21 47l134 212h79l-195 -310l235 -370h-82l-173 272c-10 16 -22 43 -23 47c-1 -1 -11 -30 -21 -47l-172 -272h-79z" />
    <glyph glyph-name="Y" unicode="Y" horiz-adv-x="610" 
d="M271 0v250l-237 430h82l164 -301c14 -26 27 -65 29 -69c1 4 15 43 29 69l163 301h75l-231 -428v-252h-74z" />
    <glyph glyph-name="Z" unicode="Z" horiz-adv-x="581" 
d="M39 0v11l380 605h-326v64h438v-11l-379 -605h381v-64h-494z" />
    <glyph glyph-name="bracketleft" unicode="[" horiz-adv-x="305" 
d="M76 -128v850h193v-60h-123v-730h123v-60h-193z" />
    <glyph glyph-name="backslash" unicode="\" horiz-adv-x="429" 
d="M344 -128l-301 850h70l301 -850h-70z" />
    <glyph glyph-name="bracketright" unicode="]" horiz-adv-x="305" 
d="M36 -128v60h123v730h-123v60h194v-850h-194z" />
    <glyph glyph-name="asciicircum" unicode="^" horiz-adv-x="417" 
d="M68 463l136 225h9l136 -225h-58l-82 126l-83 -126h-58z" />
    <glyph glyph-name="underscore" unicode="_" horiz-adv-x="256" 
d="M-2 -128v62h260v-62h-260z" />
    <glyph glyph-name="quoteleft" unicode="&#x2018;" horiz-adv-x="199" 
d="M100 475c-28 0 -53 23 -53 52c0 14 5 26 13 41l55 112h38l-34 -104c17 -6 33 -25 33 -48c0 -30 -25 -53 -52 -53z" />
    <glyph glyph-name="a" unicode="a" horiz-adv-x="471" 
d="M331 243v10c0 80 -36 111 -97 111c-58 0 -95 -25 -121 -60l-43 39c36 49 90 80 169 80c92 0 162 -54 162 -169v-254h-70l3 62c-28 -42 -71 -70 -137 -70c-88 0 -152 40 -152 126c0 85 70 125 157 125h129zM331 190h-124c-53 0 -94 -19 -94 -69c0 -47 35 -72 100 -72
c64 0 118 35 118 89v52z" />
    <glyph glyph-name="b" unicode="b" horiz-adv-x="551" 
d="M302 -8c-74 0 -132 40 -160 97l2 -89h-69v722h69v-393c30 55 82 94 159 94c113 0 200 -92 200 -215c0 -124 -88 -216 -201 -216zM288 53c87 0 143 65 143 155c0 89 -56 153 -143 153c-88 0 -147 -64 -147 -153c0 -90 59 -155 147 -155z" />
    <glyph glyph-name="c" unicode="c" horiz-adv-x="467" 
d="M263 -8c-122 0 -215 94 -215 215s93 216 215 216c74 0 125 -28 163 -74l-50 -41c-25 33 -61 53 -113 53c-88 0 -143 -66 -143 -154s55 -154 143 -154c57 0 93 23 119 54l48 -41c-39 -47 -90 -74 -167 -74z" />
    <glyph glyph-name="d" unicode="d" horiz-adv-x="551" 
d="M249 -8c-113 0 -201 92 -201 216c0 123 88 215 200 215c79 0 129 -39 159 -94v393h69v-722h-69l2 89c-28 -57 -86 -97 -160 -97zM263 53c88 0 147 65 147 155c0 89 -59 153 -147 153c-87 0 -143 -64 -143 -153c0 -90 56 -155 143 -155z" />
    <glyph glyph-name="e" unicode="e" horiz-adv-x="516" 
d="M118 184c9 -79 63 -133 154 -133c62 0 104 25 131 55l43 -42c-38 -43 -93 -72 -174 -72c-136 0 -224 94 -224 215s93 216 214 216c133 0 213 -102 208 -239h-352zM119 237h281c-6 71 -51 127 -138 127c-79 0 -132 -51 -143 -127z" />
    <glyph glyph-name="f" unicode="f" horiz-adv-x="318" 
d="M101 0v355h-67v59h67v188c0 93 47 133 115 133c51 0 84 -20 105 -51l-46 -41c-13 17 -25 29 -53 29c-30 0 -51 -17 -51 -70v-188h111v-59h-111v-355h-70z" />
    <glyph glyph-name="g" unicode="g" horiz-adv-x="552" 
d="M268 -223c-102 0 -171 48 -210 115l52 36c35 -58 83 -91 156 -91c89 0 141 46 141 155v94c-27 -54 -84 -94 -158 -94c-113 0 -201 92 -201 216c0 123 88 215 200 215c79 0 132 -41 161 -98l-2 89h70v-427c0 -146 -86 -210 -209 -210zM263 53c88 0 147 65 147 155
c0 89 -59 153 -147 153c-87 0 -143 -64 -143 -153c0 -90 56 -155 143 -155z" />
    <glyph glyph-name="h" unicode="h" horiz-adv-x="516" 
d="M74 0v722h70v-389c26 55 80 90 147 90c92 0 155 -63 155 -171v-252h-70v244c0 73 -34 115 -103 115c-77 0 -129 -49 -129 -131v-228h-70z" />
    <glyph glyph-name="i" unicode="i" horiz-adv-x="222" 
d="M111 534c-26 0 -50 20 -50 49s24 50 50 50s50 -21 50 -50s-24 -49 -50 -49zM76 0v414h70v-414h-70z" />
    <glyph glyph-name="j" unicode="j" horiz-adv-x="222" 
d="M111 534c-26 0 -50 20 -50 49s24 50 50 50s50 -21 50 -50s-24 -49 -50 -49zM35 -222c-44 0 -73 20 -92 41l39 42c13 -12 25 -23 48 -23c28 0 46 17 46 63v513h70v-512c0 -82 -45 -124 -111 -124z" />
    <glyph glyph-name="k" unicode="k" horiz-adv-x="463" 
d="M144 126v-126h-70v722h70v-463c0 -21 -2 -42 -5 -59l197 214h81l-159 -174l184 -240h-83l-150 194z" />
    <glyph glyph-name="l" unicode="l" horiz-adv-x="228" 
d="M79 0v722h70v-722h-70z" />
    <glyph glyph-name="m" unicode="m" horiz-adv-x="757" 
d="M74 0v414h70l-2 -78c27 56 72 87 130 87c65 0 107 -35 125 -87c31 56 83 87 143 87c91 0 147 -60 147 -158v-265h-69v256c0 66 -26 103 -91 103c-66 0 -111 -45 -111 -127v-232h-70v256c0 66 -26 103 -90 103c-66 0 -112 -45 -112 -127v-232h-70z" />
    <glyph glyph-name="n" unicode="n" horiz-adv-x="516" 
d="M74 0v414h70l-2 -85c27 59 82 94 149 94c92 0 155 -63 155 -171v-252h-70v244c0 73 -34 115 -103 115c-77 0 -129 -49 -129 -131v-228h-70z" />
    <glyph glyph-name="o" unicode="o" horiz-adv-x="534" 
d="M268 -8c-124 0 -220 94 -220 215s96 216 220 216c123 0 218 -95 218 -216s-95 -215 -218 -215zM268 52c88 0 147 66 147 155s-59 155 -147 155c-89 0 -149 -66 -149 -155s60 -155 149 -155z" />
    <glyph glyph-name="p" unicode="p" horiz-adv-x="551" 
d="M75 -212v626h69l-2 -89c29 57 83 98 161 98c113 0 200 -92 200 -215c0 -124 -88 -216 -201 -216c-74 0 -131 40 -158 94v-298h-69zM288 53c87 0 143 65 143 155c0 89 -56 153 -143 153c-88 0 -147 -64 -147 -153c0 -90 59 -155 147 -155z" />
    <glyph glyph-name="q" unicode="q" horiz-adv-x="552" 
d="M407 -212v298c-27 -54 -84 -94 -158 -94c-113 0 -201 92 -201 216c0 123 88 215 200 215c79 0 132 -41 161 -98l-2 89h70v-626h-70zM263 53c88 0 147 65 147 155c0 89 -59 153 -147 153c-87 0 -143 -64 -143 -153c0 -90 56 -155 143 -155z" />
    <glyph glyph-name="r" unicode="r" horiz-adv-x="357" 
d="M74 0v414h70l-2 -81c26 63 72 89 121 89c31 0 53 -7 72 -20l-27 -61c-13 9 -31 16 -57 16c-59 0 -107 -42 -107 -139v-218h-70z" />
    <glyph glyph-name="s" unicode="s" horiz-adv-x="410" 
d="M213 -8c-91 0 -150 44 -177 96l54 31c24 -40 60 -70 120 -70c56 0 88 24 88 62c0 45 -36 55 -108 76c-65 19 -125 45 -125 123c0 72 60 113 136 113c63 0 109 -26 138 -67l-48 -37c-21 29 -50 47 -90 47c-45 0 -72 -21 -72 -53c0 -39 25 -50 98 -71
c70 -19 137 -47 137 -127c0 -70 -47 -123 -151 -123z" />
    <glyph glyph-name="t" unicode="t" horiz-adv-x="335" 
d="M209 -9c-63 0 -111 36 -111 134v230h-64v59h64v142h69v-142h116v-59h-116v-231c0 -55 19 -72 49 -72c32 0 46 13 59 26l34 -47c-21 -21 -49 -40 -100 -40z" />
    <glyph glyph-name="u" unicode="u" horiz-adv-x="515" 
d="M225 -9c-92 0 -155 63 -155 169v254h70v-247c0 -72 34 -112 102 -112c78 0 129 50 129 131v228h70v-414h-70l2 84c-27 -58 -81 -93 -148 -93z" />
    <glyph glyph-name="v" unicode="v" horiz-adv-x="462" 
d="M226 -8l-201 422h77l110 -239c12 -27 22 -67 23 -71c1 4 9 44 22 71l108 239h72l-198 -422h-13z" />
    <glyph glyph-name="w" unicode="w" horiz-adv-x="683" 
d="M195 -9l-170 423h76l89 -228c10 -25 17 -57 19 -63c1 5 9 38 21 63l108 234h9l110 -233c12 -27 21 -61 22 -65c0 3 8 39 19 65l89 227h71l-172 -423h-10l-114 249c-12 23 -19 57 -20 60c-1 -3 -10 -37 -20 -60l-117 -249h-10z" />
    <glyph glyph-name="x" unicode="x" horiz-adv-x="470" 
d="M31 0l164 220l-142 194h83l78 -108c11 -15 22 -39 24 -43c0 2 8 27 20 43l79 108h77l-140 -189l165 -225h-84l-98 136c-10 15 -24 41 -26 45c-1 -1 -13 -30 -24 -45l-99 -136h-77z" />
    <glyph glyph-name="y" unicode="y" horiz-adv-x="462" 
d="M95 -212l106 247l-176 379h77l117 -257c11 -26 19 -70 19 -70s7 44 19 70l108 257h72l-270 -626h-72z" />
    <glyph glyph-name="z" unicode="z" horiz-adv-x="417" 
d="M32 0v10l239 346h-213v58h326v-11l-241 -345h236v-58h-347z" />
    <glyph glyph-name="braceleft" unicode="{" horiz-adv-x="367" 
d="M274 -128c-68 0 -133 27 -133 144v185c0 53 -21 69 -58 69h-58v60h58c37 0 58 17 58 70v178c0 117 65 144 133 144h57v-60h-53c-42 0 -66 -19 -66 -85v-185c0 -62 -28 -83 -65 -92c37 -7 65 -31 65 -92v-191c0 -66 24 -85 66 -85h53v-60h-57z" />
    <glyph glyph-name="bar" unicode="|" horiz-adv-x="237" 
d="M85 -128v850h67v-850h-67z" />
    <glyph glyph-name="braceright" unicode="}" horiz-adv-x="366" 
d="M36 -128v60h53c42 0 66 19 66 85v191c0 62 28 84 65 92c-37 7 -65 31 -65 93v184c0 66 -24 85 -66 85h-53v60h57c67 0 132 -27 132 -144v-178c0 -53 22 -70 59 -70h57v-60h-57c-37 0 -59 -16 -59 -69v-185c0 -117 -65 -144 -132 -144h-57z" />
    <glyph glyph-name="asciitilde" unicode="~" horiz-adv-x="393" 
d="M103 224l-52 5c3 72 37 111 86 111c29 0 47 -13 69 -33c25 -21 32 -28 48 -28c22 0 32 18 36 59l52 -5c-3 -72 -35 -110 -85 -110c-29 0 -47 13 -69 33c-25 21 -32 27 -49 27c-19 0 -32 -19 -36 -59z" />
    <glyph glyph-name="exclamdown" unicode="&#xa1;" horiz-adv-x="244" 
d="M122 687c28 0 53 -23 53 -53c0 -31 -25 -54 -53 -54s-53 23 -53 54c0 30 25 53 53 53zM149 490l12 -490h-78l12 490h54z" />
    <glyph glyph-name="cent" unicode="&#xa2;" horiz-adv-x="470" 
d="M233 -6c-107 14 -185 102 -185 213s78 200 185 214v108h51v-107c63 -4 109 -31 143 -73l-49 -40c-22 28 -52 47 -94 52v-308c46 5 76 25 100 54l48 -41c-36 -43 -82 -69 -148 -73v-109h-51v110zM233 359c-70 -13 -114 -74 -114 -152s43 -139 114 -152v304z" />
    <glyph glyph-name="sterling" unicode="&#xa3;" horiz-adv-x="544" 
d="M165 260h-95v56h71c-17 43 -31 86 -31 131c0 96 74 171 189 171c92 0 155 -49 184 -111l-58 -32c-27 52 -60 80 -126 80c-72 0 -116 -41 -116 -111c0 -43 13 -85 29 -128h162v-56h-141c16 -46 31 -95 31 -148v-5c38 -27 75 -53 121 -53c41 0 68 17 91 43l42 -43
c-29 -36 -70 -62 -131 -62c-58 0 -104 29 -142 60c-23 -35 -65 -60 -113 -60c-63 0 -104 38 -104 91c0 52 41 87 98 87c28 0 52 -9 76 -22c-6 38 -21 75 -37 112zM201 88c-25 19 -47 34 -70 34c-29 0 -46 -17 -46 -41s17 -41 46 -41c31 0 60 20 70 48z" />
    <glyph glyph-name="fraction" unicode="&#x2044;" horiz-adv-x="424" 
d="M-34 0l421 680h71l-420 -680h-72z" />
    <glyph glyph-name="yen" unicode="&#xa5;" horiz-adv-x="536" 
d="M229 0v128h-171v56h169l-39 69h-130v56h99l-110 195h79l114 -212c16 -30 28 -68 28 -68s12 39 28 68l120 212h73l-115 -195h97v-56h-129l-41 -69h170v-56h-171v-128h-71z" />
    <glyph glyph-name="florin" unicode="&#x192;" horiz-adv-x="358" 
d="M174 203l-47 -415h-68l47 415h-68v57h74l26 224c10 94 57 134 123 134c54 0 83 -21 103 -54l-48 -39c-13 19 -25 33 -52 33c-31 0 -52 -17 -58 -71l-26 -227h94v-57h-100z" />
    <glyph glyph-name="section" unicode="&#xa7;" horiz-adv-x="495" 
d="M113 405c-13 21 -20 45 -20 74c0 82 67 139 156 139c84 0 133 -41 160 -101l-57 -26c-19 39 -46 69 -101 69s-90 -30 -90 -79c0 -43 19 -67 71 -88l98 -39c94 -37 133 -82 133 -145c0 -50 -33 -85 -80 -104c15 -21 23 -45 23 -74c0 -79 -58 -134 -163 -134
c-89 0 -156 47 -184 108l56 28c23 -45 64 -77 126 -77c60 0 95 30 95 75c0 40 -26 61 -82 83l-89 35c-92 35 -133 77 -133 148c0 50 32 87 81 108zM349 138c30 13 48 33 48 62c0 41 -20 64 -87 91l-98 39c-27 11 -52 25 -72 42c-28 -14 -41 -38 -41 -67c0 -45 21 -68 84 -93
l91 -35c29 -11 54 -23 75 -39z" />
    <glyph glyph-name="quotesingle" unicode="'" horiz-adv-x="154" 
d="M48 470l-8 210h74l-8 -210h-58z" />
    <glyph glyph-name="quotedblleft" unicode="&#x201c;" horiz-adv-x="357" 
d="M258 475c-28 0 -53 23 -53 52c0 14 6 26 13 41l56 112h37l-34 -104c18 -6 33 -25 33 -48c0 -30 -25 -53 -52 -53zM100 475c-28 0 -53 23 -53 52c0 14 5 26 13 41l55 112h38l-34 -104c17 -6 33 -25 33 -48c0 -30 -25 -53 -52 -53z" />
    <glyph glyph-name="guillemotleft" unicode="&#xab;" horiz-adv-x="397" 
d="M287 37l-94 159v8l94 157h72l-96 -161l96 -163h-72zM132 37l-94 159v8l94 157h72l-96 -161l96 -163h-72z" />
    <glyph glyph-name="guilsinglleft" unicode="&#x2039;" horiz-adv-x="242" 
d="M132 37l-94 159v8l94 157h72l-96 -161l96 -163h-72z" />
    <glyph glyph-name="guilsinglright" unicode="&#x203a;" horiz-adv-x="242" 
d="M38 37l96 162l-96 162h72l94 -158v-8l-94 -158h-72z" />
    <glyph glyph-name="endash" unicode="&#x2013;" horiz-adv-x="394" 
d="M35 163v61h323v-61h-323z" />
    <glyph glyph-name="dagger" unicode="&#x2020;" horiz-adv-x="337" 
d="M136 280v238h-93v58h93v104h65v-104h93v-58h-93v-238h-65z" />
    <glyph glyph-name="daggerdbl" unicode="&#x2021;" horiz-adv-x="337" 
d="M136 280v105h-93v54h93v82h-93v55h93v104h65v-104h93v-55h-93v-82h93v-54h-93v-105h-65z" />
    <glyph glyph-name="periodcentered" unicode="&#xb7;" horiz-adv-x="202" 
d="M101 189c-28 0 -54 24 -54 55s26 54 54 54c29 0 54 -23 54 -54s-25 -55 -54 -55z" />
    <glyph glyph-name="paragraph" unicode="&#xb6;" horiz-adv-x="578" 
d="M266 0v304h-22c-123 0 -193 84 -193 187c0 102 73 189 197 189h237v-680h-69v618h-80v-618h-70z" />
    <glyph glyph-name="bullet" unicode="&#x2022;" horiz-adv-x="279" 
d="M139 168c-51 0 -94 42 -94 94c0 54 43 95 94 95s95 -41 95 -95c0 -52 -44 -94 -95 -94z" />
    <glyph glyph-name="quotesinglbase" unicode="&#x201a;" horiz-adv-x="199" 
d="M46 -103l34 105c-18 5 -33 24 -33 48c0 29 25 52 52 52c28 0 53 -23 53 -52c0 -13 -6 -26 -13 -40l-56 -113h-37z" />
    <glyph glyph-name="quotedblbase" unicode="&#x201e;" horiz-adv-x="357" 
d="M204 -103l34 105c-17 5 -33 24 -33 48c0 29 25 52 52 52c28 0 53 -23 53 -52c0 -13 -5 -26 -13 -40l-55 -113h-38zM46 -103l34 105c-18 5 -33 24 -33 48c0 29 25 52 52 52c28 0 53 -23 53 -52c0 -13 -6 -26 -13 -40l-56 -113h-37z" />
    <glyph glyph-name="quotedblright" unicode="&#x201d;" horiz-adv-x="357" 
d="M204 482l34 104c-17 6 -33 25 -33 48c0 30 25 53 52 53c28 0 53 -23 53 -52c0 -14 -5 -26 -13 -41l-55 -112h-38zM46 482l34 104c-18 6 -33 25 -33 48c0 30 25 53 52 53c28 0 53 -23 53 -52c0 -14 -6 -26 -13 -41l-56 -112h-37z" />
    <glyph glyph-name="guillemotright" unicode="&#xbb;" horiz-adv-x="397" 
d="M193 37l96 162l-96 162h72l94 -158v-8l-94 -158h-72zM38 37l96 162l-96 162h72l94 -158v-8l-94 -158h-72z" />
    <glyph glyph-name="ellipsis" unicode="&#x2026;" horiz-adv-x="616" 
d="M515 -7c-28 0 -54 24 -54 55s26 54 54 54c29 0 54 -23 54 -54s-25 -55 -54 -55zM308 -7c-28 0 -54 24 -54 55s26 54 54 54c29 0 54 -23 54 -54s-25 -55 -54 -55zM101 -7c-28 0 -54 24 -54 55s26 54 54 54c29 0 54 -23 54 -54s-25 -55 -54 -55z" />
    <glyph glyph-name="perthousand" unicode="&#x2030;" horiz-adv-x="1111" 
d="M178 218c-80 0 -150 61 -150 147c0 85 70 147 150 147c79 0 149 -62 149 -147c0 -86 -70 -147 -149 -147zM191 0l315 504h70l-315 -504h-70zM934 -8c-79 0 -149 61 -149 146s70 147 149 147c80 0 149 -62 149 -147s-69 -146 -149 -146zM589 -8c-80 0 -149 61 -149 146
s69 147 149 147s149 -62 149 -147s-69 -146 -149 -146zM178 273c48 0 88 37 88 92c0 56 -40 92 -88 92s-89 -36 -89 -92c0 -55 41 -92 89 -92zM934 46c48 0 88 37 88 92s-40 92 -88 92c-47 0 -88 -37 -88 -92s41 -92 88 -92zM589 46c48 0 88 37 88 92s-40 92 -88 92
s-88 -37 -88 -92s40 -92 88 -92z" />
    <glyph glyph-name="questiondown" unicode="&#xbf;" horiz-adv-x="469" 
d="M263 687c28 0 53 -23 53 -53c0 -31 -25 -54 -53 -54s-53 23 -53 54c0 30 25 53 53 53zM295 493v-176h-33c-89 0 -140 -60 -140 -134c0 -79 51 -128 125 -128c67 0 107 28 137 88l58 -30c-33 -79 -104 -121 -195 -121c-118 0 -197 77 -197 191c0 106 73 181 179 189v121
h66z" />
    <glyph glyph-name="grave" unicode="`" 
d="M224 498l-93 193h80l68 -193h-55z" />
    <glyph glyph-name="acute" unicode="&#xb4;" 
d="M221 498l68 193h80l-93 -193h-55z" />
    <glyph glyph-name="circumflex" unicode="&#x2c6;" 
d="M117 503l128 193h9l128 -193h-58l-74 101l-75 -101h-58z" />
    <glyph glyph-name="tilde" unicode="&#x2dc;" 
d="M156 509l-52 4c4 72 38 111 87 111c28 0 47 -13 69 -32c25 -22 32 -28 48 -28c21 0 32 18 36 58l52 -5c-4 -71 -36 -110 -86 -110c-28 0 -47 14 -69 33c-25 22 -32 28 -48 28c-20 0 -33 -19 -37 -59z" />
    <glyph glyph-name="macron" unicode="&#xaf;" 
d="M135 539v55h230v-55h-230z" />
    <glyph glyph-name="breve" unicode="&#x2d8;" 
d="M250 499c-77 0 -121 50 -131 117l56 9c9 -39 28 -71 75 -71s66 32 75 71l56 -9c-10 -67 -54 -117 -131 -117z" />
    <glyph glyph-name="dotaccent" unicode="&#x2d9;" 
d="M250 534c-26 0 -50 20 -50 49s24 50 50 50s50 -21 50 -50s-24 -49 -50 -49z" />
    <glyph glyph-name="dieresis" unicode="&#xa8;" 
d="M335 537c-24 0 -46 20 -46 46c0 25 22 46 46 46s46 -21 46 -46c0 -26 -22 -46 -46 -46zM165 537c-24 0 -46 20 -46 46c0 25 22 46 46 46s46 -21 46 -46c0 -26 -22 -46 -46 -46z" />
    <glyph glyph-name="ring" unicode="&#x2da;" 
d="M250 484c-59 0 -105 45 -105 100c0 56 46 101 105 101s105 -45 105 -101c0 -55 -46 -100 -105 -100zM250 528c31 0 53 22 53 56c0 35 -22 56 -53 56s-53 -21 -53 -56c0 -34 22 -56 53 -56z" />
    <glyph glyph-name="cedilla" unicode="&#xb8;" 
d="M256 -232c-52 0 -85 27 -101 59l40 25c11 -21 25 -39 57 -39c25 0 47 16 47 47c0 27 -18 48 -55 48h-21v92h46v-53c43 -6 83 -38 83 -91c0 -56 -47 -88 -96 -88z" />
    <glyph glyph-name="hungarumlaut" unicode="&#x2dd;" 
d="M289 505l68 193h76l-89 -193h-55zM151 505l67 193h76l-88 -193h-55z" />
    <glyph glyph-name="ogonek" unicode="&#x2db;" 
d="M238 -232c-49 0 -93 29 -93 88c0 41 20 73 41 101l32 43h51l-36 -57c-22 -36 -34 -54 -34 -85c0 -29 20 -43 42 -43c27 0 41 17 53 36l42 -24c-17 -33 -47 -59 -98 -59z" />
    <glyph glyph-name="caron" unicode="&#x2c7;" 
d="M246 495l-128 192h58l74 -101l75 101h58l-128 -192h-9z" />
    <glyph glyph-name="emdash" unicode="&#x2014;" horiz-adv-x="623" 
d="M35 163v61h553v-61h-553z" />
    <glyph glyph-name="AE" unicode="&#xc6;" horiz-adv-x="953" 
d="M27 0l454 680h399v-64h-341v-243h304v-63h-304v-246h355v-64h-428v140h-270l-91 -140h-78zM239 202h227v284c0 35 7 82 7 84c-1 -2 -21 -45 -41 -75z" />
    <glyph glyph-name="ordfeminine" unicode="&#xaa;" horiz-adv-x="402" 
d="M284 363c0 74 -32 95 -82 95c-53 0 -82 -27 -101 -50l-40 35c27 38 74 69 146 69c79 0 142 -42 142 -147v-211h-65l1 46c-23 -33 -63 -54 -114 -54c-74 0 -132 36 -132 109s64 108 139 108h106zM284 314h-99c-46 0 -81 -14 -81 -57c0 -40 31 -59 82 -59c54 0 98 28 98 76
v40z" />
    <glyph glyph-name="Lslash" unicode="&#x141;" horiz-adv-x="531" 
d="M96 0v252l-75 -29v66l75 29v362h73v-336l199 78v-65l-199 -78v-215h321v-64h-394z" />
    <glyph glyph-name="Oslash" unicode="&#xd8;" horiz-adv-x="807" 
d="M674 566c49 -59 79 -137 79 -226c0 -205 -156 -348 -350 -348c-86 0 -165 28 -226 78l-80 -80l-45 44l81 80c-49 59 -79 137 -79 226c0 205 156 348 349 348c87 0 166 -29 227 -79l80 80l44 -44zM184 165c0 0 397 395 396 395c-46 40 -108 63 -177 63
c-158 0 -274 -121 -274 -283c0 -67 20 -127 55 -175zM623 515l-396 -396c47 -39 108 -62 176 -62c159 0 275 121 275 283c0 67 -20 127 -55 175z" />
    <glyph glyph-name="OE" unicode="&#x152;" horiz-adv-x="987" 
d="M412 0c-221 0 -358 139 -358 340s136 340 358 340h502v-64h-341v-243h304v-63h-304v-246h355v-64h-516zM418 65h83v550h-83c-194 0 -289 -113 -289 -275s95 -275 289 -275z" />
    <glyph glyph-name="ordmasculine" unicode="&#xba;" horiz-adv-x="454" 
d="M227 146c-102 0 -185 78 -185 183c0 104 83 183 185 183s185 -79 185 -183c0 -105 -83 -183 -185 -183zM227 201c71 0 119 53 119 128c0 74 -48 127 -119 127s-118 -53 -118 -127c0 -75 47 -128 118 -128z" />
    <glyph glyph-name="ae" unicode="&#xe6;" horiz-adv-x="799" 
d="M331 240v12c0 81 -36 112 -97 112c-58 0 -95 -25 -121 -60l-43 39c36 49 90 80 169 80c68 0 116 -34 137 -94c34 53 94 94 168 94c134 0 213 -102 209 -235h-353c8 -79 62 -137 154 -137c62 0 104 25 132 55l42 -42c-38 -43 -93 -72 -173 -72c-85 0 -148 38 -182 97
c-22 -66 -95 -97 -167 -97c-94 0 -161 40 -161 125c0 86 72 123 157 123h129zM402 240h280c-6 65 -50 124 -137 124c-78 0 -131 -52 -143 -124zM331 188h-124c-52 0 -94 -17 -94 -68c0 -48 34 -71 100 -71c64 0 118 35 118 89v50z" />
    <glyph glyph-name="dotlessi" unicode="&#x131;" horiz-adv-x="222" 
d="M76 0v414h70v-414h-70z" />
    <glyph glyph-name="lslash" unicode="&#x142;" horiz-adv-x="268" 
d="M99 0v268l-85 -51v69l85 52v384h70v-344l88 54v-70l-88 -53v-309h-70z" />
    <glyph glyph-name="oslash" unicode="&#xf8;" horiz-adv-x="534" 
d="M444 336c26 -36 42 -80 42 -129c0 -121 -95 -215 -218 -215c-54 0 -104 19 -142 50l-58 -54l-35 37l58 53c-27 36 -43 80 -43 129c0 121 96 216 220 216c54 0 103 -19 140 -50l57 52l35 -37zM138 122l225 208c-25 21 -57 33 -95 33c-90 0 -151 -66 -151 -156
c0 -32 8 -60 21 -85zM396 291l-225 -207c26 -21 59 -33 97 -33c89 0 149 66 149 156c0 32 -7 61 -21 84z" />
    <glyph glyph-name="oe" unicode="&#x153;" horiz-adv-x="881" 
d="M482 184c9 -79 62 -133 154 -133c62 0 104 25 131 55l43 -42c-38 -43 -93 -72 -173 -72c-94 0 -158 47 -188 115c-30 -68 -96 -115 -181 -115c-124 0 -220 94 -220 215s96 216 220 216c86 0 151 -47 181 -116c29 68 93 116 177 116c133 0 213 -102 208 -239h-352z
M483 237h281c-6 71 -51 127 -138 127c-79 0 -132 -51 -143 -127zM268 52c88 0 147 66 147 155s-59 155 -147 155c-89 0 -149 -66 -149 -155s60 -155 149 -155z" />
    <glyph glyph-name="germandbls" unicode="&#xdf;" horiz-adv-x="540" 
d="M283 -5c-31 0 -59 6 -76 13l15 57c14 -6 28 -9 54 -9c96 0 144 62 144 154c0 99 -65 159 -180 157v58c72 8 117 56 117 133c0 83 -48 118 -105 118c-58 0 -108 -35 -108 -131v-545h-70v546c0 131 84 189 178 189s171 -60 171 -175c0 -69 -31 -126 -96 -154
c98 -19 165 -90 165 -197c0 -123 -75 -214 -209 -214z" />
    <glyph glyph-name="trademark" unicode="&#x2122;" horiz-adv-x="725" 
d="M346 383v302h9l144 -161l143 161h9v-302h-54v187l-93 -111h-10l-94 111v-187h-54zM138 383v251h-90v46h234v-46h-90v-251h-54z" />
    <glyph glyph-name="Eth" unicode="&#xd0;" horiz-adv-x="680" 
d="M93 0v309h-79v63h79v308h173c221 0 360 -139 360 -340s-138 -340 -360 -340h-173zM165 65h96c194 0 289 113 289 275s-95 275 -289 275h-96v-243h183v-63h-183v-244z" />
    <glyph glyph-name="Thorn" unicode="&#xde;" horiz-adv-x="584" 
d="M93 0v680h72v-126h127c145 0 242 -70 242 -211c0 -138 -96 -210 -242 -210h-127v-133h-72zM165 197h123c114 0 172 50 172 146c0 98 -58 147 -172 147h-123v-293z" />
    <glyph glyph-name="divide" unicode="&#xf7;" horiz-adv-x="373" 
d="M334 221h-295v62h295v-62zM186 343c-27 0 -51 22 -51 52s24 51 51 51c28 0 52 -21 52 -51s-24 -52 -52 -52zM186 57c-27 0 -51 23 -51 52c0 30 24 51 51 51c28 0 52 -21 52 -51c0 -29 -24 -52 -52 -52z" />
    <glyph glyph-name="degree" unicode="&#xb0;" horiz-adv-x="325" 
d="M163 286c-65 0 -117 50 -117 113c0 64 52 113 117 113c64 0 116 -49 116 -113c0 -63 -52 -113 -116 -113zM163 332c38 0 64 28 64 67s-26 67 -64 67c-39 0 -65 -28 -65 -67s26 -67 65 -67z" />
    <glyph glyph-name="thorn" unicode="&#xfe;" horiz-adv-x="552" 
d="M76 -212v934h70v-393c29 55 83 94 160 94c113 0 198 -92 198 -215c0 -124 -86 -216 -199 -216c-74 0 -132 40 -159 94v-298h-70zM289 53c87 0 143 65 143 155c0 89 -56 153 -143 153c-88 0 -147 -64 -147 -153c0 -90 59 -155 147 -155z" />
    <glyph glyph-name="registered" unicode="&#xae;" horiz-adv-x="514" 
d="M178 362v237h84c59 0 90 -31 90 -76c0 -35 -17 -60 -49 -70l55 -91h-48l-50 85h-39v-85h-43zM255 265c-119 0 -217 91 -217 214c0 125 98 215 217 215c121 0 221 -90 221 -215c0 -123 -100 -214 -221 -214zM255 300c105 0 181 71 181 179c0 109 -76 180 -181 180
c-102 0 -176 -71 -176 -180c0 -108 74 -179 176 -179zM221 480h41c30 0 46 16 46 42c0 25 -16 40 -46 40h-41v-82z" />
    <glyph glyph-name="minus" unicode="&#x2212;" horiz-adv-x="373" 
d="M334 221h-295v62h295v-62z" />
    <glyph glyph-name="eth" unicode="&#xf0;" horiz-adv-x="534" 
d="M276 575l-67 -65l-35 35l70 68c-27 31 -56 59 -84 82l39 43c28 -22 58 -49 89 -81l67 66l37 -36l-70 -67c86 -100 164 -238 164 -393c0 -139 -95 -235 -218 -235c-124 0 -220 94 -220 215c0 122 97 216 212 216c59 0 104 -24 135 -65c-21 78 -66 153 -119 217zM268 52
c88 0 147 68 147 159c0 87 -59 151 -147 151c-89 0 -149 -66 -149 -155s60 -155 149 -155z" />
    <glyph glyph-name="multiply" unicode="&#xd7;" horiz-adv-x="370" 
d="M185 207l-100 -100l-44 44l100 100l-100 100l44 44l100 -100l100 100l44 -44l-100 -100l100 -100l-44 -44z" />
    <glyph glyph-name="copyright" unicode="&#xa9;" horiz-adv-x="598" 
d="M300 -7c-142 0 -261 110 -261 259c0 150 119 260 261 260c140 0 259 -110 259 -260c0 -149 -119 -259 -259 -259zM300 33c121 0 217 91 217 219c0 129 -96 220 -217 220c-122 0 -219 -91 -219 -220c0 -128 97 -219 219 -219zM303 103c-84 0 -148 64 -148 149
c0 86 64 150 146 150c54 0 87 -21 115 -51l-41 -38c-17 22 -38 34 -70 34c-51 0 -86 -40 -86 -95c0 -53 35 -94 86 -94c35 0 57 16 73 36l41 -38c-25 -29 -61 -53 -116 -53z" />
    <glyph glyph-name="Aacute" unicode="&#xc1;" horiz-adv-x="655" 
d="M194 215h262l-105 260c-13 32 -26 79 -26 81c-1 -2 -14 -49 -27 -80zM37 0l282 687h12l288 -687h-76l-62 153h-312l-61 -153h-71zM298 749l68 193h80l-93 -193h-55z" />
    <glyph glyph-name="Acircumflex" unicode="&#xc2;" horiz-adv-x="655" 
d="M194 215h262l-105 260c-13 32 -26 79 -26 81c-1 -2 -14 -49 -27 -80zM37 0l282 687h12l288 -687h-76l-62 153h-312l-61 -153h-71zM192 754l128 193h9l128 -193h-58l-74 101l-75 -101h-58z" />
    <glyph glyph-name="Adieresis" unicode="&#xc4;" horiz-adv-x="655" 
d="M194 215h262l-105 260c-13 32 -26 79 -26 81c-1 -2 -14 -49 -27 -80zM37 0l282 687h12l288 -687h-76l-62 153h-312l-61 -153h-71zM410 759c-24 0 -46 20 -46 46c0 25 22 46 46 46s46 -21 46 -46c0 -26 -22 -46 -46 -46zM240 759c-24 0 -46 20 -46 46c0 25 22 46 46 46
s46 -21 46 -46c0 -26 -22 -46 -46 -46z" />
    <glyph glyph-name="Agrave" unicode="&#xc0;" horiz-adv-x="655" 
d="M194 215h262l-105 260c-13 32 -26 79 -26 81c-1 -2 -14 -49 -27 -80zM37 0l282 687h12l288 -687h-76l-62 153h-312l-61 -153h-71zM297 749l-93 193h80l68 -193h-55z" />
    <glyph glyph-name="Aring" unicode="&#xc5;" horiz-adv-x="655" 
d="M194 215h262l-105 260c-13 32 -26 79 -26 81c-1 -2 -14 -49 -27 -80zM37 0l282 687h12l288 -687h-76l-62 153h-312l-61 -153h-71zM325 742c-59 0 -105 45 -105 100c0 56 46 101 105 101s105 -45 105 -101c0 -55 -46 -100 -105 -100zM325 786c31 0 53 22 53 56
c0 35 -22 56 -53 56s-53 -21 -53 -56c0 -34 22 -56 53 -56z" />
    <glyph glyph-name="Atilde" unicode="&#xc3;" horiz-adv-x="655" 
d="M217 759l-54 5c4 71 42 111 95 111c32 0 54 -13 77 -32c28 -22 35 -29 54 -29c26 0 38 18 42 59l54 -5c-4 -72 -39 -110 -95 -110c-31 0 -53 13 -76 32c-28 22 -36 28 -55 28c-23 0 -38 -19 -42 -59zM194 215h262l-105 260c-13 32 -26 79 -26 81c-1 -2 -14 -49 -27 -80z
M37 0l282 687h12l288 -687h-76l-62 153h-312l-61 -153h-71z" />
    <glyph glyph-name="Ccedilla" unicode="&#xc7;" horiz-adv-x="729" 
d="M384 -232c-53 0 -86 27 -102 59l41 25c10 -21 25 -39 57 -39c25 0 46 16 46 47c0 27 -17 48 -55 48h-21v87c-168 24 -296 159 -296 345c0 205 156 348 349 348c120 0 212 -45 270 -132l-55 -40c-44 65 -117 107 -215 107c-159 0 -274 -121 -274 -283s115 -283 274 -283
c99 0 175 43 224 114l56 -39c-60 -88 -158 -140 -280 -140h-6v-45c42 -6 83 -38 83 -91c0 -56 -48 -88 -96 -88z" />
    <glyph glyph-name="Eacute" unicode="&#xc9;" horiz-adv-x="580" 
d="M280 749l68 193h80l-93 -193h-55zM93 0v680h414v-64h-342v-243h305v-63h-305v-246h356v-64h-428z" />
    <glyph glyph-name="Ecircumflex" unicode="&#xca;" horiz-adv-x="580" 
d="M172 754l128 193h9l128 -193h-58l-74 101l-75 -101h-58zM93 0v680h414v-64h-342v-243h305v-63h-305v-246h356v-64h-428z" />
    <glyph glyph-name="Edieresis" unicode="&#xcb;" horiz-adv-x="580" 
d="M392 759c-24 0 -46 20 -46 46c0 25 22 46 46 46s46 -21 46 -46c0 -26 -22 -46 -46 -46zM222 759c-24 0 -46 20 -46 46c0 25 22 46 46 46s46 -21 46 -46c0 -26 -22 -46 -46 -46zM93 0v680h414v-64h-342v-243h305v-63h-305v-246h356v-64h-428z" />
    <glyph glyph-name="Egrave" unicode="&#xc8;" horiz-adv-x="580" 
d="M93 0v680h414v-64h-342v-243h305v-63h-305v-246h356v-64h-428zM280 749l-93 193h80l68 -193h-55z" />
    <glyph glyph-name="Iacute" unicode="&#xcd;" horiz-adv-x="265" 
d="M96 0v680h73v-680h-73zM106 749l68 193h80l-93 -193h-55z" />
    <glyph glyph-name="Icircumflex" unicode="&#xce;" horiz-adv-x="265" 
d="M96 0v680h73v-680h-73zM0 754l128 193h9l128 -193h-58l-74 101l-75 -101h-58z" />
    <glyph glyph-name="Idieresis" unicode="&#xcf;" horiz-adv-x="265" 
d="M96 0v680h73v-680h-73zM218 759c-24 0 -46 20 -46 46c0 25 22 46 46 46s46 -21 46 -46c0 -26 -22 -46 -46 -46zM48 759c-24 0 -46 20 -46 46c0 25 22 46 46 46s46 -21 46 -46c0 -26 -22 -46 -46 -46z" />
    <glyph glyph-name="Igrave" unicode="&#xcc;" horiz-adv-x="265" 
d="M96 0v680h73v-680h-73zM105 749l-93 193h80l68 -193h-55z" />
    <glyph glyph-name="Ntilde" unicode="&#xd1;" horiz-adv-x="713" 
d="M608 -7l-406 480c-18 21 -44 57 -47 62c0 -5 6 -49 6 -76v-459h-68v687h12l406 -480c18 -22 44 -59 47 -63c0 2 -5 48 -5 77v459h67v-687h-12zM254 759l-54 5c4 71 42 111 95 111c32 0 53 -13 77 -32c28 -22 35 -29 54 -29c26 0 38 18 42 59l54 -5
c-4 -72 -39 -110 -95 -110c-31 0 -53 13 -77 32c-28 22 -36 28 -54 28c-23 0 -38 -19 -42 -59z" />
    <glyph glyph-name="Oacute" unicode="&#xd3;" horiz-adv-x="807" 
d="M376 749l68 193h80l-93 -193h-55zM403 -8c-193 0 -349 143 -349 348s156 348 349 348c194 0 350 -143 350 -348s-156 -348 -350 -348zM403 57c159 0 275 121 275 283s-116 283 -275 283c-158 0 -274 -121 -274 -283s116 -283 274 -283z" />
    <glyph glyph-name="Ocircumflex" unicode="&#xd4;" horiz-adv-x="807" 
d="M270 754l128 193h9l128 -193h-58l-74 101l-75 -101h-58zM403 -8c-193 0 -349 143 -349 348s156 348 349 348c194 0 350 -143 350 -348s-156 -348 -350 -348zM403 57c159 0 275 121 275 283s-116 283 -275 283c-158 0 -274 -121 -274 -283s116 -283 274 -283z" />
    <glyph glyph-name="Odieresis" unicode="&#xd6;" horiz-adv-x="807" 
d="M488 759c-24 0 -46 20 -46 46c0 25 22 46 46 46s46 -21 46 -46c0 -26 -22 -46 -46 -46zM318 759c-24 0 -46 20 -46 46c0 25 22 46 46 46s46 -21 46 -46c0 -26 -22 -46 -46 -46zM403 -8c-193 0 -349 143 -349 348s156 348 349 348c194 0 350 -143 350 -348
s-156 -348 -350 -348zM403 57c159 0 275 121 275 283s-116 283 -275 283c-158 0 -274 -121 -274 -283s116 -283 274 -283z" />
    <glyph glyph-name="Ograve" unicode="&#xd2;" horiz-adv-x="807" 
d="M403 -8c-193 0 -349 143 -349 348s156 348 349 348c194 0 350 -143 350 -348s-156 -348 -350 -348zM403 57c159 0 275 121 275 283s-116 283 -275 283c-158 0 -274 -121 -274 -283s116 -283 274 -283zM375 749l-93 193h80l68 -193h-55z" />
    <glyph glyph-name="Otilde" unicode="&#xd5;" horiz-adv-x="807" 
d="M296 759l-53 5c4 71 41 111 95 111c31 0 53 -13 77 -32c28 -22 34 -29 54 -29c25 0 37 18 41 59l54 -5c-4 -72 -38 -110 -94 -110c-31 0 -53 13 -77 32c-28 22 -36 28 -54 28c-24 0 -39 -19 -43 -59zM403 -8c-193 0 -349 143 -349 348s156 348 349 348
c194 0 350 -143 350 -348s-156 -348 -350 -348zM403 57c159 0 275 121 275 283s-116 283 -275 283c-158 0 -274 -121 -274 -283s116 -283 274 -283z" />
    <glyph glyph-name="Scaron" unicode="&#x160;" horiz-adv-x="530" 
d="M253 740l-128 192h58l74 -101l75 101h58l-128 -192h-9zM266 -8c-130 0 -201 66 -237 138l60 32c32 -57 79 -106 175 -106c79 0 141 44 141 116c0 69 -43 104 -128 142l-54 25c-97 44 -150 91 -150 186c0 98 77 163 179 163c91 0 148 -42 184 -102l-58 -36
c-26 42 -62 74 -126 74c-67 0 -108 -39 -108 -97c0 -60 32 -87 108 -122l54 -25c113 -50 171 -106 171 -208c0 -112 -89 -180 -211 -180z" />
    <glyph glyph-name="Uacute" unicode="&#xda;" horiz-adv-x="662" 
d="M303 749l68 193h80l-93 -193h-55zM331 -8c-139 0 -244 81 -244 240v448h72v-443c0 -121 66 -181 172 -181c105 0 172 60 172 181v443h72v-448c0 -159 -106 -240 -244 -240z" />
    <glyph glyph-name="Ucircumflex" unicode="&#xdb;" horiz-adv-x="662" 
d="M198 754l128 193h9l128 -193h-58l-74 101l-75 -101h-58zM331 -8c-139 0 -244 81 -244 240v448h72v-443c0 -121 66 -181 172 -181c105 0 172 60 172 181v443h72v-448c0 -159 -106 -240 -244 -240z" />
    <glyph glyph-name="Udieresis" unicode="&#xdc;" horiz-adv-x="662" 
d="M415 759c-24 0 -46 20 -46 46c0 25 22 46 46 46s46 -21 46 -46c0 -26 -22 -46 -46 -46zM245 759c-24 0 -46 20 -46 46c0 25 22 46 46 46s46 -21 46 -46c0 -26 -22 -46 -46 -46zM331 -8c-139 0 -244 81 -244 240v448h72v-443c0 -121 66 -181 172 -181
c105 0 172 60 172 181v443h72v-448c0 -159 -106 -240 -244 -240z" />
    <glyph glyph-name="Ugrave" unicode="&#xd9;" horiz-adv-x="662" 
d="M331 -8c-139 0 -244 81 -244 240v448h72v-443c0 -121 66 -181 172 -181c105 0 172 60 172 181v443h72v-448c0 -159 -106 -240 -244 -240zM303 749l-93 193h80l68 -193h-55z" />
    <glyph glyph-name="Yacute" unicode="&#xdd;" horiz-adv-x="610" 
d="M271 0v250l-237 430h82l164 -301c14 -26 27 -65 29 -69c1 4 15 43 29 69l163 301h75l-231 -428v-252h-74zM281 749l68 193h80l-93 -193h-55z" />
    <glyph glyph-name="Ydieresis" unicode="&#x178;" horiz-adv-x="610" 
d="M271 0v250l-237 430h82l164 -301c14 -26 27 -65 29 -69c1 4 15 43 29 69l163 301h75l-231 -428v-252h-74zM223 759c-24 0 -46 20 -46 46c0 25 22 46 46 46s46 -21 46 -46c0 -26 -22 -46 -46 -46zM393 759c-24 0 -46 20 -46 46c0 25 22 46 46 46s46 -21 46 -46
c0 -26 -22 -46 -46 -46z" />
    <glyph glyph-name="Zcaron" unicode="&#x17d;" horiz-adv-x="583" 
d="M301 740l-128 192h58l74 -101l75 101h58l-128 -192h-9zM39 0v11l380 605h-326v64h438v-11l-379 -605h381v-64h-494z" />
    <glyph glyph-name="aacute" unicode="&#xe1;" horiz-adv-x="471" 
d="M331 243v10c0 80 -36 111 -97 111c-58 0 -95 -25 -121 -60l-43 39c36 49 90 80 169 80c92 0 162 -54 162 -169v-254h-70l3 62c-28 -42 -71 -70 -137 -70c-88 0 -152 40 -152 126c0 85 70 125 157 125h129zM331 190h-124c-53 0 -94 -19 -94 -69c0 -47 35 -72 100 -72
c64 0 118 35 118 89v52zM206 498l68 193h80l-93 -193h-55z" />
    <glyph glyph-name="acircumflex" unicode="&#xe2;" horiz-adv-x="471" 
d="M331 243v10c0 80 -36 111 -97 111c-58 0 -95 -25 -121 -60l-43 39c36 49 90 80 169 80c92 0 162 -54 162 -169v-254h-70l3 62c-28 -42 -71 -70 -137 -70c-88 0 -152 40 -152 126c0 85 70 125 157 125h129zM331 190h-124c-53 0 -94 -19 -94 -69c0 -47 35 -72 100 -72
c64 0 118 35 118 89v52zM101 503l128 193h9l128 -193h-58l-74 101l-75 -101h-58z" />
    <glyph glyph-name="adieresis" unicode="&#xe4;" horiz-adv-x="471" 
d="M331 243v10c0 80 -36 111 -97 111c-58 0 -95 -25 -121 -60l-43 39c36 49 90 80 169 80c92 0 162 -54 162 -169v-254h-70l3 62c-28 -42 -71 -70 -137 -70c-88 0 -152 40 -152 126c0 85 70 125 157 125h129zM331 190h-124c-53 0 -94 -19 -94 -69c0 -47 35 -72 100 -72
c64 0 118 35 118 89v52zM318 537c-24 0 -46 20 -46 46c0 25 22 46 46 46s46 -21 46 -46c0 -26 -22 -46 -46 -46zM148 537c-24 0 -46 20 -46 46c0 25 22 46 46 46s46 -21 46 -46c0 -26 -22 -46 -46 -46z" />
    <glyph glyph-name="agrave" unicode="&#xe0;" horiz-adv-x="471" 
d="M331 243v10c0 80 -36 111 -97 111c-58 0 -95 -25 -121 -60l-43 39c36 49 90 80 169 80c92 0 162 -54 162 -169v-254h-70l3 62c-28 -42 -71 -70 -137 -70c-88 0 -152 40 -152 126c0 85 70 125 157 125h129zM331 190h-124c-53 0 -94 -19 -94 -69c0 -47 35 -72 100 -72
c64 0 118 35 118 89v52zM205 498l-93 193h80l68 -193h-55z" />
    <glyph glyph-name="aring" unicode="&#xe5;" horiz-adv-x="471" 
d="M331 243v10c0 80 -36 111 -97 111c-58 0 -95 -25 -121 -60l-43 39c36 49 90 80 169 80c92 0 162 -54 162 -169v-254h-70l3 62c-28 -42 -71 -70 -137 -70c-88 0 -152 40 -152 126c0 85 70 125 157 125h129zM331 190h-124c-53 0 -94 -19 -94 -69c0 -47 35 -72 100 -72
c64 0 118 35 118 89v52zM233 484c-59 0 -105 45 -105 100c0 56 46 101 105 101s105 -45 105 -101c0 -55 -46 -100 -105 -100zM233 528c31 0 53 22 53 56c0 35 -22 56 -53 56s-53 -21 -53 -56c0 -34 22 -56 53 -56z" />
    <glyph glyph-name="atilde" unicode="&#xe3;" horiz-adv-x="471" 
d="M331 243v10c0 80 -36 111 -97 111c-58 0 -95 -25 -121 -60l-43 39c36 49 90 80 169 80c92 0 162 -54 162 -169v-254h-70l3 62c-28 -42 -71 -70 -137 -70c-88 0 -152 40 -152 126c0 85 70 125 157 125h129zM331 190h-124c-53 0 -94 -19 -94 -69c0 -47 35 -72 100 -72
c64 0 118 35 118 89v52zM139 509l-52 4c4 72 38 111 87 111c28 0 47 -13 69 -32c25 -22 32 -28 48 -28c21 0 32 18 36 58l52 -5c-4 -71 -36 -110 -86 -110c-28 0 -47 14 -69 33c-25 22 -32 28 -48 28c-20 0 -33 -19 -37 -59z" />
    <glyph glyph-name="ccedilla" unicode="&#xe7;" horiz-adv-x="467" 
d="M217 -3c-99 20 -169 105 -169 210c0 121 93 216 215 216c74 0 125 -28 163 -74l-50 -41c-25 33 -61 53 -113 53c-88 0 -143 -66 -143 -154s55 -154 143 -154c57 0 93 23 119 54l48 -41c-39 -47 -89 -74 -165 -74v-45c42 -6 82 -38 82 -91c0 -56 -47 -88 -96 -88
c-52 0 -85 27 -101 59l43 25c12 -20 23 -37 54 -37c24 0 45 15 45 45c0 26 -17 47 -53 47h-22v90z" />
    <glyph glyph-name="eacute" unicode="&#xe9;" horiz-adv-x="516" 
d="M232 498l68 193h80l-93 -193h-55zM118 184c9 -79 63 -133 154 -133c62 0 104 25 131 55l43 -42c-38 -43 -93 -72 -174 -72c-136 0 -224 94 -224 215s93 216 214 216c133 0 213 -102 208 -239h-352zM119 237h281c-6 71 -51 127 -138 127c-79 0 -132 -51 -143 -127z" />
    <glyph glyph-name="ecircumflex" unicode="&#xea;" horiz-adv-x="516" 
d="M126 503l128 193h9l128 -193h-58l-74 101l-75 -101h-58zM118 184c9 -79 63 -133 154 -133c62 0 104 25 131 55l43 -42c-38 -43 -93 -72 -174 -72c-136 0 -224 94 -224 215s93 216 214 216c133 0 213 -102 208 -239h-352zM119 237h281c-6 71 -51 127 -138 127
c-79 0 -132 -51 -143 -127z" />
    <glyph glyph-name="edieresis" unicode="&#xeb;" horiz-adv-x="516" 
d="M344 537c-24 0 -46 20 -46 46c0 25 22 46 46 46s46 -21 46 -46c0 -26 -22 -46 -46 -46zM174 537c-24 0 -46 20 -46 46c0 25 22 46 46 46s46 -21 46 -46c0 -26 -22 -46 -46 -46zM118 184c9 -79 63 -133 154 -133c62 0 104 25 131 55l43 -42c-38 -43 -93 -72 -174 -72
c-136 0 -224 94 -224 215s93 216 214 216c133 0 213 -102 208 -239h-352zM119 237h281c-6 71 -51 127 -138 127c-79 0 -132 -51 -143 -127z" />
    <glyph glyph-name="egrave" unicode="&#xe8;" horiz-adv-x="516" 
d="M118 184c9 -79 63 -133 154 -133c62 0 104 25 131 55l43 -42c-38 -43 -93 -72 -174 -72c-136 0 -224 94 -224 215s93 216 214 216c133 0 213 -102 208 -239h-352zM119 237h281c-6 71 -51 127 -138 127c-79 0 -132 -51 -143 -127zM231 498l-93 193h80l68 -193h-55z" />
    <glyph glyph-name="iacute" unicode="&#xed;" horiz-adv-x="222" 
d="M84 498l68 193h80l-93 -193h-55zM76 0v414h70v-414h-70z" />
    <glyph glyph-name="icircumflex" unicode="&#xee;" horiz-adv-x="222" 
d="M-21 503l128 193h9l128 -193h-58l-74 101l-75 -101h-58zM76 0v414h70v-414h-70z" />
    <glyph glyph-name="idieresis" unicode="&#xef;" horiz-adv-x="222" 
d="M76 0v414h70v-414h-70zM187 537c-24 0 -46 20 -46 46c0 25 22 46 46 46s46 -21 46 -46c0 -26 -22 -46 -46 -46zM35 537c-24 0 -46 20 -46 46c0 25 22 46 46 46s46 -21 46 -46c0 -26 -22 -46 -46 -46z" />
    <glyph glyph-name="igrave" unicode="&#xec;" horiz-adv-x="222" 
d="M76 0v414h70v-414h-70zM83 498l-93 193h80l68 -193h-55z" />
    <glyph glyph-name="ntilde" unicode="&#xf1;" horiz-adv-x="516" 
d="M74 0v414h70l-2 -85c27 59 82 94 149 94c92 0 155 -63 155 -171v-252h-70v244c0 73 -34 115 -103 115c-77 0 -129 -49 -129 -131v-228h-70zM162 509l-52 4c4 72 38 111 87 111c28 0 47 -13 69 -32c25 -22 32 -28 48 -28c21 0 32 18 36 58l52 -5c-4 -71 -36 -110 -86 -110
c-28 0 -47 14 -69 33c-25 22 -32 28 -48 28c-20 0 -33 -19 -37 -59z" />
    <glyph glyph-name="oacute" unicode="&#xf3;" horiz-adv-x="534" 
d="M239 498l68 193h80l-93 -193h-55zM268 -8c-124 0 -220 94 -220 215s96 216 220 216c123 0 218 -95 218 -216s-95 -215 -218 -215zM268 52c88 0 147 66 147 155s-59 155 -147 155c-89 0 -149 -66 -149 -155s60 -155 149 -155z" />
    <glyph glyph-name="ocircumflex" unicode="&#xf4;" horiz-adv-x="534" 
d="M133 503l128 193h9l128 -193h-58l-74 101l-75 -101h-58zM268 -8c-124 0 -220 94 -220 215s96 216 220 216c123 0 218 -95 218 -216s-95 -215 -218 -215zM268 52c88 0 147 66 147 155s-59 155 -147 155c-89 0 -149 -66 -149 -155s60 -155 149 -155z" />
    <glyph glyph-name="odieresis" unicode="&#xf6;" horiz-adv-x="534" 
d="M351 537c-24 0 -46 20 -46 46c0 25 22 46 46 46s46 -21 46 -46c0 -26 -22 -46 -46 -46zM181 537c-24 0 -46 20 -46 46c0 25 22 46 46 46s46 -21 46 -46c0 -26 -22 -46 -46 -46zM268 -8c-124 0 -220 94 -220 215s96 216 220 216c123 0 218 -95 218 -216
s-95 -215 -218 -215zM268 52c88 0 147 66 147 155s-59 155 -147 155c-89 0 -149 -66 -149 -155s60 -155 149 -155z" />
    <glyph glyph-name="ograve" unicode="&#xf2;" horiz-adv-x="534" 
d="M268 -8c-124 0 -220 94 -220 215s96 216 220 216c123 0 218 -95 218 -216s-95 -215 -218 -215zM268 52c88 0 147 66 147 155s-59 155 -147 155c-89 0 -149 -66 -149 -155s60 -155 149 -155zM238 498l-93 193h80l68 -193h-55z" />
    <glyph glyph-name="otilde" unicode="&#xf5;" horiz-adv-x="534" 
d="M268 -8c-124 0 -220 94 -220 215s96 216 220 216c123 0 218 -95 218 -216s-95 -215 -218 -215zM268 52c88 0 147 66 147 155s-59 155 -147 155c-89 0 -149 -66 -149 -155s60 -155 149 -155zM172 509l-52 4c4 72 38 111 87 111c28 0 47 -13 69 -32c25 -22 32 -28 48 -28
c21 0 32 18 36 58l52 -5c-4 -71 -36 -110 -86 -110c-28 0 -47 14 -69 33c-25 22 -32 28 -48 28c-20 0 -33 -19 -37 -59z" />
    <glyph glyph-name="scaron" unicode="&#x161;" horiz-adv-x="410" 
d="M202 495l-128 192h58l74 -101l75 101h58l-128 -192h-9zM213 -8c-91 0 -150 44 -177 96l54 31c24 -40 60 -70 120 -70c56 0 88 24 88 62c0 45 -36 55 -108 76c-65 19 -125 45 -125 123c0 72 60 113 136 113c63 0 109 -26 138 -67l-48 -37c-21 29 -50 47 -90 47
c-45 0 -72 -21 -72 -53c0 -39 25 -50 98 -71c70 -19 137 -47 137 -127c0 -70 -47 -123 -151 -123z" />
    <glyph glyph-name="uacute" unicode="&#xfa;" horiz-adv-x="515" 
d="M228 498l68 193h80l-93 -193h-55zM225 -9c-92 0 -155 63 -155 169v254h70v-247c0 -72 34 -112 102 -112c78 0 129 50 129 131v228h70v-414h-70l2 84c-27 -58 -81 -93 -148 -93z" />
    <glyph glyph-name="ucircumflex" unicode="&#xfb;" horiz-adv-x="515" 
d="M123 503l128 193h9l128 -193h-58l-74 101l-75 -101h-58zM225 -9c-92 0 -155 63 -155 169v254h70v-247c0 -72 34 -112 102 -112c78 0 129 50 129 131v228h70v-414h-70l2 84c-27 -58 -81 -93 -148 -93z" />
    <glyph glyph-name="udieresis" unicode="&#xfc;" horiz-adv-x="515" 
d="M341 537c-24 0 -46 20 -46 46c0 25 22 46 46 46s46 -21 46 -46c0 -26 -22 -46 -46 -46zM171 537c-24 0 -46 20 -46 46c0 25 22 46 46 46s46 -21 46 -46c0 -26 -22 -46 -46 -46zM225 -9c-92 0 -155 63 -155 169v254h70v-247c0 -72 34 -112 102 -112c78 0 129 50 129 131
v228h70v-414h-70l2 84c-27 -58 -81 -93 -148 -93z" />
    <glyph glyph-name="ugrave" unicode="&#xf9;" horiz-adv-x="515" 
d="M225 -9c-92 0 -155 63 -155 169v254h70v-247c0 -72 34 -112 102 -112c78 0 129 50 129 131v228h70v-414h-70l2 84c-27 -58 -81 -93 -148 -93zM228 498l-93 193h80l68 -193h-55z" />
    <glyph glyph-name="yacute" unicode="&#xfd;" horiz-adv-x="462" 
d="M95 -212l106 247l-176 379h77l117 -257c10 -24 17 -61 19 -69c1 6 8 45 19 69l108 257h72l-270 -626h-72zM211 498l68 193h80l-93 -193h-55z" />
    <glyph glyph-name="ydieresis" unicode="&#xff;" horiz-adv-x="462" 
d="M95 -212l106 247l-176 379h77l117 -257c10 -24 17 -61 19 -69c1 6 8 45 19 69l108 257h72l-270 -626h-72zM153 537c-24 0 -46 20 -46 46c0 25 22 46 46 46s46 -21 46 -46c0 -26 -22 -46 -46 -46zM323 537c-24 0 -46 20 -46 46c0 25 22 46 46 46s46 -21 46 -46
c0 -26 -22 -46 -46 -46z" />
    <glyph glyph-name="zcaron" unicode="&#x17e;" horiz-adv-x="418" 
d="M215 495l-128 192h58l74 -101l75 101h58l-128 -192h-9zM32 0v10l239 346h-213v58h326v-11l-241 -345h236v-58h-347z" />
    <glyph glyph-name="summation" unicode="&#x2211;" horiz-adv-x="589" 
d="M51 0v11l260 336l-265 322v11h474v-64h-291c-25 0 -57 2 -57 2s22 -22 40 -44l181 -222v-9l-184 -236c-17 -20 -42 -46 -42 -46s31 3 62 3h305v-64h-483z" />
    <glyph glyph-name="uni00A0" unicode="&#xa0;" horiz-adv-x="182" 
 />
    <glyph glyph-name="Euro" unicode="&#x20ac;" horiz-adv-x="621" 
d="M113 283h-73v56h85c34 104 130 173 244 173c89 0 153 -33 199 -94l-52 -40c-35 47 -77 73 -147 73c-80 0 -143 -43 -171 -112h217v-56h-231c-1 -10 -2 -20 -2 -31s1 -22 2 -32h231v-56h-216c28 -69 92 -111 170 -111c76 0 119 29 154 76l51 -36
c-41 -63 -110 -101 -205 -101c-113 0 -209 69 -244 172h-85v56h73c-1 10 -2 21 -2 32s1 21 2 31z" />
    <glyph glyph-name="space_uni0326" 
d="M200 -256l32 99c-17 6 -32 24 -32 47c0 29 25 51 51 51c27 0 52 -22 52 -51c0 -13 -5 -26 -12 -39l-53 -107h-38z" />
    <glyph glyph-name="uni0237" unicode="&#x237;" horiz-adv-x="221" 
d="M35 -222c-44 0 -75 20 -92 41l37 42c13 -12 27 -23 50 -23c28 0 46 17 46 63v513h70v-512c0 -82 -45 -124 -111 -124z" />
    <glyph glyph-name="Dcroat" unicode="&#x110;" horiz-adv-x="680" 
d="M93 0v309h-79v63h79v308h173c221 0 360 -139 360 -340s-138 -340 -360 -340h-173zM165 65h96c194 0 289 113 289 275s-95 275 -289 275h-96v-243h183v-63h-183v-244z" />
    <glyph glyph-name="dcroat" unicode="&#x111;" horiz-adv-x="551" 
d="M407 527h-144v59h144v136h69v-136h77v-59h-77v-527h-69l2 89c-28 -57 -88 -97 -162 -97c-113 0 -199 92 -199 216c0 123 86 215 198 215c79 0 131 -39 161 -94v198zM263 53c88 0 147 65 147 155c0 89 -59 153 -147 153c-87 0 -143 -64 -143 -153c0 -90 56 -155 143 -155z
" />
    <glyph glyph-name="Abreve" unicode="&#x102;" horiz-adv-x="655" 
d="M194 215h262l-105 260c-13 32 -26 79 -26 81c-1 -2 -14 -49 -27 -80zM37 0l282 687h12l288 -687h-76l-62 153h-312l-61 -153h-71zM325 750c-77 0 -121 50 -131 117l56 9c9 -39 28 -71 75 -71s66 32 75 71l56 -9c-10 -67 -54 -117 -131 -117z" />
    <glyph glyph-name="Amacron" unicode="&#x100;" horiz-adv-x="655" 
d="M194 215h262l-105 260c-13 32 -26 79 -26 81c-1 -2 -14 -49 -27 -80zM37 0l282 687h12l288 -687h-76l-62 153h-312l-61 -153h-71zM210 768v55h230v-55h-230z" />
    <glyph glyph-name="Aogonek" unicode="&#x104;" horiz-adv-x="655" 
d="M582 -232c-48 0 -93 29 -93 88c0 41 22 72 42 101l18 26l-68 170h-312l-61 -153h-71l282 687h12l285 -682l-38 -62c-22 -36 -34 -54 -34 -85c0 -29 20 -43 42 -43c26 0 41 17 53 36l41 -24c-17 -33 -46 -59 -98 -59zM193 215h263l-105 260c-13 32 -26 79 -26 81
c-1 -2 -14 -49 -27 -80z" />
    <glyph glyph-name="Cacute" unicode="&#x106;" horiz-adv-x="726" 
d="M363 749l68 193h80l-93 -193h-55zM403 -8c-193 0 -349 143 -349 348s156 348 349 348c120 0 212 -45 270 -132l-55 -40c-44 65 -117 107 -215 107c-159 0 -274 -121 -274 -283s115 -283 274 -283c99 0 175 43 224 114l56 -39c-60 -88 -158 -140 -280 -140z" />
    <glyph glyph-name="Ccaron" unicode="&#x10c;" horiz-adv-x="726" 
d="M385 740l-128 192h58l74 -101l75 101h58l-128 -192h-9zM403 -8c-193 0 -349 143 -349 348s156 348 349 348c120 0 212 -45 270 -132l-55 -40c-44 65 -117 107 -215 107c-159 0 -274 -121 -274 -283s115 -283 274 -283c99 0 175 43 224 114l56 -39
c-60 -88 -158 -140 -280 -140z" />
    <glyph glyph-name="Ccircumflex" unicode="&#x108;" horiz-adv-x="726" 
d="M257 754l128 193h9l128 -193h-58l-74 101l-75 -101h-58zM403 -8c-193 0 -349 143 -349 348s156 348 349 348c120 0 212 -45 270 -132l-55 -40c-44 65 -117 107 -215 107c-159 0 -274 -121 -274 -283s115 -283 274 -283c99 0 175 43 224 114l56 -39
c-60 -88 -158 -140 -280 -140z" />
    <glyph glyph-name="Cdotaccent" unicode="&#x10a;" horiz-adv-x="726" 
d="M403 -8c-193 0 -349 143 -349 348s156 348 349 348c120 0 212 -45 270 -132l-55 -40c-44 65 -117 107 -215 107c-159 0 -274 -121 -274 -283s115 -283 274 -283c99 0 175 43 224 114l56 -39c-60 -88 -158 -140 -280 -140zM390 756c-26 0 -50 20 -50 49s24 50 50 50
s50 -21 50 -50s-24 -49 -50 -49z" />
    <glyph glyph-name="Dcaron" unicode="&#x10e;" horiz-adv-x="680" 
d="M302 740l-128 192h58l74 -101l75 101h58l-128 -192h-9zM93 0v680h165c227 0 368 -134 368 -340s-140 -340 -368 -340h-165zM165 65h88c201 0 297 113 297 275s-96 275 -297 275h-88v-550z" />
    <glyph glyph-name="Ecaron" unicode="&#x11a;" horiz-adv-x="580" 
d="M303 740l-128 192h58l74 -101l75 101h58l-128 -192h-9zM93 0v680h414v-64h-342v-243h305v-63h-305v-246h356v-64h-428z" />
    <glyph glyph-name="Edotaccent" unicode="&#x116;" horiz-adv-x="580" 
d="M93 0v680h414v-64h-342v-243h305v-63h-305v-246h356v-64h-428zM308 756c-26 0 -50 20 -50 49s24 50 50 50s50 -21 50 -50s-24 -49 -50 -49z" />
    <glyph glyph-name="Emacron" unicode="&#x112;" horiz-adv-x="580" 
d="M93 0v680h414v-64h-342v-243h305v-63h-305v-246h356v-64h-428zM193 768v55h230v-55h-230z" />
    <glyph glyph-name="Eogonek" unicode="&#x118;" horiz-adv-x="580" 
d="M431 -232c-48 0 -92 29 -92 88c0 41 20 73 41 101l32 43h-319v680h414v-64h-342v-243h305v-63h-305v-246h356v-64h-58l-36 -57c-23 -36 -34 -54 -34 -85c0 -29 20 -43 42 -43c27 0 41 17 53 36l41 -24c-17 -33 -46 -59 -98 -59z" />
    <glyph glyph-name="Gbreve" unicode="&#x11e;" horiz-adv-x="743" 
d="M410 -8c-203 0 -356 143 -356 348s152 348 350 348c98 0 181 -28 237 -88l-49 -49c-44 46 -104 72 -188 72c-160 0 -275 -121 -275 -283s116 -283 281 -283c93 0 159 28 201 62v143h-202v64h270v-240c-50 -49 -141 -94 -269 -94zM381 750c-77 0 -121 50 -131 117l56 9
c9 -39 28 -71 75 -71s66 32 75 71l56 -9c-10 -67 -54 -117 -131 -117z" />
    <glyph glyph-name="Gcircumflex" unicode="&#x11c;" horiz-adv-x="743" 
d="M249 754l128 193h9l128 -193h-58l-74 101l-75 -101h-58zM410 -8c-203 0 -356 143 -356 348s152 348 350 348c98 0 181 -28 237 -88l-49 -49c-44 46 -104 72 -188 72c-160 0 -275 -121 -275 -283s116 -283 281 -283c93 0 159 28 201 62v143h-202v64h270v-240
c-50 -49 -141 -94 -269 -94z" />
    <glyph glyph-name="Gcommaaccent" unicode="&#x122;" horiz-adv-x="743" 
d="M332 -256l32 99c-17 6 -32 24 -32 47c0 29 25 51 51 51c27 0 52 -22 52 -51c0 -13 -5 -26 -12 -39l-53 -107h-38zM410 -8c-203 0 -356 143 -356 348s152 348 350 348c98 0 181 -28 237 -88l-49 -49c-44 46 -104 72 -188 72c-160 0 -275 -121 -275 -283s116 -283 281 -283
c93 0 159 28 201 62v143h-202v64h270v-240c-50 -49 -141 -94 -269 -94z" />
    <glyph glyph-name="Gdotaccent" unicode="&#x120;" horiz-adv-x="743" 
d="M410 -8c-203 0 -356 143 -356 348s152 348 350 348c98 0 181 -28 237 -88l-49 -49c-44 46 -104 72 -188 72c-160 0 -275 -121 -275 -283s116 -283 281 -283c93 0 159 28 201 62v143h-202v64h270v-240c-50 -49 -141 -94 -269 -94zM382 756c-26 0 -50 20 -50 49
s24 50 50 50s50 -21 50 -50s-24 -49 -50 -49z" />
    <glyph glyph-name="Hbar" unicode="&#x126;" horiz-adv-x="693" 
d="M13 466v54h80v160h72v-160h363v160h73v-160h79v-54h-79v-466h-73v298h-363v-298h-72v466h-80zM165 363h363v103h-363v-103z" />
    <glyph glyph-name="Hcircumflex" unicode="&#x124;" horiz-adv-x="693" 
d="M213 754l128 193h9l128 -193h-58l-74 101l-75 -101h-58zM93 0v680h72v-317h364v317h72v-680h-72v298h-364v-298h-72z" />
    <glyph glyph-name="Idotaccent" unicode="&#x130;" horiz-adv-x="265" 
d="M96 0v680h73v-680h-73zM133 756c-26 0 -50 20 -50 49s24 50 50 50s50 -21 50 -50s-24 -49 -50 -49z" />
    <glyph glyph-name="Imacron" unicode="&#x12a;" horiz-adv-x="265" 
d="M96 0v680h73v-680h-73zM24 769v55h217v-55h-217z" />
    <glyph glyph-name="Iogonek" unicode="&#x12e;" horiz-adv-x="265" 
d="M96 -22v702h73v-670l-42 -69c-21 -34 -31 -53 -31 -83c0 -28 18 -41 39 -41c26 0 40 17 51 35l44 -25c-17 -33 -47 -59 -98 -59c-49 0 -93 29 -93 88c0 41 20 73 41 101z" />
    <glyph glyph-name="Jcircumflex" unicode="&#x134;" horiz-adv-x="483" 
d="M220 754l128 193h9l128 -193h-58l-74 101l-75 -101h-58zM209 -8c-91 0 -145 45 -176 102l59 37c26 -45 61 -74 114 -74c67 0 112 37 112 124v499h73v-501c0 -125 -77 -187 -182 -187z" />
    <glyph glyph-name="Kcommaaccent" unicode="&#x136;" horiz-adv-x="606" 
d="M261 -256l32 99c-17 6 -32 24 -32 47c0 29 25 51 51 51c27 0 52 -22 52 -51c0 -13 -5 -26 -12 -39l-53 -107h-38zM93 0v680h72v-305c0 -31 -3 -68 -5 -89c14 28 34 60 47 77l260 317h82l-247 -304l275 -376h-88l-234 323l-90 -107v-216h-72z" />
    <glyph glyph-name="Lacute" unicode="&#x139;" horiz-adv-x="527" 
d="M102 749l68 193h80l-93 -193h-55zM93 0v680h72v-616h321v-64h-393z" />
    <glyph glyph-name="Lcaron" unicode="&#x13d;" horiz-adv-x="528" 
d="M309 482l34 104c-18 6 -33 25 -33 48c0 30 25 53 52 53c28 0 53 -23 53 -52c0 -14 -6 -26 -13 -41l-56 -112h-37zM93 0v680h72v-616h321v-64h-393z" />
    <glyph glyph-name="Lcommaaccent" unicode="&#x13b;" horiz-adv-x="528" 
d="M235 -256l32 99c-17 6 -32 24 -32 47c0 29 25 51 51 51c27 0 52 -22 52 -51c0 -13 -5 -26 -12 -39l-53 -107h-38zM93 0v680h72v-616h321v-64h-393z" />
    <glyph glyph-name="Nacute" unicode="&#x143;" horiz-adv-x="713" 
d="M608 -7l-406 480c-18 21 -44 57 -47 62c0 -5 6 -49 6 -76v-459h-68v687h12l406 -480c18 -22 44 -59 47 -63c0 2 -5 48 -5 77v459h67v-687h-12zM331 749l68 193h80l-93 -193h-55z" />
    <glyph glyph-name="Ncaron" unicode="&#x147;" horiz-adv-x="713" 
d="M608 -7l-406 480c-18 21 -44 57 -47 62c0 -5 6 -49 6 -76v-459h-68v687h12l406 -480c18 -22 44 -59 47 -63c0 2 -5 48 -5 77v459h67v-687h-12zM354 740l-128 192h58l74 -101l75 101h58l-128 -192h-9z" />
    <glyph glyph-name="Ncommaaccent" unicode="&#x145;" horiz-adv-x="713" 
d="M608 -7l-406 480c-18 21 -44 57 -47 62c0 -5 6 -49 6 -76v-459h-68v687h12l406 -480c18 -22 44 -59 47 -63c0 2 -5 48 -5 77v459h67v-687h-12zM309 -256l32 99c-17 6 -32 24 -32 47c0 29 25 51 51 51c27 0 52 -22 52 -51c0 -13 -5 -26 -12 -39l-53 -107h-38z" />
    <glyph glyph-name="Ohungarumlaut" unicode="&#x150;" horiz-adv-x="807" 
d="M445 763l68 193h76l-89 -193h-55zM307 763l67 193h76l-88 -193h-55zM403 -8c-193 0 -349 143 -349 348s156 348 349 348c194 0 350 -143 350 -348s-156 -348 -350 -348zM403 57c159 0 275 121 275 283s-116 283 -275 283c-158 0 -274 -121 -274 -283s116 -283 274 -283z
" />
    <glyph glyph-name="Omacron" unicode="&#x14c;" horiz-adv-x="807" 
d="M288 768v55h230v-55h-230zM403 -8c-193 0 -349 143 -349 348s156 348 349 348c194 0 350 -143 350 -348s-156 -348 -350 -348zM403 57c159 0 275 121 275 283s-116 283 -275 283c-158 0 -274 -121 -274 -283s116 -283 274 -283z" />
    <glyph glyph-name="Racute" unicode="&#x154;" horiz-adv-x="607" 
d="M269 749l68 193h80l-93 -193h-55zM93 0v680h204c142 0 242 -67 242 -208c0 -100 -55 -165 -143 -192l166 -280h-85l-156 268c-10 -1 -21 -1 -32 -1h-124v-267h-72zM165 329h128c111 0 171 47 171 143c0 98 -61 144 -171 144h-128v-287z" />
    <glyph glyph-name="Rcaron" unicode="&#x158;" horiz-adv-x="608" 
d="M291 740l-128 192h58l74 -101l75 101h58l-128 -192h-9zM93 0v680h204c142 0 242 -67 242 -208c0 -100 -55 -165 -143 -192l166 -280h-85l-156 268c-10 -1 -21 -1 -32 -1h-124v-267h-72zM165 329h128c111 0 171 47 171 143c0 98 -61 144 -171 144h-128v-287z" />
    <glyph glyph-name="Rcommaaccent" unicode="&#x156;" horiz-adv-x="608" 
d="M258 -256l32 99c-17 6 -32 24 -32 47c0 29 25 51 51 51c27 0 52 -22 52 -51c0 -13 -5 -26 -12 -39l-53 -107h-38zM93 0v680h204c142 0 242 -67 242 -208c0 -100 -55 -165 -143 -192l166 -280h-85l-156 268c-10 -1 -21 -1 -32 -1h-124v-267h-72zM165 329h128
c111 0 171 47 171 143c0 98 -61 144 -171 144h-128v-287z" />
    <glyph glyph-name="Sacute" unicode="&#x15a;" horiz-adv-x="531" 
d="M229 749l68 193h80l-93 -193h-55zM266 -8c-130 0 -201 66 -237 138l60 32c32 -57 79 -106 175 -106c79 0 141 44 141 116c0 69 -43 104 -128 142l-54 25c-97 44 -150 91 -150 186c0 98 77 163 179 163c91 0 148 -42 184 -102l-58 -36c-26 42 -62 74 -126 74
c-67 0 -108 -39 -108 -97c0 -60 32 -87 108 -122l54 -25c113 -50 171 -106 171 -208c0 -112 -89 -180 -211 -180z" />
    <glyph glyph-name="Scedilla" unicode="&#x15e;" horiz-adv-x="530" 
d="M266 -232c-52 0 -85 27 -101 59l40 25c11 -21 25 -39 57 -39c25 0 47 16 47 47c0 27 -18 48 -55 48h-21v86c-110 9 -171 70 -204 136l60 32c32 -57 79 -106 175 -106c79 0 141 44 141 116c0 69 -43 104 -128 142l-54 25c-97 44 -150 91 -150 186c0 98 77 163 179 163
c91 0 148 -42 184 -102l-58 -36c-26 42 -62 74 -126 74c-67 0 -108 -39 -108 -97c0 -60 32 -87 108 -122l54 -25c113 -50 171 -106 171 -208c0 -108 -83 -175 -198 -180v-45c43 -6 83 -38 83 -91c0 -56 -47 -88 -96 -88z" />
    <glyph glyph-name="Scircumflex" unicode="&#x15c;" horiz-adv-x="531" 
d="M125 754l128 193h9l128 -193h-58l-74 101l-75 -101h-58zM266 -8c-130 0 -201 66 -237 138l60 32c32 -57 79 -106 175 -106c79 0 141 44 141 116c0 69 -43 104 -128 142l-54 25c-97 44 -150 91 -150 186c0 98 77 163 179 163c91 0 148 -42 184 -102l-58 -36
c-26 42 -62 74 -126 74c-67 0 -108 -39 -108 -97c0 -60 32 -87 108 -122l54 -25c113 -50 171 -106 171 -208c0 -112 -89 -180 -211 -180z" />
    <glyph glyph-name="Scommaaccent" unicode="&#x218;" horiz-adv-x="530" 
d="M208 -256l32 99c-17 6 -32 24 -32 47c0 29 25 51 51 51c27 0 52 -22 52 -51c0 -13 -5 -26 -12 -39l-53 -107h-38zM266 -8c-130 0 -201 66 -237 138l60 32c32 -57 79 -106 175 -106c79 0 141 44 141 116c0 69 -43 104 -128 142l-54 25c-97 44 -150 91 -150 186
c0 98 77 163 179 163c91 0 148 -42 184 -102l-58 -36c-26 42 -62 74 -126 74c-67 0 -108 -39 -108 -97c0 -60 32 -87 108 -122l54 -25c113 -50 171 -106 171 -208c0 -112 -89 -180 -211 -180z" />
    <glyph glyph-name="Tcaron" unicode="&#x164;" horiz-adv-x="556" 
d="M273 740l-128 192h58l74 -101l75 101h58l-128 -192h-9zM242 0v616h-209v64h490v-64h-209v-616h-72z" />
    <glyph glyph-name="uni021A" unicode="&#x21a;" horiz-adv-x="556" 
d="M242 0v616h-209v64h490v-64h-209v-616h-15v-53c43 -6 83 -38 83 -91c0 -56 -47 -88 -96 -88c-52 0 -85 27 -101 59l40 25c11 -21 25 -39 57 -39c25 0 47 16 47 47c0 27 -18 48 -55 48h-21v92h-11z" />
    <glyph glyph-name="Tcommaaccent" unicode="&#x162;" horiz-adv-x="556" 
d="M228 -256l32 99c-17 6 -32 24 -32 47c0 29 25 51 51 51c27 0 52 -22 52 -51c0 -13 -5 -26 -12 -39l-53 -107h-38zM242 0v616h-209v64h490v-64h-209v-616h-72z" />
    <glyph glyph-name="Ubreve" unicode="&#x16c;" horiz-adv-x="662" 
d="M331 -8c-139 0 -244 81 -244 240v448h72v-443c0 -121 66 -181 172 -181c105 0 172 60 172 181v443h72v-448c0 -159 -106 -240 -244 -240zM330 750c-77 0 -121 50 -131 117l56 9c9 -39 28 -71 75 -71s66 32 75 71l56 -9c-10 -67 -54 -117 -131 -117z" />
    <glyph glyph-name="Uhungarumlaut" unicode="&#x170;" horiz-adv-x="662" 
d="M331 -8c-139 0 -244 81 -244 240v448h72v-443c0 -121 66 -181 172 -181c105 0 172 60 172 181v443h72v-448c0 -159 -106 -240 -244 -240zM372 763l68 193h76l-89 -193h-55zM234 763l67 193h76l-88 -193h-55z" />
    <glyph glyph-name="Umacron" unicode="&#x16a;" horiz-adv-x="662" 
d="M331 -8c-139 0 -244 81 -244 240v448h72v-443c0 -121 66 -181 172 -181c105 0 172 60 172 181v443h72v-448c0 -159 -106 -240 -244 -240zM215 768v55h230v-55h-230z" />
    <glyph glyph-name="Uogonek" unicode="&#x172;" horiz-adv-x="662" 
d="M308 -7c-128 9 -221 89 -221 239v448h72v-443c0 -121 66 -181 172 -181c105 0 172 60 172 181v443h72v-448c0 -148 -92 -228 -215 -239l-32 -52c-21 -34 -31 -53 -31 -83c0 -28 18 -41 39 -41c26 0 40 17 51 35l44 -25c-17 -33 -47 -59 -98 -59c-49 0 -93 29 -93 88
c0 41 20 73 41 101z" />
    <glyph glyph-name="Uring" unicode="&#x16e;" horiz-adv-x="662" 
d="M330 698c-59 0 -105 45 -105 100c0 56 46 101 105 101s105 -45 105 -101c0 -55 -46 -100 -105 -100zM330 742c31 0 53 22 53 56c0 35 -22 56 -53 56s-53 -21 -53 -56c0 -34 22 -56 53 -56zM331 -8c-139 0 -244 81 -244 240v448h72v-443c0 -121 66 -181 172 -181
c105 0 172 60 172 181v443h72v-448c0 -159 -106 -240 -244 -240z" />
    <glyph glyph-name="Zacute" unicode="&#x179;" horiz-adv-x="581" 
d="M279 749l68 193h80l-93 -193h-55zM39 0v11l380 605h-326v64h438v-11l-379 -605h381v-64h-494z" />
    <glyph glyph-name="Zdotaccent" unicode="&#x17b;" horiz-adv-x="583" 
d="M39 0v11l380 605h-326v64h438v-11l-379 -605h381v-64h-494zM306 756c-26 0 -50 20 -50 49s24 50 50 50s50 -21 50 -50s-24 -49 -50 -49z" />
    <glyph glyph-name="abreve" unicode="&#x103;" horiz-adv-x="471" 
d="M331 243v10c0 80 -36 111 -97 111c-58 0 -95 -25 -121 -60l-43 39c36 49 90 80 169 80c92 0 162 -54 162 -169v-254h-70l3 62c-28 -42 -71 -70 -137 -70c-88 0 -152 40 -152 126c0 85 70 125 157 125h129zM331 190h-124c-53 0 -94 -19 -94 -69c0 -47 35 -72 100 -72
c64 0 118 35 118 89v52zM233 499c-77 0 -121 50 -131 117l56 9c9 -39 28 -71 75 -71s66 32 75 71l56 -9c-10 -67 -54 -117 -131 -117z" />
    <glyph glyph-name="amacron" unicode="&#x101;" horiz-adv-x="471" 
d="M331 243v10c0 80 -36 111 -97 111c-58 0 -95 -25 -121 -60l-43 39c36 49 90 80 169 80c92 0 162 -54 162 -169v-254h-70l3 62c-28 -42 -71 -70 -137 -70c-88 0 -152 40 -152 126c0 85 70 125 157 125h129zM331 190h-124c-53 0 -94 -19 -94 -69c0 -47 35 -72 100 -72
c64 0 118 35 118 89v52zM118 539v55h230v-55h-230z" />
    <glyph glyph-name="aogonek" unicode="&#x105;" horiz-adv-x="471" 
d="M401 15l-45 -74c-21 -34 -31 -53 -31 -83c0 -28 18 -41 39 -41c26 0 40 17 51 35l44 -25c-17 -33 -47 -59 -98 -59c-49 0 -93 29 -93 88c0 41 20 73 41 101l21 28l4 77c-28 -42 -71 -70 -137 -70c-88 0 -152 40 -152 126c0 85 70 125 157 125h129v10
c0 80 -36 111 -97 111c-58 0 -95 -25 -121 -60l-43 39c36 49 90 80 169 80c92 0 162 -54 162 -169v-239zM331 190h-124c-53 0 -94 -19 -94 -69c0 -47 35 -72 100 -72c64 0 118 35 118 89v52z" />
    <glyph glyph-name="cacute" unicode="&#x107;" horiz-adv-x="467" 
d="M226 498l68 193h80l-93 -193h-55zM263 -8c-122 0 -215 94 -215 215s93 216 215 216c74 0 125 -28 163 -74l-50 -41c-25 33 -61 53 -113 53c-88 0 -143 -66 -143 -154s55 -154 143 -154c57 0 93 23 119 54l48 -41c-39 -47 -90 -74 -167 -74z" />
    <glyph glyph-name="ccaron" unicode="&#x10d;" horiz-adv-x="468" 
d="M249 495l-128 192h58l74 -101l75 101h58l-128 -192h-9zM263 -8c-122 0 -215 94 -215 215s93 216 215 216c74 0 125 -28 163 -74l-50 -41c-25 33 -61 53 -113 53c-88 0 -143 -66 -143 -154s55 -154 143 -154c57 0 93 23 119 54l48 -41c-39 -47 -90 -74 -167 -74z" />
    <glyph glyph-name="ccircumflex" unicode="&#x109;" horiz-adv-x="467" 
d="M121 503l128 193h9l128 -193h-58l-74 101l-75 -101h-58zM263 -8c-122 0 -215 94 -215 215s93 216 215 216c74 0 125 -28 163 -74l-50 -41c-25 33 -61 53 -113 53c-88 0 -143 -66 -143 -154s55 -154 143 -154c57 0 93 23 119 54l48 -41c-39 -47 -90 -74 -167 -74z" />
    <glyph glyph-name="cdotaccent" unicode="&#x10b;" horiz-adv-x="468" 
d="M263 -8c-122 0 -215 94 -215 215s93 216 215 216c74 0 125 -28 163 -74l-50 -41c-25 33 -61 53 -113 53c-88 0 -143 -66 -143 -154s55 -154 143 -154c57 0 93 23 119 54l48 -41c-39 -47 -90 -74 -167 -74zM254 534c-26 0 -50 20 -50 49s24 50 50 50s50 -21 50 -50
s-24 -49 -50 -49z" />
    <glyph glyph-name="dcaron" unicode="&#x10f;" horiz-adv-x="640" 
d="M549 482l34 104c-18 6 -33 25 -33 48c0 30 25 53 52 53c28 0 53 -23 53 -52c0 -14 -6 -26 -13 -41l-56 -112h-37zM249 -8c-113 0 -201 92 -201 216c0 123 88 215 200 215c79 0 129 -39 159 -94v393h69v-722h-69l2 89c-28 -57 -86 -97 -160 -97zM263 53
c88 0 147 65 147 155c0 89 -59 153 -147 153c-87 0 -143 -64 -143 -153c0 -90 56 -155 143 -155z" />
    <glyph glyph-name="ecaron" unicode="&#x11b;" horiz-adv-x="516" 
d="M254 495l-128 192h58l74 -101l75 101h58l-128 -192h-9zM118 184c9 -79 63 -133 154 -133c62 0 104 25 131 55l43 -42c-38 -43 -93 -72 -174 -72c-136 0 -224 94 -224 215s93 216 214 216c133 0 213 -102 208 -239h-352zM119 237h281c-6 71 -51 127 -138 127
c-79 0 -132 -51 -143 -127z" />
    <glyph glyph-name="edotaccent" unicode="&#x117;" horiz-adv-x="516" 
d="M118 184c9 -79 63 -133 154 -133c62 0 104 25 131 55l43 -42c-38 -43 -93 -72 -174 -72c-136 0 -224 94 -224 215s93 216 214 216c133 0 213 -102 208 -239h-352zM119 237h281c-6 71 -51 127 -138 127c-79 0 -132 -51 -143 -127zM259 534c-26 0 -50 20 -50 49
s24 50 50 50s50 -21 50 -50s-24 -49 -50 -49z" />
    <glyph glyph-name="emacron" unicode="&#x113;" horiz-adv-x="516" 
d="M118 184c9 -79 63 -133 154 -133c62 0 104 25 131 55l43 -42c-38 -43 -93 -72 -174 -72c-136 0 -224 94 -224 215s93 216 214 216c133 0 213 -102 208 -239h-352zM119 237h281c-6 71 -51 127 -138 127c-79 0 -132 -51 -143 -127zM144 539v55h230v-55h-230z" />
    <glyph glyph-name="eogonek" unicode="&#x119;" horiz-adv-x="516" 
d="M337 -232c-49 0 -95 29 -95 88c0 41 22 75 49 109l24 31c-14 -3 -29 -4 -43 -4c-135 0 -224 94 -224 215s93 216 214 216c133 0 213 -102 208 -239h-351c6 -77 62 -133 153 -133c62 0 104 25 131 55l43 -42c-35 -39 -74 -58 -114 -121c-23 -36 -34 -54 -34 -85
c0 -29 20 -43 43 -43c26 0 40 17 52 36l42 -24c-17 -33 -47 -59 -98 -59zM119 237h281c-6 71 -51 127 -138 127c-80 0 -133 -53 -143 -127z" />
    <glyph glyph-name="gbreve" unicode="&#x11f;" horiz-adv-x="552" 
d="M268 -223c-102 0 -171 48 -210 115l52 36c35 -58 83 -91 156 -91c89 0 141 46 141 155v94c-27 -54 -84 -94 -158 -94c-113 0 -201 92 -201 216c0 123 88 215 200 215c79 0 132 -41 161 -98l-2 89h70v-427c0 -146 -86 -210 -209 -210zM263 53c88 0 147 65 147 155
c0 89 -59 153 -147 153c-87 0 -143 -64 -143 -153c0 -90 56 -155 143 -155zM270 499c-77 0 -121 50 -131 117l56 9c9 -39 28 -71 75 -71s66 32 75 71l56 -9c-10 -67 -54 -117 -131 -117z" />
    <glyph glyph-name="gcircumflex" unicode="&#x11d;" horiz-adv-x="552" 
d="M138 503l128 193h9l128 -193h-58l-74 101l-75 -101h-58zM268 -223c-102 0 -171 48 -210 115l52 36c35 -58 83 -91 156 -91c89 0 141 46 141 155v94c-27 -54 -84 -94 -158 -94c-113 0 -201 92 -201 216c0 123 88 215 200 215c79 0 132 -41 161 -98l-2 89h70v-427
c0 -146 -86 -210 -209 -210zM263 53c88 0 147 65 147 155c0 89 -59 153 -147 153c-87 0 -143 -64 -143 -153c0 -90 56 -155 143 -155z" />
    <glyph glyph-name="gcommaaccent" unicode="&#x123;" horiz-adv-x="551" 
d="M321 723l-32 -99c17 -6 32 -24 32 -47c0 -29 -25 -51 -51 -51c-27 0 -52 22 -52 51c0 13 5 26 12 39l53 107h38zM268 -223c-102 0 -171 48 -210 115l52 36c35 -58 83 -91 156 -91c89 0 141 46 141 155v94c-27 -54 -84 -94 -158 -94c-113 0 -201 92 -201 216
c0 123 88 215 200 215c79 0 132 -41 161 -98l-2 89h70v-427c0 -146 -86 -210 -209 -210zM263 53c88 0 147 65 147 155c0 89 -59 153 -147 153c-87 0 -143 -64 -143 -153c0 -90 56 -155 143 -155z" />
    <glyph glyph-name="gdotaccent" unicode="&#x121;" horiz-adv-x="551" 
d="M268 -223c-102 0 -171 48 -210 115l52 36c35 -58 83 -91 156 -91c89 0 141 46 141 155v94c-27 -54 -84 -94 -158 -94c-113 0 -201 92 -201 216c0 123 88 215 200 215c79 0 132 -41 161 -98l-2 89h70v-427c0 -146 -86 -210 -209 -210zM263 53c88 0 147 65 147 155
c0 89 -59 153 -147 153c-87 0 -143 -64 -143 -153c0 -90 56 -155 143 -155zM271 534c-26 0 -50 20 -50 49s24 50 50 50s50 -21 50 -50s-24 -49 -50 -49z" />
    <glyph glyph-name="hbar" unicode="&#x127;" horiz-adv-x="516" 
d="M-3 528v58h77v136h70v-136h143v-58h-143v-195c26 55 80 90 147 90c92 0 155 -63 155 -171v-252h-70v244c0 73 -34 115 -103 115c-77 0 -129 -49 -129 -131v-228h-70v528h-77z" />
    <glyph glyph-name="hcircumflex" unicode="&#x125;" horiz-adv-x="516" 
d="M123 770l128 193h9l128 -193h-58l-74 101l-75 -101h-58zM74 0v722h70v-389c26 55 80 90 147 90c92 0 155 -63 155 -171v-252h-70v244c0 73 -34 115 -103 115c-77 0 -129 -49 -129 -131v-228h-70z" />
    <glyph glyph-name="idotaccent" horiz-adv-x="222" 
d="M111 534c-26 0 -50 20 -50 49s24 50 50 50s50 -21 50 -50s-24 -49 -50 -49zM76 0v414h70v-414h-70z" />
    <glyph glyph-name="imacron" unicode="&#x12b;" horiz-adv-x="222" 
d="M76 0v414h70v-414h-70zM23 539v55h176v-55h-176z" />
    <glyph glyph-name="iogonek" unicode="&#x12f;" horiz-adv-x="222" 
d="M111 534c-26 0 -50 20 -50 49s24 50 50 50s50 -21 50 -50s-24 -49 -50 -49zM76 -16v430h70v-402l-43 -71c-21 -34 -31 -53 -31 -83c0 -28 18 -41 39 -41c26 0 40 17 51 35l44 -25c-17 -33 -47 -59 -98 -59c-49 0 -93 29 -93 88c0 41 20 73 41 101z" />
    <glyph glyph-name="jcircumflex" unicode="&#x135;" horiz-adv-x="222" 
d="M35 -222c-44 0 -75 20 -92 41l37 42c13 -12 27 -23 50 -23c28 0 46 17 46 63v513h70v-512c0 -82 -45 -124 -111 -124zM-22 503l128 193h9l128 -193h-58l-74 101l-75 -101h-58z" />
    <glyph glyph-name="kcommaaccent" unicode="&#x137;" horiz-adv-x="463" 
d="M188 -256l32 99c-17 6 -32 24 -32 47c0 29 25 51 51 51c27 0 52 -22 52 -51c0 -13 -5 -26 -12 -39l-53 -107h-38zM144 126v-126h-70v722h70v-463c0 -21 -2 -42 -5 -59l197 214h81l-159 -174l184 -240h-83l-150 194z" />
    <glyph glyph-name="lacute" unicode="&#x13a;" horiz-adv-x="228" 
d="M87 765l68 193h80l-93 -193h-55zM79 0v722h70v-722h-70z" />
    <glyph glyph-name="lcaron" unicode="&#x13e;" horiz-adv-x="316" 
d="M224 482l34 104c-18 6 -33 25 -33 48c0 30 25 53 52 53c28 0 53 -23 53 -52c0 -14 -6 -26 -13 -41l-56 -112h-37zM79 0v722h70v-722h-70z" />
    <glyph glyph-name="lcommaaccent" unicode="&#x13c;" horiz-adv-x="228" 
d="M65 -256l32 99c-17 6 -32 24 -32 47c0 29 25 51 51 51c27 0 52 -22 52 -51c0 -13 -5 -26 -12 -39l-53 -107h-38zM79 0v722h70v-722h-70z" />
    <glyph glyph-name="nacute" unicode="&#x144;" horiz-adv-x="516" 
d="M229 498l68 193h80l-93 -193h-55zM74 0v414h70l-2 -85c27 59 82 94 149 94c92 0 155 -63 155 -171v-252h-70v244c0 73 -34 115 -103 115c-77 0 -129 -49 -129 -131v-228h-70z" />
    <glyph glyph-name="ncaron" unicode="&#x148;" horiz-adv-x="516" 
d="M252 495l-128 192h58l74 -101l75 101h58l-128 -192h-9zM74 0v414h70l-2 -85c27 59 82 94 149 94c92 0 155 -63 155 -171v-252h-70v244c0 73 -34 115 -103 115c-77 0 -129 -49 -129 -131v-228h-70z" />
    <glyph glyph-name="ncommaaccent" unicode="&#x146;" horiz-adv-x="516" 
d="M207 -256l32 99c-17 6 -32 24 -32 47c0 29 25 51 51 51c27 0 52 -22 52 -51c0 -13 -5 -26 -12 -39l-53 -107h-38zM74 0v414h70l-2 -85c27 59 82 94 149 94c92 0 155 -63 155 -171v-252h-70v244c0 73 -34 115 -103 115c-77 0 -129 -49 -129 -131v-228h-70z" />
    <glyph glyph-name="ohungarumlaut" unicode="&#x151;" horiz-adv-x="533" 
d="M308 505l68 193h76l-89 -193h-55zM170 505l67 193h76l-88 -193h-55zM268 -8c-124 0 -220 94 -220 215s96 216 220 216c123 0 218 -95 218 -216s-95 -215 -218 -215zM268 52c88 0 147 66 147 155s-59 155 -147 155c-89 0 -149 -66 -149 -155s60 -155 149 -155z" />
    <glyph glyph-name="omacron" unicode="&#x14d;" horiz-adv-x="534" 
d="M151 539v55h230v-55h-230zM268 -8c-124 0 -220 94 -220 215s96 216 220 216c123 0 218 -95 218 -216s-95 -215 -218 -215zM268 52c88 0 147 66 147 155s-59 155 -147 155c-89 0 -149 -66 -149 -155s60 -155 149 -155z" />
    <glyph glyph-name="racute" unicode="&#x155;" horiz-adv-x="357" 
d="M167 498l68 193h80l-93 -193h-55zM74 0v414h70l-2 -81c26 63 72 89 121 89c31 0 53 -7 72 -20l-27 -61c-13 9 -31 16 -57 16c-59 0 -107 -42 -107 -139v-218h-70z" />
    <glyph glyph-name="rcaron" unicode="&#x159;" horiz-adv-x="357" 
d="M190 495l-128 192h58l74 -101l75 101h58l-128 -192h-9zM74 0v414h70l-2 -81c26 63 72 89 121 89c31 0 53 -7 72 -20l-27 -61c-13 9 -31 16 -57 16c-59 0 -107 -42 -107 -139v-218h-70z" />
    <glyph glyph-name="rcommaaccent" unicode="&#x157;" horiz-adv-x="357" 
d="M61 -256l32 99c-17 6 -32 24 -32 47c0 29 25 51 51 51c27 0 52 -22 52 -51c0 -13 -5 -26 -12 -39l-53 -107h-38zM74 0v414h70l-2 -81c26 63 72 89 121 89c31 0 53 -7 72 -20l-27 -61c-13 9 -31 16 -57 16c-59 0 -107 -42 -107 -139v-218h-70z" />
    <glyph glyph-name="sacute" unicode="&#x15b;" horiz-adv-x="410" 
d="M179 498l68 193h80l-93 -193h-55zM213 -8c-91 0 -150 44 -177 96l54 31c24 -40 60 -70 120 -70c56 0 88 24 88 62c0 45 -36 55 -108 76c-65 19 -125 45 -125 123c0 72 60 113 136 113c63 0 109 -26 138 -67l-48 -37c-21 29 -50 47 -90 47c-45 0 -72 -21 -72 -53
c0 -39 25 -50 98 -71c70 -19 137 -47 137 -127c0 -70 -47 -123 -151 -123z" />
    <glyph glyph-name="scedilla" unicode="&#x15f;" horiz-adv-x="410" 
d="M210 -232c-52 0 -85 27 -101 59l40 25c11 -21 25 -39 57 -39c25 0 47 16 47 47c0 27 -18 48 -55 48h-21v87c-71 9 -118 48 -141 93l54 31c24 -40 60 -70 120 -70c56 0 88 24 88 62c0 45 -36 55 -108 76c-65 19 -125 45 -125 123c0 72 60 113 136 113
c63 0 109 -26 138 -67l-48 -37c-21 29 -50 47 -90 47c-45 0 -72 -21 -72 -53c0 -39 25 -50 98 -71c70 -19 137 -47 137 -127c0 -68 -44 -119 -141 -123v-45c43 -6 83 -38 83 -91c0 -56 -47 -88 -96 -88z" />
    <glyph glyph-name="scircumflex" unicode="&#x15d;" horiz-adv-x="410" 
d="M74 503l128 193h9l128 -193h-58l-74 101l-75 -101h-58zM213 -8c-91 0 -150 44 -177 96l54 31c24 -40 60 -70 120 -70c56 0 88 24 88 62c0 45 -36 55 -108 76c-65 19 -125 45 -125 123c0 72 60 113 136 113c63 0 109 -26 138 -67l-48 -37c-21 29 -50 47 -90 47
c-45 0 -72 -21 -72 -53c0 -39 25 -50 98 -71c70 -19 137 -47 137 -127c0 -70 -47 -123 -151 -123z" />
    <glyph glyph-name="scommaaccent" unicode="&#x219;" horiz-adv-x="410" 
d="M157 -256l32 99c-17 6 -32 24 -32 47c0 29 25 51 51 51c27 0 52 -22 52 -51c0 -13 -5 -26 -12 -39l-53 -107h-38zM213 -8c-91 0 -150 44 -177 96l54 31c24 -40 60 -70 120 -70c56 0 88 24 88 62c0 45 -36 55 -108 76c-65 19 -125 45 -125 123c0 72 60 113 136 113
c63 0 109 -26 138 -67l-48 -37c-21 29 -50 47 -90 47c-45 0 -72 -21 -72 -53c0 -39 25 -50 98 -71c70 -19 137 -47 137 -127c0 -70 -47 -123 -151 -123z" />
    <glyph glyph-name="tcaron" unicode="&#x165;" horiz-adv-x="391" 
d="M209 -9c-63 0 -111 36 -111 134v230h-64v59h64v142h69v-142h116v-59h-116v-231c0 -55 19 -72 49 -72c32 0 46 13 59 26l34 -47c-21 -21 -49 -40 -100 -40zM299 482l34 104c-17 6 -33 25 -33 48c0 30 25 53 52 53c28 0 53 -23 53 -52c0 -14 -5 -26 -13 -41l-55 -112h-38z
" />
    <glyph glyph-name="uni021B" unicode="&#x21b;" horiz-adv-x="335" 
d="M209 -9v-44c42 -6 83 -38 83 -91c0 -56 -48 -88 -96 -88c-53 0 -86 27 -102 59l41 25c10 -21 25 -39 57 -39c25 0 47 16 47 47c0 27 -18 48 -56 48h-21v91c-39 15 -64 54 -64 126v230h-64v59h64v142h69v-142h116v-59h-116v-231c0 -55 19 -72 49 -72c32 0 46 13 59 26
l34 -47c-21 -21 -49 -40 -100 -40z" />
    <glyph glyph-name="tcommaaccent" unicode="&#x163;" horiz-adv-x="335" 
d="M138 -256l32 99c-17 6 -32 24 -32 47c0 29 25 51 51 51c27 0 52 -22 52 -51c0 -13 -5 -26 -12 -39l-53 -107h-38zM209 -9c-63 0 -111 36 -111 134v230h-64v59h64v142h69v-142h116v-59h-116v-231c0 -55 19 -72 49 -72c32 0 46 13 59 26l34 -47c-21 -21 -49 -40 -100 -40z
" />
    <glyph glyph-name="ubreve" unicode="&#x16d;" horiz-adv-x="515" 
d="M225 -9c-92 0 -155 63 -155 169v254h70v-247c0 -72 34 -112 102 -112c78 0 129 50 129 131v228h70v-414h-70l2 84c-27 -58 -81 -93 -148 -93zM256 499c-77 0 -121 50 -131 117l56 9c9 -39 28 -71 75 -71s66 32 75 71l56 -9c-10 -67 -54 -117 -131 -117z" />
    <glyph glyph-name="uhungarumlaut" unicode="&#x171;" horiz-adv-x="515" 
d="M225 -9c-92 0 -155 63 -155 169v254h70v-247c0 -72 34 -112 102 -112c78 0 129 50 129 131v228h70v-414h-70l2 84c-27 -58 -81 -93 -148 -93zM298 505l68 193h76l-89 -193h-55zM160 505l67 193h76l-88 -193h-55z" />
    <glyph glyph-name="umacron" unicode="&#x16b;" horiz-adv-x="515" 
d="M225 -9c-92 0 -155 63 -155 169v254h70v-247c0 -72 34 -112 102 -112c78 0 129 50 129 131v228h70v-414h-70l2 84c-27 -58 -81 -93 -148 -93zM141 539v55h230v-55h-230z" />
    <glyph glyph-name="uogonek" unicode="&#x173;" horiz-adv-x="515" 
d="M370 -15l3 99c-27 -58 -81 -93 -148 -93c-92 0 -155 63 -155 169v254h70v-247c0 -72 34 -112 102 -112c78 0 129 50 129 131v228h70v-399l-45 -74c-21 -34 -31 -53 -31 -83c0 -28 18 -41 39 -41c26 0 40 17 51 35l44 -25c-17 -33 -47 -59 -98 -59c-49 0 -93 29 -93 88
c0 41 20 73 41 101z" />
    <glyph glyph-name="uring" unicode="&#x16f;" horiz-adv-x="515" 
d="M256 484c-59 0 -105 45 -105 100c0 56 46 101 105 101s105 -45 105 -101c0 -55 -46 -100 -105 -100zM256 528c31 0 53 22 53 56c0 35 -22 56 -53 56s-53 -21 -53 -56c0 -34 22 -56 53 -56zM225 -9c-92 0 -155 63 -155 169v254h70v-247c0 -72 34 -112 102 -112
c78 0 129 50 129 131v228h70v-414h-70l2 84c-27 -58 -81 -93 -148 -93z" />
    <glyph glyph-name="zacute" unicode="&#x17a;" horiz-adv-x="417" 
d="M192 498l68 193h80l-93 -193h-55zM32 0v10l239 346h-213v58h326v-11l-241 -345h236v-58h-347z" />
    <glyph glyph-name="zdotaccent" unicode="&#x17c;" horiz-adv-x="418" 
d="M32 0v10l239 346h-213v58h326v-11l-241 -345h236v-58h-347zM220 534c-26 0 -50 20 -50 49s24 50 50 50s50 -21 50 -50s-24 -49 -50 -49z" />
    <glyph glyph-name="space.lining" horiz-adv-x="237" 
 />
    <glyph glyph-name="dollar.lining" horiz-adv-x="534" 
d="M238 -7c-108 9 -172 67 -207 136l60 33c31 -57 69 -99 147 -107v278l-7 3c-104 44 -163 95 -163 194c0 92 74 153 170 158v85h51v-87c72 -10 117 -49 150 -98l-56 -38c-21 34 -49 62 -94 72v-235l13 -6c118 -49 179 -105 179 -209c0 -109 -76 -172 -192 -179v-109h-51
v109zM238 626c-62 -5 -100 -41 -100 -94c0 -60 28 -90 100 -122v216zM289 55c76 7 121 51 121 116c0 68 -42 104 -121 140v-256z" />
    <glyph glyph-name="cent.lining" horiz-adv-x="470" 
d="M233 -6c-107 14 -185 102 -185 213s78 200 185 214v108h51v-107c63 -4 109 -31 143 -73l-49 -40c-22 28 -52 47 -94 52v-308c46 5 76 25 100 54l48 -41c-36 -43 -82 -69 -148 -73v-109h-51v110zM233 359c-70 -13 -114 -74 -114 -152s43 -139 114 -152v304z" />
    <glyph glyph-name="Euro.lining" horiz-adv-x="644" 
d="M377 -8c-136 0 -238 97 -269 251h-82v54h74c-1 13 -1 28 -1 43s0 30 2 45h-75v54h82c31 151 130 249 264 249c108 0 176 -49 220 -133l-60 -34c-37 66 -76 102 -160 102c-101 0 -165 -73 -189 -184h254v-54h-263c-1 -15 -2 -30 -2 -45s0 -29 2 -43h263v-54h-254
c25 -116 95 -187 193 -187c95 0 139 54 173 120l61 -31c-40 -88 -110 -153 -233 -153z" />
    <glyph glyph-name="sterling.lining" horiz-adv-x="603" 
d="M183 276h-102v56h77c-20 48 -39 99 -39 157c0 113 85 199 212 199c102 0 165 -48 201 -123l-60 -31c-28 58 -69 91 -141 91c-84 0 -138 -54 -138 -136c0 -58 18 -108 38 -157h196v-56h-174c14 -40 26 -83 26 -132c0 -10 -1 -20 -3 -30c41 -30 82 -60 141 -60
c50 0 75 20 101 54l49 -41c-41 -52 -79 -75 -150 -75c-69 0 -119 34 -161 68c-26 -41 -71 -68 -125 -68c-57 0 -107 35 -107 94c0 58 47 94 106 94c33 0 60 -10 85 -23c-3 42 -16 81 -32 119zM208 98c-24 18 -48 31 -75 31c-30 0 -51 -16 -51 -42c0 -27 21 -44 52 -44
c34 0 62 19 74 55z" />
    <glyph glyph-name="yen.lining" horiz-adv-x="604" 
d="M266 0v162h-209v53h209v35l-30 56h-179v53h150l-171 321h82l158 -302c13 -25 27 -64 29 -69c0 4 15 42 29 69l155 302h76l-168 -321h152v-53h-180l-30 -57v-34h210v-53h-210v-162h-73z" />
    <glyph glyph-name="florin.lining" horiz-adv-x="367" 
d="M181 257l-53 -469h-68l53 469h-70v56h76l27 241c11 96 58 134 124 134c54 0 82 -23 101 -54l-45 -38c-11 18 -24 32 -52 32c-32 0 -53 -15 -59 -71l-28 -244h100v-56h-106z" />
    <glyph glyph-name="zero.lining" horiz-adv-x="643" 
d="M321 -8c-142 0 -273 110 -273 348s131 348 273 348s273 -110 273 -348s-131 -348 -273 -348zM321 57c108 0 198 84 198 283s-90 283 -198 283c-107 0 -198 -84 -198 -283s91 -283 198 -283z" />
    <glyph glyph-name="one.lining" horiz-adv-x="319" 
d="M147 0v616h-111v64h184v-680h-73z" />
    <glyph glyph-name="two.lining" horiz-adv-x="533" 
d="M28 0v7l279 296c62 65 99 123 99 192c0 74 -46 127 -127 127c-76 0 -133 -47 -153 -136l-69 15c23 106 98 187 222 187c122 0 200 -79 200 -193c0 -85 -50 -158 -116 -229l-151 -160c-21 -23 -51 -46 -51 -46s35 4 62 4h260v-64h-455z" />
    <glyph glyph-name="three.lining" horiz-adv-x="549" 
d="M261 -8c-113 0 -202 59 -241 137l60 32c33 -59 91 -104 178 -104c110 0 176 66 176 161c0 97 -69 155 -182 155c-40 0 -69 -8 -87 -15l-4 7l175 218c14 17 36 38 36 38s-31 -5 -56 -5h-239v64h409v-7l-168 -207c-18 -24 -37 -41 -37 -41c133 -1 226 -83 226 -209
c0 -136 -102 -224 -246 -224z" />
    <glyph glyph-name="four.lining" horiz-adv-x="590" 
d="M402 0v126h-374v37l441 533h6v-509h76v-61h-76v-126h-73zM118 182c0 0 44 5 74 5h210v280c0 29 4 68 5 70c-1 -1 -23 -35 -44 -61l-193 -245c-21 -24 -52 -49 -52 -49z" />
    <glyph glyph-name="five.lining" horiz-adv-x="548" 
d="M261 -8c-108 0 -195 51 -238 129l62 34c32 -55 90 -98 176 -98c104 0 170 65 170 163s-63 155 -167 155c-75 0 -129 -28 -170 -65l-6 4v366h380v-64h-316v-211c32 20 71 32 124 32c137 0 231 -83 231 -216c0 -144 -102 -229 -246 -229z" />
    <glyph glyph-name="six.lining" horiz-adv-x="568" 
d="M284 -8c-140 0 -238 102 -238 228c0 59 21 110 57 162l209 298h81l-145 -206c-18 -25 -52 -61 -52 -61c29 21 67 35 103 35c128 0 223 -98 223 -226c0 -127 -97 -230 -238 -230zM284 57c101 0 164 76 164 165s-61 167 -164 167c-101 0 -164 -76 -164 -167
c0 -89 63 -165 164 -165z" />
    <glyph glyph-name="seven.lining" horiz-adv-x="549" 
d="M108 0l308 616h-382v64h488v-7l-337 -673h-77z" />
    <glyph glyph-name="eight.lining" horiz-adv-x="564" 
d="M282 -8c-137 0 -237 80 -237 201c0 91 58 152 142 176c-64 22 -100 78 -100 147c0 95 81 172 196 172c116 0 197 -77 197 -172c0 -70 -37 -126 -101 -147c83 -25 140 -86 140 -176c0 -121 -99 -201 -237 -201zM282 57c98 0 163 53 163 139c0 85 -65 141 -163 141
c-97 0 -163 -56 -163 -141c0 -86 66 -139 163 -139zM283 395c81 0 126 52 126 116c0 62 -45 113 -126 113c-80 0 -125 -51 -125 -113c0 -64 45 -116 125 -116z" />
    <glyph glyph-name="nine.lining" horiz-adv-x="568" 
d="M188 0l141 208c16 24 42 53 42 53c-31 -22 -67 -34 -103 -34c-130 0 -225 99 -225 229c0 128 98 232 240 232s242 -103 242 -231c0 -59 -23 -110 -59 -163l-198 -294h-80zM283 286c103 0 168 77 168 170c0 89 -63 167 -168 167c-104 0 -166 -78 -166 -167
c0 -91 59 -170 166 -170z" />
    <glyph glyph-name="percent.lining" horiz-adv-x="811" 
d="M200 353c-89 0 -169 71 -169 168s80 167 169 167s170 -70 170 -167s-81 -168 -170 -168zM156 0l428 680h71l-428 -680h-71zM610 -8c-89 0 -169 70 -169 167s80 167 169 167s169 -70 169 -167s-80 -167 -169 -167zM200 411c58 0 105 45 105 110s-47 109 -105 109
s-104 -44 -104 -109s46 -110 104 -110zM610 49c58 0 105 46 105 110c0 66 -47 110 -105 110s-105 -44 -105 -110c0 -64 47 -110 105 -110z" />
    <glyph glyph-name="perthousand.lining" horiz-adv-x="1205" 
d="M200 353c-89 0 -169 71 -169 168s80 167 169 167s170 -70 170 -167s-81 -168 -170 -168zM156 0l428 680h71l-428 -680h-71zM1006 -8c-89 0 -169 70 -169 167s80 167 169 167s168 -70 168 -167s-79 -167 -168 -167zM610 -8c-89 0 -169 70 -169 167s80 167 169 167
s169 -70 169 -167s-80 -167 -169 -167zM200 411c58 0 105 45 105 110s-47 109 -105 109s-104 -44 -104 -109s46 -110 104 -110zM1006 49c57 0 104 46 104 110c0 66 -47 110 -104 110c-59 0 -105 -44 -105 -110c0 -64 46 -110 105 -110zM610 49c58 0 105 46 105 110
c0 66 -47 110 -105 110s-105 -44 -105 -110c0 -64 47 -110 105 -110z" />
    <glyph glyph-name="plus.lining" horiz-adv-x="413" 
d="M174 146v145h-135v62h135v145h64v-145h136v-62h-136v-145h-64z" />
    <glyph glyph-name="minus.lining" horiz-adv-x="413" 
d="M374 291h-335v62h335v-62z" />
    <glyph glyph-name="multiply.lining" horiz-adv-x="413" 
d="M206 276l-116 -117l-43 43l117 117l-117 117l42 42l117 -117l118 118l42 -43l-117 -117l117 -118l-42 -42z" />
    <glyph glyph-name="divide.lining" horiz-adv-x="413" 
d="M374 291h-335v62h335v-62zM206 425c-27 0 -53 23 -53 54c0 30 26 53 53 53c28 0 54 -23 54 -53c0 -31 -26 -54 -54 -54zM206 112c-27 0 -53 23 -53 54c0 30 26 53 53 53c28 0 54 -23 54 -53c0 -31 -26 -54 -54 -54z" />
    <glyph glyph-name="equal.lining" horiz-adv-x="411" 
d="M42 352v62h327v-62h-327zM42 206v61h327v-61h-327z" />
    <glyph glyph-name="less.lining" horiz-adv-x="391" 
d="M342 149l-306 167v10l306 164v-65l-201 -105l201 -106v-65z" />
    <glyph glyph-name="greater.lining" horiz-adv-x="391" 
d="M49 149v65l202 105l-202 106v65l306 -167v-10z" />
    <glyph glyph-name="degree.lining" horiz-adv-x="367" 
d="M184 423c-76 0 -137 58 -137 132c0 75 61 133 137 133s136 -58 136 -133c0 -74 -60 -132 -136 -132zM184 473c48 0 80 35 80 82c0 48 -32 83 -80 83s-80 -35 -80 -83c0 -47 32 -82 80 -82z" />
    <glyph glyph-name="period.lining" horiz-adv-x="202" 
d="M101 -7c-28 0 -54 24 -54 55s26 54 54 54c29 0 54 -23 54 -54s-25 -55 -54 -55z" />
    <glyph glyph-name="comma.lining" horiz-adv-x="202" 
d="M44 -112l39 111c-21 7 -36 25 -36 49c0 30 26 54 54 54c29 0 54 -24 54 -54c0 -14 -6 -29 -12 -40l-60 -120h-39z" />
    <glyph glyph-name="colon.lining" horiz-adv-x="212" 
d="M106 217c-28 0 -54 24 -54 55s26 54 54 54c29 0 54 -23 54 -54s-25 -55 -54 -55zM106 -7c-28 0 -54 24 -54 55s26 54 54 54c29 0 54 -23 54 -54s-25 -55 -54 -55z" />
    <glyph glyph-name="semicolon.lining" horiz-adv-x="212" 
d="M106 217c-28 0 -54 24 -54 55s26 54 54 54c29 0 54 -23 54 -54s-25 -55 -54 -55zM49 -112l39 111c-21 7 -36 25 -36 49c0 30 26 54 54 54c29 0 54 -24 54 -54c0 -14 -6 -29 -12 -40l-60 -120h-39z" />
    <glyph glyph-name="parenleft.lining" horiz-adv-x="288" 
d="M216 -136c-85 87 -172 223 -172 427c0 203 87 340 172 427l44 -36c-78 -91 -143 -211 -143 -391s65 -300 143 -391z" />
    <glyph glyph-name="parenright.lining" horiz-adv-x="288" 
d="M71 -136l-43 36c78 91 142 211 142 391s-64 300 -142 391l43 36c85 -87 173 -223 173 -427c0 -203 -88 -340 -173 -427z" />
    <glyph glyph-name="bracketleft.lining" horiz-adv-x="305" 
d="M76 -128v850h193v-60h-123v-730h123v-60h-193z" />
    <glyph glyph-name="bracketright.lining" horiz-adv-x="305" 
d="M36 -128v60h123v730h-123v60h194v-850h-194z" />
    <glyph glyph-name="braceleft.lining" horiz-adv-x="367" 
d="M274 -128c-68 0 -133 27 -133 144v185c0 53 -21 69 -58 69h-58v60h58c37 0 58 17 58 70v178c0 117 65 144 133 144h57v-60h-53c-42 0 -66 -19 -66 -85v-185c0 -62 -28 -83 -65 -92c37 -7 65 -31 65 -92v-191c0 -66 24 -85 66 -85h53v-60h-57z" />
    <glyph glyph-name="braceright.lining" horiz-adv-x="366" 
d="M36 -128v60h53c42 0 66 19 66 85v191c0 62 28 84 65 92c-37 7 -65 31 -65 93v184c0 66 -24 85 -66 85h-53v60h57c67 0 132 -27 132 -144v-178c0 -53 22 -70 59 -70h57v-60h-57c-37 0 -59 -16 -59 -69v-185c0 -117 -65 -144 -132 -144h-57z" />
    <glyph glyph-name="section.lining" horiz-adv-x="553" 
d="M268 -180c-95 0 -168 49 -204 109l58 37c30 -46 74 -82 144 -82c83 0 115 41 115 94c0 52 -37 79 -100 107l-106 48c-95 42 -138 89 -138 165c0 63 37 104 88 128c-18 26 -28 57 -28 95c0 96 76 167 184 167c91 0 150 -47 181 -104l-58 -36c-26 47 -66 76 -123 76
c-68 0 -109 -43 -109 -100c0 -61 32 -87 92 -114l108 -49c103 -46 144 -95 144 -168c0 -58 -36 -99 -92 -122c21 -27 32 -57 32 -94c0 -90 -62 -157 -188 -157zM384 107c38 14 62 43 62 80c0 49 -31 77 -103 109l-109 49c-28 12 -53 27 -73 46c-33 -16 -54 -47 -54 -83
c0 -53 30 -79 97 -109l107 -48c28 -12 54 -27 73 -44z" />
    <glyph glyph-name="numbersign.lining" horiz-adv-x="461" 
d="M68 243l28 108h-67v56h80l27 108h-72v56h86l27 109h58l-27 -109h99l28 109h58l-27 -109h66v-56h-80l-27 -108h71v-56h-86l-26 -108h-59l27 108h-99l-26 -108h-59zM167 407h100l27 108h-99z" />
    <glyph glyph-name="space.tab" horiz-adv-x="200" 
 />
    <glyph glyph-name="dollar.tab" horiz-adv-x="520" 
d="M233 -6c-87 9 -146 54 -175 113l55 29c23 -48 63 -77 120 -86v187c-100 29 -148 67 -148 146c0 73 63 121 148 128v106h51v-107c63 -9 112 -45 137 -89l-49 -33c-19 34 -46 59 -88 66v-165l6 -2c103 -30 158 -75 158 -155c0 -88 -59 -135 -164 -140v-111h-51v113z
M233 456c-50 -4 -83 -26 -83 -70c0 -48 24 -64 83 -81v151zM284 48c68 4 98 33 98 82c0 50 -27 72 -98 92v-174z" />
    <glyph glyph-name="cent.tab" horiz-adv-x="520" 
d="M257 -6c-107 14 -185 102 -185 213s78 200 185 214v108h51v-107c63 -4 109 -31 143 -73l-49 -40c-22 28 -52 47 -94 52v-308c46 5 76 25 100 54l48 -41c-36 -43 -82 -69 -148 -73v-109h-51v110zM257 359c-70 -13 -114 -74 -114 -152s43 -139 114 -152v304z" />
    <glyph glyph-name="Euro.tab" horiz-adv-x="520" 
d="M80 283h-61v56h72c31 104 116 173 219 173c87 0 145 -33 187 -97l-52 -37c-33 51 -67 73 -135 73s-121 -43 -146 -112h192v-56h-204c0 -10 -1 -20 -1 -31s1 -22 2 -32h203v-56h-191c24 -69 78 -111 145 -111c74 0 108 31 137 78l55 -34c-39 -65 -100 -105 -192 -105
c-100 0 -186 69 -218 172h-73v56h62c-1 10 -2 21 -2 32s0 21 1 31z" />
    <glyph glyph-name="sterling.tab" horiz-adv-x="520" 
d="M155 260h-95v56h71c-17 43 -31 87 -31 132c0 96 70 170 181 170c92 0 147 -48 176 -109l-57 -31c-27 51 -56 77 -119 77c-67 0 -110 -41 -110 -111c0 -43 14 -85 30 -128h154v-56h-133c16 -46 31 -95 31 -148v-8c34 -26 68 -50 111 -50c44 0 63 13 88 41l42 -43
c-32 -40 -66 -60 -128 -60c-56 0 -97 27 -133 56c-22 -33 -62 -56 -109 -56c-64 0 -104 38 -104 91c0 52 41 87 97 87c28 0 52 -9 74 -22c-6 38 -21 75 -36 112zM190 86c-24 21 -46 36 -69 36c-27 0 -46 -15 -46 -41c0 -25 19 -41 46 -41c32 0 59 19 69 46z" />
    <glyph glyph-name="yen.tab" horiz-adv-x="520" 
d="M53 128v56h165l-37 69h-128v56h98l-106 195h79l111 -212c15 -29 25 -65 25 -65s9 37 24 65l117 212h73l-111 -195h96v-56h-127l-39 -69h166v-56h-167v-128h-72v128h-167z" />
    <glyph glyph-name="florin.tab" horiz-adv-x="520" 
d="M183 203h-98v57h104l23 203c11 106 68 155 142 155c64 0 103 -31 126 -73l-49 -34c-15 27 -32 47 -74 47c-39 0 -69 -25 -77 -94l-23 -204h135v-57h-141l-47 -415h-68z" />
    <glyph glyph-name="zero.tab" horiz-adv-x="520" 
d="M259 -8c-130 0 -219 107 -219 260c0 156 91 260 219 260c130 0 221 -104 221 -260c0 -153 -89 -260 -221 -260zM259 55c91 0 147 75 147 197c0 124 -56 197 -147 197c-90 0 -146 -73 -146 -197c0 -122 56 -197 146 -197z" />
    <glyph glyph-name="one.tab" horiz-adv-x="520" 
d="M228 60v384h-128v60h199v-444h128v-60h-340v60h141z" />
    <glyph glyph-name="two.tab" horiz-adv-x="520" 
d="M50 0v9l203 185c67 61 106 105 106 161c0 62 -41 93 -98 93c-61 0 -103 -36 -125 -102l-64 18c24 92 96 148 188 148c106 0 171 -62 171 -154c0 -69 -50 -130 -122 -196l-76 -69c-18 -17 -52 -35 -52 -35s37 3 56 3h207v-61h-394z" />
    <glyph glyph-name="three.tab" horiz-adv-x="520" 
d="M249 -103c-103 0 -179 52 -213 130l61 30c29 -62 80 -97 152 -97c78 0 140 48 140 139c0 88 -61 129 -152 129c-36 0 -62 -8 -82 -17l-8 9l161 195c13 17 30 33 30 33s-26 -4 -48 -4h-202v60h361v-7l-155 -186c-13 -17 -31 -29 -34 -31c114 1 203 -68 203 -182
c0 -118 -88 -201 -214 -201z" />
    <glyph glyph-name="four.tab" horiz-adv-x="520" 
d="M405 80h74v-59h-74v-115h-70v115h-306v34l366 459h10v-434zM335 80v221c0 20 4 56 4 56s-17 -28 -32 -47l-153 -195c-16 -20 -36 -37 -36 -37s26 2 48 2h169z" />
    <glyph glyph-name="five.tab" horiz-adv-x="520" 
d="M249 -103c-100 0 -168 48 -200 109l59 32c26 -46 69 -78 141 -78c85 0 141 54 141 136c0 83 -47 134 -141 134c-69 0 -112 -27 -143 -53l-9 3v324h331v-60h-270v-181c22 15 58 28 105 28c122 0 201 -81 201 -196c0 -114 -86 -198 -215 -198z" />
    <glyph glyph-name="six.tab" horiz-adv-x="520" 
d="M261 -8c-115 0 -207 81 -207 198c0 58 25 109 63 164l172 256h79l-140 -208c-13 -18 -38 -43 -46 -51c25 21 56 35 93 35c109 0 194 -81 194 -195c0 -113 -89 -199 -208 -199zM260 54c84 0 139 58 139 137c0 82 -51 138 -137 138c-85 0 -138 -63 -138 -138
c0 -79 52 -137 136 -137z" />
    <glyph glyph-name="seven.tab" horiz-adv-x="520" 
d="M109 -94l255 538h-306v60h402v-9l-278 -589h-73z" />
    <glyph glyph-name="eight.tab" horiz-adv-x="520" 
d="M260 -9c-120 0 -210 77 -210 186c0 80 49 138 124 161c-52 22 -85 66 -85 126c0 87 70 154 171 154c103 0 172 -67 172 -154c0 -60 -34 -104 -86 -126c75 -23 124 -81 124 -161c0 -109 -88 -186 -210 -186zM260 55c84 0 138 49 138 126s-54 128 -138 128
c-85 0 -139 -51 -139 -128s54 -126 139 -126zM260 366c61 0 102 39 102 97c0 57 -41 96 -102 96c-63 0 -103 -39 -103 -96c0 -58 40 -97 103 -97z" />
    <glyph glyph-name="nine.tab" horiz-adv-x="520" 
d="M158 -94l134 197c15 21 49 52 49 52c-26 -21 -58 -37 -96 -37c-109 0 -194 81 -194 195s89 199 208 199c115 0 208 -82 208 -198c0 -58 -26 -109 -64 -164l-166 -244h-79zM258 176c85 0 139 62 139 137c0 79 -53 136 -137 136s-139 -57 -139 -136c0 -82 51 -137 137 -137
z" />
    <glyph glyph-name="percent.tab" horiz-adv-x="750" 
d="M178 218c-78 0 -144 61 -144 147c0 85 66 147 144 147c76 0 143 -62 143 -147c0 -86 -67 -147 -143 -147zM182 0l315 504h70l-315 -504h-70zM573 -8c-78 0 -144 61 -144 146s66 147 144 147c77 0 143 -62 143 -147s-66 -146 -143 -146zM178 272c47 0 84 37 84 93
s-37 93 -84 93c-48 0 -85 -37 -85 -93s37 -93 85 -93zM573 45c47 0 84 37 84 93s-37 93 -84 93c-48 0 -85 -37 -85 -93s37 -93 85 -93z" />
    <glyph glyph-name="perthousand.tab" horiz-adv-x="1100" 
d="M185 218c-77 0 -144 61 -144 147c0 85 67 147 144 147s143 -62 143 -147c0 -86 -66 -147 -143 -147zM191 0l315 504h70l-315 -504h-70zM915 -8c-78 0 -143 61 -143 146s65 147 143 147c77 0 143 -62 143 -147s-66 -146 -143 -146zM583 -8c-78 0 -143 61 -143 146
s65 147 143 147c77 0 143 -62 143 -147s-66 -146 -143 -146zM185 272c48 0 85 37 85 93s-37 93 -85 93c-47 0 -85 -37 -85 -93s38 -93 85 -93zM915 45c48 0 84 37 84 93s-36 93 -84 93s-84 -37 -84 -93s36 -93 84 -93zM583 45c48 0 84 37 84 93s-36 93 -84 93
s-84 -37 -84 -93s36 -93 84 -93z" />
    <glyph glyph-name="plus.tab" horiz-adv-x="520" 
d="M292 221v-152h-64v152h-142v62h142v152h64v-152h142v-62h-142z" />
    <glyph glyph-name="minus.tab" horiz-adv-x="520" 
d="M86 221v62h348v-62h-348z" />
    <glyph glyph-name="multiply.tab" horiz-adv-x="520" 
d="M261 207l-122 -121l-44 44l121 121l-121 121l44 44l121 -121l122 121l44 -44l-122 -121l122 -121l-44 -44z" />
    <glyph glyph-name="divide.tab" horiz-adv-x="520" 
d="M259 357c-27 0 -51 22 -51 51c0 30 24 52 51 52c28 0 52 -22 52 -52c0 -29 -24 -51 -52 -51zM85 221v62h349v-62h-349zM259 44c-27 0 -51 22 -51 51c0 30 24 52 51 52c28 0 52 -22 52 -52c0 -29 -24 -51 -52 -51z" />
    <glyph glyph-name="equal.tab" horiz-adv-x="520" 
d="M85 282v61h350v-61h-350zM85 152v62h350v-62h-350z" />
    <glyph glyph-name="less.tab" horiz-adv-x="520" 
d="M405 74l-320 165v10l320 163v-64l-212 -105l212 -105v-64z" />
    <glyph glyph-name="greater.tab" horiz-adv-x="520" 
d="M115 74v64l212 105l-212 105v64l320 -165v-10z" />
    <glyph glyph-name="degree.tab" horiz-adv-x="350" 
d="M175 286c-64 0 -117 50 -117 113c0 64 53 113 117 113s117 -49 117 -113c0 -63 -53 -113 -117 -113zM175 332c39 0 64 28 64 67s-25 67 -64 67s-65 -28 -65 -67s26 -67 65 -67z" />
    <glyph glyph-name="period.tab" horiz-adv-x="200" 
d="M100 -7c-28 0 -54 24 -54 55s26 54 54 54c29 0 54 -23 54 -54s-25 -55 -54 -55z" />
    <glyph glyph-name="comma.tab" horiz-adv-x="200" 
d="M43 -112l39 111c-21 7 -36 25 -36 49c0 30 26 54 54 54c29 0 54 -24 54 -54c0 -14 -6 -29 -12 -40l-60 -120h-39z" />
    <glyph glyph-name="colon.tab" horiz-adv-x="200" 
d="M100 217c-28 0 -54 24 -54 55s26 54 54 54c29 0 54 -23 54 -54s-25 -55 -54 -55zM100 -7c-28 0 -54 24 -54 55s26 54 54 54c29 0 54 -23 54 -54s-25 -55 -54 -55z" />
    <glyph glyph-name="semicolon.tab" horiz-adv-x="200" 
d="M100 217c-28 0 -54 24 -54 55s26 54 54 54c29 0 54 -23 54 -54s-25 -55 -54 -55zM43 -112l39 111c-21 7 -36 25 -36 49c0 30 26 54 54 54c29 0 54 -24 54 -54c0 -14 -6 -29 -12 -40l-60 -120h-39z" />
    <glyph glyph-name="parenleft.tab" horiz-adv-x="300" 
d="M217 -135c-83 89 -165 222 -165 426c0 203 82 337 165 426l45 -34c-76 -93 -137 -212 -137 -392s61 -299 137 -392z" />
    <glyph glyph-name="parenright.tab" horiz-adv-x="300" 
d="M82 -135l-44 34c75 93 136 212 136 392c0 181 -61 299 -136 392l44 34c83 -89 166 -223 166 -426s-83 -337 -166 -426z" />
    <glyph glyph-name="bracketleft.tab" horiz-adv-x="300" 
d="M73 -128v850h190v-60h-120v-730h120v-60h-190z" />
    <glyph glyph-name="bracketright.tab" horiz-adv-x="300" 
d="M37 -128v60h119v730h-119v60h191v-850h-191z" />
    <glyph glyph-name="braceleft.tab" horiz-adv-x="300" 
d="M225 -128c-67 0 -133 27 -133 144v185c0 53 -20 69 -58 69h-33v60h33c38 0 58 17 58 70v178c0 117 66 144 133 144h38v-60h-33c-43 0 -67 -19 -67 -85v-185c0 -62 -28 -83 -65 -92c37 -7 65 -31 65 -92v-191c0 -66 24 -85 67 -85h33v-60h-38z" />
    <glyph glyph-name="braceright.tab" horiz-adv-x="300" 
d="M36 -128v60h34c42 0 66 19 66 85v191c0 61 28 85 65 92c-37 9 -65 30 -65 92v185c0 66 -24 85 -66 85h-34v60h38c68 0 133 -27 133 -144v-178c0 -53 21 -70 58 -70h33v-60h-33c-37 0 -58 -16 -58 -69v-185c0 -117 -65 -144 -133 -144h-38z" />
    <glyph glyph-name="section.tab" horiz-adv-x="520" 
d="M256 -103c-90 0 -155 43 -184 108l56 27c25 -48 62 -76 126 -76c60 0 95 30 95 75c0 40 -26 61 -82 83l-89 35c-93 36 -133 77 -133 148c0 50 32 88 81 109c-13 21 -20 45 -20 73c0 82 67 139 156 139c86 0 134 -42 160 -101l-57 -26c-18 39 -43 69 -101 69
c-55 0 -90 -30 -90 -79c0 -43 19 -67 71 -88l98 -39c94 -37 133 -82 133 -145c0 -49 -32 -85 -80 -104c15 -20 23 -44 23 -74c0 -79 -58 -134 -163 -134zM360 138c31 11 50 33 50 62c0 41 -20 64 -87 91l-98 39c-28 11 -52 26 -69 44c-30 -14 -44 -39 -44 -69
c0 -45 20 -68 84 -93l90 -35c29 -10 54 -24 74 -39z" />
    <glyph glyph-name="numbersign.tab" horiz-adv-x="520" 
d="M162 447h-79v57h93l27 109h59l-27 -109h104l27 109h59l-27 -109h73v-57h-87l-27 -106h78v-57h-92l-27 -108h-59l27 108h-104l-27 -108h-59l27 108h-73v57h87zM325 447h-104l-27 -106h104z" />
    <glyph glyph-name="space.tablining" horiz-adv-x="200" 
 />
    <glyph glyph-name="dollar.tablining" horiz-adv-x="580" 
d="M257 -7c-109 9 -174 68 -209 136l59 33c32 -56 71 -99 150 -107v280l-3 1c-106 46 -169 96 -169 193c0 89 72 152 172 159v85h51v-87c78 -9 125 -50 156 -99l-57 -37c-20 34 -47 64 -99 73v-236l15 -7c116 -51 182 -105 182 -208c0 -105 -73 -172 -197 -179v-109h-51v109
zM257 625c-64 -5 -102 -42 -102 -94c0 -55 29 -85 102 -120v214zM308 55c85 7 126 53 126 116c0 64 -39 99 -126 140v-256z" />
    <glyph glyph-name="cent.tablining" horiz-adv-x="580" 
d="M286 -6c-107 14 -185 102 -185 213s78 200 185 214v108h51v-107c63 -4 109 -31 143 -73l-49 -40c-22 28 -52 47 -94 52v-308c46 5 76 25 100 54l48 -41c-36 -43 -82 -69 -148 -73v-109h-51v110zM286 359c-70 -13 -114 -74 -114 -152s43 -139 114 -152v304z" />
    <glyph glyph-name="Euro.tablining" horiz-adv-x="580" 
d="M339 -8c-126 0 -221 95 -248 252h-74v54h68c-2 13 -2 27 -2 42s1 31 2 46h-68v54h75c27 153 118 248 241 248c103 0 164 -52 204 -138l-61 -29c-34 68 -67 103 -143 103c-92 0 -148 -73 -168 -184h216v-54h-223c-1 -15 -1 -31 -1 -46s0 -29 1 -42h223v-54h-215
c20 -119 83 -188 172 -188c83 0 120 49 151 120l63 -28c-37 -92 -101 -156 -213 -156z" />
    <glyph glyph-name="sterling.tablining" horiz-adv-x="580" 
d="M178 276h-102v56h78c-20 48 -38 99 -38 157c0 113 77 199 202 199c98 0 158 -46 192 -119l-59 -31c-27 57 -65 87 -133 87c-80 0 -128 -53 -128 -136c0 -58 17 -108 36 -157h188v-56h-167c14 -41 25 -84 25 -132c0 -11 -1 -21 -3 -31c38 -30 76 -59 130 -59
c50 0 75 21 100 53l49 -41c-38 -49 -79 -74 -147 -74c-66 0 -112 34 -152 68c-25 -41 -68 -68 -119 -68c-56 0 -107 35 -107 94c0 58 46 94 105 94c31 0 57 -9 81 -23c-3 42 -16 81 -31 119zM203 99c-23 17 -45 30 -71 30c-29 0 -52 -16 -52 -42c0 -28 23 -44 52 -44
c33 0 60 18 71 56z" />
    <glyph glyph-name="yen.tablining" horiz-adv-x="580" 
d="M59 162v53h195v36l-29 55h-166v53h140l-164 321h80l154 -305c11 -25 20 -60 22 -66c1 4 12 40 24 66l154 305h74l-164 -321h140v-53h-165l-29 -56v-35h194v-53h-194v-162h-71v162h-195z" />
    <glyph glyph-name="florin.tablining" horiz-adv-x="580" 
d="M219 257h-99v56h105l25 220c12 106 68 155 143 155c64 0 103 -31 125 -73l-49 -34c-15 27 -32 47 -73 47c-39 0 -70 -25 -77 -94l-25 -221h133v-56h-139l-54 -469h-68z" />
    <glyph glyph-name="zero.tablining" horiz-adv-x="580" 
d="M290 -8c-149 0 -245 134 -245 348s96 348 245 348s245 -134 245 -348s-96 -348 -245 -348zM290 57c113 0 169 113 169 283s-56 283 -169 283s-169 -113 -169 -283s56 -283 169 -283z" />
    <glyph glyph-name="one.tablining" horiz-adv-x="580" 
d="M286 0v616h-164v64h237v-680h-73z" />
    <glyph glyph-name="two.tablining" horiz-adv-x="580" 
d="M43 0v7l279 296c62 65 98 123 98 192c0 74 -45 127 -126 127c-76 0 -133 -47 -153 -136l-69 15c23 106 98 187 222 187c122 0 199 -79 199 -193c0 -85 -49 -158 -115 -229l-151 -160c-21 -23 -51 -46 -51 -46s35 4 62 4h260v-64h-455z" />
    <glyph glyph-name="three.tablining" horiz-adv-x="580" 
d="M276 -8c-114 0 -196 57 -235 136l61 32c33 -61 84 -103 172 -103c108 0 171 66 171 161c0 97 -65 155 -178 155c-40 0 -69 -8 -87 -15l-4 7l174 218c14 17 35 38 35 38s-30 -5 -56 -5h-234v64h404v-7l-166 -207c-19 -24 -38 -40 -38 -40c137 -3 223 -84 223 -210
c0 -136 -99 -224 -242 -224z" />
    <glyph glyph-name="four.tablining" horiz-adv-x="580" 
d="M453 187h78v-61h-78v-126h-72v126h-345v37l410 533h7v-509zM381 187v265c0 31 5 77 5 79c-1 -2 -22 -39 -42 -66l-174 -231c-19 -25 -48 -51 -48 -51s38 4 68 4h191z" />
    <glyph glyph-name="five.tablining" horiz-adv-x="580" 
d="M274 -8c-105 0 -185 49 -227 127l62 34c31 -55 83 -96 165 -96c101 0 165 63 165 163c0 98 -61 155 -160 155c-74 0 -125 -28 -165 -65l-6 4v366h364v-64h-300v-212c30 20 70 33 120 33c135 0 222 -84 222 -216c0 -143 -99 -229 -240 -229z" />
    <glyph glyph-name="six.tablining" horiz-adv-x="580" 
d="M290 -8c-138 0 -234 101 -234 226c0 59 20 110 56 162l210 300h81l-150 -214c-17 -24 -49 -57 -49 -57c29 21 65 35 99 35c128 0 221 -98 221 -224s-95 -228 -234 -228zM290 57c99 0 160 75 160 163s-60 165 -160 165c-99 0 -160 -75 -160 -165c0 -88 61 -163 160 -163z
" />
    <glyph glyph-name="seven.tablining" horiz-adv-x="580" 
d="M128 0l293 616h-359v64h462v-7l-319 -673h-77z" />
    <glyph glyph-name="eight.tablining" horiz-adv-x="580" 
d="M290 -8c-137 0 -237 80 -237 201c0 91 58 152 141 176c-63 22 -99 78 -99 147c0 95 81 172 196 172s197 -77 197 -172c0 -70 -37 -126 -101 -147c82 -25 139 -86 139 -176c0 -121 -98 -201 -236 -201zM290 57c99 0 162 53 162 138c0 86 -63 141 -162 141
c-98 0 -162 -55 -162 -141s64 -138 162 -138zM291 395c80 0 126 52 126 117c0 61 -46 112 -126 112s-125 -51 -125 -112c0 -65 45 -117 125 -117z" />
    <glyph glyph-name="nine.tablining" horiz-adv-x="580" 
d="M188 0l147 214c16 23 42 51 42 51c-31 -22 -66 -34 -100 -34c-130 0 -224 99 -224 226c0 128 96 231 236 231s237 -102 237 -229c0 -59 -21 -110 -56 -163l-202 -296h-80zM289 290c101 0 164 75 164 167c0 90 -61 166 -164 166c-101 0 -163 -76 -163 -166
c0 -89 60 -167 163 -167z" />
    <glyph glyph-name="percent.tablining" horiz-adv-x="800" 
d="M203 353c-86 0 -161 70 -161 168s75 167 161 167s161 -69 161 -167s-75 -168 -161 -168zM151 0l428 680h71l-429 -680h-70zM598 -8c-86 0 -161 69 -161 167s75 167 161 167s160 -69 160 -167s-74 -167 -160 -167zM203 410c56 0 98 46 98 111s-42 111 -98 111
c-57 0 -99 -46 -99 -111s42 -111 99 -111zM598 48c56 0 98 46 98 111c0 66 -42 111 -98 111c-57 0 -99 -45 -99 -111c0 -65 42 -111 99 -111z" />
    <glyph glyph-name="perthousand.tablining" horiz-adv-x="1160" 
d="M203 353c-86 0 -161 70 -161 168s75 167 161 167s161 -69 161 -167s-75 -168 -161 -168zM144 0l429 680h71l-429 -680h-71zM958 -8c-86 0 -161 69 -161 167s75 167 161 167s160 -69 160 -167s-74 -167 -160 -167zM586 -8c-86 0 -161 69 -161 167s75 167 161 167
s160 -69 160 -167s-74 -167 -160 -167zM203 410c56 0 98 46 98 111s-42 111 -98 111c-57 0 -99 -46 -99 -111s42 -111 99 -111zM958 48c56 0 98 46 98 111c0 66 -42 111 -98 111c-57 0 -99 -45 -99 -111c0 -65 42 -111 99 -111zM586 48c55 0 98 46 98 111
c0 66 -43 111 -98 111c-57 0 -99 -45 -99 -111c0 -65 42 -111 99 -111z" />
    <glyph glyph-name="plus.tablining" horiz-adv-x="580" 
d="M322 291v-165h-64v165h-156v62h156v165h64v-165h156v-62h-156z" />
    <glyph glyph-name="minus.tablining" horiz-adv-x="580" 
d="M102 291v62h375v-62h-375z" />
    <glyph glyph-name="multiply.tablining" horiz-adv-x="580" 
d="M290 276l-124 -124l-42 43l123 123l-124 125l43 42l124 -124l124 124l43 -42l-124 -124l124 -124l-43 -43z" />
    <glyph glyph-name="divide.tablining" horiz-adv-x="580" 
d="M289 425c-27 0 -53 23 -53 54c0 30 26 53 53 53c28 0 54 -23 54 -53c0 -31 -26 -54 -54 -54zM102 291v62h375v-62h-375zM289 112c-27 0 -53 23 -53 54c0 30 26 53 53 53c28 0 54 -23 54 -53c0 -31 -26 -54 -54 -54z" />
    <glyph glyph-name="equal.tablining" horiz-adv-x="580" 
d="M102 352v62h376v-62h-376zM102 206v61h376v-61h-376z" />
    <glyph glyph-name="less.tablining" horiz-adv-x="580" 
d="M456 131l-356 185v10l356 182v-64l-246 -124l246 -125v-64z" />
    <glyph glyph-name="greater.tablining" horiz-adv-x="580" 
d="M124 131v64l246 125l-246 124v64l356 -182v-10z" />
    <glyph glyph-name="degree.tablining" horiz-adv-x="376" 
d="M188 423c-75 0 -137 58 -137 132c0 75 62 133 137 133c76 0 136 -58 136 -133c0 -74 -60 -132 -136 -132zM188 473c48 0 81 35 81 82c0 48 -33 83 -81 83s-80 -35 -80 -83c0 -47 32 -82 80 -82z" />
    <glyph glyph-name="period.tablining" horiz-adv-x="200" 
d="M100 -7c-28 0 -54 24 -54 55s26 54 54 54c29 0 54 -23 54 -54s-25 -55 -54 -55z" />
    <glyph glyph-name="comma.tablining" horiz-adv-x="200" 
d="M43 -112l39 111c-21 7 -36 25 -36 49c0 30 26 54 54 54c29 0 54 -24 54 -54c0 -14 -6 -29 -12 -40l-60 -120h-39z" />
    <glyph glyph-name="colon.tablining" horiz-adv-x="200" 
d="M100 217c-28 0 -54 24 -54 55s26 54 54 54c29 0 54 -23 54 -54s-25 -55 -54 -55zM100 -7c-28 0 -54 24 -54 55s26 54 54 54c29 0 54 -23 54 -54s-25 -55 -54 -55z" />
    <glyph glyph-name="semicolon.tablining" horiz-adv-x="200" 
d="M100 217c-28 0 -54 24 -54 55s26 54 54 54c29 0 54 -23 54 -54s-25 -55 -54 -55zM43 -112l39 111c-21 7 -36 25 -36 49c0 30 26 54 54 54c29 0 54 -24 54 -54c0 -14 -6 -29 -12 -40l-60 -120h-39z" />
    <glyph glyph-name="parenleft.tablining" horiz-adv-x="300" 
d="M217 -135c-83 89 -165 222 -165 426c0 203 82 337 165 426l45 -34c-76 -93 -137 -212 -137 -392s61 -299 137 -392z" />
    <glyph glyph-name="parenright.tablining" horiz-adv-x="300" 
d="M82 -135l-44 34c75 93 136 212 136 392c0 181 -61 299 -136 392l44 34c83 -89 166 -223 166 -426s-83 -337 -166 -426z" />
    <glyph glyph-name="bracketleft.tablining" horiz-adv-x="300" 
d="M73 -128v850h190v-60h-120v-730h120v-60h-190z" />
    <glyph glyph-name="bracketright.tablining" horiz-adv-x="300" 
d="M37 -128v60h119v730h-119v60h190v-850h-190z" />
    <glyph glyph-name="braceleft.tablining" horiz-adv-x="300" 
d="M225 -128c-67 0 -133 27 -133 144v185c0 53 -20 69 -58 69h-33v60h33c38 0 58 17 58 70v178c0 117 66 144 133 144h38v-60h-33c-43 0 -67 -19 -67 -85v-185c0 -62 -28 -83 -65 -92c37 -7 65 -31 65 -92v-191c0 -66 24 -85 67 -85h33v-60h-38z" />
    <glyph glyph-name="braceright.tablining" horiz-adv-x="300" 
d="M36 -128v60h34c42 0 66 19 66 85v191c0 61 28 85 65 92c-37 9 -65 30 -65 92v185c0 66 -24 85 -66 85h-34v60h38c68 0 133 -27 133 -144v-178c0 -53 21 -70 58 -70h33v-60h-33c-37 0 -58 -16 -58 -69v-185c0 -117 -65 -144 -133 -144h-38z" />
    <glyph glyph-name="section.tablining" horiz-adv-x="580" 
d="M137 426c-18 26 -28 57 -28 95c0 96 76 167 185 167c94 0 151 -46 180 -104l-58 -36c-26 49 -62 76 -122 76c-69 0 -110 -43 -110 -100c0 -61 32 -87 92 -114l109 -49c102 -46 143 -95 143 -168c0 -58 -36 -99 -92 -122c21 -27 33 -57 33 -94c0 -91 -62 -157 -188 -157
c-95 0 -168 47 -205 109l57 38c28 -50 76 -83 146 -83c83 0 115 41 115 94c0 52 -37 79 -100 107l-107 48c-94 42 -138 89 -138 165c0 63 37 104 88 128zM396 107c38 14 62 43 62 80c0 49 -30 77 -103 109l-109 49c-27 12 -53 27 -73 46c-33 -16 -53 -47 -53 -83
c0 -53 29 -79 97 -109l106 -48c28 -12 54 -27 73 -44z" />
    <glyph glyph-name="numbersign.tablining" horiz-adv-x="580" 
d="M190 514h-88v57h102l28 109h60s-13 -51 -27 -109h104l28 109h59l-27 -109h83v-57h-97l-29 -113h88v-57h-102l-27 -108h-60l27 108h-105c1 0 -27 -108 -27 -108h-59l27 108h-83v57h97zM355 514h-105c-15 -60 -28 -113 -29 -113h105z" />
    <glyph glyph-name="zero.numerator" horiz-adv-x="474" 
d="M238 225c-116 0 -200 94 -200 231c0 138 84 231 200 231c115 0 198 -93 198 -231c0 -137 -83 -231 -198 -231zM238 283c81 0 130 70 130 173s-49 173 -130 173c-82 0 -132 -70 -132 -173s50 -173 132 -173z" />
    <glyph glyph-name="one.numerator" horiz-adv-x="248" 
d="M110 233v389h-89v58h155v-447h-66z" />
    <glyph glyph-name="two.numerator" horiz-adv-x="385" 
d="M19 233v9l191 191c42 42 64 78 64 121c0 44 -27 74 -78 74c-49 0 -80 -28 -98 -79l-59 19c23 74 78 119 158 119c87 0 143 -56 143 -133c0 -55 -32 -105 -80 -153l-71 -72c-17 -18 -51 -42 -55 -44c2 0 44 5 65 5h142v-57h-322z" />
    <glyph glyph-name="three.numerator" horiz-adv-x="382" 
d="M180 225c-82 0 -139 39 -166 96l56 28c19 -38 54 -65 109 -65c64 0 100 37 100 95c0 60 -39 92 -108 92c-26 0 -49 -5 -62 -10l-5 9l101 123c10 11 36 34 36 34s-36 -3 -52 -3h-134v56h282v-6l-102 -125c-15 -18 -33 -30 -36 -32c87 -4 148 -56 148 -140
c0 -97 -72 -152 -167 -152z" />
    <glyph glyph-name="four.numerator" horiz-adv-x="404" 
d="M263 233v76h-243v36l299 341h8v-326h52v-51h-52v-76h-64zM95 357c0 0 41 3 68 3h100v127c0 34 3 68 3 68s-18 -29 -41 -57l-80 -91c-17 -21 -50 -50 -50 -50z" />
    <glyph glyph-name="five.numerator" horiz-adv-x="384" 
d="M181 225c-78 0 -137 36 -167 95l54 29c21 -39 55 -64 110 -64c62 0 102 35 102 92c0 62 -42 95 -107 95c-48 0 -81 -15 -109 -37l-7 4v241h256v-57h-199v-116c19 11 45 17 73 17c95 0 160 -54 160 -147c0 -94 -65 -152 -166 -152z" />
    <glyph glyph-name="six.numerator" horiz-adv-x="409" 
d="M207 225c-98 0 -169 70 -169 155c0 40 16 76 42 113l133 187h72l-78 -110c-19 -27 -50 -55 -55 -59c20 13 42 22 66 22c92 0 158 -66 158 -151s-68 -157 -169 -157zM207 281c65 0 103 48 103 100c0 54 -37 102 -103 102c-63 0 -103 -47 -103 -102c0 -52 39 -100 103 -100
z" />
    <glyph glyph-name="seven.numerator" horiz-adv-x="385" 
d="M68 233l198 389h-234v58h326v-9l-221 -438h-69z" />
    <glyph glyph-name="eight.numerator" horiz-adv-x="397" 
d="M198 226c-90 0 -162 52 -162 132c0 59 39 99 93 116c-44 16 -67 50 -67 95c0 66 56 117 136 117c82 0 137 -51 137 -117c0 -47 -23 -79 -66 -95c55 -17 92 -57 92 -116c0 -80 -71 -132 -163 -132zM198 282c60 0 97 30 97 81c0 53 -38 85 -97 85c-58 0 -97 -32 -97 -85
c0 -51 37 -81 97 -81zM199 496c48 0 75 29 75 70s-28 69 -76 69c-47 0 -74 -28 -74 -69s28 -70 75 -70z" />
    <glyph glyph-name="nine.numerator" horiz-adv-x="408" 
d="M122 233l80 111c21 28 55 59 55 59c-20 -14 -43 -23 -67 -23c-91 0 -157 66 -157 151s67 157 169 157c97 0 168 -71 168 -155c0 -40 -15 -77 -42 -114l-134 -186h-72zM201 430c64 0 104 47 104 102c0 52 -39 100 -104 100c-64 0 -103 -48 -103 -100
c0 -53 38 -102 103 -102z" />
    <glyph glyph-name="zero.denominator" horiz-adv-x="474" 
d="M238 -8c-116 0 -200 94 -200 232c0 137 84 231 200 231c115 0 198 -94 198 -231c0 -138 -83 -232 -198 -232zM238 51c81 0 130 69 130 173c0 103 -49 173 -130 173c-82 0 -132 -70 -132 -173c0 -104 50 -173 132 -173z" />
    <glyph glyph-name="one.denominator" horiz-adv-x="248" 
d="M110 0v389h-89v58h155v-447h-66z" />
    <glyph glyph-name="two.denominator" horiz-adv-x="378" 
d="M19 0v9l188 193c41 42 60 76 60 119c0 42 -26 74 -75 74c-47 0 -76 -28 -94 -79l-59 19c23 74 77 119 154 119c85 0 140 -55 140 -133c0 -54 -31 -104 -76 -151l-72 -73c-15 -16 -50 -43 -54 -45c2 0 44 5 65 5h138v-57h-315z" />
    <glyph glyph-name="three.denominator" horiz-adv-x="382" 
d="M180 -8c-82 0 -139 39 -166 96l56 28c19 -38 54 -65 109 -65c64 0 100 37 100 95c0 60 -39 92 -108 92c-26 0 -49 -5 -62 -10l-5 9l101 123c10 11 36 34 36 34s-36 -3 -52 -3h-134v56h282v-5l-102 -126c-15 -18 -33 -30 -36 -32c87 -4 148 -56 148 -140
c0 -97 -72 -152 -167 -152z" />
    <glyph glyph-name="four.denominator" horiz-adv-x="404" 
d="M263 0v76h-243v36l299 341h8v-326h52v-51h-52v-76h-64zM143 174c-15 -17 -48 -47 -51 -50c2 0 46 3 69 3h102v138c0 34 3 68 3 68s-19 -32 -41 -57z" />
    <glyph glyph-name="five.denominator" horiz-adv-x="384" 
d="M181 -8c-78 0 -137 36 -167 95l54 29c21 -39 55 -64 110 -64c62 0 102 36 102 92c0 62 -42 95 -107 95c-48 0 -81 -15 -109 -37l-7 4v241h256v-57h-199v-116c19 11 45 18 73 18c95 0 160 -55 160 -148c0 -94 -65 -152 -166 -152z" />
    <glyph glyph-name="six.denominator" horiz-adv-x="409" 
d="M207 -8c-98 0 -169 71 -169 155c0 40 16 76 42 114l133 186h72l-78 -110c-19 -27 -50 -55 -55 -59c20 13 42 22 66 22c92 0 158 -66 158 -151s-68 -157 -169 -157zM207 48c65 0 103 48 103 100c0 54 -37 102 -103 102c-63 0 -103 -47 -103 -102c0 -52 39 -100 103 -100z
" />
    <glyph glyph-name="seven.denominator" horiz-adv-x="385" 
d="M68 0l198 389h-234v58h326v-9l-221 -438h-69z" />
    <glyph glyph-name="eight.denominator" horiz-adv-x="397" 
d="M198 -7c-90 0 -162 52 -162 132c0 59 39 99 93 116c-44 16 -67 51 -67 95c0 66 56 117 136 117c82 0 137 -51 137 -117c0 -46 -23 -79 -66 -95c55 -17 92 -57 92 -116c0 -80 -71 -132 -163 -132zM198 49c60 0 97 31 97 82c0 52 -38 84 -97 84c-58 0 -97 -32 -97 -84
c0 -51 37 -82 97 -82zM199 263c48 0 75 29 75 70s-28 69 -76 69c-47 0 -74 -28 -74 -69s28 -70 75 -70z" />
    <glyph glyph-name="nine.denominator" horiz-adv-x="408" 
d="M122 0l80 111c21 28 55 59 55 59c-20 -14 -43 -23 -67 -23c-91 0 -157 66 -157 151s67 157 169 157c97 0 168 -70 168 -155c0 -40 -15 -77 -42 -114l-134 -186h-72zM201 197c64 0 104 47 104 102c0 52 -39 100 -104 100c-64 0 -103 -48 -103 -100c0 -53 38 -102 103 -102
z" />
    <glyph glyph-name="zero.subscript" horiz-adv-x="403" 
d="M202 -256c-98 0 -169 80 -169 196c0 117 71 196 169 196s168 -79 168 -196c0 -116 -70 -196 -168 -196zM202 -207c69 0 111 59 111 147s-42 147 -111 147s-112 -59 -112 -147s43 -147 112 -147z" />
    <glyph glyph-name="one.subscript" horiz-adv-x="210" 
d="M93 -250v331h-76v49h132v-380h-56z" />
    <glyph glyph-name="two.subscript" horiz-adv-x="321" 
d="M16 -250v8l160 164c35 36 51 64 51 101c0 36 -22 63 -64 63c-40 0 -65 -24 -80 -67l-50 16c20 63 66 101 131 101c72 0 119 -47 119 -113c0 -46 -27 -88 -65 -128l-61 -63c-14 -14 -46 -38 -46 -38s38 4 56 4h117v-48h-268z" />
    <glyph glyph-name="three.subscript" horiz-adv-x="323" 
d="M152 -257c-69 0 -118 34 -141 82l48 24c17 -32 45 -56 92 -56c55 0 86 32 86 82s-33 77 -92 77c-23 0 -43 -3 -54 -9l-5 8l87 105c7 9 30 29 30 29s-31 -3 -44 -3h-113v48h240v-5l-87 -106c-12 -15 -28 -26 -30 -28c74 -3 125 -47 125 -118c0 -83 -61 -130 -142 -130z
" />
    <glyph glyph-name="four.subscript" horiz-adv-x="343" 
d="M224 -250v65h-207v30l254 290h7v-277h44v-43h-44v-65h-54zM78 -145c0 0 39 3 59 3h87v117c0 29 2 58 2 58s-16 -27 -35 -48l-69 -87c-14 -15 -44 -43 -44 -43z" />
    <glyph glyph-name="five.subscript" horiz-adv-x="326" 
d="M153 -257c-67 0 -117 31 -142 81l46 25c18 -34 46 -55 94 -55c52 0 86 30 86 78c0 53 -36 81 -91 81c-41 0 -68 -13 -93 -32l-6 4v205h218v-48h-170v-100c17 10 38 16 63 16c81 0 136 -47 136 -126s-55 -129 -141 -129z" />
    <glyph glyph-name="six.subscript" horiz-adv-x="348" 
d="M176 -257c-83 0 -144 61 -144 132c0 34 14 65 36 97l113 158h61l-66 -94c-15 -21 -39 -42 -46 -49c17 11 36 18 55 18c78 0 135 -56 135 -128s-58 -134 -144 -134zM176 -209c55 0 88 41 88 85c0 46 -32 87 -88 87c-54 0 -88 -40 -88 -87c0 -44 34 -85 88 -85z" />
    <glyph glyph-name="seven.subscript" horiz-adv-x="326" 
d="M58 -250l168 331h-199v49h277v-8l-188 -372h-58z" />
    <glyph glyph-name="eight.subscript" horiz-adv-x="333" 
d="M166 -256c-77 0 -138 45 -138 113c0 50 33 84 78 99c-36 14 -56 42 -56 80c0 56 47 99 116 99c70 0 117 -43 117 -99c0 -39 -21 -67 -57 -81c47 -14 78 -48 78 -98c0 -68 -59 -113 -138 -113zM166 -208c50 0 83 26 83 69c0 45 -33 72 -83 72c-49 0 -83 -27 -83 -72
c0 -43 32 -69 83 -69zM166 -26c41 0 64 25 64 60c0 34 -23 58 -64 58c-40 0 -64 -24 -64 -58c0 -35 25 -60 64 -60z" />
    <glyph glyph-name="nine.subscript" horiz-adv-x="347" 
d="M104 -250l68 94c15 20 36 43 43 49c-16 -11 -34 -18 -53 -18c-77 0 -134 56 -134 128s57 134 144 134c82 0 143 -60 143 -132c0 -34 -13 -66 -36 -97l-114 -158h-61zM171 -83c54 0 88 40 88 87c0 44 -33 85 -88 85c-54 0 -88 -41 -88 -85c0 -45 33 -87 88 -87z" />
    <glyph glyph-name="zero.superscript" horiz-adv-x="403" 
d="M202 294c-98 0 -169 80 -169 196c0 117 71 197 169 197s168 -80 168 -197c0 -116 -70 -196 -168 -196zM202 343c69 0 111 59 111 147s-42 147 -111 147s-112 -59 -112 -147s43 -147 112 -147z" />
    <glyph glyph-name="one.superscript" horiz-adv-x="210" 
d="M93 300v331h-76v49h132v-380h-56z" />
    <glyph glyph-name="two.superscript" horiz-adv-x="327" 
d="M16 300v8l163 162c36 36 54 66 54 103s-23 63 -66 63c-42 0 -69 -24 -84 -67l-50 16c20 63 66 101 134 101c74 0 122 -48 122 -113c0 -47 -27 -89 -68 -130l-60 -61c-15 -16 -47 -38 -47 -38s37 5 55 5h121v-49h-274z" />
    <glyph glyph-name="three.superscript" horiz-adv-x="323" 
d="M152 293c-69 0 -118 34 -141 81l48 25c17 -32 45 -55 92 -55c55 0 86 31 86 80c0 50 -33 79 -92 79c-23 0 -43 -4 -54 -10l-5 8l87 105c7 9 30 29 30 29s-31 -3 -44 -3h-113v48h240v-5l-87 -106c-12 -16 -28 -27 -30 -28c74 -3 125 -47 125 -118
c0 -83 -61 -130 -142 -130z" />
    <glyph glyph-name="four.superscript" horiz-adv-x="343" 
d="M224 300v65h-207v30l254 290h7v-277h44v-43h-44v-65h-54zM81 405c0 0 35 3 58 3h85v108c0 28 2 56 2 57c-1 -1 -16 -25 -35 -48l-68 -77c-14 -18 -42 -43 -42 -43z" />
    <glyph glyph-name="five.superscript" horiz-adv-x="326" 
d="M153 293c-67 0 -117 31 -142 81l46 25c18 -34 46 -55 94 -55c52 0 86 30 86 79c0 52 -36 80 -91 80c-41 0 -68 -13 -93 -32l-6 4v205h218v-48h-170v-99c17 9 38 15 63 15c81 0 136 -47 136 -126s-55 -129 -141 -129z" />
    <glyph glyph-name="six.superscript" horiz-adv-x="348" 
d="M176 293c-83 0 -144 60 -144 132c0 34 14 65 36 96l113 159h61l-66 -93c-15 -21 -39 -43 -46 -49c17 11 36 17 55 17c78 0 135 -56 135 -128s-58 -134 -144 -134zM176 341c55 0 88 41 88 85c0 46 -32 87 -88 87c-54 0 -88 -40 -88 -87c0 -44 34 -85 88 -85z" />
    <glyph glyph-name="seven.superscript" horiz-adv-x="326" 
d="M58 300l168 331h-199v49h277v-8l-188 -372h-58z" />
    <glyph glyph-name="eight.superscript" horiz-adv-x="333" 
d="M166 294c-77 0 -138 44 -138 112c0 50 33 85 78 99c-36 14 -56 42 -56 81c0 55 47 99 116 99c70 0 117 -44 117 -99c0 -40 -21 -67 -57 -81c47 -14 78 -49 78 -99c0 -68 -59 -112 -138 -112zM166 341c50 0 83 26 83 70c0 45 -33 71 -83 71c-49 0 -83 -26 -83 -71
c0 -44 32 -70 83 -70zM166 524c41 0 64 24 64 59c0 34 -23 59 -64 59c-40 0 -64 -25 -64 -59c0 -35 25 -59 64 -59z" />
    <glyph glyph-name="nine.superscript" horiz-adv-x="347" 
d="M104 300l68 94c15 20 36 42 43 49c-16 -11 -34 -18 -53 -18c-77 0 -134 56 -134 128s57 134 144 134c82 0 143 -61 143 -132c0 -34 -13 -66 -36 -97l-114 -158h-61zM171 468c54 0 88 39 88 86c0 44 -33 85 -88 85c-54 0 -88 -41 -88 -85c0 -45 33 -86 88 -86z" />
    <glyph glyph-name="G.alt" horiz-adv-x="762" 
d="M396 -8c-196 0 -351 144 -351 348s156 348 350 348c116 0 216 -43 276 -137l-57 -41c-47 74 -122 113 -219 113c-159 0 -275 -121 -275 -283s117 -283 276 -283c154 0 240 93 256 199h-243v64h321c-3 -197 -129 -328 -334 -328z" />
    <glyph glyph-name="M.alt" horiz-adv-x="833" 
d="M65 0l75 688h10l233 -393c17 -28 34 -70 34 -70s17 42 34 70l233 393h9l75 -688h-73l-47 415c-5 41 -6 100 -6 101c-1 -3 -21 -58 -43 -96l-180 -306h-8l-179 306c-21 35 -42 92 -44 97c0 -1 -1 -61 -6 -102l-47 -415h-70z" />
    <glyph glyph-name="Q.alt1" horiz-adv-x="807" 
d="M438 -6v-155h-69v154c-177 16 -315 154 -315 347c0 205 156 348 349 348c194 0 350 -143 350 -348c0 -193 -138 -330 -315 -346zM369 56v144h69v-144c141 16 240 130 240 284c0 162 -116 283 -275 283c-158 0 -274 -121 -274 -283c0 -154 100 -268 240 -284z" />
    <glyph glyph-name="Q.alt2" horiz-adv-x="806" 
d="M440 1c43 -35 82 -66 145 -66c50 0 81 24 100 45l49 -44c-29 -34 -74 -66 -148 -66c-84 0 -144 48 -194 87c-44 33 -90 66 -147 66c-56 0 -95 -33 -121 -73l-49 40c24 37 60 67 107 81c-79 59 -129 154 -129 269c0 205 156 348 349 348c194 0 350 -143 350 -348
c0 -191 -137 -323 -312 -339zM402 59c159 0 275 120 275 281c0 162 -116 283 -275 283c-158 0 -274 -121 -274 -283c0 -161 116 -281 274 -281z" />
    <glyph glyph-name="a.alt" horiz-adv-x="548" 
d="M246 -8c-111 0 -198 92 -198 216c0 123 86 215 199 215c77 0 129 -40 158 -98l-2 89h70v-414h-70l2 89c-28 -55 -84 -97 -159 -97zM261 53c87 0 144 65 144 154c0 88 -57 154 -144 154s-140 -64 -140 -153c0 -90 53 -155 140 -155z" />
    <glyph glyph-name="g.alt" horiz-adv-x="471" 
d="M294 414h150v-53h-81c21 -22 33 -51 33 -85c0 -85 -65 -148 -161 -148c-32 0 -61 6 -85 19c-22 -6 -34 -22 -34 -42c0 -27 19 -40 54 -42l106 -8c118 -9 174 -52 174 -131c0 -90 -83 -147 -220 -147c-133 0 -212 53 -212 136c0 57 40 90 98 108c-39 13 -58 41 -58 77
c0 35 22 62 57 76c-29 25 -45 61 -45 102c0 86 69 147 165 147c21 0 41 -3 59 -9zM234 182c62 0 99 38 99 94s-37 93 -99 93c-63 0 -100 -37 -100 -93s37 -94 100 -94zM160 0c-44 -13 -73 -39 -73 -81c0 -55 47 -86 143 -86c93 0 149 32 149 88c0 46 -27 66 -115 72z" />
    <glyph glyph-name="u.alt" horiz-adv-x="506" 
d="M252 -9c-114 0 -182 71 -182 192v231h70v-228c0 -86 34 -133 113 -133c80 0 114 47 114 133v228h69v-231c0 -121 -71 -192 -184 -192z" />
    <glyph glyph-name="Gbreve.alt" horiz-adv-x="762" 
d="M396 -8c-196 0 -351 144 -351 348s156 348 350 348c116 0 216 -43 276 -137l-57 -41c-47 74 -122 113 -219 113c-159 0 -275 -121 -275 -283s117 -283 276 -283c154 0 240 93 256 199h-243v64h321c-3 -197 -129 -328 -334 -328zM396 750c-77 0 -121 50 -131 117l56 9
c9 -39 28 -71 75 -71s66 32 75 71l56 -9c-10 -67 -54 -117 -131 -117z" />
    <glyph glyph-name="Gcircumflex.alt" horiz-adv-x="762" 
d="M263 754l128 193h9l128 -193h-58l-74 101l-75 -101h-58zM396 -8c-196 0 -351 144 -351 348s156 348 350 348c116 0 216 -43 276 -137l-57 -41c-47 74 -122 113 -219 113c-159 0 -275 -121 -275 -283s117 -283 276 -283c154 0 240 93 256 199h-243v64h321
c-3 -197 -129 -328 -334 -328z" />
    <glyph glyph-name="Gcommaaccent.alt" horiz-adv-x="785" 
d="M346 -256l32 99c-17 6 -32 24 -32 47c0 29 25 51 51 51c27 0 52 -22 52 -51c0 -13 -5 -26 -12 -39l-53 -107h-38zM396 -8c-196 0 -351 144 -351 348s156 348 350 348c116 0 216 -43 276 -137l-57 -41c-47 74 -122 113 -219 113c-159 0 -275 -121 -275 -283
s117 -283 276 -283c154 0 240 93 256 199h-243v64h321c-3 -197 -129 -328 -334 -328z" />
    <glyph glyph-name="Gdotaccent.alt" horiz-adv-x="785" 
d="M396 -8c-196 0 -351 144 -351 348s156 348 350 348c116 0 216 -43 276 -137l-57 -41c-47 74 -122 113 -219 113c-159 0 -275 -121 -275 -283s117 -283 276 -283c154 0 240 93 256 199h-243v64h321c-3 -197 -129 -328 -334 -328zM396 756c-26 0 -50 20 -50 49s24 50 50 50
s50 -21 50 -50s-24 -49 -50 -49z" />
    <glyph glyph-name="aacute.alt" horiz-adv-x="548" 
d="M246 498l68 193h80l-93 -193h-55zM246 -8c-111 0 -198 92 -198 216c0 123 86 215 199 215c77 0 129 -40 158 -98l-2 89h70v-414h-70l2 89c-28 -55 -84 -97 -159 -97zM261 53c87 0 144 65 144 154c0 88 -57 154 -144 154s-140 -64 -140 -153c0 -90 53 -155 140 -155z" />
    <glyph glyph-name="abreve.alt" horiz-adv-x="548" 
d="M246 -8c-111 0 -198 92 -198 216c0 123 86 215 199 215c77 0 129 -40 158 -98l-2 89h70v-414h-70l2 89c-28 -55 -84 -97 -159 -97zM261 53c87 0 144 65 144 154c0 88 -57 154 -144 154s-140 -64 -140 -153c0 -90 53 -155 140 -155zM274 499c-77 0 -121 50 -131 117l56 9
c9 -39 28 -71 75 -71s66 32 75 71l56 -9c-10 -67 -54 -117 -131 -117z" />
    <glyph glyph-name="acircumflex.alt" horiz-adv-x="548" 
d="M141 503l128 193h9l128 -193h-58l-74 101l-75 -101h-58zM246 -8c-111 0 -198 92 -198 216c0 123 86 215 199 215c77 0 129 -40 158 -98l-2 89h70v-414h-70l2 89c-28 -55 -84 -97 -159 -97zM261 53c87 0 144 65 144 154c0 88 -57 154 -144 154s-140 -64 -140 -153
c0 -90 53 -155 140 -155z" />
    <glyph glyph-name="adieresis.alt" horiz-adv-x="548" 
d="M359 537c-24 0 -46 20 -46 46c0 25 22 46 46 46s46 -21 46 -46c0 -26 -22 -46 -46 -46zM189 537c-24 0 -46 20 -46 46c0 25 22 46 46 46s46 -21 46 -46c0 -26 -22 -46 -46 -46zM246 -8c-111 0 -198 92 -198 216c0 123 86 215 199 215c77 0 129 -40 158 -98l-2 89h70v-414
h-70l2 89c-28 -55 -84 -97 -159 -97zM261 53c87 0 144 65 144 154c0 88 -57 154 -144 154s-140 -64 -140 -153c0 -90 53 -155 140 -155z" />
    <glyph glyph-name="agrave.alt" horiz-adv-x="548" 
d="M246 -8c-111 0 -198 92 -198 216c0 123 86 215 199 215c77 0 129 -40 158 -98l-2 89h70v-414h-70l2 89c-28 -55 -84 -97 -159 -97zM261 53c87 0 144 65 144 154c0 88 -57 154 -144 154s-140 -64 -140 -153c0 -90 53 -155 140 -155zM246 498l-93 193h80l68 -193h-55z" />
    <glyph glyph-name="amacron.alt" horiz-adv-x="548" 
d="M246 -8c-111 0 -198 92 -198 216c0 123 86 215 199 215c77 0 129 -40 158 -98l-2 89h70v-414h-70l2 89c-28 -55 -84 -97 -159 -97zM261 53c87 0 144 65 144 154c0 88 -57 154 -144 154s-140 -64 -140 -153c0 -90 53 -155 140 -155zM159 539v55h230v-55h-230z" />
    <glyph glyph-name="aogonek.alt" horiz-adv-x="548" 
d="M428 -59c-21 -34 -31 -53 -31 -83c0 -28 18 -41 39 -41c26 0 40 17 51 35l44 -25c-17 -33 -47 -59 -98 -59c-49 0 -93 29 -93 88c0 41 20 73 41 101l21 29c0 -1 3 103 3 103c-28 -55 -84 -97 -159 -97c-111 0 -198 92 -198 216c0 123 86 215 199 215
c77 0 129 -40 158 -98l-2 89h70v-399zM261 53c87 0 144 65 144 154c0 88 -57 154 -144 154s-140 -64 -140 -153c0 -90 53 -155 140 -155z" />
    <glyph glyph-name="aring.alt" horiz-adv-x="547" 
d="M274 484c-59 0 -105 45 -105 100c0 56 46 101 105 101s105 -45 105 -101c0 -55 -46 -100 -105 -100zM274 528c31 0 53 22 53 56c0 35 -22 56 -53 56s-53 -21 -53 -56c0 -34 22 -56 53 -56zM246 -8c-111 0 -198 92 -198 216c0 123 86 215 199 215c77 0 129 -40 158 -98
l-2 89h70v-414h-70l2 89c-28 -55 -84 -97 -159 -97zM261 53c87 0 144 65 144 154c0 88 -57 154 -144 154s-140 -64 -140 -153c0 -90 53 -155 140 -155z" />
    <glyph glyph-name="atilde.alt" horiz-adv-x="548" 
d="M246 -8c-111 0 -198 92 -198 216c0 123 86 215 199 215c77 0 129 -40 158 -98l-2 89h70v-414h-70l2 89c-28 -55 -84 -97 -159 -97zM261 53c87 0 144 65 144 154c0 88 -57 154 -144 154s-140 -64 -140 -153c0 -90 53 -155 140 -155zM180 509l-52 4c4 72 38 111 87 111
c28 0 47 -13 69 -32c25 -22 32 -28 48 -28c21 0 32 18 36 58l52 -5c-4 -71 -36 -110 -86 -110c-28 0 -47 14 -69 33c-25 22 -32 28 -48 28c-20 0 -33 -19 -37 -59z" />
    <glyph glyph-name="gbreve.alt" horiz-adv-x="471" 
d="M294 414h150v-53h-81c21 -22 33 -51 33 -85c0 -85 -65 -148 -161 -148c-32 0 -61 6 -85 19c-22 -6 -34 -22 -34 -42c0 -27 19 -40 54 -42l106 -8c118 -9 174 -52 174 -131c0 -90 -83 -147 -220 -147c-133 0 -212 53 -212 136c0 57 40 90 98 108c-39 13 -58 41 -58 77
c0 35 22 62 57 76c-29 25 -45 61 -45 102c0 86 69 147 165 147c21 0 41 -3 59 -9zM234 182c62 0 99 38 99 94s-37 93 -99 93c-63 0 -100 -37 -100 -93s37 -94 100 -94zM160 0c-44 -13 -73 -39 -73 -81c0 -55 47 -86 143 -86c93 0 149 32 149 88c0 46 -27 66 -115 72z
M244 499c-77 0 -121 50 -131 117l56 9c9 -39 28 -71 75 -71s66 32 75 71l56 -9c-10 -67 -54 -117 -131 -117z" />
    <glyph glyph-name="gcircumflex.alt" horiz-adv-x="471" 
d="M112 503l128 193h9l128 -193h-58l-74 101l-75 -101h-58zM294 414h150v-53h-81c21 -22 33 -51 33 -85c0 -85 -65 -148 -161 -148c-32 0 -61 6 -85 19c-22 -6 -34 -22 -34 -42c0 -27 19 -40 54 -42l106 -8c118 -9 174 -52 174 -131c0 -90 -83 -147 -220 -147
c-133 0 -212 53 -212 136c0 57 40 90 98 108c-39 13 -58 41 -58 77c0 35 22 62 57 76c-29 25 -45 61 -45 102c0 86 69 147 165 147c21 0 41 -3 59 -9zM234 182c62 0 99 38 99 94s-37 93 -99 93c-63 0 -100 -37 -100 -93s37 -94 100 -94zM160 0c-44 -13 -73 -39 -73 -81
c0 -55 47 -86 143 -86c93 0 149 32 149 88c0 46 -27 66 -115 72z" />
    <glyph glyph-name="gcommaaccent.alt" horiz-adv-x="472" 
d="M294 723l-32 -99c17 -6 32 -24 32 -47c0 -29 -25 -51 -51 -51c-27 0 -52 22 -52 51c0 13 5 26 12 39l53 107h38zM294 414h150v-53h-81c21 -22 33 -51 33 -85c0 -85 -65 -148 -161 -148c-32 0 -61 6 -85 19c-22 -6 -34 -22 -34 -42c0 -27 19 -40 54 -42l106 -8
c118 -9 174 -52 174 -131c0 -90 -83 -147 -220 -147c-133 0 -212 53 -212 136c0 57 40 90 98 108c-39 13 -58 41 -58 77c0 35 22 62 57 76c-29 25 -45 61 -45 102c0 86 69 147 165 147c21 0 41 -3 59 -9zM234 182c62 0 99 38 99 94s-37 93 -99 93c-63 0 -100 -37 -100 -93
s37 -94 100 -94zM160 0c-44 -13 -73 -39 -73 -81c0 -55 47 -86 143 -86c93 0 149 32 149 88c0 46 -27 66 -115 72z" />
    <glyph glyph-name="gdotaccent.alt" horiz-adv-x="472" 
d="M294 414h150v-53h-81c21 -22 33 -51 33 -85c0 -85 -65 -148 -161 -148c-32 0 -61 6 -85 19c-22 -6 -34 -22 -34 -42c0 -27 19 -40 54 -42l106 -8c118 -9 174 -52 174 -131c0 -90 -83 -147 -220 -147c-133 0 -212 53 -212 136c0 57 40 90 98 108c-39 13 -58 41 -58 77
c0 35 22 62 57 76c-29 25 -45 61 -45 102c0 86 69 147 165 147c21 0 41 -3 59 -9zM234 182c62 0 99 38 99 94s-37 93 -99 93c-63 0 -100 -37 -100 -93s37 -94 100 -94zM160 0c-44 -13 -73 -39 -73 -81c0 -55 47 -86 143 -86c93 0 149 32 149 88c0 46 -27 66 -115 72z
M245 534c-26 0 -50 20 -50 49s24 50 50 50s50 -21 50 -50s-24 -49 -50 -49z" />
    <glyph glyph-name="uacute.alt" horiz-adv-x="506" 
d="M225 498l68 193h80l-93 -193h-55zM252 -9c-114 0 -182 71 -182 192v231h70v-228c0 -86 34 -133 113 -133c80 0 114 47 114 133v228h69v-231c0 -121 -71 -192 -184 -192z" />
    <glyph glyph-name="ubreve.alt" horiz-adv-x="506" 
d="M252 -9c-114 0 -182 71 -182 192v231h70v-228c0 -86 34 -133 113 -133c80 0 114 47 114 133v228h69v-231c0 -121 -71 -192 -184 -192zM253 499c-77 0 -121 50 -131 117l56 9c9 -39 28 -71 75 -71s66 32 75 71l56 -9c-10 -67 -54 -117 -131 -117z" />
    <glyph glyph-name="ucircumflex.alt" horiz-adv-x="506" 
d="M120 503l128 193h9l128 -193h-58l-74 101l-75 -101h-58zM252 -9c-114 0 -182 71 -182 192v231h70v-228c0 -86 34 -133 113 -133c80 0 114 47 114 133v228h69v-231c0 -121 -71 -192 -184 -192z" />
    <glyph glyph-name="udieresis.alt" horiz-adv-x="506" 
d="M338 537c-24 0 -46 20 -46 46c0 25 22 46 46 46s46 -21 46 -46c0 -26 -22 -46 -46 -46zM168 537c-24 0 -46 20 -46 46c0 25 22 46 46 46s46 -21 46 -46c0 -26 -22 -46 -46 -46zM252 -9c-114 0 -182 71 -182 192v231h70v-228c0 -86 34 -133 113 -133c80 0 114 47 114 133
v228h69v-231c0 -121 -71 -192 -184 -192z" />
    <glyph glyph-name="ugrave.alt" horiz-adv-x="506" 
d="M225 498l-93 193h80l68 -193h-55zM252 -9c-114 0 -182 71 -182 192v231h70v-228c0 -86 34 -133 113 -133c80 0 114 47 114 133v228h69v-231c0 -121 -71 -192 -184 -192z" />
    <glyph glyph-name="uhungarumlaut.alt" horiz-adv-x="507" 
d="M295 505l68 193h76l-89 -193h-55zM157 505l67 193h76l-88 -193h-55zM252 -9c-114 0 -182 71 -182 192v231h70v-228c0 -86 34 -133 113 -133c80 0 114 47 114 133v228h69v-231c0 -121 -71 -192 -184 -192z" />
    <glyph glyph-name="umacron.alt" horiz-adv-x="506" 
d="M138 539v55h230v-55h-230zM252 -9c-114 0 -182 71 -182 192v231h70v-228c0 -86 34 -133 113 -133c80 0 114 47 114 133v228h69v-231c0 -121 -71 -192 -184 -192z" />
    <glyph glyph-name="uogonek.alt" horiz-adv-x="506" 
d="M236 -9c-104 7 -166 77 -166 192v231h70v-228c0 -86 34 -133 113 -133c80 0 114 47 114 133v228h69v-231c0 -107 -56 -175 -147 -189l-32 -53c-21 -34 -31 -53 -31 -83c0 -28 18 -41 39 -41c26 0 40 17 51 35l44 -25c-17 -33 -47 -59 -98 -59c-49 0 -93 29 -93 88
c0 41 20 73 41 101z" />
    <glyph glyph-name="uring.alt" horiz-adv-x="507" 
d="M253 484c-59 0 -105 45 -105 100c0 56 46 101 105 101s105 -45 105 -101c0 -55 -46 -100 -105 -100zM253 528c31 0 53 22 53 56c0 35 -22 56 -53 56s-53 -21 -53 -56c0 -34 22 -56 53 -56zM252 -9c-114 0 -182 71 -182 192v231h70v-228c0 -86 34 -133 113 -133
c80 0 114 47 114 133v228h69v-231c0 -121 -71 -192 -184 -192z" />
    <glyph glyph-name="f_b.alt" horiz-adv-x="834" 
d="M587 -8c-75 0 -135 40 -162 97l2 -89h-70v565c0 75 -37 107 -92 107s-94 -32 -94 -107v-151h106v-59h-106v-355h-70v355h-67v59h67v152c0 112 78 169 164 169c85 0 162 -51 162 -165v-241c29 55 83 94 161 94c112 0 198 -92 198 -215c0 -124 -87 -216 -199 -216zM571 53
c87 0 142 65 142 155c0 89 -55 153 -142 153c-89 0 -147 -64 -147 -153c0 -90 58 -155 147 -155z" />
    <glyph glyph-name="f_f_b.alt" horiz-adv-x="1090" 
d="M427 414h106v-59h-106v-355h-70v355h-186v-355h-70v355h-67v59h67v168c0 93 47 133 114 133c49 0 81 -17 102 -44l-45 -44c-12 15 -26 25 -50 25c-30 0 -51 -16 -51 -70v-168h186v152c0 112 78 169 164 169c85 0 162 -51 162 -165v-241c29 55 83 94 161 94
c112 0 198 -92 198 -215c0 -124 -86 -216 -199 -216c-75 0 -135 40 -162 97l2 -89h-70v565c0 75 -37 107 -92 107s-94 -32 -94 -107v-151zM827 53c87 0 142 65 142 155c0 89 -55 153 -142 153c-89 0 -147 -64 -147 -153c0 -90 58 -155 147 -155z" />
    <glyph glyph-name="f_f_f_l.alt" horiz-adv-x="1019" 
d="M357 355h-186v-355h-70v355h-67v59h67v168c0 93 47 133 114 133c49 0 81 -17 102 -44l-45 -44c-12 15 -26 25 -50 25c-30 0 -51 -16 -51 -70v-168h186v178c0 93 47 133 114 133c49 0 81 -17 102 -44l-45 -44c-12 15 -26 25 -50 25c-30 0 -51 -16 -51 -70v-178h186v152
c0 112 78 169 164 169s162 -51 162 -165v-570h-70v565c0 75 -37 107 -92 107s-94 -32 -94 -107v-151h106v-59h-106v-355h-70v355h-186v-355h-70v355z" />
    <glyph glyph-name="f_f_h.alt" horiz-adv-x="1055" 
d="M357 414v152c0 112 78 169 164 169c85 0 162 -51 162 -165v-237c27 55 80 90 148 90c91 0 154 -63 154 -171v-252h-69v244c0 73 -34 115 -103 115c-77 0 -130 -49 -130 -131v-228h-70v565c0 75 -37 107 -92 107s-94 -32 -94 -107v-151h106v-59h-106v-355h-70v355h-186
v-355h-70v355h-67v59h67v168c0 93 47 133 114 133c49 0 81 -17 102 -44l-45 -44c-12 15 -26 25 -50 25c-30 0 -51 -16 -51 -70v-168h186z" />
    <glyph glyph-name="f_f_k.alt" horiz-adv-x="1003" 
d="M357 414v152c0 112 78 169 164 169c85 0 162 -51 162 -165v-311c0 -21 -2 -42 -4 -58l196 213h81l-159 -174l184 -240h-83l-150 194l-65 -68v-126h-70v565c0 75 -37 107 -92 107s-94 -32 -94 -107v-151h106v-59h-106v-355h-70v355h-186v-355h-70v355h-67v59h67v168
c0 93 47 133 114 133c49 0 81 -17 102 -44l-45 -44c-12 15 -26 25 -50 25c-30 0 -51 -16 -51 -70v-168h186z" />
    <glyph glyph-name="ffl.alt" horiz-adv-x="763" 
d="M101 0v355h-67v59h67v168c0 93 47 133 114 133c49 0 81 -17 102 -44l-45 -44c-12 15 -26 25 -50 25c-30 0 -51 -16 -51 -70v-168h186v152c0 112 78 169 164 169c85 0 162 -51 162 -165v-570h-70v565c0 75 -37 107 -92 107s-94 -32 -94 -107v-151h106v-59h-106v-355h-70
v355h-186v-355h-70z" />
    <glyph glyph-name="f_h.alt" horiz-adv-x="799" 
d="M101 0v355h-67v59h67v152c0 112 78 169 164 169c85 0 162 -51 162 -165v-237c27 55 80 90 148 90c91 0 154 -63 154 -171v-252h-69v244c0 73 -34 115 -103 115c-78 0 -130 -49 -130 -131v-228h-70v565c0 75 -37 107 -92 107s-94 -32 -94 -107v-151h106v-59h-106v-355h-70
z" />
    <glyph glyph-name="f_k.alt" horiz-adv-x="747" 
d="M427 126v-126h-70v565c0 75 -37 107 -92 107s-94 -32 -94 -107v-151h106v-59h-106v-355h-70v355h-67v59h67v152c0 112 78 169 164 169c85 0 162 -51 162 -165v-311c0 -21 -2 -42 -4 -58l196 213h81l-159 -174l184 -240h-83l-150 194z" />
    <glyph glyph-name="fl.alt" horiz-adv-x="507" 
d="M101 0v355h-67v59h67v152c0 112 78 169 164 169c85 0 162 -51 162 -165v-570h-70v565c0 75 -37 107 -92 107s-94 -32 -94 -107v-151h106v-59h-106v-355h-70z" />
    <glyph glyph-name="space.up" horiz-adv-x="237" 
 />
    <glyph glyph-name="hyphen.up" horiz-adv-x="305" 
d="M46 234v63h213v-63h-213z" />
    <glyph glyph-name="endash.up" horiz-adv-x="453" 
d="M43 235v62h366v-62h-366z" />
    <glyph glyph-name="emdash.up" horiz-adv-x="705" 
d="M43 235v62h619v-62h-619z" />
    <glyph glyph-name="guilsinglleft.up" horiz-adv-x="242" 
d="M132 84l-94 158v8l94 158h72l-96 -162l96 -162h-72z" />
    <glyph glyph-name="guilsinglright.up" horiz-adv-x="242" 
d="M38 84l96 161l-96 163h72l94 -159v-8l-94 -157h-72z" />
    <glyph glyph-name="guillemotleft.up" horiz-adv-x="397" 
d="M287 84l-94 158v8l94 158h72l-96 -162l96 -162h-72zM132 84l-94 158v8l94 158h72l-96 -162l96 -162h-72z" />
    <glyph glyph-name="guillemotright.up" horiz-adv-x="397" 
d="M193 84l96 161l-96 163h72l94 -159v-8l-94 -157h-72zM38 84l96 161l-96 163h72l94 -159v-8l-94 -157h-72z" />
    <glyph glyph-name="at.up" horiz-adv-x="886" 
d="M448 -105c-223 0 -399 158 -399 396c0 230 182 397 398 397c226 0 390 -159 390 -369c0 -154 -66 -224 -155 -224c-63 0 -105 30 -116 93c-29 -64 -79 -96 -144 -96c-99 0 -175 80 -175 191s76 194 174 194c65 0 109 -35 133 -86l-2 77h69v-232c0 -56 16 -87 63 -87
c52 0 91 49 91 169c0 181 -126 314 -328 314c-196 0 -332 -149 -332 -341c0 -195 130 -340 333 -340c59 0 116 14 164 40l26 -51c-56 -30 -118 -45 -190 -45zM436 150c67 0 118 60 118 133c0 74 -51 135 -118 135c-70 0 -118 -59 -118 -135c0 -74 48 -133 118 -133z" />
    <glyph glyph-name="A.sc" horiz-adv-x="513" 
d="M165 152h179l-64 157c-13 30 -25 76 -25 78c-1 -2 -14 -48 -26 -78zM35 0l216 510h10l217 -510h-74l-40 99h-221l-40 -99h-68z" />
    <glyph glyph-name="B.sc" horiz-adv-x="483" 
d="M75 0v504h184c97 0 144 -57 144 -126c0 -49 -22 -86 -67 -102c63 -16 103 -63 103 -131c0 -85 -57 -145 -163 -145h-201zM144 59h127c69 0 97 38 97 92c0 53 -30 92 -98 92h-126v-184zM144 298h116c53 0 74 29 74 74c0 43 -23 73 -82 73h-108v-147z" />
    <glyph glyph-name="C.sc" horiz-adv-x="568" 
d="M307 -8c-146 0 -257 109 -257 260s113 260 258 260c96 0 159 -36 205 -102l-55 -38c-33 47 -79 78 -150 78c-109 0 -186 -86 -186 -198s77 -198 185 -198c76 0 129 34 161 83l56 -35c-43 -69 -116 -110 -217 -110z" />
    <glyph glyph-name="D.sc" horiz-adv-x="531" 
d="M75 0v504h137c164 0 269 -101 269 -252s-105 -252 -269 -252h-137zM146 62h61c138 0 202 77 202 190c0 112 -64 190 -202 190h-61v-380z" />
    <glyph glyph-name="E.sc" horiz-adv-x="456" 
d="M75 0v504h319v-62h-248v-158h218v-59h-218v-164h258v-61h-329z" />
    <glyph glyph-name="F.sc" horiz-adv-x="439" 
d="M75 0v504h315v-62h-244v-178h221v-62h-221v-202h-71z" />
    <glyph glyph-name="G.sc" horiz-adv-x="572" 
d="M317 -8c-155 0 -267 110 -267 260c0 152 116 260 260 260c83 0 142 -28 183 -71l-46 -47c-30 33 -73 56 -137 56c-112 0 -188 -87 -188 -198c0 -112 73 -200 195 -200c62 0 106 20 133 40v96h-137v59h203v-190c-36 -30 -101 -65 -199 -65z" />
    <glyph glyph-name="H.sc" horiz-adv-x="542" 
d="M75 0v504h71v-225h251v225h70v-504h-70v216h-251v-216h-71z" />
    <glyph glyph-name="I.sc" horiz-adv-x="226" 
d="M78 0v504h70v-504h-70z" />
    <glyph glyph-name="J.sc" horiz-adv-x="389" 
d="M171 -8c-74 0 -118 40 -141 86l57 34c19 -34 41 -58 82 -58c46 0 76 25 76 85v365h70v-368c0 -98 -62 -144 -144 -144z" />
    <glyph glyph-name="K.sc" horiz-adv-x="496" 
d="M75 0v504h71v-204c0 -33 -5 -78 -8 -99c14 23 38 66 58 91l168 212h79l-181 -226l209 -278h-85l-172 227l-68 -82v-145h-71z" />
    <glyph glyph-name="L.sc" horiz-adv-x="422" 
d="M75 0v504h71v-442h235v-62h-306z" />
    <glyph glyph-name="M.sc" horiz-adv-x="642" 
d="M74 0v510h9l239 -288l236 288h9v-510h-69v276c0 35 5 82 6 87c-2 -4 -26 -49 -50 -78l-129 -157h-8l-129 157c-23 27 -48 72 -51 78c0 -4 6 -53 6 -87v-276h-69z" />
    <glyph glyph-name="N.sc" horiz-adv-x="551" 
d="M466 -7l-278 306c-25 26 -51 64 -54 69c0 -4 7 -47 7 -84v-284h-66v510h10l275 -303c26 -29 52 -67 55 -71c0 2 -5 47 -5 84v284h66v-511h-10z" />
    <glyph glyph-name="O.sc" horiz-adv-x="628" 
d="M314 -8c-144 0 -265 108 -265 260c0 153 121 260 265 260c145 0 265 -107 265 -260c0 -152 -120 -260 -265 -260zM314 54c113 0 193 84 193 198c0 113 -80 198 -193 198c-112 0 -193 -85 -193 -198c0 -114 81 -198 193 -198z" />
    <glyph glyph-name="P.sc" horiz-adv-x="468" 
d="M75 0v504h153c123 0 198 -57 198 -165c0 -107 -75 -164 -198 -164h-82v-175h-71zM146 235h79c91 0 129 38 129 104c0 69 -39 104 -129 104h-79v-208z" />
    <glyph glyph-name="Q.sc" horiz-adv-x="628" 
d="M528 -53l-76 84c-40 -25 -87 -39 -138 -39c-144 0 -265 108 -265 260c0 153 121 260 265 260c145 0 265 -107 265 -260c0 -74 -30 -139 -78 -185l75 -80zM314 53c37 0 68 9 95 26l-74 79l48 40l76 -83c31 34 48 82 48 137c0 113 -80 198 -193 198
c-112 0 -193 -85 -193 -198c0 -114 81 -199 193 -199z" />
    <glyph glyph-name="R.sc" horiz-adv-x="480" 
d="M75 0v504h153c121 0 198 -56 198 -161c0 -75 -42 -126 -114 -146l126 -197h-81l-117 186c-6 -1 -12 -1 -18 -1h-76v-185h-71zM146 243h79c89 0 129 34 129 100c0 67 -41 100 -129 100h-79v-200z" />
    <glyph glyph-name="S.sc" horiz-adv-x="426" 
d="M215 -8c-94 0 -158 50 -186 108l57 32c22 -44 61 -80 128 -80c57 0 98 30 98 76c0 47 -27 70 -91 98l-40 18c-71 30 -116 69 -116 142c0 78 62 126 141 126c70 0 114 -29 145 -76l-53 -36c-21 31 -47 53 -90 53c-45 0 -75 -24 -75 -66c0 -39 22 -59 71 -81l41 -18
c85 -37 137 -78 137 -159c0 -84 -67 -137 -167 -137z" />
    <glyph glyph-name="T.sc" horiz-adv-x="457" 
d="M193 0v442h-156v62h383v-62h-156v-442h-71z" />
    <glyph glyph-name="U.sc" horiz-adv-x="520" 
d="M261 -8c-111 0 -190 64 -190 187v325h71v-322c0 -88 44 -128 118 -128s119 40 119 128v322h70v-325c0 -123 -79 -187 -188 -187z" />
    <glyph glyph-name="V.sc" horiz-adv-x="513" 
d="M252 -6l-218 510h77l120 -287c15 -35 29 -92 29 -92s13 57 28 92l119 287h72l-216 -510h-11z" />
    <glyph glyph-name="W.sc" horiz-adv-x="728" 
d="M206 -6l-173 510h76l92 -278c10 -31 19 -76 21 -82c1 4 10 50 24 82l115 284h9l116 -283c16 -38 26 -83 26 -83s8 46 20 83l92 277h71l-172 -510h-9l-125 303c-13 30 -22 68 -23 71c-1 -4 -11 -42 -23 -71l-127 -303h-10z" />
    <glyph glyph-name="X.sc" horiz-adv-x="510" 
d="M38 0l174 275l-145 229h79l81 -129c16 -28 27 -60 28 -63c1 4 13 36 28 63l79 129h78l-144 -229l176 -275h-80l-106 168c-17 26 -33 62 -34 65c-1 -3 -14 -40 -30 -65l-105 -168h-79z" />
    <glyph glyph-name="Y.sc" horiz-adv-x="482" 
d="M207 0v186l-174 318h80l97 -181c18 -34 33 -82 34 -86c1 3 17 53 34 86l96 181h75l-171 -316v-188h-71z" />
    <glyph glyph-name="Z.sc" horiz-adv-x="464" 
d="M41 0v9l267 433h-231v62h341v-9l-267 -434h262v-61h-372z" />
    <glyph glyph-name="Oslash.sc" horiz-adv-x="628" 
d="M522 416c36 -43 57 -100 57 -164c0 -152 -120 -260 -265 -260c-63 0 -122 21 -168 57l-59 -57l-38 39l58 56c-36 44 -58 101 -58 165c0 153 121 260 265 260c64 0 124 -21 170 -58l58 57l38 -39s-57 -56 -58 -56zM154 133l284 276c-33 27 -75 42 -124 42
c-113 0 -194 -85 -194 -199c0 -46 12 -86 34 -119zM474 369l-283 -276c33 -25 75 -40 123 -40c114 0 194 84 194 199c0 45 -12 85 -34 117z" />
    <glyph glyph-name="AE.sc" horiz-adv-x="739" 
d="M28 0l342 504h308v-62h-249v-158h218v-59h-218v-164h258v-61h-328v97h-192l-65 -97h-74zM205 154h154v164c0 37 6 84 7 89c-2 -5 -25 -51 -44 -78z" />
    <glyph glyph-name="OE.sc" horiz-adv-x="760" 
d="M319 0c-163 0 -269 101 -269 251c0 151 105 253 269 253h378v-62h-248v-158h218v-59h-218v-164h259v-61h-389zM324 62h54v380h-54c-138 0 -202 -77 -202 -191c0 -112 64 -189 202 -189z" />
    <glyph glyph-name="Eth.sc" horiz-adv-x="531" 
d="M75 0v224h-54v59h54v221h142c159 0 265 -101 265 -252s-105 -252 -265 -252h-142zM146 62h66c133 0 197 77 197 190c0 112 -64 190 -197 190h-66v-159h127v-59h-127v-162z" />
    <glyph glyph-name="Dcroat.sc" horiz-adv-x="531" 
d="M75 0v224h-54v59h54v221h142c159 0 265 -101 265 -252s-105 -252 -265 -252h-142zM146 62h66c133 0 197 77 197 190c0 112 -64 190 -197 190h-66v-159h127v-59h-127v-162z" />
    <glyph glyph-name="dotlessi.sc" horiz-adv-x="226" 
d="M78 0v504h70v-504h-70z" />
    <glyph glyph-name="Aacute.sc" horiz-adv-x="513" 
d="M229 569l68 193h80l-93 -193h-55zM165 152h179l-64 157c-13 30 -25 76 -25 78c-1 -2 -14 -48 -26 -78zM35 0l216 510h10l217 -510h-74l-40 99h-221l-40 -99h-68z" />
    <glyph glyph-name="Abreve.sc" horiz-adv-x="513" 
d="M165 152h179l-64 157c-13 30 -25 76 -25 78c-1 -2 -14 -48 -26 -78zM35 0l216 510h10l217 -510h-74l-40 99h-221l-40 -99h-68zM256 568c-77 0 -121 50 -131 117l56 9c9 -39 28 -71 75 -71s66 32 75 71l56 -9c-10 -67 -54 -117 -131 -117z" />
    <glyph glyph-name="Acircumflex.sc" horiz-adv-x="513" 
d="M123 571l128 193h9l128 -193h-58l-74 101l-75 -101h-58zM165 152h179l-64 157c-13 30 -25 76 -25 78c-1 -2 -14 -48 -26 -78zM35 0l216 510h10l217 -510h-74l-40 99h-221l-40 -99h-68z" />
    <glyph glyph-name="Adieresis.sc" horiz-adv-x="513" 
d="M341 584c-24 0 -46 20 -46 46c0 25 22 46 46 46s46 -21 46 -46c0 -26 -22 -46 -46 -46zM171 584c-24 0 -46 20 -46 46c0 25 22 46 46 46s46 -21 46 -46c0 -26 -22 -46 -46 -46zM165 152h179l-64 157c-13 30 -25 76 -25 78c-1 -2 -14 -48 -26 -78zM35 0l216 510h10
l217 -510h-74l-40 99h-221l-40 -99h-68z" />
    <glyph glyph-name="Agrave.sc" horiz-adv-x="513" 
d="M165 152h179l-64 157c-13 30 -25 76 -25 78c-1 -2 -14 -48 -26 -78zM35 0l216 510h10l217 -510h-74l-40 99h-221l-40 -99h-68zM228 569l-93 193h80l68 -193h-55z" />
    <glyph glyph-name="Amacron.sc" horiz-adv-x="513" 
d="M141 594v55h230v-55h-230zM165 152h179l-64 157c-13 30 -25 76 -25 78c-1 -2 -14 -48 -26 -78zM35 0l216 510h10l217 -510h-74l-40 99h-221l-40 -99h-68z" />
    <glyph glyph-name="Aogonek.sc" horiz-adv-x="513" 
d="M439 -232c-48 0 -93 29 -93 88c0 41 20 73 41 101l22 30l-45 112h-221l-40 -99h-68l216 510h10l214 -502l-40 -64c-23 -37 -35 -55 -35 -86c0 -29 20 -43 43 -43c26 0 41 17 52 36l42 -24c-17 -33 -46 -59 -98 -59zM165 152h179l-63 158c-13 30 -25 76 -26 79
c0 -3 -14 -49 -26 -79z" />
    <glyph glyph-name="Aring.sc" horiz-adv-x="513" 
d="M256 555c-59 0 -105 45 -105 100c0 56 46 101 105 101s105 -45 105 -101c0 -55 -46 -100 -105 -100zM256 599c31 0 53 22 53 56c0 35 -22 56 -53 56s-53 -21 -53 -56c0 -34 22 -56 53 -56zM165 152h179l-64 157c-13 30 -25 76 -25 78c-1 -2 -14 -48 -26 -78zM35 0
l216 510h10l217 -510h-74l-40 99h-221l-40 -99h-68z" />
    <glyph glyph-name="Atilde.sc" horiz-adv-x="513" 
d="M165 152h179l-64 157c-13 30 -25 76 -25 78c-1 -2 -14 -48 -26 -78zM35 0l216 510h10l217 -510h-74l-40 99h-221l-40 -99h-68zM162 580l-52 4c4 72 38 111 87 111c28 0 47 -13 69 -32c25 -22 32 -28 48 -28c21 0 32 18 36 58l52 -5c-4 -71 -36 -110 -86 -110
c-28 0 -47 14 -69 33c-25 22 -32 28 -48 28c-20 0 -33 -19 -37 -59z" />
    <glyph glyph-name="Cacute.sc" horiz-adv-x="568" 
d="M268 569l68 193h80l-93 -193h-55zM307 -8c-146 0 -257 109 -257 260s113 260 258 260c96 0 159 -36 205 -102l-55 -38c-33 47 -79 78 -150 78c-109 0 -186 -86 -186 -198s77 -198 185 -198c76 0 129 34 161 83l56 -35c-43 -69 -116 -110 -217 -110z" />
    <glyph glyph-name="Ccaron.sc" horiz-adv-x="568" 
d="M291 563l-128 192h58l74 -101l75 101h58l-128 -192h-9zM307 -8c-146 0 -257 109 -257 260s113 260 258 260c96 0 159 -36 205 -102l-55 -38c-33 47 -79 78 -150 78c-109 0 -186 -86 -186 -198s77 -198 185 -198c76 0 129 34 161 83l56 -35c-43 -69 -116 -110 -217 -110z
" />
    <glyph glyph-name="Ccedilla.sc" horiz-adv-x="568" 
d="M287 -232c-53 0 -86 27 -102 59l41 25c10 -21 24 -39 56 -39c25 0 47 16 47 47c0 27 -17 48 -55 48h-21v89c-119 24 -203 123 -203 255c0 151 113 260 258 260c96 0 159 -36 205 -102l-55 -38c-33 47 -79 78 -150 78c-109 0 -186 -86 -186 -198s77 -198 185 -198
c76 0 129 34 161 83l56 -35c-43 -69 -116 -110 -217 -110h-8v-45c43 -6 83 -38 83 -91c0 -56 -47 -88 -95 -88z" />
    <glyph glyph-name="Ccircumflex.sc" horiz-adv-x="568" 
d="M163 571l128 193h9l128 -193h-58l-74 101l-75 -101h-58zM307 -8c-146 0 -257 109 -257 260s113 260 258 260c96 0 159 -36 205 -102l-55 -38c-33 47 -79 78 -150 78c-109 0 -186 -86 -186 -198s77 -198 185 -198c76 0 129 34 161 83l56 -35c-43 -69 -116 -110 -217 -110z
" />
    <glyph glyph-name="Cdotaccent.sc" horiz-adv-x="568" 
d="M307 -8c-146 0 -257 109 -257 260s113 260 258 260c96 0 159 -36 205 -102l-55 -38c-33 47 -79 78 -150 78c-109 0 -186 -86 -186 -198s77 -198 185 -198c76 0 129 34 161 83l56 -35c-43 -69 -116 -110 -217 -110zM296 581c-26 0 -50 20 -50 49s24 50 50 50
s50 -21 50 -50s-24 -49 -50 -49z" />
    <glyph glyph-name="Dcaron.sc" horiz-adv-x="531" 
d="M75 0v504h137c164 0 269 -101 269 -252s-105 -252 -269 -252h-137zM146 62h61c138 0 202 77 202 190c0 112 -64 190 -202 190h-61v-380zM242 563l-128 192h58l74 -101l75 101h58l-128 -192h-9z" />
    <glyph glyph-name="Eacute.sc" horiz-adv-x="456" 
d="M75 0v504h319v-62h-248v-158h218v-59h-218v-164h258v-61h-329zM216 569l68 193h80l-93 -193h-55z" />
    <glyph glyph-name="Ecaron.sc" horiz-adv-x="456" 
d="M238 563l-128 192h58l74 -101l75 101h58l-128 -192h-9zM75 0v504h319v-62h-248v-158h218v-59h-218v-164h258v-61h-329z" />
    <glyph glyph-name="Ecircumflex.sc" horiz-adv-x="456" 
d="M110 571l128 193h9l128 -193h-58l-74 101l-75 -101h-58zM75 0v504h319v-62h-248v-158h218v-59h-218v-164h258v-61h-329z" />
    <glyph glyph-name="Edieresis.sc" horiz-adv-x="456" 
d="M328 584c-24 0 -46 20 -46 46c0 25 22 46 46 46s46 -21 46 -46c0 -26 -22 -46 -46 -46zM158 584c-24 0 -46 20 -46 46c0 25 22 46 46 46s46 -21 46 -46c0 -26 -22 -46 -46 -46zM75 0v504h319v-62h-248v-158h218v-59h-218v-164h258v-61h-329z" />
    <glyph glyph-name="Edotaccent.sc" horiz-adv-x="456" 
d="M75 0v504h319v-62h-248v-158h218v-59h-218v-164h258v-61h-329zM243 581c-26 0 -50 20 -50 49s24 50 50 50s50 -21 50 -50s-24 -49 -50 -49z" />
    <glyph glyph-name="Egrave.sc" horiz-adv-x="456" 
d="M75 0v504h319v-62h-248v-158h218v-59h-218v-164h258v-61h-329zM215 569l-93 193h80l68 -193h-55z" />
    <glyph glyph-name="Emacron.sc" horiz-adv-x="456" 
d="M75 0v504h319v-62h-248v-158h218v-59h-218v-164h258v-61h-329zM128 594v55h230v-55h-230z" />
    <glyph glyph-name="Eogonek.sc" horiz-adv-x="456" 
d="M314 -232c-49 0 -93 29 -93 88c0 41 20 73 41 101l32 43h-219v504h319v-62h-248v-158h218v-59h-218v-164h258v-61h-59l-36 -57c-22 -36 -34 -54 -34 -85c0 -29 20 -43 42 -43c27 0 41 17 53 36l42 -24c-17 -33 -47 -59 -98 -59z" />
    <glyph glyph-name="Gbreve.sc" horiz-adv-x="572" 
d="M317 -8c-155 0 -267 110 -267 260c0 152 116 260 260 260c83 0 142 -28 183 -71l-46 -47c-30 33 -73 56 -137 56c-112 0 -188 -87 -188 -198c0 -112 73 -200 195 -200c62 0 106 20 133 40v96h-137v59h203v-190c-36 -30 -101 -65 -199 -65zM296 568
c-77 0 -121 50 -131 117l56 9c9 -39 28 -71 75 -71s66 32 75 71l56 -9c-10 -67 -54 -117 -131 -117z" />
    <glyph glyph-name="Gcircumflex.sc" horiz-adv-x="572" 
d="M163 571l128 193h9l128 -193h-58l-74 101l-75 -101h-58zM317 -8c-155 0 -267 110 -267 260c0 152 116 260 260 260c83 0 142 -28 183 -71l-46 -47c-30 33 -73 56 -137 56c-112 0 -188 -87 -188 -198c0 -112 73 -200 195 -200c62 0 106 20 133 40v96h-137v59h203v-190
c-36 -30 -101 -65 -199 -65z" />
    <glyph glyph-name="Gcommaaccent.sc" horiz-adv-x="572" 
d="M246 -256l32 99c-17 6 -32 24 -32 47c0 29 25 51 51 51c27 0 52 -22 52 -51c0 -13 -5 -26 -12 -39l-53 -107h-38zM317 -8c-155 0 -267 110 -267 260c0 152 116 260 260 260c83 0 142 -28 183 -71l-46 -47c-30 33 -73 56 -137 56c-112 0 -188 -87 -188 -198
c0 -112 73 -200 195 -200c62 0 106 20 133 40v96h-137v59h203v-190c-36 -30 -101 -65 -199 -65z" />
    <glyph glyph-name="Gdotaccent.sc" horiz-adv-x="572" 
d="M296 585c-26 0 -50 20 -50 49s24 50 50 50s50 -21 50 -50s-24 -49 -50 -49zM317 -8c-155 0 -267 110 -267 260c0 152 116 260 260 260c83 0 142 -28 183 -71l-46 -47c-30 33 -73 56 -137 56c-112 0 -188 -87 -188 -198c0 -112 73 -200 195 -200c62 0 106 20 133 40v96
h-137v59h203v-190c-36 -30 -101 -65 -199 -65z" />
    <glyph glyph-name="Hbar.sc" horiz-adv-x="546" 
d="M6 352v50h69v102h71v-102h255v102h70v-102h69v-50h-69v-352h-70v216h-255v-216h-71v352h-69zM146 277h255v75h-255v-75z" />
    <glyph glyph-name="Hcircumflex.sc" horiz-adv-x="542" 
d="M140 571l128 193h9l128 -193h-58l-74 101l-75 -101h-58zM75 0v504h71v-225h251v225h70v-504h-70v216h-251v-216h-71z" />
    <glyph glyph-name="Iacute.sc" horiz-adv-x="226" 
d="M86 569l68 193h80l-93 -193h-55zM78 0v504h70v-504h-70z" />
    <glyph glyph-name="Icircumflex.sc" horiz-adv-x="226" 
d="M-19 571l128 193h9l128 -193h-58l-74 101l-75 -101h-58zM78 0v504h70v-504h-70z" />
    <glyph glyph-name="Idieresis.sc" horiz-adv-x="226" 
d="M78 0v504h70v-504h-70zM193 584c-24 0 -46 21 -46 46c0 26 22 47 46 47c25 0 46 -21 46 -47c0 -25 -21 -46 -46 -46zM33 584c-24 0 -46 21 -46 46c0 26 22 47 46 47s46 -21 46 -47c0 -25 -22 -46 -46 -46z" />
    <glyph glyph-name="Idotaccent.sc" horiz-adv-x="226" 
d="M78 0v504h70v-504h-70zM114 581c-26 0 -50 20 -50 49s24 50 50 50s50 -21 50 -50s-24 -49 -50 -49z" />
    <glyph glyph-name="Igrave.sc" horiz-adv-x="226" 
d="M78 0v504h70v-504h-70zM86 569l-93 193h80l68 -193h-55z" />
    <glyph glyph-name="Imacron.sc" horiz-adv-x="226" 
d="M78 0v504h70v-504h-70zM15 595v55h196v-55h-196z" />
    <glyph glyph-name="Iogonek.sc" horiz-adv-x="226" 
d="M78 -15v519h70v-491l-44 -72c-21 -34 -31 -53 -31 -83c0 -28 18 -41 39 -41c26 0 40 17 51 35l44 -25c-17 -33 -47 -59 -98 -59c-49 0 -93 29 -93 88c0 41 20 73 41 101z" />
    <glyph glyph-name="Jcircumflex.sc" horiz-adv-x="389" 
d="M145 571l128 193h9l128 -193h-58l-74 101l-75 -101h-58zM171 -8c-74 0 -118 40 -141 86l57 34c19 -34 41 -58 82 -58c46 0 76 25 76 85v365h70v-368c0 -98 -62 -144 -144 -144z" />
    <glyph glyph-name="Kcommaaccent.sc" horiz-adv-x="493" 
d="M206 -256l32 99c-17 6 -32 24 -32 47c0 29 25 51 51 51c27 0 52 -22 52 -51c0 -13 -5 -26 -12 -39l-53 -107h-38zM75 0v504h71v-204c0 -33 -5 -78 -8 -99c14 23 38 66 58 91l168 212h79l-181 -226l209 -278h-85l-172 227l-68 -82v-145h-71z" />
    <glyph glyph-name="Lacute.sc" horiz-adv-x="422" 
d="M75 0v504h71v-442h235v-62h-306zM87 569l68 193h80l-93 -193h-55z" />
    <glyph glyph-name="Lcaron.sc" horiz-adv-x="421" 
d="M264 307l34 104c-18 6 -33 25 -33 48c0 30 25 53 52 53c28 0 53 -23 53 -52c0 -14 -6 -26 -13 -41l-56 -112h-37zM75 0v504h71v-442h235v-62h-306z" />
    <glyph glyph-name="Lcommaaccent.sc" horiz-adv-x="421" 
d="M75 0v504h71v-442h235v-62h-306zM172 -256l32 99c-17 6 -32 24 -32 47c0 29 25 51 51 51c27 0 52 -22 52 -51c0 -13 -5 -26 -12 -39l-53 -107h-38z" />
    <glyph glyph-name="Lslash.sc" horiz-adv-x="426" 
d="M79 0v178l-55 -22v61l55 23v264h71v-235l141 57v-60l-141 -58v-146h234v-62h-305z" />
    <glyph glyph-name="Nacute.sc" horiz-adv-x="551" 
d="M466 -7l-278 306c-25 26 -51 64 -54 69c0 -4 7 -47 7 -84v-284h-66v510h10l275 -303c26 -29 52 -67 55 -71c0 2 -5 47 -5 84v284h66v-511h-10zM251 569l68 193h80l-93 -193h-55z" />
    <glyph glyph-name="Ncaron.sc" horiz-adv-x="551" 
d="M466 -7l-278 306c-25 26 -51 64 -54 69c0 -4 7 -47 7 -84v-284h-66v510h10l275 -303c26 -29 52 -67 55 -71c0 2 -5 47 -5 84v284h66v-511h-10zM274 563l-128 192h58l74 -101l75 101h58l-128 -192h-9z" />
    <glyph glyph-name="Ncommaaccent.sc" horiz-adv-x="551" 
d="M466 -7l-278 306c-25 26 -51 64 -54 69c0 -4 7 -47 7 -84v-284h-66v510h10l275 -303c26 -29 52 -67 55 -71c0 2 -5 47 -5 84v284h66v-511h-10zM231 -256l32 99c-17 6 -32 24 -32 47c0 29 25 51 51 51c27 0 52 -22 52 -51c0 -13 -5 -26 -12 -39l-53 -107h-38z" />
    <glyph glyph-name="Ntilde.sc" horiz-adv-x="551" 
d="M466 -7l-278 306c-25 26 -51 64 -54 69c0 -4 7 -47 7 -84v-284h-66v510h10l275 -303c26 -29 52 -67 55 -71c0 2 -5 47 -5 84v284h66v-511h-10zM184 580l-52 4c4 72 38 111 87 111c28 0 47 -13 69 -32c25 -22 32 -28 48 -28c21 0 32 18 36 58l52 -5
c-4 -71 -36 -110 -86 -110c-28 0 -47 14 -69 33c-25 22 -32 28 -48 28c-20 0 -33 -19 -37 -59z" />
    <glyph glyph-name="Oacute.sc" horiz-adv-x="628" 
d="M286 569l68 193h80l-93 -193h-55zM314 -8c-144 0 -265 108 -265 260c0 153 121 260 265 260c145 0 265 -107 265 -260c0 -152 -120 -260 -265 -260zM314 54c113 0 193 84 193 198c0 113 -80 198 -193 198c-112 0 -193 -85 -193 -198c0 -114 81 -198 193 -198z" />
    <glyph glyph-name="Ocircumflex.sc" horiz-adv-x="628" 
d="M181 571l128 193h9l128 -193h-58l-74 101l-75 -101h-58zM314 -8c-144 0 -265 108 -265 260c0 153 121 260 265 260c145 0 265 -107 265 -260c0 -152 -120 -260 -265 -260zM314 54c113 0 193 84 193 198c0 113 -80 198 -193 198c-112 0 -193 -85 -193 -198
c0 -114 81 -198 193 -198z" />
    <glyph glyph-name="Odieresis.sc" horiz-adv-x="628" 
d="M398 584c-24 0 -46 20 -46 46c0 25 22 46 46 46s46 -21 46 -46c0 -26 -22 -46 -46 -46zM228 584c-24 0 -46 20 -46 46c0 25 22 46 46 46s46 -21 46 -46c0 -26 -22 -46 -46 -46zM314 -8c-144 0 -265 108 -265 260c0 153 121 260 265 260c145 0 265 -107 265 -260
c0 -152 -120 -260 -265 -260zM314 54c113 0 193 84 193 198c0 113 -80 198 -193 198c-112 0 -193 -85 -193 -198c0 -114 81 -198 193 -198z" />
    <glyph glyph-name="Ograve.sc" horiz-adv-x="628" 
d="M286 569l-93 193h80l68 -193h-55zM314 -8c-144 0 -265 108 -265 260c0 153 121 260 265 260c145 0 265 -107 265 -260c0 -152 -120 -260 -265 -260zM314 54c113 0 193 84 193 198c0 113 -80 198 -193 198c-112 0 -193 -85 -193 -198c0 -114 81 -198 193 -198z" />
    <glyph glyph-name="Ohungarumlaut.sc" horiz-adv-x="628" 
d="M355 576l68 193h76l-89 -193h-55zM217 576l67 193h76l-88 -193h-55zM314 -8c-144 0 -265 108 -265 260c0 153 121 260 265 260c145 0 265 -107 265 -260c0 -152 -120 -260 -265 -260zM314 54c113 0 193 84 193 198c0 113 -80 198 -193 198c-112 0 -193 -85 -193 -198
c0 -114 81 -198 193 -198z" />
    <glyph glyph-name="Omacron.sc" horiz-adv-x="628" 
d="M198 594v55h230v-55h-230zM314 -8c-144 0 -265 108 -265 260c0 153 121 260 265 260c145 0 265 -107 265 -260c0 -152 -120 -260 -265 -260zM314 54c113 0 193 84 193 198c0 113 -80 198 -193 198c-112 0 -193 -85 -193 -198c0 -114 81 -198 193 -198z" />
    <glyph glyph-name="Otilde.sc" horiz-adv-x="628" 
d="M314 -8c-144 0 -265 108 -265 260c0 153 121 260 265 260c145 0 265 -107 265 -260c0 -152 -120 -260 -265 -260zM314 54c113 0 193 84 193 198c0 113 -80 198 -193 198c-112 0 -193 -85 -193 -198c0 -114 81 -198 193 -198zM219 580l-52 4c4 72 38 111 87 111
c28 0 47 -13 69 -32c25 -22 32 -28 48 -28c21 0 32 18 36 58l52 -5c-4 -71 -36 -110 -86 -110c-28 0 -47 14 -69 33c-25 22 -32 28 -48 28c-20 0 -33 -19 -37 -59z" />
    <glyph glyph-name="Racute.sc" horiz-adv-x="480" 
d="M208 569l68 193h80l-93 -193h-55zM75 0v504h153c121 0 198 -56 198 -161c0 -75 -42 -126 -114 -146l126 -197h-81l-117 186c-6 -1 -12 -1 -18 -1h-76v-185h-71zM146 243h79c89 0 129 34 129 100c0 67 -41 100 -129 100h-79v-200z" />
    <glyph glyph-name="Rcaron.sc" horiz-adv-x="480" 
d="M231 563l-128 192h58l74 -101l75 101h58l-128 -192h-9zM75 0v504h153c121 0 198 -56 198 -161c0 -75 -42 -126 -114 -146l126 -197h-81l-117 186c-6 -1 -12 -1 -18 -1h-76v-185h-71zM146 243h79c89 0 129 34 129 100c0 67 -41 100 -129 100h-79v-200z" />
    <glyph glyph-name="Rcommaaccent.sc" horiz-adv-x="480" 
d="M192 -256l32 99c-17 6 -32 24 -32 47c0 29 25 51 51 51c27 0 52 -22 52 -51c0 -13 -5 -26 -12 -39l-53 -107h-38zM75 0v504h153c121 0 198 -56 198 -161c0 -75 -42 -126 -114 -146l126 -197h-81l-117 186c-6 -1 -12 -1 -18 -1h-76v-185h-71zM146 243h79
c89 0 129 34 129 100c0 67 -41 100 -129 100h-79v-200z" />
    <glyph glyph-name="Sacute.sc" horiz-adv-x="426" 
d="M183 569l68 193h80l-93 -193h-55zM215 -8c-94 0 -158 50 -186 108l57 32c22 -44 61 -80 128 -80c57 0 98 30 98 76c0 47 -27 70 -91 98l-40 18c-71 30 -116 69 -116 142c0 78 62 126 141 126c70 0 114 -29 145 -76l-53 -36c-21 31 -47 53 -90 53c-45 0 -75 -24 -75 -66
c0 -39 22 -59 71 -81l41 -18c85 -37 137 -78 137 -159c0 -84 -67 -137 -167 -137z" />
    <glyph glyph-name="Scaron.sc" horiz-adv-x="426" 
d="M206 563l-128 192h58l74 -101l75 101h58l-128 -192h-9zM215 -8c-94 0 -158 50 -186 108l57 32c22 -44 61 -80 128 -80c57 0 98 30 98 76c0 47 -27 70 -91 98l-40 18c-71 30 -116 69 -116 142c0 78 62 126 141 126c70 0 114 -29 145 -76l-53 -36c-21 31 -47 53 -90 53
c-45 0 -75 -24 -75 -66c0 -39 22 -59 71 -81l41 -18c85 -37 137 -78 137 -159c0 -84 -67 -137 -167 -137z" />
    <glyph glyph-name="Scedilla.sc" horiz-adv-x="426" 
d="M219 -232c-52 0 -85 27 -101 59l40 25c11 -21 25 -39 57 -39c25 0 47 16 47 47c0 27 -18 48 -55 48h-21v86c-79 8 -132 54 -157 106l57 32c22 -44 61 -80 128 -80c57 0 98 30 98 76c0 47 -27 70 -91 98l-40 18c-71 30 -116 69 -116 142c0 78 62 126 141 126
c70 0 114 -29 145 -76l-53 -36c-21 31 -47 53 -90 53c-45 0 -75 -24 -75 -66c0 -39 22 -59 71 -81l41 -18c85 -37 137 -78 137 -159c0 -79 -60 -131 -150 -136v-46c43 -6 83 -38 83 -91c0 -56 -47 -88 -96 -88z" />
    <glyph glyph-name="Scircumflex.sc" horiz-adv-x="426" 
d="M78 571l128 193h9l128 -193h-58l-74 101l-75 -101h-58zM215 -8c-94 0 -158 50 -186 108l57 32c22 -44 61 -80 128 -80c57 0 98 30 98 76c0 47 -27 70 -91 98l-40 18c-71 30 -116 69 -116 142c0 78 62 126 141 126c70 0 114 -29 145 -76l-53 -36c-21 31 -47 53 -90 53
c-45 0 -75 -24 -75 -66c0 -39 22 -59 71 -81l41 -18c85 -37 137 -78 137 -159c0 -84 -67 -137 -167 -137z" />
    <glyph glyph-name="Scommaaccent.sc" horiz-adv-x="426" 
d="M161 -256l32 99c-17 6 -32 24 -32 47c0 29 25 51 51 51c27 0 52 -22 52 -51c0 -13 -5 -26 -12 -39l-53 -107h-38zM215 -8c-94 0 -158 50 -186 108l57 32c22 -44 61 -80 128 -80c57 0 98 30 98 76c0 47 -27 70 -91 98l-40 18c-71 30 -116 69 -116 142c0 78 62 126 141 126
c70 0 114 -29 145 -76l-53 -36c-21 31 -47 53 -90 53c-45 0 -75 -24 -75 -66c0 -39 22 -59 71 -81l41 -18c85 -37 137 -78 137 -159c0 -84 -67 -137 -167 -137z" />
    <glyph glyph-name="Tcaron.sc" horiz-adv-x="457" 
d="M193 0v442h-156v62h383v-62h-156v-442h-71zM224 563l-128 192h58l74 -101l75 101h58l-128 -192h-9z" />
    <glyph glyph-name="uni021A.sc" horiz-adv-x="457" 
d="M193 0v442h-156v62h383v-62h-156v-442h-13v-53c43 -6 83 -38 83 -91c0 -56 -47 -88 -96 -88c-52 0 -85 27 -101 59l40 25c11 -21 25 -39 57 -39c25 0 47 16 47 47c0 27 -18 48 -55 48h-21v92h-12z" />
    <glyph glyph-name="Tcommaaccent.sc" horiz-adv-x="457" 
d="M193 0v442h-156v62h383v-62h-156v-442h-71zM179 -256l32 99c-17 6 -32 24 -32 47c0 29 25 51 51 51c27 0 52 -22 52 -51c0 -13 -5 -26 -12 -39l-53 -107h-38z" />
    <glyph glyph-name="Thorn.sc" horiz-adv-x="476" 
d="M75 0v504h71v-82h88c125 0 192 -55 192 -160c0 -104 -67 -160 -192 -160h-88v-102h-71zM146 163h85c90 0 123 36 123 99c0 64 -34 99 -123 99h-85v-198z" />
    <glyph glyph-name="Uacute.sc" horiz-adv-x="520" 
d="M261 -8c-111 0 -190 64 -190 187v325h71v-322c0 -88 44 -128 118 -128s119 40 119 128v322h70v-325c0 -123 -79 -187 -188 -187zM233 569l68 193h80l-93 -193h-55z" />
    <glyph glyph-name="Ubreve.sc" horiz-adv-x="520" 
d="M261 -8c-111 0 -190 64 -190 187v325h71v-322c0 -88 44 -128 118 -128s119 40 119 128v322h70v-325c0 -123 -79 -187 -188 -187zM260 568c-77 0 -121 50 -131 117l56 9c9 -39 28 -71 75 -71s66 32 75 71l56 -9c-10 -67 -54 -117 -131 -117z" />
    <glyph glyph-name="Ucircumflex.sc" horiz-adv-x="520" 
d="M127 571l128 193h9l128 -193h-58l-74 101l-75 -101h-58zM261 -8c-111 0 -190 64 -190 187v325h71v-322c0 -88 44 -128 118 -128s119 40 119 128v322h70v-325c0 -123 -79 -187 -188 -187z" />
    <glyph glyph-name="Udieresis.sc" horiz-adv-x="520" 
d="M345 584c-24 0 -46 20 -46 46c0 25 22 46 46 46s46 -21 46 -46c0 -26 -22 -46 -46 -46zM175 584c-24 0 -46 20 -46 46c0 25 22 46 46 46s46 -21 46 -46c0 -26 -22 -46 -46 -46zM261 -8c-111 0 -190 64 -190 187v325h71v-322c0 -88 44 -128 118 -128s119 40 119 128v322
h70v-325c0 -123 -79 -187 -188 -187z" />
    <glyph glyph-name="Ugrave.sc" horiz-adv-x="520" 
d="M261 -8c-111 0 -190 64 -190 187v325h71v-322c0 -88 44 -128 118 -128s119 40 119 128v322h70v-325c0 -123 -79 -187 -188 -187zM232 569l-93 193h80l68 -193h-55z" />
    <glyph glyph-name="Uhungarumlaut.sc" horiz-adv-x="521" 
d="M261 -8c-111 0 -190 64 -190 187v325h71v-322c0 -88 44 -128 118 -128s119 40 119 128v322h70v-325c0 -123 -79 -187 -188 -187zM302 576l68 193h76l-89 -193h-55zM164 576l67 193h76l-88 -193h-55z" />
    <glyph glyph-name="Umacron.sc" horiz-adv-x="520" 
d="M261 -8c-111 0 -190 64 -190 187v325h71v-322c0 -88 44 -128 118 -128s119 40 119 128v322h70v-325c0 -123 -79 -187 -188 -187zM145 594v55h230v-55h-230z" />
    <glyph glyph-name="Uogonek.sc" horiz-adv-x="520" 
d="M242 -7c-101 7 -171 70 -171 186v325h71v-322c0 -88 44 -128 118 -128s119 40 119 128v322h70v-325c0 -110 -63 -173 -155 -185l-32 -53c-21 -34 -31 -53 -31 -83c0 -28 18 -41 39 -41c26 0 40 17 51 35l44 -25c-17 -33 -47 -59 -98 -59c-49 0 -93 29 -93 88
c0 41 20 73 41 101z" />
    <glyph glyph-name="Uring.sc" horiz-adv-x="521" 
d="M261 -8c-111 0 -190 64 -190 187v325h71v-322c0 -88 44 -128 118 -128s119 40 119 128v322h70v-325c0 -123 -79 -187 -188 -187zM260 531c-59 0 -105 45 -105 100c0 56 46 101 105 101s105 -45 105 -101c0 -55 -46 -100 -105 -100zM260 575c31 0 53 22 53 56
c0 35 -22 56 -53 56s-53 -21 -53 -56c0 -34 22 -56 53 -56z" />
    <glyph glyph-name="Yacute.sc" horiz-adv-x="482" 
d="M207 0v186l-174 318h80l97 -181c18 -34 33 -82 34 -86c1 3 17 53 34 86l96 181h75l-171 -316v-188h-71zM216 569l68 193h80l-93 -193h-55z" />
    <glyph glyph-name="Ydieresis.sc" horiz-adv-x="482" 
d="M207 0v186l-174 318h80l97 -181c18 -34 33 -82 34 -86c1 3 17 53 34 86l96 181h75l-171 -316v-188h-71zM329 584c-24 0 -46 20 -46 46c0 25 22 46 46 46s46 -21 46 -46c0 -26 -22 -46 -46 -46zM159 584c-24 0 -46 20 -46 46c0 25 22 46 46 46s46 -21 46 -46
c0 -26 -22 -46 -46 -46z" />
    <glyph glyph-name="Zacute.sc" horiz-adv-x="464" 
d="M215 569l68 193h80l-93 -193h-55zM41 0v9l267 433h-231v62h341v-9l-267 -434h262v-61h-372z" />
    <glyph glyph-name="Zcaron.sc" horiz-adv-x="465" 
d="M238 563l-128 192h58l74 -101l75 101h58l-128 -192h-9zM41 0v9l267 433h-231v62h341v-9l-267 -434h262v-61h-372z" />
    <glyph glyph-name="Zdotaccent.sc" horiz-adv-x="465" 
d="M41 0v9l267 433h-231v62h341v-9l-267 -434h262v-61h-372zM243 581c-26 0 -50 20 -50 49s24 50 50 50s50 -21 50 -50s-24 -49 -50 -49z" />
    <glyph glyph-name="space.sc" horiz-adv-x="228" 
 />
    <glyph glyph-name="dollar.sc" horiz-adv-x="436" 
d="M191 -6c-89 9 -149 60 -173 110l54 29c22 -40 60 -74 119 -83v187c-97 27 -146 69 -146 144c0 70 57 124 146 130v106h51v-107c67 -10 113 -49 135 -87l-50 -32c-16 28 -42 54 -85 63v-166l6 -2c105 -31 156 -75 156 -152c0 -82 -58 -135 -162 -141v-112h-51v113z
M191 456c-50 -5 -80 -29 -80 -72c0 -42 22 -62 80 -80v152zM242 49c64 5 95 36 95 80c0 48 -24 71 -95 92v-172z" />
    <glyph glyph-name="cent.sc" horiz-adv-x="380" 
d="M186 347v99h51v-97c50 -6 88 -26 116 -58l-47 -39c-17 20 -40 33 -69 38v-240c34 5 60 21 77 41l46 -40c-29 -32 -70 -54 -123 -58v-102h-51v103c-87 13 -152 84 -152 177c0 92 65 163 152 176zM186 54v233c-50 -11 -82 -58 -82 -116c0 -60 32 -106 82 -117z" />
    <glyph glyph-name="Euro.sc" horiz-adv-x="526" 
d="M28 277v54h70c26 107 104 181 211 181c84 0 138 -39 176 -99l-54 -38c-28 45 -60 75 -122 75c-73 0 -121 -48 -139 -119h183v-54h-192c-1 -18 -1 -42 1 -61h191v-54h-179c19 -68 67 -109 135 -109c69 0 105 37 130 81l57 -34c-36 -62 -90 -108 -187 -108
c-102 0 -178 66 -207 170h-74v54h63c-2 19 -2 43 -1 61h-62z" />
    <glyph glyph-name="sterling.sc" horiz-adv-x="482" 
d="M150 213h-81v56h57c-12 30 -22 60 -22 95c0 86 61 148 162 148c83 0 136 -42 163 -96l-57 -33c-20 42 -54 68 -103 68c-58 0 -93 -34 -93 -90c0 -32 10 -62 22 -92h149v-56h-127c11 -30 20 -62 20 -98c0 -8 -1 -16 -2 -23c30 -20 60 -38 99 -38c35 0 59 15 78 40l45 -43
c-32 -41 -66 -59 -121 -59c-50 0 -88 25 -121 51c-22 -31 -59 -51 -103 -51c-50 0 -89 32 -89 79s38 77 86 77c24 0 44 -7 64 -17c-4 29 -14 56 -26 82zM173 79c-19 14 -38 24 -57 24c-25 0 -39 -15 -39 -32c0 -19 15 -34 40 -34c24 0 46 14 56 42z" />
    <glyph glyph-name="yen.sc" horiz-adv-x="494" 
d="M302 196l-19 -38v-19h153v-54h-153v-85h-70v85h-154v54h154v18l-20 39h-134v54h106l-132 254h78l111 -224c13 -28 25 -69 26 -73c1 4 14 46 28 73l112 224h73l-131 -254h106v-54h-134z" />
    <glyph glyph-name="florin.sc" horiz-adv-x="361" 
d="M72 -94l35 313h-69v56h76l11 103c11 96 59 134 123 134c53 0 81 -22 101 -53l-44 -39c-12 19 -26 32 -54 32c-30 0 -51 -15 -57 -71l-12 -106h89v-56h-96l-35 -313h-68z" />
    <glyph glyph-name="zero.sc" horiz-adv-x="533" 
d="M266 -8c-132 0 -221 109 -221 260c0 153 91 260 221 260c131 0 222 -107 222 -260c0 -151 -88 -260 -222 -260zM266 55c90 0 149 75 149 197c0 124 -59 197 -149 197s-148 -73 -148 -197c0 -122 58 -197 148 -197z" />
    <glyph glyph-name="one.sc" horiz-adv-x="278" 
d="M133 0v442h-99v62h169v-504h-70z" />
    <glyph glyph-name="two.sc" horiz-adv-x="436" 
d="M31 0v8l210 216c44 44 72 88 72 137c0 51 -29 88 -88 88c-54 0 -91 -35 -109 -95l-63 16c17 83 82 142 174 142c97 0 158 -62 158 -149c0 -62 -37 -119 -86 -170l-91 -92c-16 -17 -49 -42 -52 -44c2 0 36 4 63 4h171v-61h-359z" />
    <glyph glyph-name="three.sc" horiz-adv-x="441" 
d="M212 -8c-91 0 -157 47 -187 108l59 29c23 -42 61 -75 126 -75c75 0 118 46 118 109c0 65 -49 107 -127 107c-30 0 -55 -6 -69 -12l-3 6l113 141c13 15 43 43 43 43s-41 -6 -64 -6h-153v62h318v-9l-115 -142c-15 -20 -33 -32 -36 -34c94 -5 165 -66 165 -159
c0 -104 -82 -168 -188 -168z" />
    <glyph glyph-name="four.sc" horiz-adv-x="473" 
d="M305 0v87h-272v49l332 373h9v-365h59v-57h-59v-87h-69zM107 138c0 0 36 5 60 5h139v158c0 25 5 77 5 79c-1 -2 -25 -39 -50 -67l-112 -135c-17 -18 -42 -40 -42 -40z" />
    <glyph glyph-name="five.sc" horiz-adv-x="438" 
d="M210 -8c-90 0 -153 49 -182 102l58 33c24 -40 61 -73 122 -73c75 0 117 42 117 108c0 67 -44 108 -121 108c-51 0 -99 -19 -127 -43l-6 3v274h291v-61h-229v-138c21 12 53 20 84 20c110 0 179 -67 179 -164c0 -100 -70 -169 -186 -169z" />
    <glyph glyph-name="six.sc" horiz-adv-x="462" 
d="M231 -8c-108 0 -185 75 -185 176c0 47 16 84 44 126l150 210h79l-89 -124c-19 -26 -56 -63 -56 -63c21 13 49 23 74 23c95 0 169 -73 169 -171s-76 -177 -186 -177zM231 54c73 0 115 51 115 115s-41 116 -115 116c-71 0 -116 -52 -116 -116s45 -115 116 -115z" />
    <glyph glyph-name="seven.sc" horiz-adv-x="437" 
d="M86 0l219 443h-266v61h367v-6l-245 -498h-75z" />
    <glyph glyph-name="eight.sc" horiz-adv-x="451" 
d="M226 -8c-108 0 -186 61 -186 149c0 68 46 113 104 129c-46 18 -75 59 -75 110c0 74 63 132 157 132s156 -58 156 -132c0 -52 -28 -93 -75 -110c60 -16 104 -61 104 -129c0 -88 -77 -149 -185 -149zM226 53c70 0 114 36 114 94c0 61 -44 96 -114 96s-115 -35 -115 -96
c0 -59 45 -94 115 -94zM227 295c53 0 87 31 87 82c0 49 -36 80 -88 80c-53 0 -89 -31 -89 -80c0 -51 36 -82 90 -82z" />
    <glyph glyph-name="nine.sc" horiz-adv-x="459" 
d="M142 0l99 137c14 20 37 41 44 47c-22 -15 -47 -21 -73 -21c-95 0 -170 73 -170 173c0 97 77 176 188 176c109 0 185 -76 185 -176c0 -46 -18 -90 -46 -130l-149 -206h-78zM230 218c72 0 115 53 115 117c0 61 -41 116 -115 116s-117 -54 -117 -116c0 -64 41 -117 117 -117
z" />
    <glyph glyph-name="percent.sc" horiz-adv-x="766" 
d="M178 218c-80 0 -150 61 -150 147c0 85 70 147 150 147c79 0 149 -62 149 -147c0 -86 -70 -147 -149 -147zM191 0l315 504h70l-315 -504h-70zM589 -8c-80 0 -149 61 -149 146s69 147 149 147s149 -62 149 -147s-69 -146 -149 -146zM178 273c48 0 88 37 88 92
c0 56 -40 92 -88 92s-89 -36 -89 -92c0 -55 41 -92 89 -92zM589 46c48 0 88 37 88 92s-40 92 -88 92s-88 -37 -88 -92s40 -92 88 -92z" />
    <glyph glyph-name="perthousand.sc" horiz-adv-x="1111" 
d="M178 218c-80 0 -150 61 -150 147c0 85 70 147 150 147c79 0 149 -62 149 -147c0 -86 -70 -147 -149 -147zM191 0l315 504h70l-315 -504h-70zM934 -8c-79 0 -149 61 -149 146s70 147 149 147c80 0 149 -62 149 -147s-69 -146 -149 -146zM589 -8c-80 0 -149 61 -149 146
s69 147 149 147s149 -62 149 -147s-69 -146 -149 -146zM178 273c48 0 88 37 88 92c0 56 -40 92 -88 92s-89 -36 -89 -92c0 -55 41 -92 89 -92zM934 46c48 0 88 37 88 92s-40 92 -88 92c-47 0 -88 -37 -88 -92s41 -92 88 -92zM589 46c48 0 88 37 88 92s-40 92 -88 92
s-88 -37 -88 -92s40 -92 88 -92z" />
    <glyph glyph-name="plus.sc" horiz-adv-x="373" 
d="M154 96v125h-115v62h115v125h64v-125h116v-62h-116v-125h-64z" />
    <glyph glyph-name="minus.sc" horiz-adv-x="373" 
d="M334 221h-295v62h295v-62z" />
    <glyph glyph-name="multiply.sc" horiz-adv-x="370" 
d="M185 207l-100 -100l-44 44l100 100l-100 100l44 44l100 -100l100 100l44 -44l-100 -100l100 -100l-44 -44z" />
    <glyph glyph-name="divide.sc" horiz-adv-x="373" 
d="M334 221h-295v62h295v-62zM186 343c-27 0 -51 22 -51 52s24 51 51 51c28 0 52 -21 52 -51s-24 -52 -52 -52zM186 57c-27 0 -51 23 -51 52c0 30 24 51 51 51c28 0 52 -21 52 -51c0 -29 -24 -52 -52 -52z" />
    <glyph glyph-name="equal.sc" horiz-adv-x="371" 
d="M42 282v61h287v-61h-287zM42 152v62h287v-62h-287z" />
    <glyph glyph-name="less.sc" horiz-adv-x="356" 
d="M307 94l-271 145v10l271 143v-64l-168 -84l168 -85v-65z" />
    <glyph glyph-name="greater.sc" horiz-adv-x="356" 
d="M49 94v64l168 84l-168 85v65l271 -145v-10z" />
    <glyph glyph-name="degree.sc" horiz-adv-x="325" 
d="M163 286c-65 0 -117 50 -117 113c0 64 52 113 117 113c64 0 116 -49 116 -113c0 -63 -52 -113 -116 -113zM163 332c38 0 64 28 64 67s-26 67 -64 67c-39 0 -65 -28 -65 -67s26 -67 65 -67z" />
    <glyph glyph-name="period.sc" horiz-adv-x="202" 
d="M101 -7c-28 0 -54 24 -54 55s26 54 54 54c29 0 54 -23 54 -54s-25 -55 -54 -55z" />
    <glyph glyph-name="comma.sc" horiz-adv-x="202" 
d="M44 -112l39 111c-21 7 -36 25 -36 49c0 30 26 54 54 54c29 0 54 -24 54 -54c0 -14 -6 -29 -12 -40l-60 -120h-39z" />
    <glyph glyph-name="colon.sc" horiz-adv-x="212" 
d="M106 217c-28 0 -54 24 -54 55s26 54 54 54c29 0 54 -23 54 -54s-25 -55 -54 -55zM106 -7c-28 0 -54 24 -54 55s26 54 54 54c29 0 54 -23 54 -54s-25 -55 -54 -55z" />
    <glyph glyph-name="semicolon.sc" horiz-adv-x="212" 
d="M106 217c-28 0 -54 24 -54 55s26 54 54 54c29 0 54 -23 54 -54s-25 -55 -54 -55zM49 -112l39 111c-21 7 -36 25 -36 49c0 30 26 54 54 54c29 0 54 -24 54 -54c0 -14 -6 -29 -12 -40l-60 -120h-39z" />
    <glyph glyph-name="parenleft.sc" horiz-adv-x="288" 
d="M216 -60c-86 87 -172 215 -172 399c0 183 86 312 172 399l44 -37c-79 -90 -143 -200 -143 -362c0 -163 64 -273 143 -363z" />
    <glyph glyph-name="parenright.sc" horiz-adv-x="288" 
d="M71 -60l-43 36c79 90 143 200 143 363s-65 272 -143 362l43 37c87 -87 173 -216 173 -399c0 -184 -87 -313 -173 -399z" />
    <glyph glyph-name="bracketleft.sc" horiz-adv-x="305" 
d="M76 -55v787h193v-60h-123v-667h123v-60h-193z" />
    <glyph glyph-name="bracketright.sc" horiz-adv-x="305" 
d="M36 -55v60h123v667h-123v60h193v-787h-193z" />
    <glyph glyph-name="braceleft.sc" horiz-adv-x="367" 
d="M274 -55c-68 0 -133 27 -133 144v140c0 53 -21 69 -58 69h-58v60h58c37 0 58 17 58 70v160c0 117 65 144 133 144h57v-60h-53c-42 0 -66 -19 -66 -85v-167c0 -61 -28 -83 -65 -91c37 -8 65 -32 65 -93v-146c0 -66 24 -85 66 -85h53v-60h-57z" />
    <glyph glyph-name="braceright.sc" horiz-adv-x="367" 
d="M36 -55v60h53c42 0 66 19 66 85v146c0 62 28 84 65 92c-37 8 -65 31 -65 92v167c0 66 -24 85 -66 85h-53v60h57c68 0 133 -27 133 -144v-160c0 -53 21 -70 58 -70h58v-60h-58c-37 0 -58 -16 -58 -69v-140c0 -117 -65 -144 -133 -144h-57z" />
    <glyph glyph-name="slash.sc" horiz-adv-x="428" 
d="M15 -128l300 850h70l-300 -850h-70z" />
    <glyph glyph-name="section.sc" horiz-adv-x="443" 
d="M102 306c-16 21 -24 47 -24 79c0 74 60 127 143 127c78 0 120 -37 141 -77l-54 -33c-17 32 -43 51 -86 51c-48 0 -74 -29 -74 -67c0 -39 22 -60 59 -76l94 -39c73 -31 105 -66 105 -122c0 -42 -27 -73 -65 -90c16 -20 26 -44 26 -72c0 -73 -55 -124 -153 -124
c-77 0 -143 37 -171 90l55 34c22 -38 61 -65 113 -65c58 0 84 27 84 63c0 34 -24 54 -64 71l-92 37c-70 30 -102 63 -102 118c0 46 28 78 65 95zM302 91c24 10 38 28 38 52c0 32 -20 51 -67 71l-98 40c-16 6 -30 14 -42 23c-20 -13 -31 -32 -31 -53c0 -35 16 -54 64 -74
l94 -38c15 -6 29 -13 42 -21z" />
    <glyph glyph-name="numbersign.sc" horiz-adv-x="461" 
d="M68 176l28 108h-67v56h80l27 108h-72v56h86l27 109h58l-27 -109h99l28 109h58l-27 -109h66v-56h-80l-27 -108h71v-56h-86l-26 -108h-59l27 108h-99l-26 -108h-59zM167 340h100l27 108h-99z" />
    <glyph glyph-name="summation.sc" horiz-adv-x="464" 
d="M41 0v8l196 249l-199 238v9h365v-62h-199c-20 0 -43 2 -43 2s18 -17 30 -34l125 -149v-7l-126 -160c-12 -16 -31 -35 -31 -35s23 2 47 2h208v-61h-373z" />
    <glyph glyph-name="G.scalt" horiz-adv-x="602" 
d="M312 -8c-144 0 -262 107 -262 260c0 152 118 260 261 260c90 0 160 -34 208 -102l-55 -38c-34 51 -84 77 -153 77c-110 0 -189 -85 -189 -197c0 -113 79 -199 190 -199c102 0 163 61 177 135h-157v58h229c2 -148 -94 -254 -249 -254z" />
    <glyph glyph-name="M.scalt" horiz-adv-x="654" 
d="M60 0l56 510h9l172 -271c14 -22 27 -53 29 -58c1 2 16 35 30 58l172 271h9l56 -510h-69l-29 259c-5 45 -5 92 -5 93c-1 -2 -18 -46 -41 -83l-119 -186h-8l-119 187c-24 37 -42 78 -43 82c0 0 1 -45 -4 -92l-29 -260h-67z" />
    <glyph glyph-name="Q.scalt1" horiz-adv-x="628" 
d="M347 -6v-110h-66v110c-129 15 -232 118 -232 258c0 153 121 260 265 260c145 0 265 -107 265 -260c0 -140 -102 -243 -232 -258zM281 54v104h66v-104c96 15 160 94 160 198c0 113 -80 198 -193 198c-112 0 -193 -85 -193 -198c0 -104 65 -183 160 -198z" />
    <glyph glyph-name="Q.scalt2" horiz-adv-x="628" 
d="M347 -6c31 -27 59 -48 108 -48c35 0 59 18 75 34l43 -44c-27 -30 -63 -52 -117 -52c-72 0 -123 39 -168 79c-34 30 -61 52 -101 52c-42 0 -70 -26 -89 -54l-45 39c17 26 41 49 79 61c-51 46 -83 112 -83 191c0 153 121 260 265 260c145 0 265 -107 265 -260
c0 -140 -102 -243 -232 -258zM314 54c113 0 193 84 193 198c0 113 -80 198 -193 198c-112 0 -193 -85 -193 -198c0 -114 81 -198 193 -198z" />
    <glyph glyph-name="Gbreve.scalt" horiz-adv-x="602" 
d="M312 -8c-144 0 -262 107 -262 260c0 152 118 260 261 260c90 0 160 -34 208 -102l-55 -38c-34 51 -84 77 -153 77c-110 0 -189 -85 -189 -197c0 -113 79 -199 190 -199c102 0 163 61 177 135h-157v58h229c2 -148 -94 -254 -249 -254zM304 568c-77 0 -121 50 -131 117
l56 9c9 -39 28 -71 75 -71s66 32 75 71l56 -9c-10 -67 -54 -117 -131 -117z" />
    <glyph glyph-name="Gcircumflex.scalt" horiz-adv-x="602" 
d="M171 571l128 193h9l128 -193h-58l-74 101l-75 -101h-58zM312 -8c-144 0 -262 107 -262 260c0 152 118 260 261 260c90 0 160 -34 208 -102l-55 -38c-34 51 -84 77 -153 77c-110 0 -189 -85 -189 -197c0 -113 79 -199 190 -199c102 0 163 61 177 135h-157v58h229
c2 -148 -94 -254 -249 -254z" />
    <glyph glyph-name="Gcommaaccent.scalt" horiz-adv-x="602" 
d="M254 -256l32 99c-17 6 -32 24 -32 47c0 29 25 51 51 51c27 0 52 -22 52 -51c0 -13 -5 -26 -12 -39l-53 -107h-38zM312 -8c-144 0 -262 107 -262 260c0 152 118 260 261 260c90 0 160 -34 208 -102l-55 -38c-34 51 -84 77 -153 77c-110 0 -189 -85 -189 -197
c0 -113 79 -199 190 -199c102 0 163 61 177 135h-157v58h229c2 -148 -94 -254 -249 -254z" />
    <glyph glyph-name="Gdotaccent.scalt" horiz-adv-x="602" 
d="M304 585c-26 0 -50 20 -50 49s24 50 50 50s50 -21 50 -50s-24 -49 -50 -49zM312 -8c-144 0 -262 107 -262 260c0 152 118 260 261 260c90 0 160 -34 208 -102l-55 -38c-34 51 -84 77 -153 77c-110 0 -189 -85 -189 -197c0 -113 79 -199 190 -199c102 0 163 61 177 135
h-157v58h229c2 -148 -94 -254 -249 -254z" />
    <glyph glyph-name="space.sctab" horiz-adv-x="200" 
 />
    <glyph glyph-name="dollar.sctab" 
d="M223 -6c-89 9 -149 60 -173 110l54 29c22 -40 60 -74 119 -83v187c-97 27 -146 69 -146 144c0 70 57 124 146 130v106h51v-107c67 -10 113 -49 135 -87l-50 -32c-16 28 -42 54 -85 63v-166l6 -2c105 -31 156 -75 156 -152c0 -82 -58 -135 -162 -141v-112h-51v113z
M223 456c-50 -5 -80 -29 -80 -72c0 -42 22 -62 80 -80v152zM274 49c64 5 95 36 95 80c0 48 -24 71 -95 92v-172z" />
    <glyph glyph-name="cent.sctab" 
d="M246 347v99h51v-97c50 -6 88 -26 116 -58l-47 -39c-17 20 -40 33 -69 38v-240c34 5 60 21 77 41l46 -40c-29 -32 -70 -54 -123 -58v-102h-51v103c-87 13 -152 84 -152 177c0 92 65 163 152 176zM246 54v233c-50 -11 -82 -58 -82 -116c0 -60 32 -106 82 -117z" />
    <glyph glyph-name="Euro.sctab" 
d="M84 275h-62v54h69c24 111 99 183 202 183c82 0 132 -35 170 -96l-52 -36c-29 46 -56 71 -117 71c-69 0 -114 -47 -132 -122h170v-54h-177c-1 -7 -1 -15 -1 -23c0 -13 1 -26 2 -38h176v-54h-166c19 -67 62 -107 129 -107c62 0 96 34 122 77l56 -32
c-36 -63 -88 -106 -178 -106c-99 0 -173 66 -200 168h-73v54h63c-1 12 -2 25 -2 38c0 8 0 16 1 23z" />
    <glyph glyph-name="sterling.sctab" 
d="M160 213h-81v56h56c-12 30 -22 61 -22 96c0 85 61 147 163 147c83 0 137 -42 162 -96l-57 -32c-20 41 -53 67 -103 67c-58 0 -91 -34 -91 -90c0 -32 9 -62 21 -92h144v-56h-123c11 -30 19 -62 19 -98c0 -8 -1 -16 -2 -23c29 -20 60 -38 98 -38c34 0 54 13 73 37l45 -43
c-30 -38 -64 -56 -115 -56c-50 0 -88 25 -121 51c-21 -31 -57 -51 -98 -51c-51 0 -90 32 -90 79s38 77 84 77c23 0 44 -7 63 -17c-4 29 -14 56 -25 82zM182 79c-19 14 -38 24 -57 24c-23 0 -37 -14 -37 -32c0 -20 14 -35 38 -35c23 0 46 14 56 43z" />
    <glyph glyph-name="yen.sctab" 
d="M48 123v51h163v4l-36 64h-127v50h101l-113 212h80l109 -208c15 -31 24 -70 24 -70s10 40 25 70l115 208h74l-117 -212h100v-50h-127l-37 -63v-5h164v-51h-164v-123h-71v123h-163z" />
    <glyph glyph-name="florin.sctab" 
d="M174 215h-89v56h95l10 86c11 106 68 155 142 155c64 0 103 -31 126 -73l-49 -34c-15 27 -32 47 -74 47c-39 0 -69 -25 -77 -94l-10 -87h124v-56h-130l-35 -309h-68z" />
    <glyph glyph-name="zero.sctab" 
d="M249 -8c-130 0 -211 109 -211 260c0 154 83 260 211 260c130 0 213 -106 213 -260c0 -151 -81 -260 -213 -260zM249 55c87 0 139 75 139 197c0 124 -52 197 -139 197c-86 0 -138 -73 -138 -197c0 -122 52 -197 138 -197z" />
    <glyph glyph-name="one.sctab" 
d="M218 60v384h-125v60h196v-444h122v-60h-325v60h132z" />
    <glyph glyph-name="two.sctab" 
d="M60 0v8l210 216c44 44 72 88 72 137c0 51 -29 88 -88 88c-54 0 -91 -35 -109 -95l-63 16c17 83 82 142 174 142c97 0 158 -62 158 -149c0 -62 -37 -119 -86 -170l-91 -92c-16 -17 -49 -42 -52 -44c2 0 36 4 63 4h171v-61h-359z" />
    <glyph glyph-name="three.sctab" 
d="M241 -8c-91 0 -155 45 -186 108l59 29c23 -41 59 -75 125 -75c76 0 118 46 118 109c0 65 -50 107 -127 107c-29 0 -53 -6 -67 -11l-4 5l113 141c13 16 43 43 43 43s-40 -6 -63 -6h-153v62h318v-9l-116 -142c-15 -20 -33 -32 -36 -34c94 -6 163 -66 163 -159
c0 -104 -80 -168 -187 -168z" />
    <glyph glyph-name="four.sctab" 
d="M387 144h59v-57h-59v-87h-69v87h-272v49l332 373h9v-365zM319 143v158c0 25 5 77 5 79c-1 -2 -25 -39 -50 -67l-112 -135c-17 -18 -42 -40 -42 -40s36 5 60 5h139z" />
    <glyph glyph-name="five.sctab" 
d="M243 -8c-90 0 -153 49 -182 102l58 33c24 -40 61 -73 121 -73c76 0 118 42 118 108c0 67 -44 108 -121 108c-51 0 -99 -19 -128 -43l-5 3v274h291v-61h-230v-138c21 12 54 20 85 20c110 0 179 -67 179 -164c0 -100 -70 -169 -186 -169z" />
    <glyph glyph-name="six.sctab" 
d="M250 -8c-108 0 -185 75 -185 176c0 47 16 84 44 126l150 210h79l-89 -124c-19 -26 -56 -63 -56 -63c21 13 49 23 74 23c95 0 169 -73 169 -171s-76 -177 -186 -177zM250 54c73 0 115 51 115 115s-41 116 -115 116c-71 0 -116 -52 -116 -116s45 -115 116 -115z" />
    <glyph glyph-name="seven.sctab" 
d="M117 0l218 443h-266v61h367v-6l-244 -498h-75z" />
    <glyph glyph-name="eight.sctab" 
d="M250 -8c-106 0 -184 61 -184 149c0 68 46 113 104 129c-47 18 -75 59 -75 110c0 74 63 132 155 132c93 0 155 -58 155 -132c0 -52 -29 -93 -75 -110c59 -16 103 -61 103 -129c0 -88 -76 -149 -183 -149zM250 53c69 0 112 36 112 94c0 61 -43 96 -112 96
s-113 -35 -113 -96c0 -59 44 -94 113 -94zM251 295c52 0 86 31 86 82c0 48 -36 80 -87 80c-53 0 -87 -32 -87 -80c0 -51 35 -82 88 -82z" />
    <glyph glyph-name="nine.sctab" 
d="M163 0l99 137c14 20 37 41 44 47c-22 -15 -47 -21 -73 -21c-95 0 -170 73 -170 173c0 97 77 176 188 176c109 0 185 -76 185 -176c0 -46 -18 -90 -46 -130l-149 -206h-78zM251 218c72 0 115 53 115 117c0 61 -41 116 -115 116s-117 -54 -117 -116c0 -64 41 -117 117 -117
z" />
    <glyph glyph-name="percent.sctab" horiz-adv-x="750" 
d="M178 218c-78 0 -144 61 -144 147c0 85 66 147 144 147c76 0 143 -62 143 -147c0 -86 -67 -147 -143 -147zM182 0l315 504h70l-315 -504h-70zM573 -8c-78 0 -144 61 -144 146s66 147 144 147c77 0 143 -62 143 -147s-66 -146 -143 -146zM178 272c47 0 84 37 84 93
s-37 93 -84 93c-48 0 -85 -37 -85 -93s37 -93 85 -93zM573 45c47 0 84 37 84 93s-37 93 -84 93c-48 0 -85 -37 -85 -93s37 -93 85 -93z" />
    <glyph glyph-name="perthousand.sctab" horiz-adv-x="1100" 
d="M185 218c-77 0 -144 61 -144 147c0 85 67 147 144 147s143 -62 143 -147c0 -86 -66 -147 -143 -147zM191 0l315 504h70l-315 -504h-70zM915 -8c-78 0 -143 61 -143 146s65 147 143 147c77 0 143 -62 143 -147s-66 -146 -143 -146zM583 -8c-78 0 -143 61 -143 146
s65 147 143 147c77 0 143 -62 143 -147s-66 -146 -143 -146zM185 272c48 0 85 37 85 93s-37 93 -85 93c-47 0 -85 -37 -85 -93s38 -93 85 -93zM915 45c48 0 84 37 84 93s-36 93 -84 93s-84 -37 -84 -93s36 -93 84 -93zM583 45c48 0 84 37 84 93s-36 93 -84 93
s-84 -37 -84 -93s36 -93 84 -93z" />
    <glyph glyph-name="plus.sctab" 
d="M282 221v-152h-64v152h-142v62h142v152h64v-152h142v-62h-142z" />
    <glyph glyph-name="minus.sctab" 
d="M76 221v62h348v-62h-348z" />
    <glyph glyph-name="multiply.sctab" 
d="M251 207l-122 -121l-44 44l121 121l-121 121l44 44l121 -121l122 121l44 -44l-122 -121l122 -121l-44 -44z" />
    <glyph glyph-name="divide.sctab" 
d="M249 357c-27 0 -51 22 -51 51c0 30 24 52 51 52c28 0 52 -22 52 -52c0 -29 -24 -51 -52 -51zM75 221v62h349v-62h-349zM249 44c-27 0 -51 22 -51 51c0 30 24 52 51 52c28 0 52 -22 52 -52c0 -29 -24 -51 -52 -51z" />
    <glyph glyph-name="equal.sctab" 
d="M75 282v61h350v-61h-350zM75 152v62h350v-62h-350z" />
    <glyph glyph-name="less.sctab" 
d="M395 74l-320 165v10l320 163v-64l-212 -105l212 -105v-64z" />
    <glyph glyph-name="greater.sctab" 
d="M105 74v64l212 105l-212 105v64l320 -165v-10z" />
    <glyph glyph-name="degree.sctab" horiz-adv-x="325" 
d="M163 286c-65 0 -117 50 -117 113c0 64 52 113 117 113c64 0 116 -49 116 -113c0 -63 -52 -113 -116 -113zM163 332c38 0 64 28 64 67s-26 67 -64 67c-39 0 -65 -28 -65 -67s26 -67 65 -67z" />
    <glyph glyph-name="period.sctab" horiz-adv-x="200" 
d="M100 -7c-28 0 -54 24 -54 55s26 54 54 54c29 0 54 -23 54 -54s-25 -55 -54 -55z" />
    <glyph glyph-name="comma.sctab" horiz-adv-x="200" 
d="M43 -112l39 111c-21 7 -36 25 -36 49c0 30 26 54 54 54c29 0 54 -24 54 -54c0 -14 -6 -29 -12 -40l-60 -120h-39z" />
    <glyph glyph-name="colon.sctab" horiz-adv-x="200" 
d="M100 217c-28 0 -54 24 -54 55s26 54 54 54c29 0 54 -23 54 -54s-25 -55 -54 -55zM100 -7c-28 0 -54 24 -54 55s26 54 54 54c29 0 54 -23 54 -54s-25 -55 -54 -55z" />
    <glyph glyph-name="semicolon.sctab" horiz-adv-x="200" 
d="M100 217c-28 0 -54 24 -54 55s26 54 54 54c29 0 54 -23 54 -54s-25 -55 -54 -55zM43 -112l39 111c-21 7 -36 25 -36 49c0 30 26 54 54 54c29 0 54 -24 54 -54c0 -14 -6 -29 -12 -40l-60 -120h-39z" />
    <glyph glyph-name="parenleft.sctab" horiz-adv-x="300" 
d="M216 -60c-86 88 -167 215 -167 399c0 183 82 311 167 398l44 -35c-78 -91 -137 -201 -137 -363c0 -163 60 -272 137 -363z" />
    <glyph glyph-name="parenright.sctab" horiz-adv-x="300" 
d="M84 -60l-45 36c78 91 138 200 138 363s-60 272 -138 363l45 35c85 -88 166 -215 166 -398c0 -184 -81 -312 -166 -399z" />
    <glyph glyph-name="bracketleft.sctab" horiz-adv-x="300" 
d="M73 -55v787h190v-60h-120v-667h120v-60h-190z" />
    <glyph glyph-name="bracketright.sctab" horiz-adv-x="300" 
d="M37 -55v60h119v667h-119v60h190v-787h-190z" />
    </font>
</defs>
</svg>
