<?xml version="1.0" standalone="no"?>
<!DOCTYPE svg PUBLIC "-//W3C//DTD SVG 1.1//EN" "http://www.w3.org/Graphics/SVG/1.1/DTD/svg11.dtd" >
<svg>
<metadata>
Created by FontForge 20120731 at Wed Aug 20 17:34:21 2014
 By World Wide Web Server
Part of the Neutraface 2 collection from House Industries.
</metadata>
<defs>
<font id="Neutraface2Text-Light" horiz-adv-x="500" >
  <font-face 
    font-family="Neutraface 2 Text Light"
    font-weight="300"
    font-stretch="normal"
    units-per-em="1000"
    panose-1="2 11 3 3 2 2 2 2 1 2"
    ascent="780"
    descent="-220"
    x-height="408"
    cap-height="680"
    bbox="-50 -257 1107 960"
    underline-thickness="20"
    underline-position="-113"
    stemh="35"
    stemv="40"
    unicode-range="U+0020-FB04"
  />
<missing-glyph horiz-adv-x="244" 
 />
    <glyph glyph-name="fi" unicode="fi" horiz-adv-x="465" 
d="M361 551c-17 0 -33 13 -33 33c0 19 16 33 33 33s33 -14 33 -33c0 -20 -16 -33 -33 -33zM101 0v375h-65v33h65v210c0 84 44 117 96 117c49 0 72 -20 91 -48l-29 -22c-15 21 -27 35 -61 35s-58 -18 -58 -83v-209h241v-408h-39v375h-202v-375h-39z" />
    <glyph glyph-name="fl" unicode="fl" horiz-adv-x="471" 
d="M101 0v375h-65v33h65v210c0 84 44 117 96 117c49 0 72 -20 91 -48l-29 -22c-15 21 -27 35 -61 35s-58 -18 -58 -83v-209h109v-33h-109v-375h-39zM342 0v722h39v-722h-39z" />
    <glyph glyph-name="ff" unicode="ff" horiz-adv-x="526" 
d="M101 0v375h-65v33h65v190c0 84 44 117 96 117c49 0 72 -20 91 -48l-29 -22c-15 21 -27 35 -61 35s-58 -18 -58 -83v-189h202v210c0 84 44 117 96 117c49 0 72 -20 91 -48l-29 -22c-15 21 -27 35 -61 35s-58 -18 -58 -83v-209h109v-33h-109v-375h-39v375h-202v-375h-39z
" />
    <glyph glyph-name="ffi" unicode="ffi" horiz-adv-x="706" 
d="M602 551c-17 0 -33 13 -33 33c0 19 16 33 33 33s33 -14 33 -33c0 -20 -16 -33 -33 -33zM101 0v375h-65v33h65v190c0 84 44 117 96 117c49 0 72 -20 91 -48l-29 -22c-15 21 -27 35 -61 35s-58 -18 -58 -83v-189h202v210c0 84 44 117 96 117c49 0 72 -20 91 -48l-29 -22
c-15 21 -27 35 -61 35s-58 -18 -58 -83v-209h241v-408h-39v375h-202v-375h-39v375h-202v-375h-39z" />
    <glyph glyph-name="ffl" unicode="ffl" horiz-adv-x="712" 
d="M101 0v375h-65v33h65v190c0 84 44 117 96 117c49 0 72 -20 91 -48l-29 -22c-15 21 -27 35 -61 35s-58 -18 -58 -83v-189h202v210c0 84 44 117 96 117c49 0 72 -20 91 -48l-29 -22c-15 21 -27 35 -61 35s-58 -18 -58 -83v-209h109v-33h-109v-375h-39v375h-202v-375h-39z
M583 0v722h39v-722h-39z" />
    <glyph glyph-name="f_b" unicode="fb" horiz-adv-x="808" 
d="M101 0v375h-65v33h65v210c0 84 44 117 96 117c49 0 72 -20 91 -48l-29 -22c-15 21 -27 35 -61 35s-58 -18 -58 -83v-209h109v-33h-109v-375h-39zM554 -8c-79 0 -146 47 -175 110l2 -102h-39v722h39v-411c30 61 90 106 173 106c117 0 202 -92 202 -212s-85 -213 -202 -213
zM549 27c101 0 166 77 166 178s-65 177 -166 177c-103 0 -171 -76 -171 -177s68 -178 171 -178z" />
    <glyph glyph-name="f_f_b" unicode="ffb" horiz-adv-x="1049" 
d="M101 0v375h-65v33h65v190c0 84 44 117 96 117c49 0 72 -20 91 -48l-29 -22c-15 21 -27 35 -61 35s-58 -18 -58 -83v-189h202v210c0 84 44 117 96 117c49 0 72 -20 91 -48l-29 -22c-15 21 -27 35 -61 35s-58 -18 -58 -83v-209h109v-33h-109v-375h-39v375h-202v-375h-39z
M795 -8c-79 0 -146 47 -175 110l2 -102h-39v722h39v-411c30 61 90 106 173 106c117 0 202 -92 202 -212s-85 -213 -202 -213zM790 27c101 0 166 77 166 178s-65 177 -166 177c-103 0 -171 -76 -171 -177s68 -178 171 -178z" />
    <glyph glyph-name="f_f_f" unicode="fff" horiz-adv-x="769" 
d="M583 375h-202v-375h-39v375h-202v-375h-39v375h-65v33h65v190c0 84 44 117 96 117c49 0 72 -20 91 -48l-29 -22c-15 21 -27 35 -61 35s-58 -18 -58 -83v-189h202v200c0 84 44 117 96 117c49 0 72 -20 91 -48l-29 -22c-15 21 -27 35 -61 35s-58 -18 -58 -83v-199h202v210
c0 84 44 117 96 117c49 0 72 -20 91 -48l-29 -22c-15 21 -27 35 -61 35s-58 -18 -58 -83v-209h109v-33h-109v-375h-39v375z" />
    <glyph glyph-name="f_f_f_i" unicode="fffi" horiz-adv-x="947" 
d="M843 551c-17 0 -33 13 -33 33c0 19 16 33 33 33s33 -14 33 -33c0 -20 -16 -33 -33 -33zM342 375h-202v-375h-39v375h-65v33h65v190c0 84 44 117 96 117c49 0 72 -20 91 -48l-29 -22c-15 21 -27 35 -61 35s-58 -18 -58 -83v-189h202v200c0 84 44 117 96 117
c49 0 72 -20 91 -48l-29 -22c-15 21 -27 35 -61 35s-58 -18 -58 -83v-199h202v210c0 84 44 117 96 117c49 0 72 -20 91 -48l-29 -22c-15 21 -27 35 -61 35s-58 -18 -58 -83v-209h241v-408h-39v375h-202v-375h-39v375h-202v-375h-39v375z" />
    <glyph glyph-name="f_f_f_l" unicode="fffl" horiz-adv-x="953" 
d="M342 375h-202v-375h-39v375h-65v33h65v190c0 84 44 117 96 117c49 0 72 -20 91 -48l-29 -22c-15 21 -27 35 -61 35s-58 -18 -58 -83v-189h202v200c0 84 44 117 96 117c49 0 72 -20 91 -48l-29 -22c-15 21 -27 35 -61 35s-58 -18 -58 -83v-199h202v210c0 84 44 117 96 117
c49 0 72 -20 91 -48l-29 -22c-15 21 -27 35 -61 35s-58 -18 -58 -83v-209h109v-33h-109v-375h-39v375h-202v-375h-39v375zM824 0v722h39v-722h-39z" />
    <glyph glyph-name="f_f_h" unicode="ffh" horiz-adv-x="1008" 
d="M101 0v375h-65v33h65v190c0 84 44 117 96 117c49 0 72 -20 91 -48l-29 -22c-15 21 -27 35 -61 35s-58 -18 -58 -83v-189h202v210c0 84 44 117 96 117c49 0 72 -20 91 -48l-29 -22c-15 21 -27 35 -61 35s-58 -18 -58 -83v-209h109v-33h-109v-375h-39v375h-202v-375h-39z
M583 0v722h39v-401c27 58 83 96 155 96c91 0 152 -61 152 -162v-255h-39v248c0 84 -39 133 -118 133c-88 0 -150 -58 -150 -153v-228h-39z" />
    <glyph glyph-name="f_f_iacute" unicode="ff&#xed;" horiz-adv-x="706" 
d="M585 497l75 195h46l-88 -195h-33zM101 0v375h-65v33h65v190c0 84 44 117 96 117c49 0 72 -20 91 -48l-29 -22c-15 21 -27 35 -61 35s-58 -18 -58 -83v-189h202v210c0 84 44 117 96 117c49 0 72 -20 91 -48l-29 -22c-15 21 -27 35 -61 35s-58 -18 -58 -83v-209h241v-408
h-39v375h-202v-375h-39v375h-202v-375h-39z" />
    <glyph glyph-name="f_f_icircumflex" unicode="ff&#xee;" horiz-adv-x="706" 
d="M484 504l113 182h9l113 -182h-35l-82 119l-83 -119h-35zM101 0v375h-65v33h65v190c0 84 44 117 96 117c49 0 72 -20 91 -48l-29 -22c-15 21 -27 35 -61 35s-58 -18 -58 -83v-189h202v210c0 84 44 117 96 117c49 0 72 -20 91 -48l-29 -22c-15 21 -27 35 -61 35
s-58 -18 -58 -83v-209h241v-408h-39v375h-202v-375h-39v375h-202v-375h-39z" />
    <glyph glyph-name="f_f_idieresis" unicode="ff&#xef;" horiz-adv-x="706" 
d="M678 551c-17 0 -32 14 -32 32s15 32 32 32s32 -14 32 -32s-15 -32 -32 -32zM526 551c-17 0 -32 14 -32 32s15 32 32 32s32 -14 32 -32s-15 -32 -32 -32zM101 0v375h-65v33h65v190c0 84 44 117 96 117c49 0 72 -20 91 -48l-29 -22c-15 21 -27 35 -61 35s-58 -18 -58 -83
v-189h202v210c0 84 44 117 96 117c49 0 72 -20 91 -48l-29 -22c-15 21 -27 35 -61 35s-58 -18 -58 -83v-209h241v-408h-39v375h-202v-375h-39v375h-202v-375h-39z" />
    <glyph glyph-name="f_f_j" unicode="ffj" horiz-adv-x="706" 
d="M602 551c-17 0 -33 13 -33 33c0 19 16 33 33 33s33 -14 33 -33c0 -20 -16 -33 -33 -33zM531 -222c-42 0 -67 17 -83 36l24 25c13 -14 29 -27 57 -27c32 0 54 20 54 77v486h-202v-375h-39v375h-202v-375h-39v375h-65v33h65v190c0 84 44 117 96 117c49 0 72 -20 91 -48
l-29 -22c-15 21 -27 35 -61 35s-58 -18 -58 -83v-189h202v210c0 84 44 117 96 117c49 0 72 -20 91 -48l-29 -22c-15 21 -27 35 -61 35s-58 -18 -58 -83v-209h241v-520c0 -75 -41 -110 -91 -110z" />
    <glyph glyph-name="f_f_k" unicode="ffk" horiz-adv-x="948" 
d="M101 0v375h-65v33h65v190c0 84 44 117 96 117c49 0 72 -20 91 -48l-29 -22c-15 21 -27 35 -61 35s-58 -18 -58 -83v-189h202v210c0 84 44 117 96 117c49 0 72 -20 91 -48l-29 -22c-15 21 -27 35 -61 35s-58 -18 -58 -83v-209h109v-33h-109v-375h-39v375h-202v-375h-39z
M622 127v-127h-39v722h39v-508c0 -17 -2 -34 -3 -44l226 238h46l-164 -173l193 -235h-48l-172 209z" />
    <glyph glyph-name="f_f_t" unicode="fft" horiz-adv-x="796" 
d="M677 -8c-52 0 -94 33 -94 116v267h-202v-375h-39v375h-202v-375h-39v375h-65v33h65v190c0 84 44 117 96 117c49 0 72 -20 91 -48l-29 -22c-15 21 -27 35 -61 35s-58 -18 -58 -83v-189h202v210c0 84 44 117 95 117c47 0 73 -21 90 -50l-30 -20c-14 21 -27 35 -59 35
c-33 0 -57 -20 -57 -83v-209h202v143h39v-143h118v-33h-118v-266c0 -60 21 -82 55 -82c36 0 50 14 65 30l25 -24c-20 -23 -44 -41 -90 -41z" />
    <glyph glyph-name="f_h" unicode="fh" horiz-adv-x="767" 
d="M101 0v375h-65v33h65v210c0 84 44 117 96 117c49 0 72 -20 91 -48l-29 -22c-15 21 -27 35 -61 35s-58 -18 -58 -83v-209h109v-33h-109v-375h-39zM342 0v722h39v-401c27 58 83 96 155 96c91 0 152 -61 152 -162v-255h-39v248c0 84 -39 133 -118 133
c-88 0 -150 -58 -150 -153v-228h-39z" />
    <glyph glyph-name="f_iacute" unicode="f&#xed;" horiz-adv-x="465" 
d="M344 497l75 195h46l-88 -195h-33zM101 0v375h-65v33h65v210c0 84 44 117 96 117c49 0 72 -20 91 -48l-29 -22c-15 21 -27 35 -61 35s-58 -18 -58 -83v-209h241v-408h-39v375h-202v-375h-39z" />
    <glyph glyph-name="f_icircumflex" unicode="f&#xee;" horiz-adv-x="465" 
d="M243 504l113 182h9l113 -182h-35l-82 119l-83 -119h-35zM101 0v375h-65v33h65v210c0 84 44 117 96 117c49 0 72 -20 91 -48l-29 -22c-15 21 -27 35 -61 35s-58 -18 -58 -83v-209h241v-408h-39v375h-202v-375h-39z" />
    <glyph glyph-name="f_idieresis" unicode="f&#xef;" horiz-adv-x="465" 
d="M437 551c-17 0 -32 14 -32 32s15 32 32 32s32 -14 32 -32s-15 -32 -32 -32zM285 551c-17 0 -32 14 -32 32s15 32 32 32s32 -14 32 -32s-15 -32 -32 -32zM101 0v375h-65v33h65v210c0 84 44 117 96 117c49 0 72 -20 91 -48l-29 -22c-15 21 -27 35 -61 35s-58 -18 -58 -83
v-209h241v-408h-39v375h-202v-375h-39z" />
    <glyph glyph-name="f_j" unicode="fj" horiz-adv-x="465" 
d="M361 551c-17 0 -33 13 -33 33c0 19 16 33 33 33s33 -14 33 -33c0 -20 -16 -33 -33 -33zM290 -222c-42 0 -67 17 -83 36l24 25c13 -14 29 -27 57 -27c32 0 54 20 54 77v486h-202v-375h-39v375h-65v33h65v210c0 84 44 117 96 117c49 0 72 -20 91 -48l-29 -22
c-15 21 -27 35 -61 35s-58 -18 -58 -83v-209h241v-520c0 -75 -41 -110 -91 -110z" />
    <glyph glyph-name="f_k" unicode="fk" horiz-adv-x="707" 
d="M101 0v375h-65v33h65v210c0 84 44 117 96 117c49 0 72 -20 91 -48l-29 -22c-15 21 -27 35 -61 35s-58 -18 -58 -83v-209h109v-33h-109v-375h-39zM381 127v-127h-39v722h39v-508c0 -17 -2 -34 -3 -44l226 238h46l-164 -173l193 -235h-48l-172 209z" />
    <glyph glyph-name="f_t" unicode="ft" horiz-adv-x="555" 
d="M436 -8c-52 0 -94 33 -94 116v267h-202v-375h-39v375h-65v33h65v210c0 84 44 117 95 117c47 0 73 -21 90 -50l-30 -20c-14 21 -27 35 -59 35c-33 0 -57 -20 -57 -83v-209h202v143h39v-143h118v-33h-118v-266c0 -60 21 -82 55 -82c36 0 50 14 65 30l25 -24
c-20 -23 -44 -41 -90 -41z" />
    <glyph glyph-name=".notdef" horiz-adv-x="244" 
 />
    <glyph glyph-name="space" unicode=" " horiz-adv-x="244" 
 />
    <glyph glyph-name="exclam" unicode="!" horiz-adv-x="224" 
d="M97 170l-7 510h44l-7 -510h-30zM112 -7c-19 0 -38 17 -38 38c0 22 19 39 38 39c20 0 38 -17 38 -39c0 -21 -18 -38 -38 -38z" />
    <glyph glyph-name="quotedbl" unicode="&#x22;" horiz-adv-x="225" 
d="M147 487l-5 193h41l-5 -193h-31zM47 487l-5 193h41l-5 -193h-31z" />
    <glyph glyph-name="numbersign" unicode="#" horiz-adv-x="431" 
d="M72 192l28 111h-72v34h80l31 124h-80v34h88l29 115h36l-29 -115h111l29 115h36l-29 -115h73v-34h-81l-31 -124h80v-34h-89l-27 -111h-37l28 111h-111l-27 -111h-36zM144 337h111l31 124h-111z" />
    <glyph glyph-name="dollar" unicode="$" horiz-adv-x="404" 
d="M183 -7c-79 8 -139 55 -163 106l33 16c23 -45 68 -81 130 -88v219l-12 4c-77 26 -125 60 -125 133c0 69 60 115 137 120v107h34v-108c65 -7 111 -46 131 -87l-31 -17c-20 36 -49 64 -100 70v-195l19 -6c94 -32 136 -70 136 -143c0 -76 -60 -128 -155 -132v-112h-34v113z
M183 469c-57 -4 -98 -32 -98 -86s31 -75 95 -97l3 -1v184zM217 26c71 4 116 40 116 98c0 59 -31 82 -106 107l-10 3v-208z" />
    <glyph glyph-name="percent" unicode="%" horiz-adv-x="723" 
d="M173 219c-75 0 -143 59 -143 142c0 82 68 142 143 142c74 0 142 -60 142 -142c0 -83 -68 -142 -142 -142zM188 0l308 495h40l-308 -495h-40zM551 -8c-75 0 -142 59 -142 142c0 82 67 142 142 142s142 -60 142 -142c0 -83 -67 -142 -142 -142zM173 252
c58 0 105 44 105 109s-47 108 -105 108s-106 -43 -106 -108s48 -109 106 -109zM551 25c58 0 105 44 105 109c0 64 -47 108 -105 108s-105 -44 -105 -108c0 -65 47 -109 105 -109z" />
    <glyph glyph-name="ampersand" unicode="&#x26;" horiz-adv-x="635" 
d="M287 393l172 -207c21 51 33 114 33 185h38c0 -85 -16 -158 -44 -217l128 -154h-51l-98 118c-52 -81 -132 -126 -226 -126c-114 0 -193 68 -193 179c0 121 92 175 184 229l-22 27c-36 44 -54 88 -54 131c0 74 52 130 130 130c76 0 129 -58 129 -130
c0 -71 -57 -122 -126 -165zM264 421c59 36 109 77 109 137c0 56 -37 93 -89 93c-54 0 -90 -35 -90 -93c0 -36 15 -71 43 -104zM440 148l-187 225c-87 -50 -165 -97 -165 -202c0 -88 60 -142 151 -142c86 0 156 43 201 119z" />
    <glyph glyph-name="quoteright" unicode="&#x2019;" horiz-adv-x="178" 
d="M45 511l32 100c-14 3 -27 18 -27 36c0 22 19 40 39 40s39 -18 39 -40c0 -5 -2 -12 -5 -19l-53 -117h-25z" />
    <glyph glyph-name="parenleft" unicode="(" horiz-adv-x="261" 
d="M206 -136c-84 89 -165 226 -165 427c0 200 81 338 165 427l26 -23c-77 -88 -150 -214 -150 -404c0 -191 73 -316 150 -404z" />
    <glyph glyph-name="parenright" unicode=")" horiz-adv-x="261" 
d="M55 -136l-26 23c77 88 149 214 149 404c0 191 -72 316 -149 404l26 23c83 -89 165 -226 165 -427c0 -200 -82 -338 -165 -427z" />
    <glyph glyph-name="asterisk" unicode="*" horiz-adv-x="379" 
d="M171 382l8 131l-106 -68l-18 32l119 55l-119 55l18 32l106 -68l-8 129h37l-8 -129l106 68l18 -32l-119 -55l118 -55l-17 -32l-106 68l8 -131h-37z" />
    <glyph glyph-name="plus" unicode="+" horiz-adv-x="355" 
d="M158 95v132h-119v36h119v132h38v-132h120v-36h-120v-132h-38z" />
    <glyph glyph-name="comma" unicode="," horiz-adv-x="180" 
d="M40 -111l39 107c-16 4 -29 18 -29 37c0 22 20 40 40 40c21 0 40 -18 40 -40c0 -5 -2 -15 -4 -19l-61 -125h-25z" />
    <glyph glyph-name="hyphen" unicode="-" horiz-adv-x="278" 
d="M51 208v36h175v-36h-175z" />
    <glyph glyph-name="period" unicode="." horiz-adv-x="180" 
d="M90 -7c-20 0 -40 18 -40 40c0 23 20 40 40 40c21 0 40 -17 40 -40c0 -22 -19 -40 -40 -40z" />
    <glyph glyph-name="slash" unicode="/" horiz-adv-x="430" 
d="M29 -128l311 850h41l-311 -850h-41z" />
    <glyph glyph-name="zero" unicode="0" horiz-adv-x="605" 
d="M302 -8c-140 0 -258 110 -258 256c0 148 118 255 258 255c141 0 259 -107 259 -255c0 -146 -118 -256 -259 -256zM302 28c122 0 218 95 218 220c0 127 -96 219 -218 219s-217 -92 -217 -219c0 -125 95 -220 217 -220z" />
    <glyph glyph-name="one" unicode="1" horiz-adv-x="262" 
d="M140 0v460h-117v35h157v-495h-40z" />
    <glyph glyph-name="two" unicode="2" horiz-adv-x="466" 
d="M33 0v7l205 174c72 61 117 114 117 176c0 75 -49 110 -115 110c-68 0 -117 -37 -142 -113l-35 10c23 86 90 139 177 139c89 0 155 -52 155 -146c0 -72 -51 -133 -130 -199l-112 -94c-18 -15 -41 -29 -45 -31c2 0 30 3 49 3h254v-36h-378z" />
    <glyph glyph-name="three" unicode="3" horiz-adv-x="479" 
d="M232 -103c-92 0 -172 45 -207 125l34 17c33 -66 92 -106 173 -106c88 0 163 53 163 156c0 98 -64 146 -168 146c-33 0 -58 -8 -79 -17l-6 8l180 208c11 13 25 27 27 29c-1 0 -23 -3 -41 -3h-233v35h342v-4l-169 -194c-13 -16 -32 -28 -35 -29c129 8 223 -63 223 -179
c0 -124 -96 -192 -204 -192z" />
    <glyph glyph-name="four" unicode="4" horiz-adv-x="506" 
d="M396 68h77v-37h-77v-125h-40v125h-337v7l369 469h8v-439zM356 68v301c0 20 3 48 3 48s-16 -25 -29 -42l-215 -273c-13 -17 -34 -37 -34 -37s27 3 46 3h229z" />
    <glyph glyph-name="five" unicode="5" horiz-adv-x="475" 
d="M227 -103c-89 0 -156 40 -189 98l31 20c31 -50 81 -82 158 -82c98 0 165 61 165 158c0 96 -52 155 -159 155c-72 0 -116 -28 -147 -55l-7 2v302h322v-35h-286v-212c27 18 66 34 121 34c119 0 197 -77 197 -191c0 -116 -91 -194 -206 -194z" />
    <glyph glyph-name="six" unicode="6" horiz-adv-x="497" 
d="M249 -8c-117 0 -204 82 -204 198c0 52 26 99 57 147l181 273h44l-144 -218c-11 -16 -33 -42 -38 -47c28 25 66 44 109 44c114 0 198 -84 198 -199c0 -110 -84 -198 -203 -198zM248 28c95 0 164 67 164 162c0 100 -62 163 -163 163c-99 0 -164 -74 -164 -163
c0 -95 63 -162 163 -162z" />
    <glyph glyph-name="seven" unicode="7" horiz-adv-x="434" 
d="M84 -94l267 554h-316v35h370v-7l-280 -582h-41z" />
    <glyph glyph-name="eight" unicode="8" horiz-adv-x="511" 
d="M255 -8c-128 0 -213 76 -213 183c0 85 59 146 143 167c-56 20 -94 65 -94 129c0 86 73 147 164 147c92 0 166 -61 166 -147c0 -64 -39 -109 -95 -129c84 -21 143 -82 143 -167c0 -107 -84 -183 -214 -183zM255 29c104 0 173 58 173 146c0 89 -70 148 -173 148
s-172 -59 -172 -148s68 -146 172 -146zM255 359c76 0 126 45 126 112c0 65 -52 112 -126 112c-75 0 -125 -47 -125 -112c0 -67 48 -112 125 -112z" />
    <glyph glyph-name="nine" unicode="9" horiz-adv-x="505" 
d="M198 -94l130 198c9 14 23 29 30 37c-28 -25 -73 -40 -110 -40c-117 0 -203 85 -203 201c0 110 88 201 208 201c119 0 207 -85 207 -201c0 -54 -26 -100 -58 -150l-160 -246h-44zM252 136c101 0 168 75 168 166c0 96 -68 165 -167 165c-98 0 -168 -67 -168 -165
c0 -101 66 -166 167 -166z" />
    <glyph glyph-name="colon" unicode=":" horiz-adv-x="190" 
d="M95 214c-20 0 -40 18 -40 40c0 23 20 41 40 41c21 0 40 -18 40 -41c0 -22 -19 -40 -40 -40zM95 -7c-20 0 -40 18 -40 40c0 23 20 41 40 41c21 0 40 -18 40 -41c0 -22 -19 -40 -40 -40z" />
    <glyph glyph-name="semicolon" unicode=";" horiz-adv-x="190" 
d="M95 214c-20 0 -40 18 -40 40c0 23 20 41 40 41c21 0 40 -18 40 -41c0 -22 -19 -40 -40 -40zM45 -111l39 107c-16 4 -29 18 -29 37c0 22 20 40 40 40c21 0 40 -18 40 -40c0 -5 -2 -15 -4 -19l-61 -125h-25z" />
    <glyph glyph-name="less" unicode="&#x3c;" horiz-adv-x="355" 
d="M300 105l-258 134v10l258 132v-39l-196 -98l196 -99v-40z" />
    <glyph glyph-name="equal" unicode="=" horiz-adv-x="355" 
d="M45 283v36h265v-36h-265zM45 170v36h265v-36h-265z" />
    <glyph glyph-name="greater" unicode="&#x3e;" horiz-adv-x="355" 
d="M55 105v39l196 98l-196 99v40l258 -134v-10z" />
    <glyph glyph-name="question" unicode="?" horiz-adv-x="449" 
d="M174 166v185h27c92 0 154 67 154 151c0 97 -60 149 -145 149c-73 0 -119 -29 -152 -101l-34 17c31 79 101 121 186 121c106 0 186 -67 186 -186c0 -105 -80 -181 -184 -185v-151h-38zM192 -7c-19 0 -38 17 -38 38c0 22 19 39 38 39c20 0 38 -17 38 -39
c0 -21 -18 -38 -38 -38z" />
    <glyph glyph-name="at" unicode="@" horiz-adv-x="868" 
d="M435 -206c-211 0 -381 161 -381 391c0 222 171 391 381 391c216 0 379 -164 379 -368c0 -153 -66 -214 -141 -214c-61 0 -100 36 -105 101c-29 -68 -80 -103 -148 -103c-99 0 -175 80 -175 187c0 109 76 191 175 191c69 0 119 -41 145 -98l-2 89h39v-235
c0 -62 18 -99 71 -99c57 0 103 52 103 181c0 177 -130 334 -341 334c-202 0 -342 -162 -342 -357c0 -199 139 -357 342 -357c61 0 119 15 167 45l18 -30c-53 -33 -117 -49 -185 -49zM423 26c80 0 141 69 141 153c0 86 -61 157 -141 157c-81 0 -138 -71 -138 -157
c0 -84 57 -153 138 -153z" />
    <glyph glyph-name="A" unicode="A" horiz-adv-x="651" 
d="M172 218h306l-133 334c-10 24 -19 59 -20 62c-1 -3 -11 -38 -20 -61zM44 0l275 688h12l276 -688h-42l-73 182h-335l-72 -182h-41z" />
    <glyph glyph-name="B" unicode="B" horiz-adv-x="600" 
d="M103 0v680h209c130 0 189 -75 189 -169c0 -71 -25 -123 -96 -148c87 -18 133 -78 133 -174c0 -109 -60 -189 -206 -189h-229zM144 36h183c127 0 170 63 170 153c0 97 -54 153 -173 153h-180v-306zM144 378h182c98 0 134 57 134 133c0 75 -41 133 -152 133h-164v-266z" />
    <glyph glyph-name="C" unicode="C" horiz-adv-x="731" 
d="M405 -8c-192 0 -348 141 -348 348s156 348 348 348c119 0 213 -46 270 -129l-31 -23c-50 71 -131 115 -239 115c-175 0 -306 -133 -306 -311s131 -311 306 -311c105 0 193 44 247 121l31 -22c-60 -87 -160 -136 -278 -136z" />
    <glyph glyph-name="D" unicode="D" horiz-adv-x="677" 
d="M103 0v680h145c235 0 372 -131 372 -340s-136 -340 -372 -340h-145zM144 37h99c225 0 334 125 334 303s-109 303 -334 303h-99v-606z" />
    <glyph glyph-name="E" unicode="E" horiz-adv-x="573" 
d="M103 0v680h397v-36h-356v-284h319v-36h-319v-288h370v-36h-411z" />
    <glyph glyph-name="F" unicode="F" horiz-adv-x="556" 
d="M103 0v680h396v-36h-355v-299h322v-37h-322v-308h-41z" />
    <glyph glyph-name="G" unicode="G" horiz-adv-x="745" 
d="M407 -8c-194 0 -350 141 -350 348s157 348 351 348c92 0 177 -27 232 -85l-27 -28c-49 51 -119 76 -205 76c-177 0 -309 -133 -309 -311s132 -311 308 -311c116 0 187 38 232 80v158h-219v36h259v-210c-55 -56 -142 -101 -272 -101z" />
    <glyph glyph-name="H" unicode="H" horiz-adv-x="684" 
d="M103 0v680h41v-330h396v330h41v-680h-41v313h-396v-313h-41z" />
    <glyph glyph-name="I" unicode="I" horiz-adv-x="255" 
d="M107 0v680h41v-680h-41z" />
    <glyph glyph-name="J" unicode="J" horiz-adv-x="476" 
d="M202 -8c-81 0 -130 39 -160 90l33 22c28 -48 70 -75 126 -75c76 0 129 46 129 141v510h41v-512c0 -116 -73 -176 -169 -176z" />
    <glyph glyph-name="K" unicode="K" horiz-adv-x="587" 
d="M103 0v680h41v-343c0 -29 -3 -62 -4 -77c14 24 33 53 41 64l297 356h46l-254 -307l284 -373h-51l-259 344l-100 -120v-224h-41z" />
    <glyph glyph-name="L" unicode="L" horiz-adv-x="512" 
d="M103 0v680h41v-644h327v-36h-368z" />
    <glyph glyph-name="M" unicode="M" horiz-adv-x="840" 
d="M103 0v688h10l307 -404l307 404h10v-688h-39v540c0 24 2 59 2 59s-19 -33 -37 -56l-239 -314h-11l-236 314c-17 22 -37 56 -37 56s2 -35 2 -59v-540h-39z" />
    <glyph glyph-name="N" unicode="N" horiz-adv-x="719" 
d="M604 -8l-435 564c-13 17 -31 45 -31 45s3 -31 3 -51v-550h-38v688h12l435 -564c13 -17 31 -45 31 -45s-3 31 -3 51v550h38v-688h-12z" />
    <glyph glyph-name="O" unicode="O" horiz-adv-x="810" 
d="M405 -8c-192 0 -348 141 -348 348s156 348 348 348s348 -141 348 -348s-156 -348 -348 -348zM405 29c175 0 306 133 306 311s-131 311 -306 311s-306 -133 -306 -311s131 -311 306 -311z" />
    <glyph glyph-name="P" unicode="P" horiz-adv-x="573" 
d="M103 0v680h180c149 0 238 -71 238 -203c0 -128 -88 -202 -238 -202h-139v-275h-41zM144 311h135c136 0 200 59 200 166c0 108 -64 167 -200 167h-135v-333z" />
    <glyph glyph-name="Q" unicode="Q" horiz-adv-x="810" 
d="M649 86l106 -111l-29 -26l-107 112c-59 -44 -133 -69 -214 -69c-192 0 -348 141 -348 348s156 348 348 348s348 -141 348 -348c0 -105 -40 -193 -104 -254zM592 90l-112 117l29 26l112 -118c56 56 90 135 90 225c0 178 -131 311 -306 311s-306 -133 -306 -311
s131 -311 306 -311c72 0 136 22 187 61z" />
    <glyph glyph-name="R" unicode="R" horiz-adv-x="598" 
d="M103 0v680h182c143 0 236 -68 236 -200c0 -99 -55 -164 -147 -189l171 -291h-49l-165 283c-15 -2 -30 -2 -46 -2h-141v-281h-41zM144 317h137c130 0 198 56 198 163c0 108 -68 164 -198 164h-137v-327z" />
    <glyph glyph-name="S" unicode="S" horiz-adv-x="527" 
d="M265 -8c-129 0 -195 68 -228 136l35 17c32 -60 83 -117 192 -117c89 0 162 52 162 138c0 79 -44 122 -139 166l-63 29c-95 44 -142 89 -142 175c0 94 75 152 167 152c91 0 142 -47 174 -98l-32 -21c-28 45 -67 83 -142 83c-80 0 -127 -46 -127 -115
c0 -68 34 -101 118 -140l63 -29c110 -50 163 -108 163 -202c0 -106 -84 -174 -201 -174z" />
    <glyph glyph-name="T" unicode="T" horiz-adv-x="539" 
d="M249 0v644h-216v36h473v-36h-216v-644h-41z" />
    <glyph glyph-name="U" unicode="U" horiz-adv-x="651" 
d="M325 -8c-131 0 -229 81 -229 234v454h41v-451c0 -131 76 -201 188 -201c111 0 189 70 189 201v451h41v-454c0 -153 -100 -234 -230 -234z" />
    <glyph glyph-name="V" unicode="V" horiz-adv-x="651" 
d="M320 -8l-276 688h44l220 -555c9 -22 19 -62 19 -62s10 40 19 62l220 555h41l-275 -688h-12z" />
    <glyph glyph-name="W" unicode="W" horiz-adv-x="958" 
d="M258 -8l-213 688h44l166 -547c5 -18 10 -45 11 -49c0 3 6 31 13 49l195 555h12l195 -555c6 -18 11 -45 12 -49c0 3 6 31 12 49l166 547h42l-213 -688h-11l-198 564c-6 18 -10 43 -11 49c-1 -4 -6 -30 -12 -49l-199 -564h-11z" />
    <glyph glyph-name="X" unicode="X" horiz-adv-x="623" 
d="M51 0l238 368l-201 312h47l166 -257c5 -8 11 -25 11 -25s8 17 13 25l166 257h44l-201 -311l239 -369h-47l-203 315c-5 7 -11 21 -12 24c-1 -1 -7 -17 -12 -24l-204 -315h-44z" />
    <glyph glyph-name="Y" unicode="Y" horiz-adv-x="598" 
d="M278 0v250l-237 430h46l197 -356c8 -15 15 -37 16 -41c0 2 9 25 18 41l196 356h43l-237 -431v-249h-42z" />
    <glyph glyph-name="Z" unicode="Z" horiz-adv-x="580" 
d="M45 0v10l413 634h-360v36h421v-10l-412 -634h423v-36h-485z" />
    <glyph glyph-name="bracketleft" unicode="[" horiz-adv-x="290" 
d="M83 -128v850h168v-35h-128v-780h128v-35h-168z" />
    <glyph glyph-name="backslash" unicode="\" horiz-adv-x="430" 
d="M360 -128l-311 850h41l311 -850h-41z" />
    <glyph glyph-name="bracketright" unicode="]" horiz-adv-x="290" 
d="M39 -128v35h128v780h-128v35h169v-850h-169z" />
    <glyph glyph-name="asciicircum" unicode="^" horiz-adv-x="407" 
d="M75 471l124 217h9l124 -217h-34l-94 151l-95 -151h-34z" />
    <glyph glyph-name="underscore" unicode="_" horiz-adv-x="244" 
d="M-2 -128v34h248v-34h-248z" />
    <glyph glyph-name="quoteleft" unicode="&#x2018;" horiz-adv-x="178" 
d="M89 504c-20 0 -39 18 -39 40c0 5 2 12 5 19l53 117h25l-32 -100c14 -3 27 -18 27 -36c0 -22 -19 -40 -39 -40z" />
    <glyph glyph-name="a" unicode="a" horiz-adv-x="463" 
d="M344 236v20c0 92 -42 127 -109 127c-62 0 -104 -26 -133 -70l-28 20c34 53 92 84 162 84c84 0 147 -51 147 -157v-260h-39l2 63c-26 -39 -71 -71 -141 -71c-93 0 -154 43 -154 125c0 81 71 119 149 119h144zM344 204h-139c-62 0 -115 -24 -115 -86s41 -91 119 -91
c68 0 135 40 135 103v74z" />
    <glyph glyph-name="b" unicode="b" horiz-adv-x="551" 
d="M297 -8c-79 0 -146 47 -175 110l2 -102h-39v722h39v-411c30 61 90 106 173 106c117 0 202 -92 202 -212s-85 -213 -202 -213zM292 27c101 0 166 77 166 178s-65 177 -166 177c-103 0 -171 -76 -171 -177s68 -178 171 -178z" />
    <glyph glyph-name="c" unicode="c" horiz-adv-x="464" 
d="M259 -8c-117 0 -207 95 -207 212s90 213 207 213c69 0 120 -26 155 -69l-28 -23c-29 36 -67 57 -127 57c-100 0 -166 -77 -166 -178c0 -100 66 -177 166 -177c64 0 106 24 135 61l28 -23c-38 -47 -89 -73 -163 -73z" />
    <glyph glyph-name="d" unicode="d" horiz-adv-x="551" 
d="M254 -8c-117 0 -202 93 -202 213s85 212 202 212c83 0 143 -45 173 -106v411h39v-722h-39l2 102c-29 -63 -96 -110 -175 -110zM259 27c103 0 171 77 171 178s-68 177 -171 177c-101 0 -166 -76 -166 -177s65 -178 166 -178z" />
    <glyph glyph-name="e" unicode="e" horiz-adv-x="506" 
d="M92 196c3 -99 68 -169 173 -169c68 0 113 27 143 64l26 -23c-36 -45 -93 -76 -169 -76c-129 0 -213 95 -213 212s89 213 205 213c124 0 202 -97 200 -221h-365zM93 228h324c-6 84 -58 155 -160 155c-93 0 -154 -66 -164 -155z" />
    <glyph glyph-name="f" unicode="f" horiz-adv-x="285" 
d="M101 0v375h-65v33h65v210c0 84 44 117 95 117c47 0 73 -21 90 -50l-30 -20c-14 21 -27 35 -59 35c-33 0 -57 -20 -57 -83v-209h109v-33h-109v-375h-39z" />
    <glyph glyph-name="g" unicode="g" horiz-adv-x="551" 
d="M268 -223c-99 0 -166 51 -202 119l32 20c37 -66 91 -104 169 -104c102 0 160 50 160 173v114c-29 -60 -94 -107 -173 -107c-117 0 -202 93 -202 213s85 212 202 212c83 0 144 -46 175 -109l-2 100h39v-427c0 -139 -76 -204 -198 -204zM259 27c103 0 171 77 171 178
s-68 177 -171 177c-101 0 -166 -76 -166 -177s65 -178 166 -178z" />
    <glyph glyph-name="h" unicode="h" horiz-adv-x="509" 
d="M84 0v722h39v-401c27 58 83 96 155 96c91 0 152 -61 152 -162v-255h-39v248c0 84 -39 133 -118 133c-88 0 -150 -58 -150 -153v-228h-39z" />
    <glyph glyph-name="i" unicode="i" horiz-adv-x="208" 
d="M104 551c-17 0 -33 13 -33 33c0 19 16 33 33 33s33 -14 33 -33c0 -20 -16 -33 -33 -33zM85 0v408h39v-408h-39z" />
    <glyph glyph-name="j" unicode="j" horiz-adv-x="208" 
d="M104 551c-17 0 -33 13 -33 33c0 19 16 33 33 33s33 -14 33 -33c0 -20 -16 -33 -33 -33zM33 -222c-42 0 -67 17 -83 36l24 25c13 -14 29 -27 57 -27c32 0 54 20 54 77v519h39v-520c0 -75 -41 -110 -91 -110z" />
    <glyph glyph-name="k" unicode="k" horiz-adv-x="449" 
d="M123 127v-127h-39v722h39v-508c0 -17 -2 -34 -3 -44l226 238h46l-164 -173l193 -235h-48l-172 209z" />
    <glyph glyph-name="l" unicode="l" horiz-adv-x="219" 
d="M90 0v722h39v-722h-39z" />
    <glyph glyph-name="m" unicode="m" horiz-adv-x="742" 
d="M84 0v408h39l-1 -83c25 57 73 92 134 92c70 0 113 -40 127 -93c30 61 84 93 143 93c83 0 136 -55 136 -144v-273h-39v266c0 74 -30 115 -101 115c-73 0 -129 -54 -129 -147v-234h-39v266c0 74 -31 115 -102 115c-73 0 -129 -54 -129 -147v-234h-39z" />
    <glyph glyph-name="n" unicode="n" horiz-adv-x="509" 
d="M84 0v408h39l-1 -91c27 62 84 100 156 100c91 0 152 -61 152 -162v-255h-39v248c0 84 -39 133 -118 133c-88 0 -150 -58 -150 -153v-228h-39z" />
    <glyph glyph-name="o" unicode="o" horiz-adv-x="528" 
d="M265 -8c-119 0 -213 96 -213 213s94 212 213 212s211 -95 211 -212s-92 -213 -211 -213zM265 27c102 0 171 77 171 178s-69 177 -171 177s-173 -76 -173 -177s71 -178 173 -178z" />
    <glyph glyph-name="p" unicode="p" horiz-adv-x="551" 
d="M85 -212v620h39l-2 -100c30 63 92 109 175 109c117 0 202 -92 202 -212s-85 -213 -202 -213c-79 0 -144 47 -173 107v-311h-39zM292 27c101 0 166 77 166 178s-65 177 -166 177c-103 0 -171 -76 -171 -177s68 -178 171 -178z" />
    <glyph glyph-name="q" unicode="q" horiz-adv-x="551" 
d="M427 -212v311c-29 -60 -94 -107 -173 -107c-117 0 -202 93 -202 213s85 212 202 212c83 0 144 -46 175 -109l-2 100h39v-620h-39zM259 27c103 0 171 77 171 178s-68 177 -171 177c-101 0 -166 -76 -166 -177s65 -178 166 -178z" />
    <glyph glyph-name="r" unicode="r" horiz-adv-x="340" 
d="M84 0v408h39l-1 -82c23 59 67 90 119 90c32 0 54 -6 74 -21l-19 -32c-12 9 -30 17 -60 17c-58 0 -113 -49 -113 -148v-232h-39z" />
    <glyph glyph-name="s" unicode="s" horiz-adv-x="405" 
d="M211 -8c-86 0 -141 47 -164 102l34 15c22 -48 61 -82 130 -82c62 0 102 31 102 78c0 56 -39 70 -113 93c-69 20 -126 44 -126 117c0 60 54 102 122 102c63 0 104 -30 130 -77l-30 -18c-20 35 -53 61 -100 61c-52 0 -85 -27 -85 -66c0 -47 25 -62 105 -86
c74 -22 136 -49 136 -125c0 -65 -50 -114 -141 -114z" />
    <glyph glyph-name="t" unicode="t" horiz-adv-x="313" 
d="M194 -8c-52 0 -94 33 -94 116v267h-64v33h64v143h39v-143h118v-33h-118v-266c0 -60 21 -82 55 -82c36 0 50 14 65 30l25 -24c-20 -23 -44 -41 -90 -41z" />
    <glyph glyph-name="u" unicode="u" horiz-adv-x="509" 
d="M232 -9c-91 0 -152 60 -152 160v257h39v-251c0 -83 39 -130 117 -130c88 0 150 59 150 153v228h39v-408h-39l1 90c-27 -61 -83 -99 -155 -99z" />
    <glyph glyph-name="v" unicode="v" horiz-adv-x="448" 
d="M220 -8l-188 416h42l135 -306c9 -20 18 -52 18 -52s8 32 17 52l132 306h40l-184 -416h-12z" />
    <glyph glyph-name="w" unicode="w" horiz-adv-x="680" 
d="M190 -8l-158 416h42l108 -294c7 -19 14 -44 15 -49c0 3 7 29 16 49l122 298h9l124 -297c9 -21 17 -50 17 -50s6 29 14 50l108 293h40l-158 -416h-10l-124 304c-7 17 -14 41 -15 46c-1 -3 -7 -28 -14 -46l-126 -304h-10z" />
    <glyph glyph-name="x" unicode="x" horiz-adv-x="450" 
d="M38 0l164 218l-141 190h47l98 -133c10 -13 20 -33 20 -33s8 20 18 33l100 133h43l-140 -187l165 -221h-47l-121 165c-9 11 -19 29 -20 32c-1 -1 -11 -21 -20 -32l-123 -165h-43z" />
    <glyph glyph-name="y" unicode="y" horiz-adv-x="449" 
d="M110 -212l103 242l-181 378h42l143 -302c8 -18 15 -43 16 -47c0 2 6 28 15 47l129 302h40l-267 -620h-40z" />
    <glyph glyph-name="z" unicode="z" horiz-adv-x="406" 
d="M36 0v10l274 364h-246v34h306v-11l-274 -363h274v-34h-334z" />
    <glyph glyph-name="braceleft" unicode="{" horiz-adv-x="345" 
d="M262 -128c-61 0 -121 25 -121 144v198c0 56 -22 71 -59 71h-57v35h57c37 0 59 15 59 71v187c0 119 60 144 121 144h44v-35h-43c-49 0 -82 -22 -82 -109v-190c0 -57 -23 -77 -52 -85c29 -7 52 -30 52 -86v-201c0 -87 33 -109 82 -109h43v-35h-44z" />
    <glyph glyph-name="bar" unicode="|" horiz-adv-x="218" 
d="M90 -128v850h38v-850h-38z" />
    <glyph glyph-name="braceright" unicode="}" horiz-adv-x="344" 
d="M39 -128v35h43c49 0 81 22 81 109v201c0 57 23 78 53 85c-30 7 -53 30 -53 87v189c0 87 -32 109 -81 109h-43v35h44c60 0 120 -25 120 -144v-186c0 -56 23 -72 60 -72h56v-35h-56c-37 0 -60 -15 -60 -70v-199c0 -119 -60 -144 -120 -144h-44z" />
    <glyph glyph-name="asciitilde" unicode="~" horiz-adv-x="386" 
d="M93 233l-34 3c3 61 31 97 75 97c29 0 46 -14 71 -38c26 -25 32 -30 49 -30c23 0 35 20 39 65l34 -3c-3 -61 -28 -96 -74 -96c-29 0 -46 15 -71 39c-26 25 -32 29 -49 29c-21 0 -36 -21 -40 -66z" />
    <glyph glyph-name="exclamdown" unicode="&#xa1;" horiz-adv-x="224" 
d="M112 687c19 0 38 -17 38 -38c0 -22 -19 -39 -38 -39c-20 0 -38 17 -38 39c0 21 18 38 38 38zM127 510l7 -510h-44l7 510h30z" />
    <glyph glyph-name="cent" unicode="&#xa2;" horiz-adv-x="464" 
d="M236 -7c-106 12 -184 102 -184 211s78 200 184 211v108h34v-106c63 -3 111 -28 144 -69l-28 -23c-27 34 -62 54 -116 57v-355c58 3 97 26 124 61l28 -23c-36 -45 -84 -70 -152 -73v-108h-34v109zM236 380c-87 -10 -143 -83 -143 -176c0 -92 56 -165 143 -176v352z" />
    <glyph glyph-name="sterling" unicode="&#xa3;" horiz-adv-x="528" 
d="M187 300h167v-33h-154c19 -52 37 -107 38 -167c42 -34 85 -72 139 -72c45 0 72 18 96 45l25 -25c-26 -30 -60 -56 -121 -56c-60 0 -106 35 -146 69c-17 -40 -58 -69 -108 -69c-55 0 -91 35 -91 82s36 81 91 81c29 0 55 -12 80 -28c-5 48 -23 94 -42 140h-94v33h81
c-20 50 -38 101 -38 154c0 93 74 164 176 164c92 0 149 -51 175 -107l-32 -16c-30 55 -67 87 -143 87c-83 0 -135 -49 -135 -129c0 -53 17 -102 36 -153zM202 85c-27 22 -52 39 -79 39c-34 0 -56 -19 -56 -50s22 -51 56 -51c39 0 72 26 79 62z" />
    <glyph glyph-name="fraction" unicode="&#x2044;" horiz-adv-x="411" 
d="M-30 0l429 680h42l-429 -680h-42z" />
    <glyph glyph-name="yen" unicode="&#xa5;" horiz-adv-x="519" 
d="M234 0v147h-172v33h170l-47 84h-123v33h105l-109 198h46l131 -243c12 -22 21 -49 22 -51c1 4 10 30 22 51l140 243h42l-116 -198h102v-33h-122l-49 -84h171v-33h-172v-147h-41z" />
    <glyph glyph-name="florin" unicode="&#x192;" horiz-adv-x="334" 
d="M64 -212l48 425h-72v33h75l29 254c9 84 51 118 103 118c46 0 74 -22 91 -51l-28 -21c-15 22 -30 37 -62 37c-35 0 -59 -19 -66 -84l-29 -253h89v-33h-92l-48 -425h-38z" />
    <glyph glyph-name="section" unicode="&#xa7;" horiz-adv-x="481" 
d="M110 419c-9 18 -15 40 -15 65c0 79 63 134 149 134c80 0 128 -44 152 -100l-34 -15c-21 45 -53 80 -118 80c-64 0 -109 -35 -109 -98c0 -53 24 -83 87 -109l96 -39c94 -38 129 -82 129 -142c0 -45 -31 -80 -77 -98c14 -19 22 -42 22 -69c0 -75 -54 -131 -153 -131
c-85 0 -148 45 -179 108l34 16c26 -53 74 -89 145 -89c70 0 113 39 113 96c0 52 -34 78 -102 105l-87 34c-90 35 -129 75 -129 144c0 47 27 85 76 108zM349 121c36 13 59 38 59 72c0 48 -22 74 -103 107l-96 39c-32 13 -62 31 -83 56c-36 -17 -52 -48 -52 -82
c0 -53 25 -79 101 -109l87 -34c34 -13 64 -29 87 -49z" />
    <glyph glyph-name="quotesingle" unicode="'" horiz-adv-x="125" 
d="M47 487l-5 193h41l-5 -193h-31z" />
    <glyph glyph-name="quotedblleft" unicode="&#x201c;" horiz-adv-x="309" 
d="M220 504c-20 0 -39 18 -39 40c0 5 2 12 5 19l53 117h25l-32 -100c14 -3 27 -18 27 -36c0 -22 -19 -40 -39 -40zM89 504c-20 0 -39 18 -39 40c0 5 2 12 5 19l53 117h25l-32 -100c14 -3 27 -18 27 -36c0 -22 -19 -40 -39 -40z" />
    <glyph glyph-name="guillemotleft" unicode="&#xab;" horiz-adv-x="347" 
d="M261 40l-93 154v8l93 154h45l-95 -158l95 -158h-45zM134 40l-93 154v8l93 154h45l-95 -158l95 -158h-45z" />
    <glyph glyph-name="guilsinglleft" unicode="&#x2039;" horiz-adv-x="220" 
d="M134 40l-93 154v8l93 154h45l-95 -158l95 -158h-45z" />
    <glyph glyph-name="guilsinglright" unicode="&#x203a;" horiz-adv-x="220" 
d="M41 40l95 158l-95 158h45l93 -154v-8l-93 -154h-45z" />
    <glyph glyph-name="endash" unicode="&#x2013;" horiz-adv-x="389" 
d="M38 161v34h312v-34h-312z" />
    <glyph glyph-name="dagger" unicode="&#x2020;" horiz-adv-x="325" 
d="M144 299v240h-96v33h96v108h37v-108h96v-33h-96v-240h-37z" />
    <glyph glyph-name="daggerdbl" unicode="&#x2021;" horiz-adv-x="325" 
d="M144 299v108h-96v33h96v99h-96v33h96v108h37v-108h96v-33h-96v-99h96v-33h-96v-108h-37z" />
    <glyph glyph-name="periodcentered" unicode="&#xb7;" horiz-adv-x="180" 
d="M90 197c-20 0 -40 18 -40 40c0 23 20 40 40 40c21 0 40 -17 40 -40c0 -22 -19 -40 -40 -40z" />
    <glyph glyph-name="paragraph" unicode="&#xb6;" horiz-adv-x="536" 
d="M266 0v332h-30c-107 0 -176 78 -176 174s69 174 176 174h197v-680h-40v644h-86v-644h-41z" />
    <glyph glyph-name="bullet" unicode="&#x2022;" horiz-adv-x="279" 
d="M140 167c-48 0 -89 39 -89 88c0 50 41 88 89 88c47 0 88 -38 88 -88c0 -49 -41 -88 -88 -88z" />
    <glyph glyph-name="quotesinglbase" unicode="&#x201a;" horiz-adv-x="178" 
d="M45 -103l32 100c-14 3 -27 18 -27 36c0 22 19 40 39 40s39 -18 39 -40c0 -5 -2 -12 -5 -19l-53 -117h-25z" />
    <glyph glyph-name="quotedblbase" unicode="&#x201e;" horiz-adv-x="309" 
d="M176 -103l32 100c-14 3 -27 18 -27 36c0 22 19 40 39 40s39 -18 39 -40c0 -5 -2 -12 -5 -19l-53 -117h-25zM45 -103l32 100c-14 3 -27 18 -27 36c0 22 19 40 39 40s39 -18 39 -40c0 -5 -2 -12 -5 -19l-53 -117h-25z" />
    <glyph glyph-name="quotedblright" unicode="&#x201d;" horiz-adv-x="309" 
d="M176 511l32 100c-14 3 -27 18 -27 36c0 22 19 40 39 40s39 -18 39 -40c0 -5 -2 -12 -5 -19l-53 -117h-25zM45 511l32 100c-14 3 -27 18 -27 36c0 22 19 40 39 40s39 -18 39 -40c0 -5 -2 -12 -5 -19l-53 -117h-25z" />
    <glyph glyph-name="guillemotright" unicode="&#xbb;" horiz-adv-x="347" 
d="M168 40l95 158l-95 158h45l93 -154v-8l-93 -154h-45zM41 40l95 158l-95 158h45l93 -154v-8l-93 -154h-45z" />
    <glyph glyph-name="ellipsis" unicode="&#x2026;" horiz-adv-x="558" 
d="M468 -7c-20 0 -40 18 -40 40c0 23 20 40 40 40c21 0 40 -17 40 -40c0 -22 -19 -40 -40 -40zM279 -7c-20 0 -40 18 -40 40c0 23 20 40 40 40c21 0 40 -17 40 -40c0 -22 -19 -40 -40 -40zM90 -7c-20 0 -40 18 -40 40c0 23 20 40 40 40c21 0 40 -17 40 -40
c0 -22 -19 -40 -40 -40z" />
    <glyph glyph-name="perthousand" unicode="&#x2030;" horiz-adv-x="1057" 
d="M173 219c-75 0 -143 59 -143 142c0 82 68 142 143 142c74 0 142 -60 142 -142c0 -83 -68 -142 -142 -142zM188 0l308 495h40l-308 -495h-40zM885 -8c-75 0 -142 59 -142 142c0 82 67 142 142 142s142 -60 142 -142c0 -83 -67 -142 -142 -142zM551 -8
c-75 0 -142 59 -142 142c0 82 67 142 142 142s142 -60 142 -142c0 -83 -67 -142 -142 -142zM173 252c58 0 105 44 105 109s-47 108 -105 108s-106 -43 -106 -108s48 -109 106 -109zM885 25c58 0 105 44 105 109c0 64 -47 108 -105 108s-105 -44 -105 -108
c0 -65 47 -109 105 -109zM551 25c58 0 105 44 105 109c0 64 -47 108 -105 108s-105 -44 -105 -108c0 -65 47 -109 105 -109z" />
    <glyph glyph-name="questiondown" unicode="&#xbf;" horiz-adv-x="449" 
d="M257 687c19 0 38 -17 38 -38c0 -22 -19 -39 -38 -39c-20 0 -38 17 -38 39c0 21 18 38 38 38zM275 514v-185h-27c-92 0 -154 -67 -154 -151c0 -97 60 -149 145 -149c73 0 119 29 152 101l34 -17c-31 -79 -101 -121 -186 -121c-106 0 -186 67 -186 186
c0 105 80 181 184 185v151h38z" />
    <glyph glyph-name="grave" unicode="`" 
d="M236 497l-88 195h46l75 -195h-33z" />
    <glyph glyph-name="acute" unicode="&#xb4;" 
d="M231 497l75 195h46l-88 -195h-33z" />
    <glyph glyph-name="circumflex" unicode="&#x2c6;" 
d="M132 504l113 182h9l113 -182h-35l-82 119l-83 -119h-35z" />
    <glyph glyph-name="tilde" unicode="&#x2dc;" 
d="M150 509l-34 3c3 61 31 97 75 97c29 0 46 -14 71 -38c26 -25 32 -30 49 -30c23 0 35 20 39 65l34 -3c-3 -61 -28 -96 -74 -96c-29 0 -46 15 -71 39c-26 25 -32 29 -49 29c-21 0 -36 -21 -40 -66z" />
    <glyph glyph-name="macron" unicode="&#xaf;" 
d="M143 550v34h214v-34h-214z" />
    <glyph glyph-name="breve" unicode="&#x2d8;" 
d="M250 499c-68 0 -106 45 -117 105l35 7c11 -42 30 -77 82 -77s71 35 82 77l35 -7c-11 -60 -49 -105 -117 -105z" />
    <glyph glyph-name="dotaccent" unicode="&#x2d9;" 
d="M250 551c-17 0 -33 13 -33 33c0 19 16 33 33 33s33 -14 33 -33c0 -20 -16 -33 -33 -33z" />
    <glyph glyph-name="dieresis" unicode="&#xa8;" 
d="M326 551c-17 0 -32 14 -32 32s15 32 32 32s32 -14 32 -32s-15 -32 -32 -32zM174 551c-17 0 -32 14 -32 32s15 32 32 32s32 -14 32 -32s-15 -32 -32 -32z" />
    <glyph glyph-name="ring" unicode="&#x2da;" 
d="M250 488c-52 0 -94 41 -94 92s42 92 94 92s94 -41 94 -92s-42 -92 -94 -92zM250 519c34 0 58 24 58 61s-24 61 -58 61s-58 -24 -58 -61s24 -61 58 -61z" />
    <glyph glyph-name="cedilla" unicode="&#xb8;" 
d="M255 -228c-48 0 -80 27 -94 58l30 18c11 -23 27 -43 63 -43c28 0 52 18 52 52c0 29 -18 55 -62 55h-15v88h36v-59c41 -5 80 -36 80 -85c0 -55 -44 -84 -90 -84z" />
    <glyph glyph-name="hungarumlaut" unicode="&#x2dd;" 
d="M288 507l75 195h46l-88 -195h-33zM171 507l75 195h46l-88 -195h-33z" />
    <glyph glyph-name="ogonek" unicode="&#x2db;" 
d="M235 -228c-44 0 -86 27 -86 82c0 44 22 77 42 104l30 42h38l-33 -51c-24 -38 -38 -58 -38 -93c0 -34 24 -50 49 -50c29 0 45 19 58 41l30 -18c-14 -30 -42 -57 -90 -57z" />
    <glyph glyph-name="caron" unicode="&#x2c7;" 
d="M246 501l-113 182h35l82 -119l83 119h35l-113 -182h-9z" />
    <glyph glyph-name="emdash" unicode="&#x2014;" horiz-adv-x="607" 
d="M38 161v34h531v-34h-531z" />
    <glyph glyph-name="AE" unicode="&#xc6;" horiz-adv-x="936" 
d="M32 0l448 680h383v-36h-356v-284h319v-36h-319v-288h370v-36h-411v162h-283l-106 -162h-45zM207 198h259v332c0 32 5 76 5 78c-1 -2 -22 -41 -40 -69z" />
    <glyph glyph-name="ordfeminine" unicode="&#xaa;" horiz-adv-x="390" 
d="M295 354v5c0 89 -37 111 -93 111c-58 0 -90 -30 -111 -58l-25 19c26 42 75 72 136 72c75 0 131 -38 131 -140v-213h-38v47c-23 -33 -65 -55 -119 -55c-76 0 -133 36 -133 108s64 104 136 104h116zM295 322h-111c-56 0 -102 -17 -102 -72c0 -54 40 -75 100 -75
c57 0 113 28 113 90v57z" />
    <glyph glyph-name="Lslash" unicode="&#x141;" horiz-adv-x="512" 
d="M103 0v269l-76 -31v39l76 31v372h41v-356l208 85v-38l-208 -86v-249h327v-36h-368z" />
    <glyph glyph-name="Oslash" unicode="&#xd8;" horiz-adv-x="810" 
d="M84 -10l-25 24l88 89c-56 61 -90 143 -90 237c0 201 156 348 348 348c90 0 171 -32 233 -87l87 88l25 -24l-87 -88c56 -61 90 -143 90 -237c0 -201 -156 -348 -348 -348c-90 0 -172 32 -233 87zM174 131l437 443c-53 48 -125 77 -206 77c-175 0 -306 -133 -306 -311
c0 -82 28 -155 75 -209zM405 29c175 0 306 133 306 311c0 82 -28 155 -75 209l-438 -443c54 -48 126 -77 207 -77z" />
    <glyph glyph-name="OE" unicode="&#x152;" horiz-adv-x="983" 
d="M416 0c-227 0 -359 139 -359 340s131 340 359 340h494v-36h-356v-284h319v-36h-319v-288h370v-36h-508zM421 37h92v606h-92c-215 0 -322 -125 -322 -303s107 -303 322 -303z" />
    <glyph glyph-name="ordmasculine" unicode="&#xba;" horiz-adv-x="442" 
d="M221 143c-98 0 -178 77 -178 180c0 102 80 180 178 180s178 -78 178 -180c0 -103 -80 -180 -178 -180zM221 176c82 0 139 62 139 147s-57 147 -139 147s-139 -62 -139 -147s57 -147 139 -147z" />
    <glyph glyph-name="ae" unicode="&#xe6;" horiz-adv-x="796" 
d="M344 232v24c0 92 -42 127 -109 127c-62 0 -104 -26 -133 -70l-28 20c34 53 92 84 162 84c71 0 124 -37 136 -114c32 67 96 114 175 114c124 0 202 -97 200 -217h-365c3 -95 66 -173 173 -173c68 0 113 27 143 64l26 -23c-36 -45 -93 -76 -169 -76c-87 0 -151 46 -183 113
c-16 -77 -98 -113 -167 -113c-89 0 -154 42 -154 123c0 80 74 117 149 117h144zM384 232h323c-6 80 -58 151 -160 151c-91 0 -153 -68 -163 -151zM344 200h-139c-62 0 -115 -23 -115 -84c0 -62 40 -89 119 -89c68 0 135 40 135 103v70z" />
    <glyph glyph-name="dotlessi" unicode="&#x131;" horiz-adv-x="208" 
d="M85 0v408h39v-408h-39z" />
    <glyph glyph-name="lslash" unicode="&#x142;" horiz-adv-x="259" 
d="M110 0v297l-93 -57v40l93 58v384h39v-360l96 60v-41l-96 -60v-321h-39z" />
    <glyph glyph-name="oslash" unicode="&#xf8;" horiz-adv-x="528" 
d="M428 341c30 -37 48 -85 48 -136c0 -117 -92 -213 -211 -213c-54 0 -103 20 -141 53l-59 -57l-23 23l59 57c-30 37 -49 85 -49 137c0 117 94 212 213 212c55 0 104 -20 141 -53l57 56l22 -24zM127 93l253 246c-29 27 -69 43 -115 43c-102 0 -173 -76 -173 -177
c0 -43 13 -81 35 -112zM402 315l-253 -246c30 -26 69 -42 116 -42c102 0 171 77 171 178c0 42 -12 81 -34 110z" />
    <glyph glyph-name="oe" unicode="&#x153;" horiz-adv-x="887" 
d="M473 196c3 -99 68 -169 173 -169c68 0 113 27 143 64l26 -23c-36 -45 -93 -76 -169 -76c-99 0 -166 56 -192 135c-28 -79 -98 -135 -189 -135c-119 0 -213 96 -213 213s94 212 213 212c92 0 162 -56 189 -136c27 79 95 136 184 136c124 0 202 -97 200 -221h-365zM474 228
h324c-6 84 -58 155 -160 155c-93 0 -154 -66 -164 -155zM265 27c102 0 171 77 171 178s-69 177 -171 177s-173 -76 -173 -177s71 -178 173 -178z" />
    <glyph glyph-name="germandbls" unicode="&#xdf;" horiz-adv-x="520" 
d="M263 -4c-27 0 -50 5 -69 13l11 33c17 -7 30 -11 58 -11c109 0 164 75 164 177c0 105 -69 178 -197 176v36c83 8 131 67 131 148c0 93 -57 132 -118 132s-120 -35 -120 -143v-557h-39v560c0 126 80 175 159 175c76 0 155 -52 155 -166c0 -71 -32 -133 -105 -161
c104 -16 175 -91 175 -200c0 -121 -74 -212 -205 -212z" />
    <glyph glyph-name="trademark" unicode="&#x2122;" horiz-adv-x="732" 
d="M349 386v299h8l142 -167l142 167h8v-299h-37v217l-108 -130h-10l-108 130v-217h-37zM148 386v261h-94v33h224v-33h-93v-261h-37z" />
    <glyph glyph-name="Eth" unicode="&#xd0;" horiz-adv-x="677" 
d="M103 0v324h-88v36h88v320h157c226 0 360 -139 360 -340s-133 -340 -360 -340h-157zM144 37h111c215 0 322 125 322 303s-107 303 -322 303h-111v-283h198v-36h-198v-287z" />
    <glyph glyph-name="Thorn" unicode="&#xde;" horiz-adv-x="576" 
d="M103 0v680h41v-134h139c149 0 238 -71 238 -203c0 -128 -88 -202 -238 -202h-139v-141h-41zM144 177h135c136 0 200 59 200 166c0 108 -64 167 -200 167h-135v-333z" />
    <glyph glyph-name="divide" unicode="&#xf7;" horiz-adv-x="355" 
d="M316 227h-277v36h277v-36zM177 335c-19 0 -38 17 -38 38c0 22 19 38 38 38c20 0 38 -16 38 -38c0 -21 -18 -38 -38 -38zM177 79c-19 0 -38 17 -38 38c0 22 19 38 38 38c20 0 38 -16 38 -38c0 -21 -18 -38 -38 -38z" />
    <glyph glyph-name="degree" unicode="&#xb0;" horiz-adv-x="322" 
d="M161 294c-59 0 -106 46 -106 104c0 59 47 105 106 105c58 0 106 -46 106 -105c0 -58 -48 -104 -106 -104zM161 324c43 0 71 32 71 74c0 43 -28 75 -71 75s-72 -32 -72 -75c0 -42 29 -74 72 -74z" />
    <glyph glyph-name="thorn" unicode="&#xfe;" horiz-adv-x="551" 
d="M85 -212v934h39v-411c30 61 90 106 173 106c117 0 202 -92 202 -212s-85 -213 -202 -213c-79 0 -144 47 -173 107v-311h-39zM292 27c101 0 166 77 166 178s-65 177 -166 177c-103 0 -171 -76 -171 -177s68 -178 171 -178z" />
    <glyph glyph-name="registered" unicode="&#xae;" horiz-adv-x="519" 
d="M258 270c-118 0 -216 91 -216 213c0 123 98 214 216 214c120 0 219 -91 219 -214c0 -122 -99 -213 -219 -213zM258 299c107 0 185 75 185 184c0 110 -78 185 -185 185c-105 0 -181 -75 -181 -185c0 -109 76 -184 181 -184zM322 362l-58 93h-48v-93h-33v246h80
c59 0 90 -30 90 -76c0 -37 -19 -63 -54 -73l61 -97h-38zM216 482h45c39 0 58 20 58 50c0 29 -19 49 -58 49h-45v-99z" />
    <glyph glyph-name="minus" unicode="&#x2212;" horiz-adv-x="355" 
d="M316 227h-277v36h277v-36z" />
    <glyph glyph-name="eth" unicode="&#xf0;" horiz-adv-x="528" 
d="M282 598l-73 -71l-23 23l74 73c-31 35 -62 66 -91 91l24 24c29 -23 61 -53 93 -89l73 72l24 -24l-75 -74c87 -105 168 -251 168 -412c0 -117 -92 -219 -211 -219s-213 96 -213 213s94 212 213 212c69 0 122 -32 157 -84c-24 99 -79 190 -140 265zM265 27
c102 0 171 79 171 184c0 97 -69 171 -171 171s-173 -76 -173 -177s71 -178 173 -178z" />
    <glyph glyph-name="multiply" unicode="&#xd7;" horiz-adv-x="352" 
d="M176 218l-105 -105l-26 26l105 105l-105 105l26 26l105 -105l105 105l26 -26l-105 -105l105 -105l-26 -26z" />
    <glyph glyph-name="copyright" unicode="&#xa9;" horiz-adv-x="600" 
d="M300 -8c-140 0 -256 109 -256 255c0 148 116 256 256 256s256 -108 256 -256c0 -146 -116 -255 -256 -255zM300 23c126 0 223 95 223 224c0 130 -97 225 -223 225s-223 -95 -223 -225c0 -129 97 -224 223 -224zM302 97c-80 0 -144 66 -144 150c0 85 64 151 144 151
c50 0 81 -18 110 -50l-27 -25c-20 26 -44 40 -82 40c-61 0 -105 -50 -105 -116c0 -65 44 -115 104 -115c41 0 67 19 87 43l27 -25c-26 -30 -62 -53 -114 -53z" />
    <glyph glyph-name="Aacute" unicode="&#xc1;" horiz-adv-x="651" 
d="M172 218h306l-133 334c-10 24 -19 59 -20 62c-1 -3 -11 -38 -20 -61zM44 0l275 688h12l276 -688h-42l-73 182h-335l-72 -182h-41zM309 755l75 195h46l-88 -195h-33z" />
    <glyph glyph-name="Acircumflex" unicode="&#xc2;" horiz-adv-x="651" 
d="M172 218h306l-133 334c-10 24 -19 59 -20 62c-1 -3 -11 -38 -20 -61zM44 0l275 688h12l276 -688h-42l-73 182h-335l-72 -182h-41zM208 762l113 182h9l113 -182h-35l-82 119l-83 -119h-35z" />
    <glyph glyph-name="Adieresis" unicode="&#xc4;" horiz-adv-x="651" 
d="M172 218h306l-133 334c-10 24 -19 59 -20 62c-1 -3 -11 -38 -20 -61zM44 0l275 688h12l276 -688h-42l-73 182h-335l-72 -182h-41zM401 769c-17 0 -32 14 -32 32s15 32 32 32s32 -14 32 -32s-15 -32 -32 -32zM249 769c-17 0 -32 14 -32 32s15 32 32 32s32 -14 32 -32
s-15 -32 -32 -32z" />
    <glyph glyph-name="Agrave" unicode="&#xc0;" horiz-adv-x="651" 
d="M172 218h306l-133 334c-10 24 -19 59 -20 62c-1 -3 -11 -38 -20 -61zM44 0l275 688h12l276 -688h-42l-73 182h-335l-72 -182h-41zM307 755l-88 195h46l75 -195h-33z" />
    <glyph glyph-name="Aring" unicode="&#xc5;" horiz-adv-x="651" 
d="M172 218h306l-133 334c-10 24 -19 59 -20 62c-1 -3 -11 -38 -20 -61zM44 0l275 688h12l276 -688h-42l-73 182h-335l-72 -182h-41zM325 746c-52 0 -94 41 -94 92s42 92 94 92s94 -41 94 -92s-42 -92 -94 -92zM325 777c34 0 58 24 58 61s-24 61 -58 61s-58 -24 -58 -61
s24 -61 58 -61z" />
    <glyph glyph-name="Atilde" unicode="&#xc3;" horiz-adv-x="651" 
d="M211 767l-34 3c3 61 34 97 82 97c32 0 51 -14 78 -38c29 -25 35 -30 54 -30c28 0 42 20 46 65l34 -3c-3 -61 -30 -96 -81 -96c-32 0 -51 15 -78 39c-29 25 -35 29 -54 29c-26 0 -43 -21 -47 -66zM172 218h306l-133 334c-10 24 -19 59 -20 62c-1 -3 -11 -38 -20 -61zM44 0
l275 688h12l276 -688h-42l-73 182h-335l-72 -182h-41z" />
    <glyph glyph-name="Ccedilla" unicode="&#xc7;" horiz-adv-x="731" 
d="M387 -228c-48 0 -80 27 -94 58l30 18c11 -23 27 -43 63 -43c28 0 52 18 52 52c0 29 -18 55 -62 55h-15v82c-171 20 -304 155 -304 346c0 207 156 348 348 348c119 0 213 -46 270 -129l-31 -23c-50 71 -131 115 -239 115c-175 0 -306 -133 -306 -311s131 -311 306 -311
c105 0 193 44 247 121l31 -22c-60 -87 -160 -136 -278 -136h-8v-51c41 -5 80 -36 80 -85c0 -55 -44 -84 -90 -84z" />
    <glyph glyph-name="Eacute" unicode="&#xc9;" horiz-adv-x="573" 
d="M103 0v680h397v-36h-356v-284h319v-36h-319v-288h370v-36h-411zM295 755l75 195h46l-88 -195h-33z" />
    <glyph glyph-name="Ecircumflex" unicode="&#xca;" horiz-adv-x="573" 
d="M103 0v680h397v-36h-356v-284h319v-36h-319v-288h370v-36h-411zM194 762l113 182h9l113 -182h-35l-82 119l-83 -119h-35z" />
    <glyph glyph-name="Edieresis" unicode="&#xcb;" horiz-adv-x="573" 
d="M103 0v680h397v-36h-356v-284h319v-36h-319v-288h370v-36h-411zM387 769c-17 0 -32 14 -32 32s15 32 32 32s32 -14 32 -32s-15 -32 -32 -32zM235 769c-17 0 -32 14 -32 32s15 32 32 32s32 -14 32 -32s-15 -32 -32 -32z" />
    <glyph glyph-name="Egrave" unicode="&#xc8;" horiz-adv-x="573" 
d="M103 0v680h397v-36h-356v-284h319v-36h-319v-288h370v-36h-411zM293 755l-88 195h46l75 -195h-33z" />
    <glyph glyph-name="Iacute" unicode="&#xcd;" horiz-adv-x="255" 
d="M107 0v680h41v-680h-41zM111 755l75 195h46l-88 -195h-33z" />
    <glyph glyph-name="Icircumflex" unicode="&#xce;" horiz-adv-x="255" 
d="M107 0v680h41v-680h-41zM10 762l113 182h9l113 -182h-35l-82 119l-83 -119h-35z" />
    <glyph glyph-name="Idieresis" unicode="&#xcf;" horiz-adv-x="255" 
d="M107 0v680h41v-680h-41zM203 769c-17 0 -32 14 -32 32s15 32 32 32s32 -14 32 -32s-15 -32 -32 -32zM51 769c-17 0 -32 14 -32 32s15 32 32 32s32 -14 32 -32s-15 -32 -32 -32z" />
    <glyph glyph-name="Igrave" unicode="&#xcc;" horiz-adv-x="255" 
d="M107 0v680h41v-680h-41zM109 755l-88 195h46l75 -195h-33z" />
    <glyph glyph-name="Ntilde" unicode="&#xd1;" horiz-adv-x="719" 
d="M251 767l-34 3c3 61 34 97 82 97c32 0 51 -14 78 -38c29 -25 35 -30 54 -30c28 0 42 20 46 65l34 -3c-3 -61 -30 -96 -81 -96c-32 0 -51 15 -78 39c-29 25 -35 29 -54 29c-26 0 -43 -21 -47 -66zM604 -8l-435 564c-13 17 -31 45 -31 45s3 -31 3 -51v-550h-38v688h12
l435 -564c13 -17 31 -45 31 -45s-3 31 -3 51v550h38v-688h-12z" />
    <glyph glyph-name="Oacute" unicode="&#xd3;" horiz-adv-x="810" 
d="M405 -8c-192 0 -348 141 -348 348s156 348 348 348s348 -141 348 -348s-156 -348 -348 -348zM405 29c175 0 306 133 306 311s-131 311 -306 311s-306 -133 -306 -311s131 -311 306 -311zM389 755l75 195h46l-88 -195h-33z" />
    <glyph glyph-name="Ocircumflex" unicode="&#xd4;" horiz-adv-x="810" 
d="M405 -8c-192 0 -348 141 -348 348s156 348 348 348s348 -141 348 -348s-156 -348 -348 -348zM405 29c175 0 306 133 306 311s-131 311 -306 311s-306 -133 -306 -311s131 -311 306 -311zM288 762l113 182h9l113 -182h-35l-82 119l-83 -119h-35z" />
    <glyph glyph-name="Odieresis" unicode="&#xd6;" horiz-adv-x="810" 
d="M405 -8c-192 0 -348 141 -348 348s156 348 348 348s348 -141 348 -348s-156 -348 -348 -348zM405 29c175 0 306 133 306 311s-131 311 -306 311s-306 -133 -306 -311s131 -311 306 -311zM481 769c-17 0 -32 14 -32 32s15 32 32 32s32 -14 32 -32s-15 -32 -32 -32z
M329 769c-17 0 -32 14 -32 32s15 32 32 32s32 -14 32 -32s-15 -32 -32 -32z" />
    <glyph glyph-name="Ograve" unicode="&#xd2;" horiz-adv-x="810" 
d="M405 -8c-192 0 -348 141 -348 348s156 348 348 348s348 -141 348 -348s-156 -348 -348 -348zM405 29c175 0 306 133 306 311s-131 311 -306 311s-306 -133 -306 -311s131 -311 306 -311zM387 755l-88 195h46l75 -195h-33z" />
    <glyph glyph-name="Otilde" unicode="&#xd5;" horiz-adv-x="810" 
d="M292 767l-34 3c3 61 34 97 82 97c32 0 51 -14 78 -38c29 -25 35 -30 54 -30c28 0 42 20 46 65l34 -3c-3 -61 -30 -96 -81 -96c-32 0 -51 15 -78 39c-29 25 -35 29 -54 29c-26 0 -43 -21 -47 -66zM405 -8c-192 0 -348 141 -348 348s156 348 348 348s348 -141 348 -348
s-156 -348 -348 -348zM405 29c175 0 306 133 306 311s-131 311 -306 311s-306 -133 -306 -311s131 -311 306 -311z" />
    <glyph glyph-name="Scaron" unicode="&#x160;" horiz-adv-x="527" 
d="M265 -8c-129 0 -195 68 -228 136l35 17c32 -60 83 -117 192 -117c89 0 162 52 162 138c0 79 -44 122 -139 166l-63 29c-95 44 -142 89 -142 175c0 94 75 152 167 152c91 0 142 -47 174 -98l-32 -21c-28 45 -67 83 -142 83c-80 0 -127 -46 -127 -115
c0 -68 34 -101 118 -140l63 -29c110 -50 163 -108 163 -202c0 -106 -84 -174 -201 -174zM254 746l-113 182h35l82 -119l83 119h35l-113 -182h-9z" />
    <glyph glyph-name="Uacute" unicode="&#xda;" horiz-adv-x="651" 
d="M325 -8c-131 0 -229 81 -229 234v454h41v-451c0 -131 76 -201 188 -201c111 0 189 70 189 201v451h41v-454c0 -153 -100 -234 -230 -234zM309 755l75 195h46l-88 -195h-33z" />
    <glyph glyph-name="Ucircumflex" unicode="&#xdb;" horiz-adv-x="651" 
d="M325 -8c-131 0 -229 81 -229 234v454h41v-451c0 -131 76 -201 188 -201c111 0 189 70 189 201v451h41v-454c0 -153 -100 -234 -230 -234zM208 762l113 182h9l113 -182h-35l-82 119l-83 -119h-35z" />
    <glyph glyph-name="Udieresis" unicode="&#xdc;" horiz-adv-x="651" 
d="M325 -8c-131 0 -229 81 -229 234v454h41v-451c0 -131 76 -201 188 -201c111 0 189 70 189 201v451h41v-454c0 -153 -100 -234 -230 -234zM401 769c-17 0 -32 14 -32 32s15 32 32 32s32 -14 32 -32s-15 -32 -32 -32zM249 769c-17 0 -32 14 -32 32s15 32 32 32
s32 -14 32 -32s-15 -32 -32 -32z" />
    <glyph glyph-name="Ugrave" unicode="&#xd9;" horiz-adv-x="651" 
d="M325 -8c-131 0 -229 81 -229 234v454h41v-451c0 -131 76 -201 188 -201c111 0 189 70 189 201v451h41v-454c0 -153 -100 -234 -230 -234zM307 755l-88 195h46l75 -195h-33z" />
    <glyph glyph-name="Yacute" unicode="&#xdd;" horiz-adv-x="598" 
d="M278 0v250l-237 430h46l197 -356c8 -15 15 -37 16 -41c0 2 9 25 18 41l196 356h43l-237 -431v-249h-42zM283 755l75 195h46l-88 -195h-33z" />
    <glyph glyph-name="Ydieresis" unicode="&#x178;" horiz-adv-x="598" 
d="M278 0v250l-237 430h46l197 -356c8 -15 15 -37 16 -41c0 2 9 25 18 41l196 356h43l-237 -431v-249h-42zM223 769c-17 0 -32 14 -32 32s15 32 32 32s32 -14 32 -32s-15 -32 -32 -32zM375 769c-17 0 -32 14 -32 32s15 32 32 32s32 -14 32 -32s-15 -32 -32 -32z" />
    <glyph glyph-name="Zcaron" unicode="&#x17d;" horiz-adv-x="580" 
d="M45 0v10l413 634h-360v36h421v-10l-412 -634h423v-36h-485zM302 746l-113 182h35l82 -119l83 119h35l-113 -182h-9z" />
    <glyph glyph-name="aacute" unicode="&#xe1;" horiz-adv-x="463" 
d="M344 236v20c0 92 -42 127 -109 127c-62 0 -104 -26 -133 -70l-28 20c34 53 92 84 162 84c84 0 147 -51 147 -157v-260h-39l2 63c-26 -39 -71 -71 -141 -71c-93 0 -154 43 -154 125c0 81 71 119 149 119h144zM344 204h-139c-62 0 -115 -24 -115 -86s41 -91 119 -91
c68 0 135 40 135 103v74zM210 497l75 195h46l-88 -195h-33z" />
    <glyph glyph-name="acircumflex" unicode="&#xe2;" horiz-adv-x="463" 
d="M344 236v20c0 92 -42 127 -109 127c-62 0 -104 -26 -133 -70l-28 20c34 53 92 84 162 84c84 0 147 -51 147 -157v-260h-39l2 63c-26 -39 -71 -71 -141 -71c-93 0 -154 43 -154 125c0 81 71 119 149 119h144zM344 204h-139c-62 0 -115 -24 -115 -86s41 -91 119 -91
c68 0 135 40 135 103v74zM109 504l113 182h9l113 -182h-35l-82 119l-83 -119h-35z" />
    <glyph glyph-name="adieresis" unicode="&#xe4;" horiz-adv-x="463" 
d="M344 236v20c0 92 -42 127 -109 127c-62 0 -104 -26 -133 -70l-28 20c34 53 92 84 162 84c84 0 147 -51 147 -157v-260h-39l2 63c-26 -39 -71 -71 -141 -71c-93 0 -154 43 -154 125c0 81 71 119 149 119h144zM344 204h-139c-62 0 -115 -24 -115 -86s41 -91 119 -91
c68 0 135 40 135 103v74zM302 551c-17 0 -32 14 -32 32s15 32 32 32s32 -14 32 -32s-15 -32 -32 -32zM150 551c-17 0 -32 14 -32 32s15 32 32 32s32 -14 32 -32s-15 -32 -32 -32z" />
    <glyph glyph-name="agrave" unicode="&#xe0;" horiz-adv-x="463" 
d="M344 236v20c0 92 -42 127 -109 127c-62 0 -104 -26 -133 -70l-28 20c34 53 92 84 162 84c84 0 147 -51 147 -157v-260h-39l2 63c-26 -39 -71 -71 -141 -71c-93 0 -154 43 -154 125c0 81 71 119 149 119h144zM344 204h-139c-62 0 -115 -24 -115 -86s41 -91 119 -91
c68 0 135 40 135 103v74zM208 497l-88 195h46l75 -195h-33z" />
    <glyph glyph-name="aring" unicode="&#xe5;" horiz-adv-x="463" 
d="M344 236v20c0 92 -42 127 -109 127c-62 0 -104 -26 -133 -70l-28 20c34 53 92 84 162 84c84 0 147 -51 147 -157v-260h-39l2 63c-26 -39 -71 -71 -141 -71c-93 0 -154 43 -154 125c0 81 71 119 149 119h144zM344 204h-139c-62 0 -115 -24 -115 -86s41 -91 119 -91
c68 0 135 40 135 103v74zM226 488c-52 0 -94 41 -94 92s42 92 94 92s94 -41 94 -92s-42 -92 -94 -92zM226 519c34 0 58 24 58 61s-24 61 -58 61s-58 -24 -58 -61s24 -61 58 -61z" />
    <glyph glyph-name="atilde" unicode="&#xe3;" horiz-adv-x="463" 
d="M344 236v20c0 92 -42 127 -109 127c-62 0 -104 -26 -133 -70l-28 20c34 53 92 84 162 84c84 0 147 -51 147 -157v-260h-39l2 63c-26 -39 -71 -71 -141 -71c-93 0 -154 43 -154 125c0 81 71 119 149 119h144zM344 204h-139c-62 0 -115 -24 -115 -86s41 -91 119 -91
c68 0 135 40 135 103v74zM126 509l-34 3c3 61 31 97 75 97c29 0 46 -14 71 -38c26 -25 32 -30 49 -30c23 0 35 20 39 65l34 -3c-3 -61 -28 -96 -74 -96c-29 0 -46 15 -71 39c-26 25 -32 29 -49 29c-21 0 -36 -21 -40 -66z" />
    <glyph glyph-name="ccedilla" unicode="&#xe7;" horiz-adv-x="464" 
d="M221 -5c-98 19 -169 105 -169 209c0 117 90 213 207 213c69 0 120 -26 155 -69l-28 -23c-29 36 -67 57 -127 57c-100 0 -166 -77 -166 -178c0 -100 66 -177 166 -177c64 0 106 24 135 61l28 -23c-38 -47 -89 -73 -163 -73h-2v-51c41 -5 80 -36 80 -85
c0 -55 -44 -84 -90 -84c-48 0 -80 27 -94 58l30 18c11 -23 27 -43 63 -43c28 0 52 18 52 52c0 29 -18 55 -62 55h-15v83z" />
    <glyph glyph-name="eacute" unicode="&#xe9;" horiz-adv-x="506" 
d="M92 196c3 -99 68 -169 173 -169c68 0 113 27 143 64l26 -23c-36 -45 -93 -76 -169 -76c-129 0 -213 95 -213 212s89 213 205 213c124 0 202 -97 200 -221h-365zM93 228h324c-6 84 -58 155 -160 155c-93 0 -154 -66 -164 -155zM239 497l75 195h46l-88 -195h-33z" />
    <glyph glyph-name="ecircumflex" unicode="&#xea;" horiz-adv-x="506" 
d="M92 196c3 -99 68 -169 173 -169c68 0 113 27 143 64l26 -23c-36 -45 -93 -76 -169 -76c-129 0 -213 95 -213 212s89 213 205 213c124 0 202 -97 200 -221h-365zM93 228h324c-6 84 -58 155 -160 155c-93 0 -154 -66 -164 -155zM138 504l113 182h9l113 -182h-35l-82 119
l-83 -119h-35z" />
    <glyph glyph-name="edieresis" unicode="&#xeb;" horiz-adv-x="506" 
d="M92 196c3 -99 68 -169 173 -169c68 0 113 27 143 64l26 -23c-36 -45 -93 -76 -169 -76c-129 0 -213 95 -213 212s89 213 205 213c124 0 202 -97 200 -221h-365zM93 228h324c-6 84 -58 155 -160 155c-93 0 -154 -66 -164 -155zM331 551c-17 0 -32 14 -32 32s15 32 32 32
s32 -14 32 -32s-15 -32 -32 -32zM179 551c-17 0 -32 14 -32 32s15 32 32 32s32 -14 32 -32s-15 -32 -32 -32z" />
    <glyph glyph-name="egrave" unicode="&#xe8;" horiz-adv-x="506" 
d="M92 196c3 -99 68 -169 173 -169c68 0 113 27 143 64l26 -23c-36 -45 -93 -76 -169 -76c-129 0 -213 95 -213 212s89 213 205 213c124 0 202 -97 200 -221h-365zM93 228h324c-6 84 -58 155 -160 155c-93 0 -154 -66 -164 -155zM237 497l-88 195h46l75 -195h-33z" />
    <glyph glyph-name="iacute" unicode="&#xed;" horiz-adv-x="208" 
d="M85 0v408h39v-408h-39zM88 497l75 195h46l-88 -195h-33z" />
    <glyph glyph-name="icircumflex" unicode="&#xee;" horiz-adv-x="208" 
d="M85 0v408h39v-408h-39zM-13 504l113 182h9l113 -182h-35l-82 119l-83 -119h-35z" />
    <glyph glyph-name="idieresis" unicode="&#xef;" horiz-adv-x="208" 
d="M85 0v408h39v-408h-39zM170 551c-17 0 -32 14 -32 32s15 32 32 32s32 -14 32 -32s-15 -32 -32 -32zM38 551c-17 0 -32 14 -32 32s15 32 32 32s32 -14 32 -32s-15 -32 -32 -32z" />
    <glyph glyph-name="igrave" unicode="&#xec;" horiz-adv-x="208" 
d="M85 0v408h39v-408h-39zM86 497l-88 195h46l75 -195h-33z" />
    <glyph glyph-name="ntilde" unicode="&#xf1;" horiz-adv-x="509" 
d="M84 0v408h39l-1 -91c27 62 84 100 156 100c91 0 152 -61 152 -162v-255h-39v248c0 84 -39 133 -118 133c-88 0 -150 -58 -150 -153v-228h-39zM155 509l-34 3c3 61 31 97 75 97c29 0 46 -14 71 -38c26 -25 32 -30 49 -30c23 0 35 20 39 65l34 -3c-3 -61 -28 -96 -74 -96
c-29 0 -46 15 -71 39c-26 25 -32 29 -49 29c-21 0 -36 -21 -40 -66z" />
    <glyph glyph-name="oacute" unicode="&#xf3;" horiz-adv-x="528" 
d="M265 -8c-119 0 -213 96 -213 213s94 212 213 212s211 -95 211 -212s-92 -213 -211 -213zM265 27c102 0 171 77 171 178s-69 177 -171 177s-173 -76 -173 -177s71 -178 173 -178zM248 497l75 195h46l-88 -195h-33z" />
    <glyph glyph-name="ocircumflex" unicode="&#xf4;" horiz-adv-x="528" 
d="M265 -8c-119 0 -213 96 -213 213s94 212 213 212s211 -95 211 -212s-92 -213 -211 -213zM265 27c102 0 171 77 171 178s-69 177 -171 177s-173 -76 -173 -177s71 -178 173 -178zM147 504l113 182h9l113 -182h-35l-82 119l-83 -119h-35z" />
    <glyph glyph-name="odieresis" unicode="&#xf6;" horiz-adv-x="528" 
d="M265 -8c-119 0 -213 96 -213 213s94 212 213 212s211 -95 211 -212s-92 -213 -211 -213zM265 27c102 0 171 77 171 178s-69 177 -171 177s-173 -76 -173 -177s71 -178 173 -178zM340 551c-17 0 -32 14 -32 32s15 32 32 32s32 -14 32 -32s-15 -32 -32 -32zM188 551
c-17 0 -32 14 -32 32s15 32 32 32s32 -14 32 -32s-15 -32 -32 -32z" />
    <glyph glyph-name="ograve" unicode="&#xf2;" horiz-adv-x="528" 
d="M265 -8c-119 0 -213 96 -213 213s94 212 213 212s211 -95 211 -212s-92 -213 -211 -213zM265 27c102 0 171 77 171 178s-69 177 -171 177s-173 -76 -173 -177s71 -178 173 -178zM246 497l-88 195h46l75 -195h-33z" />
    <glyph glyph-name="otilde" unicode="&#xf5;" horiz-adv-x="528" 
d="M265 -8c-119 0 -213 96 -213 213s94 212 213 212s211 -95 211 -212s-92 -213 -211 -213zM265 27c102 0 171 77 171 178s-69 177 -171 177s-173 -76 -173 -177s71 -178 173 -178zM164 509l-34 3c3 61 31 97 75 97c29 0 46 -14 71 -38c26 -25 32 -30 49 -30
c23 0 35 20 39 65l34 -3c-3 -61 -28 -96 -74 -96c-29 0 -46 15 -71 39c-26 25 -32 29 -49 29c-21 0 -36 -21 -40 -66z" />
    <glyph glyph-name="scaron" unicode="&#x161;" horiz-adv-x="405" 
d="M211 -8c-86 0 -141 47 -164 102l34 15c22 -48 61 -82 130 -82c62 0 102 31 102 78c0 56 -39 70 -113 93c-69 20 -126 44 -126 117c0 60 54 102 122 102c63 0 104 -30 130 -77l-30 -18c-20 35 -53 61 -100 61c-52 0 -85 -27 -85 -66c0 -47 25 -62 105 -86
c74 -22 136 -49 136 -125c0 -65 -50 -114 -141 -114zM200 501l-113 182h35l82 -119l83 119h35l-113 -182h-9z" />
    <glyph glyph-name="uacute" unicode="&#xfa;" horiz-adv-x="509" 
d="M232 -9c-91 0 -152 60 -152 160v257h39v-251c0 -83 39 -130 117 -130c88 0 150 59 150 153v228h39v-408h-39l1 90c-27 -61 -83 -99 -155 -99zM236 497l75 195h46l-88 -195h-33z" />
    <glyph glyph-name="ucircumflex" unicode="&#xfb;" horiz-adv-x="509" 
d="M232 -9c-91 0 -152 60 -152 160v257h39v-251c0 -83 39 -130 117 -130c88 0 150 59 150 153v228h39v-408h-39l1 90c-27 -61 -83 -99 -155 -99zM135 504l113 182h9l113 -182h-35l-82 119l-83 -119h-35z" />
    <glyph glyph-name="udieresis" unicode="&#xfc;" horiz-adv-x="509" 
d="M232 -9c-91 0 -152 60 -152 160v257h39v-251c0 -83 39 -130 117 -130c88 0 150 59 150 153v228h39v-408h-39l1 90c-27 -61 -83 -99 -155 -99zM328 551c-17 0 -32 14 -32 32s15 32 32 32s32 -14 32 -32s-15 -32 -32 -32zM176 551c-17 0 -32 14 -32 32s15 32 32 32
s32 -14 32 -32s-15 -32 -32 -32z" />
    <glyph glyph-name="ugrave" unicode="&#xf9;" horiz-adv-x="509" 
d="M232 -9c-91 0 -152 60 -152 160v257h39v-251c0 -83 39 -130 117 -130c88 0 150 59 150 153v228h39v-408h-39l1 90c-27 -61 -83 -99 -155 -99zM234 497l-88 195h46l75 -195h-33z" />
    <glyph glyph-name="yacute" unicode="&#xfd;" horiz-adv-x="449" 
d="M110 -212l103 242l-181 378h42l143 -302c9 -20 16 -48 16 -48s6 28 15 48l129 302h40l-267 -620h-40zM214 497l75 195h46l-88 -195h-33z" />
    <glyph glyph-name="ydieresis" unicode="&#xff;" horiz-adv-x="449" 
d="M110 -212l103 242l-181 378h42l143 -302c9 -20 16 -48 16 -48s6 28 15 48l129 302h40l-267 -620h-40zM306 551c-17 0 -32 14 -32 32s15 32 32 32s32 -14 32 -32s-15 -32 -32 -32zM154 551c-17 0 -32 14 -32 32s15 32 32 32s32 -14 32 -32s-15 -32 -32 -32z" />
    <glyph glyph-name="zcaron" unicode="&#x17e;" horiz-adv-x="406" 
d="M36 0v10l274 364h-246v34h306v-11l-274 -363h274v-34h-334zM212 501l-113 182h35l82 -119l83 119h35l-113 -182h-9z" />
    <glyph glyph-name="summation" unicode="&#x2211;" horiz-adv-x="572" 
d="M55 0v10l267 340l-272 320v10h450v-36h-338c-21 0 -44 1 -44 1s18 -17 33 -35l217 -255v-8l-216 -275c-13 -16 -34 -38 -34 -38s22 2 51 2h345v-36h-459z" />
    <glyph glyph-name="uni00A0" unicode="&#xa0;" horiz-adv-x="182" 
 />
    <glyph glyph-name="Euro" unicode="&#x20ac;" horiz-adv-x="632" 
d="M127 287h-80v33h87c30 110 128 183 242 183c87 0 152 -36 195 -96l-30 -23c-37 52 -85 83 -165 83c-98 0 -173 -58 -200 -147h259v-33h-266c-2 -13 -3 -26 -3 -40c0 -15 1 -29 3 -42h266v-33h-258c28 -87 104 -144 199 -144c83 0 132 30 169 86l32 -21
c-41 -65 -109 -101 -201 -101c-114 0 -211 72 -242 180h-87v33h80c-2 14 -3 28 -3 42s1 27 3 40z" />
    <glyph glyph-name="space_uni0326" 
d="M208 -243l32 100c-14 3 -27 18 -27 36c0 22 19 40 39 40s39 -18 39 -40c0 -5 -2 -12 -5 -19l-53 -117h-25z" />
    <glyph glyph-name="uni0237" unicode="&#x237;" horiz-adv-x="208" 
d="M33 -222c-42 0 -67 17 -83 36l24 25c13 -14 29 -27 57 -27c32 0 54 20 54 77v519h39v-520c0 -75 -41 -110 -91 -110z" />
    <glyph glyph-name="Dcroat" unicode="&#x110;" horiz-adv-x="677" 
d="M103 0v324h-88v36h88v320h157c226 0 360 -139 360 -340s-133 -340 -360 -340h-157zM144 37h111c215 0 322 125 322 303s-107 303 -322 303h-111v-283h198v-36h-198v-287z" />
    <glyph glyph-name="dcroat" unicode="&#x111;" horiz-adv-x="551" 
d="M427 547h-153v33h153v142h39v-142h83v-33h-83v-547h-39l2 102c-29 -63 -96 -110 -175 -110c-117 0 -202 93 -202 213s85 212 202 212c83 0 143 -45 173 -106v236zM259 27c103 0 171 77 171 178s-68 177 -171 177c-101 0 -166 -76 -166 -177s65 -178 166 -178z" />
    <glyph glyph-name="Abreve" unicode="&#x102;" horiz-adv-x="651" 
d="M172 218h306l-133 334c-10 24 -19 59 -20 62c-1 -3 -11 -38 -20 -61zM44 0l275 688h12l276 -688h-42l-73 182h-335l-72 -182h-41zM325 757c-68 0 -106 45 -117 105l35 7c11 -42 30 -77 82 -77s71 35 82 77l35 -7c-11 -60 -49 -105 -117 -105z" />
    <glyph glyph-name="Amacron" unicode="&#x100;" horiz-adv-x="651" 
d="M172 218h306l-133 334c-10 24 -19 59 -20 62c-1 -3 -11 -38 -20 -61zM44 0l275 688h12l276 -688h-42l-73 182h-335l-72 -182h-41zM218 778v34h214v-34h-214z" />
    <glyph glyph-name="Aogonek" unicode="&#x104;" horiz-adv-x="651" 
d="M583 -228c-44 0 -86 27 -86 82c0 44 22 75 42 104l27 38l-2 4l-72 182h-335l-72 -182h-41l275 688h12l276 -688l-33 -51c-24 -38 -38 -58 -38 -93c0 -34 24 -50 49 -50c29 0 45 19 58 41l30 -18c-14 -30 -42 -57 -90 -57zM171 218h307l-133 334c-10 24 -19 59 -20 62
c-1 -3 -11 -38 -20 -61z" />
    <glyph glyph-name="Cacute" unicode="&#x106;" horiz-adv-x="731" 
d="M405 -8c-192 0 -348 141 -348 348s156 348 348 348c119 0 213 -46 270 -129l-31 -23c-50 71 -131 115 -239 115c-175 0 -306 -133 -306 -311s131 -311 306 -311c105 0 193 44 247 121l31 -22c-60 -87 -160 -136 -278 -136zM379 755l75 195h46l-88 -195h-33z" />
    <glyph glyph-name="Ccaron" unicode="&#x10c;" horiz-adv-x="731" 
d="M405 -8c-192 0 -348 141 -348 348s156 348 348 348c119 0 213 -46 270 -129l-31 -23c-50 71 -131 115 -239 115c-175 0 -306 -133 -306 -311s131 -311 306 -311c105 0 193 44 247 121l31 -22c-60 -87 -160 -136 -278 -136zM391 746l-113 182h35l82 -119l83 119h35
l-113 -182h-9z" />
    <glyph glyph-name="Ccircumflex" unicode="&#x108;" horiz-adv-x="731" 
d="M405 -8c-192 0 -348 141 -348 348s156 348 348 348c119 0 213 -46 270 -129l-31 -23c-50 71 -131 115 -239 115c-175 0 -306 -133 -306 -311s131 -311 306 -311c105 0 193 44 247 121l31 -22c-60 -87 -160 -136 -278 -136zM278 762l113 182h9l113 -182h-35l-82 119
l-83 -119h-35z" />
    <glyph glyph-name="Cdotaccent" unicode="&#x10a;" horiz-adv-x="731" 
d="M405 -8c-192 0 -348 141 -348 348s156 348 348 348c119 0 213 -46 270 -129l-31 -23c-50 71 -131 115 -239 115c-175 0 -306 -133 -306 -311s131 -311 306 -311c105 0 193 44 247 121l31 -22c-60 -87 -160 -136 -278 -136zM395 769c-17 0 -33 13 -33 33c0 19 16 33 33 33
s33 -14 33 -33c0 -20 -16 -33 -33 -33z" />
    <glyph glyph-name="Dcaron" unicode="&#x10e;" horiz-adv-x="677" 
d="M103 0v680h145c235 0 372 -131 372 -340s-136 -340 -372 -340h-145zM144 37h99c225 0 334 125 334 303s-109 303 -334 303h-99v-606zM310 746l-113 182h35l82 -119l83 119h35l-113 -182h-9z" />
    <glyph glyph-name="Ecaron" unicode="&#x11a;" horiz-adv-x="573" 
d="M103 0v680h397v-36h-356v-284h319v-36h-319v-288h370v-36h-411zM307 746l-113 182h35l82 -119l83 119h35l-113 -182h-9z" />
    <glyph glyph-name="Edotaccent" unicode="&#x116;" horiz-adv-x="573" 
d="M103 0v680h397v-36h-356v-284h319v-36h-319v-288h370v-36h-411zM311 769c-17 0 -33 13 -33 33c0 19 16 33 33 33s33 -14 33 -33c0 -20 -16 -33 -33 -33z" />
    <glyph glyph-name="Emacron" unicode="&#x112;" horiz-adv-x="573" 
d="M103 0v680h397v-36h-356v-284h319v-36h-319v-288h370v-36h-411zM204 778v34h214v-34h-214z" />
    <glyph glyph-name="Eogonek" unicode="&#x118;" horiz-adv-x="573" 
d="M438 -228c-44 0 -86 27 -86 82c0 44 22 77 42 104l30 42h-321v680h397v-36h-356v-284h319v-36h-319v-288h370v-36h-52l-33 -51c-24 -38 -38 -58 -38 -93c0 -34 24 -50 49 -50c29 0 45 19 58 41l30 -18c-14 -30 -42 -57 -90 -57z" />
    <glyph glyph-name="Gbreve" unicode="&#x11e;" horiz-adv-x="745" 
d="M407 -8c-194 0 -350 141 -350 348s157 348 351 348c92 0 177 -27 232 -85l-27 -28c-49 51 -119 76 -205 76c-177 0 -309 -133 -309 -311s132 -311 308 -311c116 0 187 38 232 80v158h-219v36h259v-210c-55 -56 -142 -101 -272 -101zM383 757c-68 0 -106 45 -117 105l35 7
c11 -42 30 -77 82 -77s71 35 82 77l35 -7c-11 -60 -49 -105 -117 -105z" />
    <glyph glyph-name="Gcircumflex" unicode="&#x11c;" horiz-adv-x="745" 
d="M407 -8c-194 0 -350 141 -350 348s157 348 351 348c92 0 177 -27 232 -85l-27 -28c-49 51 -119 76 -205 76c-177 0 -309 -133 -309 -311s132 -311 308 -311c116 0 187 38 232 80v158h-219v36h259v-210c-55 -56 -142 -101 -272 -101zM266 762l113 182h9l113 -182h-35
l-82 119l-83 -119h-35z" />
    <glyph glyph-name="Gcommaaccent" unicode="&#x122;" horiz-adv-x="745" 
d="M407 -8c-194 0 -350 141 -350 348s157 348 351 348c92 0 177 -27 232 -85l-27 -28c-49 51 -119 76 -205 76c-177 0 -309 -133 -309 -311s132 -311 308 -311c116 0 187 38 232 80v158h-219v36h259v-210c-55 -56 -142 -101 -272 -101zM342 -243l32 100c-14 3 -27 18 -27 36
c0 22 19 40 39 40s39 -18 39 -40c0 -5 -2 -12 -5 -19l-53 -117h-25z" />
    <glyph glyph-name="Gdotaccent" unicode="&#x120;" horiz-adv-x="745" 
d="M407 -8c-194 0 -350 141 -350 348s157 348 351 348c92 0 177 -27 232 -85l-27 -28c-49 51 -119 76 -205 76c-177 0 -309 -133 -309 -311s132 -311 308 -311c116 0 187 38 232 80v158h-219v36h259v-210c-55 -56 -142 -101 -272 -101zM383 769c-17 0 -33 13 -33 33
c0 19 16 33 33 33s33 -14 33 -33c0 -20 -16 -33 -33 -33z" />
    <glyph glyph-name="Hbar" unicode="&#x126;" horiz-adv-x="684" 
d="M19 467v35h84v178h41v-178h396v178h41v-178h84v-35h-84v-467h-41v313h-396v-313h-41v467h-84zM144 350h396v117h-396v-117z" />
    <glyph glyph-name="Hcircumflex" unicode="&#x124;" horiz-adv-x="684" 
d="M103 0v680h41v-330h396v330h41v-680h-41v313h-396v-313h-41zM225 762l113 182h9l113 -182h-35l-82 119l-83 -119h-35z" />
    <glyph glyph-name="Idotaccent" unicode="&#x130;" horiz-adv-x="255" 
d="M107 0v680h41v-680h-41zM127 769c-17 0 -33 13 -33 33c0 19 16 33 33 33s33 -14 33 -33c0 -20 -16 -33 -33 -33z" />
    <glyph glyph-name="Imacron" unicode="&#x12a;" horiz-adv-x="255" 
d="M107 0v680h41v-680h-41zM30 778v34h194v-34h-194z" />
    <glyph glyph-name="Iogonek" unicode="&#x12e;" horiz-adv-x="255" 
d="M107 -4v684h41v-680l-33 -51c-24 -38 -38 -58 -38 -93c0 -34 24 -50 49 -50c29 0 45 19 58 41l30 -18c-14 -30 -42 -57 -90 -57c-44 0 -86 27 -86 82c0 44 22 77 42 104z" />
    <glyph glyph-name="Jcircumflex" unicode="&#x134;" horiz-adv-x="476" 
d="M202 -8c-81 0 -130 39 -160 90l33 22c28 -48 70 -75 126 -75c76 0 129 46 129 141v510h41v-512c0 -116 -73 -176 -169 -176zM233 762l113 182h9l113 -182h-35l-82 119l-83 -119h-35z" />
    <glyph glyph-name="Kcommaaccent" unicode="&#x136;" horiz-adv-x="587" 
d="M103 0v680h41v-343c0 -29 -3 -62 -4 -77c14 24 33 53 41 64l297 356h46l-254 -307l284 -373h-51l-259 344l-100 -120v-224h-41zM261 -243l32 100c-14 3 -27 18 -27 36c0 22 19 40 39 40s39 -18 39 -40c0 -5 -2 -12 -5 -19l-53 -117h-25z" />
    <glyph glyph-name="Lacute" unicode="&#x139;" horiz-adv-x="512" 
d="M103 0v680h41v-644h327v-36h-368zM108 755l75 195h46l-88 -195h-33z" />
    <glyph glyph-name="Lcaron" unicode="&#x13d;" horiz-adv-x="512" 
d="M302 511l32 100c-14 3 -27 18 -27 36c0 22 19 40 39 40s39 -18 39 -40c0 -5 -2 -12 -5 -19l-53 -117h-25zM103 0v680h41v-644h327v-36h-368z" />
    <glyph glyph-name="Lcommaaccent" unicode="&#x13b;" horiz-adv-x="512" 
d="M103 0v680h41v-644h327v-36h-368zM244 -243l32 100c-14 3 -27 18 -27 36c0 22 19 40 39 40s39 -18 39 -40c0 -5 -2 -12 -5 -19l-53 -117h-25z" />
    <glyph glyph-name="Nacute" unicode="&#x143;" horiz-adv-x="719" 
d="M604 -8l-435 564c-13 17 -31 45 -31 45s3 -31 3 -51v-550h-38v688h12l435 -564c13 -17 31 -45 31 -45s-3 31 -3 51v550h38v-688h-12zM349 755l75 195h46l-88 -195h-33z" />
    <glyph glyph-name="Ncaron" unicode="&#x147;" horiz-adv-x="719" 
d="M604 -8l-435 564c-13 17 -31 45 -31 45s3 -31 3 -51v-550h-38v688h12l435 -564c13 -17 31 -45 31 -45s-3 31 -3 51v550h38v-688h-12zM361 746l-113 182h35l82 -119l83 119h35l-113 -182h-9z" />
    <glyph glyph-name="Ncommaaccent" unicode="&#x145;" horiz-adv-x="719" 
d="M604 -8l-435 564c-13 17 -31 45 -31 45s3 -31 3 -51v-550h-38v688h12l435 -564c13 -17 31 -45 31 -45s-3 31 -3 51v550h38v-688h-12zM310 -243l32 100c-14 3 -27 18 -27 36c0 22 19 40 39 40s39 -18 39 -40c0 -5 -2 -12 -5 -19l-53 -117h-25z" />
    <glyph glyph-name="Ohungarumlaut" unicode="&#x150;" horiz-adv-x="810" 
d="M405 -8c-192 0 -348 141 -348 348s156 348 348 348s348 -141 348 -348s-156 -348 -348 -348zM405 29c175 0 306 133 306 311s-131 311 -306 311s-306 -133 -306 -311s131 -311 306 -311zM448 765l75 195h46l-88 -195h-33zM331 765l75 195h46l-88 -195h-33z" />
    <glyph glyph-name="Omacron" unicode="&#x14c;" horiz-adv-x="810" 
d="M405 -8c-192 0 -348 141 -348 348s156 348 348 348s348 -141 348 -348s-156 -348 -348 -348zM405 29c175 0 306 133 306 311s-131 311 -306 311s-306 -133 -306 -311s131 -311 306 -311zM298 778v34h214v-34h-214z" />
    <glyph glyph-name="Racute" unicode="&#x154;" horiz-adv-x="598" 
d="M103 0v680h182c143 0 236 -68 236 -200c0 -99 -55 -164 -147 -189l171 -291h-49l-165 283c-15 -2 -30 -2 -46 -2h-141v-281h-41zM144 317h137c130 0 198 56 198 163c0 108 -68 164 -198 164h-137v-327zM278 755l75 195h46l-88 -195h-33z" />
    <glyph glyph-name="Rcaron" unicode="&#x158;" horiz-adv-x="598" 
d="M103 0v680h182c143 0 236 -68 236 -200c0 -99 -55 -164 -147 -189l171 -291h-49l-165 283c-15 -2 -30 -2 -46 -2h-141v-281h-41zM144 317h137c130 0 198 56 198 163c0 108 -68 164 -198 164h-137v-327zM290 746l-113 182h35l82 -119l83 119h35l-113 -182h-9z" />
    <glyph glyph-name="Rcommaaccent" unicode="&#x156;" horiz-adv-x="598" 
d="M103 0v680h182c143 0 236 -68 236 -200c0 -99 -55 -164 -147 -189l171 -291h-49l-165 283c-15 -2 -30 -2 -46 -2h-141v-281h-41zM144 317h137c130 0 198 56 198 163c0 108 -68 164 -198 164h-137v-327zM259 -243l32 100c-14 3 -27 18 -27 36c0 22 19 40 39 40
s39 -18 39 -40c0 -5 -2 -12 -5 -19l-53 -117h-25z" />
    <glyph glyph-name="Sacute" unicode="&#x15a;" horiz-adv-x="527" 
d="M265 -8c-129 0 -195 68 -228 136l35 17c32 -60 83 -117 192 -117c89 0 162 52 162 138c0 79 -44 122 -139 166l-63 29c-95 44 -142 89 -142 175c0 94 75 152 167 152c91 0 142 -47 174 -98l-32 -21c-28 45 -67 83 -142 83c-80 0 -127 -46 -127 -115
c0 -68 34 -101 118 -140l63 -29c110 -50 163 -108 163 -202c0 -106 -84 -174 -201 -174zM242 755l75 195h46l-88 -195h-33z" />
    <glyph glyph-name="Scedilla" unicode="&#x15e;" horiz-adv-x="527" 
d="M265 -228c-48 0 -80 27 -94 58l30 18c11 -23 27 -43 63 -43c28 0 52 18 52 52c0 29 -18 55 -62 55h-15v81c-112 8 -172 71 -202 135l35 17c32 -60 83 -117 192 -117c89 0 162 52 162 138c0 79 -44 122 -139 166l-63 29c-95 44 -142 89 -142 175c0 94 75 152 167 152
c91 0 142 -47 174 -98l-32 -21c-28 45 -67 83 -142 83c-80 0 -127 -46 -127 -115c0 -68 34 -101 118 -140l63 -29c110 -50 163 -108 163 -202c0 -103 -80 -170 -191 -174v-51c41 -5 80 -36 80 -85c0 -55 -44 -84 -90 -84z" />
    <glyph glyph-name="Scircumflex" unicode="&#x15c;" horiz-adv-x="527" 
d="M265 -8c-129 0 -195 68 -228 136l35 17c32 -60 83 -117 192 -117c89 0 162 52 162 138c0 79 -44 122 -139 166l-63 29c-95 44 -142 89 -142 175c0 94 75 152 167 152c91 0 142 -47 174 -98l-32 -21c-28 45 -67 83 -142 83c-80 0 -127 -46 -127 -115
c0 -68 34 -101 118 -140l63 -29c110 -50 163 -108 163 -202c0 -106 -84 -174 -201 -174zM141 762l113 182h9l113 -182h-35l-82 119l-83 -119h-35z" />
    <glyph glyph-name="Scommaaccent" unicode="&#x218;" horiz-adv-x="527" 
d="M265 -8c-129 0 -195 68 -228 136l35 17c32 -60 83 -117 192 -117c89 0 162 52 162 138c0 79 -44 122 -139 166l-63 29c-95 44 -142 89 -142 175c0 94 75 152 167 152c91 0 142 -47 174 -98l-32 -21c-28 45 -67 83 -142 83c-80 0 -127 -46 -127 -115
c0 -68 34 -101 118 -140l63 -29c110 -50 163 -108 163 -202c0 -106 -84 -174 -201 -174zM217 -243l32 100c-14 3 -27 18 -27 36c0 22 19 40 39 40s39 -18 39 -40c0 -5 -2 -12 -5 -19l-53 -117h-25z" />
    <glyph glyph-name="Tcaron" unicode="&#x164;" horiz-adv-x="539" 
d="M249 0v644h-216v36h473v-36h-216v-644h-41zM265 746l-113 182h35l82 -119l83 119h35l-113 -182h-9z" />
    <glyph glyph-name="uni021A" unicode="&#x21a;" horiz-adv-x="539" 
d="M249 0v644h-216v36h473v-36h-216v-644h-3v-59c41 -5 80 -36 80 -85c0 -55 -44 -84 -90 -84c-48 0 -80 27 -94 58l30 18c11 -23 27 -43 63 -43c28 0 52 18 52 52c0 29 -18 55 -62 55h-15v88h-2z" />
    <glyph glyph-name="Tcommaaccent" unicode="&#x162;" horiz-adv-x="539" 
d="M249 0v644h-216v36h473v-36h-216v-644h-41zM228 -243l32 100c-14 3 -27 18 -27 36c0 22 19 40 39 40s39 -18 39 -40c0 -5 -2 -12 -5 -19l-53 -117h-25z" />
    <glyph glyph-name="Ubreve" unicode="&#x16c;" horiz-adv-x="651" 
d="M325 -8c-131 0 -229 81 -229 234v454h41v-451c0 -131 76 -201 188 -201c111 0 189 70 189 201v451h41v-454c0 -153 -100 -234 -230 -234zM325 757c-68 0 -106 45 -117 105l35 7c11 -42 30 -77 82 -77s71 35 82 77l35 -7c-11 -60 -49 -105 -117 -105z" />
    <glyph glyph-name="Uhungarumlaut" unicode="&#x170;" horiz-adv-x="651" 
d="M325 -8c-131 0 -229 81 -229 234v454h41v-451c0 -131 76 -201 188 -201c111 0 189 70 189 201v451h41v-454c0 -153 -100 -234 -230 -234zM368 765l75 195h46l-88 -195h-33zM251 765l75 195h46l-88 -195h-33z" />
    <glyph glyph-name="Umacron" unicode="&#x16a;" horiz-adv-x="651" 
d="M325 -8c-131 0 -229 81 -229 234v454h41v-451c0 -131 76 -201 188 -201c111 0 189 70 189 201v451h41v-454c0 -153 -100 -234 -230 -234zM218 778v34h214v-34h-214z" />
    <glyph glyph-name="Uogonek" unicode="&#x172;" horiz-adv-x="651" 
d="M304 -7c-121 8 -208 88 -208 233v454h41v-451c0 -131 76 -201 188 -201c111 0 189 70 189 201v451h41v-454c0 -146 -91 -227 -213 -233l-28 -44c-24 -38 -38 -58 -38 -93c0 -34 24 -50 49 -50c29 0 45 19 58 41l30 -18c-14 -30 -42 -57 -90 -57c-44 0 -86 27 -86 82
c0 44 22 77 42 104z" />
    <glyph glyph-name="Uring" unicode="&#x16e;" horiz-adv-x="651" 
d="M325 -8c-131 0 -229 81 -229 234v454h41v-451c0 -131 76 -201 188 -201c111 0 189 70 189 201v451h41v-454c0 -153 -100 -234 -230 -234zM325 696c-52 0 -94 41 -94 92s42 92 94 92s94 -41 94 -92s-42 -92 -94 -92zM325 727c34 0 58 24 58 61s-24 61 -58 61
s-58 -24 -58 -61s24 -61 58 -61z" />
    <glyph glyph-name="Zacute" unicode="&#x179;" horiz-adv-x="580" 
d="M45 0v10l413 634h-360v36h421v-10l-412 -634h423v-36h-485zM290 755l75 195h46l-88 -195h-33z" />
    <glyph glyph-name="Zdotaccent" unicode="&#x17b;" horiz-adv-x="580" 
d="M45 0v10l413 634h-360v36h421v-10l-412 -634h423v-36h-485zM306 769c-17 0 -33 13 -33 33c0 19 16 33 33 33s33 -14 33 -33c0 -20 -16 -33 -33 -33z" />
    <glyph glyph-name="abreve" unicode="&#x103;" horiz-adv-x="463" 
d="M344 236v20c0 92 -42 127 -109 127c-62 0 -104 -26 -133 -70l-28 20c34 53 92 84 162 84c84 0 147 -51 147 -157v-260h-39l2 63c-26 -39 -71 -71 -141 -71c-93 0 -154 43 -154 125c0 81 71 119 149 119h144zM344 204h-139c-62 0 -115 -24 -115 -86s41 -91 119 -91
c68 0 135 40 135 103v74zM226 499c-68 0 -106 45 -117 105l35 7c11 -42 30 -77 82 -77s71 35 82 77l35 -7c-11 -60 -49 -105 -117 -105z" />
    <glyph glyph-name="amacron" unicode="&#x101;" horiz-adv-x="463" 
d="M344 236v20c0 92 -42 127 -109 127c-62 0 -104 -26 -133 -70l-28 20c34 53 92 84 162 84c84 0 147 -51 147 -157v-260h-39l2 63c-26 -39 -71 -71 -141 -71c-93 0 -154 43 -154 125c0 81 71 119 149 119h144zM344 204h-139c-62 0 -115 -24 -115 -86s41 -91 119 -91
c68 0 135 40 135 103v74zM119 550v34h214v-34h-214z" />
    <glyph glyph-name="aogonek" unicode="&#x105;" horiz-adv-x="463" 
d="M383 0l-33 -51c-24 -38 -38 -58 -38 -93c0 -34 24 -50 49 -50c29 0 45 19 58 41l30 -18c-14 -30 -42 -57 -90 -57c-44 0 -86 27 -86 82c0 44 22 77 42 104l29 40l2 65c-26 -39 -71 -71 -141 -71c-93 0 -154 43 -154 125c0 81 71 119 149 119h144v20
c0 92 -42 127 -109 127c-62 0 -104 -26 -133 -70l-28 20c34 53 92 84 162 84c84 0 147 -51 147 -157v-260zM344 204h-139c-62 0 -115 -24 -115 -86s41 -91 119 -91c68 0 135 40 135 103v74z" />
    <glyph glyph-name="cacute" unicode="&#x107;" horiz-adv-x="464" 
d="M259 -8c-117 0 -207 95 -207 212s90 213 207 213c69 0 120 -26 155 -69l-28 -23c-29 36 -67 57 -127 57c-100 0 -166 -77 -166 -178c0 -100 66 -177 166 -177c64 0 106 24 135 61l28 -23c-38 -47 -89 -73 -163 -73zM237 497l75 195h46l-88 -195h-33z" />
    <glyph glyph-name="ccaron" unicode="&#x10d;" horiz-adv-x="464" 
d="M259 -8c-117 0 -207 95 -207 212s90 213 207 213c69 0 120 -26 155 -69l-28 -23c-29 36 -67 57 -127 57c-100 0 -166 -77 -166 -178c0 -100 66 -177 166 -177c64 0 106 24 135 61l28 -23c-38 -47 -89 -73 -163 -73zM249 501l-113 182h35l82 -119l83 119h35l-113 -182h-9z
" />
    <glyph glyph-name="ccircumflex" unicode="&#x109;" horiz-adv-x="464" 
d="M259 -8c-117 0 -207 95 -207 212s90 213 207 213c69 0 120 -26 155 -69l-28 -23c-29 36 -67 57 -127 57c-100 0 -166 -77 -166 -178c0 -100 66 -177 166 -177c64 0 106 24 135 61l28 -23c-38 -47 -89 -73 -163 -73zM136 504l113 182h9l113 -182h-35l-82 119l-83 -119h-35
z" />
    <glyph glyph-name="cdotaccent" unicode="&#x10b;" horiz-adv-x="464" 
d="M259 -8c-117 0 -207 95 -207 212s90 213 207 213c69 0 120 -26 155 -69l-28 -23c-29 36 -67 57 -127 57c-100 0 -166 -77 -166 -178c0 -100 66 -177 166 -177c64 0 106 24 135 61l28 -23c-38 -47 -89 -73 -163 -73zM253 551c-17 0 -33 13 -33 33c0 19 16 33 33 33
s33 -14 33 -33c0 -20 -16 -33 -33 -33z" />
    <glyph glyph-name="dcaron" unicode="&#x10f;" horiz-adv-x="615" 
d="M547 511l32 100c-14 3 -27 18 -27 36c0 22 19 40 39 40s39 -18 39 -40c0 -5 -2 -12 -5 -19l-53 -117h-25zM254 -8c-117 0 -202 93 -202 213s85 212 202 212c83 0 143 -45 173 -106v411h39v-722h-39l2 102c-29 -63 -96 -110 -175 -110zM259 27c103 0 171 77 171 178
s-68 177 -171 177c-101 0 -166 -76 -166 -177s65 -178 166 -178z" />
    <glyph glyph-name="ecaron" unicode="&#x11b;" horiz-adv-x="506" 
d="M92 196c3 -99 68 -169 173 -169c68 0 113 27 143 64l26 -23c-36 -45 -93 -76 -169 -76c-129 0 -213 95 -213 212s89 213 205 213c124 0 202 -97 200 -221h-365zM93 228h324c-6 84 -58 155 -160 155c-93 0 -154 -66 -164 -155zM251 501l-113 182h35l82 -119l83 119h35
l-113 -182h-9z" />
    <glyph glyph-name="edotaccent" unicode="&#x117;" horiz-adv-x="506" 
d="M92 196c3 -99 68 -169 173 -169c68 0 113 27 143 64l26 -23c-36 -45 -93 -76 -169 -76c-129 0 -213 95 -213 212s89 213 205 213c124 0 202 -97 200 -221h-365zM93 228h324c-6 84 -58 155 -160 155c-93 0 -154 -66 -164 -155zM255 551c-17 0 -33 13 -33 33
c0 19 16 33 33 33s33 -14 33 -33c0 -20 -16 -33 -33 -33z" />
    <glyph glyph-name="emacron" unicode="&#x113;" horiz-adv-x="506" 
d="M92 196c3 -99 68 -169 173 -169c68 0 113 27 143 64l26 -23c-36 -45 -93 -76 -169 -76c-129 0 -213 95 -213 212s89 213 205 213c124 0 202 -97 200 -221h-365zM93 228h324c-6 84 -58 155 -160 155c-93 0 -154 -66 -164 -155zM148 550v34h214v-34h-214z" />
    <glyph glyph-name="eogonek" unicode="&#x119;" horiz-adv-x="506" 
d="M328 -228c-44 0 -86 27 -86 82c0 44 23 78 49 113l22 30c-15 -3 -32 -5 -48 -5c-129 0 -213 95 -213 212s89 213 205 213c124 0 202 -97 200 -221h-365c3 -99 68 -169 173 -169c68 0 113 27 143 64l26 -23c-31 -40 -73 -53 -115 -119c-24 -38 -38 -58 -38 -93
c0 -34 24 -50 49 -50c29 0 45 19 58 41l30 -18c-14 -30 -42 -57 -90 -57zM93 228h324c-6 84 -58 155 -160 155c-93 0 -154 -66 -164 -155z" />
    <glyph glyph-name="gbreve" unicode="&#x11f;" horiz-adv-x="551" 
d="M268 -223c-99 0 -166 51 -202 119l32 20c37 -66 91 -104 169 -104c102 0 160 50 160 173v114c-29 -60 -94 -107 -173 -107c-117 0 -202 93 -202 213s85 212 202 212c83 0 144 -46 175 -109l-2 100h39v-427c0 -139 -76 -204 -198 -204zM259 27c103 0 171 77 171 178
s-68 177 -171 177c-101 0 -166 -76 -166 -177s65 -178 166 -178zM268 499c-68 0 -106 45 -117 105l35 7c11 -42 30 -77 82 -77s71 35 82 77l35 -7c-11 -60 -49 -105 -117 -105z" />
    <glyph glyph-name="gcircumflex" unicode="&#x11d;" horiz-adv-x="551" 
d="M268 -223c-99 0 -166 51 -202 119l32 20c37 -66 91 -104 169 -104c102 0 160 50 160 173v114c-29 -60 -94 -107 -173 -107c-117 0 -202 93 -202 213s85 212 202 212c83 0 144 -46 175 -109l-2 100h39v-427c0 -139 -76 -204 -198 -204zM259 27c103 0 171 77 171 178
s-68 177 -171 177c-101 0 -166 -76 -166 -177s65 -178 166 -178zM151 504l113 182h9l113 -182h-35l-82 119l-83 -119h-35z" />
    <glyph glyph-name="gcommaaccent" unicode="&#x123;" horiz-adv-x="551" 
d="M268 -223c-99 0 -166 51 -202 119l32 20c37 -66 91 -104 169 -104c102 0 160 50 160 173v114c-29 -60 -94 -107 -173 -107c-117 0 -202 93 -202 213s85 212 202 212c83 0 144 -46 175 -109l-2 100h39v-427c0 -139 -76 -204 -198 -204zM259 27c103 0 171 77 171 178
s-68 177 -171 177c-101 0 -166 -76 -166 -177s65 -178 166 -178zM311 716l-32 -100c14 -3 27 -18 27 -36c0 -22 -19 -40 -39 -40s-39 18 -39 40c0 5 2 12 5 19l53 117h25z" />
    <glyph glyph-name="gdotaccent" unicode="&#x121;" horiz-adv-x="551" 
d="M268 -223c-99 0 -166 51 -202 119l32 20c37 -66 91 -104 169 -104c102 0 160 50 160 173v114c-29 -60 -94 -107 -173 -107c-117 0 -202 93 -202 213s85 212 202 212c83 0 144 -46 175 -109l-2 100h39v-427c0 -139 -76 -204 -198 -204zM259 27c103 0 171 77 171 178
s-68 177 -171 177c-101 0 -166 -76 -166 -177s65 -178 166 -178zM268 551c-17 0 -33 13 -33 33c0 19 16 33 33 33s33 -14 33 -33c0 -20 -16 -33 -33 -33z" />
    <glyph glyph-name="hbar" unicode="&#x127;" horiz-adv-x="509" 
d="M1 547v33h83v142h39v-142h153v-33h-153v-226c27 58 83 96 155 96c91 0 152 -61 152 -162v-255h-39v248c0 84 -39 133 -118 133c-88 0 -150 -58 -150 -153v-228h-39v547h-83z" />
    <glyph glyph-name="hcircumflex" unicode="&#x125;" horiz-adv-x="509" 
d="M84 0v722h39v-401c27 58 83 96 155 96c91 0 152 -61 152 -162v-255h-39v248c0 84 -39 133 -118 133c-88 0 -150 -58 -150 -153v-228h-39zM136 772l113 182h9l113 -182h-35l-82 119l-83 -119h-35z" />
    <glyph glyph-name="idotaccent" horiz-adv-x="208" 
d="M104 551c-17 0 -33 13 -33 33c0 19 16 33 33 33s33 -14 33 -33c0 -20 -16 -33 -33 -33zM85 0v408h39v-408h-39z" />
    <glyph glyph-name="imacron" unicode="&#x12b;" horiz-adv-x="208" 
d="M85 0v408h39v-408h-39zM27 550v34h154v-34h-154z" />
    <glyph glyph-name="iogonek" unicode="&#x12f;" horiz-adv-x="208" 
d="M104 551c-17 0 -33 13 -33 33c0 19 16 33 33 33s33 -14 33 -33c0 -20 -16 -33 -33 -33zM85 -1v409h39v-408l-33 -51c-24 -38 -38 -58 -38 -93c0 -34 24 -50 49 -50c29 0 45 19 58 41l30 -18c-14 -30 -42 -57 -90 -57c-44 0 -86 27 -86 82c0 44 22 77 42 104z" />
    <glyph glyph-name="jcircumflex" unicode="&#x135;" horiz-adv-x="208" 
d="M33 -222c-42 0 -67 17 -83 36l24 25c13 -14 29 -27 57 -27c32 0 54 20 54 77v519h39v-520c0 -75 -41 -110 -91 -110zM-13 504l113 182h9l113 -182h-35l-82 119l-83 -119h-35z" />
    <glyph glyph-name="kcommaaccent" unicode="&#x137;" horiz-adv-x="449" 
d="M123 127v-127h-39v722h39v-508c0 -17 -2 -34 -3 -44l226 238h46l-164 -173l193 -235h-48l-172 209zM194 -243l32 100c-14 3 -27 18 -27 36c0 22 19 40 39 40s39 -18 39 -40c0 -5 -2 -12 -5 -19l-53 -117h-25z" />
    <glyph glyph-name="lacute" unicode="&#x13a;" horiz-adv-x="219" 
d="M90 0v722h39v-722h-39zM93 765l75 195h46l-88 -195h-33z" />
    <glyph glyph-name="lcaron" unicode="&#x13e;" horiz-adv-x="283" 
d="M215 511l32 100c-14 3 -27 18 -27 36c0 22 19 40 39 40s39 -18 39 -40c0 -5 -2 -12 -5 -19l-53 -117h-25zM90 0v722h39v-722h-39z" />
    <glyph glyph-name="lcommaaccent" unicode="&#x13c;" horiz-adv-x="219" 
d="M90 0v722h39v-722h-39zM68 -243l32 100c-14 3 -27 18 -27 36c0 22 19 40 39 40s39 -18 39 -40c0 -5 -2 -12 -5 -19l-53 -117h-25z" />
    <glyph glyph-name="nacute" unicode="&#x144;" horiz-adv-x="509" 
d="M84 0v408h39l-1 -91c27 62 84 100 156 100c91 0 152 -61 152 -162v-255h-39v248c0 84 -39 133 -118 133c-88 0 -150 -58 -150 -153v-228h-39zM239 497l75 195h46l-88 -195h-33z" />
    <glyph glyph-name="ncaron" unicode="&#x148;" horiz-adv-x="509" 
d="M84 0v408h39l-1 -91c27 62 84 100 156 100c91 0 152 -61 152 -162v-255h-39v248c0 84 -39 133 -118 133c-88 0 -150 -58 -150 -153v-228h-39zM251 501l-113 182h35l82 -119l83 119h35l-113 -182h-9z" />
    <glyph glyph-name="ncommaaccent" unicode="&#x146;" horiz-adv-x="509" 
d="M84 0v408h39l-1 -91c27 62 84 100 156 100c91 0 152 -61 152 -162v-255h-39v248c0 84 -39 133 -118 133c-88 0 -150 -58 -150 -153v-228h-39zM214 -243l32 100c-14 3 -27 18 -27 36c0 22 19 40 39 40s39 -18 39 -40c0 -5 -2 -12 -5 -19l-53 -117h-25z" />
    <glyph glyph-name="ohungarumlaut" unicode="&#x151;" horiz-adv-x="528" 
d="M265 -8c-119 0 -213 96 -213 213s94 212 213 212s211 -95 211 -212s-92 -213 -211 -213zM265 27c102 0 171 77 171 178s-69 177 -171 177s-173 -76 -173 -177s71 -178 173 -178zM307 507l75 195h46l-88 -195h-33zM190 507l75 195h46l-88 -195h-33z" />
    <glyph glyph-name="omacron" unicode="&#x14d;" horiz-adv-x="528" 
d="M265 -8c-119 0 -213 96 -213 213s94 212 213 212s211 -95 211 -212s-92 -213 -211 -213zM265 27c102 0 171 77 171 178s-69 177 -171 177s-173 -76 -173 -177s71 -178 173 -178zM157 550v34h214v-34h-214z" />
    <glyph glyph-name="racute" unicode="&#x155;" horiz-adv-x="340" 
d="M84 0v408h39l-1 -82c23 59 67 90 119 90c32 0 54 -6 74 -21l-19 -32c-12 9 -30 17 -60 17c-58 0 -113 -49 -113 -148v-232h-39zM168 497l75 195h46l-88 -195h-33z" />
    <glyph glyph-name="rcaron" unicode="&#x159;" horiz-adv-x="340" 
d="M84 0v408h39l-1 -82c23 59 67 90 119 90c32 0 54 -6 74 -21l-19 -32c-12 9 -30 17 -60 17c-58 0 -113 -49 -113 -148v-232h-39zM180 501l-113 182h35l82 -119l83 119h35l-113 -182h-9z" />
    <glyph glyph-name="rcommaaccent" unicode="&#x157;" horiz-adv-x="340" 
d="M84 0v408h39l-1 -82c23 59 67 90 119 90c32 0 54 -6 74 -21l-19 -32c-12 9 -30 17 -60 17c-58 0 -113 -49 -113 -148v-232h-39zM62 -243l32 100c-14 3 -27 18 -27 36c0 22 19 40 39 40s39 -18 39 -40c0 -5 -2 -12 -5 -19l-53 -117h-25z" />
    <glyph glyph-name="sacute" unicode="&#x15b;" horiz-adv-x="405" 
d="M211 -8c-86 0 -141 47 -164 102l34 15c22 -48 61 -82 130 -82c62 0 102 31 102 78c0 56 -39 70 -113 93c-69 20 -126 44 -126 117c0 60 54 102 122 102c63 0 104 -30 130 -77l-30 -18c-20 35 -53 61 -100 61c-52 0 -85 -27 -85 -66c0 -47 25 -62 105 -86
c74 -22 136 -49 136 -125c0 -65 -50 -114 -141 -114zM188 497l75 195h46l-88 -195h-33z" />
    <glyph glyph-name="scedilla" unicode="&#x15f;" horiz-adv-x="405" 
d="M207 -228c-48 0 -80 27 -94 58l30 18c11 -23 27 -43 63 -43c28 0 52 18 52 52c0 29 -18 55 -62 55h-15v82c-69 9 -114 51 -134 100l34 15c22 -48 61 -82 130 -82c62 0 102 31 102 78c0 56 -39 70 -113 93c-69 20 -126 44 -126 117c0 60 54 102 122 102
c63 0 104 -30 130 -77l-30 -18c-20 35 -53 61 -100 61c-52 0 -85 -27 -85 -66c0 -47 25 -62 105 -86c74 -22 136 -49 136 -125c0 -64 -48 -112 -135 -114v-51c41 -5 80 -36 80 -85c0 -55 -44 -84 -90 -84z" />
    <glyph glyph-name="scircumflex" unicode="&#x15d;" horiz-adv-x="405" 
d="M211 -8c-86 0 -141 47 -164 102l34 15c22 -48 61 -82 130 -82c62 0 102 31 102 78c0 56 -39 70 -113 93c-69 20 -126 44 -126 117c0 60 54 102 122 102c63 0 104 -30 130 -77l-30 -18c-20 35 -53 61 -100 61c-52 0 -85 -27 -85 -66c0 -47 25 -62 105 -86
c74 -22 136 -49 136 -125c0 -65 -50 -114 -141 -114zM87 504l113 182h9l113 -182h-35l-82 119l-83 -119h-35z" />
    <glyph glyph-name="scommaaccent" unicode="&#x219;" horiz-adv-x="405" 
d="M211 -8c-86 0 -141 47 -164 102l34 15c22 -48 61 -82 130 -82c62 0 102 31 102 78c0 56 -39 70 -113 93c-69 20 -126 44 -126 117c0 60 54 102 122 102c63 0 104 -30 130 -77l-30 -18c-20 35 -53 61 -100 61c-52 0 -85 -27 -85 -66c0 -47 25 -62 105 -86
c74 -22 136 -49 136 -125c0 -65 -50 -114 -141 -114zM163 -243l32 100c-14 3 -27 18 -27 36c0 22 19 40 39 40s39 -18 39 -40c0 -5 -2 -12 -5 -19l-53 -117h-25z" />
    <glyph glyph-name="tcaron" unicode="&#x165;" horiz-adv-x="337" 
d="M194 -8c-52 0 -94 33 -94 116v267h-64v33h64v143h39v-143h118v-33h-118v-266c0 -60 21 -82 55 -82c36 0 50 14 65 30l25 -24c-20 -23 -44 -41 -90 -41zM269 511l32 100c-14 3 -27 18 -27 36c0 22 19 40 39 40s39 -18 39 -40c0 -5 -2 -12 -5 -19l-53 -117h-25z" />
    <glyph glyph-name="uni021B" unicode="&#x21b;" horiz-adv-x="313" 
d="M194 -8v-51c41 -5 80 -36 80 -85c0 -55 -44 -84 -90 -84c-48 0 -80 27 -94 58l30 18c11 -23 27 -43 63 -43c28 0 52 18 52 52c0 29 -18 55 -62 55h-15v87c-34 12 -58 46 -58 109v267h-64v33h64v143h39v-143h118v-33h-118v-266c0 -60 21 -82 55 -82c36 0 50 14 65 30
l25 -24c-20 -23 -44 -41 -90 -41z" />
    <glyph glyph-name="tcommaaccent" unicode="&#x163;" horiz-adv-x="313" 
d="M194 -8c-52 0 -94 33 -94 116v267h-64v33h64v143h39v-143h118v-33h-118v-266c0 -60 21 -82 55 -82c36 0 50 14 65 30l25 -24c-20 -23 -44 -41 -90 -41zM136 -243l32 100c-14 3 -27 18 -27 36c0 22 19 40 39 40s39 -18 39 -40c0 -5 -2 -12 -5 -19l-53 -117h-25z" />
    <glyph glyph-name="ubreve" unicode="&#x16d;" horiz-adv-x="509" 
d="M232 -9c-91 0 -152 60 -152 160v257h39v-251c0 -83 39 -130 117 -130c88 0 150 59 150 153v228h39v-408h-39l1 90c-27 -61 -83 -99 -155 -99zM252 499c-68 0 -106 45 -117 105l35 7c11 -42 30 -77 82 -77s71 35 82 77l35 -7c-11 -60 -49 -105 -117 -105z" />
    <glyph glyph-name="uhungarumlaut" unicode="&#x171;" horiz-adv-x="509" 
d="M232 -9c-91 0 -152 60 -152 160v257h39v-251c0 -83 39 -130 117 -130c88 0 150 59 150 153v228h39v-408h-39l1 90c-27 -61 -83 -99 -155 -99zM295 507l75 195h46l-88 -195h-33zM178 507l75 195h46l-88 -195h-33z" />
    <glyph glyph-name="umacron" unicode="&#x16b;" horiz-adv-x="509" 
d="M232 -9c-91 0 -152 60 -152 160v257h39v-251c0 -83 39 -130 117 -130c88 0 150 59 150 153v228h39v-408h-39l1 90c-27 -61 -83 -99 -155 -99zM145 550v34h214v-34h-214z" />
    <glyph glyph-name="uogonek" unicode="&#x173;" horiz-adv-x="509" 
d="M386 -1l1 91c-27 -61 -83 -99 -155 -99c-91 0 -152 60 -152 160v257h39v-251c0 -83 39 -130 117 -130c88 0 150 59 150 153v228h39v-408l-33 -51c-24 -38 -38 -58 -38 -93c0 -34 24 -50 49 -50c29 0 45 19 58 41l30 -18c-14 -30 -42 -57 -90 -57c-44 0 -86 27 -86 82
c0 44 22 77 42 104z" />
    <glyph glyph-name="uring" unicode="&#x16f;" horiz-adv-x="509" 
d="M232 -9c-91 0 -152 60 -152 160v257h39v-251c0 -83 39 -130 117 -130c88 0 150 59 150 153v228h39v-408h-39l1 90c-27 -61 -83 -99 -155 -99zM252 488c-52 0 -94 41 -94 92s42 92 94 92s94 -41 94 -92s-42 -92 -94 -92zM252 519c34 0 58 24 58 61s-24 61 -58 61
s-58 -24 -58 -61s24 -61 58 -61z" />
    <glyph glyph-name="zacute" unicode="&#x17a;" horiz-adv-x="406" 
d="M36 0v10l274 364h-246v34h306v-11l-274 -363h274v-34h-334zM200 497l75 195h46l-88 -195h-33z" />
    <glyph glyph-name="zdotaccent" unicode="&#x17c;" horiz-adv-x="406" 
d="M36 0v10l274 364h-246v34h306v-11l-274 -363h274v-34h-334zM216 551c-17 0 -33 13 -33 33c0 19 16 33 33 33s33 -14 33 -33c0 -20 -16 -33 -33 -33z" />
    <glyph glyph-name="space.lining" horiz-adv-x="244" 
 />
    <glyph glyph-name="dollar.lining" horiz-adv-x="527" 
d="M239 -7c-111 8 -168 65 -202 135l35 17c32 -62 75 -110 167 -117v326l-15 7c-96 44 -148 91 -148 181c0 91 77 144 163 146v85h37v-87c74 -10 116 -52 143 -95l-32 -21c-22 35 -53 71 -111 80v-271l27 -12c113 -52 163 -108 163 -203c0 -101 -72 -168 -190 -172v-108h-37
v109zM239 653c-75 -1 -124 -42 -124 -110c0 -71 34 -105 124 -147v257zM276 27c95 4 151 56 151 137c0 80 -43 123 -140 168l-11 5v-310z" />
    <glyph glyph-name="cent.lining" horiz-adv-x="464" 
d="M236 -7c-106 12 -184 102 -184 211s78 200 184 211v108h34v-106c63 -3 111 -28 144 -69l-28 -23c-27 34 -62 54 -116 57v-355c58 3 97 26 124 61l28 -23c-36 -45 -84 -70 -152 -73v-108h-34v109zM236 380c-87 -10 -143 -83 -143 -176c0 -92 56 -165 143 -176v352z" />
    <glyph glyph-name="Euro.lining" horiz-adv-x="635" 
d="M375 -8c-139 0 -236 106 -262 262h-87v34h82c-2 17 -2 34 -2 52c0 19 1 37 3 55h-83v34h87c27 154 121 259 256 259c105 0 167 -51 208 -127l-32 -19c-41 70 -83 109 -176 109c-118 0 -191 -90 -214 -222h281v-34h-286c-1 -18 -2 -36 -2 -55c0 -18 0 -35 2 -52h286v-34
h-281c23 -138 103 -225 219 -225c108 0 155 61 190 129l33 -17c-35 -76 -98 -149 -222 -149z" />
    <glyph glyph-name="sterling.lining" horiz-adv-x="583" 
d="M178 278h-101v34h87c-23 56 -44 112 -44 180c0 110 81 196 202 196c96 0 157 -45 192 -120l-35 -17c-31 65 -76 100 -157 100c-98 0 -160 -68 -160 -159c0 -68 21 -124 42 -180h193v-34h-180c17 -47 32 -96 32 -153c0 -6 0 -12 -1 -18c46 -37 91 -78 161 -78
c53 0 77 19 104 55l31 -22c-34 -46 -70 -70 -135 -70c-72 0 -124 42 -171 79c-20 -46 -63 -79 -114 -79c-50 0 -98 30 -98 85s44 85 97 85c35 0 63 -12 89 -29c-2 53 -17 100 -34 145zM209 93c-28 20 -55 35 -85 35c-35 0 -62 -18 -62 -50c0 -34 27 -52 63 -52
c41 0 73 24 84 67z" />
    <glyph glyph-name="yen.lining" horiz-adv-x="578" 
d="M266 0v180h-213v33h213v37l-37 70h-176v33h158l-172 327h46l187 -356c7 -15 15 -37 16 -41c0 2 9 25 18 41l186 356h43l-173 -327h158v-33h-176l-37 -71v-36h213v-33h-213v-180h-41z" />
    <glyph glyph-name="florin.lining" horiz-adv-x="347" 
d="M64 -212l55 487h-72v33h76l29 262c10 86 51 118 104 118c48 0 72 -23 88 -51l-28 -20c-12 20 -26 36 -59 36c-36 0 -59 -16 -67 -84l-29 -261h98v-33h-102l-55 -487h-38z" />
    <glyph glyph-name="zero.lining" horiz-adv-x="626" 
d="M313 -8c-138 0 -261 112 -261 348s123 348 261 348s261 -112 261 -348s-123 -348 -261 -348zM313 29c117 0 219 91 219 311s-102 311 -219 311s-219 -91 -219 -311s102 -311 219 -311z" />
    <glyph glyph-name="one.lining" horiz-adv-x="297" 
d="M144 0v644h-105v36h146v-680h-41z" />
    <glyph glyph-name="two.lining" horiz-adv-x="519" 
d="M37 0v4l279 298c57 61 101 124 101 205c0 86 -54 144 -144 144c-82 0 -148 -48 -167 -146l-38 7c16 100 91 176 205 176c111 0 185 -73 185 -181c0 -90 -57 -166 -118 -232l-182 -194c-22 -24 -53 -49 -53 -49s37 4 65 4h295v-36h-428z" />
    <glyph glyph-name="three.lining" horiz-adv-x="540" 
d="M254 -8c-107 0 -189 55 -227 126l33 19c37 -65 101 -108 193 -108c127 0 201 75 201 183c0 111 -76 175 -201 175c-36 0 -59 -6 -77 -13l-3 5l193 233c14 17 36 37 36 37s-31 -5 -57 -5h-264v36h385v-4l-184 -221c-17 -20 -35 -36 -35 -36c151 8 248 -79 248 -207
s-96 -220 -241 -220z" />
    <glyph glyph-name="four.lining" horiz-adv-x="564" 
d="M413 0v139h-389v4l426 554h4v-522h70v-36h-70v-139h-41zM84 171c0 0 43 4 71 4h258v355c0 29 3 72 3 73c-1 -2 -23 -38 -42 -63l-241 -315c-18 -23 -49 -54 -49 -54z" />
    <glyph glyph-name="five.lining" horiz-adv-x="533" 
d="M252 -8c-97 0 -181 44 -224 118l34 21c36 -60 104 -102 190 -102c117 0 194 74 194 188c0 111 -68 179 -180 179c-74 0 -129 -27 -170 -66l-4 3v347h363v-36h-326v-251c35 24 80 39 137 39c132 0 222 -81 222 -215c0 -140 -99 -225 -236 -225z" />
    <glyph glyph-name="six.lining" horiz-adv-x="554" 
d="M277 -8c-133 0 -226 100 -226 224c0 57 18 102 52 150l223 314h45l-167 -233c-13 -18 -41 -51 -41 -51c35 27 75 45 119 45c129 0 221 -101 221 -225s-93 -224 -226 -224zM277 29c113 0 185 86 185 187c0 102 -70 189 -185 189c-113 0 -185 -85 -185 -189
c0 -101 72 -187 185 -187z" />
    <glyph glyph-name="seven.lining" horiz-adv-x="538" 
d="M117 0l329 644h-408v36h467v-4l-345 -676h-43z" />
    <glyph glyph-name="eight.lining" horiz-adv-x="556" 
d="M278 -8c-128 0 -229 75 -229 194c0 97 65 159 153 180c-73 19 -113 80 -113 154c0 91 73 168 189 168c117 0 191 -77 191 -168c0 -74 -41 -136 -114 -154c87 -22 152 -83 152 -180c0 -119 -99 -194 -229 -194zM278 30c113 0 187 59 187 156c0 98 -74 161 -187 161
c-111 0 -187 -63 -187 -161s76 -156 187 -156zM278 381c99 0 151 62 151 138c0 71 -52 133 -151 133c-98 0 -149 -62 -149 -133c0 -76 51 -138 149 -138z" />
    <glyph glyph-name="nine.lining" horiz-adv-x="554" 
d="M200 0l159 234c11 16 33 42 33 42c-37 -29 -76 -45 -121 -45c-131 0 -225 103 -225 229s95 228 230 228c136 0 231 -102 231 -228c0 -57 -21 -103 -54 -153l-208 -307h-45zM276 267c116 0 190 87 190 193c0 103 -71 191 -190 191c-117 0 -189 -88 -189 -191
s69 -193 189 -193z" />
    <glyph glyph-name="percent.lining" horiz-adv-x="747" 
d="M193 368c-84 0 -160 67 -160 160s76 160 160 160s160 -67 160 -160s-76 -160 -160 -160zM138 0l429 680h42l-429 -680h-42zM554 -8c-84 0 -160 67 -160 160s76 160 160 160s159 -67 159 -160s-75 -160 -159 -160zM193 403c66 0 121 51 121 125s-55 125 -121 125
c-67 0 -121 -51 -121 -125s54 -125 121 -125zM554 27c66 0 121 51 121 125c0 75 -55 125 -121 125c-67 0 -122 -50 -122 -125c0 -74 55 -125 122 -125z" />
    <glyph glyph-name="perthousand.lining" horiz-adv-x="1128" 
d="M193 368c-84 0 -160 67 -160 160s76 160 160 160s160 -67 160 -160s-76 -160 -160 -160zM138 0l429 680h42l-429 -680h-42zM936 -8c-84 0 -160 67 -160 160s76 160 160 160s159 -67 159 -160s-75 -160 -159 -160zM554 -8c-84 0 -160 67 -160 160s76 160 160 160
s159 -67 159 -160s-75 -160 -159 -160zM193 403c66 0 121 51 121 125s-55 125 -121 125c-67 0 -121 -51 -121 -125s54 -125 121 -125zM936 27c66 0 121 51 121 125c0 75 -55 125 -121 125c-67 0 -122 -50 -122 -125c0 -74 55 -125 122 -125zM554 27c66 0 121 51 121 125
c0 75 -55 125 -121 125c-67 0 -122 -50 -122 -125c0 -74 55 -125 122 -125z" />
    <glyph glyph-name="plus.lining" horiz-adv-x="395" 
d="M178 155v152h-139v36h139v152h38v-152h140v-36h-140v-152h-38z" />
    <glyph glyph-name="minus.lining" horiz-adv-x="395" 
d="M356 307h-317v36h317v-36z" />
    <glyph glyph-name="multiply.lining" horiz-adv-x="400" 
d="M200 299l-120 -120l-26 26l120 120l-120 120l26 26l120 -120l120 120l26 -26l-120 -120l120 -120l-26 -26z" />
    <glyph glyph-name="divide.lining" horiz-adv-x="395" 
d="M356 307h-317v36h317v-36zM197 427c-19 0 -39 17 -39 39s20 39 39 39c20 0 39 -17 39 -39s-19 -39 -39 -39zM197 145c-19 0 -39 17 -39 39s20 39 39 39c20 0 39 -17 39 -39s-19 -39 -39 -39z" />
    <glyph glyph-name="equal.lining" horiz-adv-x="395" 
d="M45 364v36h305v-36h-305zM45 231v36h305v-36h-305z" />
    <glyph glyph-name="less.lining" horiz-adv-x="388" 
d="M333 162l-291 157v10l291 154v-40l-227 -120l227 -121v-40z" />
    <glyph glyph-name="greater.lining" horiz-adv-x="388" 
d="M55 162v40l227 120l-227 121v40l291 -157v-10z" />
    <glyph glyph-name="degree.lining" horiz-adv-x="364" 
d="M183 437c-71 0 -128 55 -128 125c0 71 57 126 128 126s126 -55 126 -126c0 -70 -55 -125 -126 -125zM183 470c54 0 90 39 90 92s-36 93 -90 93c-55 0 -91 -40 -91 -93s36 -92 91 -92z" />
    <glyph glyph-name="period.lining" horiz-adv-x="180" 
d="M90 -7c-20 0 -40 18 -40 40c0 23 20 40 40 40c21 0 40 -17 40 -40c0 -22 -19 -40 -40 -40z" />
    <glyph glyph-name="comma.lining" horiz-adv-x="180" 
d="M40 -111l39 107c-16 4 -29 18 -29 37c0 22 20 40 40 40c21 0 40 -18 40 -40c0 -5 -2 -15 -4 -19l-61 -125h-25z" />
    <glyph glyph-name="colon.lining" horiz-adv-x="190" 
d="M95 214c-20 0 -40 18 -40 40c0 23 20 41 40 41c21 0 40 -18 40 -41c0 -22 -19 -40 -40 -40zM95 -7c-20 0 -40 18 -40 40c0 23 20 41 40 41c21 0 40 -18 40 -41c0 -22 -19 -40 -40 -40z" />
    <glyph glyph-name="semicolon.lining" horiz-adv-x="190" 
d="M95 214c-20 0 -40 18 -40 40c0 23 20 41 40 41c21 0 40 -18 40 -41c0 -22 -19 -40 -40 -40zM45 -111l39 107c-16 4 -29 18 -29 37c0 22 20 40 40 40c21 0 40 -18 40 -40c0 -5 -2 -15 -4 -19l-61 -125h-25z" />
    <glyph glyph-name="parenleft.lining" horiz-adv-x="261" 
d="M206 -136c-84 89 -165 226 -165 427c0 200 81 338 165 427l26 -23c-77 -88 -150 -214 -150 -404c0 -191 73 -316 150 -404z" />
    <glyph glyph-name="parenright.lining" horiz-adv-x="261" 
d="M55 -136l-26 23c77 88 149 214 149 404c0 191 -72 316 -149 404l26 23c83 -89 165 -226 165 -427c0 -200 -82 -338 -165 -427z" />
    <glyph glyph-name="bracketleft.lining" horiz-adv-x="290" 
d="M83 -128v850h168v-35h-128v-780h128v-35h-168z" />
    <glyph glyph-name="bracketright.lining" horiz-adv-x="290" 
d="M39 -128v35h128v780h-128v35h169v-850h-169z" />
    <glyph glyph-name="braceleft.lining" horiz-adv-x="345" 
d="M262 -128c-61 0 -121 25 -121 144v198c0 56 -22 71 -59 71h-57v35h57c37 0 59 15 59 71v187c0 119 60 144 121 144h44v-35h-43c-49 0 -82 -22 -82 -109v-190c0 -57 -23 -77 -52 -85c29 -7 52 -30 52 -86v-201c0 -87 33 -109 82 -109h43v-35h-44z" />
    <glyph glyph-name="braceright.lining" horiz-adv-x="344" 
d="M39 -128v35h43c49 0 81 22 81 109v201c0 57 23 78 53 85c-30 7 -53 30 -53 87v189c0 87 -32 109 -81 109h-43v35h44c60 0 120 -25 120 -144v-186c0 -56 23 -72 60 -72h56v-35h-56c-37 0 -60 -15 -60 -70v-199c0 -119 -60 -144 -120 -144h-44z" />
    <glyph glyph-name="section.lining" horiz-adv-x="543" 
d="M265 -180c-87 0 -157 48 -191 108l34 20c30 -54 81 -91 157 -91c95 0 135 49 135 119c0 65 -47 99 -115 129l-104 46c-98 43 -142 89 -142 167c0 54 31 98 83 125c-14 23 -22 51 -22 85c0 95 78 160 176 160c87 0 148 -48 175 -106l-33 -18c-25 49 -72 87 -142 87
c-82 0 -134 -50 -134 -123c0 -76 42 -106 110 -136l108 -48c104 -46 144 -94 144 -164c0 -54 -36 -96 -91 -118c18 -24 29 -52 29 -87c0 -86 -55 -155 -177 -155zM390 87c44 15 74 50 74 93c0 56 -34 90 -120 128l-108 48c-37 16 -71 36 -96 63c-39 -21 -61 -59 -61 -99
c0 -64 35 -96 118 -133l104 -46c35 -15 66 -33 89 -54z" />
    <glyph glyph-name="numbersign.lining" horiz-adv-x="431" 
d="M72 262l28 111h-72v34h80l31 124h-80v34h88l29 115h36l-29 -115h111l29 115h36l-29 -115h73v-34h-81l-31 -124h80v-34h-89l-27 -111h-37l28 111h-111l-27 -111h-36zM144 407h111l31 124h-111z" />
    <glyph glyph-name="space.tab" horiz-adv-x="200" 
 />
    <glyph glyph-name="dollar.tab" horiz-adv-x="520" 
d="M241 -6c-79 8 -142 50 -170 109l34 17c24 -53 74 -85 136 -92v218l-12 4c-83 25 -132 57 -132 134c0 73 69 114 144 119v107h34v-108c63 -7 115 -45 138 -90l-31 -17c-21 39 -55 67 -107 73v-193l19 -6c96 -29 143 -70 143 -144c0 -83 -60 -131 -162 -133v-112h-34v114z
M241 469c-58 -4 -105 -28 -105 -85c0 -60 32 -77 102 -98l3 -1v184zM275 26c82 2 123 36 123 99c0 60 -36 85 -113 108l-10 3v-210z" />
    <glyph glyph-name="cent.tab" horiz-adv-x="520" 
d="M264 -7c-106 12 -184 102 -184 211s78 200 184 211v108h34v-106c63 -3 111 -28 144 -69l-28 -23c-27 34 -62 54 -116 57v-355c58 3 97 26 124 61l28 -23c-36 -45 -84 -70 -152 -73v-108h-34v109zM264 380c-87 -10 -143 -83 -143 -176c0 -92 56 -165 143 -176v352z" />
    <glyph glyph-name="Euro.tab" horiz-adv-x="520" 
d="M87 287h-69v33h75c28 110 114 183 216 183c86 0 144 -33 184 -97l-32 -20c-36 58 -73 81 -152 81c-82 0 -149 -58 -173 -147h230v-33h-236c-2 -13 -3 -26 -3 -40c0 -15 1 -29 3 -42h236v-33h-229c25 -87 93 -144 172 -144c85 0 122 32 155 86l33 -20
c-38 -65 -101 -102 -188 -102c-98 0 -186 72 -215 180h-76v33h70c-2 14 -3 28 -3 42s1 27 2 40z" />
    <glyph glyph-name="sterling.tab" horiz-adv-x="520" 
d="M157 267h-94v33h80c-19 50 -37 101 -37 154c0 93 71 164 172 164c90 0 144 -51 170 -107l-32 -16c-30 56 -64 87 -138 87c-81 0 -131 -49 -131 -129c0 -52 17 -102 36 -153h167v-33h-154c20 -53 38 -108 38 -168v-2c39 -33 77 -69 130 -69c49 0 70 16 96 45l25 -25
c-30 -35 -59 -56 -121 -56c-58 0 -101 33 -139 66c-17 -38 -57 -66 -106 -66c-55 0 -91 35 -91 82s36 81 91 81c30 0 56 -13 80 -30c-5 48 -23 95 -42 142zM198 83c-26 23 -51 41 -79 41c-34 0 -56 -19 -56 -50s22 -51 56 -51c39 0 71 25 79 60z" />
    <glyph glyph-name="yen.tab" horiz-adv-x="520" 
d="M62 147v33h170l-47 84h-123v33h105l-109 198h46l131 -243c12 -22 21 -49 22 -51c1 4 10 30 22 51l140 243h42l-116 -198h102v-33h-122l-49 -84h171v-33h-172v-147h-41v147h-172z" />
    <glyph glyph-name="florin.tab" horiz-adv-x="520" 
d="M198 213h-102v33h105l26 228c11 100 64 144 127 144c62 0 95 -33 113 -69l-30 -18c-16 30 -34 52 -82 52c-46 0 -80 -30 -89 -110l-26 -227h140v-33h-144l-47 -425h-39z" />
    <glyph glyph-name="zero.tab" horiz-adv-x="520" 
d="M259 -8c-130 0 -214 107 -214 256c0 151 87 255 214 255c128 0 215 -104 215 -255c0 -149 -84 -256 -215 -256zM259 28c107 0 174 86 174 220c0 136 -67 219 -174 219s-173 -83 -173 -219c0 -134 66 -220 173 -220z" />
    <glyph glyph-name="one.tab" horiz-adv-x="520" 
d="M240 35v425h-136v35h176v-460h139v-35h-331v35h152z" />
    <glyph glyph-name="two.tab" horiz-adv-x="520" 
d="M57 0v7l205 174c72 61 117 114 117 176c0 75 -49 110 -115 110c-68 0 -117 -37 -142 -113l-35 10c23 86 90 139 177 139c89 0 155 -52 155 -146c0 -72 -51 -133 -130 -199l-112 -94c-18 -15 -41 -29 -45 -31c2 0 30 3 49 3h254v-36h-378z" />
    <glyph glyph-name="three.tab" horiz-adv-x="520" 
d="M252 -103c-92 0 -172 45 -207 125l34 17c33 -66 92 -106 173 -106c88 0 163 53 163 156c0 98 -64 146 -168 146c-33 0 -58 -8 -79 -17l-6 8l180 208c11 13 25 27 27 29c-1 0 -23 -3 -41 -3h-233v35h342v-4l-169 -194c-13 -16 -32 -28 -35 -29c129 8 223 -63 223 -179
c0 -124 -96 -192 -204 -192z" />
    <glyph glyph-name="four.tab" horiz-adv-x="520" 
d="M393 68h77v-37h-77v-125h-40v125h-320v7l352 469h8v-439zM353 68v295c0 20 3 54 3 54s-18 -30 -31 -48l-200 -266c-15 -20 -33 -37 -33 -37s27 2 46 2h215z" />
    <glyph glyph-name="five.tab" horiz-adv-x="520" 
d="M249 -103c-89 0 -156 40 -189 98l31 20c31 -50 81 -82 158 -82c98 0 165 61 165 158c0 96 -52 155 -159 155c-72 0 -116 -28 -147 -55l-7 2v302h322v-35h-286v-212c27 18 66 34 121 34c119 0 197 -77 197 -191c0 -116 -91 -194 -206 -194z" />
    <glyph glyph-name="six.tab" horiz-adv-x="520" 
d="M262 -8c-117 0 -204 82 -204 198c0 52 26 99 57 147l181 273h44l-144 -218c-11 -16 -33 -42 -38 -47c28 25 66 44 109 44c114 0 198 -84 198 -199c0 -110 -84 -198 -203 -198zM261 28c95 0 164 67 164 162c0 100 -62 163 -163 163c-99 0 -164 -74 -164 -163
c0 -95 63 -162 163 -162z" />
    <glyph glyph-name="seven.tab" horiz-adv-x="520" 
d="M127 -94l270 554h-332v35h386v-7l-283 -582h-41z" />
    <glyph glyph-name="eight.tab" horiz-adv-x="520" 
d="M259 -8c-115 0 -203 76 -203 183c0 85 55 146 135 167c-54 20 -91 65 -91 129c0 84 72 147 159 147c88 0 161 -63 161 -147c0 -64 -38 -109 -93 -129c81 -21 136 -82 136 -167c0 -107 -87 -183 -204 -183zM259 29c99 0 163 58 163 146c0 89 -64 148 -163 148
s-162 -59 -162 -148s63 -146 162 -146zM259 359c73 0 121 45 121 112c0 65 -48 112 -121 112c-74 0 -120 -47 -120 -112c0 -67 46 -112 120 -112z" />
    <glyph glyph-name="nine.tab" horiz-adv-x="520" 
d="M193 -94l133 198c11 16 34 44 37 48c-28 -26 -67 -45 -110 -45c-112 0 -198 86 -198 199c0 108 86 197 204 197c114 0 203 -85 203 -197c0 -52 -26 -99 -57 -147l-170 -253h-42zM258 143c100 0 164 74 164 163c0 95 -63 161 -162 161c-97 0 -165 -66 -165 -161
c0 -100 62 -163 163 -163z" />
    <glyph glyph-name="percent.tab" horiz-adv-x="750" 
d="M186 219c-75 0 -143 59 -143 142c0 82 68 142 143 142c74 0 142 -60 142 -142c0 -83 -68 -142 -142 -142zM201 0l308 495h40l-308 -495h-40zM564 -8c-75 0 -142 59 -142 142c0 82 67 142 142 142s142 -60 142 -142c0 -83 -67 -142 -142 -142zM186 252
c58 0 105 44 105 109s-47 108 -105 108s-106 -43 -106 -108s48 -109 106 -109zM564 25c58 0 105 44 105 109c0 64 -47 108 -105 108s-105 -44 -105 -108c0 -65 47 -109 105 -109z" />
    <glyph glyph-name="perthousand.tab" horiz-adv-x="1100" 
d="M194 219c-75 0 -143 59 -143 142c0 82 68 142 143 142c74 0 142 -60 142 -142c0 -83 -68 -142 -142 -142zM209 0l308 495h40l-308 -495h-40zM906 -8c-75 0 -142 59 -142 142c0 82 67 142 142 142s142 -60 142 -142c0 -83 -67 -142 -142 -142zM572 -8
c-75 0 -142 59 -142 142c0 82 67 142 142 142s142 -60 142 -142c0 -83 -67 -142 -142 -142zM194 252c58 0 105 44 105 109s-47 108 -105 108s-106 -43 -106 -108s48 -109 106 -109zM906 25c58 0 105 44 105 109c0 64 -47 108 -105 108s-105 -44 -105 -108
c0 -65 47 -109 105 -109zM572 25c58 0 105 44 105 109c0 64 -47 108 -105 108s-105 -44 -105 -108c0 -65 47 -109 105 -109z" />
    <glyph glyph-name="plus.tab" horiz-adv-x="520" 
d="M279 227v-162h-38v162h-149v36h149v162h38v-162h149v-36h-149z" />
    <glyph glyph-name="minus.tab" horiz-adv-x="520" 
d="M92 227v36h336v-36h-336z" />
    <glyph glyph-name="multiply.tab" horiz-adv-x="520" 
d="M261 218l-129 -129l-26 26l129 129l-129 129l26 26l129 -129l129 129l26 -26l-129 -129l129 -129l-26 -26z" />
    <glyph glyph-name="divide.tab" horiz-adv-x="520" 
d="M259 355c-19 0 -38 17 -38 38c0 22 19 38 38 38c20 0 38 -16 38 -38c0 -21 -18 -38 -38 -38zM91 227v36h337v-36h-337zM259 59c-19 0 -38 17 -38 38c0 22 19 38 38 38c20 0 38 -16 38 -38c0 -21 -18 -38 -38 -38z" />
    <glyph glyph-name="equal.tab" horiz-adv-x="520" 
d="M92 283v36h336v-36h-336zM92 170v36h336v-36h-336z" />
    <glyph glyph-name="less.tab" horiz-adv-x="520" 
d="M400 85l-308 154v10l308 152v-39l-243 -119l243 -120v-38z" />
    <glyph glyph-name="greater.tab" horiz-adv-x="520" 
d="M120 85v39l243 119l-243 120v38l308 -154v-10z" />
    <glyph glyph-name="degree.tab" horiz-adv-x="350" 
d="M175 294c-59 0 -106 46 -106 104c0 59 47 105 106 105c58 0 106 -46 106 -105c0 -58 -48 -104 -106 -104zM175 324c43 0 71 32 71 74c0 43 -28 75 -71 75s-72 -32 -72 -75c0 -42 29 -74 72 -74z" />
    <glyph glyph-name="period.tab" horiz-adv-x="200" 
d="M100 -7c-20 0 -40 18 -40 40c0 23 20 40 40 40c21 0 40 -17 40 -40c0 -22 -19 -40 -40 -40z" />
    <glyph glyph-name="comma.tab" horiz-adv-x="200" 
d="M50 -111l39 107c-16 4 -29 18 -29 37c0 22 20 40 40 40c21 0 40 -18 40 -40c0 -5 -2 -15 -4 -19l-61 -125h-25z" />
    <glyph glyph-name="colon.tab" horiz-adv-x="200" 
d="M100 214c-20 0 -40 18 -40 40c0 23 20 41 40 41c21 0 40 -18 40 -41c0 -22 -19 -40 -40 -40zM100 -7c-20 0 -40 18 -40 40c0 23 20 41 40 41c21 0 40 -18 40 -41c0 -22 -19 -40 -40 -40z" />
    <glyph glyph-name="semicolon.tab" horiz-adv-x="200" 
d="M100 214c-20 0 -40 18 -40 40c0 23 20 41 40 41c21 0 40 -18 40 -41c0 -22 -19 -40 -40 -40zM50 -111l39 107c-16 4 -29 18 -29 37c0 22 20 40 40 40c21 0 40 -18 40 -40c0 -5 -2 -15 -4 -19l-61 -125h-25z" />
    <glyph glyph-name="parenleft.tab" horiz-adv-x="300" 
d="M225 -136c-84 89 -165 226 -165 427c0 200 81 338 165 427l26 -23c-77 -88 -150 -214 -150 -404c0 -191 73 -316 150 -404z" />
    <glyph glyph-name="parenright.tab" horiz-adv-x="300" 
d="M74 -136l-26 23c77 88 149 214 149 404c0 191 -72 316 -149 404l26 23c83 -89 165 -226 165 -427c0 -200 -82 -338 -165 -427z" />
    <glyph glyph-name="bracketleft.tab" horiz-adv-x="300" 
d="M88 -128v850h168v-35h-128v-780h128v-35h-168z" />
    <glyph glyph-name="bracketright.tab" horiz-adv-x="300" 
d="M44 -128v35h128v780h-128v35h170v-850h-170z" />
    <glyph glyph-name="braceleft.tab" horiz-adv-x="300" 
d="M222 -128c-61 0 -121 25 -121 144v198c0 56 -22 71 -59 71h-40v35h40c37 0 59 15 59 71v187c0 119 60 144 121 144h34v-35h-33c-49 0 -82 -22 -82 -109v-190c0 -57 -23 -77 -52 -85c29 -7 52 -30 52 -86v-201c0 -87 33 -109 82 -109h33v-35h-34z" />
    <glyph glyph-name="braceright.tab" horiz-adv-x="300" 
d="M43 -128v35h33c49 0 82 22 82 109v201c0 56 23 79 52 86c-29 8 -52 28 -52 85v190c0 87 -33 109 -82 109h-33v35h34c61 0 121 -25 121 -144v-187c0 -56 22 -71 59 -71h40v-35h-40c-37 0 -59 -15 -59 -71v-198c0 -119 -60 -144 -121 -144h-34z" />
    <glyph glyph-name="section.tab" horiz-adv-x="520" 
d="M258 -103c-85 0 -148 45 -179 108l34 16c26 -53 74 -89 145 -89c70 0 113 39 113 96c0 52 -34 78 -102 105l-87 34c-90 35 -129 75 -129 144c0 47 27 85 76 108c-9 18 -15 40 -15 65c0 79 63 134 149 134c80 0 128 -44 152 -100l-34 -15c-21 45 -53 80 -118 80
c-64 0 -109 -35 -109 -98c0 -53 24 -83 87 -109l96 -39c94 -38 129 -82 129 -142c0 -45 -31 -80 -77 -98c14 -19 22 -42 22 -69c0 -75 -54 -131 -153 -131zM368 121c36 13 59 38 59 72c0 48 -22 74 -103 107l-96 39c-32 13 -62 31 -83 56c-36 -17 -52 -48 -52 -82
c0 -53 25 -79 101 -109l87 -34c34 -13 64 -29 87 -49z" />
    <glyph glyph-name="numbersign.tab" horiz-adv-x="520" 
d="M178 461h-90v34h98l29 115h36l-29 -115h121l29 115h36l-29 -115h83v-34h-91l-31 -124h90v-34h-99l-27 -111h-37l28 111h-121l-27 -111h-36l27 111h-81v34h90zM335 461h-121l-31 -124h120z" />
    <glyph glyph-name="space.tablining" horiz-adv-x="200" 
 />
    <glyph glyph-name="dollar.tablining" horiz-adv-x="580" 
d="M259 -7c-106 8 -170 68 -203 135l34 17c34 -62 80 -110 169 -117v328l-8 4c-99 48 -156 93 -156 182s75 142 164 146v85h39v-87c75 -8 121 -49 150 -94l-32 -21c-24 40 -56 73 -118 80v-272l27 -13c115 -56 170 -107 170 -202c0 -100 -76 -167 -197 -172v-108h-39v109z
M259 653c-75 -4 -125 -44 -125 -110c0 -69 41 -103 125 -145v255zM298 27c100 5 158 57 158 137s-48 120 -147 168l-11 5v-310z" />
    <glyph glyph-name="cent.tablining" horiz-adv-x="580" 
d="M294 -7c-106 12 -184 102 -184 211s78 200 184 211v108h34v-106c63 -3 111 -28 144 -69l-28 -23c-27 34 -62 54 -116 57v-355c58 3 97 26 124 61l28 -23c-36 -43 -85 -70 -152 -73v-108h-34v109zM294 380c-87 -10 -143 -83 -143 -176c0 -92 56 -165 143 -176v352z" />
    <glyph glyph-name="Euro.tablining" horiz-adv-x="580" 
d="M343 -8c-132 0 -222 107 -245 264h-79v34h75c-2 16 -2 33 -2 50c0 19 1 38 3 57h-76v34h80c24 153 110 257 237 257c99 0 154 -53 192 -130l-32 -16c-39 70 -72 109 -160 109c-110 0 -176 -89 -196 -220h251v-34h-255c-1 -19 -2 -38 -2 -57c0 -18 0 -34 2 -50h255v-34
h-251c20 -141 94 -227 202 -227c99 0 137 57 170 129l34 -15c-32 -78 -89 -151 -203 -151z" />
    <glyph glyph-name="sterling.tablining" horiz-adv-x="580" 
d="M181 278h-101v34h87c-22 55 -44 112 -44 180c0 110 76 196 196 196c94 0 153 -45 188 -120l-35 -17c-30 64 -73 100 -153 100c-97 0 -154 -65 -154 -159c0 -68 21 -124 42 -180h193v-34h-180c17 -47 32 -96 32 -153c0 -7 -1 -14 -2 -21c43 -35 86 -75 152 -75
c53 0 77 19 104 55l31 -22c-34 -46 -70 -70 -135 -70c-70 0 -118 40 -162 77c-20 -45 -63 -77 -113 -77s-98 30 -98 85s44 85 97 85c35 0 63 -13 89 -30c-1 54 -17 100 -34 146zM211 92c-26 21 -53 36 -84 36c-35 0 -62 -18 -62 -50c0 -34 27 -52 63 -52c41 0 73 23 83 66z
" />
    <glyph glyph-name="yen.tablining" horiz-adv-x="580" 
d="M65 180v33h203v37l-37 70h-166v33h148l-172 327h46l187 -356c7 -14 15 -37 16 -41c0 2 9 25 18 41l186 356h43l-173 -327h148v-33h-166l-37 -71v-36h203v-33h-203v-180h-41v180h-203z" />
    <glyph glyph-name="florin.tablining" horiz-adv-x="580" 
d="M235 275h-104v33h107l27 236c11 100 64 144 127 144c62 0 95 -33 113 -69l-30 -18c-16 30 -34 52 -82 52c-46 0 -80 -30 -89 -110l-27 -235h138v-33h-141l-55 -487h-39z" />
    <glyph glyph-name="zero.tablining" horiz-adv-x="580" 
d="M290 -8c-150 0 -238 143 -238 348s88 348 238 348s238 -143 238 -348s-88 -348 -238 -348zM290 29c129 0 196 125 196 311s-67 311 -196 311s-196 -125 -196 -311s67 -311 196 -311z" />
    <glyph glyph-name="one.tablining" horiz-adv-x="580" 
d="M298 0v644h-165v36h206v-680h-41z" />
    <glyph glyph-name="two.tablining" horiz-adv-x="580" 
d="M60 0v4l279 298c57 61 101 124 101 205c0 86 -54 144 -144 144c-82 0 -148 -48 -167 -146l-38 7c16 100 91 176 205 176c111 0 185 -73 185 -181c0 -90 -57 -166 -118 -232l-182 -194c-22 -24 -53 -49 -53 -49s37 4 65 4h295v-36h-428z" />
    <glyph glyph-name="three.tablining" horiz-adv-x="580" 
d="M274 -8c-107 0 -184 54 -222 126l33 18c37 -65 96 -107 188 -107c125 0 196 75 196 183c0 111 -71 175 -196 175c-36 0 -59 -6 -77 -13l-3 5l193 233c14 17 36 37 36 37s-31 -5 -57 -5h-264v36h385v-4l-184 -221c-17 -20 -35 -36 -35 -36c151 8 243 -79 243 -207
s-93 -220 -236 -220z" />
    <glyph glyph-name="four.tablining" horiz-adv-x="580" 
d="M442 175h76v-36h-76v-139h-41v139h-362v4l399 554h4v-522zM401 175v347c0 32 3 75 3 76c-1 -2 -21 -38 -40 -66l-219 -307c-17 -24 -45 -53 -45 -53s37 3 65 3h236z" />
    <glyph glyph-name="five.tablining" horiz-adv-x="580" 
d="M274 -8c-97 0 -173 43 -216 117l34 21c36 -60 96 -101 182 -101c117 0 190 74 190 188c0 111 -64 179 -176 179c-74 0 -129 -27 -170 -66l-4 3v347h357v-36h-320v-252c35 24 80 40 137 40c132 0 218 -81 218 -215c0 -140 -95 -225 -232 -225z" />
    <glyph glyph-name="six.tablining" horiz-adv-x="580" 
d="M290 -8c-133 0 -226 100 -226 224c0 57 18 102 52 150l223 314h45l-167 -233c-13 -18 -41 -51 -41 -51c35 27 75 45 119 45c129 0 221 -101 221 -225s-93 -224 -226 -224zM290 29c113 0 185 86 185 187c0 102 -70 189 -185 189c-113 0 -185 -85 -185 -189
c0 -101 72 -187 185 -187z" />
    <glyph glyph-name="seven.tablining" horiz-adv-x="580" 
d="M138 0l317 644h-386v36h444v-4l-332 -676h-43z" />
    <glyph glyph-name="eight.tablining" horiz-adv-x="580" 
d="M290 -8c-128 0 -229 75 -229 194c0 97 65 159 153 180c-73 19 -113 80 -113 154c0 91 73 168 189 168c117 0 191 -77 191 -168c0 -74 -41 -136 -114 -154c87 -22 152 -83 152 -180c0 -119 -99 -194 -229 -194zM290 30c113 0 187 59 187 156c0 98 -74 161 -187 161
c-111 0 -187 -63 -187 -161s76 -156 187 -156zM290 381c99 0 151 62 151 138c0 71 -52 133 -151 133c-98 0 -149 -62 -149 -133c0 -76 51 -138 149 -138z" />
    <glyph glyph-name="nine.tablining" horiz-adv-x="580" 
d="M213 0l159 234c11 16 33 42 33 42c-37 -29 -76 -45 -121 -45c-131 0 -225 103 -225 229s95 228 230 228c136 0 231 -102 231 -228c0 -57 -21 -103 -54 -153l-208 -307h-45zM289 267c116 0 190 87 190 193c0 103 -71 191 -190 191c-117 0 -189 -88 -189 -191
s69 -193 189 -193z" />
    <glyph glyph-name="percent.tablining" horiz-adv-x="800" 
d="M213 368c-84 0 -160 67 -160 160s76 160 160 160s160 -67 160 -160s-76 -160 -160 -160zM165 0l429 680h42l-429 -680h-42zM588 -8c-84 0 -160 67 -160 160s76 160 160 160s159 -67 159 -160s-75 -160 -159 -160zM213 403c66 0 121 51 121 125s-55 125 -121 125
c-67 0 -121 -51 -121 -125s54 -125 121 -125zM588 27c66 0 121 51 121 125c0 75 -55 125 -121 125c-67 0 -122 -50 -122 -125c0 -74 55 -125 122 -125z" />
    <glyph glyph-name="perthousand.tablining" horiz-adv-x="1160" 
d="M213 368c-84 0 -160 67 -160 160s76 160 160 160s160 -67 160 -160s-76 -160 -160 -160zM156 0l429 680h42l-429 -680h-42zM948 -8c-84 0 -160 67 -160 160s76 160 160 160s159 -67 159 -160s-75 -160 -159 -160zM570 -8c-84 0 -160 67 -160 160s76 160 160 160
s159 -67 159 -160s-75 -160 -159 -160zM213 403c66 0 121 51 121 125s-55 125 -121 125c-67 0 -121 -51 -121 -125s54 -125 121 -125zM948 27c66 0 121 51 121 125c0 75 -55 125 -121 125c-67 0 -122 -50 -122 -125c0 -74 55 -125 122 -125zM570 27c66 0 121 51 121 125
c0 75 -55 125 -121 125c-67 0 -122 -50 -122 -125c0 -74 55 -125 122 -125z" />
    <glyph glyph-name="plus.tablining" horiz-adv-x="580" 
d="M309 307v-172h-38v172h-160v36h160v172h38v-172h160v-36h-160z" />
    <glyph glyph-name="minus.tablining" horiz-adv-x="580" 
d="M111 307v36h357v-36h-357z" />
    <glyph glyph-name="multiply.tablining" horiz-adv-x="580" 
d="M290 299l-130 -130l-26 26l130 130l-130 130l26 26l130 -130l130 130l26 -26l-130 -130l130 -130l-26 -26z" />
    <glyph glyph-name="divide.tablining" horiz-adv-x="580" 
d="M289 427c-19 0 -39 17 -39 39s20 39 39 39c20 0 39 -17 39 -39s-19 -39 -39 -39zM111 307v36h357v-36h-357zM289 145c-19 0 -39 17 -39 39s20 39 39 39c20 0 39 -17 39 -39s-19 -39 -39 -39z" />
    <glyph glyph-name="equal.tablining" horiz-adv-x="580" 
d="M111 364v36h358v-36h-358zM111 231v36h358v-36h-358z" />
    <glyph glyph-name="less.tablining" horiz-adv-x="580" 
d="M449 142l-341 177v10l341 174v-39l-277 -141l277 -142v-39z" />
    <glyph glyph-name="greater.tablining" horiz-adv-x="580" 
d="M131 142v39l277 142l-277 141v39l341 -174v-10z" />
    <glyph glyph-name="degree.tablining" horiz-adv-x="364" 
d="M183 437c-71 0 -128 55 -128 125c0 71 57 126 128 126s126 -55 126 -126c0 -70 -55 -125 -126 -125zM183 470c54 0 90 39 90 92s-36 93 -90 93c-55 0 -91 -40 -91 -93s36 -92 91 -92z" />
    <glyph glyph-name="period.tablining" horiz-adv-x="200" 
d="M100 -7c-20 0 -40 18 -40 40c0 23 20 40 40 40c21 0 40 -17 40 -40c0 -22 -19 -40 -40 -40z" />
    <glyph glyph-name="comma.tablining" horiz-adv-x="200" 
d="M50 -111l39 107c-16 4 -29 18 -29 37c0 22 20 40 40 40c21 0 40 -18 40 -40c0 -5 -2 -15 -4 -19l-61 -125h-25z" />
    <glyph glyph-name="colon.tablining" horiz-adv-x="200" 
d="M100 214c-20 0 -40 18 -40 40c0 23 20 41 40 41c21 0 40 -18 40 -41c0 -22 -19 -40 -40 -40zM100 -7c-20 0 -40 18 -40 40c0 23 20 41 40 41c21 0 40 -18 40 -41c0 -22 -19 -40 -40 -40z" />
    <glyph glyph-name="semicolon.tablining" horiz-adv-x="200" 
d="M100 214c-20 0 -40 18 -40 40c0 23 20 41 40 41c21 0 40 -18 40 -41c0 -22 -19 -40 -40 -40zM50 -111l39 107c-16 4 -29 18 -29 37c0 22 20 40 40 40c21 0 40 -18 40 -40c0 -5 -2 -15 -4 -19l-61 -125h-25z" />
    <glyph glyph-name="parenleft.tablining" horiz-adv-x="300" 
d="M225 -136c-84 89 -165 226 -165 427c0 200 81 338 165 427l26 -23c-77 -88 -150 -214 -150 -404c0 -191 73 -316 150 -404z" />
    <glyph glyph-name="parenright.tablining" horiz-adv-x="300" 
d="M74 -136l-26 23c77 88 149 214 149 404c0 191 -72 316 -149 404l26 23c83 -89 165 -226 165 -427c0 -200 -82 -338 -165 -427z" />
    <glyph glyph-name="bracketleft.tablining" horiz-adv-x="300" 
d="M88 -128v850h168v-35h-128v-780h128v-35h-168z" />
    <glyph glyph-name="bracketright.tablining" horiz-adv-x="300" 
d="M44 -128v35h128v780h-128v35h169v-850h-169z" />
    <glyph glyph-name="braceleft.tablining" horiz-adv-x="300" 
d="M222 -128c-61 0 -121 25 -121 144v198c0 56 -22 71 -59 71h-40v35h40c37 0 59 15 59 71v187c0 119 60 144 121 144h34v-35h-33c-49 0 -82 -22 -82 -109v-190c0 -57 -23 -77 -52 -85c29 -7 52 -30 52 -86v-201c0 -87 33 -109 82 -109h33v-35h-34z" />
    <glyph glyph-name="braceright.tablining" horiz-adv-x="300" 
d="M43 -128v35h33c49 0 82 22 82 109v201c0 56 23 79 52 86c-29 8 -52 28 -52 85v190c0 87 -33 109 -82 109h-33v35h34c61 0 121 -25 121 -144v-187c0 -56 22 -71 59 -71h40v-35h-40c-37 0 -59 -15 -59 -71v-198c0 -119 -60 -144 -121 -144h-34z" />
    <glyph glyph-name="section.tablining" horiz-adv-x="580" 
d="M140 443c-14 23 -22 51 -22 85c0 95 78 160 176 160c92 0 150 -47 175 -106l-34 -17c-25 52 -67 86 -141 86c-82 0 -134 -50 -134 -123c0 -76 42 -106 110 -136l108 -48c104 -46 144 -94 144 -164c0 -54 -36 -96 -91 -118c18 -24 29 -52 29 -87c0 -88 -53 -155 -175 -155
c-88 0 -158 45 -193 108l34 20c30 -57 82 -91 159 -91c94 0 133 49 133 119c0 65 -47 99 -115 129l-104 46c-98 43 -142 89 -142 167c0 54 31 98 83 125zM408 87c44 15 74 50 74 93c0 56 -34 90 -120 128l-108 48c-37 16 -71 36 -96 63c-39 -21 -61 -59 -61 -99
c0 -64 35 -96 118 -133l104 -46c35 -15 66 -33 89 -54z" />
    <glyph glyph-name="numbersign.tablining" horiz-adv-x="580" 
d="M208 531h-100v34h108l29 115h36l-29 -115h121l29 115h36l-29 -115h93v-34h-102l-33 -134h100v-34h-108l-28 -111h-37l28 111h-120l-28 -111h-36l28 111h-92v34h100zM365 531h-122l-33 -134h121z" />
    <glyph glyph-name="zero.numerator" horiz-adv-x="453" 
d="M227 239c-111 0 -185 93 -185 224s74 224 185 224s184 -93 184 -224s-73 -224 -184 -224zM227 272c92 0 146 81 146 191s-54 191 -146 191s-147 -81 -147 -191s55 -191 147 -191z" />
    <glyph glyph-name="one.numerator" horiz-adv-x="217" 
d="M103 247v401h-84v32h121v-433h-37z" />
    <glyph glyph-name="two.numerator" horiz-adv-x="359" 
d="M22 247v8l185 181c40 39 67 81 67 131c0 51 -29 87 -88 87c-55 0 -88 -32 -105 -86l-34 9c19 68 68 110 140 110c74 0 124 -52 124 -120c0 -57 -33 -106 -81 -153l-97 -95c-14 -15 -49 -42 -53 -44c2 0 43 4 61 4h173v-32h-292z" />
    <glyph glyph-name="three.numerator" horiz-adv-x="358" 
d="M167 239c-72 0 -126 37 -152 86l31 17c22 -40 61 -69 120 -69c75 0 116 43 116 110c0 68 -46 105 -126 105c-23 0 -41 -5 -53 -11l-5 7l119 137c10 11 33 30 33 30s-31 -3 -47 -3h-151v32h254v-3l-112 -129c-13 -15 -31 -28 -34 -30c96 1 160 -51 160 -135
c0 -89 -61 -144 -153 -144z" />
    <glyph glyph-name="four.numerator" horiz-adv-x="369" 
d="M261 247v84h-247v8l276 346h8v-323h46v-31h-46v-84h-37zM63 359c0 0 48 3 67 3h131v182c0 37 3 69 3 69s-16 -31 -38 -59l-112 -141c-13 -17 -51 -54 -51 -54z" />
    <glyph glyph-name="five.numerator" horiz-adv-x="354" 
d="M165 239c-69 0 -123 35 -150 87l30 17c24 -44 60 -70 120 -70c70 0 114 43 114 111c0 73 -45 111 -117 111c-44 0 -77 -15 -103 -38l-6 3v220h235v-32h-202v-143c21 14 49 22 80 22c89 0 150 -55 150 -143c0 -91 -61 -145 -151 -145z" />
    <glyph glyph-name="six.numerator" horiz-adv-x="387" 
d="M197 239c-88 0 -155 68 -155 148c0 37 14 70 36 101l136 192h41l-84 -119c-17 -24 -50 -59 -50 -59c25 19 52 32 82 32c87 0 148 -67 148 -147s-63 -148 -154 -148zM197 272c73 0 117 55 117 115c0 61 -43 116 -117 116c-71 0 -118 -53 -118 -116c0 -60 45 -115 118 -115
z" />
    <glyph glyph-name="seven.numerator" horiz-adv-x="361" 
d="M68 247l209 401h-245v32h296v-8l-220 -425h-40z" />
    <glyph glyph-name="eight.numerator" horiz-adv-x="374" 
d="M186 241c-81 0 -146 48 -146 123c0 61 40 101 94 115c-46 14 -70 49 -70 96c0 62 54 110 122 110c69 0 124 -48 124 -110c0 -50 -25 -82 -71 -96c56 -14 95 -54 95 -115c0 -75 -65 -123 -148 -123zM186 274c68 0 110 34 110 92c0 59 -43 95 -110 95
c-65 0 -109 -36 -109 -95c0 -58 41 -92 109 -92zM186 492c57 0 88 34 88 81c0 46 -31 80 -88 80c-55 0 -86 -34 -86 -80c0 -47 31 -81 86 -81z" />
    <glyph glyph-name="nine.numerator" horiz-adv-x="387" 
d="M132 247l84 119c17 24 50 59 50 59c-25 -19 -52 -32 -82 -32c-87 0 -148 67 -148 147s63 148 154 148c88 0 155 -68 155 -148c0 -37 -14 -70 -36 -101l-136 -192h-41zM190 424c71 0 118 53 118 116c0 60 -45 115 -118 115s-117 -55 -117 -115c0 -61 43 -116 117 -116z
" />
    <glyph glyph-name="zero.denominator" horiz-adv-x="453" 
d="M227 -8c-111 0 -185 93 -185 224s74 224 185 224s184 -93 184 -224s-73 -224 -184 -224zM227 25c92 0 146 81 146 191s-54 191 -146 191s-147 -81 -147 -191s55 -191 147 -191z" />
    <glyph glyph-name="one.denominator" horiz-adv-x="217" 
d="M103 0v401h-84v32h121v-433h-37z" />
    <glyph glyph-name="two.denominator" horiz-adv-x="359" 
d="M22 0v8l185 181c40 39 67 81 67 131c0 51 -29 87 -88 87c-55 0 -88 -32 -105 -86l-34 9c19 68 68 110 140 110c74 0 124 -52 124 -120c0 -57 -33 -106 -81 -153l-97 -95c-14 -15 -49 -42 -53 -44c2 0 43 4 61 4h173v-32h-292z" />
    <glyph glyph-name="three.denominator" horiz-adv-x="358" 
d="M167 -8c-72 0 -126 37 -152 86l31 17c22 -40 61 -69 120 -69c75 0 116 43 116 110c0 68 -46 105 -126 105c-23 0 -41 -5 -53 -11l-5 7l119 137c10 11 33 30 33 30s-31 -3 -47 -3h-151v32h254v-3l-112 -129c-13 -15 -31 -28 -34 -30c96 1 160 -51 160 -135
c0 -89 -61 -144 -153 -144z" />
    <glyph glyph-name="four.denominator" horiz-adv-x="369" 
d="M261 0v84h-247v8l276 346h8v-323h46v-31h-46v-84h-37zM63 112c0 0 48 3 67 3h131v182c0 37 3 69 3 69s-16 -31 -38 -59l-112 -141c-13 -17 -51 -54 -51 -54z" />
    <glyph glyph-name="five.denominator" horiz-adv-x="354" 
d="M165 -8c-69 0 -123 35 -150 87l30 17c24 -44 60 -70 120 -70c70 0 114 43 114 111c0 73 -45 111 -117 111c-44 0 -77 -15 -103 -38l-6 3v220h235v-32h-202v-143c21 14 49 22 80 22c89 0 150 -55 150 -143c0 -91 -61 -145 -151 -145z" />
    <glyph glyph-name="six.denominator" horiz-adv-x="387" 
d="M197 -8c-88 0 -155 68 -155 148c0 37 14 70 36 101l136 192h41l-84 -119c-17 -24 -50 -59 -50 -59c25 19 52 32 82 32c87 0 148 -67 148 -147s-63 -148 -154 -148zM197 25c73 0 117 55 117 115c0 61 -43 116 -117 116c-71 0 -118 -53 -118 -116c0 -60 45 -115 118 -115z
" />
    <glyph glyph-name="seven.denominator" horiz-adv-x="361" 
d="M68 0l209 401h-245v32h296v-8l-220 -425h-40z" />
    <glyph glyph-name="eight.denominator" horiz-adv-x="374" 
d="M186 -6c-81 0 -146 48 -146 123c0 61 40 101 94 115c-46 14 -70 49 -70 96c0 62 54 110 122 110c69 0 124 -48 124 -110c0 -50 -25 -82 -71 -96c56 -14 95 -54 95 -115c0 -75 -65 -123 -148 -123zM186 27c68 0 110 34 110 92c0 59 -43 95 -110 95
c-65 0 -109 -36 -109 -95c0 -58 41 -92 109 -92zM186 245c57 0 88 34 88 81c0 46 -31 80 -88 80c-55 0 -86 -34 -86 -80c0 -47 31 -81 86 -81z" />
    <glyph glyph-name="nine.denominator" horiz-adv-x="387" 
d="M132 0l84 119c17 24 50 59 50 59c-25 -19 -52 -32 -82 -32c-87 0 -148 67 -148 147s63 148 154 148c88 0 155 -68 155 -148c0 -37 -14 -70 -36 -101l-136 -192h-41zM190 177c71 0 118 53 118 116c0 60 -45 115 -118 115s-117 -55 -117 -115c0 -61 43 -116 117 -116z" />
    <glyph glyph-name="zero.subscript" horiz-adv-x="383" 
d="M192 -256c-94 0 -157 79 -157 190s63 190 157 190s156 -79 156 -190s-62 -190 -156 -190zM192 -228c78 0 124 68 124 162s-46 162 -124 162s-125 -68 -125 -162s47 -162 125 -162z" />
    <glyph glyph-name="one.subscript" horiz-adv-x="184" 
d="M88 -250v341h-72v27h103v-368h-31z" />
    <glyph glyph-name="two.subscript" horiz-adv-x="304" 
d="M18 -250v7l157 154c34 33 57 68 57 111s-25 74 -75 74c-47 0 -75 -27 -89 -73l-29 8c16 58 58 93 119 93c63 0 105 -44 105 -102c0 -48 -27 -90 -68 -130l-83 -81c-12 -13 -45 -37 -45 -37s37 3 52 3h147v-27h-248z" />
    <glyph glyph-name="three.subscript" horiz-adv-x="303" 
d="M141 -257c-61 0 -107 32 -129 73l26 15c19 -34 52 -59 102 -59c64 0 99 37 99 94s-39 89 -107 89c-20 0 -35 -4 -45 -10l-5 6l102 117c8 9 28 25 28 25s-27 -2 -40 -2h-129v27h216v-3l-95 -109c-11 -13 -27 -24 -29 -26c82 1 136 -43 136 -114c0 -76 -52 -123 -130 -123z
" />
    <glyph glyph-name="four.subscript" horiz-adv-x="312" 
d="M221 -250v71h-210v7l235 294h6v-274h39v-27h-39v-71h-31zM53 -155c0 0 41 3 57 3h111v154c0 30 2 57 2 58c-1 -1 -14 -26 -32 -49l-95 -120c-11 -14 -43 -46 -43 -46z" />
    <glyph glyph-name="five.subscript" horiz-adv-x="300" 
d="M139 -257c-59 0 -105 30 -128 74l26 14c20 -37 51 -59 102 -59c59 0 97 36 97 94c0 62 -39 95 -100 95c-37 0 -65 -13 -88 -33l-5 3v187h200v-27h-172v-122c18 12 42 19 68 19c76 0 128 -47 128 -122c0 -77 -52 -123 -128 -123z" />
    <glyph glyph-name="six.subscript" horiz-adv-x="327" 
d="M166 -257c-75 0 -131 58 -131 126c0 31 11 60 30 86l116 163h35l-72 -101c-14 -20 -42 -50 -42 -50c21 16 44 27 70 27c74 0 125 -57 125 -125s-54 -126 -131 -126zM166 -229c62 0 100 47 100 98c0 52 -37 99 -100 99c-60 0 -100 -45 -100 -99c0 -51 38 -98 100 -98z" />
    <glyph glyph-name="seven.subscript" horiz-adv-x="307" 
d="M58 -250l177 341h-208v27h252v-7l-187 -361h-34z" />
    <glyph glyph-name="eight.subscript" horiz-adv-x="310" 
d="M154 -255c-69 0 -124 41 -124 105c0 52 34 86 80 98c-39 12 -60 41 -60 81c0 53 46 94 104 94c59 0 106 -41 106 -94c0 -42 -22 -69 -61 -81c48 -12 81 -46 81 -98c0 -64 -55 -105 -126 -105zM154 -227c58 0 94 29 94 79s-37 80 -94 80c-55 0 -93 -30 -93 -80
s35 -79 93 -79zM154 -41c49 0 75 29 75 69c0 39 -26 68 -75 68c-47 0 -73 -29 -73 -68c0 -40 26 -69 73 -69z" />
    <glyph glyph-name="nine.subscript" horiz-adv-x="327" 
d="M111 -250l72 101c14 20 42 50 42 50c-21 -16 -44 -27 -70 -27c-74 0 -125 57 -125 125s54 126 131 126c75 0 131 -58 131 -126c0 -31 -11 -60 -30 -86l-116 -163h-35zM161 -100c60 0 100 45 100 99c0 51 -38 98 -100 98s-100 -47 -100 -98c0 -52 37 -99 100 -99z" />
    <glyph glyph-name="zero.superscript" horiz-adv-x="383" 
d="M192 306c-94 0 -157 79 -157 190s63 190 157 190s156 -79 156 -190s-62 -190 -156 -190zM192 334c78 0 124 68 124 162s-46 162 -124 162s-125 -68 -125 -162s47 -162 125 -162z" />
    <glyph glyph-name="one.superscript" horiz-adv-x="184" 
d="M88 312v341h-72v27h103v-368h-31z" />
    <glyph glyph-name="two.superscript" horiz-adv-x="304" 
d="M18 312v7l157 154c34 33 57 68 57 111s-25 74 -75 74c-47 0 -75 -27 -89 -73l-29 7c16 58 58 94 119 94c63 0 105 -44 105 -102c0 -48 -27 -90 -68 -130l-83 -81c-12 -13 -45 -37 -45 -37s37 3 52 3h147v-27h-248z" />
    <glyph glyph-name="three.superscript" horiz-adv-x="303" 
d="M141 305c-61 0 -107 32 -129 73l26 15c19 -34 52 -59 102 -59c64 0 99 37 99 94s-39 89 -107 89c-20 0 -35 -4 -45 -10l-5 6l102 117c8 9 28 25 28 25s-27 -2 -40 -2h-129v27h216v-3l-95 -109c-11 -13 -27 -25 -29 -26c82 1 136 -43 136 -114c0 -76 -52 -123 -130 -123z
" />
    <glyph glyph-name="four.superscript" horiz-adv-x="312" 
d="M221 312v71h-210v7l235 294h6v-274h39v-27h-39v-71h-31zM53 407c0 0 41 3 57 3h111v154c0 30 2 57 2 58c-1 -1 -14 -26 -32 -49l-95 -120c-11 -14 -43 -46 -43 -46z" />
    <glyph glyph-name="five.superscript" horiz-adv-x="300" 
d="M139 305c-59 0 -105 30 -128 74l26 14c20 -37 51 -59 102 -59c59 0 97 36 97 94c0 62 -39 95 -100 95c-37 0 -65 -13 -88 -33l-5 3v187h200v-27h-172v-122c18 12 42 19 68 19c76 0 128 -47 128 -122c0 -77 -52 -123 -128 -123z" />
    <glyph glyph-name="six.superscript" horiz-adv-x="327" 
d="M166 305c-75 0 -131 58 -131 126c0 31 11 60 30 86l116 163h35l-72 -101c-14 -20 -42 -50 -42 -50c21 16 44 27 70 27c74 0 125 -57 125 -125s-54 -126 -131 -126zM166 333c62 0 100 47 100 98c0 52 -37 99 -100 99c-60 0 -100 -45 -100 -99c0 -51 38 -98 100 -98z" />
    <glyph glyph-name="seven.superscript" horiz-adv-x="307" 
d="M58 312l177 341h-208v27h252v-7l-187 -361h-34z" />
    <glyph glyph-name="eight.superscript" horiz-adv-x="310" 
d="M154 306c-69 0 -124 41 -124 105c0 52 34 86 80 98c-39 12 -60 41 -60 81c0 53 46 94 104 94c59 0 106 -41 106 -94c0 -42 -22 -69 -61 -81c48 -12 81 -46 81 -98c0 -64 -55 -105 -126 -105zM154 334c58 0 94 29 94 79s-37 80 -94 80c-55 0 -93 -30 -93 -80
s35 -79 93 -79zM154 520c49 0 75 29 75 69c0 39 -26 68 -75 68c-47 0 -73 -29 -73 -68c0 -40 26 -69 73 -69z" />
    <glyph glyph-name="nine.superscript" horiz-adv-x="327" 
d="M111 312l72 101c14 20 42 50 42 50c-21 -16 -44 -27 -70 -27c-74 0 -125 57 -125 125s54 126 131 126c75 0 131 -58 131 -126c0 -31 -11 -60 -30 -86l-116 -163h-35zM161 462c60 0 100 45 100 99c0 51 -38 98 -100 98s-100 -47 -100 -98c0 -52 37 -99 100 -99z" />
    <glyph glyph-name="G.alt" horiz-adv-x="787" 
d="M406 -8c-192 0 -349 143 -349 348s156 348 348 348c115 0 219 -44 276 -135l-31 -23c-52 81 -138 121 -245 121c-175 0 -306 -133 -306 -311s132 -311 307 -311c178 0 272 109 288 234h-276v36h321c-9 -184 -138 -307 -333 -307z" />
    <glyph glyph-name="M.alt" horiz-adv-x="838" 
d="M69 0l84 689h8l231 -441c15 -27 27 -61 27 -61s12 34 27 61l232 441h7l84 -689h-41l-62 509c-4 34 -5 87 -5 88c-2 -4 -16 -45 -33 -79l-207 -394h-7l-205 395c-16 31 -32 75 -33 79c0 -1 -1 -54 -5 -88l-62 -510h-40z" />
    <glyph glyph-name="Q.alt1" horiz-adv-x="810" 
d="M424 -8v-156h-38v156c-183 9 -329 148 -329 348c0 207 156 348 348 348s348 -141 348 -348c0 -200 -146 -339 -329 -348zM386 29v154h38v-154c165 9 287 139 287 311c0 178 -131 311 -306 311s-306 -133 -306 -311c0 -172 122 -302 287 -311z" />
    <glyph glyph-name="Q.alt2" horiz-adv-x="810" 
d="M413 -5c9 -5 18 -11 26 -17c42 -29 86 -59 154 -59c56 0 89 25 109 46l29 -27c-24 -26 -67 -57 -138 -57c-76 0 -134 39 -178 70c-48 33 -101 69 -167 69c-59 0 -102 -34 -129 -76l-28 22c24 36 62 73 122 83c-94 59 -156 162 -156 291c0 207 156 348 348 348
s348 -141 348 -348c0 -203 -152 -341 -340 -345zM405 30c175 0 306 132 306 310s-131 311 -306 311s-306 -133 -306 -311s131 -310 306 -310z" />
    <glyph glyph-name="a.alt" horiz-adv-x="549" 
d="M252 -8c-115 0 -200 93 -200 213s85 212 200 212c83 0 144 -46 174 -110l-1 101h39v-408h-39l1 101c-30 -62 -94 -109 -174 -109zM258 27c101 0 169 76 169 176c0 101 -68 179 -169 179s-165 -76 -165 -177s64 -178 165 -178z" />
    <glyph glyph-name="g.alt" horiz-adv-x="462" 
d="M286 408h145v-33h-92c28 -25 44 -59 44 -100c0 -83 -63 -143 -153 -143c-31 0 -58 6 -81 19c-32 -5 -48 -25 -48 -49c0 -31 22 -46 59 -49l106 -10c118 -11 171 -47 171 -124c0 -90 -91 -142 -213 -142c-123 0 -204 49 -204 134c0 62 44 96 106 114c-40 11 -60 39 -60 73
s23 62 56 72c-30 25 -48 62 -48 105c0 83 66 142 156 142c19 0 39 -3 56 -9zM230 165c71 0 115 44 115 110s-44 109 -115 109c-73 0 -117 -43 -117 -109s44 -110 117 -110zM175 14c-66 -13 -115 -44 -115 -102c0 -65 57 -101 164 -101c99 0 174 37 174 108
c0 56 -31 81 -137 89z" />
    <glyph glyph-name="u.alt" horiz-adv-x="502" 
d="M251 -8c-103 0 -171 67 -171 187v229h39v-226c0 -99 40 -154 132 -154s132 55 132 154v226h39v-229c0 -120 -68 -187 -171 -187z" />
    <glyph glyph-name="Gbreve.alt" horiz-adv-x="787" 
d="M406 -8c-192 0 -349 143 -349 348s156 348 348 348c115 0 219 -44 276 -135l-31 -23c-52 81 -138 121 -245 121c-175 0 -306 -133 -306 -311s132 -311 307 -311c178 0 272 109 288 234h-276v36h321c-9 -184 -138 -307 -333 -307zM397 757c-68 0 -106 45 -117 105l35 7
c11 -42 30 -77 82 -77s71 35 82 77l35 -7c-11 -60 -49 -105 -117 -105z" />
    <glyph glyph-name="Gcircumflex.alt" horiz-adv-x="787" 
d="M406 -8c-192 0 -349 143 -349 348s156 348 348 348c115 0 219 -44 276 -135l-31 -23c-52 81 -138 121 -245 121c-175 0 -306 -133 -306 -311s132 -311 307 -311c178 0 272 109 288 234h-276v36h321c-9 -184 -138 -307 -333 -307zM280 762l113 182h9l113 -182h-35l-82 119
l-83 -119h-35z" />
    <glyph glyph-name="Gcommaaccent.alt" horiz-adv-x="787" 
d="M406 -8c-192 0 -349 143 -349 348s156 348 348 348c115 0 219 -44 276 -135l-31 -23c-52 81 -138 121 -245 121c-175 0 -306 -133 -306 -311s132 -311 307 -311c178 0 272 109 288 234h-276v36h321c-9 -184 -138 -307 -333 -307zM356 -243l32 100c-14 3 -27 18 -27 36
c0 22 19 40 39 40s39 -18 39 -40c0 -5 -2 -12 -5 -19l-53 -117h-25z" />
    <glyph glyph-name="Gdotaccent.alt" horiz-adv-x="787" 
d="M406 -8c-192 0 -349 143 -349 348s156 348 348 348c115 0 219 -44 276 -135l-31 -23c-52 81 -138 121 -245 121c-175 0 -306 -133 -306 -311s132 -311 307 -311c178 0 272 109 288 234h-276v36h321c-9 -184 -138 -307 -333 -307zM397 769c-17 0 -33 13 -33 33
c0 19 16 33 33 33s33 -14 33 -33c0 -20 -16 -33 -33 -33z" />
    <glyph glyph-name="aacute.alt" horiz-adv-x="549" 
d="M252 -8c-115 0 -200 93 -200 213s85 212 200 212c83 0 144 -46 174 -110l-1 101h39v-408h-39l1 101c-30 -62 -94 -109 -174 -109zM258 27c101 0 169 76 169 176c0 101 -68 179 -169 179s-165 -76 -165 -177s64 -178 165 -178zM253 497l75 195h46l-88 -195h-33z" />
    <glyph glyph-name="abreve.alt" horiz-adv-x="549" 
d="M252 -8c-115 0 -200 93 -200 213s85 212 200 212c83 0 144 -46 174 -110l-1 101h39v-408h-39l1 101c-30 -62 -94 -109 -174 -109zM258 27c101 0 169 76 169 176c0 101 -68 179 -169 179s-165 -76 -165 -177s64 -178 165 -178zM269 499c-68 0 -106 45 -117 105l35 7
c11 -42 30 -77 82 -77s71 35 82 77l35 -7c-11 -60 -49 -105 -117 -105z" />
    <glyph glyph-name="acircumflex.alt" horiz-adv-x="549" 
d="M252 -8c-115 0 -200 93 -200 213s85 212 200 212c83 0 144 -46 174 -110l-1 101h39v-408h-39l1 101c-30 -62 -94 -109 -174 -109zM258 27c101 0 169 76 169 176c0 101 -68 179 -169 179s-165 -76 -165 -177s64 -178 165 -178zM152 504l113 182h9l113 -182h-35l-82 119
l-83 -119h-35z" />
    <glyph glyph-name="adieresis.alt" horiz-adv-x="549" 
d="M252 -8c-115 0 -200 93 -200 213s85 212 200 212c83 0 144 -46 174 -110l-1 101h39v-408h-39l1 101c-30 -62 -94 -109 -174 -109zM258 27c101 0 169 76 169 176c0 101 -68 179 -169 179s-165 -76 -165 -177s64 -178 165 -178zM345 551c-17 0 -32 14 -32 32s15 32 32 32
s32 -14 32 -32s-15 -32 -32 -32zM193 551c-17 0 -32 14 -32 32s15 32 32 32s32 -14 32 -32s-15 -32 -32 -32z" />
    <glyph glyph-name="agrave.alt" horiz-adv-x="549" 
d="M252 -8c-115 0 -200 93 -200 213s85 212 200 212c83 0 144 -46 174 -110l-1 101h39v-408h-39l1 101c-30 -62 -94 -109 -174 -109zM258 27c101 0 169 76 169 176c0 101 -68 179 -169 179s-165 -76 -165 -177s64 -178 165 -178zM251 497l-88 195h46l75 -195h-33z" />
    <glyph glyph-name="amacron.alt" horiz-adv-x="549" 
d="M252 -8c-115 0 -200 93 -200 213s85 212 200 212c83 0 144 -46 174 -110l-1 101h39v-408h-39l1 101c-30 -62 -94 -109 -174 -109zM258 27c101 0 169 76 169 176c0 101 -68 179 -169 179s-165 -76 -165 -177s64 -178 165 -178zM162 550v34h214v-34h-214z" />
    <glyph glyph-name="aogonek.alt" horiz-adv-x="549" 
d="M464 0l-33 -51c-24 -38 -38 -58 -38 -93c0 -34 24 -50 49 -50c29 0 45 19 58 41l30 -18c-14 -30 -42 -57 -90 -57c-44 0 -86 27 -86 82c0 44 22 77 42 104l29 41l1 102c-30 -62 -94 -109 -174 -109c-115 0 -200 93 -200 213s85 212 200 212c83 0 144 -46 174 -110l-1 101
h39v-408zM258 27c101 0 169 76 169 176c0 101 -68 179 -169 179s-165 -76 -165 -177s64 -178 165 -178z" />
    <glyph glyph-name="aring.alt" horiz-adv-x="549" 
d="M252 -8c-115 0 -200 93 -200 213s85 212 200 212c83 0 144 -46 174 -110l-1 101h39v-408h-39l1 101c-30 -62 -94 -109 -174 -109zM258 27c101 0 169 76 169 176c0 101 -68 179 -169 179s-165 -76 -165 -177s64 -178 165 -178zM269 488c-52 0 -94 41 -94 92s42 92 94 92
s94 -41 94 -92s-42 -92 -94 -92zM269 519c34 0 58 24 58 61s-24 61 -58 61s-58 -24 -58 -61s24 -61 58 -61z" />
    <glyph glyph-name="atilde.alt" horiz-adv-x="549" 
d="M252 -8c-115 0 -200 93 -200 213s85 212 200 212c83 0 144 -46 174 -110l-1 101h39v-408h-39l1 101c-30 -62 -94 -109 -174 -109zM258 27c101 0 169 76 169 176c0 101 -68 179 -169 179s-165 -76 -165 -177s64 -178 165 -178zM169 509l-34 3c3 61 31 97 75 97
c29 0 46 -14 71 -38c26 -25 32 -30 49 -30c23 0 35 20 39 65l34 -3c-3 -61 -28 -96 -74 -96c-29 0 -46 15 -71 39c-26 25 -32 29 -49 29c-21 0 -36 -21 -40 -66z" />
    <glyph glyph-name="gbreve.alt" horiz-adv-x="462" 
d="M286 408h145v-33h-92c28 -25 44 -59 44 -100c0 -83 -63 -143 -153 -143c-31 0 -58 6 -81 19c-32 -5 -48 -25 -48 -49c0 -31 22 -46 59 -49l106 -10c118 -11 171 -47 171 -124c0 -90 -91 -142 -213 -142c-123 0 -204 49 -204 134c0 62 44 96 106 114c-40 11 -60 39 -60 73
s23 62 56 72c-30 25 -48 62 -48 105c0 83 66 142 156 142c19 0 39 -3 56 -9zM230 165c71 0 115 44 115 110s-44 109 -115 109c-73 0 -117 -43 -117 -109s44 -110 117 -110zM175 14c-66 -13 -115 -44 -115 -102c0 -65 57 -101 164 -101c99 0 174 37 174 108
c0 56 -31 81 -137 89zM238 499c-68 0 -106 45 -117 105l35 7c11 -42 30 -77 82 -77s71 35 82 77l35 -7c-11 -60 -49 -105 -117 -105z" />
    <glyph glyph-name="gcircumflex.alt" horiz-adv-x="462" 
d="M286 408h145v-33h-92c28 -25 44 -59 44 -100c0 -83 -63 -143 -153 -143c-31 0 -58 6 -81 19c-32 -5 -48 -25 -48 -49c0 -31 22 -46 59 -49l106 -10c118 -11 171 -47 171 -124c0 -90 -91 -142 -213 -142c-123 0 -204 49 -204 134c0 62 44 96 106 114c-40 11 -60 39 -60 73
s23 62 56 72c-30 25 -48 62 -48 105c0 83 66 142 156 142c19 0 39 -3 56 -9zM230 165c71 0 115 44 115 110s-44 109 -115 109c-73 0 -117 -43 -117 -109s44 -110 117 -110zM175 14c-66 -13 -115 -44 -115 -102c0 -65 57 -101 164 -101c99 0 174 37 174 108
c0 56 -31 81 -137 89zM121 504l113 182h9l113 -182h-35l-82 119l-83 -119h-35z" />
    <glyph glyph-name="gcommaaccent.alt" horiz-adv-x="462" 
d="M286 408h145v-33h-92c28 -25 44 -59 44 -100c0 -83 -63 -143 -153 -143c-31 0 -58 6 -81 19c-32 -5 -48 -25 -48 -49c0 -31 22 -46 59 -49l106 -10c118 -11 171 -47 171 -124c0 -90 -91 -142 -213 -142c-123 0 -204 49 -204 134c0 62 44 96 106 114c-40 11 -60 39 -60 73
s23 62 56 72c-30 25 -48 62 -48 105c0 83 66 142 156 142c19 0 39 -3 56 -9zM230 165c71 0 115 44 115 110s-44 109 -115 109c-73 0 -117 -43 -117 -109s44 -110 117 -110zM175 14c-66 -13 -115 -44 -115 -102c0 -65 57 -101 164 -101c99 0 174 37 174 108
c0 56 -31 81 -137 89zM281 716l-32 -100c14 -3 27 -18 27 -36c0 -22 -19 -40 -39 -40s-39 18 -39 40c0 5 2 12 5 19l53 117h25z" />
    <glyph glyph-name="gdotaccent.alt" horiz-adv-x="462" 
d="M286 408h145v-33h-92c28 -25 44 -59 44 -100c0 -83 -63 -143 -153 -143c-31 0 -58 6 -81 19c-32 -5 -48 -25 -48 -49c0 -31 22 -46 59 -49l106 -10c118 -11 171 -47 171 -124c0 -90 -91 -142 -213 -142c-123 0 -204 49 -204 134c0 62 44 96 106 114c-40 11 -60 39 -60 73
s23 62 56 72c-30 25 -48 62 -48 105c0 83 66 142 156 142c19 0 39 -3 56 -9zM230 165c71 0 115 44 115 110s-44 109 -115 109c-73 0 -117 -43 -117 -109s44 -110 117 -110zM175 14c-66 -13 -115 -44 -115 -102c0 -65 57 -101 164 -101c99 0 174 37 174 108
c0 56 -31 81 -137 89zM238 551c-17 0 -33 13 -33 33c0 19 16 33 33 33s33 -14 33 -33c0 -20 -16 -33 -33 -33z" />
    <glyph glyph-name="uacute.alt" horiz-adv-x="502" 
d="M251 -8c-103 0 -171 67 -171 187v229h39v-226c0 -99 40 -154 132 -154s132 55 132 154v226h39v-229c0 -120 -68 -187 -171 -187zM235 497l75 195h46l-88 -195h-33z" />
    <glyph glyph-name="ubreve.alt" horiz-adv-x="502" 
d="M251 -8c-103 0 -171 67 -171 187v229h39v-226c0 -99 40 -154 132 -154s132 55 132 154v226h39v-229c0 -120 -68 -187 -171 -187zM251 499c-68 0 -106 45 -117 105l35 7c11 -42 30 -77 82 -77s71 35 82 77l35 -7c-11 -60 -49 -105 -117 -105z" />
    <glyph glyph-name="ucircumflex.alt" horiz-adv-x="502" 
d="M251 -8c-103 0 -171 67 -171 187v229h39v-226c0 -99 40 -154 132 -154s132 55 132 154v226h39v-229c0 -120 -68 -187 -171 -187zM134 504l113 182h9l113 -182h-35l-82 119l-83 -119h-35z" />
    <glyph glyph-name="udieresis.alt" horiz-adv-x="502" 
d="M251 -8c-103 0 -171 67 -171 187v229h39v-226c0 -99 40 -154 132 -154s132 55 132 154v226h39v-229c0 -120 -68 -187 -171 -187zM327 551c-17 0 -32 14 -32 32s15 32 32 32s32 -14 32 -32s-15 -32 -32 -32zM175 551c-17 0 -32 14 -32 32s15 32 32 32s32 -14 32 -32
s-15 -32 -32 -32z" />
    <glyph glyph-name="ugrave.alt" horiz-adv-x="502" 
d="M251 -8c-103 0 -171 67 -171 187v229h39v-226c0 -99 40 -154 132 -154s132 55 132 154v226h39v-229c0 -120 -68 -187 -171 -187zM233 497l-88 195h46l75 -195h-33z" />
    <glyph glyph-name="uhungarumlaut.alt" horiz-adv-x="502" 
d="M251 -8c-103 0 -171 67 -171 187v229h39v-226c0 -99 40 -154 132 -154s132 55 132 154v226h39v-229c0 -120 -68 -187 -171 -187zM294 507l75 195h46l-88 -195h-33zM177 507l75 195h46l-88 -195h-33z" />
    <glyph glyph-name="umacron.alt" horiz-adv-x="502" 
d="M251 -8c-103 0 -171 67 -171 187v229h39v-226c0 -99 40 -154 132 -154s132 55 132 154v226h39v-229c0 -120 -68 -187 -171 -187zM144 550v34h214v-34h-214z" />
    <glyph glyph-name="uogonek.alt" horiz-adv-x="502" 
d="M237 -8c-95 6 -157 73 -157 187v229h39v-226c0 -99 40 -154 132 -154s132 55 132 154v226h39v-229c0 -110 -57 -176 -146 -186l-29 -44c-24 -38 -38 -58 -38 -93c0 -34 24 -50 49 -50c29 0 45 19 58 41l30 -18c-14 -30 -42 -57 -90 -57c-44 0 -86 27 -86 82
c0 44 22 77 42 104z" />
    <glyph glyph-name="uring.alt" horiz-adv-x="502" 
d="M251 -8c-103 0 -171 67 -171 187v229h39v-226c0 -99 40 -154 132 -154s132 55 132 154v226h39v-229c0 -120 -68 -187 -171 -187zM251 488c-52 0 -94 41 -94 92s42 92 94 92s94 -41 94 -92s-42 -92 -94 -92zM251 519c34 0 58 24 58 61s-24 61 -58 61s-58 -24 -58 -61
s24 -61 58 -61z" />
    <glyph glyph-name="f_b.alt" horiz-adv-x="808" 
d="M554 -8c-79 0 -146 47 -175 110l2 -102h-39v584c0 77 -39 116 -99 116c-62 0 -103 -37 -103 -116v-176h109v-34h-109v-374h-39v374h-65v34h65v179c0 100 70 148 142 148c70 0 138 -43 138 -148v-276c30 61 90 106 173 106c117 0 202 -92 202 -212s-85 -213 -202 -213z
M549 27c101 0 166 77 166 178s-65 177 -166 177c-103 0 -171 -76 -171 -177s68 -178 171 -178z" />
    <glyph glyph-name="f_f_b.alt" horiz-adv-x="1049" 
d="M381 408h109v-33h-109v-375h-39v375h-202v-375h-39v375h-65v33h65v190c0 84 44 117 96 117c49 0 72 -20 91 -48l-29 -22c-15 21 -27 35 -61 35s-58 -18 -58 -83v-189h202v179c0 100 70 148 142 148c70 0 138 -43 138 -148v-276c30 61 90 106 173 106
c117 0 202 -92 202 -212s-85 -213 -202 -213c-79 0 -146 47 -175 110l2 -102h-39v584c0 77 -39 116 -99 116c-62 0 -103 -37 -103 -116v-176zM790 27c101 0 166 77 166 178s-65 177 -166 177c-103 0 -171 -76 -171 -177s68 -178 171 -178z" />
    <glyph glyph-name="f_f_f_l.alt" horiz-adv-x="953" 
d="M342 375h-202v-375h-39v375h-65v33h65v190c0 84 44 117 96 117c49 0 72 -20 91 -48l-29 -22c-15 21 -27 35 -61 35s-58 -18 -58 -83v-189h202v200c0 84 44 117 96 117c49 0 72 -20 91 -48l-29 -22c-15 21 -27 35 -61 35s-58 -18 -58 -83v-199h202v179
c0 100 70 148 142 148c70 0 138 -43 138 -148v-587h-39v584c0 77 -39 116 -99 116c-62 0 -103 -37 -103 -116v-176h109v-33h-109v-375h-39v375h-202v-375h-39v375z" />
    <glyph glyph-name="f_f_h.alt" horiz-adv-x="1008" 
d="M342 408v179c0 100 70 148 142 148c70 0 138 -43 138 -148v-266c27 58 83 96 155 96c91 0 152 -61 152 -162v-255h-39v248c0 84 -39 133 -118 133c-88 0 -150 -58 -150 -153v-228h-39v584c0 77 -39 116 -99 116c-62 0 -103 -37 -103 -116v-176h109v-33h-109v-375h-39v375
h-202v-375h-39v375h-65v33h65v190c0 84 44 117 96 117c49 0 72 -20 91 -48l-29 -22c-15 21 -27 35 -61 35s-58 -18 -58 -83v-189h202z" />
    <glyph glyph-name="f_f_k.alt" horiz-adv-x="949" 
d="M342 408v179c0 100 70 148 142 148c70 0 138 -43 138 -148v-373c0 -17 -2 -34 -3 -44l226 238h46l-164 -173l193 -235h-48l-172 209l-78 -82v-127h-39v584c0 77 -39 116 -99 116c-62 0 -103 -37 -103 -116v-176h109v-33h-109v-375h-39v375h-202v-375h-39v375h-65v33h65
v190c0 84 44 117 96 117c49 0 72 -20 91 -48l-29 -22c-15 21 -27 35 -61 35s-58 -18 -58 -83v-189h202z" />
    <glyph glyph-name="ffl.alt" horiz-adv-x="712" 
d="M101 0v375h-65v33h65v190c0 84 44 117 96 117c49 0 72 -20 91 -48l-29 -22c-15 21 -27 35 -61 35s-58 -18 -58 -83v-189h202v179c0 100 70 148 142 148c70 0 138 -43 138 -148v-587h-39v584c0 77 -39 116 -99 116c-62 0 -103 -37 -103 -116v-176h109v-33h-109v-375h-39
v375h-202v-375h-39z" />
    <glyph glyph-name="f_h.alt" horiz-adv-x="767" 
d="M101 0v374h-65v34h65v179c0 100 70 148 142 148c70 0 138 -43 138 -148v-266c27 58 83 96 155 96c91 0 152 -61 152 -162v-255h-39v248c0 84 -39 133 -118 133c-88 0 -150 -58 -150 -153v-228h-39v584c0 77 -39 116 -99 116c-62 0 -103 -37 -103 -116v-176h109v-34h-109
v-374h-39z" />
    <glyph glyph-name="f_k.alt" horiz-adv-x="707" 
d="M381 127v-127h-39v584c0 77 -39 116 -99 116c-62 0 -103 -37 -103 -116v-176h109v-34h-109v-374h-39v374h-65v34h65v179c0 100 70 148 142 148c70 0 138 -43 138 -148v-373c0 -17 -2 -34 -3 -44l226 238h46l-164 -173l193 -235h-48l-172 209z" />
    <glyph glyph-name="fl.alt" horiz-adv-x="471" 
d="M101 0v374h-65v34h65v179c0 100 70 148 142 148c70 0 138 -43 138 -148v-587h-39v584c0 77 -39 116 -99 116c-62 0 -103 -37 -103 -116v-176h109v-34h-109v-374h-39z" />
    <glyph glyph-name="space.up" horiz-adv-x="244" 
 />
    <glyph glyph-name="hyphen.up" horiz-adv-x="297" 
d="M51 244v36h195v-36h-195z" />
    <glyph glyph-name="endash.up" horiz-adv-x="442" 
d="M45 246v34h352v-34h-352z" />
    <glyph glyph-name="emdash.up" horiz-adv-x="681" 
d="M45 246v34h591v-34h-591z" />
    <glyph glyph-name="guilsinglleft.up" horiz-adv-x="220" 
d="M134 80l-93 154v8l93 154h45l-95 -158l95 -158h-45z" />
    <glyph glyph-name="guilsinglright.up" horiz-adv-x="220" 
d="M41 80l95 158l-95 158h45l93 -154v-8l-93 -154h-45z" />
    <glyph glyph-name="guillemotleft.up" horiz-adv-x="347" 
d="M261 80l-93 154v8l93 154h45l-95 -158l95 -158h-45zM134 80l-93 154v8l93 154h45l-95 -158l95 -158h-45z" />
    <glyph glyph-name="guillemotright.up" horiz-adv-x="347" 
d="M168 80l95 158l-95 158h45l93 -154v-8l-93 -154h-45zM41 80l95 158l-95 158h45l93 -154v-8l-93 -154h-45z" />
    <glyph glyph-name="at.up" horiz-adv-x="868" 
d="M435 -94c-211 0 -381 161 -381 391c0 222 171 391 381 391c216 0 379 -164 379 -368c0 -153 -66 -216 -141 -216c-61 0 -100 36 -105 101c-29 -68 -80 -103 -148 -103c-99 0 -175 80 -175 187c0 109 76 191 175 191c69 0 119 -41 145 -98l-2 89h39v-235
c0 -62 18 -99 71 -99c57 0 103 54 103 183c0 177 -130 334 -341 334c-202 0 -342 -162 -342 -357c0 -199 139 -357 342 -357c61 0 119 15 167 45l18 -30c-53 -33 -117 -49 -185 -49zM423 136c80 0 141 69 141 153c0 86 -61 157 -141 157c-81 0 -138 -71 -138 -157
c0 -84 57 -153 138 -153z" />
    <glyph glyph-name="A.sc" 
d="M42 0l203 501h9l204 -501h-42l-50 124h-236l-49 -124h-39zM144 159h208l-84 208c-8 20 -17 56 -19 63c-2 -7 -12 -43 -20 -63z" />
    <glyph glyph-name="B.sc" horiz-adv-x="473" 
d="M84 0v495h171c93 0 134 -56 134 -126c0 -50 -22 -89 -67 -105c63 -14 99 -59 99 -125c0 -78 -49 -139 -155 -139h-182zM124 35h138c87 0 118 42 118 104s-35 105 -119 105h-137v-209zM124 278h138c65 0 88 38 88 91c0 52 -26 91 -99 91h-127v-182z" />
    <glyph glyph-name="C.sc" horiz-adv-x="558" 
d="M302 -8c-135 0 -249 106 -249 256c0 149 114 255 252 255c92 0 151 -33 196 -96l-29 -22c-38 52 -90 83 -167 83c-122 0 -211 -96 -211 -220c0 -125 89 -221 208 -221c81 0 140 35 178 87l30 -22c-44 -63 -113 -100 -208 -100z" />
    <glyph glyph-name="D.sc" horiz-adv-x="518" 
d="M84 0v495h113c168 0 268 -101 268 -247c0 -147 -100 -248 -268 -248h-113zM124 35h69c157 0 231 88 231 213c0 124 -74 212 -231 212h-69v-425z" />
    <glyph glyph-name="E.sc" horiz-adv-x="444" 
d="M84 0v495h294v-35h-254v-192h228v-35h-228v-198h264v-35h-304z" />
    <glyph glyph-name="F.sc" horiz-adv-x="430" 
d="M84 0v495h292v-35h-252v-206h230v-35h-230v-219h-40z" />
    <glyph glyph-name="G.sc" horiz-adv-x="566" 
d="M310 -8c-143 0 -257 108 -257 256c0 147 114 255 253 255c72 0 134 -24 175 -68l-27 -26c-34 37 -83 59 -148 59c-124 0 -212 -96 -212 -220c0 -125 89 -221 216 -221c77 0 128 26 158 52v113h-151v35h189v-164c-37 -33 -97 -71 -196 -71z" />
    <glyph glyph-name="H.sc" horiz-adv-x="532" 
d="M84 0v495h40v-235h284v235h40v-495h-40v225h-284v-225h-40z" />
    <glyph glyph-name="I.sc" horiz-adv-x="214" 
d="M87 0v495h40v-495h-40z" />
    <glyph glyph-name="J.sc" horiz-adv-x="373" 
d="M162 -8c-65 0 -103 36 -124 75l32 20c19 -33 46 -59 90 -59c54 0 89 29 89 98v369h40v-371c0 -87 -55 -132 -127 -132z" />
    <glyph glyph-name="K.sc" horiz-adv-x="468" 
d="M84 0v495h40v-239c0 -29 -4 -68 -6 -85c12 19 34 56 51 78l197 246h46l-183 -226l213 -269h-50l-189 239l-79 -96v-143h-40z" />
    <glyph glyph-name="L.sc" horiz-adv-x="402" 
d="M84 0v495h40v-460h237v-35h-277z" />
    <glyph glyph-name="M.sc" horiz-adv-x="636" 
d="M83 0v501h8l227 -295l226 295h8v-501h-39v337c0 31 4 76 5 81c-2 -4 -24 -44 -43 -69l-154 -198h-7l-152 198c-17 23 -43 65 -45 69c0 -2 5 -49 5 -81v-337h-39z" />
    <glyph glyph-name="N.sc" horiz-adv-x="548" 
d="M455 -6l-294 363c-15 19 -42 61 -44 65c0 -2 5 -41 5 -73v-349h-38v501h9l292 -360c18 -22 42 -62 45 -66c0 2 -4 39 -4 71v350h38v-502h-9z" />
    <glyph glyph-name="O.sc" horiz-adv-x="619" 
d="M310 -8c-140 0 -258 106 -258 256s118 255 258 255c141 0 257 -105 257 -255s-116 -256 -257 -256zM310 27c126 0 216 96 216 221s-90 220 -216 220s-217 -95 -217 -220s91 -221 217 -221z" />
    <glyph glyph-name="P.sc" horiz-adv-x="451" 
d="M84 0v495h132c121 0 190 -58 190 -155s-69 -155 -190 -155h-92v-185h-40zM124 220h89c107 0 153 42 153 120c0 80 -46 120 -153 120h-89v-240z" />
    <glyph glyph-name="Q.sc" horiz-adv-x="619" 
d="M538 -41l-77 81c-43 -30 -95 -48 -151 -48c-140 0 -258 106 -258 256s118 255 258 255c141 0 257 -105 257 -255c0 -73 -30 -138 -78 -184l77 -80zM310 27c49 0 92 14 127 38l-82 86l28 25l83 -87c38 39 60 95 60 159c0 125 -90 220 -216 220s-217 -95 -217 -220
s91 -221 217 -221z" />
    <glyph glyph-name="R.sc" horiz-adv-x="461" 
d="M84 0v495h129c119 0 190 -56 190 -150c0 -74 -44 -125 -121 -143l130 -202h-46l-126 196c-9 -1 -18 -1 -27 -1h-89v-195h-40zM124 230h86c105 0 153 39 153 115c0 78 -48 115 -153 115h-86v-230z" />
    <glyph glyph-name="S.sc" horiz-adv-x="410" 
d="M208 -8c-88 0 -147 50 -172 103l34 17c23 -47 65 -85 137 -85c67 0 115 37 115 94s-31 86 -101 117l-49 22c-63 28 -102 65 -102 129c0 71 58 114 127 114c67 0 107 -32 133 -70l-30 -22c-22 33 -51 58 -103 58c-53 0 -89 -28 -89 -79c0 -45 22 -70 80 -96l49 -22
c81 -36 124 -78 124 -151c0 -78 -64 -129 -153 -129z" />
    <glyph glyph-name="T.sc" horiz-adv-x="434" 
d="M197 0v460h-160v35h360v-35h-160v-460h-40z" />
    <glyph glyph-name="U.sc" horiz-adv-x="504" 
d="M252 -8c-100 0 -172 60 -172 175v328h40v-325c0 -99 52 -143 132 -143c79 0 132 44 132 143v325h40v-328c0 -115 -72 -175 -172 -175z" />
    <glyph glyph-name="V.sc" 
d="M246 -6l-204 501h43l144 -360c9 -23 23 -74 23 -74s12 52 21 74l144 360h41l-202 -501h-10z" />
    <glyph glyph-name="W.sc" horiz-adv-x="718" 
d="M200 -6l-159 501h43l109 -349c7 -23 13 -65 14 -68c1 4 9 45 18 68l131 355h8l130 -355c9 -25 16 -60 18 -67c1 5 7 43 15 67l109 349h41l-158 -501h-9l-135 368c-8 21 -14 49 -15 54c-1 -3 -7 -32 -15 -54l-137 -368h-8z" />
    <glyph glyph-name="X.sc" horiz-adv-x="484" 
d="M47 0l171 269l-144 226h45l99 -155c14 -22 24 -49 24 -49s10 27 24 49l97 155h45l-144 -226l173 -269h-45l-126 198c-11 17 -24 43 -26 47c-1 -1 -13 -30 -23 -47l-125 -198h-45z" />
    <glyph glyph-name="Y.sc" horiz-adv-x="463" 
d="M212 0v184l-171 311h45l120 -219c13 -25 25 -60 26 -64c1 2 16 39 29 64l119 219h42l-170 -309v-186h-40z" />
    <glyph glyph-name="Z.sc" horiz-adv-x="450" 
d="M45 0v7l292 453h-258v35h319v-8l-293 -452h292v-35h-352z" />
    <glyph glyph-name="Oslash.sc" horiz-adv-x="619" 
d="M504 418c39 -43 63 -102 63 -170c0 -150 -116 -256 -257 -256c-65 0 -125 23 -170 62l-61 -61l-24 24l60 60c-39 44 -63 103 -63 171c0 150 118 255 258 255c65 0 125 -22 170 -61l60 60l24 -24zM141 103l313 313c-36 33 -86 52 -144 52c-126 0 -217 -95 -217 -220
c0 -57 18 -107 48 -145zM478 392l-313 -313c37 -33 87 -52 145 -52c126 0 216 96 216 221c0 56 -17 106 -48 144z" />
    <glyph glyph-name="AE.sc" horiz-adv-x="713" 
d="M34 0l328 495h286v-35h-256v-192h228v-35h-228v-198h265v-35h-305v114h-202l-75 -114h-41zM173 149h179v204c0 34 4 77 5 85c-3 -8 -24 -49 -42 -75z" />
    <glyph glyph-name="OE.sc" horiz-adv-x="745" 
d="M321 0c-168 0 -268 101 -268 247c0 147 100 248 268 248h357v-35h-255v-192h229v-35h-229v-198h266v-35h-368zM325 35h58v425h-58c-157 0 -231 -88 -231 -213c0 -124 74 -212 231 -212z" />
    <glyph glyph-name="Eth.sc" horiz-adv-x="518" 
d="M84 0v234h-61v34h61v228h120c162 0 262 -102 262 -248c0 -147 -99 -248 -262 -248h-120zM124 35h76c150 0 224 88 224 213c0 124 -74 212 -224 212h-76v-192h139v-34h-139v-199z" />
    <glyph glyph-name="Dcroat.sc" horiz-adv-x="518" 
d="M84 0v234h-61v34h61v228h120c162 0 262 -102 262 -248c0 -147 -99 -248 -262 -248h-120zM124 35h76c150 0 224 88 224 213c0 124 -74 212 -224 212h-76v-192h139v-34h-139v-199z" />
    <glyph glyph-name="dotlessi.sc" horiz-adv-x="214" 
d="M87 0v495h40v-495h-40z" />
    <glyph glyph-name="Aacute.sc" 
d="M42 0l203 501h9l204 -501h-42l-50 124h-236l-49 -124h-39zM144 159h208l-84 208c-8 20 -17 56 -19 63c-2 -7 -12 -43 -20 -63zM234 562l75 195h46l-88 -195h-33z" />
    <glyph glyph-name="Abreve.sc" 
d="M42 0l203 501h9l204 -501h-42l-50 124h-236l-49 -124h-39zM144 159h208l-84 208c-8 20 -17 56 -19 63c-2 -7 -12 -43 -20 -63zM250 564c-68 0 -106 45 -117 105l35 7c11 -42 30 -77 82 -77s71 35 82 77l35 -7c-11 -60 -49 -105 -117 -105z" />
    <glyph glyph-name="Acircumflex.sc" 
d="M42 0l203 501h9l204 -501h-42l-50 124h-236l-49 -124h-39zM144 159h208l-84 208c-8 20 -17 56 -19 63c-2 -7 -12 -43 -20 -63zM133 569l113 182h9l113 -182h-35l-82 119l-83 -119h-35z" />
    <glyph glyph-name="Adieresis.sc" 
d="M42 0l203 501h9l204 -501h-42l-50 124h-236l-49 -124h-39zM144 159h208l-84 208c-8 20 -17 56 -19 63c-2 -7 -12 -43 -20 -63zM326 586c-17 0 -32 14 -32 32s15 32 32 32s32 -14 32 -32s-15 -32 -32 -32zM174 586c-17 0 -32 14 -32 32s15 32 32 32s32 -14 32 -32
s-15 -32 -32 -32z" />
    <glyph glyph-name="Agrave.sc" 
d="M42 0l203 501h9l204 -501h-42l-50 124h-236l-49 -124h-39zM144 159h208l-84 208c-8 20 -17 56 -19 63c-2 -7 -12 -43 -20 -63zM232 562l-88 195h46l75 -195h-33z" />
    <glyph glyph-name="Amacron.sc" 
d="M42 0l203 501h9l204 -501h-42l-50 124h-236l-49 -124h-39zM144 159h208l-84 208c-8 20 -17 56 -19 63c-2 -7 -12 -43 -20 -63zM143 592v34h214v-34h-214z" />
    <glyph glyph-name="Aogonek.sc" 
d="M434 -228c-44 0 -86 27 -86 82c0 44 22 77 42 104l27 38l-2 4l-49 124h-236l-49 -124h-39l203 501h9l204 -501l-33 -51c-24 -38 -38 -58 -38 -93c0 -34 24 -50 49 -50c29 0 45 19 58 41l30 -18c-14 -30 -42 -57 -90 -57zM144 159h208l-84 208c-8 20 -17 56 -19 63
c-2 -7 -12 -43 -20 -63z" />
    <glyph glyph-name="Aring.sc" 
d="M42 0l203 501h9l204 -501h-42l-50 124h-236l-49 -124h-39zM250 553c-52 0 -94 41 -94 92s42 92 94 92s94 -41 94 -92s-42 -92 -94 -92zM144 159h208l-84 208c-8 20 -17 56 -19 63c-2 -7 -12 -43 -20 -63zM250 584c34 0 58 24 58 61s-24 61 -58 61s-58 -24 -58 -61
s24 -61 58 -61z" />
    <glyph glyph-name="Atilde.sc" 
d="M42 0l203 501h9l204 -501h-42l-50 124h-236l-49 -124h-39zM144 159h208l-84 208c-8 20 -17 56 -19 63c-2 -7 -12 -43 -20 -63zM150 574l-34 3c3 61 31 97 75 97c29 0 46 -14 71 -38c26 -25 32 -30 49 -30c23 0 35 20 39 65l34 -3c-3 -61 -28 -96 -74 -96
c-29 0 -46 15 -71 39c-26 25 -32 29 -49 29c-21 0 -36 -21 -40 -66z" />
    <glyph glyph-name="Cacute.sc" horiz-adv-x="558" 
d="M302 -8c-135 0 -249 106 -249 256c0 149 114 255 252 255c92 0 151 -33 196 -96l-29 -22c-38 52 -90 83 -167 83c-122 0 -211 -96 -211 -220c0 -125 89 -221 208 -221c81 0 140 35 178 87l30 -22c-44 -63 -113 -100 -208 -100zM276 562l75 195h46l-88 -195h-33z" />
    <glyph glyph-name="Ccaron.sc" horiz-adv-x="558" 
d="M302 -8c-135 0 -249 106 -249 256c0 149 114 255 252 255c92 0 151 -33 196 -96l-29 -22c-38 52 -90 83 -167 83c-122 0 -211 -96 -211 -220c0 -125 89 -221 208 -221c81 0 140 35 178 87l30 -22c-44 -63 -113 -100 -208 -100zM288 561l-113 182h35l82 -119l83 119h35
l-113 -182h-9z" />
    <glyph glyph-name="Ccedilla.sc" horiz-adv-x="558" 
d="M283 -228c-48 0 -80 27 -94 58l30 18c11 -23 27 -43 63 -43c28 0 52 18 52 52c0 29 -18 55 -62 55h-15v84c-115 21 -204 119 -204 252c0 149 114 255 252 255c92 0 151 -33 196 -96l-29 -22c-38 52 -90 83 -167 83c-122 0 -211 -96 -211 -220c0 -125 89 -221 208 -221
c81 0 140 35 178 87l30 -22c-44 -63 -113 -100 -208 -100h-9v-51c41 -5 80 -36 80 -85c0 -55 -44 -84 -90 -84z" />
    <glyph glyph-name="Ccircumflex.sc" horiz-adv-x="558" 
d="M302 -8c-135 0 -249 106 -249 256c0 149 114 255 252 255c92 0 151 -33 196 -96l-29 -22c-38 52 -90 83 -167 83c-122 0 -211 -96 -211 -220c0 -125 89 -221 208 -221c81 0 140 35 178 87l30 -22c-44 -63 -113 -100 -208 -100zM175 569l113 182h9l113 -182h-35l-82 119
l-83 -119h-35z" />
    <glyph glyph-name="Cdotaccent.sc" horiz-adv-x="558" 
d="M302 -8c-135 0 -249 106 -249 256c0 149 114 255 252 255c92 0 151 -33 196 -96l-29 -22c-38 52 -90 83 -167 83c-122 0 -211 -96 -211 -220c0 -125 89 -221 208 -221c81 0 140 35 178 87l30 -22c-44 -63 -113 -100 -208 -100zM292 586c-17 0 -33 13 -33 33
c0 19 16 33 33 33s33 -14 33 -33c0 -20 -16 -33 -33 -33z" />
    <glyph glyph-name="Dcaron.sc" horiz-adv-x="518" 
d="M84 0v495h113c168 0 268 -101 268 -247c0 -147 -100 -248 -268 -248h-113zM124 35h69c157 0 231 88 231 213c0 124 -74 212 -231 212h-69v-425zM240 561l-113 182h35l82 -119l83 119h35l-113 -182h-9z" />
    <glyph glyph-name="Eacute.sc" horiz-adv-x="444" 
d="M84 0v495h294v-35h-254v-192h228v-35h-228v-198h264v-35h-304zM225 562l75 195h46l-88 -195h-33z" />
    <glyph glyph-name="Ecaron.sc" horiz-adv-x="444" 
d="M84 0v495h294v-35h-254v-192h228v-35h-228v-198h264v-35h-304zM237 561l-113 182h35l82 -119l83 119h35l-113 -182h-9z" />
    <glyph glyph-name="Ecircumflex.sc" horiz-adv-x="444" 
d="M84 0v495h294v-35h-254v-192h228v-35h-228v-198h264v-35h-304zM124 569l113 182h9l113 -182h-35l-82 119l-83 -119h-35z" />
    <glyph glyph-name="Edieresis.sc" horiz-adv-x="444" 
d="M84 0v495h294v-35h-254v-192h228v-35h-228v-198h264v-35h-304zM317 586c-17 0 -32 14 -32 32s15 32 32 32s32 -14 32 -32s-15 -32 -32 -32zM165 586c-17 0 -32 14 -32 32s15 32 32 32s32 -14 32 -32s-15 -32 -32 -32z" />
    <glyph glyph-name="Edotaccent.sc" horiz-adv-x="444" 
d="M84 0v495h294v-35h-254v-192h228v-35h-228v-198h264v-35h-304zM241 586c-17 0 -33 13 -33 33c0 19 16 33 33 33s33 -14 33 -33c0 -20 -16 -33 -33 -33z" />
    <glyph glyph-name="Egrave.sc" horiz-adv-x="444" 
d="M84 0v495h294v-35h-254v-192h228v-35h-228v-198h264v-35h-304zM223 562l-88 195h46l75 -195h-33z" />
    <glyph glyph-name="Emacron.sc" horiz-adv-x="444" 
d="M84 0v495h294v-35h-254v-192h228v-35h-228v-198h264v-35h-304zM134 592v34h214v-34h-214z" />
    <glyph glyph-name="Eogonek.sc" horiz-adv-x="444" 
d="M302 -228c-44 0 -86 27 -86 82c0 44 22 77 42 104l30 42h-204v495h294v-35h-254v-192h228v-35h-228v-198h264v-35h-62l-33 -51c-24 -38 -38 -58 -38 -93c0 -34 24 -50 49 -50c29 0 45 19 58 41l30 -18c-14 -30 -42 -57 -90 -57z" />
    <glyph glyph-name="Gbreve.sc" horiz-adv-x="566" 
d="M310 -8c-143 0 -257 108 -257 256c0 147 114 255 253 255c72 0 134 -24 175 -68l-27 -26c-34 37 -83 59 -148 59c-124 0 -212 -96 -212 -220c0 -125 89 -221 216 -221c77 0 128 26 158 52v113h-151v35h189v-164c-37 -33 -97 -71 -196 -71zM294 564
c-68 0 -106 45 -117 105l35 7c11 -42 30 -77 82 -77s71 35 82 77l35 -7c-11 -60 -49 -105 -117 -105z" />
    <glyph glyph-name="Gcircumflex.sc" horiz-adv-x="566" 
d="M310 -8c-143 0 -257 108 -257 256c0 147 114 255 253 255c72 0 134 -24 175 -68l-27 -26c-34 37 -83 59 -148 59c-124 0 -212 -96 -212 -220c0 -125 89 -221 216 -221c77 0 128 26 158 52v113h-151v35h189v-164c-37 -33 -97 -71 -196 -71zM177 569l113 182h9l113 -182
h-35l-82 119l-83 -119h-35z" />
    <glyph glyph-name="Gcommaaccent.sc" horiz-adv-x="566" 
d="M310 -8c-143 0 -257 108 -257 256c0 147 114 255 253 255c72 0 134 -24 175 -68l-27 -26c-34 37 -83 59 -148 59c-124 0 -212 -96 -212 -220c0 -125 89 -221 216 -221c77 0 128 26 158 52v113h-151v35h189v-164c-37 -33 -97 -71 -196 -71zM253 -243l32 100
c-14 3 -27 18 -27 36c0 22 19 40 39 40s39 -18 39 -40c0 -5 -2 -12 -5 -19l-53 -117h-25z" />
    <glyph glyph-name="Gdotaccent.sc" horiz-adv-x="566" 
d="M310 -8c-143 0 -257 108 -257 256c0 147 114 255 253 255c72 0 134 -24 175 -68l-27 -26c-34 37 -83 59 -148 59c-124 0 -212 -96 -212 -220c0 -125 89 -221 216 -221c77 0 128 26 158 52v113h-151v35h189v-164c-37 -33 -97 -71 -196 -71zM294 586c-17 0 -33 13 -33 33
c0 19 16 33 33 33s33 -14 33 -33c0 -20 -16 -33 -33 -33z" />
    <glyph glyph-name="Hbar.sc" horiz-adv-x="532" 
d="M9 348v33h75v114h40v-114h284v114h40v-114h75v-33h-75v-348h-40v225h-284v-225h-40v348h-75zM124 260h284v88h-284v-88z" />
    <glyph glyph-name="Hcircumflex.sc" horiz-adv-x="532" 
d="M84 0v495h40v-235h284v235h40v-495h-40v225h-284v-225h-40zM149 569l113 182h9l113 -182h-35l-82 119l-83 -119h-35z" />
    <glyph glyph-name="Iacute.sc" horiz-adv-x="214" 
d="M87 0v495h40v-495h-40zM91 562l75 195h46l-88 -195h-33z" />
    <glyph glyph-name="Icircumflex.sc" horiz-adv-x="214" 
d="M87 0v495h40v-495h-40zM-10 569l113 182h9l113 -182h-35l-82 119l-83 -119h-35z" />
    <glyph glyph-name="Idieresis.sc" horiz-adv-x="214" 
d="M87 0v495h40v-495h-40zM178 586c-17 0 -32 14 -32 32s15 32 32 32s32 -14 32 -32s-15 -32 -32 -32zM36 586c-17 0 -32 14 -32 32s15 32 32 32s32 -14 32 -32s-15 -32 -32 -32z" />
    <glyph glyph-name="Idotaccent.sc" horiz-adv-x="214" 
d="M87 0v495h40v-495h-40zM107 586c-17 0 -33 13 -33 33c0 19 16 33 33 33s33 -14 33 -33c0 -20 -16 -33 -33 -33z" />
    <glyph glyph-name="Igrave.sc" horiz-adv-x="214" 
d="M87 0v495h40v-495h-40zM89 562l-88 195h46l75 -195h-33z" />
    <glyph glyph-name="Imacron.sc" horiz-adv-x="214" 
d="M87 0v495h40v-495h-40zM20 592v34h174v-34h-174z" />
    <glyph glyph-name="Iogonek.sc" horiz-adv-x="214" 
d="M87 -3v498h40v-495l-33 -51c-24 -38 -38 -58 -38 -93c0 -34 24 -50 49 -50c29 0 45 19 58 41l30 -18c-14 -30 -42 -57 -90 -57c-44 0 -86 27 -86 82c0 44 22 77 42 104z" />
    <glyph glyph-name="Jcircumflex.sc" horiz-adv-x="373" 
d="M162 -8c-65 0 -103 36 -124 75l32 20c19 -33 46 -59 90 -59c54 0 89 29 89 98v369h40v-371c0 -87 -55 -132 -127 -132zM150 569l113 182h9l113 -182h-35l-82 119l-83 -119h-35z" />
    <glyph glyph-name="Kcommaaccent.sc" horiz-adv-x="468" 
d="M84 0v495h40v-239c0 -29 -4 -68 -6 -85c12 19 34 56 51 78l197 246h46l-183 -226l213 -269h-50l-189 239l-79 -96v-143h-40zM206 -243l32 100c-14 3 -27 18 -27 36c0 22 19 40 39 40s39 -18 39 -40c0 -5 -2 -12 -5 -19l-53 -117h-25z" />
    <glyph glyph-name="Lacute.sc" horiz-adv-x="402" 
d="M84 0v495h40v-460h237v-35h-277zM91 562l75 195h46l-88 -195h-33z" />
    <glyph glyph-name="Lcaron.sc" horiz-adv-x="402" 
d="M253 327l32 100c-14 3 -27 18 -27 36c0 22 19 40 39 40s39 -18 39 -40c0 -5 -2 -12 -5 -19l-53 -117h-25zM84 0v495h40v-460h237v-35h-277z" />
    <glyph glyph-name="Lcommaaccent.sc" horiz-adv-x="402" 
d="M84 0v495h40v-460h237v-35h-277zM175 -243l32 100c-14 3 -27 18 -27 36c0 22 19 40 39 40s39 -18 39 -40c0 -5 -2 -12 -5 -19l-53 -117h-25z" />
    <glyph glyph-name="Lslash.sc" horiz-adv-x="403" 
d="M85 0v189l-55 -22v37l55 22v269h40v-253l148 58v-36l-148 -59v-170h237v-35h-277z" />
    <glyph glyph-name="Nacute.sc" horiz-adv-x="548" 
d="M455 -6l-294 363c-15 19 -42 61 -44 65c0 -2 5 -41 5 -73v-349h-38v501h9l292 -360c18 -22 42 -62 45 -66c0 2 -4 39 -4 71v350h38v-502h-9zM264 562l75 195h46l-88 -195h-33z" />
    <glyph glyph-name="Ncaron.sc" horiz-adv-x="548" 
d="M455 -6l-294 363c-15 19 -42 61 -44 65c0 -2 5 -41 5 -73v-349h-38v501h9l292 -360c18 -22 42 -62 45 -66c0 2 -4 39 -4 71v350h38v-502h-9zM276 561l-113 182h35l82 -119l83 119h35l-113 -182h-9z" />
    <glyph glyph-name="Ncommaaccent.sc" horiz-adv-x="548" 
d="M455 -6l-294 363c-15 19 -42 61 -44 65c0 -2 5 -41 5 -73v-349h-38v501h9l292 -360c18 -22 42 -62 45 -66c0 2 -4 39 -4 71v350h38v-502h-9zM234 -243l32 100c-14 3 -27 18 -27 36c0 22 19 40 39 40s39 -18 39 -40c0 -5 -2 -12 -5 -19l-53 -117h-25z" />
    <glyph glyph-name="Ntilde.sc" horiz-adv-x="548" 
d="M455 -6l-294 363c-15 19 -42 61 -44 65c0 -2 5 -41 5 -73v-349h-38v501h9l292 -360c18 -22 42 -62 45 -66c0 2 -4 39 -4 71v350h38v-502h-9zM180 574l-34 3c3 61 31 97 75 97c29 0 46 -14 71 -38c26 -25 32 -30 49 -30c23 0 35 20 39 65l34 -3c-3 -61 -28 -96 -74 -96
c-29 0 -46 15 -71 39c-26 25 -32 29 -49 29c-21 0 -36 -21 -40 -66z" />
    <glyph glyph-name="Oacute.sc" horiz-adv-x="619" 
d="M310 -8c-140 0 -258 106 -258 256s118 255 258 255c141 0 257 -105 257 -255s-116 -256 -257 -256zM310 27c126 0 216 96 216 221s-90 220 -216 220s-217 -95 -217 -220s91 -221 217 -221zM293 562l75 195h46l-88 -195h-33z" />
    <glyph glyph-name="Ocircumflex.sc" horiz-adv-x="619" 
d="M310 -8c-140 0 -258 106 -258 256s118 255 258 255c141 0 257 -105 257 -255s-116 -256 -257 -256zM310 27c126 0 216 96 216 221s-90 220 -216 220s-217 -95 -217 -220s91 -221 217 -221zM192 569l113 182h9l113 -182h-35l-82 119l-83 -119h-35z" />
    <glyph glyph-name="Odieresis.sc" horiz-adv-x="619" 
d="M310 -8c-140 0 -258 106 -258 256s118 255 258 255c141 0 257 -105 257 -255s-116 -256 -257 -256zM310 27c126 0 216 96 216 221s-90 220 -216 220s-217 -95 -217 -220s91 -221 217 -221zM385 586c-17 0 -32 14 -32 32s15 32 32 32s32 -14 32 -32s-15 -32 -32 -32z
M233 586c-17 0 -32 14 -32 32s15 32 32 32s32 -14 32 -32s-15 -32 -32 -32z" />
    <glyph glyph-name="Ograve.sc" horiz-adv-x="619" 
d="M310 -8c-140 0 -258 106 -258 256s118 255 258 255c141 0 257 -105 257 -255s-116 -256 -257 -256zM310 27c126 0 216 96 216 221s-90 220 -216 220s-217 -95 -217 -220s91 -221 217 -221zM291 562l-88 195h46l75 -195h-33z" />
    <glyph glyph-name="Ohungarumlaut.sc" horiz-adv-x="619" 
d="M310 -8c-140 0 -258 106 -258 256s118 255 258 255c141 0 257 -105 257 -255s-116 -256 -257 -256zM310 27c126 0 216 96 216 221s-90 220 -216 220s-217 -95 -217 -220s91 -221 217 -221zM352 572l75 195h46l-88 -195h-33zM235 572l75 195h46l-88 -195h-33z" />
    <glyph glyph-name="Omacron.sc" horiz-adv-x="619" 
d="M310 -8c-140 0 -258 106 -258 256s118 255 258 255c141 0 257 -105 257 -255s-116 -256 -257 -256zM310 27c126 0 216 96 216 221s-90 220 -216 220s-217 -95 -217 -220s91 -221 217 -221zM202 592v34h214v-34h-214z" />
    <glyph glyph-name="Otilde.sc" horiz-adv-x="619" 
d="M310 -8c-140 0 -258 106 -258 256s118 255 258 255c141 0 257 -105 257 -255s-116 -256 -257 -256zM310 27c126 0 216 96 216 221s-90 220 -216 220s-217 -95 -217 -220s91 -221 217 -221zM209 574l-34 3c3 61 31 97 75 97c29 0 46 -14 71 -38c26 -25 32 -30 49 -30
c23 0 35 20 39 65l34 -3c-3 -61 -28 -96 -74 -96c-29 0 -46 15 -71 39c-26 25 -32 29 -49 29c-21 0 -36 -21 -40 -66z" />
    <glyph glyph-name="Racute.sc" horiz-adv-x="461" 
d="M84 0v495h129c119 0 190 -56 190 -150c0 -74 -44 -125 -121 -143l130 -202h-46l-126 196c-9 -1 -18 -1 -27 -1h-89v-195h-40zM124 230h86c105 0 153 39 153 115c0 78 -48 115 -153 115h-86v-230zM216 562l75 195h46l-88 -195h-33z" />
    <glyph glyph-name="Rcaron.sc" horiz-adv-x="461" 
d="M84 0v495h129c119 0 190 -56 190 -150c0 -74 -44 -125 -121 -143l130 -202h-46l-126 196c-9 -1 -18 -1 -27 -1h-89v-195h-40zM124 230h86c105 0 153 39 153 115c0 78 -48 115 -153 115h-86v-230zM228 561l-113 182h35l82 -119l83 119h35l-113 -182h-9z" />
    <glyph glyph-name="Rcommaaccent.sc" horiz-adv-x="461" 
d="M84 0v495h129c119 0 190 -56 190 -150c0 -74 -44 -125 -121 -143l130 -202h-46l-126 196c-9 -1 -18 -1 -27 -1h-89v-195h-40zM124 230h86c105 0 153 39 153 115c0 78 -48 115 -153 115h-86v-230zM191 -243l32 100c-14 3 -27 18 -27 36c0 22 19 40 39 40s39 -18 39 -40
c0 -5 -2 -12 -5 -19l-53 -117h-25z" />
    <glyph glyph-name="Sacute.sc" horiz-adv-x="410" 
d="M208 -8c-88 0 -147 50 -172 103l34 17c23 -47 65 -85 137 -85c67 0 115 37 115 94s-31 86 -101 117l-49 22c-63 28 -102 65 -102 129c0 71 58 114 127 114c67 0 107 -32 133 -70l-30 -22c-22 33 -51 58 -103 58c-53 0 -89 -28 -89 -79c0 -45 22 -70 80 -96l49 -22
c81 -36 124 -78 124 -151c0 -78 -64 -129 -153 -129zM186 562l75 195h46l-88 -195h-33z" />
    <glyph glyph-name="Scaron.sc" horiz-adv-x="410" 
d="M208 -8c-88 0 -147 50 -172 103l34 17c23 -47 65 -85 137 -85c67 0 115 37 115 94s-31 86 -101 117l-49 22c-63 28 -102 65 -102 129c0 71 58 114 127 114c67 0 107 -32 133 -70l-30 -22c-22 33 -51 58 -103 58c-53 0 -89 -28 -89 -79c0 -45 22 -70 80 -96l49 -22
c81 -36 124 -78 124 -151c0 -78 -64 -129 -153 -129zM198 561l-113 182h35l82 -119l83 119h35l-113 -182h-9z" />
    <glyph glyph-name="Scedilla.sc" horiz-adv-x="410" 
d="M209 -228c-48 0 -80 27 -94 58l30 18c11 -23 27 -43 63 -43c28 0 52 18 52 52c0 29 -18 55 -62 55h-15v82c-74 8 -125 53 -147 101l34 17c23 -47 65 -85 137 -85c67 0 115 37 115 94s-31 86 -101 117l-49 22c-63 28 -102 65 -102 129c0 71 58 114 127 114
c67 0 107 -32 133 -70l-30 -22c-22 33 -51 58 -103 58c-53 0 -89 -28 -89 -79c0 -45 22 -70 80 -96l49 -22c81 -36 124 -78 124 -151c0 -75 -59 -124 -142 -128v-52c41 -5 80 -36 80 -85c0 -55 -44 -84 -90 -84z" />
    <glyph glyph-name="Scircumflex.sc" horiz-adv-x="410" 
d="M208 -8c-88 0 -147 50 -172 103l34 17c23 -47 65 -85 137 -85c67 0 115 37 115 94s-31 86 -101 117l-49 22c-63 28 -102 65 -102 129c0 71 58 114 127 114c67 0 107 -32 133 -70l-30 -22c-22 33 -51 58 -103 58c-53 0 -89 -28 -89 -79c0 -45 22 -70 80 -96l49 -22
c81 -36 124 -78 124 -151c0 -78 -64 -129 -153 -129zM85 569l113 182h9l113 -182h-35l-82 119l-83 -119h-35z" />
    <glyph glyph-name="Scommaaccent.sc" horiz-adv-x="410" 
d="M208 -8c-88 0 -147 50 -172 103l34 17c23 -47 65 -85 137 -85c67 0 115 37 115 94s-31 86 -101 117l-49 22c-63 28 -102 65 -102 129c0 71 58 114 127 114c67 0 107 -32 133 -70l-30 -22c-22 33 -51 58 -103 58c-53 0 -89 -28 -89 -79c0 -45 22 -70 80 -96l49 -22
c81 -36 124 -78 124 -151c0 -78 -64 -129 -153 -129zM161 -243l32 100c-14 3 -27 18 -27 36c0 22 19 40 39 40s39 -18 39 -40c0 -5 -2 -12 -5 -19l-53 -117h-25z" />
    <glyph glyph-name="Tcaron.sc" horiz-adv-x="434" 
d="M197 0v460h-160v35h360v-35h-160v-460h-40zM213 561l-113 182h35l82 -119l83 119h35l-113 -182h-9z" />
    <glyph glyph-name="uni021A.sc" horiz-adv-x="434" 
d="M197 0v460h-160v35h360v-35h-160v-460h-2v-59c41 -5 80 -36 80 -85c0 -55 -44 -84 -90 -84c-48 0 -80 27 -94 58l30 18c11 -23 27 -43 63 -43c28 0 52 18 52 52c0 29 -18 55 -62 55h-15v88h-2z" />
    <glyph glyph-name="Tcommaaccent.sc" horiz-adv-x="434" 
d="M197 0v460h-160v35h360v-35h-160v-460h-40zM176 -243l32 100c-14 3 -27 18 -27 36c0 22 19 40 39 40s39 -18 39 -40c0 -5 -2 -12 -5 -19l-53 -117h-25z" />
    <glyph glyph-name="Thorn.sc" horiz-adv-x="463" 
d="M84 0v495h40v-86h101c123 0 181 -56 181 -150s-58 -150 -181 -150h-101v-109h-40zM124 144h98c106 0 144 42 144 115c0 75 -38 115 -144 115h-98v-230z" />
    <glyph glyph-name="Uacute.sc" horiz-adv-x="504" 
d="M252 -8c-100 0 -172 60 -172 175v328h40v-325c0 -99 52 -143 132 -143c79 0 132 44 132 143v325h40v-328c0 -115 -72 -175 -172 -175zM236 562l75 195h46l-88 -195h-33z" />
    <glyph glyph-name="Ubreve.sc" horiz-adv-x="504" 
d="M252 -8c-100 0 -172 60 -172 175v328h40v-325c0 -99 52 -143 132 -143c79 0 132 44 132 143v325h40v-328c0 -115 -72 -175 -172 -175zM252 564c-68 0 -106 45 -117 105l35 7c11 -42 30 -77 82 -77s71 35 82 77l35 -7c-11 -60 -49 -105 -117 -105z" />
    <glyph glyph-name="Ucircumflex.sc" horiz-adv-x="504" 
d="M252 -8c-100 0 -172 60 -172 175v328h40v-325c0 -99 52 -143 132 -143c79 0 132 44 132 143v325h40v-328c0 -115 -72 -175 -172 -175zM135 569l113 182h9l113 -182h-35l-82 119l-83 -119h-35z" />
    <glyph glyph-name="Udieresis.sc" horiz-adv-x="504" 
d="M252 -8c-100 0 -172 60 -172 175v328h40v-325c0 -99 52 -143 132 -143c79 0 132 44 132 143v325h40v-328c0 -115 -72 -175 -172 -175zM328 586c-17 0 -32 14 -32 32s15 32 32 32s32 -14 32 -32s-15 -32 -32 -32zM176 586c-17 0 -32 14 -32 32s15 32 32 32s32 -14 32 -32
s-15 -32 -32 -32z" />
    <glyph glyph-name="Ugrave.sc" horiz-adv-x="504" 
d="M252 -8c-100 0 -172 60 -172 175v328h40v-325c0 -99 52 -143 132 -143c79 0 132 44 132 143v325h40v-328c0 -115 -72 -175 -172 -175zM234 562l-88 195h46l75 -195h-33z" />
    <glyph glyph-name="Uhungarumlaut.sc" horiz-adv-x="504" 
d="M252 -8c-100 0 -172 60 -172 175v328h40v-325c0 -99 52 -143 132 -143c79 0 132 44 132 143v325h40v-328c0 -115 -72 -175 -172 -175zM295 572l75 195h46l-88 -195h-33zM178 572l75 195h46l-88 -195h-33z" />
    <glyph glyph-name="Umacron.sc" horiz-adv-x="504" 
d="M252 -8c-100 0 -172 60 -172 175v328h40v-325c0 -99 52 -143 132 -143c79 0 132 44 132 143v325h40v-328c0 -115 -72 -175 -172 -175zM145 592v34h214v-34h-214z" />
    <glyph glyph-name="Uogonek.sc" horiz-adv-x="504" 
d="M238 -8c-93 6 -158 66 -158 175v328h40v-325c0 -99 52 -143 132 -143c79 0 132 44 132 143v325h40v-328c0 -105 -60 -164 -147 -174l-29 -44c-24 -38 -38 -58 -38 -93c0 -34 24 -50 49 -50c29 0 45 19 58 41l30 -18c-14 -30 -42 -57 -90 -57c-44 0 -86 27 -86 82
c0 44 22 77 42 104z" />
    <glyph glyph-name="Uring.sc" horiz-adv-x="504" 
d="M252 -8c-100 0 -172 60 -172 175v328h40v-325c0 -99 52 -143 132 -143c79 0 132 44 132 143v325h40v-328c0 -115 -72 -175 -172 -175zM252 523c-52 0 -94 41 -94 92s42 92 94 92s94 -41 94 -92s-42 -92 -94 -92zM252 554c34 0 58 24 58 61s-24 61 -58 61s-58 -24 -58 -61
s24 -61 58 -61z" />
    <glyph glyph-name="Yacute.sc" horiz-adv-x="463" 
d="M212 0v184l-171 311h45l120 -219c14 -26 26 -64 26 -64s16 39 29 64l119 219h42l-170 -309v-186h-40zM215 562l75 195h46l-88 -195h-33z" />
    <glyph glyph-name="Ydieresis.sc" horiz-adv-x="463" 
d="M212 0v184l-171 311h45l120 -219c13 -25 25 -60 26 -64c1 2 16 39 29 64l119 219h42l-170 -309v-186h-40zM155 586c-17 0 -32 14 -32 32s15 32 32 32s32 -14 32 -32s-15 -32 -32 -32zM307 586c-17 0 -32 14 -32 32s15 32 32 32s32 -14 32 -32s-15 -32 -32 -32z" />
    <glyph glyph-name="Zacute.sc" horiz-adv-x="450" 
d="M45 0v7l292 453h-258v35h319v-8l-293 -452h292v-35h-352zM218 562l75 195h46l-88 -195h-33z" />
    <glyph glyph-name="Zcaron.sc" horiz-adv-x="450" 
d="M45 0v7l292 453h-258v35h319v-8l-293 -452h292v-35h-352zM230 561l-113 182h35l82 -119l83 119h35l-113 -182h-9z" />
    <glyph glyph-name="Zdotaccent.sc" horiz-adv-x="450" 
d="M45 0v7l292 453h-258v35h319v-8l-293 -452h292v-35h-352zM234 586c-17 0 -33 13 -33 33c0 19 16 33 33 33s33 -14 33 -33c0 -20 -16 -33 -33 -33z" />
    <glyph glyph-name="space.sc" horiz-adv-x="244" 
 />
    <glyph glyph-name="dollar.sc" horiz-adv-x="404" 
d="M183 -7c-79 8 -139 55 -163 106l33 16c23 -45 68 -81 130 -88v219l-12 4c-77 26 -125 60 -125 133c0 69 60 115 137 120v107h34v-108c65 -7 111 -46 131 -87l-31 -17c-20 36 -49 64 -100 70v-195l19 -6c94 -32 136 -70 136 -143c0 -76 -60 -128 -155 -132v-112h-34v113z
M183 469c-57 -4 -98 -32 -98 -86s31 -75 95 -97l3 -1v184zM217 26c71 4 116 40 116 98c0 59 -31 82 -106 107l-10 3v-208z" />
    <glyph glyph-name="cent.sc" horiz-adv-x="350" 
d="M175 -106v99c-81 11 -142 80 -142 168c0 87 61 156 142 167v98h34v-97c46 -3 82 -19 111 -50l-27 -23c-21 23 -48 37 -84 40v-271c40 3 72 20 93 45l27 -23c-28 -33 -69 -52 -120 -55v-98h-34zM175 27v267c-61 -10 -102 -64 -102 -133c0 -70 41 -124 102 -134z" />
    <glyph glyph-name="Euro.sc" horiz-adv-x="523" 
d="M305 -8c-99 0 -173 69 -199 177h-77v32h71c-3 24 -4 53 -2 78h-69v32h73c20 113 97 192 203 192c81 0 132 -41 169 -100l-33 -21c-31 51 -66 85 -136 85c-88 0 -146 -64 -163 -156h213v-32h-217c-2 -25 -1 -53 2 -78h215v-32h-208c20 -87 77 -141 158 -141
c77 0 116 38 145 87l34 -20c-35 -59 -87 -103 -179 -103z" />
    <glyph glyph-name="sterling.sc" horiz-adv-x="455" 
d="M142 214h-75v33h61c-14 35 -27 72 -27 113c0 83 59 143 152 143c73 0 128 -40 152 -95l-33 -17c-21 46 -61 77 -119 77c-70 0 -111 -42 -111 -108c0 -41 12 -77 26 -113h147v-33h-134c13 -36 25 -73 25 -116c0 -5 0 -10 -1 -16c33 -27 66 -55 114 -55c37 0 60 14 79 40
l28 -22c-27 -35 -59 -53 -107 -53c-51 0 -89 30 -124 58c-17 -35 -52 -58 -91 -58c-43 0 -78 28 -78 71s35 68 77 68c26 0 47 -9 67 -22c-2 38 -15 72 -28 105zM167 73c-20 16 -41 28 -63 28c-27 0 -45 -16 -45 -37c0 -24 19 -42 46 -42c29 0 54 16 62 51z" />
    <glyph glyph-name="yen.sc" horiz-adv-x="464" 
d="M213 0v94h-154v32h154v25l-25 49h-129v32h113l-133 263h43l134 -270c9 -18 16 -43 16 -43s8 26 16 43l136 270h41l-132 -263h113v-32h-129l-25 -49v-25h154v-32h-154v-94h-39z" />
    <glyph glyph-name="florin.sc" horiz-adv-x="334" 
d="M77 -94l37 328h-73v34h77l13 117c10 86 52 118 102 118c48 0 72 -21 89 -49l-28 -21c-13 20 -27 35 -60 35s-57 -16 -65 -84l-13 -116h87v-34h-91l-37 -328h-38z" />
    <glyph glyph-name="zero.sc" horiz-adv-x="515" 
d="M257 -8c-130 0 -208 110 -208 256c0 148 81 255 208 255c128 0 209 -107 209 -255c0 -146 -78 -256 -209 -256zM257 28c101 0 168 86 168 220c0 136 -67 219 -168 219s-167 -83 -167 -219c0 -134 66 -220 167 -220z" />
    <glyph glyph-name="one.sc" horiz-adv-x="249" 
d="M128 0v460h-95v35h135v-495h-40z" />
    <glyph glyph-name="two.sc" horiz-adv-x="419" 
d="M40 0v7l210 213c41 42 72 89 72 145c0 59 -33 103 -101 103c-63 0 -104 -40 -120 -104l-36 7c13 75 72 132 156 132c87 0 141 -57 141 -138c0 -64 -38 -121 -83 -167l-118 -120c-17 -17 -50 -45 -54 -47c2 0 37 4 65 4h197v-35h-329z" />
    <glyph glyph-name="three.sc" horiz-adv-x="419" 
d="M200 -8c-82 0 -143 44 -172 97l32 18c26 -44 69 -80 139 -80c88 0 137 53 137 127c0 77 -59 122 -146 122c-27 0 -45 -5 -58 -10l-3 4l133 156c12 14 40 39 40 39s-35 -5 -57 -5h-175v35h288v-7l-130 -151c-14 -16 -30 -29 -33 -31c103 1 180 -60 180 -152
c0 -96 -72 -162 -175 -162z" />
    <glyph glyph-name="four.sc" horiz-adv-x="444" 
d="M311 0v97h-279v23l312 380h7v-369h52v-34h-52v-97h-40zM79 127c0 0 36 4 57 4h175v214c0 21 5 74 5 76c-1 -1 -22 -35 -48 -67l-153 -187c-14 -17 -36 -40 -36 -40z" />
    <glyph glyph-name="five.sc" horiz-adv-x="419" 
d="M199 -8c-78 0 -138 43 -166 95l32 19c27 -43 67 -79 134 -79c90 0 137 49 137 128c0 78 -49 126 -132 126c-51 0 -98 -18 -126 -44l-4 2v257h270v-35h-234v-172c24 15 61 26 97 26c102 0 168 -67 168 -160c0 -95 -64 -163 -176 -163z" />
    <glyph glyph-name="six.sc" horiz-adv-x="444" 
d="M222 -8c-101 0 -173 71 -173 169c0 44 15 79 40 115l159 219h44l-96 -131c-18 -25 -55 -65 -55 -65c26 18 60 31 92 31c91 0 161 -74 161 -168s-71 -170 -172 -170zM222 27c82 0 133 58 133 135c0 75 -50 135 -133 135c-82 0 -134 -61 -134 -135c0 -77 52 -135 134 -135z
" />
    <glyph glyph-name="seven.sc" horiz-adv-x="413" 
d="M91 0l231 461h-283v35h339v-4l-245 -492h-42z" />
    <glyph glyph-name="eight.sc" horiz-adv-x="432" 
d="M216 -8c-102 0 -172 59 -172 142c0 72 51 117 109 130c-49 15 -80 58 -80 113c0 71 62 126 143 126s143 -54 143 -126c0 -55 -32 -99 -81 -113c62 -13 110 -58 110 -130c0 -83 -70 -142 -172 -142zM216 27c82 0 132 42 132 108c0 70 -50 110 -132 110
c-81 0 -132 -40 -132 -110c0 -67 51 -108 132 -108zM216 279c64 0 104 36 104 97c0 56 -41 94 -104 94s-104 -38 -104 -94c0 -61 40 -97 104 -97z" />
    <glyph glyph-name="nine.sc" horiz-adv-x="439" 
d="M155 0l107 151c14 20 40 45 40 45c-28 -22 -59 -32 -94 -32c-92 0 -162 75 -162 170c0 94 71 169 174 169c102 0 172 -71 172 -168c0 -43 -15 -83 -40 -119l-153 -216h-44zM220 197c82 0 133 62 133 137c0 72 -48 135 -133 135c-84 0 -135 -61 -135 -135
c0 -75 49 -137 135 -137z" />
    <glyph glyph-name="percent.sc" horiz-adv-x="723" 
d="M173 219c-75 0 -143 59 -143 142c0 82 68 142 143 142c74 0 142 -60 142 -142c0 -83 -68 -142 -142 -142zM188 0l308 495h40l-308 -495h-40zM551 -8c-75 0 -142 59 -142 142c0 82 67 142 142 142s142 -60 142 -142c0 -83 -67 -142 -142 -142zM173 252
c58 0 105 44 105 109s-47 108 -105 108s-106 -43 -106 -108s48 -109 106 -109zM551 25c58 0 105 44 105 109c0 64 -47 108 -105 108s-105 -44 -105 -108c0 -65 47 -109 105 -109z" />
    <glyph glyph-name="perthousand.sc" horiz-adv-x="1057" 
d="M173 219c-75 0 -143 59 -143 142c0 82 68 142 143 142c74 0 142 -60 142 -142c0 -83 -68 -142 -142 -142zM188 0l308 495h40l-308 -495h-40zM885 -8c-75 0 -142 59 -142 142c0 82 67 142 142 142s142 -60 142 -142c0 -83 -67 -142 -142 -142zM551 -8
c-75 0 -142 59 -142 142c0 82 67 142 142 142s142 -60 142 -142c0 -83 -67 -142 -142 -142zM173 252c58 0 105 44 105 109s-47 108 -105 108s-106 -43 -106 -108s48 -109 106 -109zM885 25c58 0 105 44 105 109c0 64 -47 108 -105 108s-105 -44 -105 -108
c0 -65 47 -109 105 -109zM551 25c58 0 105 44 105 109c0 64 -47 108 -105 108s-105 -44 -105 -108c0 -65 47 -109 105 -109z" />
    <glyph glyph-name="plus.sc" horiz-adv-x="355" 
d="M158 95v132h-119v36h119v132h38v-132h120v-36h-120v-132h-38z" />
    <glyph glyph-name="minus.sc" horiz-adv-x="355" 
d="M316 227h-277v36h277v-36z" />
    <glyph glyph-name="multiply.sc" horiz-adv-x="352" 
d="M176 218l-105 -105l-26 26l105 105l-105 105l26 26l105 -105l105 105l26 -26l-105 -105l105 -105l-26 -26z" />
    <glyph glyph-name="divide.sc" horiz-adv-x="355" 
d="M316 227h-277v36h277v-36zM177 335c-19 0 -38 17 -38 38c0 22 19 38 38 38c20 0 38 -16 38 -38c0 -21 -18 -38 -38 -38zM177 79c-19 0 -38 17 -38 38c0 22 19 38 38 38c20 0 38 -16 38 -38c0 -21 -18 -38 -38 -38z" />
    <glyph glyph-name="equal.sc" horiz-adv-x="355" 
d="M45 283v36h265v-36h-265zM45 170v36h265v-36h-265z" />
    <glyph glyph-name="less.sc" horiz-adv-x="355" 
d="M300 105l-258 134v10l258 132v-39l-196 -98l196 -99v-40z" />
    <glyph glyph-name="greater.sc" horiz-adv-x="355" 
d="M55 105v39l196 98l-196 99v40l258 -134v-10z" />
    <glyph glyph-name="degree.sc" horiz-adv-x="322" 
d="M161 294c-59 0 -106 46 -106 104c0 59 47 105 106 105c58 0 106 -46 106 -105c0 -58 -48 -104 -106 -104zM161 324c43 0 71 32 71 74c0 43 -28 75 -71 75s-72 -32 -72 -75c0 -42 29 -74 72 -74z" />
    <glyph glyph-name="period.sc" horiz-adv-x="180" 
d="M90 -7c-20 0 -40 18 -40 40c0 23 20 40 40 40c21 0 40 -17 40 -40c0 -22 -19 -40 -40 -40z" />
    <glyph glyph-name="comma.sc" horiz-adv-x="180" 
d="M40 -111l39 107c-16 4 -29 18 -29 37c0 22 20 40 40 40c21 0 40 -18 40 -40c0 -5 -2 -15 -4 -19l-61 -125h-25z" />
    <glyph glyph-name="colon.sc" horiz-adv-x="190" 
d="M95 214c-20 0 -40 18 -40 40c0 23 20 41 40 41c21 0 40 -18 40 -41c0 -22 -19 -40 -40 -40zM95 -7c-20 0 -40 18 -40 40c0 23 20 41 40 41c21 0 40 -18 40 -41c0 -22 -19 -40 -40 -40z" />
    <glyph glyph-name="semicolon.sc" horiz-adv-x="190" 
d="M95 214c-20 0 -40 18 -40 40c0 23 20 41 40 41c21 0 40 -18 40 -41c0 -22 -19 -40 -40 -40zM45 -111l39 107c-16 4 -29 18 -29 37c0 22 20 40 40 40c21 0 40 -18 40 -40c0 -5 -2 -15 -4 -19l-61 -125h-25z" />
    <glyph glyph-name="parenleft.sc" horiz-adv-x="261" 
d="M206 -57c-86 88 -165 220 -165 397c0 176 80 310 165 397l26 -23c-79 -87 -150 -203 -150 -374c0 -172 72 -287 150 -374z" />
    <glyph glyph-name="parenright.sc" horiz-adv-x="261" 
d="M55 -57l-26 23c79 87 150 203 150 374c0 172 -72 287 -150 374l26 23c86 -88 165 -220 165 -397c0 -176 -80 -310 -165 -397z" />
    <glyph glyph-name="bracketleft.sc" horiz-adv-x="290" 
d="M83 -52v784h168v-35h-128v-714h128v-35h-168z" />
    <glyph glyph-name="bracketright.sc" horiz-adv-x="290" 
d="M39 -52v35h128v714h-128v35h168v-784h-168z" />
    <glyph glyph-name="braceleft.sc" horiz-adv-x="345" 
d="M262 -52c-61 0 -121 25 -121 144v147c0 56 -22 71 -59 71h-57v35h57c37 0 59 15 59 71v172c0 119 60 144 121 144h44v-35h-43c-49 0 -82 -22 -82 -109v-175c0 -57 -23 -77 -52 -85c29 -7 52 -30 52 -86v-150c0 -87 33 -109 82 -109h43v-35h-44z" />
    <glyph glyph-name="braceright.sc" horiz-adv-x="345" 
d="M39 -52v35h43c49 0 82 22 82 109v150c0 57 23 77 52 85c-29 7 -52 30 -52 86v175c0 87 -33 109 -82 109h-43v35h44c61 0 121 -25 121 -144v-172c0 -56 22 -71 59 -71h57v-35h-57c-37 0 -59 -15 -59 -71v-147c0 -119 -60 -144 -121 -144h-44z" />
    <glyph glyph-name="slash.sc" horiz-adv-x="440" 
d="M29 -128l311 850h41l-311 -850h-41z" />
    <glyph glyph-name="section.sc" horiz-adv-x="423" 
d="M100 316c-11 18 -17 39 -17 66c0 71 55 121 128 121c68 0 109 -34 128 -77l-33 -17c-18 37 -46 59 -95 59c-54 0 -89 -36 -89 -85c0 -50 30 -77 74 -96l82 -36c75 -33 105 -65 105 -117c0 -42 -26 -72 -64 -89c13 -18 20 -38 20 -63c0 -64 -45 -115 -136 -115
c-65 0 -128 35 -155 90l33 17c25 -46 69 -72 121 -72c66 0 98 34 98 79s-32 70 -81 91l-76 32c-74 32 -103 63 -103 118c0 42 24 75 60 94zM297 69c28 11 47 34 47 62c0 40 -24 62 -82 87l-82 35c-24 10 -46 23 -62 40c-25 -15 -39 -40 -39 -66c0 -43 19 -65 76 -89l79 -33
c25 -10 46 -22 63 -36z" />
    <glyph glyph-name="numbersign.sc" horiz-adv-x="431" 
d="M72 192l28 111h-72v34h80l31 124h-80v34h88l29 115h36l-29 -115h111l29 115h36l-29 -115h73v-34h-81l-31 -124h80v-34h-89l-27 -111h-37l28 111h-111l-27 -111h-36zM144 337h111l31 124h-111z" />
    <glyph glyph-name="summation.sc" horiz-adv-x="442" 
d="M47 0v7l195 247l-199 233v8h336v-35h-267c1 -1 14 -13 24 -25l151 -177v-6l-151 -191c-9 -11 -25 -27 -25 -27s16 1 38 1h241v-35h-343z" />
    <glyph glyph-name="G.scalt" horiz-adv-x="593" 
d="M307 -8c-140 0 -254 106 -254 256c0 149 114 255 253 255c85 0 154 -33 201 -98l-30 -22c-39 56 -95 84 -171 84c-124 0 -213 -95 -213 -219c0 -125 90 -221 214 -221c123 0 188 79 201 162h-178v35h220c-5 -134 -99 -232 -243 -232z" />
    <glyph glyph-name="M.scalt" horiz-adv-x="642" 
d="M61 0l60 502h8l169 -306c12 -22 21 -52 23 -57c1 4 11 36 23 57l169 306h8l60 -502h-39l-38 324c-5 39 -6 86 -6 89c-2 -5 -16 -48 -35 -81l-138 -245h-8l-139 246c-20 35 -34 77 -35 81c0 -1 0 -47 -5 -87l-39 -327h-38z" />
    <glyph glyph-name="Q.scalt1" horiz-adv-x="619" 
d="M328 -7v-111h-37v111c-131 9 -239 112 -239 255c0 150 118 255 258 255c141 0 257 -105 257 -255c0 -144 -106 -247 -239 -255zM291 27v111h37v-111c116 8 198 102 198 221c0 125 -90 220 -216 220s-217 -95 -217 -220c0 -119 82 -212 198 -221z" />
    <glyph glyph-name="Q.scalt2" horiz-adv-x="619" 
d="M317 -8l8 -6c37 -29 65 -52 127 -52c37 0 62 19 78 34l25 -27c-22 -22 -53 -43 -102 -43c-68 0 -115 34 -152 63c-35 28 -64 54 -107 54s-73 -23 -95 -57l-27 20c20 30 48 53 84 62c-63 45 -104 118 -104 208c0 150 118 255 258 255c141 0 257 -105 257 -255
c0 -147 -112 -252 -250 -256zM310 27c126 0 216 96 216 221c0 124 -90 220 -216 220s-217 -96 -217 -220c0 -125 91 -221 217 -221z" />
    <glyph glyph-name="Gbreve.scalt" horiz-adv-x="593" 
d="M307 -8c-140 0 -254 106 -254 256c0 149 114 255 253 255c85 0 154 -33 201 -98l-30 -22c-39 56 -95 84 -171 84c-124 0 -213 -95 -213 -219c0 -125 90 -221 214 -221c123 0 188 79 201 162h-178v35h220c-5 -134 -99 -232 -243 -232zM301 564c-68 0 -106 45 -117 105
l35 7c11 -42 30 -77 82 -77s71 35 82 77l35 -7c-11 -60 -49 -105 -117 -105z" />
    <glyph glyph-name="Gcircumflex.scalt" horiz-adv-x="593" 
d="M307 -8c-140 0 -254 106 -254 256c0 149 114 255 253 255c85 0 154 -33 201 -98l-30 -22c-39 56 -95 84 -171 84c-124 0 -213 -95 -213 -219c0 -125 90 -221 214 -221c123 0 188 79 201 162h-178v35h220c-5 -134 -99 -232 -243 -232zM184 569l113 182h9l113 -182h-35
l-82 119l-83 -119h-35z" />
    <glyph glyph-name="Gcommaaccent.scalt" horiz-adv-x="593" 
d="M307 -8c-140 0 -254 106 -254 256c0 149 114 255 253 255c85 0 154 -33 201 -98l-30 -22c-39 56 -95 84 -171 84c-124 0 -213 -95 -213 -219c0 -125 90 -221 214 -221c123 0 188 79 201 162h-178v35h220c-5 -134 -99 -232 -243 -232zM260 -243l32 100
c-14 3 -27 18 -27 36c0 22 19 40 39 40s39 -18 39 -40c0 -5 -2 -12 -5 -19l-53 -117h-25z" />
    <glyph glyph-name="Gdotaccent.scalt" horiz-adv-x="593" 
d="M307 -8c-140 0 -254 106 -254 256c0 149 114 255 253 255c85 0 154 -33 201 -98l-30 -22c-39 56 -95 84 -171 84c-124 0 -213 -95 -213 -219c0 -125 90 -221 214 -221c123 0 188 79 201 162h-178v35h220c-5 -134 -99 -232 -243 -232zM301 586c-17 0 -33 13 -33 33
c0 19 16 33 33 33s33 -14 33 -33c0 -20 -16 -33 -33 -33z" />
    <glyph glyph-name="space.sctab" horiz-adv-x="200" 
 />
    <glyph glyph-name="dollar.sctab" 
d="M231 -6c-79 8 -142 50 -170 109l33 16c23 -53 75 -84 137 -91v218l-12 4c-83 25 -132 57 -132 134c0 73 69 114 144 119v107h34v-108c64 -7 118 -47 139 -91l-31 -17c-21 40 -55 68 -108 74v-193l19 -6c96 -29 143 -70 143 -144c0 -83 -60 -131 -162 -133v-112h-34v114z
M231 469c-58 -4 -105 -28 -105 -85c0 -60 32 -77 102 -98l3 -1v184zM265 26c82 2 123 36 123 99c0 60 -36 85 -113 108l-10 3v-210z" />
    <glyph glyph-name="cent.sctab" 
d="M284 -8v-98h-34v99c-81 11 -142 80 -142 168c0 87 61 156 142 167v98h34v-97c46 -3 82 -19 111 -50l-27 -23c-21 23 -48 37 -84 40v-271c40 3 72 20 93 45l27 -23c-28 -33 -69 -52 -120 -55zM250 27v267c-61 -10 -102 -64 -102 -133c0 -70 41 -124 102 -134z" />
    <glyph glyph-name="Euro.sctab" 
d="M292 -8c-96 0 -167 69 -191 174h-78v32h72c-2 15 -3 32 -3 49c0 10 0 20 1 29h-70v32h74c19 117 92 195 194 195c79 0 126 -36 163 -97l-32 -20c-32 52 -62 81 -131 81c-83 0 -138 -63 -154 -159h196v-32h-200c-1 -9 -1 -19 -1 -29c0 -17 1 -33 3 -49h198v-32h-192
c19 -84 72 -138 151 -138c70 0 108 37 137 85l34 -18c-36 -62 -87 -103 -171 -103z" />
    <glyph glyph-name="sterling.sctab" 
d="M164 214h-75v33h61c-14 35 -27 72 -27 113c0 83 59 143 152 143c73 0 128 -40 152 -95l-33 -17c-21 46 -61 77 -119 77c-70 0 -111 -42 -111 -108c0 -41 12 -77 26 -113h147v-33h-134c13 -36 25 -73 25 -116c0 -5 0 -10 -1 -16c33 -27 66 -55 114 -55c37 0 60 14 79 40
l28 -22c-27 -35 -59 -53 -107 -53c-51 0 -89 30 -124 58c-17 -35 -52 -58 -91 -58c-43 0 -78 28 -78 71s35 68 77 68c26 0 47 -9 67 -22c-2 38 -15 72 -28 105zM189 73c-20 16 -41 28 -63 28c-27 0 -45 -16 -45 -37c0 -24 19 -42 46 -42c29 0 54 16 62 51z" />
    <glyph glyph-name="yen.sctab" 
d="M52 147v33h170l-47 84h-123v33h105l-109 198h46l131 -243c11 -21 20 -47 22 -51c0 2 10 30 22 51l140 243h42l-116 -198h102v-33h-122l-49 -84h171v-33h-172v-147h-41v147h-172z" />
    <glyph glyph-name="florin.sctab" 
d="M189 229h-93v33h97l11 97c11 100 64 144 127 144c62 0 95 -33 113 -69l-30 -18c-16 30 -34 52 -82 52c-46 0 -80 -30 -89 -110l-11 -96h128v-33h-132l-36 -323h-39z" />
    <glyph glyph-name="zero.sctab" 
d="M249 -8c-130 0 -206 110 -206 256c0 148 79 255 206 255c128 0 207 -107 207 -255c0 -146 -76 -256 -207 -256zM249 28c101 0 166 86 166 220c0 136 -65 219 -166 219s-165 -83 -165 -219c0 -134 64 -220 165 -220z" />
    <glyph glyph-name="one.sctab" 
d="M230 35v425h-133v35h173v-460h130v-35h-309v35h139z" />
    <glyph glyph-name="two.sctab" 
d="M80 0v7l210 213c41 42 72 89 72 145c0 59 -33 103 -101 103c-63 0 -104 -40 -120 -104l-36 7c13 75 72 132 156 132c87 0 141 -57 141 -138c0 -64 -38 -121 -83 -167l-118 -120c-17 -17 -50 -45 -54 -47c2 0 37 4 65 4h197v-35h-329z" />
    <glyph glyph-name="three.sctab" 
d="M240 -8c-82 0 -143 44 -172 97l32 18c26 -44 69 -80 139 -80c88 0 137 53 137 127c0 77 -59 122 -146 122c-27 0 -45 -5 -58 -10l-3 4l133 156c12 14 40 39 40 39s-35 -5 -57 -5h-175v35h288v-7l-130 -151c-14 -16 -30 -29 -33 -31c103 1 180 -60 180 -152
c0 -96 -72 -162 -175 -162z" />
    <glyph glyph-name="four.sctab" 
d="M379 131h52v-34h-52v-97h-40v97h-279v23l312 380h7v-369zM339 131v214c0 21 5 74 5 76c-1 -1 -22 -35 -48 -67l-153 -187c-14 -17 -36 -40 -36 -40s36 4 57 4h175z" />
    <glyph glyph-name="five.sctab" 
d="M241 -8c-78 0 -138 43 -166 95l32 19c27 -43 67 -79 134 -79c90 0 137 49 137 128c0 78 -49 126 -132 126c-51 0 -98 -18 -126 -44l-4 2v257h270v-35h-234v-172c24 15 61 26 97 26c102 0 168 -67 168 -160c0 -95 -64 -163 -176 -163z" />
    <glyph glyph-name="six.sctab" 
d="M250 -8c-101 0 -173 71 -173 169c0 44 15 79 40 115l159 219h44l-96 -131c-18 -25 -55 -65 -55 -65c26 18 60 31 92 31c91 0 161 -74 161 -168s-71 -170 -172 -170zM250 27c82 0 133 58 133 135c0 75 -50 135 -133 135c-82 0 -134 -61 -134 -135c0 -77 52 -135 134 -135z
" />
    <glyph glyph-name="seven.sctab" 
d="M134 0l231 461h-283v35h339v-4l-245 -492h-42z" />
    <glyph glyph-name="eight.sctab" 
d="M250 -8c-102 0 -172 59 -172 142c0 72 51 117 109 130c-49 15 -80 58 -80 113c0 71 62 126 143 126s143 -54 143 -126c0 -55 -32 -99 -81 -113c62 -13 110 -58 110 -130c0 -83 -70 -142 -172 -142zM250 27c82 0 132 42 132 108c0 70 -50 110 -132 110
c-81 0 -132 -40 -132 -110c0 -67 51 -108 132 -108zM250 279c64 0 104 36 104 97c0 56 -41 94 -104 94s-104 -38 -104 -94c0 -61 40 -97 104 -97z" />
    <glyph glyph-name="nine.sctab" 
d="M185 0l107 151c14 20 40 45 40 45c-28 -22 -59 -32 -94 -32c-92 0 -162 75 -162 170c0 94 71 169 174 169c102 0 172 -71 172 -168c0 -43 -15 -83 -40 -119l-153 -216h-44zM250 197c82 0 133 62 133 137c0 72 -48 135 -133 135c-84 0 -135 -61 -135 -135
c0 -75 49 -137 135 -137z" />
    <glyph glyph-name="percent.sctab" horiz-adv-x="750" 
d="M186 219c-75 0 -143 59 -143 142c0 82 68 142 143 142c74 0 142 -60 142 -142c0 -83 -68 -142 -142 -142zM201 0l308 495h40l-308 -495h-40zM564 -8c-75 0 -142 59 -142 142c0 82 67 142 142 142s142 -60 142 -142c0 -83 -67 -142 -142 -142zM186 252
c58 0 105 44 105 109s-47 108 -105 108s-106 -43 -106 -108s48 -109 106 -109zM564 25c58 0 105 44 105 109c0 64 -47 108 -105 108s-105 -44 -105 -108c0 -65 47 -109 105 -109z" />
    <glyph glyph-name="perthousand.sctab" horiz-adv-x="1100" 
d="M194 219c-75 0 -143 59 -143 142c0 82 68 142 143 142c74 0 142 -60 142 -142c0 -83 -68 -142 -142 -142zM209 0l308 495h40l-308 -495h-40zM906 -8c-75 0 -142 59 -142 142c0 82 67 142 142 142s142 -60 142 -142c0 -83 -67 -142 -142 -142zM572 -8
c-75 0 -142 59 -142 142c0 82 67 142 142 142s142 -60 142 -142c0 -83 -67 -142 -142 -142zM194 252c58 0 105 44 105 109s-47 108 -105 108s-106 -43 -106 -108s48 -109 106 -109zM906 25c58 0 105 44 105 109c0 64 -47 108 -105 108s-105 -44 -105 -108
c0 -65 47 -109 105 -109zM572 25c58 0 105 44 105 109c0 64 -47 108 -105 108s-105 -44 -105 -108c0 -65 47 -109 105 -109z" />
    <glyph glyph-name="plus.sctab" 
d="M269 227v-162h-38v162h-149v36h149v162h38v-162h149v-36h-149z" />
    <glyph glyph-name="minus.sctab" 
d="M82 227v36h336v-36h-336z" />
    <glyph glyph-name="multiply.sctab" 
d="M251 218l-129 -129l-26 26l129 129l-129 129l26 26l129 -129l129 129l26 -26l-129 -129l129 -129l-26 -26z" />
    <glyph glyph-name="divide.sctab" 
d="M249 355c-19 0 -38 17 -38 38c0 22 19 38 38 38c20 0 38 -16 38 -38c0 -21 -18 -38 -38 -38zM81 227v36h337v-36h-337zM249 59c-19 0 -38 17 -38 38c0 22 19 38 38 38c20 0 38 -16 38 -38c0 -21 -18 -38 -38 -38z" />
    <glyph glyph-name="equal.sctab" 
d="M82 283v36h336v-36h-336zM82 170v36h336v-36h-336z" />
    <glyph glyph-name="less.sctab" 
d="M390 85l-308 154v10l308 152v-39l-243 -119l243 -120v-38z" />
    <glyph glyph-name="greater.sctab" 
d="M110 85v39l243 119l-243 120v38l308 -154v-10z" />
    <glyph glyph-name="degree.sctab" horiz-adv-x="322" 
d="M161 294c-59 0 -106 46 -106 104c0 59 47 105 106 105c58 0 106 -46 106 -105c0 -58 -48 -104 -106 -104zM161 324c43 0 71 32 71 74c0 43 -28 75 -71 75s-72 -32 -72 -75c0 -42 29 -74 72 -74z" />
    <glyph glyph-name="period.sctab" horiz-adv-x="200" 
d="M100 -7c-20 0 -40 18 -40 40c0 23 20 40 40 40c21 0 40 -17 40 -40c0 -22 -19 -40 -40 -40z" />
    <glyph glyph-name="comma.sctab" horiz-adv-x="200" 
d="M50 -111l39 107c-16 4 -29 18 -29 37c0 22 20 40 40 40c21 0 40 -18 40 -40c0 -5 -2 -15 -4 -19l-61 -125h-25z" />
    <glyph glyph-name="colon.sctab" horiz-adv-x="200" 
d="M100 214c-20 0 -40 18 -40 40c0 23 20 41 40 41c21 0 40 -18 40 -41c0 -22 -19 -40 -40 -40zM100 -7c-20 0 -40 18 -40 40c0 23 20 41 40 41c21 0 40 -18 40 -41c0 -22 -19 -40 -40 -40z" />
    <glyph glyph-name="semicolon.sctab" horiz-adv-x="200" 
d="M100 214c-20 0 -40 18 -40 40c0 23 20 41 40 41c21 0 40 -18 40 -41c0 -22 -19 -40 -40 -40zM50 -111l39 107c-16 4 -29 18 -29 37c0 22 20 40 40 40c21 0 40 -18 40 -40c0 -5 -2 -15 -4 -19l-61 -125h-25z" />
    <glyph glyph-name="parenleft.sctab" horiz-adv-x="300" 
d="M225 -57c-86 88 -165 220 -165 397c0 176 80 310 165 397l26 -23c-79 -87 -150 -203 -150 -374c0 -172 72 -287 150 -374z" />
    <glyph glyph-name="parenright.sctab" horiz-adv-x="300" 
d="M74 -57l-26 23c79 87 150 203 150 374c0 172 -72 287 -150 374l26 23c86 -88 165 -220 165 -397c0 -176 -80 -310 -165 -397z" />
    <glyph glyph-name="bracketleft.sctab" horiz-adv-x="300" 
d="M88 -52v784h168v-35h-128v-714h128v-35h-168z" />
    <glyph glyph-name="bracketright.sctab" horiz-adv-x="300" 
d="M44 -52v35h128v714h-128v35h168v-784h-168z" />
    <glyph glyph-name="braceleft.sctab" horiz-adv-x="300" 
d="M222 -52c-61 0 -121 25 -121 144v147c0 56 -22 71 -59 71h-40v35h40c37 0 59 15 59 71v172c0 119 60 144 121 144h34v-35h-33c-49 0 -82 -22 -82 -109v-175c0 -57 -23 -77 -52 -85c29 -7 52 -30 52 -86v-150c0 -87 33 -109 82 -109h33v-35h-34z" />
    <glyph glyph-name="braceright.sctab" horiz-adv-x="300" 
d="M43 -52v35h33c49 0 82 22 82 109v150c0 57 23 77 52 85c-29 7 -52 30 -52 86v175c0 87 -33 109 -82 109h-33v35h34c61 0 121 -25 121 -144v-172c0 -56 22 -71 59 -71h40v-35h-40c-37 0 -59 -15 -59 -71v-147c0 -119 -60 -144 -121 -144h-34z" />
    </font>
</defs>
</svg>
