<?xml version="1.0" standalone="no"?>
<!DOCTYPE svg PUBLIC "-//W3C//DTD SVG 1.1//EN" "http://www.w3.org/Graphics/SVG/1.1/DTD/svg11.dtd" >
<svg xmlns="http://www.w3.org/2000/svg">
<metadata></metadata>
<defs>
<font id="vodafoneuclight" horiz-adv-x="1026" >
<font-face units-per-em="2048" ascent="1638" descent="-410" />
<missing-glyph horiz-adv-x="419" />
<glyph horiz-adv-x="1945" />
<glyph horiz-adv-x="1945" />
<glyph unicode="&#xd;" horiz-adv-x="1024" />
<glyph unicode=" "  horiz-adv-x="419" />
<glyph unicode="&#x09;" horiz-adv-x="419" />
<glyph unicode="&#xa0;" horiz-adv-x="419" />
<glyph unicode="!" horiz-adv-x="342" d="M92 66q0 40 22 63t58 23t59 -23t23 -63q0 -41 -23 -65t-59 -24t-58 24t-22 65zM121 424v942h102v-942h-102z" />
<glyph unicode="&#x22;" horiz-adv-x="561" d="M104 760v606h97v-606h-97zM360 760v606h99v-606h-99z" />
<glyph unicode="#" horiz-adv-x="1132" d="M10 506v96h328v305h-328v94h328v365h92v-365h272v365h95v-365h325v-94h-325v-305h325v-96h-325v-354h-95v354h-272v-354h-92v354h-328zM430 602h272v305h-272v-305z" />
<glyph unicode="$" d="M102 141l68 84q49 -62 129 -104t164 -43v608q-101 41 -170 89t-102 98.5t-45 95t-9 94.5q0 146 93.5 231t232.5 90v252h90v-252q111 -4 194.5 -52.5t135.5 -121.5l-68 -65q-106 135 -262 143v-520q94 -44 154 -81.5t104.5 -87t64 -110.5t19.5 -143q0 -156 -89.5 -254.5 t-252.5 -111.5v-254h-90v254q-119 4 -210.5 50.5t-150.5 110.5zM242 1077q0 -39 9 -73.5t21 -59t34.5 -47.5t37.5 -35.5t43.5 -27.5t39 -19.5t36.5 -15.5v489q-104 -4 -162.5 -61t-58.5 -150zM553 78q111 11 173 79.5t62 184.5q2 61 -14.5 109t-52 85t-73.5 62.5t-95 54.5 v-575z" />
<glyph unicode="%" horiz-adv-x="1394" d="M57 57l1211 1319l63 -67l-1210 -1323zM63 1079q0 69 26.5 127.5t67.5 95t89 56.5t94 20q95 0 160 -59q61 -54 87.5 -120t26.5 -120q0 -93 -47 -170q-83 -131 -227 -131q-117 0 -197 87.5t-80 213.5zM152 1079q0 -91 53.5 -153t132.5 -62q49 0 87 23.5t58.5 59t30.5 69.5 t10 63q0 76 -41 129q-60 84 -145 84q-70 0 -115 -45q-71 -64 -71 -168zM784 287q-2 69 24.5 128t69 95t90.5 56t91 20q70 2 127.5 -32.5t89 -84.5t47.5 -99t14 -83q0 -93 -47 -170q-79 -131 -231 -131q-115 0 -195 87.5t-80 213.5zM874 287q0 -88 53.5 -150.5t131.5 -62.5 q45 -1 84.5 24t61.5 60.5t33 71t7 57.5q1 47 -14 86t-37 63t-48.5 40t-49 22t-37.5 4q-40 0 -73.5 -17t-54.5 -43t-35 -55.5t-19.5 -56t-2.5 -43.5z" />
<glyph unicode="&#x26;" horiz-adv-x="1134" d="M51 350q0 278 293 441l62 34q-60 83 -95 155t-35 142q0 117 79 186.5t210 69.5q216 0 295 -202l-74 -52q-40 90 -93.5 130t-127.5 40q-85 0 -135.5 -47.5t-50.5 -120.5q0 -74 43 -147q39 -65 74 -113l299 -446l215 373l71 -54l-225 -397l234 -342h-113l-170 252 q-77 -138 -173 -206.5t-222 -68.5q-169 0 -265 106t-96 267zM152 354q0 -123 70.5 -204.5t193.5 -81.5q186 0 327 260l-292 426l-56 -31q-243 -136 -243 -369z" />
<glyph unicode="'" horiz-adv-x="303" d="M104 760v606h95v-606h-95z" />
<glyph unicode="(" horiz-adv-x="520" d="M92 700q0 274 98 478.5t269 318.5l51 -65q-150 -119 -232.5 -306.5t-82.5 -425.5q0 -235 82.5 -420.5t228.5 -306.5l-43 -73q-170 107 -270.5 319.5t-100.5 480.5z" />
<glyph unicode=")" horiz-adv-x="518" d="M10 1432l51 65q171 -114 269 -318.5t98 -478.5q0 -202 -59 -376q-94 -276 -312 -424l-43 73q146 121 229 307t83 420q0 238 -83 425.5t-233 306.5z" />
<glyph unicode="*" horiz-adv-x="798" d="M74 870l260 179l-260 184l45 72l239 -175v297h80v-297l244 173l43 -68l-260 -184l260 -183l-41 -71l-246 172v-312h-80v312l-241 -172z" />
<glyph unicode="+" d="M74 631v98h391v455h96v-455h389v-98h-389v-457h-96v457h-391z" />
<glyph unicode="," horiz-adv-x="323" d="M76 76q0 39 23 63.5t61 24.5q43 0 67.5 -33t24.5 -82q0 -68 -38.5 -135t-96.5 -113l-35 45q74 74 82 136q-37 0 -62.5 28t-25.5 66z" />
<glyph unicode="-" horiz-adv-x="598" d="M94 489v109h412v-109h-412z" />
<glyph unicode="." horiz-adv-x="329" d="M88 70q0 40 24 65t60 25t61 -25t25 -65q0 -42 -25 -67.5t-61 -25.5t-60 25.5t-24 67.5z" />
<glyph unicode="/" horiz-adv-x="921" d="M10 4l821 1548l80 -47l-819 -1552z" />
<glyph unicode="0" d="M76 674q0 104 16 203t51 190.5t85 160t124 109.5t162 41q158 0 264 -127q106 -124 140 -288q32 -145 32 -289q0 -205 -61 -379q-59 -166 -156 -245t-219 -79q-110 0 -196.5 62t-137.5 164.5t-77.5 224t-26.5 252.5zM186 676q0 -106 19 -209t57 -194t103.5 -147t148.5 -56 q122 0 197 112q80 115 104 252q25 147 25 242q0 175 -43 317q-41 141 -117 213t-166 72q-84 0 -149 -54t-103 -142.5t-57 -192t-19 -213.5z" />
<glyph unicode="1" d="M184 1087l363 265h98v-1352h-106v1225l-303 -217z" />
<glyph unicode="2" d="M111 1186q67 82 188 137t217 55q151 0 238 -69q92 -68 116 -150q25 -86 25 -137q0 -135 -64 -217q-81 -100 -213 -209l-266 -225q-70 -58 -95.5 -118.5t-25.5 -154.5h674v-98h-784v90q0 111 33 185t120 153l250 215q126 105 168 150q88 91 88 225q0 124 -71 193t-199 69 q-100 0 -180 -45t-166 -131z" />
<glyph unicode="3" d="M74 115l49 98q67 -68 155 -105.5t185 -37.5q149 0 235 82t86 229q3 121 -61 203q-100 133 -293 129q-66 0 -106 -6v88q49 83 200 243q140 149 226 213h-629v99h751v-119q-82 -54 -225 -197q-145 -145 -207 -237h31q153 0 257.5 -69t135.5 -169q31 -98 31 -168 q0 -145 -68 -248q-116 -172 -360 -172q-109 0 -207 29q-22 7 -42 15.5t-34.5 15.5t-29.5 17t-23 15.5t-19.5 15.5t-15 13t-12.5 12.5t-10 10.5z" />
<glyph unicode="4" d="M84 334v115l637 903h74v-920h141v-98h-141v-334h-101v334h-610zM180 432h514v731z" />
<glyph unicode="5" d="M98 100l45 101q62 -54 152 -91.5t190 -37.5q79 -3 142 27.5t100 82t56 112t18 122.5q0 139 -66 223q-57 77 -149.5 109t-190.5 32q-148 0 -215 -24v596h662v-99h-559v-387q27 2 60 5t48.5 4.5t22.5 1.5q165 0 286 -68q116 -64 162 -174q45 -102 45 -219 q0 -200 -117.5 -322.5t-304.5 -122.5q-99 0 -194 29q-133 40 -193 100z" />
<glyph unicode="6" d="M119 522q0 191 57 350q98 284 313 410q141 86 318 86l22 -86q-212 -10 -346 -121q-181 -144 -233 -416q136 113 309 113q126 0 223 -72q63 -51 101.5 -122t49.5 -127.5t11 -114.5q0 -155 -61 -262q-32 -55 -78 -94.5t-94.5 -59t-89.5 -27.5t-78 -8q-201 0 -312.5 148.5 t-111.5 402.5zM223 508q0 -199 80.5 -320.5t239.5 -121.5q135 0 217 96t82 256q1 77 -20 139t-54 100.5t-75.5 64t-81.5 35t-74 7.5q-86 0 -167.5 -38t-138.5 -93q-8 -44 -8 -125z" />
<glyph unicode="7" d="M113 1253v99h815v-80q-161 -214 -279 -465q-106 -220 -156.5 -431.5t-62.5 -375.5h-108q36 352 161 674t320 579h-690z" />
<glyph unicode="8" d="M98 358q0 135 66 221.5t178 127.5q-108 35 -169.5 131t-53.5 190q-2 86 34.5 156t96 110.5t127.5 62t135 21.5q141 0 236 -65q88 -60 125 -139t32 -146q3 -89 -41 -166q-37 -69 -88.5 -107t-93.5 -48q112 -41 178 -127.5t66 -221.5t-74 -235q-75 -97 -172 -123 q-106 -29 -168 -29q-193 0 -303.5 107.5t-110.5 279.5zM201 360q0 -144 83 -218t228 -74t228 74t83 218q0 101 -59 175q-54 68 -123 97.5t-129 29.5q-118 0 -197 -64q-114 -90 -114 -238zM221 1030q0 -127 80 -201.5t211 -74.5q74 0 132.5 24.5t92.5 65.5t51 88.5t17 97.5 q0 117 -79 186.5t-214 69.5q-131 0 -211 -70t-80 -186z" />
<glyph unicode="9" d="M92 940q0 154 72 264q69 106 164 142q88 32 166 32q157 0 264 -96q106 -96 133 -223q31 -133 31 -217q6 -223 -80.5 -419t-204.5 -282q-196 -164 -461 -164l19 97q47 0 135 16q145 32 223 107q112 100 158 188q48 91 90 231q-58 -45 -142 -77.5t-174 -32.5 q-178 0 -285.5 122t-107.5 312zM195 944q0 -157 81 -250.5t222 -93.5q155 0 309 131q6 50 6 113q0 160 -53 266q-50 102 -131 139q-78 35 -135 35q-136 0 -217.5 -93t-81.5 -247z" />
<glyph unicode=":" horiz-adv-x="329" d="M98 70q0 40 24 65t60 25t61 -25t25 -65q0 -42 -25 -67.5t-61 -25.5t-60 25.5t-24 67.5zM98 895q0 40 24 65t60 25t61 -25t25 -65q0 -42 -25 -67t-61 -25t-60 25t-24 67z" />
<glyph unicode=";" horiz-adv-x="335" d="M88 895q0 40 24 65t60 25t61 -25t25 -65q0 -42 -25 -67t-61 -25t-60 25t-24 67zM98 76q0 39 23 63.5t61 24.5q43 0 67.5 -33t24.5 -82q0 -68 -38.5 -135t-96.5 -113l-35 45q74 74 82 136q-37 0 -62.5 28t-25.5 66z" />
<glyph unicode="&#x3c;" d="M113 637v90l766 317l36 -94l-649 -266l662 -276l-37 -99z" />
<glyph unicode="=" d="M74 401v99h878v-99h-878zM74 776v98h878v-98h-878z" />
<glyph unicode="&#x3e;" d="M113 408l659 276l-647 266l39 94l764 -317v-90l-781 -328z" />
<glyph unicode="?" horiz-adv-x="698" d="M18 1188q58 84 144.5 137t189.5 53q159 0 245.5 -83t86.5 -232q0 -94 -45 -182t-131 -183q-87 -99 -102 -139q-23 -54 -23 -113v-53h-98v62q0 83 33.5 145t101.5 141q86 98 120.5 171.5t34.5 154.5q0 103 -60.5 159t-166.5 56q-85 0 -146 -41.5t-118 -118.5zM256 66 q0 40 22 63t58 23t59 -23t23 -63q0 -41 -23 -65t-59 -24t-58 24t-22 65z" />
<glyph unicode="@" horiz-adv-x="1472" d="M98 479q0 263 77 454t231 295.5t374 104.5q191 0 310 -76q121 -77 161 -180q41 -103 41 -186v-850h-98v98q-120 -100 -272 -100q-150 0 -248.5 118t-98.5 308q-4 100 29 183t86 132.5t114 75t118 21.5q85 0 147.5 -21.5t124.5 -62.5v77q0 185 -104 267q-120 104 -310 104 q-219 0 -356 -125t-180 -297q-43 -171 -43 -340q0 -192 80 -366q78 -167 242 -253.5t380 -86.5q202 0 438 88l29 -92q-195 -91 -479 -91q-138 0 -253.5 29.5t-195.5 78.5t-142.5 117t-99.5 139t-61 152t-32.5 149t-8.5 136zM682 463q0 -137 66 -232.5t178 -95.5 q134 0 266 107v448q-63 43 -122 65.5t-138 22.5q-120 0 -185 -85.5t-65 -229.5z" />
<glyph unicode="A" horiz-adv-x="1091" d="M10 0l484 1366h98l489 -1366h-112l-160 438h-533l-155 -438h-111zM309 541h467l-235 696z" />
<glyph unicode="B" horiz-adv-x="1024" d="M156 0v1366h352q379 0 379 -340q0 -251 -250 -301q147 -11 231 -97.5t84 -248.5q0 -176 -102 -277.5t-268 -101.5h-426zM262 100h311q127 0 197 75t70 206q0 289 -338 289h-240v-570zM262 770h234q134 0 207 69.5t73 188.5q0 238 -266 238h-248v-496z" />
<glyph unicode="C" horiz-adv-x="1110" d="M102 678q0 170 40 306.5t111 225.5t167 136t209 47q139 0 246.5 -71.5t164.5 -191.5l-86 -67q-32 63 -79 111t-93 72q-48 24 -86 35q-33 9 -56 9h-9q-138 0 -242 -90q-97 -91 -137 -233q-37 -139 -37 -291q0 -177 51.5 -312.5t150 -211.5t230.5 -76q202 0 340 180l62 -86 q-33 -41 -103 -98q-56 -43 -141 -70t-166 -27q-252 0 -394.5 188.5t-142.5 514.5z" />
<glyph unicode="D" horiz-adv-x="1193" d="M156 0v1366h319q189 0 307 -63q151 -74 232.5 -225.5t81.5 -375.5q0 -277 -105.5 -446.5t-300.5 -226.5q-106 -29 -215 -29h-319zM262 100h195q135 0 213 31q149 56 232 196t83 367q0 353 -215 492q-119 80 -305 80h-203v-1166z" />
<glyph unicode="E" horiz-adv-x="974" d="M156 0v1366h729v-100h-625v-492h453v-100h-453v-574h662v-100h-766z" />
<glyph unicode="F" horiz-adv-x="880" d="M156 0v1366h714v-100h-610v-512h451v-101h-451v-653h-104z" />
<glyph unicode="G" horiz-adv-x="1163" d="M102 678q0 244 91 424q89 173 208 231q126 60 234 60q81 0 151.5 -25.5t120 -67.5t81.5 -82t54 -83l-79 -64q-50 100 -139.5 160.5t-188.5 60.5q-86 0 -161.5 -39.5t-133.5 -114t-91.5 -194t-33.5 -268.5q0 -274 120.5 -439t317.5 -165q175 0 291 49v428h-244v100h351 v-600q-73 -32 -179 -54t-221 -22q-250 0 -399.5 184.5t-149.5 520.5z" />
<glyph unicode="H" horiz-adv-x="1230" d="M156 0v1366h106v-608h709v608h104v-1366h-104v655h-709v-655h-106z" />
<glyph unicode="I" horiz-adv-x="417" d="M156 0v1366h106v-1366h-106z" />
<glyph unicode="J" horiz-adv-x="722" d="M25 55l36 97q14 -20 64 -41q93 -37 170 -37q100 0 140 53t40 164v1075h107v-1092q0 -104 -27 -157q-31 -65 -97.5 -102.5t-166.5 -37.5q-84 0 -162 25t-104 53z" />
<glyph unicode="K" horiz-adv-x="1062" d="M156 0v1366h106v-614h215q58 0 98 36.5t82 131.5l199 446h115l-207 -465q-35 -78 -66.5 -122t-70.5 -60q57 -17 88.5 -50.5t60.5 -105.5l225 -563h-114l-172 422q-50 114 -76 158q-41 73 -137 73h-240v-653h-106z" />
<glyph unicode="L" horiz-adv-x="921" d="M156 0v1366h106v-1266h629v-100h-735z" />
<glyph unicode="M" horiz-adv-x="1429" d="M135 0l62 1366h137l405 -1239l377 1239h131l62 -1366h-103l-51 1149l-364 -1172h-109l-393 1188l-49 -1165h-105z" />
<glyph unicode="N" horiz-adv-x="1255" d="M156 0v1366h112l727 -1151v1151h105v-1366h-92l-748 1178v-1178h-104z" />
<glyph unicode="O" horiz-adv-x="1263" d="M102 684q0 214 76 385q34 89 93 157t125 104q65 34 126 50q51 13 94 13h17q192 0 315 -123q125 -119 168 -287q45 -158 45 -299q0 -223 -76 -391q-39 -91 -98 -158t-122.5 -101t-121.5 -48q-51 -13 -97 -13h-13q-105 0 -193 39.5t-149.5 107t-104.5 158.5t-63.5 193.5 t-20.5 212.5zM213 684q0 -173 59 -330q58 -146 152.5 -213t208.5 -67q148 0 248 106q103 109 137 252q33 132 33 252q0 182 -58 322q-53 142 -149 214t-211 72q-84 0 -155 -35t-119 -94t-81.5 -137.5t-49 -164.5t-15.5 -177z" />
<glyph unicode="P" horiz-adv-x="1032" d="M156 0v1366h405q198 0 304 -102t106 -299q0 -188 -112.5 -290t-295.5 -102h-301v-573h-106zM262 674h301q135 0 214 79t79 214q0 144 -74 221.5t-221 77.5h-299v-592z" />
<glyph unicode="Q" horiz-adv-x="1263" d="M102 684q0 214 76 385q34 89 93 157t124.5 103.5t126.5 50.5q51 13 94 13h17q192 0 315 -123q125 -119 168 -287q45 -158 45 -299q0 -278 -114 -465q110 -84 223 -227l-74 -60q-81 103 -205 209q-136 -168 -358 -168q-105 0 -193 39.5t-149.5 107t-104.5 158.5 t-63.5 193.5t-20.5 212.5zM213 684q0 -173 59 -330q58 -146 152.5 -213t208.5 -67q165 0 270 127q-89 52 -246 104l31 92q160 -55 268 -116q95 173 95 403q0 182 -58 322q-53 142 -149 214t-211 72q-84 0 -155 -35t-119 -94t-81.5 -137.5t-49 -164.5t-15.5 -177z" />
<glyph unicode="R" horiz-adv-x="1091" d="M156 0v1366h409q197 0 300.5 -96t103.5 -275v-11q1 -70 -23 -130q-26 -64 -65.5 -102.5t-75 -60.5t-62.5 -27q60 -19 89.5 -70t60.5 -160q9 -43 61 -223l56 -211h-113l-57 213q-67 227 -86 283q-43 122 -164 122h-328v-618h-106zM262 719h295q299 0 299 276 q0 130 -75.5 200.5t-217.5 70.5h-301v-547z" />
<glyph unicode="S" horiz-adv-x="983" d="M66 147l59 99q64 -69 164 -120.5t198 -51.5q11 -1 22 -1q127 1 204 77q78 78 78 181v13q0 120 -66 189t-221 129l-139 49q-269 93 -269 333q0 114 62 197q59 80 146.5 116t184.5 36q134 0 235 -50t167 -131l-66 -79q-128 159 -327 159h-8q-122 0 -198 -60 q-78 -62 -79 -175q0 -93 54.5 -151.5t156.5 -96.5l133 -49q189 -67 266.5 -162t77.5 -238q0 -189 -111 -288t-307 -99q-95 3 -202 41q-146 52 -215 133z" />
<glyph unicode="T" horiz-adv-x="931" d="M10 1266v100h912v-100h-404v-1266h-106v1266h-402z" />
<glyph unicode="U" horiz-adv-x="1210" d="M141 455v911h105v-881q0 -189 93.5 -299t264.5 -110q172 0 266.5 108t94.5 301v881h106v-911q0 -150 -63.5 -261t-167.5 -166t-234 -55q-203 0 -334 128.5t-131 353.5z" />
<glyph unicode="V" horiz-adv-x="1067" d="M10 1366h119l401 -1221l418 1221h109l-477 -1366h-107z" />
<glyph unicode="W" horiz-adv-x="1470" d="M20 1366h109l258 -1139l297 1139h100l312 -1145l247 1145h107l-305 -1366h-92l-320 1159l-313 -1159h-90z" />
<glyph unicode="X" horiz-adv-x="952" d="M10 0l402 709l-367 657h125l305 -567l307 567h121l-366 -651l405 -715h-129l-340 627l-344 -627h-119z" />
<glyph unicode="Y" horiz-adv-x="1021" d="M10 1366h121l375 -604l389 604h117l-455 -707v-659h-106v657z" />
<glyph unicode="Z" horiz-adv-x="1060" d="M86 0v104l762 1162h-729v100h835v-113l-755 -1153h784v-100h-897z" />
<glyph unicode="[" horiz-adv-x="397" d="M143 -293v1800h244v-90h-147v-1618h147v-92h-244z" />
<glyph unicode="\" horiz-adv-x="915" d="M10 1505l84 49l811 -1538l-82 -53z" />
<glyph unicode="]" horiz-adv-x="397" d="M10 -201h148v1618h-148v90h246v-1800h-246v92z" />
<glyph unicode="^" horiz-adv-x="974" d="M125 649l315 721h90l322 -706l-90 -41l-277 616l-272 -629z" />
<glyph unicode="_" horiz-adv-x="999" d="M0 -307h1024v-144h-1024v144z" />
<glyph unicode="`" horiz-adv-x="593" d="M10 1376l76 84l317 -284l-51 -60z" />
<glyph unicode="a" horiz-adv-x="897" d="M94 272q0 144 103 230q101 88 233 108q140 22 240 25v39q0 116 -49 174q-54 63 -162 63q-128 0 -262 -100l-37 82q41 37 126.5 72.5t176.5 35.5q154 0 235 -90q72 -84 72 -237v-674h-90l-6 86q-105 -109 -273 -109q-134 0 -220.5 79t-86.5 216zM199 270q0 -55 22.5 -98 t57 -65.5t70.5 -32.5q26 -7 49 -7q9 0 18 1q74 0 140.5 32.5t113.5 85.5v359q-241 -6 -356 -73t-115 -202z" />
<glyph unicode="b" horiz-adv-x="999" d="M141 41v1325h101v-436q116 71 245 71q149 0 252 -92q103 -89 133 -207q31 -121 31 -208q0 -233 -127.5 -375t-320.5 -142q-174 0 -314 64zM242 106q90 -38 194 -38q75 0 137 26.5t104 69.5t71 99.5t42 115t13 117.5q0 136 -55 237q-50 95 -124.5 135.5t-156.5 40.5 q-125 0 -225 -80v-723z" />
<glyph unicode="c" horiz-adv-x="897" d="M96 487q0 187 68 308q35 61 80.5 104t92.5 64t86 29.5t77 8.5q95 0 172 -45q70 -38 112 -84.5t50 -74.5l-74 -52q-58 87 -115 126.5t-145 39.5q-99 0 -174 -69q-127 -117 -127 -353q0 -191 87.5 -305t235.5 -114q77 0 138.5 27t125.5 93l39 -88q-51 -52 -129.5 -88.5 t-181.5 -36.5q-185 0 -301.5 135.5t-116.5 374.5z" />
<glyph unicode="d" horiz-adv-x="1003" d="M96 492q0 224 117.5 366.5t310.5 142.5q140 0 236 -63v428h102v-1366h-92l-10 86q-102 -109 -260 -109q-85 0 -155 31.5t-115 83t-76 119.5t-44.5 138.5t-13.5 142.5zM197 487q0 -193 82.5 -306t232.5 -113q74 0 138.5 35t109.5 92v639q-35 32 -96.5 54.5t-126.5 22.5 q-71 0 -129.5 -27t-96.5 -70.5t-64.5 -100.5t-38 -113.5t-11.5 -112.5z" />
<glyph unicode="e" horiz-adv-x="958" d="M96 489q0 174 62 295q59 114 149 165.5t189 51.5q148 0 241 -96q94 -94 121 -207q27 -114 27 -192h-688q0 -211 83.5 -324.5t243.5 -113.5q174 0 293 125l31 -93q-27 -27 -72 -55q-41 -26 -114.5 -47t-139.5 -21q-203 0 -314.5 135t-111.5 377zM205 596h565 q-6 112 -55 188q-81 127 -219 127q-115 0 -192 -77.5t-99 -237.5z" />
<glyph unicode="f" horiz-adv-x="526" d="M45 887v90h139v110q0 158 70 234q66 72 178 72q94 0 174 -39l-22 -86q-72 35 -152 35q-67 0 -102 -41q-45 -51 -45 -181v-104h215v-90h-215v-887h-103v887h-137z" />
<glyph unicode="g" horiz-adv-x="972" d="M100 485q0 164 72 293q37 66 91.5 113.5t111 70.5t105.5 32q37 8 69 8q10 0 20 -1q149 0 297 -36v-1010q0 -168 -98 -264.5t-295 -96.5q-90 0 -203 29q-99 28 -123 47l31 94q50 -33 129 -56t170 -23q148 0 217.5 71t69.5 224v69q-105 -72 -252 -72q-179 0 -295.5 137 t-116.5 371zM203 481q0 -194 95.5 -303.5t236.5 -109.5q67 0 128 26t101 62v731q-81 24 -191 24q-156 0 -263 -116.5t-107 -313.5z" />
<glyph unicode="h" horiz-adv-x="1013" d="M141 0v1366h101v-475q139 110 301 110q262 0 325 -215q19 -68 19 -176v-610h-103v604q0 102 -18 154q-53 151 -238 151q-136 0 -286 -118v-791h-101z" />
<glyph unicode="i" horiz-adv-x="382" d="M117 1266q0 36 21 58t52 22q32 0 53 -22t21 -58q0 -40 -21 -61t-53 -21t-52.5 21t-20.5 61zM141 0v977h101v-977h-101z" />
<glyph unicode="j" horiz-adv-x="382" d="M-4 -317q80 55 112.5 126t32.5 185v983h101v-983q0 -148 -49.5 -240t-155.5 -155zM123 1266q0 36 21 58t53 22q31 0 52 -22t21 -58q0 -40 -20.5 -61t-52.5 -21t-53 21t-21 61z" />
<glyph unicode="k" horiz-adv-x="899" d="M141 0v1366h101v-772h159q61 0 104 39.5t85 136.5l90 207h108l-102 -225q-70 -157 -143 -187q59 -18 91.5 -49.5t61.5 -101.5l164 -414h-106l-117 289q-35 77 -72 147q-18 31 -56.5 48.5t-82.5 17.5h-184v-502h-101z" />
<glyph unicode="l" horiz-adv-x="448" d="M132 136q-1 9 -1 16q0 9 2 16v1198h100v-1173q0 -76 16 -104t68 -28q39 0 103 31l18 -82q-64 -33 -135 -33h-7q-36 0 -65 9q-31 10 -48.5 27t-30 38t-15.5 43t-5 42z" />
<glyph unicode="m" horiz-adv-x="1550" d="M141 0v977h92l7 -92q143 116 292 116q170 0 246 -116q133 116 314 116q333 0 333 -383v-618h-104v627q0 137 -61.5 208.5t-178.5 71.5q-145 0 -266 -106q29 -74 29 -172v-629h-103v637v14q0 53 -13 97q-15 48 -38.5 77t-55.5 48t-61 26t-59 8q-134 0 -272 -127v-780h-101 z" />
<glyph unicode="n" horiz-adv-x="1013" d="M141 0v977h90l11 -92q133 116 301 116q266 0 325 -215q21 -64 21 -176v-610h-103v604q0 102 -18 154q-53 151 -238 151q-154 0 -288 -127v-782h-101z" />
<glyph unicode="o" horiz-adv-x="1017" d="M96 496q0 150 60 276q57 117 149 173t203 56q142 0 246 -90q64 -54 105 -139.5t53 -153.5q12 -63 12 -117v-9q0 -162 -64 -287q-59 -118 -150 -173t-202 -55q-144 0 -248 93q-164 144 -164 426zM197 496q0 -110 33.5 -205.5t106 -159t171.5 -63.5h12q60 0 111 26 q56 30 91 77.5t59 107t33 114.5q7 45 7 84v17v21q1 70 -17 132q-20 72 -55.5 121.5t-78.5 85.5q-44 35 -86 49q-30 10 -55 10q-11 0 -21 -2q-114 0 -191 -77q-120 -120 -120 -338z" />
<glyph unicode="p" horiz-adv-x="999" d="M141 -395v1372h90l11 -84q119 108 270 108q137 0 231 -79q48 -41 81.5 -97.5t49.5 -117t22.5 -110.5t6.5 -99q0 -178 -69 -301q-123 -220 -373 -220q-127 0 -219 56v-428h-101zM242 137q87 -69 209 -69q161 0 255.5 113.5t94.5 310.5v16q0 138 -49 233q-24 49 -57 84 t-68.5 53.5t-68.5 25.5q-29 7 -58 7h-8q-130 0 -250 -120v-654z" />
<glyph unicode="q" horiz-adv-x="1003" d="M96 485q0 164 72 293q37 66 91.5 113.5t111 70.5t105.5 32q37 8 69 8q10 0 20 -1q149 0 297 -36v-1360h-102v444q-105 -72 -252 -72q-179 0 -295.5 137t-116.5 371zM199 481q0 -194 95 -303.5t236 -109.5q67 0 128.5 26t101.5 62v731q-81 24 -191 24q-156 0 -263 -116.5 t-107 -313.5z" />
<glyph unicode="r" horiz-adv-x="598" d="M141 0v977h88l9 -100q46 46 116.5 84t122.5 38q56 0 111 -14l-15 -98q-35 14 -86 14q-114 0 -245 -131v-770h-101z" />
<glyph unicode="s" horiz-adv-x="772" d="M84 84l39 92q43 -43 111 -75.5t151 -32.5q104 0 160.5 46t56.5 132t-53 139t-195 107q-135 48 -191.5 108t-56.5 162v9q0 43 18 81q20 42 53 69.5t73 46.5t78 27q31 6 58 6h13q96 0 173.5 -33.5t121.5 -80.5l-43 -80q-63 54 -124 80t-136 26q-89 0 -135.5 -39.5 t-46.5 -105.5q0 -72 48 -112t187 -91q136 -50 198.5 -119.5t62.5 -191.5q0 -59 -20.5 -107t-53 -79t-75 -52t-85.5 -30t-86 -9q-108 0 -183.5 32.5t-117.5 74.5z" />
<glyph unicode="t" horiz-adv-x="595" d="M43 887v90h160v260h100v-260h244v-90h-244v-680q0 -75 28 -107t85 -32q51 0 119 45l40 -76q-24 -19 -43 -30t-54.5 -20.5t-80.5 -9.5q-135 0 -176 109q-18 44 -18 113v688h-160z" />
<glyph unicode="u" horiz-adv-x="1011" d="M125 362v615h100v-610q0 -103 21 -152q29 -77 86.5 -112t150.5 -35q146 0 287 127v782h100v-977h-92l-8 92q-134 -117 -301 -117q-259 0 -324 213q-20 61 -20 174z" />
<glyph unicode="v" horiz-adv-x="845" d="M10 977h111l305 -848l305 848h105l-357 -977h-108z" />
<glyph unicode="w" horiz-adv-x="1286" d="M10 977h111l231 -840l246 840h90l246 -836l235 836h107l-293 -977h-104l-238 805l-244 -805h-102z" />
<glyph unicode="x" horiz-adv-x="759" d="M10 0l316 500l-299 477h112l242 -393l244 393h108l-299 -475l316 -502h-111l-258 418l-260 -418h-111z" />
<glyph unicode="y" horiz-adv-x="917" d="M-20 -303h16q130 0 238 74t165 202l-381 1004h113l334 -897q194 406 326 897h106q-110 -434 -319 -881q-88 -184 -160 -280q-72 -98 -184.5 -153.5t-241.5 -55.5z" />
<glyph unicode="z" horiz-adv-x="872" d="M84 0v106l594 781h-572v90h674v-109l-594 -778h609v-90h-711z" />
<glyph unicode="{" horiz-adv-x="452" d="M39 643v78q88 14 124 61.5t36 161.5v307q-1 61 15 107.5t40.5 73t56 42.5t59 20.5t52.5 2.5l10 -78q-78 -4 -104.5 -46t-26.5 -140v-289q0 -115 -34 -174t-120 -88q86 -29 120 -88t34 -174v-289q0 -98 26.5 -140t104.5 -46l-10 -78q-115 0 -169 67t-54 179v307 q0 114 -36 161.5t-124 61.5z" />
<glyph unicode="|" horiz-adv-x="382" d="M143 -152v1663h97v-1663h-97z" />
<glyph unicode="}" horiz-adv-x="452" d="M20 -55q78 4 105 46.5t27 139.5v289q0 115 33.5 174t119.5 88q-86 29 -119.5 88t-33.5 174v289q0 97 -27 139.5t-105 46.5l11 78q53 0 93.5 -17t64.5 -42.5t39 -59.5t20.5 -65t5.5 -62v-307q0 -114 36 -161.5t124 -61.5v-78q-88 -14 -124 -61.5t-36 -161.5v-307 q0 -72 -20.5 -123t-55 -76t-70.5 -36t-77 -11z" />
<glyph unicode="~" horiz-adv-x="843" d="M8 1075q17 124 81.5 188t174.5 64q94 0 189 -76q107 -88 157 -88q118 0 135 166h91q-6 -106 -58 -170q-73 -90 -174 -90q-34 0 -71 15.5t-61.5 32.5t-70.5 52q-86 68 -141 68q-73 0 -113.5 -46t-52.5 -116h-86z" />
<glyph unicode="&#xa2;" d="M195 690q0 123 49 211q80 143 254 172v293h77v-291q70 -4 130.5 -32.5t99.5 -67.5l-62 -70q-68 68 -168 76v-598q97 9 170 82l58 -72q-38 -43 -101.5 -72t-126.5 -34v-295h-77v297q-139 24 -221 126t-82 275zM297 690q0 -264 201 -305v594q-90 -12 -145.5 -88t-55.5 -201 z" />
<glyph unicode="&#xa3;" d="M96 535v96h131v340q0 197 90 302t256 105q105 0 192.5 -53.5t137.5 -136.5l-80 -66q-54 82 -108.5 120t-139.5 38q-239 0 -239 -317v-332h426v-96h-426v-437h569v-98h-678v535h-131z" />
<glyph unicode="&#xa5;" d="M51 1350h119l328 -605l348 605h112l-299 -510h187v-97h-240l-57 -96v-106h295v-97h-295v-444h-107v444h-297v97h297v104l-55 98h-242v97h191z" />
<glyph unicode="&#xa8;" horiz-adv-x="593" d="M47 1313q0 36 21 58t53 22t53 -22t21 -58q0 -40 -21 -61t-53 -21t-53 21t-21 61zM397 1313q0 36 21 58t53 22t53 -22t21 -58q0 -40 -21 -61t-53 -21t-53 21t-21 61z" />
<glyph unicode="&#xa9;" horiz-adv-x="1609" d="M94 608q0 154 49.5 292t139 242.5t225 166t297.5 61.5q232 0 409 -127q172 -126 236 -303q66 -186 66 -332q0 -154 -49.5 -292.5t-139 -244t-225 -167.5t-297.5 -62t-297.5 62t-225 167.5t-139 244t-49.5 292.5zM188 608q0 -132 42.5 -254t120 -217t195.5 -152t259 -57 q203 0 354 115q152 119 207 276q55 155 55 289q0 198 -92 365q-91 168 -235 239q-145 74 -289 74q-141 0 -259 -56.5t-195.5 -151t-120 -216t-42.5 -254.5zM457 604q0 172 59 281q31 56 74 96.5t86 59t78.5 26t64.5 4.5q97 0 165 -45t108 -115l-74 -43q-36 60 -81 89.5 t-122 29.5q-120 0 -192 -100.5t-72 -282.5q0 -176 74 -274.5t194 -98.5q129 0 207 123l70 -51q-97 -156 -279 -156q-158 0 -259 115.5t-101 341.5z" />
<glyph unicode="&#xab;" horiz-adv-x="956" d="M78 512l342 408l63 -60l-286 -340l315 -338l-59 -61zM426 512l350 408l62 -60l-297 -340l325 -336l-57 -63z" />
<glyph unicode="&#xad;" horiz-adv-x="598" d="M94 489v109h412v-109h-412z" />
<glyph unicode="&#xae;" horiz-adv-x="1609" d="M94 608q0 154 49.5 292t139 242.5t225 166t297.5 61.5q232 0 409 -127q172 -126 236 -303q66 -186 66 -332q0 -154 -49.5 -292.5t-139 -244t-225 -167.5t-297.5 -62t-297.5 62t-225 167.5t-139 244t-49.5 292.5zM188 608q0 -132 42.5 -254t120 -217t195.5 -152t259 -57 q203 0 354 115q152 119 207 276q55 155 55 289q0 198 -92 365q-91 168 -235 239q-145 74 -289 74q-141 0 -259 -56.5t-195.5 -151t-120 -216t-42.5 -254.5zM551 172v889h276q134 0 207.5 -64.5t73.5 -177.5q0 -204 -213 -246l229 -401h-104l-223 395h-158v-395h-88zM639 649 h182q97 0 146 40t49 130q0 78 -49.5 120t-137.5 42h-190v-332z" />
<glyph unicode="&#xb4;" horiz-adv-x="593" d="M100 1176l318 284l76 -84l-344 -260z" />
<glyph unicode="&#xb8;" horiz-adv-x="593" d="M186 -356l99 266h121l-140 -266h-80z" />
<glyph unicode="&#xbb;" horiz-adv-x="956" d="M90 856l57 64l383 -392l-350 -407l-61 59l297 342zM444 858l60 62l375 -392l-342 -405l-64 57l287 342z" />
<glyph unicode="&#xc2;" horiz-adv-x="1091" d="M10 0l484 1366h98l489 -1366h-112l-160 438h-533l-155 -438h-111zM279 1503l231 307h63l232 -307l-60 -53l-204 264l-203 -264zM309 541h467l-235 696z" />
<glyph unicode="&#xc7;" horiz-adv-x="1110" d="M102 678q0 170 40 306.5t111 225.5t167 136t209 47q139 0 246.5 -71.5t164.5 -191.5l-86 -67q-32 63 -79 111t-93.5 72t-85 35t-65.5 9q-138 0 -242 -90q-97 -91 -137 -233q-37 -139 -37 -291q0 -177 51.5 -312.5t150 -211.5t230.5 -76q202 0 340 180l62 -86 q-33 -41 -103 -98q-56 -43 -141 -70t-166 -27q-252 0 -394.5 188.5t-142.5 514.5zM483 -356l99 266h120l-139 -266h-80z" />
<glyph unicode="&#xce;" horiz-adv-x="417" d="M-41 1503l231 307h64l231 -307l-59 -53l-205 264l-203 -264zM156 0v1366h106v-1366h-106z" />
<glyph unicode="&#xd6;" horiz-adv-x="1263" d="M102 684q0 214 76 385q34 89 93 157t124.5 103.5t126.5 51t111 12.5q192 0 315 -123q125 -119 168 -287q45 -158 45 -299q0 -223 -76 -391q-39 -91 -98 -158t-122.5 -101t-121.5 -48.5t-110 -12.5q-105 0 -193 39.5t-149.5 107t-104.5 158.5t-63.5 193.5t-20.5 212.5z M213 684q0 -173 59 -330q58 -146 152.5 -213t208.5 -67q148 0 248 106q103 109 137 252q33 132 33 252q0 182 -58 322q-53 142 -149 214t-211 72q-84 0 -155 -35t-119 -94t-81.5 -137.5t-49 -164.5t-15.5 -177zM385 1653q0 36 21 58t53 22q31 0 52 -22t21 -58 q0 -40 -20.5 -61t-52.5 -21t-53 21t-21 61zM735 1653q0 36 21 58t53 22t53 -22t21 -58q0 -40 -21 -61t-53 -21t-53 21t-21 61z" />
<glyph unicode="&#xdb;" horiz-adv-x="1210" d="M141 455v911h105v-881q0 -189 93.5 -299t264.5 -110q172 0 266.5 108t94.5 301v881h106v-911q0 -150 -63.5 -261t-167.5 -166t-234 -55q-203 0 -334 128.5t-131 353.5zM356 1503l232 307h63l232 -307l-60 -53l-205 264l-202 -264z" />
<glyph unicode="&#xdc;" horiz-adv-x="1210" d="M141 455v911h105v-881q0 -189 93.5 -299t264.5 -110q172 0 266.5 108t94.5 301v881h106v-911q0 -150 -63.5 -261t-167.5 -166t-234 -55q-203 0 -334 128.5t-131 353.5zM362 1653q0 36 21 58t53 22t53 -22t21 -58q0 -40 -21 -61t-53 -21t-53 21t-21 61zM713 1653 q0 36 21 58t52 22q32 0 53 -22t21 -58q0 -40 -21 -61t-53 -21t-52.5 21t-20.5 61z" />
<glyph unicode="&#xe2;" horiz-adv-x="897" d="M94 272q0 144 103 230q101 88 233 108q140 22 240 25v39q0 116 -49 174q-54 63 -162 63q-128 0 -262 -100l-37 82q41 37 126.5 72.5t176.5 35.5q154 0 235 -90q72 -84 72 -237v-674h-90l-6 86q-105 -109 -273 -109q-134 0 -220.5 79t-86.5 216zM195 1163l231 307h63 l232 -307l-59 -53l-205 264l-203 -264zM199 270q0 -55 22.5 -98t57 -65.5t70.5 -32.5t67 -6q74 0 140.5 32.5t113.5 85.5v359q-241 -6 -356 -73t-115 -202z" />
<glyph unicode="&#xe7;" horiz-adv-x="897" d="M96 487q0 187 68 308q35 61 80.5 104t92.5 64t86 29.5t77 8.5q95 0 172 -45q70 -38 112 -84.5t50 -74.5l-74 -52q-58 87 -115 126.5t-145 39.5q-99 0 -174 -69q-127 -117 -127 -353q0 -191 87.5 -305t235.5 -114q77 0 138.5 27t125.5 93l39 -88q-51 -52 -129.5 -88.5 t-181.5 -36.5q-185 0 -301.5 135.5t-116.5 374.5zM362 -356l99 266h121l-140 -266h-80z" />
<glyph unicode="&#xee;" horiz-adv-x="382" d="M-47 1163l231 307h64l231 -307l-59 -53l-205 264l-203 -264zM152 0v977h100v-977h-100z" />
<glyph unicode="&#xf6;" horiz-adv-x="1017" d="M96 496q0 150 60 276q57 117 149 173t203 56q142 0 246 -90q64 -54 105 -139.5t53.5 -154t11.5 -125.5q0 -162 -64 -287q-59 -118 -150 -173t-202 -55q-144 0 -248 93q-164 144 -164 426zM197 496q0 -110 33.5 -205.5t106 -159t171.5 -63.5q67 -3 123 26.5t91 77t59 107 t33 114.5t7 101q3 81 -17.5 153t-55.5 121.5t-78 85t-85.5 49.5t-76.5 8q-114 0 -191 -77q-120 -120 -120 -338zM270 1313q0 36 21 58t53 22t53 -22t21 -58q0 -40 -21 -61t-53 -21t-53 21t-21 61zM621 1313q0 36 21 58t52 22q32 0 53 -22t21 -58q0 -40 -21 -61t-53 -21 t-52.5 21t-20.5 61z" />
<glyph unicode="&#xfb;" horiz-adv-x="1011" d="M125 362v615h100v-610q0 -103 21 -152q29 -77 86.5 -112t150.5 -35q146 0 287 127v782h100v-977h-92l-8 92q-134 -117 -301 -117q-259 0 -324 213q-20 61 -20 174zM248 1163l231 307h64l231 -307l-59 -53l-205 264l-203 -264z" />
<glyph unicode="&#xfc;" horiz-adv-x="1011" d="M125 362v615h100v-610q0 -103 21 -152q29 -77 86.5 -112t150.5 -35q146 0 287 127v782h100v-977h-92l-8 92q-134 -117 -301 -117q-259 0 -324 213q-20 61 -20 174zM266 1313q0 36 21 58t53 22t53 -22t21 -58q0 -40 -21 -61t-53 -21t-53 21t-21 61zM616 1313q0 36 21 58 t53 22t53 -22t21 -58q0 -40 -21 -61t-53 -21t-53 21t-21 61z" />
<glyph unicode="&#x11e;" horiz-adv-x="1163" d="M102 678q0 244 91 424q89 173 208 231q126 60 234 60q81 0 151.5 -25.5t120 -67.5t81.5 -82t54 -83l-79 -64q-50 100 -139.5 160.5t-188.5 60.5q-86 0 -161.5 -39.5t-133.5 -114t-91.5 -194t-33.5 -268.5q0 -274 120.5 -439t317.5 -165q175 0 291 49v428h-244v100h351 v-600q-73 -32 -179 -54t-221 -22q-250 0 -399.5 184.5t-149.5 520.5zM340 1767h82q8 -61 30.5 -104.5t54.5 -65.5t64.5 -31.5t69.5 -9.5q89 0 146.5 54t70.5 157h82q0 -68 -22 -122.5t-55 -86t-75.5 -52.5t-78.5 -28.5t-68 -7.5q-55 0 -105.5 17t-94.5 51t-71.5 93 t-29.5 136z" />
<glyph unicode="&#x11f;" horiz-adv-x="972" d="M100 485q0 164 72 293q37 66 91.5 113.5t111 70.5t105.5 32.5t89 6.5q149 0 297 -36v-1010q0 -168 -98 -264.5t-295 -96.5q-90 0 -203 29q-99 28 -123 47l31 94q50 -33 129 -56t170 -23q148 0 217.5 71t69.5 224v69q-105 -72 -252 -72q-179 0 -295.5 137t-116.5 371z M203 481q0 -194 95.5 -303.5t236.5 -109.5q67 0 128 26t101 62v731q-81 24 -191 24q-156 0 -263 -116.5t-107 -313.5zM262 1427h82q8 -61 30.5 -104t54.5 -65t64.5 -31.5t69.5 -9.5q89 0 146.5 53.5t70.5 156.5h82q0 -68 -22 -122.5t-55 -86t-75.5 -52.5t-78.5 -28.5 t-68 -7.5q-55 0 -105.5 17t-94.5 51t-71.5 93t-29.5 136z" />
<glyph unicode="&#x130;" horiz-adv-x="417" d="M143 1653q0 36 21 58t53 22t53 -22t21 -58q0 -40 -21 -61t-53 -21t-53 21t-21 61zM156 0v1366h106v-1366h-106z" />
<glyph unicode="&#x131;" horiz-adv-x="382" d="M141 0v977h101v-977h-101z" />
<glyph unicode="&#x15e;" horiz-adv-x="983" d="M66 147l59 99q64 -69 164 -120.5t198 -51.5q143 -7 226 75.5t78 194.5q0 120 -66 189t-221 129l-139 49q-269 93 -269 333q0 114 62 197q59 80 146.5 116t184.5 36q134 0 235 -50t167 -131l-66 -79q-128 159 -327 159q-127 2 -205.5 -59.5t-79.5 -175.5 q0 -93 54.5 -151.5t156.5 -96.5l133 -49q189 -67 266.5 -162t77.5 -238q0 -189 -111 -288t-307 -99q-95 3 -202 41q-146 52 -215 133zM344 -356l98 266h121l-139 -266h-80z" />
<glyph unicode="&#x15f;" horiz-adv-x="772" d="M84 84l39 92q43 -43 111 -75.5t151 -32.5q104 0 160.5 46t56.5 132t-53 139t-195 107q-135 48 -191.5 108t-56.5 162q-2 49 18 90.5t53 69t73 46.5t78.5 27t70.5 6q96 0 173.5 -33.5t121.5 -80.5l-43 -80q-63 54 -124 80t-136 26q-89 0 -135.5 -39.5t-46.5 -105.5 q0 -72 48 -112t187 -91q136 -50 198.5 -119.5t62.5 -191.5q0 -59 -20.5 -107t-53 -79t-75 -52t-85.5 -30t-86 -9q-108 0 -183.5 32.5t-117.5 74.5zM240 -356l98 266h121l-140 -266h-79z" />
<glyph unicode="&#x192;" d="M-39 -207q156 9 229 64q85 66 113 215l141 721h-213v94h232l18 96q24 139 92 225q110 140 326 144v-97q-270 -9 -311 -284l-19 -84h330v-94h-348l-148 -744q-20 -100 -56 -164.5t-99 -111.5q-102 -76 -287 -76v96z" />
<glyph unicode="&#x218;" horiz-adv-x="983" d="M66 147l59 99q64 -69 164 -120.5t198 -51.5q143 -7 226 75.5t78 194.5q0 120 -66 189t-221 129l-139 49q-269 93 -269 333q0 114 62 197q59 80 146.5 116t184.5 36q134 0 235 -50t167 -131l-66 -79q-128 159 -327 159q-127 2 -205.5 -59.5t-79.5 -175.5 q0 -93 54.5 -151.5t156.5 -96.5l133 -49q189 -67 266.5 -162t77.5 -238q0 -189 -111 -288t-307 -99q-95 3 -202 41q-146 52 -215 133zM344 -356l98 266h121l-139 -266h-80z" />
<glyph unicode="&#x219;" horiz-adv-x="772" d="M84 84l39 92q43 -43 111 -75.5t151 -32.5q104 0 160.5 46t56.5 132t-53 139t-195 107q-135 48 -191.5 108t-56.5 162q-2 49 18 90.5t53 69t73 46.5t78.5 27t70.5 6q96 0 173.5 -33.5t121.5 -80.5l-43 -80q-63 54 -124 80t-136 26q-89 0 -135.5 -39.5t-46.5 -105.5 q0 -72 48 -112t187 -91q136 -50 198.5 -119.5t62.5 -191.5q0 -59 -20.5 -107t-53 -79t-75 -52t-85.5 -30t-86 -9q-108 0 -183.5 32.5t-117.5 74.5zM240 -356l98 266h121l-140 -266h-79z" />
<glyph unicode="&#x21a;" horiz-adv-x="931" d="M10 1266v100h912v-100h-404v-1266h-106v1266h-402zM299 -356l98 266h121l-139 -266h-80z" />
<glyph unicode="&#x21b;" horiz-adv-x="595" d="M43 887v90h160v260h100v-260h244v-90h-244v-680q0 -75 28 -107t85 -32q51 0 119 45l40 -76q-24 -19 -43 -30t-54.5 -20.5t-80.5 -9.5q-135 0 -176 109q-18 44 -18 113v688h-160zM203 -356l98 266h121l-139 -266h-80z" />
<glyph unicode="&#x2c6;" horiz-adv-x="593" d="M33 1163l231 307h64l231 -307l-59 -53l-205 264l-203 -264z" />
<glyph unicode="&#x2da;" horiz-adv-x="593" d="M104 1296q0 53 19.5 94.5t49.5 64.5t61.5 34.5t60.5 11.5q51 1 92 -25t62.5 -61.5t31.5 -68.5t6 -50q0 -69 -36 -122q-31 -49 -70 -64.5t-86 -15.5q-51 0 -90.5 20.5t-60 52.5t-30.5 65t-10 64zM186 1296q0 -60 30.5 -95.5t80.5 -35.5q51 0 81 35.5t30 95.5 q0 55 -33 94.5t-78 39.5t-78 -39.5t-33 -94.5z" />
<glyph unicode="&#x2dc;" horiz-adv-x="593" d="M-33 1212q62 168 203 168q64 0 152 -63q70 -55 114 -55q67 0 119 129l72 -35q-35 -93 -87 -136.5t-112 -43.5q-70 0 -149 63q-83 59 -121 59q-71 0 -119 -116z" />
<glyph unicode="&#x2000;" horiz-adv-x="905" />
<glyph unicode="&#x2001;" horiz-adv-x="1810" />
<glyph unicode="&#x2002;" horiz-adv-x="905" />
<glyph unicode="&#x2003;" horiz-adv-x="1810" />
<glyph unicode="&#x2004;" horiz-adv-x="603" />
<glyph unicode="&#x2005;" horiz-adv-x="452" />
<glyph unicode="&#x2006;" horiz-adv-x="301" />
<glyph unicode="&#x2007;" horiz-adv-x="301" />
<glyph unicode="&#x2008;" horiz-adv-x="226" />
<glyph unicode="&#x2009;" horiz-adv-x="362" />
<glyph unicode="&#x200a;" horiz-adv-x="100" />
<glyph unicode="&#x2010;" horiz-adv-x="598" d="M94 489v109h412v-109h-412z" />
<glyph unicode="&#x2011;" horiz-adv-x="598" d="M94 489v109h412v-109h-412z" />
<glyph unicode="&#x2012;" horiz-adv-x="598" d="M94 489v109h412v-109h-412z" />
<glyph unicode="&#x2013;" horiz-adv-x="1024" d="M0 489v93h1024v-93h-1024z" />
<glyph unicode="&#x2014;" horiz-adv-x="2048" d="M0 489v93h2048v-93h-2048z" />
<glyph unicode="&#x2018;" horiz-adv-x="339" d="M92 1264q0 49 24.5 81.5t67.5 32.5q38 0 61 -24.5t23 -63.5q0 -38 -25.5 -66t-62.5 -28q8 -61 82 -135l-35 -45q-58 46 -96.5 113t-38.5 135z" />
<glyph unicode="&#x2019;" horiz-adv-x="339" d="M82 1290q0 39 23 63.5t61 24.5q43 0 67.5 -32.5t24.5 -81.5q0 -68 -38.5 -135t-96.5 -113l-35 45q74 74 82 135q-37 0 -62.5 28t-25.5 66z" />
<glyph unicode="&#x201a;" horiz-adv-x="323" d="M76 96q0 39 23 63.5t61 24.5q43 0 67.5 -32.5t24.5 -81.5q0 -68 -38.5 -135t-96.5 -113l-35 45q74 74 82 135q-37 0 -62.5 28t-25.5 66z" />
<glyph unicode="&#x201c;" horiz-adv-x="647" d="M102 1264q0 49 25 81.5t68 32.5q38 0 61 -24.5t23 -63.5q0 -38 -26 -66t-63 -28q8 -61 82 -135l-34 -45q-58 46 -97 113t-39 135zM410 1264q0 49 24.5 81.5t67.5 32.5q38 0 61 -24.5t23 -63.5q0 -38 -25.5 -66t-62.5 -28q8 -61 82 -135l-35 -45q-58 46 -96.5 113 t-38.5 135z" />
<glyph unicode="&#x201d;" horiz-adv-x="647" d="M92 1290q0 39 23 63.5t61 24.5q43 0 67.5 -32.5t24.5 -81.5q0 -68 -38.5 -135t-96.5 -113l-35 45q74 74 82 135q-37 0 -62.5 28t-25.5 66zM399 1290q0 39 23 63.5t61 24.5q43 0 67.5 -32.5t24.5 -81.5q0 -68 -38.5 -135t-96.5 -113l-34 45q73 73 81 135q-37 0 -62.5 28 t-25.5 66z" />
<glyph unicode="&#x201e;" horiz-adv-x="630" d="M86 96q0 39 23 63.5t61 24.5q43 0 67.5 -32.5t24.5 -81.5q0 -68 -38.5 -135t-96.5 -113l-35 45q74 74 82 135q-37 0 -62.5 28t-25.5 66zM393 96q0 39 23 63.5t61 24.5q43 0 67.5 -32.5t24.5 -81.5q0 -68 -38.5 -135t-96.5 -113l-35 45q74 74 82 135q-37 0 -62.5 28 t-25.5 66z" />
<glyph unicode="&#x2026;" horiz-adv-x="1099" d="M88 70q0 40 24 65t60 25t61 -25t25 -65q0 -42 -25 -67.5t-61 -25.5t-60 25.5t-24 67.5zM446 70q0 40 24 65t60 25t61 -25t25 -65q0 -42 -25 -67.5t-61 -25.5t-60 25.5t-24 67.5zM807 70q0 40 24 65t60 25t61 -25t25 -65q0 -42 -25 -67.5t-61 -25.5t-60 25.5t-24 67.5z " />
<glyph unicode="&#x202f;" horiz-adv-x="362" />
<glyph unicode="&#x2039;" horiz-adv-x="610" d="M78 512l352 408l62 -60l-297 -340l325 -336l-59 -63z" />
<glyph unicode="&#x203a;" horiz-adv-x="610" d="M90 856l57 64l383 -392l-350 -407l-61 59l297 342z" />
<glyph unicode="&#x205f;" horiz-adv-x="452" />
<glyph unicode="&#x20ac;" d="M51 496v98h602v-98h-321q16 -222 100 -321t213 -99q86 0 146 31t127 108l55 -86q-125 -152 -326 -152q-382 0 -426 519h-170zM51 748v98h168q17 264 126 398t286 134q112 0 190 -46t140 -126l-70 -73q-61 75 -118.5 111t-141.5 36q-133 0 -208.5 -104t-92.5 -330h323v-98 h-602z" />
<glyph unicode="&#x2122;" horiz-adv-x="1136" d="M37 1290v76h438v-76h-178v-512h-80v512h-180zM537 778v588h94l172 -479l160 479h98v-588h-80v424l-145 -428h-64l-158 424v-420h-77z" />
<glyph unicode="&#x25fc;" horiz-adv-x="972" d="M0 0v973h973v-973h-973z" />
</font>
</defs>
</svg>
