<svg id="C100_Pattern" xmlns="http://www.w3.org/2000/svg" viewBox="0 0 111 182"><style>.st0{fill:#de0b1c}</style><path class="st0" d="M70.7 129.7c0-8.5 2.8-24.8 2.9-25.8.1-.7.2-1.3.2-1.9.2-1.6.6-3.1-.2-3.5v-.2c.9-2 .1-19.2-1.6-21.1.1-.4.1-1 .1-1.6 0-.5-.1-1-.2-1.8-.4-3-3-9.9-5.2-17.5-1-3.4-2.6-8.5-3.1-12.2-.5-3.5-.4-8-.4-9.9.7-.7.9-1 .9-2 0-1.1-1.4-3.8-1.4-4.1 0-.4 0-.8.5-1.3s.5-1.4.3-2.1c-.3-.9-1.3-1.1-2-1.3-.6-.1-3.4-.4-6.2-.4-2.9 0-5.7.3-6.2.4-.6.1-1.7.4-2 1.3-.2.7-.3 1.6.3 2.1.5.4.6.9.5 1.4-.1.4-1.4 3-1.4 4.1 0 1 .2 1.3.9 2 0 1.9.1 6.4-.4 9.9-.5 3.8-2.1 8.9-3.1 12.2-2.2 7.5-4.8 14.5-5.2 17.5-.2 1.6-.6 3.9.4 3.9-2 .8-2.9 21.7-1.7 22.5-.9.4-.5 2.1-.3 3.8.1 1 2.9 17.4 2.9 25.8 0 7.9-1.6 11.7-2.3 13.9-1 3.2-2.1 11.2 1.6 13.3 2.2 1.2 9.4 2.3 16 2.3s13.9-1 16-2.3c3.6-2.1 2.6-10.1 1.6-13.3-.6-2.4-2.2-6.2-2.2-14.1z"/></svg>