<?xml version="1.0" standalone="no"?>
<!DOCTYPE svg PUBLIC "-//W3C//DTD SVG 1.1//EN" "http://www.w3.org/Graphics/SVG/1.1/DTD/svg11.dtd" >
<svg xmlns="http://www.w3.org/2000/svg" xmlns:xlink="http://www.w3.org/1999/xlink" version="1.1">
<metadata>
Created by FontForge 20161013 at Tue May  9 11:51:14 2017
 By ,,,
Part of the digitally encoded machine readable outline data for producing the Typefaces provided is copyrighted (c) 2003 - 2006 Linotype GmbH, www.linotype.com. All rights reserved. This software is the property of Linotype GmbH, and may not be reproduced, modified, disclosed or transferred without the express written approval of Linotype GmbH. Copyright (c) 1988, 1990, 1993 Adobe Systems Incorporated. All Rights Reserved. Helvetica is a trademark of Heidelberger Druckmaschinen AG, exclusively licensed through Linotype GmbH, and may be registered in certain jurisdictions. This typeface is original artwork of Linotype Design Studio. The design may be protected in certain jurisdictions.
</metadata>
<defs>
<font id="HelveticaNeueLTCom-Cn" horiz-adv-x="463" >
  <font-face 
    font-family="HelveticaNeueLT Com 57 Cn"
    font-weight="400"
    font-stretch="normal"
    units-per-em="1000"
    panose-1="2 11 5 6 3 5 2 3 2 4"
    ascent="714"
    descent="-286"
    bbox="-50 -210 772 936"
    underline-thickness="50"
    underline-position="-150"
    unicode-range="U+0020-021B"
  />
<missing-glyph horiz-adv-x="512" 
d="M222 117v67h56v-67h-56zM225 234l-2 17q0 55 13 81t46 59q32 31 41 47.5t9 35.5q0 36 -22.5 60.5t-53.5 24.5t-53.5 -22t-28.5 -73l-50 8q7 71 44 104t91 33q53 0 88.5 -36t35.5 -95q0 -32 -12.5 -58.5t-50.5 -61.5q-37 -33 -43 -52t-6 -72h-46zM462 50v617h-412v-617
h412zM512 718v-718h-512v718h512z" />
    <glyph glyph-name=".notdef" horiz-adv-x="512" 
d="M222 117v67h56v-67h-56zM225 234l-2 17q0 55 13 81t46 59q32 31 41 47.5t9 35.5q0 36 -22.5 60.5t-53.5 24.5t-53.5 -22t-28.5 -73l-50 8q7 71 44 104t91 33q53 0 88.5 -36t35.5 -95q0 -32 -12.5 -58.5t-50.5 -61.5q-37 -33 -43 -52t-6 -72h-46zM462 50v617h-412v-617
h412zM512 718v-718h-512v718h512z" />
    <glyph glyph-name=".null" horiz-adv-x="500" 
 />
    <glyph glyph-name="nonmarkingreturn" horiz-adv-x="0" 
 />
    <glyph glyph-name="space" unicode=" " horiz-adv-x="240" 
 />
    <glyph glyph-name="A" horiz-adv-x="500" 
d="M155 268h192l-91 345h-2zM198 714h118l192 -714h-92l-51 196h-228l-53 -196h-92z" />
    <glyph glyph-name="C" horiz-adv-x="519" 
d="M495 245q-3 -51 -15.5 -97.5t-37.5 -82.5t-65.5 -57.5t-98.5 -21.5q-76 0 -121.5 32.5t-69.5 85.5t-31.5 119t-7.5 134q0 67 8 133.5t33 119.5t70 85.5t119 32.5q109 0 158.5 -58t52.5 -164h-92q-1 30 -7 57.5t-19.5 48t-36 32.5t-56.5 12q-46 0 -73 -23.5t-41.5 -64
t-19 -95t-4.5 -116.5t4.5 -116.5t19 -95t41.5 -64t73 -23.5q40 0 64 17t37.5 44t18 60t5.5 66h92z" />
    <glyph glyph-name="D" horiz-adv-x="556" 
d="M67 714h191q83 0 132.5 -28t75.5 -76.5t34 -113.5t8 -139q0 -68 -10 -132t-37 -114t-74 -80.5t-120 -30.5h-200v714zM155 72h92q57 0 90.5 26.5t51 67.5t22.5 91.5t5 98.5q0 52 -4 103t-20.5 91.5t-50.5 66t-94 25.5h-92v-570z" />
    <glyph glyph-name="E" 
d="M58 714h369v-78h-281v-224h265v-78h-265v-256h293v-78h-381v714z" />
    <glyph glyph-name="G" horiz-adv-x="537" 
d="M397 516q-2 28 -8.5 53.5t-20 44.5t-35.5 30.5t-55 11.5q-46 0 -73 -23.5t-41.5 -64t-19 -95t-4.5 -116.5t4.5 -116.5t19 -95t41.5 -64t73 -23.5t72 24.5t39 60.5t16.5 78t3.5 78h-141v72h221v-371h-66v97h-2q-14 -46 -54 -78.5t-100 -32.5q-70 0 -113 31t-66.5 82.5
t-31.5 118.5t-8 139q0 67 8 133.5t33 119.5t70 85.5t119 32.5q51 0 86.5 -13t59 -33.5t36.5 -45.5t19.5 -48.5t8 -43t1.5 -28.5h-92z" />
    <glyph glyph-name="H" horiz-adv-x="537" 
d="M479 0h-88v344h-245v-344h-88v714h88v-292h245v292h88v-714z" />
    <glyph glyph-name="I" horiz-adv-x="204" 
d="M58 714h88v-714h-88v714z" />
    <glyph glyph-name="J" horiz-adv-x="426" 
d="M368 205q0 -48 -7.5 -88t-27 -69t-54.5 -45.5t-90 -16.5q-45 0 -76.5 13.5t-51.5 36t-29.5 52t-9.5 61.5v59h84v-52q0 -45 18.5 -71.5t63.5 -26.5q30 0 48 9.5t28 28.5t13 47t3 65v506h88v-509z" />
    <glyph glyph-name="K" horiz-adv-x="500" 
d="M58 714h88v-346h2l247 346h98l-216 -298l234 -416h-98l-193 344l-74 -101v-243h-88v714z" />
    <glyph glyph-name="L" horiz-adv-x="444" 
d="M58 714h88v-636h290v-78h-378v714z" />
    <glyph glyph-name="N" horiz-adv-x="556" 
d="M58 714h87h27l236 -596h2v596h88v-714h-87h-34l-229 578h-2v-578h-88v714z" />
    <glyph glyph-name="O" horiz-adv-x="556" 
d="M278 656q-46 0 -73 -23.5t-41.5 -64t-19 -95t-4.5 -116.5t4.5 -116.5t19 -95t41.5 -64t73 -23.5t73 23.5t41.5 64t19 95t4.5 116.5t-4.5 116.5t-19 95t-41.5 64t-73 23.5zM278 728q74 0 119 -32.5t70 -85.5t33 -119.5t8 -133.5q0 -68 -8 -134t-33 -119t-70 -85.5
t-119 -32.5t-119 32.5t-70 85.5t-33 119t-8 134q0 67 8 133.5t33 119.5t70 85.5t119 32.5z" />
    <glyph glyph-name="R" horiz-adv-x="519" 
d="M146 390h87q19 0 44.5 2t48.5 15t38.5 41t15.5 80q0 54 -33 84t-96 30h-105v-252zM58 714h231q85 0 134 -47t49 -132q0 -29 -5.5 -58t-18.5 -53.5t-34 -43t-52 -25.5v-2q47 -5 72.5 -39t28.5 -80l6 -122q1 -30 4 -49t8 -31.5t11.5 -19.5t14.5 -12h-106q-6 6 -10 18
t-7 26.5t-4.5 30t-2.5 28.5l-6 111q-3 37 -13.5 57.5t-25.5 31t-32.5 13t-34.5 2.5h-119v-318h-88v714z" />
    <glyph glyph-name="S" horiz-adv-x="500" 
d="M361 529q0 28 -5.5 51.5t-18.5 40t-34.5 26t-52.5 9.5q-57 0 -87.5 -29.5t-30.5 -86.5q0 -50 25 -77t62.5 -43t81 -28.5t81 -33.5t62.5 -58t25 -102q0 -62 -20.5 -103t-52.5 -65t-71.5 -34t-77.5 -10q-63 0 -104.5 16t-66 46t-35 74.5t-10.5 101.5h88q0 -30 3 -59.5
t16 -53.5t40 -38.5t75 -14.5q26 0 49 9t39.5 25.5t26 39.5t9.5 52q0 38 -14.5 62t-38 40.5t-54 27t-62 21.5t-62 24.5t-54 35t-38 54.5t-14.5 82q0 25 7 58.5t29.5 64.5t63.5 52.5t109 21.5q103 0 150.5 -49.5t49.5 -149.5h-88z" />
    <glyph glyph-name="T" 
d="M275 0h-88v636h-179v78h447v-78h-180v-636z" />
    <glyph glyph-name="U" horiz-adv-x="519" 
d="M50 714h88v-502q0 -79 27.5 -116.5t93.5 -37.5q70 0 96 39.5t26 114.5v502h88v-502q0 -103 -52.5 -164.5t-157.5 -61.5q-109 0 -159 57t-50 169v502z" />
    <glyph glyph-name="W" horiz-adv-x="722" 
d="M8 714h88l109 -584h2l101 584h106l101 -584h2l109 584h88l-147 -714h-107l-98 578h-2l-103 -578h-107z" />
    <glyph glyph-name="Y" horiz-adv-x="462" 
d="M-2 714h97l136 -334l141 334h92l-189 -434v-280h-88v280z" />
    <glyph glyph-name="Z" 
d="M23 74l321 562h-303v78h395v-81l-321 -555h325v-78h-417v74z" />
    <glyph glyph-name="a" horiz-adv-x="444" 
d="M301 292q-12 -12 -30.5 -20t-39 -14.5t-40 -13t-33.5 -15.5q-20 -13 -30.5 -31.5t-10.5 -53.5q0 -42 16.5 -67t59.5 -25q21 0 40.5 8t34.5 22t24 32.5t9 39.5v138zM42 374q0 91 42 133.5t138 42.5q61 0 94 -16t48.5 -40t18 -50.5t2.5 -47.5v-299q0 -17 3 -30t23 -13
q8 0 12.5 1.5t7.5 3.5v-60q-5 -1 -19 -3t-30 -2q-12 0 -24.5 1t-24 7.5t-19 20.5t-8.5 40h-2q-20 -36 -55.5 -56.5t-73.5 -20.5q-75 0 -110.5 42t-35.5 114q0 57 24.5 94.5t76.5 53.5l113 34q23 7 35.5 14.5t18 16.5t6.5 21t1 29q0 79 -86 79q-35 0 -53.5 -13.5t-27 -31.5
t-10 -35.5t-1.5 -24.5v-5h-84z" />
    <glyph glyph-name="c" horiz-adv-x="426" 
d="M310 373q0 19 -4.5 39t-14 36t-26 26t-40.5 10q-20 0 -38.5 -7t-33.5 -30.5t-24 -67.5t-9 -117q0 -26 1.5 -62t11.5 -69t30.5 -56t58.5 -23q27 0 44 13t27 32.5t13.5 43t3.5 45.5h84q0 -32 -8.5 -67t-29 -64.5t-54.5 -49t-84 -19.5q-99 0 -142.5 68t-43.5 207
q0 50 6.5 101.5t27 93t58 68t99.5 26.5q55 0 88.5 -19t52 -46.5t24.5 -58t6 -53.5h-84z" />
    <glyph glyph-name="d" 
d="M408 0h-80v66h-2q-4 -15 -14.5 -29.5t-26 -25.5t-34.5 -18t-41 -7q-48 0 -81 20.5t-54 57.5t-30.5 89t-9.5 115q0 42 5 91.5t22.5 91.5t51 70.5t90.5 28.5q36 0 70 -20t48 -55h2v239h84v-714zM123 268q0 -48 4.5 -87t15.5 -66t30 -42t48 -15q34 0 55.5 15.5t33 43.5
t15.5 66.5t4 84.5q0 39 -4 76.5t-16 67.5t-33 48t-55 18q-29 0 -48 -15t-30 -42t-15.5 -66t-4.5 -87z" />
    <glyph glyph-name="e" horiz-adv-x="444" 
d="M125 258q0 -31 1.5 -67t11.5 -67t30.5 -51.5t59.5 -20.5q30 0 48 13.5t27.5 33t12.5 41t3 36.5h84q0 -21 -7.5 -53.5t-27.5 -63t-55 -52t-90 -21.5q-99 0 -142.5 68t-43.5 207q0 50 6.5 101.5t27 93t58 68t99.5 26.5q61 0 97 -24t54 -61.5t23 -83.5t5 -89v-34h-282z
M319 324v29q0 22 -4 45.5t-14.5 42.5t-28.5 31t-46 12q-33 0 -52.5 -17.5t-29.5 -40.5t-13 -46.5t-3 -35.5v-20h191z" />
    <glyph glyph-name="g" 
d="M408 34q0 -60 -13.5 -101.5t-37.5 -67.5t-57.5 -37.5t-73.5 -11.5q-12 0 -39.5 2t-56 14.5t-52 40t-28.5 77.5h84q3 -37 28 -52.5t58 -15.5q40 0 61.5 13.5t31 32.5t10.5 39.5t1 34.5v70h-2q-14 -34 -47.5 -53t-73.5 -19q-39 0 -66.5 15t-46 39t-29 53.5t-16 59.5
t-7 56.5t-1.5 44.5q0 54 8 105t28.5 90.5t54 63t84.5 23.5q22 0 41.5 -7t34.5 -18t25.5 -26t14.5 -31h2v68h80v-502zM221 478q-29 0 -48 -15t-30 -42t-15.5 -66t-4.5 -87q0 -33 3.5 -67.5t13.5 -63t29 -47t51 -18.5q34 0 55.5 15t33.5 41.5t16 62.5t4 77q0 39 -4 76.5
t-16 67.5t-33 48t-55 18z" />
    <glyph glyph-name="h" 
d="M55 714h84v-239h2q8 16 22.5 30t32 24t37 15.5t37.5 5.5q52 0 80 -17.5t41 -43.5t15 -55.5t2 -53.5v-380h-84v370q0 15 -1.5 34t-9.5 35.5t-24 27.5t-44 11q-17 0 -35.5 -6t-34.5 -19t-26 -33.5t-10 -49.5v-370h-84v714z" />
    <glyph glyph-name="i" horiz-adv-x="204" 
d="M60 714h84v-96h-84v96zM60 536h84v-536h-84v536z" />
    <glyph glyph-name="j" horiz-adv-x="204" 
d="M144 618h-84v96h84v-96zM144 -52q0 -66 -29.5 -99t-98.5 -33q-10 0 -19.5 1t-19.5 2v72q8 -1 15.5 -2t15.5 -1q19 0 30 7t15.5 19t5.5 28.5t1 35.5v558h84v-588z" />
    <glyph glyph-name="k" horiz-adv-x="444" 
d="M455 0h-98l-149 265l-69 -84v-181h-84v714h84v-425h2l188 247h98l-163 -202z" />
    <glyph glyph-name="l" horiz-adv-x="204" 
d="M60 714h84v-714h-84v714z" />
    <glyph glyph-name="n" 
d="M55 536h80v-63h2q17 37 54 57t76 20q53 0 81.5 -17.5t42 -43.5t15.5 -55.5t2 -53.5v-380h-84v370q0 15 -1.5 34t-9.5 35.5t-24 27.5t-44 11q-17 0 -35.5 -6t-34.5 -19t-26 -33.5t-10 -49.5v-370h-84v536z" />
    <glyph glyph-name="o" horiz-adv-x="444" 
d="M29 268q0 57 8.5 108t30 89.5t59 61.5t95.5 23t95.5 -23t59 -61.5t30 -89.5t8.5 -108t-8.5 -108t-30.5 -89.5t-59 -61.5t-95 -23t-95.5 23t-59 61.5t-30 89.5t-8.5 108zM220 52q33 0 54 17.5t33 47t16 68.5t4 83q0 43 -4 82.5t-15.5 69t-32.5 47t-55 17.5
q-32 0 -52 -17.5t-31.5 -47t-15.5 -69t-4 -82.5q0 -44 4 -83t15 -68.5t31.5 -47t52.5 -17.5z" />
    <glyph glyph-name="r" horiz-adv-x="296" 
d="M55 536h84v-80h2q9 19 19.5 36t24.5 30t31.5 20.5t40.5 7.5q25 0 37 -6v-82q-6 1 -15.5 2.5t-29.5 1.5q-16 0 -35 -7.5t-35.5 -23t-28 -39.5t-11.5 -57v-339h-84v536z" />
    <glyph glyph-name="s" horiz-adv-x="407" 
d="M285 379q0 51 -16.5 78t-62.5 27q-10 0 -25 -2.5t-28.5 -10.5t-23.5 -24.5t-10 -44.5q0 -24 11.5 -39t30 -25.5t42 -17.5t48.5 -15q24 -8 47.5 -17.5t42 -26t30 -42t11.5 -65.5q0 -42 -13 -73.5t-36 -52.5t-55 -31.5t-69 -10.5q-68 0 -105.5 22t-55 52.5t-20.5 62.5
t-3 53h84q0 -24 4 -46.5t15 -40t30.5 -27.5t50.5 -10q10 0 25 3t29.5 13t24.5 27t10 46q0 27 -11.5 44.5t-30 29t-42 19.5t-47.5 16t-48 17.5t-42.5 25.5t-30 42t-11.5 67q0 37 13.5 65t37 46.5t54.5 27.5t66 9q58 0 91 -18t49 -44t19.5 -55.5t3.5 -53.5h-84z" />
    <glyph glyph-name="t" horiz-adv-x="259" 
d="M80 692h84v-156h93v-66h-93v-344q0 -32 11 -46t44 -14q14 0 22 1t15 2v-69q-8 -2 -25 -4t-43 -2q-33 0 -54 6.5t-33 20t-16.5 33.5t-4.5 46v370h-78v66h78v156z" />
    <glyph glyph-name="u" 
d="M408 0h-80v63h-2q-17 -37 -54 -57t-76 -20q-53 0 -81.5 17.5t-42 43.5t-15.5 55.5t-2 53.5v380h84v-370q0 -15 1.5 -34t9.5 -35.5t23.5 -27.5t44.5 -11q17 0 35.5 6t34.5 19t26 33.5t10 49.5v370h84v-536z" />
    <glyph glyph-name="w" horiz-adv-x="648" 
d="M10 536h88l86 -438h2l91 438h99l89 -438h2l83 438h88l-127 -536h-92l-94 438h-2l-90 -438h-98z" />
    <glyph glyph-name="y" horiz-adv-x="406" 
d="M10 536h92l106 -430h2l94 430h92l-155 -572q-8 -28 -17 -53t-24.5 -44.5t-39.5 -31t-62 -11.5q-25 0 -37.5 1t-23.5 2v66q18 -3 49 -3q29 0 43.5 15t22.5 37l16 47z" />
    <glyph glyph-name="z" horiz-adv-x="389" 
d="M39 536h323v-70l-240 -394h238v-72h-333v66l243 398h-231v72z" />
    <glyph glyph-name="dieresis" horiz-adv-x="204" 
d="M144 731h78v-101h-78v101zM-18 731h78v-101h-78v101z" />
    <glyph glyph-name="macron" horiz-adv-x="204" 
d="M-30 707h264v-54h-264v54z" />
    <glyph glyph-name="acute" horiz-adv-x="204" 
d="M122 751h98l-108 -142h-60z" />
    <glyph glyph-name="Amacron" unicode="&#x100;" horiz-adv-x="500" 
d="M0 0zM155 268h192l-91 345h-2zM198 714h118l192 -714h-92l-51 196h-228l-53 -196h-92zM125 871h264v-54h-264v54z" />
    <glyph glyph-name="amacron" unicode="&#x101;" horiz-adv-x="444" 
d="M29 0zM301 292q-12 -12 -30.5 -20t-39 -14.5t-40 -13t-33.5 -15.5q-20 -13 -30.5 -31.5t-10.5 -53.5q0 -42 16.5 -67t59.5 -25q21 0 40.5 8t34.5 22t24 32.5t9 39.5v138zM42 374q0 91 42 133.5t138 42.5q61 0 94 -16t48.5 -40t18 -50.5t2.5 -47.5v-299q0 -17 3 -30
t23 -13q8 0 12.5 1.5t7.5 3.5v-60q-5 -1 -19 -3t-30 -2q-12 0 -24.5 1t-24 7.5t-19 20.5t-8.5 40h-2q-20 -36 -55.5 -56.5t-73.5 -20.5q-75 0 -110.5 42t-35.5 114q0 57 24.5 94.5t76.5 53.5l113 34q23 7 35.5 14.5t18 16.5t6.5 21t1 29q0 79 -86 79q-35 0 -53.5 -13.5
t-27 -31.5t-10 -35.5t-1.5 -24.5v-5h-84zM92 707h264v-54h-264v54z" />
    <glyph glyph-name="Abreve" unicode="&#x102;" horiz-adv-x="500" 
d="M0 0zM155 268h192l-91 345h-2zM198 714h118l192 -714h-92l-51 196h-228l-53 -196h-92zM181 890q0 -14 7 -26t18 -21t24.5 -14.5t27.5 -5.5q13 0 27 5.5t25 14.5t18 21t7 26h48q0 -15 -5.5 -37t-19.5 -42t-38.5 -34t-61.5 -14q-38 0 -62 14t-38 34t-19.5 42t-5.5 37h48z
" />
    <glyph glyph-name="abreve" unicode="&#x103;" horiz-adv-x="444" 
d="M29 0zM301 292q-12 -12 -30.5 -20t-39 -14.5t-40 -13t-33.5 -15.5q-20 -13 -30.5 -31.5t-10.5 -53.5q0 -42 16.5 -67t59.5 -25q21 0 40.5 8t34.5 22t24 32.5t9 39.5v138zM42 374q0 91 42 133.5t138 42.5q61 0 94 -16t48.5 -40t18 -50.5t2.5 -47.5v-299q0 -17 3 -30
t23 -13q8 0 12.5 1.5t7.5 3.5v-60q-5 -1 -19 -3t-30 -2q-12 0 -24.5 1t-24 7.5t-19 20.5t-8.5 40h-2q-20 -36 -55.5 -56.5t-73.5 -20.5q-75 0 -110.5 42t-35.5 114q0 57 24.5 94.5t76.5 53.5l113 34q23 7 35.5 14.5t18 16.5t6.5 21t1 29q0 79 -86 79q-35 0 -53.5 -13.5
t-27 -31.5t-10 -35.5t-1.5 -24.5v-5h-84zM144 744q0 -14 7 -26t18 -21t24.5 -14.5t27.5 -5.5q13 0 27 5.5t25 14.5t18 21t7 26h48q0 -15 -5.5 -37t-19.5 -42t-38.5 -34t-61.5 -14q-38 0 -62 14t-38 34t-19.5 42t-5.5 37h48z" />
    <glyph glyph-name="Aogonek" unicode="&#x104;" horiz-adv-x="500" 
d="M469 0q-33 -24 -53 -42.5t-31.5 -33t-15.5 -26.5t-4 -23q0 -38 40 -38q20 0 34.5 4t31.5 12l18 -35q-25 -15 -52.5 -21.5t-49.5 -6.5q-49 0 -71.5 21t-22.5 57q0 73 123 132l-51 196h-228l-53 -196h-92l206 714h118l192 -714h-39zM155 268h192l-91 345h-2z" />
    <glyph glyph-name="aogonek" unicode="&#x105;" horiz-adv-x="444" 
d="M42 374q0 91 42 133.5t138 42.5q61 0 94 -16t48.5 -40t18 -50.5t2.5 -47.5v-299q0 -17 3 -30t23 -13q8 0 12.5 1.5t7.5 3.5v-60q-4 -1 -19 -3l-8 -1q-29 -21 -46 -37q-32 -29 -41.5 -47t-9.5 -36q0 -38 40 -38q20 0 34.5 4t31.5 12l18 -35q-25 -15 -52.5 -21.5
t-49.5 -6.5q-49 0 -71.5 21t-22.5 57q0 73 115 128q-10 2 -17 6q-10 7 -18 21t-9 40h-2q-20 -36 -55.5 -56.5t-73.5 -20.5q-75 0 -110.5 42t-35.5 114q0 57 24.5 94.5t76.5 53.5l113 34q23 7 35.5 14.5t18 16.5t6.5 21t1 29q0 79 -86 79q-35 0 -53.5 -13.5t-27 -31.5
t-10 -35.5t-1.5 -24.5v-5h-84zM301 292q-12 -12 -30.5 -20t-39 -14.5t-40 -13t-33.5 -15.5q-20 -13 -30.5 -31.5t-10.5 -53.5q0 -42 16.5 -67t59.5 -25q21 0 40.5 8t34.5 22t24 32.5t9 39.5v138z" />
    <glyph glyph-name="Cacute" unicode="&#x106;" horiz-adv-x="519" 
d="M48 0zM495 245q-3 -51 -15.5 -97.5t-37.5 -82.5t-65.5 -57.5t-98.5 -21.5q-76 0 -121.5 32.5t-69.5 85.5t-31.5 119t-7.5 134q0 67 8 133.5t33 119.5t70 85.5t119 32.5q109 0 158.5 -58t52.5 -164h-92q-1 30 -7 57.5t-19.5 48t-36 32.5t-56.5 12q-46 0 -73 -23.5
t-41.5 -64t-19 -95t-4.5 -116.5t4.5 -116.5t19 -95t41.5 -64t73 -23.5q40 0 64 17t37.5 44t18 60t5.5 66h92zM318 915h98l-108 -142h-60z" />
    <glyph glyph-name="cacute" unicode="&#x107;" horiz-adv-x="426" 
d="M32 0zM310 373q0 19 -4.5 39t-14 36t-26 26t-40.5 10q-20 0 -38.5 -7t-33.5 -30.5t-24 -67.5t-9 -117q0 -26 1.5 -62t11.5 -69t30.5 -56t58.5 -23q27 0 44 13t27 32.5t13.5 43t3.5 45.5h84q0 -32 -8.5 -67t-29 -64.5t-54.5 -49t-84 -19.5q-99 0 -142.5 68t-43.5 207
q0 50 6.5 101.5t27 93t58 68t99.5 26.5q55 0 88.5 -19t52 -46.5t24.5 -58t6 -53.5h-84zM264 751h98l-108 -142h-60z" />
    <glyph glyph-name="Ccircumflex" unicode="&#x108;" horiz-adv-x="519" 
d="M48 0zM495 245q-3 -51 -15.5 -97.5t-37.5 -82.5t-65.5 -57.5t-98.5 -21.5q-76 0 -121.5 32.5t-69.5 85.5t-31.5 119t-7.5 134q0 67 8 133.5t33 119.5t70 85.5t119 32.5q109 0 158.5 -58t52.5 -164h-92q-1 30 -7 57.5t-19.5 48t-36 32.5t-56.5 12q-46 0 -73 -23.5
t-41.5 -64t-19 -95t-4.5 -116.5t4.5 -116.5t19 -95t41.5 -64t73 -23.5q40 0 64 17t37.5 44t18 60t5.5 66h92zM242 915h77l100 -142h-78l-61 88l-61 -88h-78z" />
    <glyph glyph-name="ccircumflex" unicode="&#x109;" horiz-adv-x="426" 
d="M32 0zM310 373q0 19 -4.5 39t-14 36t-26 26t-40.5 10q-20 0 -38.5 -7t-33.5 -30.5t-24 -67.5t-9 -117q0 -26 1.5 -62t11.5 -69t30.5 -56t58.5 -23q27 0 44 13t27 32.5t13.5 43t3.5 45.5h84q0 -32 -8.5 -67t-29 -64.5t-54.5 -49t-84 -19.5q-99 0 -142.5 68t-43.5 207
q0 50 6.5 101.5t27 93t58 68t99.5 26.5q55 0 88.5 -19t52 -46.5t24.5 -58t6 -53.5h-84zM188 751h77l100 -142h-78l-61 88l-61 -88h-78z" />
    <glyph glyph-name="Cdotaccent" unicode="&#x10a;" horiz-adv-x="519" 
d="M48 0zM495 245q-3 -51 -15.5 -97.5t-37.5 -82.5t-65.5 -57.5t-98.5 -21.5q-76 0 -121.5 32.5t-69.5 85.5t-31.5 119t-7.5 134q0 67 8 133.5t33 119.5t70 85.5t119 32.5q109 0 158.5 -58t52.5 -164h-92q-1 30 -7 57.5t-19.5 48t-36 32.5t-56.5 12q-46 0 -73 -23.5
t-41.5 -64t-19 -95t-4.5 -116.5t4.5 -116.5t19 -95t41.5 -64t73 -23.5q40 0 64 17t37.5 44t18 60t5.5 66h92zM240 895h78v-101h-78v101z" />
    <glyph glyph-name="cdotaccent" unicode="&#x10b;" horiz-adv-x="426" 
d="M32 0zM310 373q0 19 -4.5 39t-14 36t-26 26t-40.5 10q-20 0 -38.5 -7t-33.5 -30.5t-24 -67.5t-9 -117q0 -26 1.5 -62t11.5 -69t30.5 -56t58.5 -23q27 0 44 13t27 32.5t13.5 43t3.5 45.5h84q0 -32 -8.5 -67t-29 -64.5t-54.5 -49t-84 -19.5q-99 0 -142.5 68t-43.5 207
q0 50 6.5 101.5t27 93t58 68t99.5 26.5q55 0 88.5 -19t52 -46.5t24.5 -58t6 -53.5h-84zM186 731h78v-101h-78v101z" />
    <glyph glyph-name="Ccaron" unicode="&#x10c;" horiz-adv-x="519" 
d="M48 0zM495 245q-3 -51 -15.5 -97.5t-37.5 -82.5t-65.5 -57.5t-98.5 -21.5q-76 0 -121.5 32.5t-69.5 85.5t-31.5 119t-7.5 134q0 67 8 133.5t33 119.5t70 85.5t119 32.5q109 0 158.5 -58t52.5 -164h-92q-1 30 -7 57.5t-19.5 48t-36 32.5t-56.5 12q-46 0 -73 -23.5
t-41.5 -64t-19 -95t-4.5 -116.5t4.5 -116.5t19 -95t41.5 -64t73 -23.5q40 0 64 17t37.5 44t18 60t5.5 66h92zM315 773h-77l-100 142h78l61 -88l61 88h78z" />
    <glyph glyph-name="ccaron" unicode="&#x10d;" horiz-adv-x="426" 
d="M32 0zM310 373q0 19 -4.5 39t-14 36t-26 26t-40.5 10q-20 0 -38.5 -7t-33.5 -30.5t-24 -67.5t-9 -117q0 -26 1.5 -62t11.5 -69t30.5 -56t58.5 -23q27 0 44 13t27 32.5t13.5 43t3.5 45.5h84q0 -32 -8.5 -67t-29 -64.5t-54.5 -49t-84 -19.5q-99 0 -142.5 68t-43.5 207
q0 50 6.5 101.5t27 93t58 68t99.5 26.5q55 0 88.5 -19t52 -46.5t24.5 -58t6 -53.5h-84zM258 609h-77l-100 142h78l61 -88l61 88h78z" />
    <glyph glyph-name="Dcaron" unicode="&#x10e;" horiz-adv-x="556" 
d="M67 0zM67 714h191q83 0 132.5 -28t75.5 -76.5t34 -113.5t8 -139q0 -68 -10 -132t-37 -114t-74 -80.5t-120 -30.5h-200v714zM155 72h92q57 0 90.5 26.5t51 67.5t22.5 91.5t5 98.5q0 52 -4 103t-20.5 91.5t-50.5 66t-94 25.5h-92v-570zM289 773h-77l-100 142h78l61 -88
l61 88h78z" />
    <glyph glyph-name="dcaron" unicode="&#x10f;" horiz-adv-x="524" 
d="M35 0zM408 0h-80v66h-2q-4 -15 -14.5 -29.5t-26 -25.5t-34.5 -18t-41 -7q-48 0 -81 20.5t-54 57.5t-30.5 89t-9.5 115q0 42 5 91.5t22.5 91.5t51 70.5t90.5 28.5q36 0 70 -20t48 -55h2v239h84v-714zM123 268q0 -48 4.5 -87t15.5 -66t30 -42t48 -15q34 0 55.5 15.5
t33 43.5t15.5 66.5t4 84.5q0 39 -4 76.5t-16 67.5t-33 48t-55 18q-29 0 -48 -15t-30 -42t-15.5 -66t-4.5 -87zM477 714h87l-59 -142h-54z" />
    <glyph glyph-name="Dcroat" unicode="&#x110;" horiz-adv-x="556" 
d="M247 72q57 0 90.5 26.5t51 67.5t22.5 91.5t5 98.5q0 52 -4 103t-20.5 91.5t-50.5 66t-94 25.5h-92v-236h134v-66h-134v-268h92zM67 340h-58v66h58v308h191q83 0 132.5 -28t75.5 -76.5t34 -113.5t8 -139q0 -68 -10 -132t-37 -114t-74 -80.5t-120 -30.5h-200v340z" />
    <glyph glyph-name="dcroat" unicode="&#x111;" horiz-adv-x="478" 
d="M408 0h-80v66h-2q-4 -15 -14.5 -29.5t-26 -25.5t-34.5 -18t-41 -7q-48 0 -81 20.5t-54 57.5t-30.5 89t-9.5 115q0 42 5 91.5t22.5 91.5t51 70.5t90.5 28.5q36 0 70 -20t48 -55h2v116h-102v49h102v74h84v-74h78v-49h-78v-591zM123 268q0 -48 4.5 -87t15.5 -66t30 -42
t48 -15q34 0 55.5 15.5t33 43.5t15.5 66.5t4 84.5q0 39 -4 76.5t-16 67.5t-33 48t-55 18q-29 0 -48 -15t-30 -42t-15.5 -66t-4.5 -87z" />
    <glyph glyph-name="Emacron" unicode="&#x112;" 
d="M58 0zM58 714h369v-78h-281v-224h265v-78h-265v-256h293v-78h-381v714zM115 871h264v-54h-264v54z" />
    <glyph glyph-name="emacron" unicode="&#x113;" horiz-adv-x="444" 
d="M37 0zM125 258q0 -31 1.5 -67t11.5 -67t30.5 -51.5t59.5 -20.5q30 0 48 13.5t27.5 33t12.5 41t3 36.5h84q0 -21 -7.5 -53.5t-27.5 -63t-55 -52t-90 -21.5q-99 0 -142.5 68t-43.5 207q0 50 6.5 101.5t27 93t58 68t99.5 26.5q61 0 97 -24t54 -61.5t23 -83.5t5 -89v-34h-282
zM319 324v29q0 22 -4 45.5t-14.5 42.5t-28.5 31t-46 12q-33 0 -52.5 -17.5t-29.5 -40.5t-13 -46.5t-3 -35.5v-20h191zM97 707h264v-54h-264v54z" />
    <glyph glyph-name="Ebreve" unicode="&#x114;" 
d="M58 0zM58 714h369v-78h-281v-224h265v-78h-265v-256h293v-78h-381v714zM163 908q0 -14 7 -26t18 -21t24.5 -14.5t27.5 -5.5q13 0 27 5.5t25 14.5t18 21t7 26h48q0 -15 -5.5 -37t-19.5 -42t-38.5 -34t-61.5 -14q-38 0 -62 14t-38 34t-19.5 42t-5.5 37h48z" />
    <glyph glyph-name="ebreve" unicode="&#x115;" horiz-adv-x="444" 
d="M37 0zM125 258q0 -31 1.5 -67t11.5 -67t30.5 -51.5t59.5 -20.5q30 0 48 13.5t27.5 33t12.5 41t3 36.5h84q0 -21 -7.5 -53.5t-27.5 -63t-55 -52t-90 -21.5q-99 0 -142.5 68t-43.5 207q0 50 6.5 101.5t27 93t58 68t99.5 26.5q61 0 97 -24t54 -61.5t23 -83.5t5 -89v-34h-282
zM319 324v29q0 22 -4 45.5t-14.5 42.5t-28.5 31t-46 12q-33 0 -52.5 -17.5t-29.5 -40.5t-13 -46.5t-3 -35.5v-20h191zM153 744q0 -14 7 -26t18 -21t24.5 -14.5t27.5 -5.5q13 0 27 5.5t25 14.5t18 21t7 26h48q0 -15 -5.5 -37t-19.5 -42t-38.5 -34t-61.5 -14q-38 0 -62 14
t-38 34t-19.5 42t-5.5 37h48z" />
    <glyph glyph-name="Edotaccent" unicode="&#x116;" 
d="M58 0zM58 714h369v-78h-281v-224h265v-78h-265v-256h293v-78h-381v714zM205 895h78v-101h-78v101z" />
    <glyph glyph-name="edotaccent" unicode="&#x117;" horiz-adv-x="444" 
d="M37 0zM125 258q0 -31 1.5 -67t11.5 -67t30.5 -51.5t59.5 -20.5q30 0 48 13.5t27.5 33t12.5 41t3 36.5h84q0 -21 -7.5 -53.5t-27.5 -63t-55 -52t-90 -21.5q-99 0 -142.5 68t-43.5 207q0 50 6.5 101.5t27 93t58 68t99.5 26.5q61 0 97 -24t54 -61.5t23 -83.5t5 -89v-34h-282
zM319 324v29q0 22 -4 45.5t-14.5 42.5t-28.5 31t-46 12q-33 0 -52.5 -17.5t-29.5 -40.5t-13 -46.5t-3 -35.5v-20h191zM189 731h78v-101h-78v101z" />
    <glyph glyph-name="Eogonek" unicode="&#x118;" 
d="M419 0q-33 -24 -53 -42.5t-31.5 -33t-15.5 -26.5t-4 -23q0 -38 40 -38q20 0 34.5 4t31.5 12l18 -35q-25 -15 -52.5 -21.5t-49.5 -6.5q-49 0 -71.5 21t-22.5 57q0 73 123 132h-308v714h369v-78h-281v-224h265v-78h-265v-256h293v-78h-20z" />
    <glyph glyph-name="eogonek" unicode="&#x119;" horiz-adv-x="444" 
d="M125 258q0 -31 1.5 -67t11.5 -67t30.5 -51.5t59.5 -20.5q30 0 48 13.5t27.5 33t12.5 41t3 36.5h84q0 -17 -4 -39.5t-14.5 -45.5t-28 -45.5t-43.5 -38.5q-5 -2 -9.5 -4.5t-9.5 -4.5q-16 -11 -28.5 -21t-21.5 -18q-27 -27 -37.5 -45.5t-10.5 -38.5q0 -38 40 -38
q20 0 34.5 4t31.5 12l18 -35q-25 -15 -52.5 -21.5t-49.5 -6.5q-49 0 -71.5 21t-22.5 57q0 64 93 118q-95 2 -137 68q-43 67 -43 207q0 50 6.5 101.5t27 93t58 68t99.5 26.5q61 0 97 -24t54 -61.5t23 -83.5t5 -89v-34h-282zM319 324v29q0 22 -4 45.5t-14.5 42.5t-28.5 31
t-46 12q-33 0 -52.5 -17.5t-29.5 -40.5t-13 -46.5t-3 -35.5v-20h191z" />
    <glyph glyph-name="Ecaron" unicode="&#x11a;" 
d="M58 0zM58 714h369v-78h-281v-224h265v-78h-265v-256h293v-78h-381v714zM281 773h-77l-100 142h78l61 -88l61 88h78z" />
    <glyph glyph-name="ecaron" unicode="&#x11b;" horiz-adv-x="444" 
d="M37 0zM125 258q0 -31 1.5 -67t11.5 -67t30.5 -51.5t59.5 -20.5q30 0 48 13.5t27.5 33t12.5 41t3 36.5h84q0 -21 -7.5 -53.5t-27.5 -63t-55 -52t-90 -21.5q-99 0 -142.5 68t-43.5 207q0 50 6.5 101.5t27 93t58 68t99.5 26.5q61 0 97 -24t54 -61.5t23 -83.5t5 -89v-34h-282
zM319 324v29q0 22 -4 45.5t-14.5 42.5t-28.5 31t-46 12q-33 0 -52.5 -17.5t-29.5 -40.5t-13 -46.5t-3 -35.5v-20h191zM266 609h-77l-100 142h78l61 -88l61 88h78z" />
    <glyph glyph-name="Gcircumflex" unicode="&#x11c;" horiz-adv-x="537" 
d="M48 0zM397 516q-2 28 -8.5 53.5t-20 44.5t-35.5 30.5t-55 11.5q-46 0 -73 -23.5t-41.5 -64t-19 -95t-4.5 -116.5t4.5 -116.5t19 -95t41.5 -64t73 -23.5t72 24.5t39 60.5t16.5 78t3.5 78h-141v72h221v-371h-66v97h-2q-14 -46 -54 -78.5t-100 -32.5q-70 0 -113 31
t-66.5 82.5t-31.5 118.5t-8 139q0 67 8 133.5t33 119.5t70 85.5t119 32.5q51 0 86.5 -13t59 -33.5t36.5 -45.5t19.5 -48.5t8 -43t1.5 -28.5h-92zM243 915h77l100 -142h-78l-61 88l-61 -88h-78z" />
    <glyph glyph-name="gcircumflex" unicode="&#x11d;" 
d="M35 0zM408 34q0 -60 -13.5 -101.5t-37.5 -67.5t-57.5 -37.5t-73.5 -11.5q-12 0 -39.5 2t-56 14.5t-52 40t-28.5 77.5h84q3 -37 28 -52.5t58 -15.5q40 0 61.5 13.5t31 32.5t10.5 39.5t1 34.5v70h-2q-14 -34 -47.5 -53t-73.5 -19q-39 0 -66.5 15t-46 39t-29 53.5t-16 59.5
t-7 56.5t-1.5 44.5q0 54 8 105t28.5 90.5t54 63t84.5 23.5q22 0 41.5 -7t34.5 -18t25.5 -26t14.5 -31h2v68h80v-502zM221 478q-29 0 -48 -15t-30 -42t-15.5 -66t-4.5 -87q0 -33 3.5 -67.5t13.5 -63t29 -47t51 -18.5q34 0 55.5 15t33.5 41.5t16 62.5t4 77q0 39 -4 76.5
t-16 67.5t-33 48t-55 18zM199 751h77l100 -142h-78l-61 88l-61 -88h-78z" />
    <glyph glyph-name="Gbreve" unicode="&#x11e;" horiz-adv-x="537" 
d="M48 0zM397 516q-2 28 -8.5 53.5t-20 44.5t-35.5 30.5t-55 11.5q-46 0 -73 -23.5t-41.5 -64t-19 -95t-4.5 -116.5t4.5 -116.5t19 -95t41.5 -64t73 -23.5t72 24.5t39 60.5t16.5 78t3.5 78h-141v72h221v-371h-66v97h-2q-14 -46 -54 -78.5t-100 -32.5q-70 0 -113 31
t-66.5 82.5t-31.5 118.5t-8 139q0 67 8 133.5t33 119.5t70 85.5t119 32.5q51 0 86.5 -13t59 -33.5t36.5 -45.5t19.5 -48.5t8 -43t1.5 -28.5h-92zM205 908q0 -14 7 -26t18 -21t24.5 -14.5t27.5 -5.5q13 0 27 5.5t25 14.5t18 21t7 26h48q0 -15 -5.5 -37t-19.5 -42t-38.5 -34
t-61.5 -14q-38 0 -62 14t-38 34t-19.5 42t-5.5 37h48z" />
    <glyph glyph-name="gbreve" unicode="&#x11f;" 
d="M35 0zM408 34q0 -60 -13.5 -101.5t-37.5 -67.5t-57.5 -37.5t-73.5 -11.5q-12 0 -39.5 2t-56 14.5t-52 40t-28.5 77.5h84q3 -37 28 -52.5t58 -15.5q40 0 61.5 13.5t31 32.5t10.5 39.5t1 34.5v70h-2q-14 -34 -47.5 -53t-73.5 -19q-39 0 -66.5 15t-46 39t-29 53.5t-16 59.5
t-7 56.5t-1.5 44.5q0 54 8 105t28.5 90.5t54 63t84.5 23.5q22 0 41.5 -7t34.5 -18t25.5 -26t14.5 -31h2v68h80v-502zM221 478q-29 0 -48 -15t-30 -42t-15.5 -66t-4.5 -87q0 -33 3.5 -67.5t13.5 -63t29 -47t51 -18.5q34 0 55.5 15t33.5 41.5t16 62.5t4 77q0 39 -4 76.5
t-16 67.5t-33 48t-55 18zM166 744q0 -14 7 -26t18 -21t24.5 -14.5t27.5 -5.5q13 0 27 5.5t25 14.5t18 21t7 26h48q0 -15 -5.5 -37t-19.5 -42t-38.5 -34t-61.5 -14q-38 0 -62 14t-38 34t-19.5 42t-5.5 37h48z" />
    <glyph glyph-name="Gdotaccent" unicode="&#x120;" horiz-adv-x="537" 
d="M48 0zM397 516q-2 28 -8.5 53.5t-20 44.5t-35.5 30.5t-55 11.5q-46 0 -73 -23.5t-41.5 -64t-19 -95t-4.5 -116.5t4.5 -116.5t19 -95t41.5 -64t73 -23.5t72 24.5t39 60.5t16.5 78t3.5 78h-141v72h221v-371h-66v97h-2q-14 -46 -54 -78.5t-100 -32.5q-70 0 -113 31
t-66.5 82.5t-31.5 118.5t-8 139q0 67 8 133.5t33 119.5t70 85.5t119 32.5q51 0 86.5 -13t59 -33.5t36.5 -45.5t19.5 -48.5t8 -43t1.5 -28.5h-92zM244 895h78v-101h-78v101z" />
    <glyph glyph-name="gdotaccent" unicode="&#x121;" 
d="M35 0zM408 34q0 -60 -13.5 -101.5t-37.5 -67.5t-57.5 -37.5t-73.5 -11.5q-12 0 -39.5 2t-56 14.5t-52 40t-28.5 77.5h84q3 -37 28 -52.5t58 -15.5q40 0 61.5 13.5t31 32.5t10.5 39.5t1 34.5v70h-2q-14 -34 -47.5 -53t-73.5 -19q-39 0 -66.5 15t-46 39t-29 53.5t-16 59.5
t-7 56.5t-1.5 44.5q0 54 8 105t28.5 90.5t54 63t84.5 23.5q22 0 41.5 -7t34.5 -18t25.5 -26t14.5 -31h2v68h80v-502zM221 478q-29 0 -48 -15t-30 -42t-15.5 -66t-4.5 -87q0 -33 3.5 -67.5t13.5 -63t29 -47t51 -18.5q34 0 55.5 15t33.5 41.5t16 62.5t4 77q0 39 -4 76.5
t-16 67.5t-33 48t-55 18zM200 731h78v-101h-78v101z" />
    <glyph glyph-name="Gcommaaccent" unicode="&#x122;" horiz-adv-x="537" 
d="M48 0zM397 516q-2 28 -8.5 53.5t-20 44.5t-35.5 30.5t-55 11.5q-46 0 -73 -23.5t-41.5 -64t-19 -95t-4.5 -116.5t4.5 -116.5t19 -95t41.5 -64t73 -23.5t72 24.5t39 60.5t16.5 78t3.5 78h-141v72h221v-371h-66v97h-2q-14 -46 -54 -78.5t-100 -32.5q-70 0 -113 31
t-66.5 82.5t-31.5 118.5t-8 139q0 67 8 133.5t33 119.5t70 85.5t119 32.5q51 0 86.5 -13t59 -33.5t36.5 -45.5t19.5 -48.5t8 -43t1.5 -28.5h-92zM233 -50h83v-80q0 -41 -19.5 -59t-58.5 -21v26q13 4 22.5 11t11.5 32h-39v91z" />
    <glyph glyph-name="gcommaaccent" unicode="&#x123;" 
d="M35 0zM408 34q0 -60 -13.5 -101.5t-37.5 -67.5t-57.5 -37.5t-73.5 -11.5q-12 0 -39.5 2t-56 14.5t-52 40t-28.5 77.5h84q3 -37 28 -52.5t58 -15.5q40 0 61.5 13.5t31 32.5t10.5 39.5t1 34.5v70h-2q-14 -34 -47.5 -53t-73.5 -19q-39 0 -66.5 15t-46 39t-29 53.5t-16 59.5
t-7 56.5t-1.5 44.5q0 54 8 105t28.5 90.5t54 63t84.5 23.5q22 0 41.5 -7t34.5 -18t25.5 -26t14.5 -31h2v68h80v-502zM221 478q-29 0 -48 -15t-30 -42t-15.5 -66t-4.5 -87q0 -33 3.5 -67.5t13.5 -63t29 -47t51 -18.5q34 0 55.5 15t33.5 41.5t16 62.5t4 77q0 39 -4 76.5
t-16 67.5t-33 48t-55 18zM270 623h-83v85q0 69 78 75v-26q-13 -4 -22.5 -11t-11.5 -32h39v-91z" />
    <glyph glyph-name="Hcircumflex" unicode="&#x124;" horiz-adv-x="537" 
d="M58 0zM479 0h-88v344h-245v-344h-88v714h88v-292h245v292h88v-714zM232 915h77l100 -142h-78l-61 88l-61 -88h-78z" />
    <glyph glyph-name="hcircumflex" unicode="&#x125;" 
d="M55 0zM55 714h84v-239h2q8 16 22.5 30t32 24t37 15.5t37.5 5.5q52 0 80 -17.5t41 -43.5t15 -55.5t2 -53.5v-380h-84v370q0 15 -1.5 34t-9.5 35.5t-24 27.5t-44 11q-17 0 -35.5 -6t-34.5 -19t-26 -33.5t-10 -49.5v-370h-84v714zM194 915h77l100 -142h-78l-61 88l-61 -88
h-78z" />
    <glyph glyph-name="Hbar" unicode="&#x126;" horiz-adv-x="537" 
d="M479 0h-88v334h-245v-334h-88v714h88v-178h245v178h88v-714zM391 412v75h-245v-75h245z" />
    <glyph glyph-name="hbar" unicode="&#x127;" horiz-adv-x="478" 
d="M-3 640h73v74h84v-74h107v-49h-107v-116h2q8 16 22.5 30t32 24t37 15.5t37.5 5.5q52 0 80 -17.5t41 -43.5t15 -55.5t2 -53.5v-380h-84v370q0 15 -1.5 34t-9.5 35.5t-24 27.5t-44 11q-17 0 -35.5 -6t-34.5 -19t-26 -33.5t-10 -49.5v-370h-84v591h-73v49z" />
    <glyph glyph-name="Itilde" unicode="&#x128;" horiz-adv-x="204" 
d="M0 0zM58 714h88v-714h-88v714zM249 903q0 -19 -5.5 -38.5t-16 -35.5t-27 -26.5t-37.5 -10.5q-16 0 -33 6t-32.5 13t-28.5 13t-21 6q-20 0 -28.5 -15.5t-10.5 -29.5h-54q0 22 7 42t19.5 35.5t29.5 24.5t37 9q14 0 29.5 -5.5t30.5 -13.5q15 -7 28.5 -13t23.5 -6
q19 0 25.5 15.5t9.5 29.5h54z" />
    <glyph glyph-name="itilde" unicode="&#x129;" horiz-adv-x="204" 
d="M0 0zM60 536h84v-536h-84v536zM249 739q0 -19 -5.5 -38.5t-16 -35.5t-27 -26.5t-37.5 -10.5q-16 0 -33 6t-32.5 13t-28.5 13t-21 6q-20 0 -28.5 -15.5t-10.5 -29.5h-54q0 22 7 42t19.5 35.5t29.5 24.5t37 9q14 0 29.5 -5.5t30.5 -13.5q15 -7 28.5 -13t23.5 -6
q19 0 25.5 15.5t9.5 29.5h54z" />
    <glyph glyph-name="Imacron" unicode="&#x12a;" horiz-adv-x="204" 
d="M0 0zM58 714h88v-714h-88v714zM-30 871h264v-54h-264v54z" />
    <glyph glyph-name="imacron" unicode="&#x12b;" horiz-adv-x="204" 
d="M0 0zM60 536h84v-536h-84v536zM-30 707h264v-54h-264v54z" />
    <glyph glyph-name="Iogonek" unicode="&#x12e;" horiz-adv-x="204" 
d="M146 0q-28 -24 -45.5 -42.5t-27 -33t-12.5 -26.5t-3 -23q0 -38 34 -38q17 0 29 4t27 12l15 -35q-21 -15 -44.5 -21.5t-42.5 -6.5q-42 0 -61 21t-19 57q0 73 105 132h-43v714h88v-714z" />
    <glyph glyph-name="iogonek" unicode="&#x12f;" horiz-adv-x="204" 
d="M144 0q-29 -24 -46.5 -42t-27 -33t-13 -27t-3.5 -23q0 -38 35 -38q17 0 29.5 4t27.5 12l15 -35q-22 -15 -45.5 -21.5t-42.5 -6.5q-42 0 -61.5 21t-19.5 57q0 74 106 132h-38v536h84v-536zM60 714h84v-96h-84v96z" />
    <glyph glyph-name="Idotaccent" unicode="&#x130;" horiz-adv-x="204" 
d="M58 0zM58 714h88v-714h-88v714zM63 895h78v-101h-78v101z" />
    <glyph glyph-name="dotlessi" unicode="&#x131;" horiz-adv-x="204" 
d="M60 536h84v-536h-84v536z" />
    <glyph glyph-name="IJ" unicode="&#x132;" horiz-adv-x="622" 
d="M58 0zM58 714h88v-714h-88v714zM564 205q0 -48 -7.5 -88t-27 -69t-54.5 -45.5t-90 -16.5q-45 0 -76.5 13.5t-51.5 36t-29.5 52t-9.5 61.5v59h84v-52q0 -45 18.5 -71.5t63.5 -26.5q30 0 48 9.5t28 28.5t13 47t3 65v506h88v-509z" />
    <glyph glyph-name="ij" unicode="&#x133;" horiz-adv-x="410" 
d="M60 0zM60 714h84v-96h-84v96zM60 536h84v-536h-84v536zM350 618h-84v96h84v-96zM350 -52q0 -66 -29.5 -99t-98.5 -33q-10 0 -19.5 1t-19.5 2v72q8 -1 15.5 -2t15.5 -1q19 0 30 7t15.5 19t5.5 28.5t1 35.5v558h84v-588z" />
    <glyph glyph-name="Jcircumflex" unicode="&#x134;" horiz-adv-x="426" 
d="M22 0zM368 205q0 -48 -7.5 -88t-27 -69t-54.5 -45.5t-90 -16.5q-45 0 -76.5 13.5t-51.5 36t-29.5 52t-9.5 61.5v59h84v-52q0 -45 18.5 -71.5t63.5 -26.5q30 0 48 9.5t28 28.5t13 47t3 65v506h88v-509zM282 915h77l100 -142h-78l-61 88l-61 -88h-78z" />
    <glyph glyph-name="jcircumflex" unicode="&#x135;" horiz-adv-x="204" 
d="M0 0zM144 -52q0 -66 -29.5 -99t-98.5 -33q-10 0 -19.5 1t-19.5 2v72q8 -1 15.5 -2t15.5 -1q19 0 30 7t15.5 19t5.5 28.5t1 35.5v558h84v-588zM62 751h77l100 -142h-78l-61 88l-61 -88h-78z" />
    <glyph glyph-name="Kcommaaccent" unicode="&#x136;" horiz-adv-x="500" 
d="M58 0zM58 714h88v-346h2l247 346h98l-216 -298l234 -416h-98l-193 344l-74 -101v-243h-88v714zM214 -50h83v-80q0 -41 -19.5 -59t-58.5 -21v26q13 4 22.5 11t11.5 32h-39v91z" />
    <glyph glyph-name="kcommaaccent" unicode="&#x137;" horiz-adv-x="444" 
d="M55 0zM455 0h-98l-149 265l-69 -84v-181h-84v714h84v-425h2l188 247h98l-163 -202zM192 -50h83v-80q0 -41 -19.5 -59t-58.5 -21v26q13 4 22.5 11t11.5 32h-39v91z" />
    <glyph glyph-name="Lacute" unicode="&#x139;" horiz-adv-x="444" 
d="M58 0zM58 714h88v-636h290v-78h-378v714zM140 915h98l-108 -142h-60z" />
    <glyph glyph-name="lacute" unicode="&#x13a;" horiz-adv-x="204" 
d="M60 0zM60 714h84v-714h-84v714zM130 915h98l-108 -142h-60z" />
    <glyph glyph-name="Lcommaaccent" unicode="&#x13b;" horiz-adv-x="444" 
d="M58 0zM58 714h88v-636h290v-78h-378v714zM198 -50h83v-80q0 -41 -19.5 -59t-58.5 -21v26q13 4 22.5 11t11.5 32h-39v91z" />
    <glyph glyph-name="lcommaaccent" unicode="&#x13c;" horiz-adv-x="204" 
d="M60 0zM60 714h84v-714h-84v714zM62 -50h83v-80q0 -41 -19.5 -59t-58.5 -21v26q13 4 22.5 11t11.5 32h-39v91z" />
    <glyph glyph-name="Lcaron" unicode="&#x13d;" horiz-adv-x="444" 
d="M58 0zM58 714h88v-636h290v-78h-378v714zM247 714h87l-59 -142h-54z" />
    <glyph glyph-name="lcaron" unicode="&#x13e;" horiz-adv-x="259" 
d="M60 0zM60 714h84v-714h-84v714zM212 714h87l-59 -142h-54z" />
    <glyph glyph-name="Ldot" unicode="&#x13f;" horiz-adv-x="444" 
d="M58 0zM58 714h88v-636h290v-78h-378v714zM237 537h78v-101h-78v101z" />
    <glyph glyph-name="ldot" unicode="&#x140;" horiz-adv-x="293" 
d="M60 0zM60 714h84v-714h-84v714zM200 537h78v-101h-78v101z" />
    <glyph glyph-name="Lslash" unicode="&#x141;" horiz-adv-x="444" 
d="M-8 269l66 47v398h88v-335l194 139v-72l-194 -139v-229h290v-78h-378v244l-66 -47v72z" />
    <glyph glyph-name="lslash" unicode="&#x142;" horiz-adv-x="204" 
d="M60 276l-60 -64v78l60 64v360h84v-271l60 63v-78l-60 -63v-365h-84v276z" />
    <glyph glyph-name="Nacute" unicode="&#x143;" horiz-adv-x="556" 
d="M58 0zM58 714h87h27l236 -596h2v596h88v-714h-87h-34l-229 578h-2v-578h-88v714zM315 915h98l-108 -142h-60z" />
    <glyph glyph-name="nacute" unicode="&#x144;" 
d="M55 0zM55 536h80v-63h2q17 37 54 57t76 20q53 0 81.5 -17.5t42 -43.5t15.5 -55.5t2 -53.5v-380h-84v370q0 15 -1.5 34t-9.5 35.5t-24 27.5t-44 11q-17 0 -35.5 -6t-34.5 -19t-26 -33.5t-10 -49.5v-370h-84v536zM258 751h98l-108 -142h-60z" />
    <glyph glyph-name="Ncommaaccent" unicode="&#x145;" horiz-adv-x="556" 
d="M58 0zM58 714h87h27l236 -596h2v596h88v-714h-87h-34l-229 578h-2v-578h-88v714zM232 -50h83v-80q0 -41 -19.5 -59t-58.5 -21v26q13 4 22.5 11t11.5 32h-39v91z" />
    <glyph glyph-name="ncommaaccent" unicode="&#x146;" 
d="M55 0zM55 536h80v-63h2q17 37 54 57t76 20q53 0 81.5 -17.5t42 -43.5t15.5 -55.5t2 -53.5v-380h-84v370q0 15 -1.5 34t-9.5 35.5t-24 27.5t-44 11q-17 0 -35.5 -6t-34.5 -19t-26 -33.5t-10 -49.5v-370h-84v536zM190 -50h83v-80q0 -41 -19.5 -59t-58.5 -21v26
q13 4 22.5 11t11.5 32h-39v91z" />
    <glyph glyph-name="Ncaron" unicode="&#x147;" horiz-adv-x="556" 
d="M58 0zM58 714h87h27l236 -596h2v596h88v-714h-87h-34l-229 578h-2v-578h-88v714zM315 773h-77l-100 142h78l61 -88l61 88h78z" />
    <glyph glyph-name="ncaron" unicode="&#x148;" 
d="M55 0zM55 536h80v-63h2q17 37 54 57t76 20q53 0 81.5 -17.5t42 -43.5t15.5 -55.5t2 -53.5v-380h-84v370q0 15 -1.5 34t-9.5 35.5t-24 27.5t-44 11q-17 0 -35.5 -6t-34.5 -19t-26 -33.5t-10 -49.5v-370h-84v536zM268 609h-77l-100 142h78l61 -88l61 88h78z" />
    <glyph glyph-name="napostrophe" unicode="&#x149;" 
d="M13 0zM55 536h80v-63h2q17 37 54 57t76 20q53 0 81.5 -17.5t42 -43.5t15.5 -55.5t2 -53.5v-380h-84v370q0 15 -1.5 34t-9.5 35.5t-24 27.5t-44 11q-17 0 -35.5 -6t-34.5 -19t-26 -33.5t-10 -49.5v-370h-84v536zM13 805h83v-80q0 -41 -19.5 -59t-58.5 -21v26q13 4 22.5 11
t11.5 32h-39v91z" />
    <glyph glyph-name="Omacron" unicode="&#x14c;" horiz-adv-x="556" 
d="M48 0zM278 656q-46 0 -73 -23.5t-41.5 -64t-19 -95t-4.5 -116.5t4.5 -116.5t19 -95t41.5 -64t73 -23.5t73 23.5t41.5 64t19 95t4.5 116.5t-4.5 116.5t-19 95t-41.5 64t-73 23.5zM278 728q74 0 119 -32.5t70 -85.5t33 -119.5t8 -133.5q0 -68 -8 -134t-33 -119t-70 -85.5
t-119 -32.5t-119 32.5t-70 85.5t-33 119t-8 134q0 67 8 133.5t33 119.5t70 85.5t119 32.5zM147 871h264v-54h-264v54z" />
    <glyph glyph-name="omacron" unicode="&#x14d;" horiz-adv-x="444" 
d="M29 0zM29 268q0 57 8.5 108t30 89.5t59 61.5t95.5 23t95.5 -23t59 -61.5t30 -89.5t8.5 -108t-8.5 -108t-30.5 -89.5t-59 -61.5t-95 -23t-95.5 23t-59 61.5t-30 89.5t-8.5 108zM220 52q33 0 54 17.5t33 47t16 68.5t4 83q0 43 -4 82.5t-15.5 69t-32.5 47t-55 17.5
q-32 0 -52 -17.5t-31.5 -47t-15.5 -69t-4 -82.5q0 -44 4 -83t15 -68.5t31.5 -47t52.5 -17.5zM91 707h264v-54h-264v54z" />
    <glyph glyph-name="Obreve" unicode="&#x14e;" horiz-adv-x="556" 
d="M48 0zM278 656q-46 0 -73 -23.5t-41.5 -64t-19 -95t-4.5 -116.5t4.5 -116.5t19 -95t41.5 -64t73 -23.5t73 23.5t41.5 64t19 95t4.5 116.5t-4.5 116.5t-19 95t-41.5 64t-73 23.5zM278 728q74 0 119 -32.5t70 -85.5t33 -119.5t8 -133.5q0 -68 -8 -134t-33 -119t-70 -85.5
t-119 -32.5t-119 32.5t-70 85.5t-33 119t-8 134q0 67 8 133.5t33 119.5t70 85.5t119 32.5zM200 908q0 -14 7 -26t18 -21t24.5 -14.5t27.5 -5.5q13 0 27 5.5t25 14.5t18 21t7 26h48q0 -15 -5.5 -37t-19.5 -42t-38.5 -34t-61.5 -14q-38 0 -62 14t-38 34t-19.5 42t-5.5 37h48z
" />
    <glyph glyph-name="obreve" unicode="&#x14f;" horiz-adv-x="444" 
d="M29 0zM29 268q0 57 8.5 108t30 89.5t59 61.5t95.5 23t95.5 -23t59 -61.5t30 -89.5t8.5 -108t-8.5 -108t-30.5 -89.5t-59 -61.5t-95 -23t-95.5 23t-59 61.5t-30 89.5t-8.5 108zM220 52q33 0 54 17.5t33 47t16 68.5t4 83q0 43 -4 82.5t-15.5 69t-32.5 47t-55 17.5
q-32 0 -52 -17.5t-31.5 -47t-15.5 -69t-4 -82.5q0 -44 4 -83t15 -68.5t31.5 -47t52.5 -17.5zM144 744q0 -14 7 -26t18 -21t24.5 -14.5t27.5 -5.5q13 0 27 5.5t25 14.5t18 21t7 26h48q0 -15 -5.5 -37t-19.5 -42t-38.5 -34t-61.5 -14q-38 0 -62 14t-38 34t-19.5 42t-5.5 37h48
z" />
    <glyph glyph-name="Ohungarumlaut" unicode="&#x150;" horiz-adv-x="556" 
d="M48 0zM278 656q-46 0 -73 -23.5t-41.5 -64t-19 -95t-4.5 -116.5t4.5 -116.5t19 -95t41.5 -64t73 -23.5t73 23.5t41.5 64t19 95t4.5 116.5t-4.5 116.5t-19 95t-41.5 64t-73 23.5zM278 728q74 0 119 -32.5t70 -85.5t33 -119.5t8 -133.5q0 -68 -8 -134t-33 -119t-70 -85.5
t-119 -32.5t-119 32.5t-70 85.5t-33 119t-8 134q0 67 8 133.5t33 119.5t70 85.5t119 32.5zM398 915h98l-108 -142h-60zM234 915h98l-108 -142h-60z" />
    <glyph glyph-name="ohungarumlaut" unicode="&#x151;" horiz-adv-x="444" 
d="M29 0zM29 268q0 57 8.5 108t30 89.5t59 61.5t95.5 23t95.5 -23t59 -61.5t30 -89.5t8.5 -108t-8.5 -108t-30.5 -89.5t-59 -61.5t-95 -23t-95.5 23t-59 61.5t-30 89.5t-8.5 108zM220 52q33 0 54 17.5t33 47t16 68.5t4 83q0 43 -4 82.5t-15.5 69t-32.5 47t-55 17.5
q-32 0 -52 -17.5t-31.5 -47t-15.5 -69t-4 -82.5q0 -44 4 -83t15 -68.5t31.5 -47t52.5 -17.5zM341 751h98l-108 -142h-60zM177 751h98l-108 -142h-60z" />
    <glyph glyph-name="OE" unicode="&#x152;" horiz-adv-x="796" 
d="M412 463q0 38 -2.5 73t-15.5 61.5t-40 42.5t-76 16q-47 0 -75 -23.5t-43 -64t-19.5 -95t-4.5 -116.5t4.5 -116.5t19.5 -95t43 -64t75 -23.5q43 0 69 14t40.5 38t19.5 55.5t5 66.5v231zM500 78h272v-78h-358v63h-2q-14 -36 -51.5 -56.5t-82.5 -20.5q-74 0 -119 31
t-70 82.5t-33 118.5t-8 139q0 67 8 133.5t33 119.5t70 85.5t119 32.5q19 0 40 -4.5t39.5 -13t34 -21.5t24.5 -30h2v55h342v-78h-260v-224h244v-78h-244v-256z" />
    <glyph glyph-name="oe" unicode="&#x153;" horiz-adv-x="722" 
d="M413 324h182v29q0 22 -4 45.5t-14 42.5t-27.5 31t-43.5 12q-31 0 -49.5 -17.5t-28 -40.5t-12.5 -46.5t-3 -35.5v-20zM332 268q0 41 -4 80t-15.5 69t-32 48.5t-53.5 18.5q-31 0 -50.5 -18.5t-30.5 -48.5t-15 -69t-4 -80t4 -80t15 -69t30.5 -48.5t50.5 -18.5
q33 0 53.5 18.5t32 48.5t15.5 69t4 80zM683 258h-273q0 -31 1.5 -67t10.5 -67t28 -51.5t54 -20.5q30 0 48 13.5t27.5 33t12.5 41t3 36.5h84q0 -21 -7.5 -53.5t-26.5 -63t-51.5 -52t-83.5 -21.5q-42 0 -69.5 13t-43 29.5t-22 31.5t-7.5 18q-19 -43 -56 -67.5t-85 -24.5
q-56 0 -92.5 23.5t-57.5 63t-29.5 90.5t-8.5 105t8.5 105t29.5 90.5t57.5 63t92.5 23.5t89 -22t58 -69q19 42 57 66.5t83 24.5q58 0 91.5 -24t50.5 -61.5t22 -83.5t5 -89v-34z" />
    <glyph glyph-name="Racute" unicode="&#x154;" horiz-adv-x="519" 
d="M58 0zM146 390h87q19 0 44.5 2t48.5 15t38.5 41t15.5 80q0 54 -33 84t-96 30h-105v-252zM58 714h231q85 0 134 -47t49 -132q0 -29 -5.5 -58t-18.5 -53.5t-34 -43t-52 -25.5v-2q47 -5 72.5 -39t28.5 -80l6 -122q1 -30 4 -49t8 -31.5t11.5 -19.5t14.5 -12h-106q-6 6 -10 18
t-7 26.5t-4.5 30t-2.5 28.5l-6 111q-3 37 -13.5 57.5t-25.5 31t-32.5 13t-34.5 2.5h-119v-318h-88v714zM266 915h98l-108 -142h-60z" />
    <glyph glyph-name="racute" unicode="&#x155;" horiz-adv-x="296" 
d="M55 0zM55 536h84v-80h2q9 19 19.5 36t24.5 30t31.5 20.5t40.5 7.5q25 0 37 -6v-82q-6 1 -15.5 2.5t-29.5 1.5q-16 0 -35 -7.5t-35.5 -23t-28 -39.5t-11.5 -57v-339h-84v536zM148 751h98l-108 -142h-60z" />
    <glyph glyph-name="Rcommaaccent" unicode="&#x156;" horiz-adv-x="519" 
d="M58 0zM146 390h87q19 0 44.5 2t48.5 15t38.5 41t15.5 80q0 54 -33 84t-96 30h-105v-252zM58 714h231q85 0 134 -47t49 -132q0 -29 -5.5 -58t-18.5 -53.5t-34 -43t-52 -25.5v-2q47 -5 72.5 -39t28.5 -80l6 -122q1 -30 4 -49t8 -31.5t11.5 -19.5t14.5 -12h-106q-6 6 -10 18
t-7 26.5t-4.5 30t-2.5 28.5l-6 111q-3 37 -13.5 57.5t-25.5 31t-32.5 13t-34.5 2.5h-119v-318h-88v714zM219 -50h83v-80q0 -41 -19.5 -59t-58.5 -21v26q13 4 22.5 11t11.5 32h-39v91z" />
    <glyph glyph-name="rcommaaccent" unicode="&#x157;" horiz-adv-x="296" 
d="M55 0zM55 536h84v-80h2q9 19 19.5 36t24.5 30t31.5 20.5t40.5 7.5q25 0 37 -6v-82q-6 1 -15.5 2.5t-29.5 1.5q-16 0 -35 -7.5t-35.5 -23t-28 -39.5t-11.5 -57v-339h-84v536zM58 -50h83v-80q0 -41 -19.5 -59t-58.5 -21v26q13 4 22.5 11t11.5 32h-39v91z" />
    <glyph glyph-name="Rcaron" unicode="&#x158;" horiz-adv-x="519" 
d="M58 0zM146 390h87q19 0 44.5 2t48.5 15t38.5 41t15.5 80q0 54 -33 84t-96 30h-105v-252zM58 714h231q85 0 134 -47t49 -132q0 -29 -5.5 -58t-18.5 -53.5t-34 -43t-52 -25.5v-2q47 -5 72.5 -39t28.5 -80l6 -122q1 -30 4 -49t8 -31.5t11.5 -19.5t14.5 -12h-106q-6 6 -10 18
t-7 26.5t-4.5 30t-2.5 28.5l-6 111q-3 37 -13.5 57.5t-25.5 31t-32.5 13t-34.5 2.5h-119v-318h-88v714zM279 771h-77l-100 142h78l61 -88l61 88h78z" />
    <glyph glyph-name="rcaron" unicode="&#x159;" horiz-adv-x="296" 
d="M26 0zM55 536h84v-80h2q9 19 19.5 36t24.5 30t31.5 20.5t40.5 7.5q25 0 37 -6v-82q-6 1 -15.5 2.5t-29.5 1.5q-16 0 -35 -7.5t-35.5 -23t-28 -39.5t-11.5 -57v-339h-84v536zM203 609h-77l-100 142h78l61 -88l61 88h78z" />
    <glyph glyph-name="Sacute" unicode="&#x15a;" horiz-adv-x="500" 
d="M31 0zM361 529q0 28 -5.5 51.5t-18.5 40t-34.5 26t-52.5 9.5q-57 0 -87.5 -29.5t-30.5 -86.5q0 -50 25 -77t62.5 -43t81 -28.5t81 -33.5t62.5 -58t25 -102q0 -62 -20.5 -103t-52.5 -65t-71.5 -34t-77.5 -10q-63 0 -104.5 16t-66 46t-35 74.5t-10.5 101.5h88
q0 -30 3 -59.5t16 -53.5t40 -38.5t75 -14.5q26 0 49 9t39.5 25.5t26 39.5t9.5 52q0 38 -14.5 62t-38 40.5t-54 27t-62 21.5t-62 24.5t-54 35t-38 54.5t-14.5 82q0 25 7 58.5t29.5 64.5t63.5 52.5t109 21.5q103 0 150.5 -49.5t49.5 -149.5h-88zM286 921h98l-108 -142h-60z
" />
    <glyph glyph-name="sacute" unicode="&#x15b;" horiz-adv-x="407" 
d="M25 0zM285 379q0 51 -16.5 78t-62.5 27q-10 0 -25 -2.5t-28.5 -10.5t-23.5 -24.5t-10 -44.5q0 -24 11.5 -39t30 -25.5t42 -17.5t48.5 -15q24 -8 47.5 -17.5t42 -26t30 -42t11.5 -65.5q0 -42 -13 -73.5t-36 -52.5t-55 -31.5t-69 -10.5q-68 0 -105.5 22t-55 52.5
t-20.5 62.5t-3 53h84q0 -24 4 -46.5t15 -40t30.5 -27.5t50.5 -10q10 0 25 3t29.5 13t24.5 27t10 46q0 27 -11.5 44.5t-30 29t-42 19.5t-47.5 16t-48 17.5t-42.5 25.5t-30 42t-11.5 67q0 37 13.5 65t37 46.5t54.5 27.5t66 9q58 0 91 -18t49 -44t19.5 -55.5t3.5 -53.5h-84z
M243 751h98l-108 -142h-60z" />
    <glyph glyph-name="Scircumflex" unicode="&#x15c;" horiz-adv-x="500" 
d="M31 0zM361 529q0 28 -5.5 51.5t-18.5 40t-34.5 26t-52.5 9.5q-57 0 -87.5 -29.5t-30.5 -86.5q0 -50 25 -77t62.5 -43t81 -28.5t81 -33.5t62.5 -58t25 -102q0 -62 -20.5 -103t-52.5 -65t-71.5 -34t-77.5 -10q-63 0 -104.5 16t-66 46t-35 74.5t-10.5 101.5h88
q0 -30 3 -59.5t16 -53.5t40 -38.5t75 -14.5q26 0 49 9t39.5 25.5t26 39.5t9.5 52q0 38 -14.5 62t-38 40.5t-54 27t-62 21.5t-62 24.5t-54 35t-38 54.5t-14.5 82q0 25 7 58.5t29.5 64.5t63.5 52.5t109 21.5q103 0 150.5 -49.5t49.5 -149.5h-88zM216 915h77l100 -142h-78
l-61 88l-61 -88h-78z" />
    <glyph glyph-name="scircumflex" unicode="&#x15d;" horiz-adv-x="407" 
d="M25 0zM285 379q0 51 -16.5 78t-62.5 27q-10 0 -25 -2.5t-28.5 -10.5t-23.5 -24.5t-10 -44.5q0 -24 11.5 -39t30 -25.5t42 -17.5t48.5 -15q24 -8 47.5 -17.5t42 -26t30 -42t11.5 -65.5q0 -42 -13 -73.5t-36 -52.5t-55 -31.5t-69 -10.5q-68 0 -105.5 22t-55 52.5
t-20.5 62.5t-3 53h84q0 -24 4 -46.5t15 -40t30.5 -27.5t50.5 -10q10 0 25 3t29.5 13t24.5 27t10 46q0 27 -11.5 44.5t-30 29t-42 19.5t-47.5 16t-48 17.5t-42.5 25.5t-30 42t-11.5 67q0 37 13.5 65t37 46.5t54.5 27.5t66 9q58 0 91 -18t49 -44t19.5 -55.5t3.5 -53.5h-84z
M173 751h77l100 -142h-78l-61 88l-61 -88h-78z" />
    <glyph glyph-name="Scedilla" unicode="&#x15e;" horiz-adv-x="500" 
d="M154 -156q1 0 8.5 -2t17.5 -4t20.5 -4t17.5 -2q31 0 43 12t12 27q0 17 -14.5 27t-32.5 10q-13 0 -23.5 -2.5t-16.5 -4.5l-15 18l49 68q-45 3 -78 15q-62 24 -86.5 79.5t-24.5 142.5h88q0 -30 3 -59.5t16 -53.5t40 -38.5t75 -14.5q26 0 49 9t39.5 25.5t26 39.5t9.5 52
q0 38 -14.5 62t-38 40.5t-54 27t-62 21.5t-62 24.5t-54 35t-38 54.5t-14.5 82q0 25 7 58.5t29.5 64.5t63.5 52.5t109 21.5q103 0 150.5 -49.5t49.5 -149.5h-88q0 28 -5.5 51.5t-18.5 40t-34.5 26t-52.5 9.5q-57 0 -87.5 -29.5t-30.5 -86.5q0 -50 25 -77t62.5 -43t81 -28.5
t81 -33.5t62.5 -58t25 -102q0 -46 -12 -80.5t-32 -59.5t-46 -40t-55 -22q-16 -4 -31 -6.5t-31 -3.5l-29 -40l2 -2q8 2 14 3t16 1q13 0 27 -3.5t26 -12t19.5 -22.5t7.5 -36q0 -18 -9 -33t-23.5 -26.5t-34 -18t-40.5 -6.5q-28 0 -55 6t-44 14z" />
    <glyph glyph-name="scedilla" unicode="&#x15f;" horiz-adv-x="407" 
d="M109 -156q1 0 8.5 -2t17.5 -4t20.5 -4t17.5 -2q31 0 43 12t12 27q0 17 -14.5 27t-32.5 10q-13 0 -23.5 -2.5t-16.5 -4.5l-15 18l50 69q-46 5 -73 20q-29 17 -44.5 39t-23 45t-9 45t-1.5 39h84q0 -24 4 -46.5t15 -40t30.5 -27.5t50.5 -10q10 0 25 3t29.5 13t24.5 27t10 46
q0 27 -11.5 44.5t-30 29t-42 19.5t-47.5 16t-48 17.5t-42.5 25.5t-30 42t-11.5 67q0 37 13.5 65t37 46.5t54.5 27.5t66 9q58 0 91 -18t49 -44t19.5 -55.5t3.5 -53.5h-84q0 51 -16.5 78t-62.5 27q-10 0 -25 -2.5t-28.5 -10.5t-23.5 -24.5t-10 -44.5q0 -24 11.5 -39t30 -25.5
t42 -17.5t48.5 -15q24 -8 47.5 -17.5t42 -26t30 -42t11.5 -65.5q0 -63 -28 -102.5t-76 -54.5q-14 -5 -29.5 -7.5t-31.5 -3.5l-29 -40l2 -2q8 2 14 3t16 1q13 0 27 -3.5t26 -12t19.5 -22.5t7.5 -36q0 -18 -9 -33t-23.5 -26.5t-34 -18t-40.5 -6.5q-28 0 -55 6t-44 14z" />
    <glyph glyph-name="Scaron" unicode="&#x160;" horiz-adv-x="500" 
d="M31 0zM361 529q0 28 -5.5 51.5t-18.5 40t-34.5 26t-52.5 9.5q-57 0 -87.5 -29.5t-30.5 -86.5q0 -50 25 -77t62.5 -43t81 -28.5t81 -33.5t62.5 -58t25 -102q0 -62 -20.5 -103t-52.5 -65t-71.5 -34t-77.5 -10q-63 0 -104.5 16t-66 46t-35 74.5t-10.5 101.5h88
q0 -30 3 -59.5t16 -53.5t40 -38.5t75 -14.5q26 0 49 9t39.5 25.5t26 39.5t9.5 52q0 38 -14.5 62t-38 40.5t-54 27t-62 21.5t-62 24.5t-54 35t-38 54.5t-14.5 82q0 25 7 58.5t29.5 64.5t63.5 52.5t109 21.5q103 0 150.5 -49.5t49.5 -149.5h-88zM292 773h-77l-100 142h78
l61 -88l61 88h78z" />
    <glyph glyph-name="scaron" unicode="&#x161;" horiz-adv-x="407" 
d="M25 0zM285 379q0 51 -16.5 78t-62.5 27q-10 0 -25 -2.5t-28.5 -10.5t-23.5 -24.5t-10 -44.5q0 -24 11.5 -39t30 -25.5t42 -17.5t48.5 -15q24 -8 47.5 -17.5t42 -26t30 -42t11.5 -65.5q0 -42 -13 -73.5t-36 -52.5t-55 -31.5t-69 -10.5q-68 0 -105.5 22t-55 52.5
t-20.5 62.5t-3 53h84q0 -24 4 -46.5t15 -40t30.5 -27.5t50.5 -10q10 0 25 3t29.5 13t24.5 27t10 46q0 27 -11.5 44.5t-30 29t-42 19.5t-47.5 16t-48 17.5t-42.5 25.5t-30 42t-11.5 67q0 37 13.5 65t37 46.5t54.5 27.5t66 9q58 0 91 -18t49 -44t19.5 -55.5t3.5 -53.5h-84z
M243 609h-77l-100 142h78l61 -88l61 88h78z" />
    <glyph glyph-name="Tcommaaccent" unicode="&#x162;" 
d="M8 0zM275 0h-88v636h-179v78h447v-78h-180v-636zM189 -50h83v-80q0 -41 -19.5 -59t-58.5 -21v26q13 4 22.5 11t11.5 32h-39v91z" />
    <glyph glyph-name="tcommaaccent" unicode="&#x163;" horiz-adv-x="259" 
d="M2 0zM80 692h84v-156h93v-66h-93v-344q0 -32 11 -46t44 -14q14 0 22 1t15 2v-69q-8 -2 -25 -4t-43 -2q-33 0 -54 6.5t-33 20t-16.5 33.5t-4.5 46v370h-78v66h78v156zM120 -50h83v-80q0 -41 -19.5 -59t-58.5 -21v26q13 4 22.5 11t11.5 32h-39v91z" />
    <glyph glyph-name="Tcaron" unicode="&#x164;" 
d="M8 0zM275 0h-88v636h-179v78h447v-78h-180v-636zM269 773h-77l-100 142h78l61 -88l61 88h78z" />
    <glyph glyph-name="tcaron" unicode="&#x165;" horiz-adv-x="322" 
d="M2 0zM271 714h87l-59 -142h-54zM80 692h84v-156h93v-66h-93v-344q0 -32 11 -46t44 -14q14 0 22 1t15 2v-69q-8 -2 -25 -4t-43 -2q-33 0 -54 6.5t-33 20t-16.5 33.5t-4.5 46v370h-78v66h78v156z" />
    <glyph glyph-name="Tbar" unicode="&#x166;" 
d="M275 0h-88v437h-114v49h114v150h-179v78h447v-78h-180v-150h112v-49h-112v-437z" />
    <glyph glyph-name="tbar" unicode="&#x167;" horiz-adv-x="259" 
d="M-6 346h86v124h-78v66h78v156h84v-156h93v-66h-93v-124h100v-49h-100v-171q0 -32 11 -46t44 -14q14 0 22 1t15 2v-69q-8 -2 -25 -4t-43 -2q-33 0 -54 6.5t-33 20t-16.5 33.5t-4.5 46v197h-86v49z" />
    <glyph glyph-name="Utilde" unicode="&#x168;" horiz-adv-x="519" 
d="M50 0zM50 714h88v-502q0 -79 27.5 -116.5t93.5 -37.5q70 0 96 39.5t26 114.5v502h88v-502q0 -103 -52.5 -164.5t-157.5 -61.5q-109 0 -159 57t-50 169v502zM407 903q0 -19 -5.5 -38.5t-16 -35.5t-27 -26.5t-37.5 -10.5q-16 0 -33 6t-32.5 13t-28.5 13t-21 6
q-20 0 -28.5 -15.5t-10.5 -29.5h-54q0 22 7 42t19.5 35.5t29.5 24.5t37 9q14 0 29.5 -5.5t30.5 -13.5q15 -7 28.5 -13t23.5 -6q19 0 25.5 15.5t9.5 29.5h54z" />
    <glyph glyph-name="utilde" unicode="&#x169;" 
d="M55 0zM408 0h-80v63h-2q-17 -37 -54 -57t-76 -20q-53 0 -81.5 17.5t-42 43.5t-15.5 55.5t-2 53.5v380h84v-370q0 -15 1.5 -34t9.5 -35.5t23.5 -27.5t44.5 -11q17 0 35.5 6t34.5 19t26 33.5t10 49.5v370h84v-536zM380 739q0 -19 -5.5 -38.5t-16 -35.5t-27 -26.5
t-37.5 -10.5q-16 0 -33 6t-32.5 13t-28.5 13t-21 6q-20 0 -28.5 -15.5t-10.5 -29.5h-54q0 22 7 42t19.5 35.5t29.5 24.5t37 9q14 0 29.5 -5.5t30.5 -13.5q15 -7 28.5 -13t23.5 -6q19 0 25.5 15.5t9.5 29.5h54z" />
    <glyph glyph-name="Umacron" unicode="&#x16a;" horiz-adv-x="519" 
d="M50 0zM50 714h88v-502q0 -79 27.5 -116.5t93.5 -37.5q70 0 96 39.5t26 114.5v502h88v-502q0 -103 -52.5 -164.5t-157.5 -61.5q-109 0 -159 57t-50 169v502zM128 871h264v-54h-264v54z" />
    <glyph glyph-name="umacron" unicode="&#x16b;" 
d="M55 0zM408 0h-80v63h-2q-17 -37 -54 -57t-76 -20q-53 0 -81.5 17.5t-42 43.5t-15.5 55.5t-2 53.5v380h84v-370q0 -15 1.5 -34t9.5 -35.5t23.5 -27.5t44.5 -11q17 0 35.5 6t34.5 19t26 33.5t10 49.5v370h84v-536zM101 707h264v-54h-264v54z" />
    <glyph glyph-name="Ubreve" unicode="&#x16c;" horiz-adv-x="519" 
d="M50 0zM50 714h88v-502q0 -79 27.5 -116.5t93.5 -37.5q70 0 96 39.5t26 114.5v502h88v-502q0 -103 -52.5 -164.5t-157.5 -61.5q-109 0 -159 57t-50 169v502zM183 908q0 -14 7 -26t18 -21t24.5 -14.5t27.5 -5.5q13 0 27 5.5t25 14.5t18 21t7 26h48q0 -15 -5.5 -37
t-19.5 -42t-38.5 -34t-61.5 -14q-38 0 -62 14t-38 34t-19.5 42t-5.5 37h48z" />
    <glyph glyph-name="ubreve" unicode="&#x16d;" 
d="M55 0zM408 0h-80v63h-2q-17 -37 -54 -57t-76 -20q-53 0 -81.5 17.5t-42 43.5t-15.5 55.5t-2 53.5v380h84v-370q0 -15 1.5 -34t9.5 -35.5t23.5 -27.5t44.5 -11q17 0 35.5 6t34.5 19t26 33.5t10 49.5v370h84v-536zM155 744q0 -14 7 -26t18 -21t24.5 -14.5t27.5 -5.5
q13 0 27 5.5t25 14.5t18 21t7 26h48q0 -15 -5.5 -37t-19.5 -42t-38.5 -34t-61.5 -14q-38 0 -62 14t-38 34t-19.5 42t-5.5 37h48z" />
    <glyph glyph-name="Uring" unicode="&#x16e;" horiz-adv-x="519" 
d="M50 0zM50 714h88v-502q0 -79 27.5 -116.5t93.5 -37.5q70 0 96 39.5t26 114.5v502h88v-502q0 -103 -52.5 -164.5t-157.5 -61.5q-109 0 -159 57t-50 169v502zM203 837q0 -23 17 -40t40 -17t40 17t17 40t-17 40t-40 17t-40 -17t-17 -40zM161 837q0 42 28.5 70.5t70.5 28.5
t70.5 -28.5t28.5 -70.5t-28.5 -70.5t-70.5 -28.5t-70.5 28.5t-28.5 70.5z" />
    <glyph glyph-name="uring" unicode="&#x16f;" 
d="M55 0zM408 0h-80v63h-2q-17 -37 -54 -57t-76 -20q-53 0 -81.5 17.5t-42 43.5t-15.5 55.5t-2 53.5v380h84v-370q0 -15 1.5 -34t9.5 -35.5t23.5 -27.5t44.5 -11q17 0 35.5 6t34.5 19t26 33.5t10 49.5v370h84v-536zM175 690q0 -23 17 -40t40 -17t40 17t17 40t-17 40t-40 17
t-40 -17t-17 -40zM133 690q0 42 28.5 70.5t70.5 28.5t70.5 -28.5t28.5 -70.5t-28.5 -70.5t-70.5 -28.5t-70.5 28.5t-28.5 70.5z" />
    <glyph glyph-name="Uhungarumlaut" unicode="&#x170;" horiz-adv-x="519" 
d="M50 0zM50 714h88v-502q0 -79 27.5 -116.5t93.5 -37.5q70 0 96 39.5t26 114.5v502h88v-502q0 -103 -52.5 -164.5t-157.5 -61.5q-109 0 -159 57t-50 169v502zM380 915h98l-108 -142h-60zM216 915h98l-108 -142h-60z" />
    <glyph glyph-name="uhungarumlaut" unicode="&#x171;" 
d="M55 0zM408 0h-80v63h-2q-17 -37 -54 -57t-76 -20q-53 0 -81.5 17.5t-42 43.5t-15.5 55.5t-2 53.5v380h84v-370q0 -15 1.5 -34t9.5 -35.5t23.5 -27.5t44.5 -11q17 0 35.5 6t34.5 19t26 33.5t10 49.5v370h84v-536zM351 751h98l-108 -142h-60zM187 751h98l-108 -142h-60z
" />
    <glyph glyph-name="Uogonek" unicode="&#x172;" horiz-adv-x="519" 
d="M50 714h88v-502q0 -79 27.5 -116.5t93.5 -37.5q70 0 96 39.5t26 114.5v502h88v-502q0 -103 -53 -165q-34 -40 -95 -54q-13 -10 -23.5 -18.5t-18.5 -16.5q-32 -29 -41.5 -47t-9.5 -36q0 -38 40 -38q20 0 34.5 4t31.5 12l18 -35q-25 -15 -52.5 -21.5t-49.5 -6.5
q-49 0 -71.5 21t-22.5 57q0 65 95 118q-101 1 -151 57q-50 59 -50 169v502z" />
    <glyph glyph-name="uogonek" unicode="&#x173;" 
d="M408 0h-32q-15 -12 -28 -25.5t-24 -27.5q-22 -29 -27.5 -44t-5.5 -30q0 -16 9 -26t27 -10q31 0 60 16l16 -35q-23 -15 -47.5 -21.5t-44.5 -6.5q-45 0 -64.5 21t-19.5 53q0 36 23.5 66.5t77.5 69.5v63h-2q-17 -37 -54 -57t-76 -20q-53 0 -81.5 17.5t-42 43.5t-15.5 55.5
t-2 53.5v380h84v-370q0 -15 1.5 -34t9.5 -35.5t23.5 -27.5t44.5 -11q17 0 35.5 6t34.5 19t26 33.5t10 49.5v370h84v-536z" />
    <glyph glyph-name="Wcircumflex" unicode="&#x174;" horiz-adv-x="722" 
d="M8 0zM8 714h88l109 -584h2l101 584h106l101 -584h2l109 584h88l-147 -714h-107l-98 578h-2l-103 -578h-107zM324 915h77l100 -142h-78l-61 88l-61 -88h-78z" />
    <glyph glyph-name="wcircumflex" unicode="&#x175;" horiz-adv-x="648" 
d="M10 0zM10 536h88l86 -438h2l91 438h99l89 -438h2l83 438h88l-127 -536h-92l-94 438h-2l-90 -438h-98zM290 751h77l100 -142h-78l-61 88l-61 -88h-78z" />
    <glyph glyph-name="Ycircumflex" unicode="&#x176;" horiz-adv-x="462" 
d="M0 0zM-2 714h97l136 -334l141 334h92l-189 -434v-280h-88v280zM193 915h77l100 -142h-78l-61 88l-61 -88h-78z" />
    <glyph glyph-name="ycircumflex" unicode="&#x177;" horiz-adv-x="406" 
d="M10 0zM10 536h92l106 -430h2l94 430h92l-155 -572q-8 -28 -17 -53t-24.5 -44.5t-39.5 -31t-62 -11.5q-25 0 -37.5 1t-23.5 2v66q18 -3 49 -3q29 0 43.5 15t22.5 37l16 47zM171 751h77l100 -142h-78l-61 88l-61 -88h-78z" />
    <glyph glyph-name="Ydieresis" unicode="&#x178;" horiz-adv-x="462" 
d="M0 0zM-2 714h97l136 -334l141 334h92l-189 -434v-280h-88v280zM272 895h78v-101h-78v101zM110 895h78v-101h-78v101z" />
    <glyph glyph-name="Zacute" unicode="&#x179;" 
d="M23 0zM23 74l321 562h-303v78h395v-81l-321 -555h325v-78h-417v74zM272 915h98l-108 -142h-60z" />
    <glyph glyph-name="zacute" unicode="&#x17a;" horiz-adv-x="389" 
d="M27 0zM39 536h323v-70l-240 -394h238v-72h-333v66l243 398h-231v72zM232 751h98l-108 -142h-60z" />
    <glyph glyph-name="Zdotaccent" unicode="&#x17b;" 
d="M23 0zM23 74l321 562h-303v78h395v-81l-321 -555h325v-78h-417v74zM194 895h78v-101h-78v101z" />
    <glyph glyph-name="zdotaccent" unicode="&#x17c;" horiz-adv-x="389" 
d="M27 0zM39 536h323v-70l-240 -394h238v-72h-333v66l243 398h-231v72zM159 731h78v-101h-78v101z" />
    <glyph glyph-name="Zcaron" unicode="&#x17d;" 
d="M23 0zM23 74l321 562h-303v78h395v-81l-321 -555h325v-78h-417v74zM272 773h-77l-100 142h78l61 -88l61 88h78z" />
    <glyph glyph-name="zcaron" unicode="&#x17e;" horiz-adv-x="389" 
d="M27 0zM39 536h323v-70l-240 -394h238v-72h-333v66l243 398h-231v72zM236 609h-77l-100 142h78l61 -88l61 88h78z" />
    <glyph glyph-name="florin" unicode="&#x192;" horiz-adv-x="480" 
d="M-3 -106q6 -2 19.5 -3t29.5 -1q17 0 29.5 4t21.5 14.5t16 28t12 43.5l79 400h-104l11 60h104l33 156q14 67 56.5 92.5t109.5 25.5q33 0 48 -4l-14 -66q-5 2 -14.5 3t-20.5 1q-28 0 -44.5 -8.5t-26.5 -25t-16 -41t-12 -55.5l-15 -78h109l-11 -60h-109l-80 -411
q-14 -72 -53.5 -108.5t-114.5 -36.5q-15 0 -29 1t-28 3z" />
    <glyph glyph-name="Scommaaccent" unicode="&#x218;" horiz-adv-x="500" 
d="M31 0zM361 529q0 28 -5.5 51.5t-18.5 40t-34.5 26t-52.5 9.5q-57 0 -87.5 -29.5t-30.5 -86.5q0 -50 25 -77t62.5 -43t81 -28.5t81 -33.5t62.5 -58t25 -102q0 -62 -20.5 -103t-52.5 -65t-71.5 -34t-77.5 -10q-63 0 -104.5 16t-66 46t-35 74.5t-10.5 101.5h88
q0 -30 3 -59.5t16 -53.5t40 -38.5t75 -14.5q26 0 49 9t39.5 25.5t26 39.5t9.5 52q0 38 -14.5 62t-38 40.5t-54 27t-62 21.5t-62 24.5t-54 35t-38 54.5t-14.5 82q0 25 7 58.5t29.5 64.5t63.5 52.5t109 21.5q103 0 150.5 -49.5t49.5 -149.5h-88zM207 -50h83v-80
q0 -41 -19.5 -59t-58.5 -21v26q13 4 22.5 11t11.5 32h-39v91z" />
    <glyph glyph-name="scommaaccent" unicode="&#x219;" horiz-adv-x="407" 
d="M25 0zM285 379q0 51 -16.5 78t-62.5 27q-10 0 -25 -2.5t-28.5 -10.5t-23.5 -24.5t-10 -44.5q0 -24 11.5 -39t30 -25.5t42 -17.5t48.5 -15q24 -8 47.5 -17.5t42 -26t30 -42t11.5 -65.5q0 -42 -13 -73.5t-36 -52.5t-55 -31.5t-69 -10.5q-68 0 -105.5 22t-55 52.5
t-20.5 62.5t-3 53h84q0 -24 4 -46.5t15 -40t30.5 -27.5t50.5 -10q10 0 25 3t29.5 13t24.5 27t10 46q0 27 -11.5 44.5t-30 29t-42 19.5t-47.5 16t-48 17.5t-42.5 25.5t-30 42t-11.5 67q0 37 13.5 65t37 46.5t54.5 27.5t66 9q58 0 91 -18t49 -44t19.5 -55.5t3.5 -53.5h-84z
M163 -50h83v-80q0 -41 -19.5 -59t-58.5 -21v26q13 4 22.5 11t11.5 32h-39v91z" />
    <glyph glyph-name="uni021A" unicode="&#x21a;" 
d="M8 0zM275 0h-88v636h-179v78h447v-78h-180v-636zM189 -50h83v-80q0 -41 -19.5 -59t-58.5 -21v26q13 4 22.5 11t11.5 32h-39v91z" />
    <glyph glyph-name="uni021B" unicode="&#x21b;" horiz-adv-x="259" 
d="M2 0zM80 692h84v-156h93v-66h-93v-344q0 -32 11 -46t44 -14q14 0 22 1t15 2v-69q-8 -2 -25 -4t-43 -2q-33 0 -54 6.5t-33 20t-16.5 33.5t-4.5 46v370h-78v66h78v156zM120 -50h83v-80q0 -41 -19.5 -59t-58.5 -21v26q13 4 22.5 11t11.5 32h-39v91z" />
    <glyph glyph-name="circumflex" horiz-adv-x="204" 
d="M64 751h77l100 -142h-78l-61 88l-61 -88h-78z" />
    <glyph glyph-name="caron" horiz-adv-x="204" 
d="M140 609h-77l-100 142h78l61 -88l61 88h78z" />
    <glyph glyph-name="breve" horiz-adv-x="204" 
d="M25 744q0 -14 7 -26t18 -21t24.5 -14.5t27.5 -5.5q13 0 27 5.5t25 14.5t18 21t7 26h48q0 -15 -5.5 -37t-19.5 -42t-38.5 -34t-61.5 -14q-38 0 -62 14t-38 34t-19.5 42t-5.5 37h48z" />
    <glyph glyph-name="dotaccent" horiz-adv-x="204" 
d="M63 731h78v-101h-78v101z" />
    <glyph glyph-name="ring" horiz-adv-x="204" 
d="M45 690q0 -23 17 -40t40 -17t40 17t17 40t-17 40t-40 17t-40 -17t-17 -40zM3 690q0 42 28.5 70.5t70.5 28.5t70.5 -28.5t28.5 -70.5t-28.5 -70.5t-70.5 -28.5t-70.5 28.5t-28.5 70.5z" />
    <glyph glyph-name="tilde" horiz-adv-x="204" 
d="M249 739q0 -19 -5.5 -38.5t-16 -35.5t-27 -26.5t-37.5 -10.5q-16 0 -33 6t-32.5 13t-28.5 13t-21 6q-20 0 -28.5 -15.5t-10.5 -29.5h-54q0 22 7 42t19.5 35.5t29.5 24.5t37 9q14 0 29.5 -5.5t30.5 -13.5q15 -7 28.5 -13t23.5 -6q19 0 25.5 15.5t9.5 29.5h54z" />
    <glyph glyph-name="hungarumlaut" horiz-adv-x="204" 
d="M184 751h98l-108 -142h-60zM20 751h98l-108 -142h-60z" />
    <glyph glyph-name="commaaccent" horiz-adv-x="240" 
d="M78 -50h83v-80q0 -41 -19.5 -59t-58.5 -21v26q13 4 22.5 11t11.5 32h-39v91z" />
    <glyph glyph-name="dotlessj" horiz-adv-x="204" 
d="M144 -52q0 -66 -29.5 -99t-98.5 -33q-10 0 -19.5 1t-19.5 2v72q8 -1 15.5 -2t15.5 -1q19 0 30 7t15.5 19t5.5 28.5t1 35.5v558h84v-588z" />
    <glyph glyph-name="caron.alt" horiz-adv-x="204" 
d="M78 714h87l-59 -142h-54z" />
    <glyph glyph-name="commaaccent.alt" horiz-adv-x="240" 
d="M162 623h-83v85q0 69 78 75v-26q-13 -4 -22.5 -11t-11.5 -32h39v-91z" />
    <glyph glyph-name=".ttfautohint" horiz-adv-x="240" 
d="M0 0z" />
    </font>
</defs>
</svg>
