<?xml version="1.0" standalone="no"?>
<!DOCTYPE svg PUBLIC "-//W3C//DTD SVG 1.1//EN" "http://www.w3.org/Graphics/SVG/1.1/DTD/svg11.dtd" >
<svg xmlns="http://www.w3.org/2000/svg" xmlns:xlink="http://www.w3.org/1999/xlink" version="1.1">
<metadata>
Created by FontForge 20161013 at Tue May  9 11:51:13 2017
 By ,,,
Part of the digitally encoded machine readable outline data for producing the Typefaces provided is copyrighted (c) 2003 - 2006 Linotype GmbH, www.linotype.com. All rights reserved. This software is the property of Linotype GmbH, and may not be reproduced, modified, disclosed or transferred without the express written approval of Linotype GmbH. Copyright (c) 1988, 1990, 1993 Adobe Systems Incorporated. All Rights Reserved. Helvetica is a trademark of Heidelberger Druckmaschinen AG, exclusively licensed through Linotype GmbH, and may be registered in certain jurisdictions. This typeface is original artwork of Linotype Design Studio. The design may be protected in certain jurisdictions.
</metadata>
<defs>
<font id="HelveticaNeueLTCom-HvCn" horiz-adv-x="260" >
  <font-face 
    font-family="HelveticaNeueLT Com 67 MdCn"
    font-weight="800"
    font-stretch="normal"
    units-per-em="1000"
    panose-1="2 11 8 6 4 7 2 4 2 4"
    ascent="714"
    descent="-286"
    bbox="-32 -224 772 967"
    underline-thickness="50"
    underline-position="-150"
    unicode-range="U+0020-0237"
  />
<missing-glyph horiz-adv-x="512" 
d="M222 117v67h56v-67h-56zM225 234l-2 17q0 55 13 81t46 59q32 31 41 47.5t9 35.5q0 36 -22.5 60.5t-53.5 24.5t-53.5 -22t-28.5 -73l-50 8q7 71 44 104t91 33q53 0 88.5 -36t35.5 -95q0 -32 -12.5 -58.5t-50.5 -61.5q-37 -33 -43 -52t-6 -72h-46zM462 50v617h-412v-617
h412zM512 718v-718h-512v718h512z" />
    <glyph glyph-name=".notdef" horiz-adv-x="512" 
d="M222 117v67h56v-67h-56zM225 234l-2 17q0 55 13 81t46 59q32 31 41 47.5t9 35.5q0 36 -22.5 60.5t-53.5 24.5t-53.5 -22t-28.5 -73l-50 8q7 71 44 104t91 33q53 0 88.5 -36t35.5 -95q0 -32 -12.5 -58.5t-50.5 -61.5q-37 -33 -43 -52t-6 -72h-46zM462 50v617h-412v-617
h412zM512 718v-718h-512v718h512z" />
    <glyph glyph-name=".null" horiz-adv-x="500" 
 />
    <glyph glyph-name="nonmarkingreturn" horiz-adv-x="0" 
 />
    <glyph glyph-name="space" unicode=" " 
 />
    <glyph glyph-name="A" horiz-adv-x="574" 
d="M184 714h210l178 -714h-174l-26 136h-171l-25 -136h-174zM286 584h-2l-59 -318h122z" />
    <glyph glyph-name="C" horiz-adv-x="537" 
d="M351 466q0 78 -13 114t-55 36q-25 0 -39.5 -13t-22 -42.5t-9.5 -77.5t-2 -118q0 -80 2 -131.5t10 -81.5t23.5 -42t41.5 -12q23 0 36.5 13t21 36.5t10 57t2.5 75.5h162v-25q0 -58 -10 -107t-37.5 -85t-76.5 -56.5t-127 -20.5q-81 0 -127 28.5t-69.5 79t-29.5 119t-6 149.5
q0 69 5.5 134.5t29.5 117t74 83t139 31.5q111 0 170 -53t59 -179v-30h-162z" />
    <glyph glyph-name="D" horiz-adv-x="574" 
d="M220 124h45q29 0 49 8t32.5 34t18 74.5t5.5 128.5q0 65 -3.5 108t-14.5 68t-31.5 35t-53.5 10h-47v-466zM52 714h249q62 0 107 -17.5t74 -56.5t42.5 -103t13.5 -157q0 -97 -8.5 -168.5t-35.5 -118.5t-77 -70t-133 -23h-232v714z" />
    <glyph glyph-name="E" horiz-adv-x="500" 
d="M52 714h413v-136h-245v-143h230v-136h-230v-163h256v-136h-424v714z" />
    <glyph glyph-name="G" horiz-adv-x="556" 
d="M354 497q0 17 -2 38t-8.5 39t-20 30t-36.5 12q-26 0 -41 -14t-23 -45t-10.5 -80.5t-2.5 -120.5q0 -73 2.5 -122.5t11 -79.5t23.5 -43t40 -13q43 0 60 37.5t17 112.5v23h-79v112h235v-383h-115l-4 68h-2q-10 -24 -26.5 -40t-36.5 -25t-43.5 -13t-47.5 -4q-67 0 -108 24.5
t-63.5 70t-30 111.5t-7.5 150q0 88 6 159t31.5 121.5t76.5 78t140 27.5q54 0 92 -11.5t63 -30.5t39.5 -43t21.5 -50t8.5 -51t1.5 -45h-162z" />
    <glyph glyph-name="H" horiz-adv-x="574" 
d="M52 714h168v-267h134v267h168v-714h-168v305h-134v-305h-168v714z" />
    <glyph glyph-name="I" horiz-adv-x="278" 
d="M55 714h168v-714h-168v714z" />
    <glyph glyph-name="J" horiz-adv-x="500" 
d="M280 714h168v-499q0 -50 -11 -92t-36.5 -72.5t-67.5 -47.5t-104 -17q-113 0 -163 51.5t-50 145.5v44h156v-31q0 -18 1 -35.5t6 -31.5t16.5 -22.5t31.5 -8.5q18 0 28.5 9t16 24.5t7 37t1.5 46.5v499z" />
    <glyph glyph-name="K" horiz-adv-x="574" 
d="M52 714h168v-282h2l157 282h181l-187 -308l210 -406h-189l-129 269l-45 -69v-200h-168v714z" />
    <glyph glyph-name="L" horiz-adv-x="463" 
d="M52 714h168v-578h243v-136h-411v714z" />
    <glyph glyph-name="N" horiz-adv-x="593" 
d="M52 714h193l138 -464h2v464h156v-714h-190l-147 492h-2v-492h-150v714z" />
    <glyph glyph-name="O" horiz-adv-x="574" 
d="M538 357q0 -74 -6 -141.5t-30.5 -118.5t-75 -81t-139.5 -30q-83 0 -132.5 26t-76 74.5t-34.5 117t-8 153.5t8 153.5t34.5 117t76 74.5t132.5 26q89 0 139.5 -30t75 -81t30.5 -118.5t6 -141.5zM210 357q0 -74 2.5 -123.5t10.5 -79.5t23 -43t40 -13t40.5 13t24 43t11 79.5
t2.5 123.5q0 73 -2.5 123t-11 80t-24 43t-40.5 13t-40 -13t-23 -43t-10.5 -80t-2.5 -123z" />
    <glyph glyph-name="R" horiz-adv-x="574" 
d="M52 714h282q54 0 90.5 -15.5t59 -41t32.5 -59t10 -70.5q0 -78 -30 -119t-90 -55v-2q40 -6 63 -21t34 -38t14 -53t4 -66q1 -53 3 -84t5.5 -47.5t9 -23t14.5 -10.5v-9h-181q-10 18 -14 51t-4 94q0 46 -3.5 75.5t-11.5 46t-21.5 22.5t-33.5 6h-64v-295h-168v714zM220 413h52
q25 0 42 8.5t26.5 22t13.5 30t4 32.5q0 40 -18.5 65t-68.5 25h-51v-183z" />
    <glyph glyph-name="S" horiz-adv-x="537" 
d="M191 218v-25q0 -41 14.5 -68t58.5 -27q22 0 36.5 7.5t23.5 19.5t12.5 27.5t3.5 30.5q0 38 -22.5 59.5t-57 36.5t-74 29t-74 38.5t-57 64.5t-22.5 107q0 43 12 81t40 66.5t72.5 45.5t109.5 17q63 0 106.5 -15t70.5 -41.5t39 -62t12 -76.5v-17h-162q0 52 -14 75
q-15 25 -51 25q-67 0 -67 -77q0 -38 22.5 -59t57 -36t74 -29.5t74 -38t57 -62t22.5 -101.5q0 -61 -16.5 -104t-48 -70.5t-76.5 -40t-103 -12.5q-46 0 -88.5 8t-75 29t-52 57t-19.5 92v46h162z" />
    <glyph glyph-name="T" horiz-adv-x="480" 
d="M156 578h-150v136h468v-136h-150v-578h-168v578z" />
    <glyph glyph-name="U" horiz-adv-x="556" 
d="M513 236q0 -53 -9.5 -98.5t-35 -79t-71.5 -53t-119 -19.5t-119 19.5t-71.5 53t-35 79t-9.5 98.5v478h168v-527q0 -42 16.5 -65.5t50.5 -23.5t50.5 23.5t16.5 65.5v527h168v-478z" />
    <glyph glyph-name="W" horiz-adv-x="778" 
d="M6 714h168l62 -508h2l74 508h156l80 -508h2l60 508h162l-124 -714h-186l-73 507h-2l-69 -507h-186z" />
    <glyph glyph-name="Y" horiz-adv-x="536" 
d="M184 281l-181 433h186l80 -265h2l82 265h180l-181 -433v-281h-168v281z" />
    <glyph glyph-name="Z" horiz-adv-x="481" 
d="M23 124l242 454h-223v136h416v-118l-245 -460h245v-136h-435v124z" />
    <glyph glyph-name="a" horiz-adv-x="500" 
d="M183 167q0 -32 12 -50.5t35 -18.5q26 0 45.5 16t19.5 58q0 34 0.5 56t0.5 39q-38 -20 -57.5 -25.5t-30.5 -14.5q-13 -10 -19 -23.5t-6 -36.5zM42 375q1 57 16.5 91t44.5 54t64.5 27.5t86.5 7.5q100 0 146 -36.5t46 -123.5v-278q0 -31 2.5 -65t16.5 -52h-156
q-5 14 -6.5 30t-2.5 32h-2q-17 -36 -51 -56t-76 -20q-69 0 -106.5 38.5t-37.5 126.5q0 48 18 84.5t48 53.5t70.5 26t74.5 18q18 5 29.5 9.5t18 11t8.5 16.5t2 25q0 25 -12 39.5t-39 14.5q-34 0 -46 -19.5t-13 -54.5h-144z" />
    <glyph glyph-name="c" horiz-adv-x="481" 
d="M311 337q0 60 -14.5 86t-46.5 26q-20 0 -32 -12.5t-18.5 -35.5t-8.5 -56t-2 -75q0 -46 2 -79.5t8.5 -55.5t18.5 -32.5t32 -10.5q18 0 29.5 6.5t18 21.5t9.5 39.5t4 60.5h150q-1 -125 -52.5 -179.5t-161.5 -54.5q-77 0 -120.5 25t-66 67t-28 97t-5.5 115q0 57 9.5 105.5
t34.5 84t67.5 55.5t108.5 20q64 0 105.5 -16t65.5 -44.5t33.5 -69t9.5 -88.5h-150z" />
    <glyph glyph-name="d" horiz-adv-x="519" 
d="M315 267q0 36 -1.5 67t-7.5 54t-17.5 36t-32.5 13q-22 0 -34.5 -11.5t-18.5 -33t-7.5 -51.5t-1.5 -67q0 -33 1.5 -63.5t7.5 -54t18.5 -38t35.5 -14.5q36 0 47 42t11 121zM318 66h-2q-5 -14 -13.5 -28t-22.5 -25.5t-34 -19t-47 -7.5q-41 0 -72 15.5t-52 49t-32 86.5
t-11 129q0 63 6 116t23 91.5t47.5 60t80.5 21.5q17 0 34 -3.5t33 -11.5t30 -22.5t24 -35.5h2v232h162v-714h-156v66z" />
    <glyph glyph-name="e" horiz-adv-x="481" 
d="M306 338q0 57 -10.5 87t-44.5 30q-40 0 -51 -31t-11 -86h117zM189 244v-33q0 -63 12 -94t47 -31q32 0 44 24t15 75h150q-2 -102 -55 -150.5t-155 -48.5q-77 0 -120.5 25t-66 67t-28 97t-5.5 115q0 57 9.5 105.5t34.5 84t67.5 55.5t108.5 20q75 0 118 -22.5t64.5 -64
t27 -98.5t5.5 -126h-273z" />
    <glyph glyph-name="g" horiz-adv-x="519" 
d="M198 280q0 -42 3 -71t10 -46t18 -24.5t28 -7.5q16 0 28 7t19 24.5t10.5 47t3.5 75.5q0 75 -12 110.5t-47 35.5q-20 0 -32 -11t-18.5 -31t-8.5 -48t-2 -61zM324 541h150v-522q0 -46 -11 -83.5t-37.5 -64t-69.5 -41t-107 -14.5q-59 0 -98 12t-62.5 32.5t-33 48t-9.5 57.5
h150q4 -22 17 -33q17 -11 40 -11q20 0 32.5 7t20 23.5t10 42.5t2.5 65v33h-2q-17 -47 -51.5 -63.5t-76.5 -16.5q-44 0 -73 20.5t-46.5 56t-25 84t-7.5 104.5q0 48 5 97.5t21.5 89t47.5 65t84 25.5q55 0 84.5 -25t43.5 -62h2v73z" />
    <glyph glyph-name="h" horiz-adv-x="519" 
d="M45 714h162v-232h2q20 40 51 56.5t73 16.5q69 0 105 -36t36 -114v-405h-162v369q0 29 -12 45.5t-35 16.5t-40.5 -18.5t-17.5 -58.5v-354h-162v714z" />
    <glyph glyph-name="i" 
d="M49 722h162v-124h-162v124zM49 541h162v-541h-162v541z" />
    <glyph glyph-name="j" 
d="M49 722h162v-124h-162v124zM49 541h162v-554q0 -42 -6.5 -72.5t-24.5 -51t-50 -30t-84 -9.5q-19 0 -34 0.5t-35 1.5v111q5 -1 13 -1h10q18 1 28 5.5t14.5 12.5t5.5 21t1 31v535z" />
    <glyph glyph-name="k" horiz-adv-x="519" 
d="M45 714h162v-367h2l121 194h178l-155 -218l174 -323h-177l-101 204l-42 -57v-147h-162v714z" />
    <glyph glyph-name="l" 
d="M49 714h162v-714h-162v714z" />
    <glyph glyph-name="n" horiz-adv-x="519" 
d="M45 541h156v-64h2q17 36 51 57t79 21q69 0 105 -36t36 -114v-405h-162v369q0 29 -12 45.5t-35 16.5t-40.5 -18.5t-17.5 -58.5v-354h-162v541z" />
    <glyph glyph-name="o" horiz-adv-x="500" 
d="M250 -14q-74 0 -118.5 21.5t-67.5 59.5t-30 89.5t-7 112.5t8.5 113t33 90.5t68 60.5t113.5 22q74 0 118 -21.5t67.5 -59.5t30.5 -89.5t7 -112.5t-8.5 -113t-33 -90.5t-68 -60.5t-113.5 -22zM311 270q0 50 -2.5 84.5t-9 55.5t-18 30t-30.5 9q-36 0 -49 -40t-13 -138
q0 -99 13 -139t49 -40q19 0 30.5 9t18 30t9 55t2.5 84z" />
    <glyph glyph-name="r" horiz-adv-x="370" 
d="M45 541h156v-76h2q16 36 47.5 63t82.5 27h12q4 0 14 -2v-152q-12 2 -22.5 3t-22.5 1q-49 0 -78 -22t-29 -76v-307h-162v541z" />
    <glyph glyph-name="s" horiz-adv-x="463" 
d="M169 172q1 -18 3 -33.5t8 -27.5q7 -11 18.5 -18t31.5 -7q29 0 43.5 16t14.5 39q0 19 -12 36t-50 30q-50 17 -87 32t-61.5 34.5t-36.5 47.5t-12 71q0 81 53.5 122t152.5 41q57 0 94.5 -13t60 -34t32 -48.5t9.5 -56.5v-18h-144v10q0 35 -13.5 47.5t-39.5 12.5
q-32 0 -43.5 -14t-11.5 -36q0 -24 19 -36.5t48 -22t62.5 -19.5t62.5 -29t48 -51t19 -84q0 -82 -52.5 -129.5t-154.5 -47.5q-109 0 -157.5 40.5t-48.5 121.5v24h144z" />
    <glyph glyph-name="t" horiz-adv-x="315" 
d="M66 429h-67v112h67v159h162v-159h75v-112h-75v-273q0 -29 11.5 -39.5t40.5 -10.5q5 0 11.5 0.5t11.5 1.5v-108q-47 -6 -93 -6q-42 0 -70 5t-44.5 20.5t-23 44.5t-6.5 76v289z" />
    <glyph glyph-name="u" horiz-adv-x="519" 
d="M474 0h-156v64h-2q-17 -36 -51 -57t-79 -21q-69 0 -105 36t-36 114v405h162v-369q0 -29 12 -45.5t35 -16.5t40.5 18.5t17.5 58.5v354h162v-541z" />
    <glyph glyph-name="w" horiz-adv-x="741" 
d="M9 541h162l52 -399h2l61 399h174l57 -399h2l57 399h156l-117 -541h-183l-59 399h-2l-63 -399h-186z" />
    <glyph glyph-name="y" horiz-adv-x="481" 
d="M10 541h168l66 -379h2l63 379h162l-145 -545q-14 -52 -29.5 -85.5t-38 -52.5t-54.5 -26.5t-79 -7.5h-37q-8 0 -16.5 0.5t-16.5 1.5v114q10 -2 20 -3t20 -1q23 0 42 12.5t26 47.5z" />
    <glyph glyph-name="z" horiz-adv-x="463" 
d="M31 124l204 293h-195v124h387v-124l-210 -293h215v-124h-401v124z" />
    <glyph glyph-name="Zcaron" unicode="&#x17d;" horiz-adv-x="481" 
d="M23 0zM23 124l242 454h-223v136h416v-118l-245 -460h245v-136h-435v124zM99 901h119l36 -81l37 81h118l-71 -142h-168z" />
    <glyph glyph-name="zcaron" unicode="&#x17e;" horiz-adv-x="463" 
d="M31 0zM31 124l204 293h-195v124h387v-124l-210 -293h215v-124h-401v124zM81 741h119l36 -81l37 81h118l-71 -142h-168z" />
    <glyph glyph-name="dieresis" 
d="M156 735h124v-130h-124v130zM-20 735h124v-130h-124v130z" />
    <glyph glyph-name="macron" 
d="M-25 714h310v-88h-310v88z" />
    <glyph glyph-name="acute" 
d="M119 741h156l-100 -142h-106z" />
    <glyph glyph-name="Amacron" unicode="&#x100;" horiz-adv-x="574" 
d="M2 0zM184 714h210l178 -714h-174l-26 136h-171l-25 -136h-174zM286 584h-2l-59 -318h122zM131 874h310v-88h-310v88z" />
    <glyph glyph-name="amacron" unicode="&#x101;" horiz-adv-x="500" 
d="M27 0zM183 167q0 -32 12 -50.5t35 -18.5q26 0 45.5 16t19.5 58q0 34 0.5 56t0.5 39q-38 -20 -57.5 -25.5t-30.5 -14.5q-13 -10 -19 -23.5t-6 -36.5zM42 375q1 57 16.5 91t44.5 54t64.5 27.5t86.5 7.5q100 0 146 -36.5t46 -123.5v-278q0 -31 2.5 -65t16.5 -52h-156
q-5 14 -6.5 30t-2.5 32h-2q-17 -36 -51 -56t-76 -20q-69 0 -106.5 38.5t-37.5 126.5q0 48 18 84.5t48 53.5t70.5 26t74.5 18q18 5 29.5 9.5t18 11t8.5 16.5t2 25q0 25 -12 39.5t-39 14.5q-34 0 -46 -19.5t-13 -54.5h-144zM96 714h310v-88h-310v88z" />
    <glyph glyph-name="Abreve" unicode="&#x102;" horiz-adv-x="574" 
d="M2 0zM184 714h210l178 -714h-174l-26 136h-171l-25 -136h-174zM286 584h-2l-59 -318h122zM285 837q25 0 47 17.5t26 46.5h72q0 -30 -8.5 -55.5t-26.5 -45t-45.5 -30.5t-64.5 -11q-38 0 -65 11t-45 30.5t-26.5 45t-8.5 55.5h72q4 -29 26 -46.5t47 -17.5z" />
    <glyph glyph-name="abreve" unicode="&#x103;" horiz-adv-x="500" 
d="M27 0zM183 167q0 -32 12 -50.5t35 -18.5q26 0 45.5 16t19.5 58q0 34 0.5 56t0.5 39q-38 -20 -57.5 -25.5t-30.5 -14.5q-13 -10 -19 -23.5t-6 -36.5zM42 375q1 57 16.5 91t44.5 54t64.5 27.5t86.5 7.5q100 0 146 -36.5t46 -123.5v-278q0 -31 2.5 -65t16.5 -52h-156
q-5 14 -6.5 30t-2.5 32h-2q-17 -36 -51 -56t-76 -20q-69 0 -106.5 38.5t-37.5 126.5q0 48 18 84.5t48 53.5t70.5 26t74.5 18q18 5 29.5 9.5t18 11t8.5 16.5t2 25q0 25 -12 39.5t-39 14.5q-34 0 -46 -19.5t-13 -54.5h-144zM247 677q25 0 47 17.5t26 46.5h72q0 -30 -8.5 -55.5
t-26.5 -45t-45.5 -30.5t-64.5 -11q-38 0 -65 11t-45 30.5t-26.5 45t-8.5 55.5h72q4 -29 26 -46.5t47 -17.5z" />
    <glyph glyph-name="Aogonek" unicode="&#x104;" horiz-adv-x="574" 
d="M509 -197q-22 -12 -53 -19.5t-63 -7.5q-51 0 -79 23.5t-28 65.5q0 39 32 74t80 61l-26 136h-171l-25 -136h-174l182 714h210l178 -714h-100q-92 -71 -92 -121q0 -23 13.5 -35t36.5 -12q30 0 56 16zM286 584h-2l-59 -318h122z" />
    <glyph glyph-name="aogonek" unicode="&#x105;" horiz-adv-x="500" 
d="M42 375q1 57 16.5 91t44.5 54t64.5 27.5t86.5 7.5q100 0 146 -36.5t46 -123.5v-278q0 -31 2.5 -65t16.5 -52h-90q-77 -71 -77 -119q0 -26 12.5 -37.5t32.5 -11.5q30 0 55 16l20 -45q-19 -12 -49 -19.5t-59 -7.5q-46 0 -71 23.5t-25 65.5q0 39 27.5 72.5t67.5 62.5
q-5 14 -6.5 30t-2.5 32h-2q-17 -36 -51 -56t-76 -20q-69 0 -106.5 38.5t-37.5 126.5q0 48 18 84.5t48 53.5t70.5 26t74.5 18q18 5 29.5 9.5t18 11t8.5 16.5t2 25q0 25 -12 39.5t-39 14.5q-34 0 -46 -19.5t-13 -54.5h-144zM183 167q0 -32 12 -50.5t35 -18.5q26 0 45.5 16
t19.5 58q0 34 0.5 56t0.5 39q-38 -20 -57.5 -25.5t-30.5 -14.5q-13 -10 -19 -23.5t-6 -36.5z" />
    <glyph glyph-name="Cacute" unicode="&#x106;" horiz-adv-x="537" 
d="M36 0zM351 466q0 78 -13 114t-55 36q-25 0 -39.5 -13t-22 -42.5t-9.5 -77.5t-2 -118q0 -80 2 -131.5t10 -81.5t23.5 -42t41.5 -12q23 0 36.5 13t21 36.5t10 57t2.5 75.5h162v-25q0 -58 -10 -107t-37.5 -85t-76.5 -56.5t-127 -20.5q-81 0 -127 28.5t-69.5 79t-29.5 119
t-6 149.5q0 69 5.5 134.5t29.5 117t74 83t139 31.5q111 0 170 -53t59 -179v-30h-162zM278 901h156l-100 -142h-106z" />
    <glyph glyph-name="cacute" unicode="&#x107;" horiz-adv-x="481" 
d="M27 0zM311 337q0 60 -14.5 86t-46.5 26q-20 0 -32 -12.5t-18.5 -35.5t-8.5 -56t-2 -75q0 -46 2 -79.5t8.5 -55.5t18.5 -32.5t32 -10.5q18 0 29.5 6.5t18 21.5t9.5 39.5t4 60.5h150q-1 -125 -52.5 -179.5t-161.5 -54.5q-77 0 -120.5 25t-66 67t-28 97t-5.5 115
q0 57 9.5 105.5t34.5 84t67.5 55.5t108.5 20q64 0 105.5 -16t65.5 -44.5t33.5 -69t9.5 -88.5h-150zM243 741h156l-100 -142h-106z" />
    <glyph glyph-name="Ccircumflex" unicode="&#x108;" horiz-adv-x="537" 
d="M36 0zM351 466q0 78 -13 114t-55 36q-25 0 -39.5 -13t-22 -42.5t-9.5 -77.5t-2 -118q0 -80 2 -131.5t10 -81.5t23.5 -42t41.5 -12q23 0 36.5 13t21 36.5t10 57t2.5 75.5h162v-25q0 -58 -10 -107t-37.5 -85t-76.5 -56.5t-127 -20.5q-81 0 -127 28.5t-69.5 79t-29.5 119
t-6 149.5q0 69 5.5 134.5t29.5 117t74 83t139 31.5q111 0 170 -53t59 -179v-30h-162zM199 901h168l71 -142h-118l-37 81l-36 -81h-119z" />
    <glyph glyph-name="ccircumflex" unicode="&#x109;" horiz-adv-x="481" 
d="M27 0zM311 337q0 60 -14.5 86t-46.5 26q-20 0 -32 -12.5t-18.5 -35.5t-8.5 -56t-2 -75q0 -46 2 -79.5t8.5 -55.5t18.5 -32.5t32 -10.5q18 0 29.5 6.5t18 21.5t9.5 39.5t4 60.5h150q-1 -125 -52.5 -179.5t-161.5 -54.5q-77 0 -120.5 25t-66 67t-28 97t-5.5 115
q0 57 9.5 105.5t34.5 84t67.5 55.5t108.5 20q64 0 105.5 -16t65.5 -44.5t33.5 -69t9.5 -88.5h-150zM166 741h168l71 -142h-118l-37 81l-36 -81h-119z" />
    <glyph glyph-name="Cdotaccent" unicode="&#x10a;" horiz-adv-x="537" 
d="M36 0zM351 466q0 78 -13 114t-55 36q-25 0 -39.5 -13t-22 -42.5t-9.5 -77.5t-2 -118q0 -80 2 -131.5t10 -81.5t23.5 -42t41.5 -12q23 0 36.5 13t21 36.5t10 57t2.5 75.5h162v-25q0 -58 -10 -107t-37.5 -85t-76.5 -56.5t-127 -20.5q-81 0 -127 28.5t-69.5 79t-29.5 119
t-6 149.5q0 69 5.5 134.5t29.5 117t74 83t139 31.5q111 0 170 -53t59 -179v-30h-162zM343 895v-130h-124v130h124z" />
    <glyph glyph-name="cdotaccent" unicode="&#x10b;" horiz-adv-x="481" 
d="M27 0zM311 337q0 60 -14.5 86t-46.5 26q-20 0 -32 -12.5t-18.5 -35.5t-8.5 -56t-2 -75q0 -46 2 -79.5t8.5 -55.5t18.5 -32.5t32 -10.5q18 0 29.5 6.5t18 21.5t9.5 39.5t4 60.5h150q-1 -125 -52.5 -179.5t-161.5 -54.5q-77 0 -120.5 25t-66 67t-28 97t-5.5 115
q0 57 9.5 105.5t34.5 84t67.5 55.5t108.5 20q64 0 105.5 -16t65.5 -44.5t33.5 -69t9.5 -88.5h-150zM313 735v-130h-124v130h124z" />
    <glyph glyph-name="Ccaron" unicode="&#x10c;" horiz-adv-x="537" 
d="M36 0zM351 466q0 78 -13 114t-55 36q-25 0 -39.5 -13t-22 -42.5t-9.5 -77.5t-2 -118q0 -80 2 -131.5t10 -81.5t23.5 -42t41.5 -12q23 0 36.5 13t21 36.5t10 57t2.5 75.5h162v-25q0 -58 -10 -107t-37.5 -85t-76.5 -56.5t-127 -20.5q-81 0 -127 28.5t-69.5 79t-29.5 119
t-6 149.5q0 69 5.5 134.5t29.5 117t74 83t139 31.5q111 0 170 -53t59 -179v-30h-162zM130 901h119l36 -81l37 81h118l-71 -142h-168z" />
    <glyph glyph-name="ccaron" unicode="&#x10d;" horiz-adv-x="481" 
d="M27 0zM311 337q0 60 -14.5 86t-46.5 26q-20 0 -32 -12.5t-18.5 -35.5t-8.5 -56t-2 -75q0 -46 2 -79.5t8.5 -55.5t18.5 -32.5t32 -10.5q18 0 29.5 6.5t18 21.5t9.5 39.5t4 60.5h150q-1 -125 -52.5 -179.5t-161.5 -54.5q-77 0 -120.5 25t-66 67t-28 97t-5.5 115
q0 57 9.5 105.5t34.5 84t67.5 55.5t108.5 20q64 0 105.5 -16t65.5 -44.5t33.5 -69t9.5 -88.5h-150zM97 741h119l36 -81l37 81h118l-71 -142h-168z" />
    <glyph glyph-name="Dcaron" unicode="&#x10e;" horiz-adv-x="574" 
d="M52 0zM220 124h45q29 0 49 8t32.5 34t18 74.5t5.5 128.5q0 65 -3.5 108t-14.5 68t-31.5 35t-53.5 10h-47v-466zM52 714h249q62 0 107 -17.5t74 -56.5t42.5 -103t13.5 -157q0 -97 -8.5 -168.5t-35.5 -118.5t-77 -70t-133 -23h-232v714zM105 901h119l36 -81l37 81h118
l-71 -142h-168z" />
    <glyph glyph-name="dcaron" unicode="&#x10f;" horiz-adv-x="623" 
d="M32 0zM315 267q0 36 -1.5 67t-7.5 54t-17.5 36t-32.5 13q-22 0 -34.5 -11.5t-18.5 -33t-7.5 -51.5t-1.5 -67q0 -33 1.5 -63.5t7.5 -54t18.5 -38t35.5 -14.5q36 0 47 42t11 121zM318 66h-2q-5 -14 -13.5 -28t-22.5 -25.5t-34 -19t-47 -7.5q-41 0 -72 15.5t-52 49t-32 86.5
t-11 129q0 63 6 116t23 91.5t47.5 60t80.5 21.5q17 0 34 -3.5t33 -11.5t30 -22.5t24 -35.5h2v232h162v-714h-156v66zM536 714h131l-59 -142h-98z" />
    <glyph glyph-name="Dcroat" unicode="&#x110;" horiz-adv-x="574" 
d="M52 317h-52v112h52v285h245q62 0 107 -17.5t74 -56.5t43.5 -103t16.5 -157q-2 -97 -11.5 -168.5t-36.5 -118.5t-77 -70t-133 -23h-228v317zM220 124h45q29 0 49 8t32.5 34t18 74.5t5.5 128.5q0 65 -3.5 108t-14.5 68t-31.5 35t-53.5 10h-47v-161h62v-112h-62v-193z" />
    <glyph glyph-name="dcroat" unicode="&#x111;" horiz-adv-x="558" 
d="M318 66h-2q-5 -14 -13.5 -28t-22.5 -25.5t-34 -19t-47 -7.5q-41 0 -72 15.5t-52 49t-32 86.5t-11 129q0 63 6 116t23 91.5t47.5 60t80.5 21.5q17 0 34 -3.5t33 -11.5t30 -22.5t24 -35.5h2v92h-66v68h66v72h162v-72h90v-68h-90v-574h-156v66zM315 267q0 36 -1.5 67
t-7.5 54t-17.5 36t-32.5 13q-22 0 -34.5 -11.5t-18.5 -33t-7.5 -51.5t-1.5 -67q0 -33 1.5 -63.5t7.5 -54t18.5 -38t35.5 -14.5q36 0 47 42t11 121z" />
    <glyph glyph-name="Emacron" unicode="&#x112;" horiz-adv-x="500" 
d="M52 0zM52 714h413v-136h-245v-143h230v-136h-230v-163h256v-136h-424v714zM105 874h310v-88h-310v88z" />
    <glyph glyph-name="emacron" unicode="&#x113;" horiz-adv-x="481" 
d="M27 0zM306 338q0 57 -10.5 87t-44.5 30q-40 0 -51 -31t-11 -86h117zM189 244v-33q0 -63 12 -94t47 -31q32 0 44 24t15 75h150q-2 -102 -55 -150.5t-155 -48.5q-77 0 -120.5 25t-66 67t-28 97t-5.5 115q0 57 9.5 105.5t34.5 84t67.5 55.5t108.5 20q75 0 118 -22.5
t64.5 -64t27 -98.5t5.5 -126h-273zM95 714h310v-88h-310v88z" />
    <glyph glyph-name="Ebreve" unicode="&#x114;" horiz-adv-x="500" 
d="M52 0zM52 714h413v-136h-245v-143h230v-136h-230v-163h256v-136h-424v714zM256 837q25 0 47 17.5t26 46.5h72q0 -30 -8.5 -55.5t-26.5 -45t-45.5 -30.5t-64.5 -11q-38 0 -65 11t-45 30.5t-26.5 45t-8.5 55.5h72q4 -29 26 -46.5t47 -17.5z" />
    <glyph glyph-name="ebreve" unicode="&#x115;" horiz-adv-x="481" 
d="M27 0zM306 338q0 57 -10.5 87t-44.5 30q-40 0 -51 -31t-11 -86h117zM189 244v-33q0 -63 12 -94t47 -31q32 0 44 24t15 75h150q-2 -102 -55 -150.5t-155 -48.5q-77 0 -120.5 25t-66 67t-28 97t-5.5 115q0 57 9.5 105.5t34.5 84t67.5 55.5t108.5 20q75 0 118 -22.5
t64.5 -64t27 -98.5t5.5 -126h-273zM252 677q25 0 47 17.5t26 46.5h72q0 -30 -8.5 -55.5t-26.5 -45t-45.5 -30.5t-64.5 -11q-38 0 -65 11t-45 30.5t-26.5 45t-8.5 55.5h72q4 -29 26 -46.5t47 -17.5z" />
    <glyph glyph-name="Edotaccent" unicode="&#x116;" horiz-adv-x="500" 
d="M52 0zM52 714h413v-136h-245v-143h230v-136h-230v-163h256v-136h-424v714zM320 895v-130h-124v130h124z" />
    <glyph glyph-name="edotaccent" unicode="&#x117;" horiz-adv-x="481" 
d="M27 0zM306 338q0 57 -10.5 87t-44.5 30q-40 0 -51 -31t-11 -86h117zM189 244v-33q0 -63 12 -94t47 -31q32 0 44 24t15 75h150q-2 -102 -55 -150.5t-155 -48.5q-77 0 -120.5 25t-66 67t-28 97t-5.5 115q0 57 9.5 105.5t34.5 84t67.5 55.5t108.5 20q75 0 118 -22.5
t64.5 -64t27 -98.5t5.5 -126h-273zM311 735v-130h-124v130h124z" />
    <glyph glyph-name="Eogonek" unicode="&#x118;" horiz-adv-x="500" 
d="M475 -197q-22 -12 -53 -19.5t-63 -7.5q-51 0 -79 23.5t-28 65.5q0 39 32 74t80 61h-312v714h413v-136h-245v-143h230v-136h-230v-163h256v-136h-38q-92 -71 -92 -121q0 -23 13.5 -35t36.5 -12q30 0 56 16z" />
    <glyph glyph-name="eogonek" unicode="&#x119;" horiz-adv-x="481" 
d="M354 -197q-22 -12 -53 -19.5t-63 -7.5q-51 0 -79 23.5t-28 65.5q0 39 32 74q24 27 57 48q-58 4 -94 24q-33 19 -53 48t-30 65t-13 78t-3 88q0 57 9.5 105.5t34.5 84t67.5 55.5t108.5 20q75 0 118 -22.5t64.5 -64t27 -98.5t5.5 -126h-273v-33q0 -63 12 -94t47 -31
q32 0 44 24t15 75h150q-1 -100 -56 -150q-36 -33 -96 -44q-80 -65 -80 -112q0 -23 13.5 -35t36.5 -12q30 0 56 16zM306 338q0 57 -10.5 87t-44.5 30q-40 0 -51 -31t-11 -86h117z" />
    <glyph glyph-name="Ecaron" unicode="&#x11a;" horiz-adv-x="500" 
d="M52 0zM52 714h413v-136h-245v-143h230v-136h-230v-163h256v-136h-424v714zM107 901h119l36 -81l37 81h118l-71 -142h-168z" />
    <glyph glyph-name="ecaron" unicode="&#x11b;" horiz-adv-x="481" 
d="M27 0zM306 338q0 57 -10.5 87t-44.5 30q-40 0 -51 -31t-11 -86h117zM189 244v-33q0 -63 12 -94t47 -31q32 0 44 24t15 75h150q-2 -102 -55 -150.5t-155 -48.5q-77 0 -120.5 25t-66 67t-28 97t-5.5 115q0 57 9.5 105.5t34.5 84t67.5 55.5t108.5 20q75 0 118 -22.5
t64.5 -64t27 -98.5t5.5 -126h-273zM94 741h119l36 -81l37 81h118l-71 -142h-168z" />
    <glyph glyph-name="Gcircumflex" unicode="&#x11c;" horiz-adv-x="556" 
d="M36 0zM354 497q0 17 -2 38t-8.5 39t-20 30t-36.5 12q-26 0 -41 -14t-23 -45t-10.5 -80.5t-2.5 -120.5q0 -73 2.5 -122.5t11 -79.5t23.5 -43t40 -13q43 0 60 37.5t17 112.5v23h-79v112h235v-383h-115l-4 68h-2q-10 -24 -26.5 -40t-36.5 -25t-43.5 -13t-47.5 -4
q-67 0 -108 24.5t-63.5 70t-30 111.5t-7.5 150q0 88 6 159t31.5 121.5t76.5 78t140 27.5q54 0 92 -11.5t63 -30.5t39.5 -43t21.5 -50t8.5 -51t1.5 -45h-162zM205 901h168l71 -142h-118l-37 81l-36 -81h-119z" />
    <glyph glyph-name="gcircumflex" unicode="&#x11d;" horiz-adv-x="519" 
d="M36 0zM198 280q0 -42 3 -71t10 -46t18 -24.5t28 -7.5q16 0 28 7t19 24.5t10.5 47t3.5 75.5q0 75 -12 110.5t-47 35.5q-20 0 -32 -11t-18.5 -31t-8.5 -48t-2 -61zM324 541h150v-522q0 -46 -11 -83.5t-37.5 -64t-69.5 -41t-107 -14.5q-59 0 -98 12t-62.5 32.5t-33 48
t-9.5 57.5h150q4 -22 17 -33q17 -11 40 -11q20 0 32.5 7t20 23.5t10 42.5t2.5 65v33h-2q-17 -47 -51.5 -63.5t-76.5 -16.5q-44 0 -73 20.5t-46.5 56t-25 84t-7.5 104.5q0 48 5 97.5t21.5 89t47.5 65t84 25.5q55 0 84.5 -25t43.5 -62h2v73zM192 741h168l71 -142h-118l-37 81
l-36 -81h-119z" />
    <glyph glyph-name="Gbreve" unicode="&#x11e;" horiz-adv-x="556" 
d="M36 0zM354 497q0 17 -2 38t-8.5 39t-20 30t-36.5 12q-26 0 -41 -14t-23 -45t-10.5 -80.5t-2.5 -120.5q0 -73 2.5 -122.5t11 -79.5t23.5 -43t40 -13q43 0 60 37.5t17 112.5v23h-79v112h235v-383h-115l-4 68h-2q-10 -24 -26.5 -40t-36.5 -25t-43.5 -13t-47.5 -4
q-67 0 -108 24.5t-63.5 70t-30 111.5t-7.5 150q0 88 6 159t31.5 121.5t76.5 78t140 27.5q54 0 92 -11.5t63 -30.5t39.5 -43t21.5 -50t8.5 -51t1.5 -45h-162zM283 837q25 0 47 17.5t26 46.5h72q0 -30 -8.5 -55.5t-26.5 -45t-45.5 -30.5t-64.5 -11q-38 0 -65 11t-45 30.5
t-26.5 45t-8.5 55.5h72q4 -29 26 -46.5t47 -17.5z" />
    <glyph glyph-name="gbreve" unicode="&#x11f;" horiz-adv-x="519" 
d="M36 0zM198 280q0 -42 3 -71t10 -46t18 -24.5t28 -7.5q16 0 28 7t19 24.5t10.5 47t3.5 75.5q0 75 -12 110.5t-47 35.5q-20 0 -32 -11t-18.5 -31t-8.5 -48t-2 -61zM324 541h150v-522q0 -46 -11 -83.5t-37.5 -64t-69.5 -41t-107 -14.5q-59 0 -98 12t-62.5 32.5t-33 48
t-9.5 57.5h150q4 -22 17 -33q17 -11 40 -11q20 0 32.5 7t20 23.5t10 42.5t2.5 65v33h-2q-17 -47 -51.5 -63.5t-76.5 -16.5q-44 0 -73 20.5t-46.5 56t-25 84t-7.5 104.5q0 48 5 97.5t21.5 89t47.5 65t84 25.5q55 0 84.5 -25t43.5 -62h2v73zM273 677q25 0 47 17.5t26 46.5h72
q0 -30 -8.5 -55.5t-26.5 -45t-45.5 -30.5t-64.5 -11q-38 0 -65 11t-45 30.5t-26.5 45t-8.5 55.5h72q4 -29 26 -46.5t47 -17.5z" />
    <glyph glyph-name="Gdotaccent" unicode="&#x120;" horiz-adv-x="556" 
d="M36 0zM354 497q0 17 -2 38t-8.5 39t-20 30t-36.5 12q-26 0 -41 -14t-23 -45t-10.5 -80.5t-2.5 -120.5q0 -73 2.5 -122.5t11 -79.5t23.5 -43t40 -13q43 0 60 37.5t17 112.5v23h-79v112h235v-383h-115l-4 68h-2q-10 -24 -26.5 -40t-36.5 -25t-43.5 -13t-47.5 -4
q-67 0 -108 24.5t-63.5 70t-30 111.5t-7.5 150q0 88 6 159t31.5 121.5t76.5 78t140 27.5q54 0 92 -11.5t63 -30.5t39.5 -43t21.5 -50t8.5 -51t1.5 -45h-162zM350 895v-130h-124v130h124z" />
    <glyph glyph-name="gdotaccent" unicode="&#x121;" horiz-adv-x="519" 
d="M36 0zM198 280q0 -42 3 -71t10 -46t18 -24.5t28 -7.5q16 0 28 7t19 24.5t10.5 47t3.5 75.5q0 75 -12 110.5t-47 35.5q-20 0 -32 -11t-18.5 -31t-8.5 -48t-2 -61zM324 541h150v-522q0 -46 -11 -83.5t-37.5 -64t-69.5 -41t-107 -14.5q-59 0 -98 12t-62.5 32.5t-33 48
t-9.5 57.5h150q4 -22 17 -33q17 -11 40 -11q20 0 32.5 7t20 23.5t10 42.5t2.5 65v33h-2q-17 -47 -51.5 -63.5t-76.5 -16.5q-44 0 -73 20.5t-46.5 56t-25 84t-7.5 104.5q0 48 5 97.5t21.5 89t47.5 65t84 25.5q55 0 84.5 -25t43.5 -62h2v73zM330 735v-130h-124v130h124z" />
    <glyph glyph-name="Gcommaaccent" unicode="&#x122;" horiz-adv-x="556" 
d="M36 0zM354 497q0 17 -2 38t-8.5 39t-20 30t-36.5 12q-26 0 -41 -14t-23 -45t-10.5 -80.5t-2.5 -120.5q0 -73 2.5 -122.5t11 -79.5t23.5 -43t40 -13q43 0 60 37.5t17 112.5v23h-79v112h235v-383h-115l-4 68h-2q-10 -24 -26.5 -40t-36.5 -25t-43.5 -13t-47.5 -4
q-67 0 -108 24.5t-63.5 70t-30 111.5t-7.5 150q0 88 6 159t31.5 121.5t76.5 78t140 27.5q54 0 92 -11.5t63 -30.5t39.5 -43t21.5 -50t8.5 -51t1.5 -45h-162zM212 -50h134v-76q-3 -56 -32.5 -76.5t-84.5 -21.5v40q26 4 34 11t10 19h-61v104z" />
    <glyph glyph-name="gcommaaccent" unicode="&#x123;" horiz-adv-x="519" 
d="M36 0zM198 280q0 -42 3 -71t10 -46t18 -24.5t28 -7.5q16 0 28 7t19 24.5t10.5 47t3.5 75.5q0 75 -12 110.5t-47 35.5q-20 0 -32 -11t-18.5 -31t-8.5 -48t-2 -61zM324 541h150v-522q0 -46 -11 -83.5t-37.5 -64t-69.5 -41t-107 -14.5q-59 0 -98 12t-62.5 32.5t-33 48
t-9.5 57.5h150q4 -22 17 -33q17 -11 40 -11q20 0 32.5 7t20 23.5t10 42.5t2.5 65v33h-2q-17 -47 -51.5 -63.5t-76.5 -16.5q-44 0 -73 20.5t-46.5 56t-25 84t-7.5 104.5q0 48 5 97.5t21.5 89t47.5 65t84 25.5q55 0 84.5 -25t43.5 -62h2v73zM345 610h-134v76q1 28 9.5 46.5
t23 30t35.5 16t49 5.5v-40q-26 -4 -34 -11t-10 -19h61v-104z" />
    <glyph glyph-name="Hcircumflex" unicode="&#x124;" horiz-adv-x="574" 
d="M52 0zM52 714h168v-267h134v267h168v-714h-168v305h-134v-305h-168v714zM202 901h168l71 -142h-118l-37 81l-36 -81h-119z" />
    <glyph glyph-name="hcircumflex" unicode="&#x125;" horiz-adv-x="519" 
d="M45 0zM45 714h162v-232h2q20 40 51 56.5t73 16.5q69 0 105 -36t36 -114v-405h-162v369q0 29 -12 45.5t-35 16.5t-40.5 -18.5t-17.5 -58.5v-354h-162v714zM175 901h168l71 -142h-118l-37 81l-36 -81h-119z" />
    <glyph glyph-name="Hbar" unicode="&#x126;" horiz-adv-x="574" 
d="M52 714h168v-139h134v139h168v-714h-168v284h-134v-284h-168v714zM354 416v91h-134v-91h134z" />
    <glyph glyph-name="hbar" unicode="&#x127;" horiz-adv-x="559" 
d="M-10 647h95v67h162v-67h101v-68h-101v-97h2q20 40 51 56.5t73 16.5q69 0 105 -36t36 -114v-405h-162v369q0 29 -12 45.5t-35 16.5t-40.5 -18.5t-17.5 -58.5v-354h-162v579h-95v68z" />
    <glyph glyph-name="Itilde" unicode="&#x128;" horiz-adv-x="278" 
d="M0 0zM55 714h168v-714h-168v714zM302 898q-2 -22 -7.5 -46t-17 -44t-30 -33t-45.5 -13q-18 0 -35.5 4.5t-32.5 10.5t-27.5 10.5t-22.5 4.5q-14 0 -20.5 -11t-8.5 -19h-77q2 26 8.5 50.5t18.5 43.5t28.5 30.5t38.5 11.5q20 0 37 -4.5t31 -10.5q15 -5 27.5 -10t23.5 -5
q19 0 24 9.5t7 20.5h80z" />
    <glyph glyph-name="itilde" unicode="&#x129;" 
d="M0 0zM49 541h162v-541h-162v541zM295 738q-2 -22 -7.5 -46t-17 -44t-30 -33t-45.5 -13q-18 0 -35.5 4.5t-32.5 10.5t-27.5 10.5t-22.5 4.5q-14 0 -20.5 -11t-8.5 -19h-77q2 26 8.5 50.5t18.5 43.5t28.5 30.5t38.5 11.5q20 0 37 -4.5t31 -10.5q15 -5 27.5 -10t23.5 -5
q19 0 24 9.5t7 20.5h80z" />
    <glyph glyph-name="Imacron" unicode="&#x12a;" horiz-adv-x="278" 
d="M0 0zM55 714h168v-714h-168v714zM-16 874h310v-88h-310v88z" />
    <glyph glyph-name="imacron" unicode="&#x12b;" 
d="M0 0zM49 541h162v-541h-162v541zM-24 714h310v-88h-310v88z" />
    <glyph glyph-name="Iogonek" unicode="&#x12e;" horiz-adv-x="278" 
d="M260 -197q-22 -12 -53 -19.5t-63 -7.5q-51 0 -79 23.5t-28 65.5q0 39 32 74t80 61h-94v714h168v-714q-92 -71 -92 -121q0 -23 13.5 -35t36.5 -12q30 0 56 16z" />
    <glyph glyph-name="iogonek" unicode="&#x12f;" 
d="M222 -197q-22 -12 -53 -19.5t-63 -7.5q-51 0 -79 23.5t-28 65.5q0 39 32 74t80 61h-62v541h162v-541h-26q-92 -71 -92 -121q0 -23 13.5 -35t36.5 -12q30 0 56 16zM49 722h162v-124h-162v124z" />
    <glyph glyph-name="Idotaccent" unicode="&#x130;" horiz-adv-x="278" 
d="M55 0zM55 714h168v-714h-168v714zM202 895v-130h-124v130h124z" />
    <glyph glyph-name="dotlessi" unicode="&#x131;" 
d="M49 541h162v-541h-162v541z" />
    <glyph glyph-name="IJ" unicode="&#x132;" horiz-adv-x="768" 
d="M55 0zM55 714h168v-714h-168v714zM548 714h168v-499q0 -50 -11 -92t-36.5 -72.5t-67.5 -47.5t-104 -17q-113 0 -163 51.5t-50 145.5v44h156v-31q0 -18 1 -35.5t6 -31.5t16.5 -22.5t31.5 -8.5q18 0 28.5 9t16 24.5t7 37t1.5 46.5v499z" />
    <glyph glyph-name="ij" unicode="&#x133;" horiz-adv-x="518" 
d="M49 0zM49 722h162v-124h-162v124zM49 541h162v-541h-162v541zM307 722h162v-124h-162v124zM307 541h162v-554q0 -42 -6.5 -72.5t-24.5 -51t-50 -30t-84 -9.5q-19 0 -34 0.5t-35 1.5v111q5 -1 13 -1h10q18 1 28 5.5t14.5 12.5t5.5 21t1 31v535z" />
    <glyph glyph-name="Jcircumflex" unicode="&#x134;" horiz-adv-x="500" 
d="M16 0zM280 714h168v-499q0 -50 -11 -92t-36.5 -72.5t-67.5 -47.5t-104 -17q-113 0 -163 51.5t-50 145.5v44h156v-31q0 -18 1 -35.5t6 -31.5t16.5 -22.5t31.5 -8.5q18 0 28.5 9t16 24.5t7 37t1.5 46.5v499zM279 901h168l71 -142h-118l-37 81l-36 -81h-119z" />
    <glyph glyph-name="jcircumflex" unicode="&#x135;" 
d="M0 0zM49 541h162v-554q0 -42 -6.5 -72.5t-24.5 -51t-50 -30t-84 -9.5q-19 0 -34 0.5t-35 1.5v111q5 -1 13 -1h10q18 1 28 5.5t14.5 12.5t5.5 21t1 31v535zM44 741h168l71 -142h-118l-37 81l-36 -81h-119z" />
    <glyph glyph-name="Kcommaaccent" unicode="&#x136;" horiz-adv-x="574" 
d="M52 0zM52 714h168v-282h2l157 282h181l-187 -308l210 -406h-189l-129 269l-45 -69v-200h-168v714zM241 -50h134v-76q-3 -56 -32.5 -76.5t-84.5 -21.5v40q26 4 34 11t10 19h-61v104z" />
    <glyph glyph-name="kcommaaccent" unicode="&#x137;" horiz-adv-x="519" 
d="M45 0zM45 714h162v-367h2l121 194h178l-155 -218l174 -323h-177l-101 204l-42 -57v-147h-162v714zM208 -50h134v-76q-3 -56 -32.5 -76.5t-84.5 -21.5v40q26 4 34 11t10 19h-61v104z" />
    <glyph glyph-name="Lacute" unicode="&#x139;" horiz-adv-x="463" 
d="M52 0zM52 714h168v-578h243v-136h-411v714zM132 901h156l-100 -142h-106z" />
    <glyph glyph-name="lacute" unicode="&#x13a;" 
d="M49 0zM49 714h162v-714h-162v714zM101 901h156l-100 -142h-106z" />
    <glyph glyph-name="Lcommaaccent" unicode="&#x13b;" horiz-adv-x="463" 
d="M52 0zM52 714h168v-578h243v-136h-411v714zM183 -50h134v-76q-3 -56 -32.5 -76.5t-84.5 -21.5v40q26 4 34 11t10 19h-61v104z" />
    <glyph glyph-name="lcommaaccent" unicode="&#x13c;" 
d="M49 0zM49 714h162v-714h-162v714zM64 -50h134v-76q-3 -56 -32.5 -76.5t-84.5 -21.5v40q26 4 34 11t10 19h-61v104z" />
    <glyph glyph-name="Lcaron" unicode="&#x13d;" horiz-adv-x="463" 
d="M52 0zM52 714h168v-578h243v-136h-411v714zM296 714h131l-59 -142h-98z" />
    <glyph glyph-name="lcaron" unicode="&#x13e;" horiz-adv-x="359" 
d="M49 0zM49 714h162v-714h-162v714zM272 714h131l-59 -142h-98z" />
    <glyph glyph-name="Ldot" unicode="&#x13f;" horiz-adv-x="463" 
d="M52 0zM52 714h168v-578h243v-136h-411v714zM405 542v-130h-124v130h124z" />
    <glyph glyph-name="ldot" unicode="&#x140;" horiz-adv-x="399" 
d="M49 0zM49 714h162v-714h-162v714zM385 542v-130h-124v130h124z" />
    <glyph glyph-name="Lslash" unicode="&#x141;" horiz-adv-x="463" 
d="M52 227l-62 -40v142l62 40v345h168v-236l120 77v-142l-120 -77v-200h243v-136h-411v227z" />
    <glyph glyph-name="lslash" unicode="&#x142;" 
d="M49 253l-49 -33v136l49 33v325h162v-221l49 33v-136l-49 -33v-357h-162v253z" />
    <glyph glyph-name="Nacute" unicode="&#x143;" horiz-adv-x="593" 
d="M52 0zM52 714h193l138 -464h2v464h156v-714h-190l-147 492h-2v-492h-150v714zM290 901h156l-100 -142h-106z" />
    <glyph glyph-name="nacute" unicode="&#x144;" horiz-adv-x="519" 
d="M45 0zM45 541h156v-64h2q17 36 51 57t79 21q69 0 105 -36t36 -114v-405h-162v369q0 29 -12 45.5t-35 16.5t-40.5 -18.5t-17.5 -58.5v-354h-162v541zM243 741h156l-100 -142h-106z" />
    <glyph glyph-name="Ncommaaccent" unicode="&#x145;" horiz-adv-x="593" 
d="M52 0zM52 714h193l138 -464h2v464h156v-714h-190l-147 492h-2v-492h-150v714zM233 -50h134v-76q-3 -56 -32.5 -76.5t-84.5 -21.5v40q26 4 34 11t10 19h-61v104z" />
    <glyph glyph-name="ncommaaccent" unicode="&#x146;" horiz-adv-x="519" 
d="M45 0zM45 541h156v-64h2q17 36 51 57t79 21q69 0 105 -36t36 -114v-405h-162v369q0 29 -12 45.5t-35 16.5t-40.5 -18.5t-17.5 -58.5v-354h-162v541zM193 -50h134v-76q-3 -56 -32.5 -76.5t-84.5 -21.5v40q26 4 34 11t10 19h-61v104z" />
    <glyph glyph-name="Ncaron" unicode="&#x147;" horiz-adv-x="593" 
d="M52 0zM52 714h193l138 -464h2v464h156v-714h-190l-147 492h-2v-492h-150v714zM143 901h119l36 -81l37 81h118l-71 -142h-168z" />
    <glyph glyph-name="ncaron" unicode="&#x148;" horiz-adv-x="519" 
d="M45 0zM45 541h156v-64h2q17 36 51 57t79 21q69 0 105 -36t36 -114v-405h-162v369q0 29 -12 45.5t-35 16.5t-40.5 -18.5t-17.5 -58.5v-354h-162v541zM102 741h119l36 -81l37 81h118l-71 -142h-168z" />
    <glyph glyph-name="napostrophe" unicode="&#x149;" horiz-adv-x="547" 
d="M17 0zM73 541h156v-64h2q17 36 51 57t79 21q69 0 105 -36t36 -114v-405h-162v369q0 29 -12 45.5t-35 16.5t-40.5 -18.5t-17.5 -58.5v-354h-162v541zM17 818h134v-76q-3 -56 -32.5 -76.5t-84.5 -21.5v40q26 4 34 11t10 19h-61v104z" />
    <glyph glyph-name="Omacron" unicode="&#x14c;" horiz-adv-x="574" 
d="M36 0zM538 357q0 -74 -6 -141.5t-30.5 -118.5t-75 -81t-139.5 -30q-83 0 -132.5 26t-76 74.5t-34.5 117t-8 153.5t8 153.5t34.5 117t76 74.5t132.5 26q89 0 139.5 -30t75 -81t30.5 -118.5t6 -141.5zM210 357q0 -74 2.5 -123.5t10.5 -79.5t23 -43t40 -13t40.5 13t24 43
t11 79.5t2.5 123.5q0 73 -2.5 123t-11 80t-24 43t-40.5 13t-40 -13t-23 -43t-10.5 -80t-2.5 -123zM131 874h310v-88h-310v88z" />
    <glyph glyph-name="omacron" unicode="&#x14d;" horiz-adv-x="500" 
d="M27 0zM250 -14q-74 0 -118.5 21.5t-67.5 59.5t-30 89.5t-7 112.5t8.5 113t33 90.5t68 60.5t113.5 22q74 0 118 -21.5t67.5 -59.5t30.5 -89.5t7 -112.5t-8.5 -113t-33 -90.5t-68 -60.5t-113.5 -22zM311 270q0 50 -2.5 84.5t-9 55.5t-18 30t-30.5 9q-36 0 -49 -40t-13 -138
q0 -99 13 -139t49 -40q19 0 30.5 9t18 30t9 55t2.5 84zM94 714h310v-88h-310v88z" />
    <glyph glyph-name="Obreve" unicode="&#x14e;" horiz-adv-x="574" 
d="M36 0zM538 357q0 -74 -6 -141.5t-30.5 -118.5t-75 -81t-139.5 -30q-83 0 -132.5 26t-76 74.5t-34.5 117t-8 153.5t8 153.5t34.5 117t76 74.5t132.5 26q89 0 139.5 -30t75 -81t30.5 -118.5t6 -141.5zM210 357q0 -74 2.5 -123.5t10.5 -79.5t23 -43t40 -13t40.5 13t24 43
t11 79.5t2.5 123.5q0 73 -2.5 123t-11 80t-24 43t-40.5 13t-40 -13t-23 -43t-10.5 -80t-2.5 -123zM287 837q25 0 47 17.5t26 46.5h72q0 -30 -8.5 -55.5t-26.5 -45t-45.5 -30.5t-64.5 -11q-38 0 -65 11t-45 30.5t-26.5 45t-8.5 55.5h72q4 -29 26 -46.5t47 -17.5z" />
    <glyph glyph-name="obreve" unicode="&#x14f;" horiz-adv-x="500" 
d="M27 0zM250 -14q-74 0 -118.5 21.5t-67.5 59.5t-30 89.5t-7 112.5t8.5 113t33 90.5t68 60.5t113.5 22q74 0 118 -21.5t67.5 -59.5t30.5 -89.5t7 -112.5t-8.5 -113t-33 -90.5t-68 -60.5t-113.5 -22zM311 270q0 50 -2.5 84.5t-9 55.5t-18 30t-30.5 9q-36 0 -49 -40t-13 -138
q0 -99 13 -139t49 -40q19 0 30.5 9t18 30t9 55t2.5 84zM249 677q25 0 47 17.5t26 46.5h72q0 -30 -8.5 -55.5t-26.5 -45t-45.5 -30.5t-64.5 -11q-38 0 -65 11t-45 30.5t-26.5 45t-8.5 55.5h72q4 -29 26 -46.5t47 -17.5z" />
    <glyph glyph-name="Ohungarumlaut" unicode="&#x150;" horiz-adv-x="574" 
d="M36 0zM538 357q0 -74 -6 -141.5t-30.5 -118.5t-75 -81t-139.5 -30q-83 0 -132.5 26t-76 74.5t-34.5 117t-8 153.5t8 153.5t34.5 117t76 74.5t132.5 26q89 0 139.5 -30t75 -81t30.5 -118.5t6 -141.5zM210 357q0 -74 2.5 -123.5t10.5 -79.5t23 -43t40 -13t40.5 13t24 43
t11 79.5t2.5 123.5q0 73 -2.5 123t-11 80t-24 43t-40.5 13t-40 -13t-23 -43t-10.5 -80t-2.5 -123zM380 901h156l-100 -142h-106zM180 901h156l-100 -142h-106z" />
    <glyph glyph-name="ohungarumlaut" unicode="&#x151;" horiz-adv-x="500" 
d="M27 0zM250 -14q-74 0 -118.5 21.5t-67.5 59.5t-30 89.5t-7 112.5t8.5 113t33 90.5t68 60.5t113.5 22q74 0 118 -21.5t67.5 -59.5t30.5 -89.5t7 -112.5t-8.5 -113t-33 -90.5t-68 -60.5t-113.5 -22zM311 270q0 50 -2.5 84.5t-9 55.5t-18 30t-30.5 9q-36 0 -49 -40t-13 -138
q0 -99 13 -139t49 -40q19 0 30.5 9t18 30t9 55t2.5 84zM344 741h156l-100 -142h-106zM144 741h156l-100 -142h-106z" />
    <glyph glyph-name="OE" unicode="&#x152;" horiz-adv-x="778" 
d="M210 357q0 -59 1 -106.5t8.5 -81.5t23.5 -52.5t45 -18.5q19 0 32 6t21 16t12 22.5t6 25.5q3 20 4.5 57.5t1.5 77.5v54v53q0 42 -1.5 79t-4.5 57q-2 13 -6 25.5t-12 22.5t-21 16t-32 6q-29 0 -45 -18.5t-23.5 -52.5t-8.5 -82t-1 -106zM383 37q-22 -24 -56 -37.5t-72 -13.5
q-75 0 -118.5 29t-66 79t-28.5 118t-6 145q0 37 1 79.5t7 83.5t19 78.5t37 66.5t61 46t91 17q35 0 69 -11.5t60 -37.5v35h372v-136h-232v-143h219v-136h-219v-163h241v-136h-379v37z" />
    <glyph glyph-name="oe" unicode="&#x153;" horiz-adv-x="741" 
d="M572 338q0 57 -10 87t-42 30q-38 0 -48.5 -31t-10.5 -86h111zM189 270q0 -46 2 -79.5t8.5 -55.5t18.5 -32.5t32 -10.5t32 12.5t18.5 35.5t8.5 55.5t2 73.5q0 93 -10.5 136.5t-50.5 43.5q-20 0 -32 -12.5t-18.5 -35.5t-8.5 -56t-2 -75zM461 244v-33q0 -63 11.5 -94
t44.5 -31q29 0 41 24t15 75h150q-5 -102 -53 -150q-48 -49 -141 -49q-63 0 -97.5 20t-50.5 51q-26 -44 -65 -57.5t-88 -13.5q-51 0 -89 15t-62.5 48t-37 86t-12.5 130q0 61 8 114t31.5 92t65 61.5t109.5 22.5q57 0 91 -17t57 -52q27 39 61.5 54t82.5 15q58 0 96 -20t60 -55
t30.5 -84.5t8.5 -107.5v-44h-267z" />
    <glyph glyph-name="Racute" unicode="&#x154;" horiz-adv-x="574" 
d="M52 0zM52 714h282q54 0 90.5 -15.5t59 -41t32.5 -59t10 -70.5q0 -78 -30 -119t-90 -55v-2q40 -6 63 -21t34 -38t14 -53t4 -66q1 -53 3 -84t5.5 -47.5t9 -23t14.5 -10.5v-9h-181q-10 18 -14 51t-4 94q0 46 -3.5 75.5t-11.5 46t-21.5 22.5t-33.5 6h-64v-295h-168v714z
M220 413h52q25 0 42 8.5t26.5 22t13.5 30t4 32.5q0 40 -18.5 65t-68.5 25h-51v-183zM249 901h156l-100 -142h-106z" />
    <glyph glyph-name="racute" unicode="&#x155;" horiz-adv-x="370" 
d="M45 0zM45 541h156v-76h2q16 36 47.5 63t82.5 27h12q4 0 14 -2v-152q-12 2 -22.5 3t-22.5 1q-49 0 -78 -22t-29 -76v-307h-162v541zM144 741h156l-100 -142h-106z" />
    <glyph glyph-name="Rcommaaccent" unicode="&#x156;" horiz-adv-x="574" 
d="M52 0zM52 714h282q54 0 90.5 -15.5t59 -41t32.5 -59t10 -70.5q0 -78 -30 -119t-90 -55v-2q40 -6 63 -21t34 -38t14 -53t4 -66q1 -53 3 -84t5.5 -47.5t9 -23t14.5 -10.5v-9h-181q-10 18 -14 51t-4 94q0 46 -3.5 75.5t-11.5 46t-21.5 22.5t-33.5 6h-64v-295h-168v714z
M220 413h52q25 0 42 8.5t26.5 22t13.5 30t4 32.5q0 40 -18.5 65t-68.5 25h-51v-183zM227 -50h134v-76q-3 -56 -32.5 -76.5t-84.5 -21.5v40q26 4 34 11t10 19h-61v104z" />
    <glyph glyph-name="rcommaaccent" unicode="&#x157;" horiz-adv-x="370" 
d="M45 0zM45 541h156v-76h2q16 36 47.5 63t82.5 27h12q4 0 14 -2v-152q-12 2 -22.5 3t-22.5 1q-49 0 -78 -22t-29 -76v-307h-162v541zM59 -50h134v-76q-3 -56 -32.5 -76.5t-84.5 -21.5v40q26 4 34 11t10 19h-61v104z" />
    <glyph glyph-name="Rcaron" unicode="&#x158;" horiz-adv-x="574" 
d="M52 0zM52 714h282q54 0 90.5 -15.5t59 -41t32.5 -59t10 -70.5q0 -78 -30 -119t-90 -55v-2q40 -6 63 -21t34 -38t14 -53t4 -66q1 -53 3 -84t5.5 -47.5t9 -23t14.5 -10.5v-9h-181q-10 18 -14 51t-4 94q0 46 -3.5 75.5t-11.5 46t-21.5 22.5t-33.5 6h-64v-295h-168v714z
M220 413h52q25 0 42 8.5t26.5 22t13.5 30t4 32.5q0 40 -18.5 65t-68.5 25h-51v-183zM112 901h119l36 -81l37 81h118l-71 -142h-168z" />
    <glyph glyph-name="rcaron" unicode="&#x159;" horiz-adv-x="370" 
d="M45 0zM45 541h156v-76h2q16 36 47.5 63t82.5 27h12q4 0 14 -2v-152q-12 2 -22.5 3t-22.5 1q-49 0 -78 -22t-29 -76v-307h-162v541zM50 741h119l36 -81l37 81h118l-71 -142h-168z" />
    <glyph glyph-name="Sacute" unicode="&#x15a;" horiz-adv-x="537" 
d="M29 0zM191 218v-25q0 -41 14.5 -68t58.5 -27q22 0 36.5 7.5t23.5 19.5t12.5 27.5t3.5 30.5q0 38 -22.5 59.5t-57 36.5t-74 29t-74 38.5t-57 64.5t-22.5 107q0 43 12 81t40 66.5t72.5 45.5t109.5 17q63 0 106.5 -15t70.5 -41.5t39 -62t12 -76.5v-17h-162q0 52 -14 75
q-15 25 -51 25q-67 0 -67 -77q0 -38 22.5 -59t57 -36t74 -29.5t74 -38t57 -62t22.5 -101.5q0 -61 -16.5 -104t-48 -70.5t-76.5 -40t-103 -12.5q-46 0 -88.5 8t-75 29t-52 57t-19.5 92v46h162zM262 901h156l-100 -142h-106z" />
    <glyph glyph-name="sacute" unicode="&#x15b;" horiz-adv-x="463" 
d="M25 0zM169 172q1 -18 3 -33.5t8 -27.5q7 -11 18.5 -18t31.5 -7q29 0 43.5 16t14.5 39q0 19 -12 36t-50 30q-50 17 -87 32t-61.5 34.5t-36.5 47.5t-12 71q0 81 53.5 122t152.5 41q57 0 94.5 -13t60 -34t32 -48.5t9.5 -56.5v-18h-144v10q0 35 -13.5 47.5t-39.5 12.5
q-32 0 -43.5 -14t-11.5 -36q0 -24 19 -36.5t48 -22t62.5 -19.5t62.5 -29t48 -51t19 -84q0 -82 -52.5 -129.5t-154.5 -47.5q-109 0 -157.5 40.5t-48.5 121.5v24h144zM229 741h156l-100 -142h-106z" />
    <glyph glyph-name="Scircumflex" unicode="&#x15c;" horiz-adv-x="537" 
d="M29 0zM191 218v-25q0 -41 14.5 -68t58.5 -27q22 0 36.5 7.5t23.5 19.5t12.5 27.5t3.5 30.5q0 38 -22.5 59.5t-57 36.5t-74 29t-74 38.5t-57 64.5t-22.5 107q0 43 12 81t40 66.5t72.5 45.5t109.5 17q63 0 106.5 -15t70.5 -41.5t39 -62t12 -76.5v-17h-162q0 52 -14 75
q-15 25 -51 25q-67 0 -67 -77q0 -38 22.5 -59t57 -36t74 -29.5t74 -38t57 -62t22.5 -101.5q0 -61 -16.5 -104t-48 -70.5t-76.5 -40t-103 -12.5q-46 0 -88.5 8t-75 29t-52 57t-19.5 92v46h162zM186 901h168l71 -142h-118l-37 81l-36 -81h-119z" />
    <glyph glyph-name="scircumflex" unicode="&#x15d;" horiz-adv-x="463" 
d="M25 0zM169 172q1 -18 3 -33.5t8 -27.5q7 -11 18.5 -18t31.5 -7q29 0 43.5 16t14.5 39q0 19 -12 36t-50 30q-50 17 -87 32t-61.5 34.5t-36.5 47.5t-12 71q0 81 53.5 122t152.5 41q57 0 94.5 -13t60 -34t32 -48.5t9.5 -56.5v-18h-144v10q0 35 -13.5 47.5t-39.5 12.5
q-32 0 -43.5 -14t-11.5 -36q0 -24 19 -36.5t48 -22t62.5 -19.5t62.5 -29t48 -51t19 -84q0 -82 -52.5 -129.5t-154.5 -47.5q-109 0 -157.5 40.5t-48.5 121.5v24h144zM148 741h168l71 -142h-118l-37 81l-36 -81h-119z" />
    <glyph glyph-name="Scedilla" unicode="&#x15e;" horiz-adv-x="537" 
d="M158 -153q14 -6 33 -10.5t40 -4.5q26 0 36 10t10 24q0 13 -13.5 22t-32.5 9q-11 0 -19 -2.5t-10 -3.5l-23 19l44 78q-24 1 -48 6q-31 6 -58 19t-46.5 34.5t-30.5 52t-11 72.5v46h162v-25q0 -41 14.5 -68t58.5 -27q22 0 36.5 7.5t23.5 19.5t12.5 27.5t3.5 30.5
q0 38 -22.5 59.5t-57 36.5t-74 29t-74 38.5t-57 64.5t-22.5 107q0 43 12 81t40 66.5t72.5 45.5t109.5 17q63 0 106.5 -15t70.5 -41.5t39 -62t12 -76.5v-17h-162q0 52 -14 75q-15 25 -51 25q-67 0 -67 -77q0 -38 22.5 -59t57 -36t74 -29.5t74 -38t57 -62t22.5 -101.5
q0 -91 -36.5 -143.5t-104.5 -70.5q-19 -5 -40.5 -8.5t-44.5 -4.5l-27 -46q9 4 26 4q48 0 69 -24t21 -53q0 -37 -29.5 -64t-90.5 -27q-37 0 -65 5.5t-49 13.5z" />
    <glyph glyph-name="scedilla" unicode="&#x15f;" horiz-adv-x="463" 
d="M124 -153q14 -6 33 -10.5t40 -4.5q26 0 36 10t10 24q0 13 -13.5 22t-32.5 9q-11 0 -19 -2.5t-10 -3.5l-23 19l45 78q-77 6 -117 38q-48 40 -48 122v24h144q1 -18 3 -33.5t8 -27.5q7 -11 18.5 -18t31.5 -7q29 0 43.5 16t14.5 39q0 19 -12 36t-50 30q-50 17 -87 32
t-61.5 34.5t-36.5 47.5t-12 71q0 81 53.5 122t152.5 41q57 0 94.5 -13t60 -34t32 -48.5t9.5 -56.5v-18h-144v10q0 35 -13.5 47.5t-39.5 12.5q-32 0 -43.5 -14t-11.5 -36q0 -24 19 -36.5t48 -22t62.5 -19.5t62.5 -29t48 -51t19 -84q0 -82 -53 -130q-48 -42 -137 -47l-27 -46
q9 4 26 4q48 0 69 -24t21 -53q0 -37 -29.5 -64t-90.5 -27q-37 0 -65 5.5t-49 13.5z" />
    <glyph glyph-name="Scaron" unicode="&#x160;" horiz-adv-x="537" 
d="M29 0zM191 218v-25q0 -41 14.5 -68t58.5 -27q22 0 36.5 7.5t23.5 19.5t12.5 27.5t3.5 30.5q0 38 -22.5 59.5t-57 36.5t-74 29t-74 38.5t-57 64.5t-22.5 107q0 43 12 81t40 66.5t72.5 45.5t109.5 17q63 0 106.5 -15t70.5 -41.5t39 -62t12 -76.5v-17h-162q0 52 -14 75
q-15 25 -51 25q-67 0 -67 -77q0 -38 22.5 -59t57 -36t74 -29.5t74 -38t57 -62t22.5 -101.5q0 -61 -16.5 -104t-48 -70.5t-76.5 -40t-103 -12.5q-46 0 -88.5 8t-75 29t-52 57t-19.5 92v46h162zM115 901h119l36 -81l37 81h118l-71 -142h-168z" />
    <glyph glyph-name="scaron" unicode="&#x161;" horiz-adv-x="463" 
d="M25 0zM169 172q1 -18 3 -33.5t8 -27.5q7 -11 18.5 -18t31.5 -7q29 0 43.5 16t14.5 39q0 19 -12 36t-50 30q-50 17 -87 32t-61.5 34.5t-36.5 47.5t-12 71q0 81 53.5 122t152.5 41q57 0 94.5 -13t60 -34t32 -48.5t9.5 -56.5v-18h-144v10q0 35 -13.5 47.5t-39.5 12.5
q-32 0 -43.5 -14t-11.5 -36q0 -24 19 -36.5t48 -22t62.5 -19.5t62.5 -29t48 -51t19 -84q0 -82 -52.5 -129.5t-154.5 -47.5q-109 0 -157.5 40.5t-48.5 121.5v24h144zM80 741h119l36 -81l37 81h118l-71 -142h-168z" />
    <glyph glyph-name="Tcommaaccent" unicode="&#x162;" horiz-adv-x="480" 
d="M6 0zM156 578h-150v136h468v-136h-150v-578h-168v578zM172 -50h134v-76q-3 -56 -32.5 -76.5t-84.5 -21.5v40q26 4 34 11t10 19h-61v104z" />
    <glyph glyph-name="tcommaaccent" unicode="&#x163;" horiz-adv-x="315" 
d="M0 0zM66 429h-67v112h67v159h162v-159h75v-112h-75v-273q0 -29 11.5 -39.5t40.5 -10.5q5 0 11.5 0.5t11.5 1.5v-108q-47 -6 -93 -6q-42 0 -70 5t-44.5 20.5t-23 44.5t-6.5 76v289zM117 -50h134v-76q-3 -56 -32.5 -76.5t-84.5 -21.5v40q26 4 34 11t10 19h-61v104z" />
    <glyph glyph-name="Tcaron" unicode="&#x164;" horiz-adv-x="480" 
d="M6 0zM156 578h-150v136h468v-136h-150v-578h-168v578zM87 901h119l36 -81l37 81h118l-71 -142h-168z" />
    <glyph glyph-name="tcaron" unicode="&#x165;" horiz-adv-x="414" 
d="M0 0zM323 714h131l-59 -142h-98zM66 429h-67v112h67v159h162v-159h75v-112h-75v-273q0 -29 11.5 -39.5t40.5 -10.5q5 0 11.5 0.5t11.5 1.5v-108q-47 -6 -93 -6q-42 0 -70 5t-44.5 20.5t-23 44.5t-6.5 76v289z" />
    <glyph glyph-name="Tbar" unicode="&#x166;" horiz-adv-x="480" 
d="M53 423h103v155h-150v136h468v-136h-150v-155h102v-68h-102v-355h-168v355h-103v68z" />
    <glyph glyph-name="tbar" unicode="&#x167;" horiz-adv-x="315" 
d="M-10 323h76v106h-67v112h67v159h162v-159h75v-112h-75v-106h84v-68h-84v-99q0 -29 11.5 -39.5t40.5 -10.5q5 0 11.5 0.5t11.5 1.5v-108q-47 -6 -93 -6q-42 0 -70 5t-44.5 20.5t-23 44.5t-6.5 76v115h-76v68z" />
    <glyph glyph-name="Utilde" unicode="&#x168;" horiz-adv-x="556" 
d="M43 0zM513 236q0 -53 -9.5 -98.5t-35 -79t-71.5 -53t-119 -19.5t-119 19.5t-71.5 53t-35 79t-9.5 98.5v478h168v-527q0 -42 16.5 -65.5t50.5 -23.5t50.5 23.5t16.5 65.5v527h168v-478zM442 898q-2 -22 -7.5 -46t-17 -44t-30 -33t-45.5 -13q-18 0 -35.5 4.5t-32.5 10.5
t-27.5 10.5t-22.5 4.5q-14 0 -20.5 -11t-8.5 -19h-77q2 26 8.5 50.5t18.5 43.5t28.5 30.5t38.5 11.5q20 0 37 -4.5t31 -10.5q15 -5 27.5 -10t23.5 -5q19 0 24 9.5t7 20.5h80z" />
    <glyph glyph-name="utilde" unicode="&#x169;" horiz-adv-x="519" 
d="M45 0zM474 0h-156v64h-2q-17 -36 -51 -57t-79 -21q-69 0 -105 36t-36 114v405h162v-369q0 -29 12 -45.5t35 -16.5t40.5 18.5t17.5 58.5v354h162v-541zM423 738q-2 -22 -7.5 -46t-17 -44t-30 -33t-45.5 -13q-18 0 -35.5 4.5t-32.5 10.5t-27.5 10.5t-22.5 4.5
q-14 0 -20.5 -11t-8.5 -19h-77q2 26 8.5 50.5t18.5 43.5t28.5 30.5t38.5 11.5q20 0 37 -4.5t31 -10.5q15 -5 27.5 -10t23.5 -5q19 0 24 9.5t7 20.5h80z" />
    <glyph glyph-name="Umacron" unicode="&#x16a;" horiz-adv-x="556" 
d="M43 0zM513 236q0 -53 -9.5 -98.5t-35 -79t-71.5 -53t-119 -19.5t-119 19.5t-71.5 53t-35 79t-9.5 98.5v478h168v-527q0 -42 16.5 -65.5t50.5 -23.5t50.5 23.5t16.5 65.5v527h168v-478zM125 874h310v-88h-310v88z" />
    <glyph glyph-name="umacron" unicode="&#x16b;" horiz-adv-x="519" 
d="M45 0zM474 0h-156v64h-2q-17 -36 -51 -57t-79 -21q-69 0 -105 36t-36 114v405h162v-369q0 -29 12 -45.5t35 -16.5t40.5 18.5t17.5 58.5v354h162v-541zM106 714h310v-88h-310v88z" />
    <glyph glyph-name="Ubreve" unicode="&#x16c;" horiz-adv-x="556" 
d="M43 0zM513 236q0 -53 -9.5 -98.5t-35 -79t-71.5 -53t-119 -19.5t-119 19.5t-71.5 53t-35 79t-9.5 98.5v478h168v-527q0 -42 16.5 -65.5t50.5 -23.5t50.5 23.5t16.5 65.5v527h168v-478zM280 837q25 0 47 17.5t26 46.5h72q0 -30 -8.5 -55.5t-26.5 -45t-45.5 -30.5
t-64.5 -11q-38 0 -65 11t-45 30.5t-26.5 45t-8.5 55.5h72q4 -29 26 -46.5t47 -17.5z" />
    <glyph glyph-name="ubreve" unicode="&#x16d;" horiz-adv-x="519" 
d="M45 0zM474 0h-156v64h-2q-17 -36 -51 -57t-79 -21q-69 0 -105 36t-36 114v405h162v-369q0 -29 12 -45.5t35 -16.5t40.5 18.5t17.5 58.5v354h162v-541zM261 677q25 0 47 17.5t26 46.5h72q0 -30 -8.5 -55.5t-26.5 -45t-45.5 -30.5t-64.5 -11q-38 0 -65 11t-45 30.5
t-26.5 45t-8.5 55.5h72q4 -29 26 -46.5t47 -17.5z" />
    <glyph glyph-name="Uring" unicode="&#x16e;" horiz-adv-x="556" 
d="M43 0zM513 236q0 -53 -9.5 -98.5t-35 -79t-71.5 -53t-119 -19.5t-119 19.5t-71.5 53t-35 79t-9.5 98.5v478h168v-527q0 -42 16.5 -65.5t50.5 -23.5t50.5 23.5t16.5 65.5v527h168v-478zM220 850q0 -25 17.5 -42.5t42.5 -17.5t42.5 17.5t17.5 42.5t-17.5 42.5t-42.5 17.5
t-42.5 -17.5t-17.5 -42.5zM159 850q0 26 9.5 47.5t26 37t38.5 24t47 8.5t47 -8.5t38.5 -24t26 -37t9.5 -47.5t-9.5 -47.5t-26 -36.5t-38.5 -23t-47 -8t-47 8t-38.5 23t-26 36.5t-9.5 47.5z" />
    <glyph glyph-name="uring" unicode="&#x16f;" horiz-adv-x="519" 
d="M45 0zM474 0h-156v64h-2q-17 -36 -51 -57t-79 -21q-69 0 -105 36t-36 114v405h162v-369q0 -29 12 -45.5t35 -16.5t40.5 18.5t17.5 58.5v354h162v-541zM200 694q0 -25 17.5 -42.5t42.5 -17.5t42.5 17.5t17.5 42.5t-17.5 42.5t-42.5 17.5t-42.5 -17.5t-17.5 -42.5zM139 694
q0 26 9.5 47.5t26 37t38.5 24t47 8.5t47 -8.5t38.5 -24t26 -37t9.5 -47.5t-9.5 -47.5t-26 -36.5t-38.5 -23t-47 -8t-47 8t-38.5 23t-26 36.5t-9.5 47.5z" />
    <glyph glyph-name="Uhungarumlaut" unicode="&#x170;" horiz-adv-x="556" 
d="M43 0zM513 236q0 -53 -9.5 -98.5t-35 -79t-71.5 -53t-119 -19.5t-119 19.5t-71.5 53t-35 79t-9.5 98.5v478h168v-527q0 -42 16.5 -65.5t50.5 -23.5t50.5 23.5t16.5 65.5v527h168v-478zM374 901h156l-100 -142h-106zM174 901h156l-100 -142h-106z" />
    <glyph glyph-name="uhungarumlaut" unicode="&#x171;" horiz-adv-x="519" 
d="M45 0zM474 0h-156v64h-2q-17 -36 -51 -57t-79 -21q-69 0 -105 36t-36 114v405h162v-369q0 -29 12 -45.5t35 -16.5t40.5 18.5t17.5 58.5v354h162v-541zM357 741h156l-100 -142h-106zM157 741h156l-100 -142h-106z" />
    <glyph glyph-name="Uogonek" unicode="&#x172;" horiz-adv-x="556" 
d="M383 -197q-22 -12 -53 -19.5t-63 -7.5q-51 0 -79 23.5t-28 65.5q0 39 32 74q24 27 57 48q-54 3 -90 18q-35 15 -57.5 38t-35.5 52t-18 64.5t-5 76.5v478h168v-527q0 -42 16.5 -65.5t50.5 -23.5t50.5 23.5t16.5 65.5v527h168v-478q0 -41 -5 -76.5t-18 -64.5t-35.5 -52
t-57.5 -38q-14 -5 -30 -9.5t-35 -6.5q-78 -65 -78 -110q0 -23 13.5 -35t36.5 -12q30 0 56 16z" />
    <glyph glyph-name="uogonek" unicode="&#x173;" horiz-adv-x="519" 
d="M474 0h-86q-72 -72 -72 -122q0 -25 13.5 -35.5t33.5 -10.5q26 0 51 16l20 -45q-19 -12 -47 -19.5t-57 -7.5q-46 0 -72 22t-26 64q0 37 21.5 67.5t64.5 70.5v64h-2q-17 -36 -51 -57t-79 -21q-69 0 -105 36t-36 114v405h162v-369q0 -29 12 -45.5t35 -16.5t40.5 18.5
t17.5 58.5v354h162v-541z" />
    <glyph glyph-name="Wcircumflex" unicode="&#x174;" horiz-adv-x="778" 
d="M6 0zM6 714h168l62 -508h2l74 508h156l80 -508h2l60 508h162l-124 -714h-186l-73 507h-2l-69 -507h-186zM307 901h168l71 -142h-118l-37 81l-36 -81h-119z" />
    <glyph glyph-name="wcircumflex" unicode="&#x175;" horiz-adv-x="741" 
d="M9 0zM9 541h162l52 -399h2l61 399h174l57 -399h2l57 399h156l-117 -541h-183l-59 399h-2l-63 -399h-186zM290 741h168l71 -142h-118l-37 81l-36 -81h-119z" />
    <glyph glyph-name="Ycircumflex" unicode="&#x176;" horiz-adv-x="536" 
d="M3 0zM184 281l-181 433h186l80 -265h2l82 265h180l-181 -433v-281h-168v281zM187 901h168l71 -142h-118l-37 81l-36 -81h-119z" />
    <glyph glyph-name="ycircumflex" unicode="&#x177;" horiz-adv-x="481" 
d="M10 0zM10 541h168l66 -379h2l63 379h162l-145 -545q-14 -52 -29.5 -85.5t-38 -52.5t-54.5 -26.5t-79 -7.5h-37q-8 0 -16.5 0.5t-16.5 1.5v114q10 -2 20 -3t20 -1q23 0 42 12.5t26 47.5zM162 741h168l71 -142h-118l-37 81l-36 -81h-119z" />
    <glyph glyph-name="Ydieresis" unicode="&#x178;" horiz-adv-x="536" 
d="M3 0zM184 281l-181 433h186l80 -265h2l82 265h180l-181 -433v-281h-168v281zM297 895h124v-130h-124v130zM121 895h124v-130h-124v130z" />
    <glyph glyph-name="Zacute" unicode="&#x179;" horiz-adv-x="481" 
d="M23 0zM23 124l242 454h-223v136h416v-118l-245 -460h245v-136h-435v124zM240 901h156l-100 -142h-106z" />
    <glyph glyph-name="zacute" unicode="&#x17a;" horiz-adv-x="463" 
d="M31 0zM31 124l204 293h-195v124h387v-124l-210 -293h215v-124h-401v124zM224 741h156l-100 -142h-106z" />
    <glyph glyph-name="Zdotaccent" unicode="&#x17b;" horiz-adv-x="481" 
d="M23 0zM23 124l242 454h-223v136h416v-118l-245 -460h245v-136h-435v124zM317 895v-130h-124v130h124z" />
    <glyph glyph-name="zdotaccent" unicode="&#x17c;" horiz-adv-x="463" 
d="M31 0zM31 124l204 293h-195v124h387v-124l-210 -293h215v-124h-401v124zM300 735v-130h-124v130h124z" />
    <glyph glyph-name="florin" unicode="&#x192;" horiz-adv-x="520" 
d="M2 -68q7 -1 16.5 -1.5t22.5 -0.5q16 0 28.5 3.5t21.5 13.5t16 27.5t12 44.5l60 308h-108l19 94h107l27 137q15 78 62 117t138 39q20 0 40 -1.5t45 -3.5l-22 -103q-9 1 -16.5 1.5t-15.5 0.5q-20 0 -33.5 -3.5t-24 -14t-17.5 -30.5t-13 -52l-17 -87h112l-19 -94h-111
l-63 -325q-8 -41 -21.5 -74t-37 -56t-57.5 -35.5t-82 -12.5q-27 0 -51.5 2.5t-38.5 5.5z" />
    <glyph glyph-name="Scommaaccent" unicode="&#x218;" horiz-adv-x="537" 
d="M29 0zM191 218v-25q0 -41 14.5 -68t58.5 -27q22 0 36.5 7.5t23.5 19.5t12.5 27.5t3.5 30.5q0 38 -22.5 59.5t-57 36.5t-74 29t-74 38.5t-57 64.5t-22.5 107q0 43 12 81t40 66.5t72.5 45.5t109.5 17q63 0 106.5 -15t70.5 -41.5t39 -62t12 -76.5v-17h-162q0 52 -14 75
q-15 25 -51 25q-67 0 -67 -77q0 -38 22.5 -59t57 -36t74 -29.5t74 -38t57 -62t22.5 -101.5q0 -61 -16.5 -104t-48 -70.5t-76.5 -40t-103 -12.5q-46 0 -88.5 8t-75 29t-52 57t-19.5 92v46h162zM196 -50h134v-76q-3 -56 -32.5 -76.5t-84.5 -21.5v40q26 4 34 11t10 19h-61v104z
" />
    <glyph glyph-name="scommaaccent" unicode="&#x219;" horiz-adv-x="463" 
d="M25 0zM169 172q1 -18 3 -33.5t8 -27.5q7 -11 18.5 -18t31.5 -7q29 0 43.5 16t14.5 39q0 19 -12 36t-50 30q-50 17 -87 32t-61.5 34.5t-36.5 47.5t-12 71q0 81 53.5 122t152.5 41q57 0 94.5 -13t60 -34t32 -48.5t9.5 -56.5v-18h-144v10q0 35 -13.5 47.5t-39.5 12.5
q-32 0 -43.5 -14t-11.5 -36q0 -24 19 -36.5t48 -22t62.5 -19.5t62.5 -29t48 -51t19 -84q0 -82 -52.5 -129.5t-154.5 -47.5q-109 0 -157.5 40.5t-48.5 121.5v24h144zM166 -50h134v-76q-3 -56 -32.5 -76.5t-84.5 -21.5v40q26 4 34 11t10 19h-61v104z" />
    <glyph glyph-name="uni021A" unicode="&#x21a;" horiz-adv-x="480" 
d="M6 0zM156 578h-150v136h468v-136h-150v-578h-168v578zM172 -50h134v-76q-3 -56 -32.5 -76.5t-84.5 -21.5v40q26 4 34 11t10 19h-61v104z" />
    <glyph glyph-name="uni021B" unicode="&#x21b;" horiz-adv-x="315" 
d="M0 0zM66 429h-67v112h67v159h162v-159h75v-112h-75v-273q0 -29 11.5 -39.5t40.5 -10.5q5 0 11.5 0.5t11.5 1.5v-108q-47 -6 -93 -6q-42 0 -70 5t-44.5 20.5t-23 44.5t-6.5 76v289zM117 -50h134v-76q-3 -56 -32.5 -76.5t-84.5 -21.5v40q26 4 34 11t10 19h-61v104z" />
    <glyph glyph-name="dotlessj" unicode="&#x237;" 
d="M49 541h162v-554q0 -42 -6.5 -72.5t-24.5 -51t-50 -30t-84 -9.5q-19 0 -34 0.5t-35 1.5v111q5 -1 13 -1h10q18 1 28 5.5t14.5 12.5t5.5 21t1 31v535z" />
    <glyph glyph-name="circumflex" 
d="M46 741h168l71 -142h-118l-37 81l-36 -81h-119z" />
    <glyph glyph-name="caron" 
d="M-25 741h119l36 -81l37 81h118l-71 -142h-168z" />
    <glyph glyph-name="breve" 
d="M130 677q25 0 47 17.5t26 46.5h72q0 -30 -8.5 -55.5t-26.5 -45t-45.5 -30.5t-64.5 -11q-38 0 -65 11t-45 30.5t-26.5 45t-8.5 55.5h72q4 -29 26 -46.5t47 -17.5z" />
    <glyph glyph-name="dotaccent" 
d="M192 735v-130h-124v130h124z" />
    <glyph glyph-name="ring" 
d="M70 694q0 -25 17.5 -42.5t42.5 -17.5t42.5 17.5t17.5 42.5t-17.5 42.5t-42.5 17.5t-42.5 -17.5t-17.5 -42.5zM9 694q0 26 9.5 47.5t26 37t38.5 24t47 8.5t47 -8.5t38.5 -24t26 -37t9.5 -47.5t-9.5 -47.5t-26 -36.5t-38.5 -23t-47 -8t-47 8t-38.5 23t-26 36.5t-9.5 47.5z
" />
    <glyph glyph-name="tilde" 
d="M292 738q-2 -22 -7.5 -46t-17 -44t-30 -33t-45.5 -13q-18 0 -35.5 4.5t-32.5 10.5t-27.5 10.5t-22.5 4.5q-14 0 -20.5 -11t-8.5 -19h-77q2 26 8.5 50.5t18.5 43.5t28.5 30.5t38.5 11.5q20 0 37 -4.5t31 -10.5q15 -5 27.5 -10t23.5 -5q19 0 24 9.5t7 20.5h80z" />
    <glyph glyph-name="hungarumlaut" 
d="M219 741h156l-100 -142h-106zM19 741h156l-100 -142h-106z" />
    <glyph glyph-name="caron.alt" 
d="M95 714h131l-59 -142h-98z" />
    <glyph glyph-name="commaaccent" 
d="M64 -50h134v-76q-3 -56 -32.5 -76.5t-84.5 -21.5v40q26 4 34 11t10 19h-61v104z" />
    <glyph glyph-name="commaaccent.alt" 
d="M196 610h-134v76q1 28 9.5 46.5t23 30t35.5 16t49 5.5v-40q-26 -4 -34 -11t-10 -19h61v-104z" />
    <glyph glyph-name=".ttfautohint" 
d="M0 0z" />
    </font>
</defs>
</svg>
